%TF.GenerationSoftware,KiCad,Pcbnew,9.0.5*%
%TF.CreationDate,2025-11-13T16:23:19-08:00*%
%TF.ProjectId,SYCL Badge 2024,5359434c-2042-4616-9467-652032303234,rev?*%
%TF.SameCoordinates,Original*%
%TF.FileFunction,Copper,L4,Bot*%
%TF.FilePolarity,Positive*%
%FSLAX46Y46*%
G04 Gerber Fmt 4.6, Leading zero omitted, Abs format (unit mm)*
G04 Created by KiCad (PCBNEW 9.0.5) date 2025-11-13 16:23:19*
%MOMM*%
%LPD*%
G01*
G04 APERTURE LIST*
G04 Aperture macros list*
%AMRoundRect*
0 Rectangle with rounded corners*
0 $1 Rounding radius*
0 $2 $3 $4 $5 $6 $7 $8 $9 X,Y pos of 4 corners*
0 Add a 4 corners polygon primitive as box body*
4,1,4,$2,$3,$4,$5,$6,$7,$8,$9,$2,$3,0*
0 Add four circle primitives for the rounded corners*
1,1,$1+$1,$2,$3*
1,1,$1+$1,$4,$5*
1,1,$1+$1,$6,$7*
1,1,$1+$1,$8,$9*
0 Add four rect primitives between the rounded corners*
20,1,$1+$1,$2,$3,$4,$5,0*
20,1,$1+$1,$4,$5,$6,$7,0*
20,1,$1+$1,$6,$7,$8,$9,0*
20,1,$1+$1,$8,$9,$2,$3,0*%
%AMRotRect*
0 Rectangle, with rotation*
0 The origin of the aperture is its center*
0 $1 length*
0 $2 width*
0 $3 Rotation angle, in degrees counterclockwise*
0 Add horizontal line*
21,1,$1,$2,0,0,$3*%
G04 Aperture macros list end*
%TA.AperFunction,ComponentPad*%
%ADD10O,1.168400X2.667000*%
%TD*%
%TA.AperFunction,ComponentPad*%
%ADD11O,1.168400X2.159000*%
%TD*%
%TA.AperFunction,SMDPad,CuDef*%
%ADD12R,1.041400X0.762000*%
%TD*%
%TA.AperFunction,SMDPad,CuDef*%
%ADD13R,0.330200X0.762000*%
%TD*%
%TA.AperFunction,ComponentPad*%
%ADD14C,2.000000*%
%TD*%
%TA.AperFunction,ComponentPad*%
%ADD15R,1.700000X1.700000*%
%TD*%
%TA.AperFunction,ComponentPad*%
%ADD16C,1.700000*%
%TD*%
%TA.AperFunction,SMDPad,CuDef*%
%ADD17RoundRect,0.225000X-0.375000X0.225000X-0.375000X-0.225000X0.375000X-0.225000X0.375000X0.225000X0*%
%TD*%
%TA.AperFunction,SMDPad,CuDef*%
%ADD18RoundRect,0.250000X-0.475000X0.337500X-0.475000X-0.337500X0.475000X-0.337500X0.475000X0.337500X0*%
%TD*%
%TA.AperFunction,SMDPad,CuDef*%
%ADD19RoundRect,0.237500X-0.035355X-0.371231X0.371231X0.035355X0.035355X0.371231X-0.371231X-0.035355X0*%
%TD*%
%TA.AperFunction,SMDPad,CuDef*%
%ADD20RoundRect,0.237500X0.008839X0.344715X-0.344715X-0.008839X-0.008839X-0.344715X0.344715X0.008839X0*%
%TD*%
%TA.AperFunction,SMDPad,CuDef*%
%ADD21RoundRect,0.250000X0.475000X-0.337500X0.475000X0.337500X-0.475000X0.337500X-0.475000X-0.337500X0*%
%TD*%
%TA.AperFunction,SMDPad,CuDef*%
%ADD22RoundRect,0.237500X-0.237500X0.250000X-0.237500X-0.250000X0.237500X-0.250000X0.237500X0.250000X0*%
%TD*%
%TA.AperFunction,SMDPad,CuDef*%
%ADD23RoundRect,0.250000X-0.097227X0.574524X-0.574524X0.097227X0.097227X-0.574524X0.574524X-0.097227X0*%
%TD*%
%TA.AperFunction,SMDPad,CuDef*%
%ADD24RoundRect,0.250000X0.574524X0.097227X0.097227X0.574524X-0.574524X-0.097227X-0.097227X-0.574524X0*%
%TD*%
%TA.AperFunction,SMDPad,CuDef*%
%ADD25RoundRect,0.237500X0.250000X0.237500X-0.250000X0.237500X-0.250000X-0.237500X0.250000X-0.237500X0*%
%TD*%
%TA.AperFunction,SMDPad,CuDef*%
%ADD26RoundRect,0.250000X-0.574524X-0.097227X-0.097227X-0.574524X0.574524X0.097227X0.097227X0.574524X0*%
%TD*%
%TA.AperFunction,SMDPad,CuDef*%
%ADD27RoundRect,0.237500X-0.250000X-0.237500X0.250000X-0.237500X0.250000X0.237500X-0.250000X0.237500X0*%
%TD*%
%TA.AperFunction,SMDPad,CuDef*%
%ADD28RoundRect,0.150000X-0.150000X0.512500X-0.150000X-0.512500X0.150000X-0.512500X0.150000X0.512500X0*%
%TD*%
%TA.AperFunction,SMDPad,CuDef*%
%ADD29RoundRect,0.100000X0.548008X-0.406586X-0.406586X0.548008X-0.548008X0.406586X0.406586X-0.548008X0*%
%TD*%
%TA.AperFunction,SMDPad,CuDef*%
%ADD30RoundRect,0.100000X0.548008X0.406586X0.406586X0.548008X-0.548008X-0.406586X-0.406586X-0.548008X0*%
%TD*%
%TA.AperFunction,HeatsinkPad*%
%ADD31RotRect,9.500000X9.500000X135.000000*%
%TD*%
%TA.AperFunction,SMDPad,CuDef*%
%ADD32C,1.500000*%
%TD*%
%TA.AperFunction,SMDPad,CuDef*%
%ADD33RoundRect,0.250000X0.337500X0.475000X-0.337500X0.475000X-0.337500X-0.475000X0.337500X-0.475000X0*%
%TD*%
%TA.AperFunction,SMDPad,CuDef*%
%ADD34RoundRect,0.237500X-0.344715X0.008839X0.008839X-0.344715X0.344715X-0.008839X-0.008839X0.344715X0*%
%TD*%
%TA.AperFunction,SMDPad,CuDef*%
%ADD35RoundRect,0.237500X0.237500X-0.250000X0.237500X0.250000X-0.237500X0.250000X-0.237500X-0.250000X0*%
%TD*%
%TA.AperFunction,SMDPad,CuDef*%
%ADD36R,1.500000X1.600000*%
%TD*%
%TA.AperFunction,SMDPad,CuDef*%
%ADD37RoundRect,0.150000X0.512500X0.150000X-0.512500X0.150000X-0.512500X-0.150000X0.512500X-0.150000X0*%
%TD*%
%TA.AperFunction,ConnectorPad*%
%ADD38C,0.787400*%
%TD*%
%TA.AperFunction,SMDPad,CuDef*%
%ADD39RoundRect,0.212500X0.777817X0.477297X0.477297X0.777817X-0.777817X-0.477297X-0.477297X-0.777817X0*%
%TD*%
%TA.AperFunction,SMDPad,CuDef*%
%ADD40RoundRect,0.162500X0.698268X-0.468458X-0.468458X0.698268X-0.698268X0.468458X0.468458X-0.698268X0*%
%TD*%
%TA.AperFunction,SMDPad,CuDef*%
%ADD41RoundRect,0.250000X0.097227X-0.574524X0.574524X-0.097227X-0.097227X0.574524X-0.574524X0.097227X0*%
%TD*%
%TA.AperFunction,SMDPad,CuDef*%
%ADD42RoundRect,0.237500X0.344715X-0.008839X-0.008839X0.344715X-0.344715X0.008839X0.008839X-0.344715X0*%
%TD*%
%TA.AperFunction,SMDPad,CuDef*%
%ADD43RoundRect,0.150000X0.150000X-0.587500X0.150000X0.587500X-0.150000X0.587500X-0.150000X-0.587500X0*%
%TD*%
%TA.AperFunction,SMDPad,CuDef*%
%ADD44R,1.000000X0.800000*%
%TD*%
%TA.AperFunction,SMDPad,CuDef*%
%ADD45R,0.700000X1.500000*%
%TD*%
%TA.AperFunction,SMDPad,CuDef*%
%ADD46RoundRect,0.237500X-0.008839X-0.344715X0.344715X0.008839X0.008839X0.344715X-0.344715X-0.008839X0*%
%TD*%
%TA.AperFunction,SMDPad,CuDef*%
%ADD47RoundRect,0.250000X-0.337500X-0.475000X0.337500X-0.475000X0.337500X0.475000X-0.337500X0.475000X0*%
%TD*%
%TA.AperFunction,SMDPad,CuDef*%
%ADD48RoundRect,0.250000X1.025305X-0.106066X-0.106066X1.025305X-1.025305X0.106066X0.106066X-1.025305X0*%
%TD*%
%TA.AperFunction,SMDPad,CuDef*%
%ADD49R,0.558800X1.498600*%
%TD*%
%TA.AperFunction,ViaPad*%
%ADD50C,0.600000*%
%TD*%
%TA.AperFunction,Conductor*%
%ADD51C,0.250000*%
%TD*%
%TA.AperFunction,Conductor*%
%ADD52C,0.600000*%
%TD*%
%TA.AperFunction,Conductor*%
%ADD53C,0.200000*%
%TD*%
%TA.AperFunction,Conductor*%
%ADD54C,0.350000*%
%TD*%
%TA.AperFunction,Conductor*%
%ADD55C,0.160000*%
%TD*%
%TA.AperFunction,Conductor*%
%ADD56C,0.400000*%
%TD*%
%TA.AperFunction,Conductor*%
%ADD57C,0.300000*%
%TD*%
%TA.AperFunction,Conductor*%
%ADD58C,0.360000*%
%TD*%
G04 APERTURE END LIST*
D10*
%TO.P,J5,SH4,SHIELD2*%
%TO.N,GND*%
X184974052Y-74342750D03*
%TO.P,J5,SH3,SHIELD1*%
X176334048Y-74342750D03*
D11*
%TO.P,J5,SH2,SHIELD4*%
X184974052Y-79702750D03*
%TO.P,J5,SH1,SHIELD3*%
X176334048Y-79702750D03*
D12*
%TO.P,J5,B12,GND_B12*%
X177554050Y-78781749D03*
D13*
%TO.P,J5,B11,RX1+*%
%TO.N,unconnected-(J5-RX1+-PadB11)*%
X178404049Y-78781749D03*
%TO.P,J5,B10,RX1-*%
%TO.N,unconnected-(J5-RX1--PadB10)*%
X178904051Y-78781749D03*
%TO.P,J5,B9,VBUS_B9*%
%TO.N,VBUS*%
X179404050Y-78781749D03*
%TO.P,J5,B8,SBU2*%
%TO.N,unconnected-(J5-SBU2-PadB8)*%
X179904049Y-78781749D03*
%TO.P,J5,B7,D2-*%
%TO.N,/D-*%
X180404050Y-78781749D03*
%TO.P,J5,B6,D2+*%
%TO.N,/D+*%
X180904050Y-78781749D03*
%TO.P,J5,B5,CC2*%
%TO.N,Net-(J5-CC2)*%
X181404051Y-78781749D03*
%TO.P,J5,B4,VBUS_B4*%
%TO.N,VBUS*%
X181904050Y-78781749D03*
%TO.P,J5,B3,TX2-*%
%TO.N,unconnected-(J5-TX2--PadB3)*%
X182404049Y-78781749D03*
%TO.P,J5,B2,TX2+*%
%TO.N,unconnected-(J5-TX2+-PadB2)*%
X182904051Y-78781749D03*
D12*
%TO.P,J5,B1,GND_B1*%
%TO.N,GND*%
X183754050Y-78781749D03*
D13*
%TO.P,J5,A12,GND_A12*%
X183654050Y-80081751D03*
%TO.P,J5,A11,RX2+*%
%TO.N,unconnected-(J5-RX2+-PadA11)*%
X183154051Y-80081751D03*
%TO.P,J5,A10,RX2-*%
%TO.N,unconnected-(J5-RX2--PadA10)*%
X182654049Y-80081751D03*
%TO.P,J5,A9,VBUS_A9*%
%TO.N,VBUS*%
X182154050Y-80081751D03*
%TO.P,J5,A8,SBU1*%
%TO.N,unconnected-(J5-SBU1-PadA8)*%
X181654051Y-80081751D03*
%TO.P,J5,A7,D1-*%
%TO.N,/D-*%
X181154050Y-80081751D03*
%TO.P,J5,A6,D1+*%
%TO.N,/D+*%
X180154050Y-80081751D03*
%TO.P,J5,A5,CC1*%
%TO.N,Net-(J5-CC1)*%
X179654049Y-80081751D03*
%TO.P,J5,A4,VBUS_A4*%
%TO.N,VBUS*%
X179154050Y-80081751D03*
%TO.P,J5,A3,TX1-*%
%TO.N,unconnected-(J5-TX1--PadA3)*%
X178654051Y-80081751D03*
%TO.P,J5,A2,TX1+*%
%TO.N,unconnected-(J5-TX1+-PadA2)*%
X178154049Y-80081751D03*
%TO.P,J5,A1,GND_A1*%
%TO.N,GND*%
X177654050Y-80081751D03*
%TD*%
D14*
%TO.P,TP22,1,1*%
%TO.N,/BUTTON8*%
X111400000Y-98350000D03*
%TD*%
%TO.P,TP29,1,1*%
%TO.N,/QSPI_CS*%
X189950000Y-99600000D03*
%TD*%
%TO.P,TP24,1,1*%
%TO.N,/QSPI_SCK*%
X182650000Y-95100000D03*
%TD*%
%TO.P,TP5,1,1*%
%TO.N,/SWCLK*%
X140200000Y-107100000D03*
%TD*%
D15*
%TO.P,J4,1,Pin_1*%
%TO.N,GND*%
X186350000Y-88120000D03*
D16*
%TO.P,J4,2,Pin_2*%
%TO.N,+3V3*%
X186350000Y-90660000D03*
%TO.P,J4,3,Pin_3*%
X186350000Y-93200000D03*
%TO.P,J4,4,Pin_4*%
%TO.N,/~{LCD_CS}*%
X186350000Y-95740000D03*
%TO.P,J4,5,Pin_5*%
%TO.N,/~{RESET}*%
X186350000Y-98280000D03*
%TO.P,J4,6,Pin_6*%
%TO.N,/LCD_SDIO*%
X186350000Y-100820000D03*
%TO.P,J4,7,Pin_7*%
%TO.N,GND*%
X186350000Y-103360000D03*
%TO.P,J4,8,Pin_8*%
%TO.N,/LCD_D{slash}CX*%
X186350000Y-105900000D03*
%TO.P,J4,9,Pin_9*%
%TO.N,/LCD_SCL*%
X186350000Y-108440000D03*
%TO.P,J4,10,Pin_10*%
%TO.N,/SP14W*%
X186350000Y-110980000D03*
%TO.P,J4,11,Pin_11*%
%TO.N,GND*%
X186350000Y-113520000D03*
%TO.P,J4,12,Pin_12*%
%TO.N,/TE*%
X186350000Y-116060000D03*
%TO.P,J4,13,Pin_13*%
%TO.N,+3V3*%
X186350000Y-118600000D03*
%TO.P,J4,14,Pin_14*%
%TO.N,/LED_K1*%
X186350000Y-121140000D03*
%TO.P,J4,15,Pin_15*%
%TO.N,/LED_K2*%
X186350000Y-123680000D03*
%TD*%
D14*
%TO.P,TP13,1,1*%
%TO.N,/BUTTON2*%
X198250000Y-104900000D03*
%TD*%
%TO.P,TP18,1,1*%
%TO.N,/BUTTON3*%
X177000000Y-108600000D03*
%TD*%
%TO.P,TP16,1,1*%
%TO.N,/D8_NEOPIX*%
X172100000Y-126650000D03*
%TD*%
%TO.P,TP15,1,1*%
%TO.N,/BKLT_PWM*%
X158575000Y-119600000D03*
%TD*%
%TO.P,TP21,1,1*%
%TO.N,/BUTTON6*%
X113550000Y-96250000D03*
%TD*%
%TO.P,TP11,1,1*%
%TO.N,/XIN*%
X155400000Y-118450000D03*
%TD*%
%TO.P,TP10,1,1*%
%TO.N,/A7_LIGHT*%
X162950000Y-74050000D03*
%TD*%
%TO.P,TP4,1,1*%
%TO.N,+3V3*%
X150950000Y-86900000D03*
%TD*%
%TO.P,TP7,1,1*%
%TO.N,/~{RESET}*%
X139650000Y-95900000D03*
%TD*%
%TO.P,TP6,1,1*%
%TO.N,/SWO*%
X143350000Y-109050000D03*
%TD*%
%TO.P,TP17,1,1*%
%TO.N,/BUTTON0*%
X113150000Y-81700000D03*
%TD*%
%TO.P,TP3,1,1*%
%TO.N,+1V1*%
X156250000Y-89900000D03*
%TD*%
%TO.P,TP12,1,1*%
%TO.N,VBUS*%
X158650000Y-85650000D03*
%TD*%
%TO.P,TP14,1,1*%
%TO.N,/BUTTON5*%
X126650000Y-113550000D03*
%TD*%
%TO.P,TP19,1,1*%
%TO.N,/BUTTON1*%
X192350000Y-82100000D03*
%TD*%
%TO.P,TP20,1,1*%
%TO.N,/BUTTON4*%
X115950000Y-94350000D03*
%TD*%
%TO.P,TP8,1,1*%
%TO.N,/SWDIO*%
X135300000Y-105700000D03*
%TD*%
%TO.P,TP2,1,1*%
%TO.N,GND*%
X124850000Y-74600000D03*
%TD*%
%TO.P,TP9,1,1*%
%TO.N,/XOUT*%
X150250000Y-118650000D03*
%TD*%
%TO.P,TP23,1,1*%
%TO.N,/BUTTON7*%
X131200000Y-109600000D03*
%TD*%
%TO.P,TP1,1,1*%
%TO.N,V+*%
X149025000Y-77200000D03*
%TD*%
D17*
%TO.P,D9,1,K*%
%TO.N,Net-(D9-K)*%
X160700000Y-73850000D03*
%TO.P,D9,2,A*%
%TO.N,VBUS*%
X160700000Y-77150000D03*
%TD*%
D18*
%TO.P,C8,1*%
%TO.N,+3V3*%
X147275000Y-99105000D03*
%TO.P,C8,2*%
%TO.N,GND*%
X147275000Y-101180000D03*
%TD*%
D19*
%TO.P,D8,1,K*%
%TO.N,GND*%
X174454765Y-117454765D03*
%TO.P,D8,2,A*%
%TO.N,Net-(D8-A)*%
X175692201Y-116217329D03*
%TD*%
D20*
%TO.P,R9,1*%
%TO.N,GND*%
X145275000Y-88900000D03*
%TO.P,R9,2*%
%TO.N,/BUTTON6*%
X143984530Y-90190470D03*
%TD*%
D21*
%TO.P,C43,1*%
%TO.N,GND*%
X147225000Y-105180000D03*
%TO.P,C43,2*%
%TO.N,/~{RESET}*%
X147225000Y-103105000D03*
%TD*%
D22*
%TO.P,R6,1*%
%TO.N,/BUTTON2*%
X198975000Y-99737500D03*
%TO.P,R6,2*%
%TO.N,GND*%
X198975000Y-101562500D03*
%TD*%
D23*
%TO.P,C12,1*%
%TO.N,VBUS*%
X172633623Y-82916377D03*
%TO.P,C12,2*%
%TO.N,GND*%
X171166377Y-84383623D03*
%TD*%
%TO.P,C7,1*%
%TO.N,VBUS*%
X174133623Y-84416377D03*
%TO.P,C7,2*%
%TO.N,GND*%
X172666377Y-85883623D03*
%TD*%
D24*
%TO.P,C35,1*%
%TO.N,+3V3*%
X159433623Y-89933623D03*
%TO.P,C35,2*%
%TO.N,GND*%
X157966377Y-88466377D03*
%TD*%
D25*
%TO.P,R20,1*%
%TO.N,GND*%
X189879050Y-77181751D03*
%TO.P,R20,2*%
%TO.N,Net-(J5-CC2)*%
X188054050Y-77181751D03*
%TD*%
D22*
%TO.P,R7,1*%
%TO.N,/BUTTON3*%
X190175000Y-109587500D03*
%TO.P,R7,2*%
%TO.N,GND*%
X190175000Y-111412500D03*
%TD*%
D26*
%TO.P,C36,1*%
%TO.N,+3V3*%
X172566377Y-105866377D03*
%TO.P,C36,2*%
%TO.N,GND*%
X174033623Y-107333623D03*
%TD*%
D25*
%TO.P,R38,1*%
%TO.N,+3V3*%
X163687500Y-115900000D03*
%TO.P,R38,2*%
%TO.N,/BKLT_PWM*%
X161862500Y-115900000D03*
%TD*%
D24*
%TO.P,C39,1*%
%TO.N,+3V3*%
X151500000Y-97900000D03*
%TO.P,C39,2*%
%TO.N,GND*%
X150032754Y-96432754D03*
%TD*%
D27*
%TO.P,R39,1*%
%TO.N,Net-(U8-RSET)*%
X166712500Y-118950000D03*
%TO.P,R39,2*%
%TO.N,GND*%
X168537500Y-118950000D03*
%TD*%
D24*
%TO.P,C33,1*%
%TO.N,+1V1*%
X156233623Y-93133623D03*
%TO.P,C33,2*%
%TO.N,GND*%
X154766377Y-91666377D03*
%TD*%
D27*
%TO.P,R16,1*%
%TO.N,GND*%
X170300000Y-80050201D03*
%TO.P,R16,2*%
%TO.N,Net-(J5-CC1)*%
X172125000Y-80050201D03*
%TD*%
D23*
%TO.P,C38,1*%
%TO.N,+3V3*%
X156853355Y-111941037D03*
%TO.P,C38,2*%
%TO.N,GND*%
X155386109Y-113408283D03*
%TD*%
D28*
%TO.P,U2,1,I/O1*%
%TO.N,/D+*%
X179700000Y-82800000D03*
%TO.P,U2,2,GND*%
%TO.N,GND*%
X180649999Y-82800000D03*
%TO.P,U2,3,I/O2*%
%TO.N,/D-*%
X181599998Y-82800000D03*
%TO.P,U2,4,I/O2*%
X181599998Y-85075000D03*
%TO.P,U2,5,VBUS*%
%TO.N,VBUS*%
X180649999Y-85075000D03*
%TO.P,U2,6,I/O1*%
%TO.N,/D+*%
X179700000Y-85075000D03*
%TD*%
D27*
%TO.P,R13,1,1*%
%TO.N,GND*%
X163987500Y-76250000D03*
%TO.P,R13,2,2*%
%TO.N,/A7_LIGHT*%
X165812500Y-76250000D03*
%TD*%
D29*
%TO.P,IC2,1,GPIO4*%
%TO.N,unconnected-(IC2-GPIO4-Pad1)*%
X172593429Y-102212346D03*
%TO.P,IC2,2,GPIO5*%
%TO.N,/BUTTON1*%
X172133810Y-102671966D03*
%TO.P,IC2,3,GPIO6*%
%TO.N,/BUTTON2*%
X171674190Y-103131585D03*
%TO.P,IC2,4,GPIO7*%
%TO.N,/BUTTON3*%
X171214571Y-103591204D03*
%TO.P,IC2,5,IOVDD_1*%
%TO.N,+3V3*%
X170754951Y-104050824D03*
%TO.P,IC2,6,GPIO8*%
%TO.N,unconnected-(IC2-GPIO8-Pad6)*%
X170295332Y-104510443D03*
%TO.P,IC2,7,GPIO9*%
%TO.N,unconnected-(IC2-GPIO9-Pad7)*%
X169835712Y-104970063D03*
%TO.P,IC2,8,GPIO10*%
%TO.N,unconnected-(IC2-GPIO10-Pad8)*%
X169376093Y-105429682D03*
%TO.P,IC2,9,GPIO11*%
%TO.N,unconnected-(IC2-GPIO11-Pad9)*%
X168916474Y-105889301D03*
%TO.P,IC2,10,DVDD_1*%
%TO.N,+1V1*%
X168456854Y-106348921D03*
%TO.P,IC2,11,GPIO12*%
%TO.N,unconnected-(IC2-GPIO12-Pad11)*%
X167997235Y-106808540D03*
%TO.P,IC2,12,GPIO13*%
%TO.N,unconnected-(IC2-GPIO13-Pad12)*%
X167537615Y-107268160D03*
%TO.P,IC2,13,GPIO14*%
%TO.N,/D13*%
X167077996Y-107727779D03*
%TO.P,IC2,14,GPIO15*%
%TO.N,/D8_NEOPIX*%
X166618377Y-108187398D03*
%TO.P,IC2,15,IOVDD_2*%
%TO.N,+3V3*%
X166158757Y-108647018D03*
%TO.P,IC2,16,GPIO16*%
%TO.N,unconnected-(IC2-GPIO16-Pad16)*%
X165699138Y-109106637D03*
%TO.P,IC2,17,GPIO17*%
%TO.N,unconnected-(IC2-GPIO17-Pad17)*%
X165239518Y-109566257D03*
%TO.P,IC2,18,GPIO18*%
%TO.N,/BKLT_PWM*%
X164779899Y-110025876D03*
%TO.P,IC2,19,GPIO19*%
%TO.N,/~{LCD_CS}*%
X164320280Y-110485496D03*
%TO.P,IC2,20,GPIO20*%
%TO.N,/TE*%
X163860660Y-110945115D03*
D30*
%TO.P,IC2,21,GPIO21*%
%TO.N,/LCD_SDIO*%
X161739340Y-110945115D03*
%TO.P,IC2,22,GPIO22*%
%TO.N,/LCD_D{slash}CX*%
X161279720Y-110485496D03*
%TO.P,IC2,23,GPIO23*%
%TO.N,/LCD_SCL*%
X160820101Y-110025876D03*
%TO.P,IC2,24,IOVDD_3*%
%TO.N,+3V3*%
X160360482Y-109566257D03*
%TO.P,IC2,25,GPIO24*%
%TO.N,/BUTTON5*%
X159900862Y-109106637D03*
%TO.P,IC2,26,GPIO25*%
%TO.N,/BUTTON7*%
X159441243Y-108647018D03*
%TO.P,IC2,27,GPIO26*%
%TO.N,unconnected-(IC2-GPIO26-Pad27)*%
X158981623Y-108187398D03*
%TO.P,IC2,28,GPIO27*%
%TO.N,unconnected-(IC2-GPIO27-Pad28)*%
X158522004Y-107727779D03*
%TO.P,IC2,29,IOVDD_4*%
%TO.N,+3V3*%
X158062385Y-107268160D03*
%TO.P,IC2,30,XIN*%
%TO.N,/XIN*%
X157602765Y-106808540D03*
%TO.P,IC2,31,XOUT*%
%TO.N,/XOUT*%
X157143146Y-106348921D03*
%TO.P,IC2,32,DVDD_2*%
%TO.N,+1V1*%
X156683526Y-105889301D03*
%TO.P,IC2,33,SWCLK*%
%TO.N,/SWCLK*%
X156223907Y-105429682D03*
%TO.P,IC2,34,SWDIO*%
%TO.N,/SWDIO*%
X155764288Y-104970063D03*
%TO.P,IC2,35,RUN*%
%TO.N,/~{RESET}*%
X155304668Y-104510443D03*
%TO.P,IC2,36,GPIO28*%
%TO.N,/SWO*%
X154845049Y-104050824D03*
%TO.P,IC2,37,GPIO29*%
%TO.N,unconnected-(IC2-GPIO29-Pad37)*%
X154385429Y-103591204D03*
%TO.P,IC2,38,GPIO30*%
%TO.N,unconnected-(IC2-GPIO30-Pad38)*%
X153925810Y-103131585D03*
%TO.P,IC2,39,GPIO31*%
%TO.N,unconnected-(IC2-GPIO31-Pad39)*%
X153466190Y-102671966D03*
%TO.P,IC2,40,GPIO32*%
%TO.N,unconnected-(IC2-GPIO32-Pad40)*%
X153006571Y-102212346D03*
D29*
%TO.P,IC2,41,IOVDD_5*%
%TO.N,+3V3*%
X153006571Y-100091026D03*
%TO.P,IC2,42,GPIO33*%
%TO.N,unconnected-(IC2-GPIO33-Pad42)*%
X153466190Y-99631406D03*
%TO.P,IC2,43,GPIO34*%
%TO.N,unconnected-(IC2-GPIO34-Pad43)*%
X153925810Y-99171787D03*
%TO.P,IC2,44,GPIO35*%
%TO.N,/BUTTON8*%
X154385429Y-98712168D03*
%TO.P,IC2,45,GPIO36*%
%TO.N,/BUTTON6*%
X154845049Y-98252548D03*
%TO.P,IC2,46,GPIO37*%
%TO.N,/BUTTON4*%
X155304668Y-97792929D03*
%TO.P,IC2,47,GPIO38*%
%TO.N,/BUTTON0*%
X155764288Y-97333309D03*
%TO.P,IC2,48,GPIO39*%
%TO.N,unconnected-(IC2-GPIO39-Pad48)*%
X156223907Y-96873690D03*
%TO.P,IC2,49,GPIO40_ADC0*%
%TO.N,unconnected-(IC2-GPIO40_ADC0-Pad49)*%
X156683526Y-96414071D03*
%TO.P,IC2,50,IOVDD_6*%
%TO.N,+3V3*%
X157143146Y-95954451D03*
%TO.P,IC2,51,DVDD_3*%
%TO.N,+1V1*%
X157602765Y-95494832D03*
%TO.P,IC2,52,GPIO41_ADC1*%
%TO.N,unconnected-(IC2-GPIO41_ADC1-Pad52)*%
X158062385Y-95035212D03*
%TO.P,IC2,53,GPIO42_ADC2*%
%TO.N,unconnected-(IC2-GPIO42_ADC2-Pad53)*%
X158522004Y-94575593D03*
%TO.P,IC2,54,GPIO43_ADC3*%
%TO.N,unconnected-(IC2-GPIO43_ADC3-Pad54)*%
X158981623Y-94115974D03*
%TO.P,IC2,55,GPIO44_ADC4*%
%TO.N,unconnected-(IC2-GPIO44_ADC4-Pad55)*%
X159441243Y-93656354D03*
%TO.P,IC2,56,GPIO45_ADC5*%
%TO.N,unconnected-(IC2-GPIO45_ADC5-Pad56)*%
X159900862Y-93196735D03*
%TO.P,IC2,57,GPIO46_ADC6*%
%TO.N,/A7_LIGHT*%
X160360482Y-92737115D03*
%TO.P,IC2,58,GPIO47_ADC7*%
%TO.N,unconnected-(IC2-GPIO47_ADC7-Pad58)*%
X160820101Y-92277496D03*
%TO.P,IC2,59,ADC_AVDD*%
%TO.N,+3V3*%
X161279720Y-91817876D03*
%TO.P,IC2,60,IOVDD_7*%
X161739340Y-91358257D03*
D30*
%TO.P,IC2,61,VREG_AVDD*%
%TO.N,Net-(IC2-VREG_AVDD)*%
X163860660Y-91358257D03*
%TO.P,IC2,62,VREG_PGND*%
%TO.N,Net-(IC2-VREG_PGND)*%
X164320280Y-91817876D03*
%TO.P,IC2,63,VREG_LX*%
%TO.N,Net-(IC2-VREG_LX)*%
X164779899Y-92277496D03*
%TO.P,IC2,64,VREG_VIN*%
%TO.N,+3V3*%
X165239518Y-92737115D03*
%TO.P,IC2,65,VREG_FB*%
%TO.N,+1V1*%
X165699138Y-93196735D03*
%TO.P,IC2,66,USB_DM*%
%TO.N,Net-(IC2-USB_DM)*%
X166158757Y-93656354D03*
%TO.P,IC2,67,USB_DP*%
%TO.N,Net-(IC2-USB_DP)*%
X166618377Y-94115974D03*
%TO.P,IC2,68,USB_OTP_VDD*%
%TO.N,+3V3*%
X167077996Y-94575593D03*
%TO.P,IC2,69,QSPI_IOVDD*%
X167537615Y-95035212D03*
%TO.P,IC2,70,QSPI_SD3*%
%TO.N,/QSPI_DATA[3]*%
X167997235Y-95494832D03*
%TO.P,IC2,71,QSPI_SCLK*%
%TO.N,/QSPI_SCK*%
X168456854Y-95954451D03*
%TO.P,IC2,72,QSPI_SD0*%
%TO.N,/QSPI_DATA[0]*%
X168916474Y-96414071D03*
%TO.P,IC2,73,QSPI_SD2*%
%TO.N,/QSPI_DATA[2]*%
X169376093Y-96873690D03*
%TO.P,IC2,74,QSPI_SD1*%
%TO.N,/QSPI_DATA[1]*%
X169835712Y-97333309D03*
%TO.P,IC2,75,QSPI_SS*%
%TO.N,unconnected-(IC2-QSPI_SS-Pad75)*%
X170295332Y-97792929D03*
%TO.P,IC2,76,IOVDD_8*%
%TO.N,+3V3*%
X170754951Y-98252548D03*
%TO.P,IC2,77,GPIO0*%
%TO.N,/QSPI_CS*%
X171214571Y-98712168D03*
%TO.P,IC2,78,GPIO1*%
%TO.N,unconnected-(IC2-GPIO1-Pad78)*%
X171674190Y-99171787D03*
%TO.P,IC2,79,GPIO2*%
%TO.N,unconnected-(IC2-GPIO2-Pad79)*%
X172133810Y-99631406D03*
%TO.P,IC2,80,GPIO3*%
%TO.N,unconnected-(IC2-GPIO3-Pad80)*%
X172593429Y-100091026D03*
D31*
%TO.P,IC2,81,GND*%
%TO.N,GND*%
X162800000Y-101151686D03*
%TD*%
D32*
%TO.P,B-,1*%
%TO.N,GND*%
X146375000Y-76100000D03*
%TD*%
D33*
%TO.P,C48,1*%
%TO.N,+3V3*%
X150937500Y-84700000D03*
%TO.P,C48,2*%
%TO.N,GND*%
X148862500Y-84700000D03*
%TD*%
D18*
%TO.P,C1,1*%
%TO.N,V+*%
X142900000Y-126962500D03*
%TO.P,C1,2*%
%TO.N,GND*%
X142900000Y-129037500D03*
%TD*%
D26*
%TO.P,C4,1*%
%TO.N,+3V3*%
X178716377Y-91766377D03*
%TO.P,C4,2*%
%TO.N,GND*%
X180183623Y-93233623D03*
%TD*%
D22*
%TO.P,R40,1*%
%TO.N,V+*%
X153800000Y-79487500D03*
%TO.P,R40,2*%
%TO.N,/EN*%
X153800000Y-81312500D03*
%TD*%
D27*
%TO.P,R35,1*%
%TO.N,/SWCLK*%
X145562500Y-97180000D03*
%TO.P,R35,2*%
%TO.N,+3V3*%
X147387500Y-97180000D03*
%TD*%
D34*
%TO.P,R36,1*%
%TO.N,Net-(C45-Pad2)*%
X152774497Y-108429425D03*
%TO.P,R36,2*%
%TO.N,/XOUT*%
X154064967Y-109719895D03*
%TD*%
D35*
%TO.P,R37,1*%
%TO.N,+3V3*%
X183775000Y-114662500D03*
%TO.P,R37,2*%
%TO.N,/SP14W*%
X183775000Y-112837500D03*
%TD*%
D36*
%TO.P,U4,1_E,E*%
%TO.N,/A7_LIGHT*%
X164925000Y-73950000D03*
%TO.P,U4,2_C,C*%
%TO.N,+3V3*%
X168525000Y-73950000D03*
%TD*%
D37*
%TO.P,U10,1,VIN*%
%TO.N,V+*%
X151206250Y-79431250D03*
%TO.P,U10,2,GND*%
%TO.N,GND*%
X151206250Y-80381250D03*
%TO.P,U10,3,EN*%
%TO.N,/EN*%
X151206250Y-81331250D03*
%TO.P,U10,4,NC*%
%TO.N,unconnected-(U10-NC-Pad4)*%
X148931250Y-81331250D03*
%TO.P,U10,5,VOUT*%
%TO.N,Net-(U10-VOUT)*%
X148931250Y-79431250D03*
%TD*%
D22*
%TO.P,R25,1*%
%TO.N,GND*%
X174275000Y-77137500D03*
%TO.P,R25,2*%
X174275000Y-78962500D03*
%TD*%
D38*
%TO.P,J2,1,VCC*%
%TO.N,+3V3*%
X144425000Y-100510000D03*
%TO.P,J2,2,SWDIO*%
%TO.N,/SWDIO*%
X143155000Y-100510000D03*
%TO.P,J2,3,~{RESET}*%
%TO.N,/~{RESET}*%
X144425000Y-101780000D03*
%TO.P,J2,4,SWCLK*%
%TO.N,/SWCLK*%
X143155000Y-101780000D03*
%TO.P,J2,5,GND*%
%TO.N,GND*%
X144425000Y-103050000D03*
%TO.P,J2,6,SWO*%
%TO.N,/SWO*%
X143155000Y-103050000D03*
%TD*%
D26*
%TO.P,C37,1*%
%TO.N,+3V3*%
X167007754Y-112332754D03*
%TO.P,C37,2*%
%TO.N,GND*%
X168475000Y-113800000D03*
%TD*%
D18*
%TO.P,C3,1*%
%TO.N,V+*%
X153600000Y-126962500D03*
%TO.P,C3,2*%
%TO.N,GND*%
X153600000Y-129037500D03*
%TD*%
D35*
%TO.P,R5,1*%
%TO.N,/BUTTON1*%
X192375000Y-77950000D03*
%TO.P,R5,2*%
%TO.N,GND*%
X192375000Y-76125000D03*
%TD*%
D33*
%TO.P,C47,1*%
%TO.N,V+*%
X157837500Y-79700000D03*
%TO.P,C47,2*%
%TO.N,GND*%
X155762500Y-79700000D03*
%TD*%
D39*
%TO.P,L1,1,1*%
%TO.N,+1V1*%
X170816986Y-87416986D03*
%TO.P,L1,2,2*%
%TO.N,Net-(IC2-VREG_LX)*%
X169650260Y-86250260D03*
%TD*%
D34*
%TO.P,R18,1*%
%TO.N,/D13*%
X168750000Y-109300000D03*
%TO.P,R18,2*%
%TO.N,Net-(R18-Pad2)*%
X170040470Y-110590470D03*
%TD*%
D32*
%TO.P,B+,1*%
%TO.N,+BATT*%
X143175000Y-76100000D03*
%TD*%
D21*
%TO.P,C13,1*%
%TO.N,GND*%
X174300000Y-75437500D03*
%TO.P,C13,2*%
X174300000Y-73362500D03*
%TD*%
D40*
%TO.P,U1,1,SSEL*%
%TO.N,Net-(U1-SSEL)*%
X180941322Y-97247245D03*
%TO.P,U1,2,MISO*%
%TO.N,/QSPI_DATA[1]*%
X180043296Y-98145271D03*
%TO.P,U1,3,WP#/IO2*%
%TO.N,/QSPI_DATA[2]*%
X179145271Y-99043296D03*
%TO.P,U1,4,VSS*%
%TO.N,GND*%
X178247245Y-99941322D03*
%TO.P,U1,5,MOSI*%
%TO.N,/QSPI_DATA[0]*%
X174658678Y-96352755D03*
%TO.P,U1,6,SCK*%
%TO.N,/QSPI_SCK*%
X175556704Y-95454729D03*
%TO.P,U1,7,HOLD#/IO3*%
%TO.N,/QSPI_DATA[3]*%
X176454729Y-94556704D03*
%TO.P,U1,8,VCC*%
%TO.N,+3V3*%
X177352755Y-93658678D03*
%TD*%
D41*
%TO.P,C34,1*%
%TO.N,+3V3*%
X173966377Y-92733623D03*
%TO.P,C34,2*%
%TO.N,GND*%
X175433623Y-91266377D03*
%TD*%
D24*
%TO.P,C32,1*%
%TO.N,+1V1*%
X151653355Y-107008283D03*
%TO.P,C32,2*%
%TO.N,GND*%
X150186109Y-105541037D03*
%TD*%
D27*
%TO.P,R4,1*%
%TO.N,/BUTTON0*%
X142387500Y-79600000D03*
%TO.P,R4,2*%
%TO.N,GND*%
X144212500Y-79600000D03*
%TD*%
D18*
%TO.P,C2,1*%
%TO.N,V+*%
X147000000Y-126950000D03*
%TO.P,C2,2*%
%TO.N,GND*%
X147000000Y-129025000D03*
%TD*%
D20*
%TO.P,R32,1*%
%TO.N,+3V3*%
X166278858Y-84388388D03*
%TO.P,R32,2*%
%TO.N,Net-(IC2-VREG_AVDD)*%
X164988388Y-85678858D03*
%TD*%
D42*
%TO.P,R12,1*%
%TO.N,GND*%
X145865470Y-116120470D03*
%TO.P,R12,2*%
%TO.N,/BUTTON7*%
X144575000Y-114830000D03*
%TD*%
D20*
%TO.P,R33,1*%
%TO.N,/D+*%
X174190470Y-89859530D03*
%TO.P,R33,2*%
%TO.N,Net-(IC2-USB_DP)*%
X172900000Y-91150000D03*
%TD*%
D24*
%TO.P,C29,1*%
%TO.N,+1V1*%
X169167246Y-89367246D03*
%TO.P,C29,2*%
%TO.N,Net-(IC2-VREG_PGND)*%
X167700000Y-87900000D03*
%TD*%
D25*
%TO.P,R22,1*%
%TO.N,GND*%
X189916550Y-80181751D03*
%TO.P,R22,2*%
%TO.N,Net-(J5-CC2)*%
X188091550Y-80181751D03*
%TD*%
D41*
%TO.P,C45,1*%
%TO.N,GND*%
X146624587Y-110372101D03*
%TO.P,C45,2*%
%TO.N,Net-(C45-Pad2)*%
X148091833Y-108904855D03*
%TD*%
D35*
%TO.P,R34,1*%
%TO.N,/~{RESET}*%
X149975000Y-102942500D03*
%TO.P,R34,2*%
%TO.N,+3V3*%
X149975000Y-101117500D03*
%TD*%
D26*
%TO.P,C31,1*%
%TO.N,+1V1*%
X170300000Y-108100000D03*
%TO.P,C31,2*%
%TO.N,GND*%
X171767246Y-109567246D03*
%TD*%
D34*
%TO.P,R24,1*%
%TO.N,Net-(R18-Pad2)*%
X173109530Y-113609530D03*
%TO.P,R24,2*%
%TO.N,Net-(D8-A)*%
X174400000Y-114900000D03*
%TD*%
D20*
%TO.P,R8,1*%
%TO.N,GND*%
X144125000Y-87700000D03*
%TO.P,R8,2*%
%TO.N,/BUTTON4*%
X142834530Y-88990470D03*
%TD*%
D42*
%TO.P,R11,1*%
%TO.N,GND*%
X143915470Y-118190470D03*
%TO.P,R11,2*%
%TO.N,/BUTTON5*%
X142625000Y-116900000D03*
%TD*%
D24*
%TO.P,C40,1*%
%TO.N,+3V3*%
X154733623Y-94633623D03*
%TO.P,C40,2*%
%TO.N,GND*%
X153266377Y-93166377D03*
%TD*%
D18*
%TO.P,C5,1*%
%TO.N,V+*%
X161550000Y-127000000D03*
%TO.P,C5,2*%
%TO.N,GND*%
X161550000Y-129075000D03*
%TD*%
D23*
%TO.P,C44,1*%
%TO.N,GND*%
X154053355Y-114692723D03*
%TO.P,C44,2*%
%TO.N,/XIN*%
X152586109Y-116159969D03*
%TD*%
D43*
%TO.P,Q4,1,G*%
%TO.N,VBUS*%
X161650000Y-80937500D03*
%TO.P,Q4,2,S*%
%TO.N,Net-(D9-K)*%
X159750000Y-80937500D03*
%TO.P,Q4,3,D*%
%TO.N,+BATT*%
X160700000Y-79062500D03*
%TD*%
D18*
%TO.P,C6,1*%
%TO.N,V+*%
X169500000Y-126962500D03*
%TO.P,C6,2*%
%TO.N,GND*%
X169500000Y-129037500D03*
%TD*%
D44*
%TO.P,SW3,*%
%TO.N,*%
X151250000Y-73845000D03*
X151250000Y-76055000D03*
X158550000Y-73845000D03*
X158550000Y-76055000D03*
D45*
%TO.P,SW3,1,C*%
%TO.N,GND*%
X152650000Y-76705000D03*
%TO.P,SW3,2,B*%
%TO.N,V+*%
X155650000Y-76705000D03*
%TO.P,SW3,3,A*%
%TO.N,Net-(D9-K)*%
X157150000Y-76705000D03*
%TD*%
D25*
%TO.P,R41,1*%
%TO.N,+3V3*%
X150612500Y-82900000D03*
%TO.P,R41,2*%
%TO.N,Net-(U10-VOUT)*%
X148787500Y-82900000D03*
%TD*%
D46*
%TO.P,R1,1*%
%TO.N,/QSPI_CS*%
X180534530Y-102440470D03*
%TO.P,R1,2*%
%TO.N,Net-(U1-SSEL)*%
X181825000Y-101150000D03*
%TD*%
D47*
%TO.P,C9,1*%
%TO.N,+3V3*%
X168212500Y-81950000D03*
%TO.P,C9,2*%
%TO.N,GND*%
X170287500Y-81950000D03*
%TD*%
D20*
%TO.P,R31,1*%
%TO.N,/D-*%
X173045235Y-88754765D03*
%TO.P,R31,2*%
%TO.N,Net-(IC2-USB_DM)*%
X171754765Y-90045235D03*
%TD*%
D48*
%TO.P,Y1,1,1*%
%TO.N,/XIN*%
X150470342Y-114276956D03*
%TO.P,Y1,2,2*%
%TO.N,GND*%
X148419732Y-112226346D03*
%TO.P,Y1,3,3*%
%TO.N,Net-(C45-Pad2)*%
X150046078Y-110600000D03*
%TO.P,Y1,4,4*%
%TO.N,GND*%
X152096688Y-112650610D03*
%TD*%
D25*
%TO.P,R42,1*%
%TO.N,VBUS*%
X161612500Y-82800000D03*
%TO.P,R42,2*%
%TO.N,GND*%
X159787500Y-82800000D03*
%TD*%
%TO.P,R43,1*%
%TO.N,Net-(D9-K)*%
X157712500Y-82800000D03*
%TO.P,R43,2*%
%TO.N,GND*%
X155887500Y-82800000D03*
%TD*%
D26*
%TO.P,C46,1*%
%TO.N,+3V3*%
X165441377Y-113916377D03*
%TO.P,C46,2*%
%TO.N,GND*%
X166908623Y-115383623D03*
%TD*%
D49*
%TO.P,U8,1,LED1*%
%TO.N,/LED_K1*%
X164780000Y-123405100D03*
%TO.P,U8,2,LED2*%
%TO.N,/LED_K2*%
X163510000Y-123405100D03*
%TO.P,U8,3,LED3*%
%TO.N,unconnected-(U8-LED3-Pad3)*%
X162240000Y-123405100D03*
%TO.P,U8,4,LED4*%
%TO.N,unconnected-(U8-LED4-Pad4)*%
X160970000Y-123405100D03*
%TO.P,U8,5,GND*%
%TO.N,GND*%
X160970000Y-117994900D03*
%TO.P,U8,6,EN/PWM*%
%TO.N,/BKLT_PWM*%
X162240000Y-117994900D03*
%TO.P,U8,7,VIN*%
%TO.N,+3V3*%
X163510000Y-117994900D03*
%TO.P,U8,8,RSET*%
%TO.N,Net-(U8-RSET)*%
X164780000Y-117994900D03*
%TD*%
D26*
%TO.P,C41,1*%
%TO.N,+3V3*%
X175366377Y-102366377D03*
%TO.P,C41,2*%
%TO.N,GND*%
X176833623Y-103833623D03*
%TD*%
D47*
%TO.P,C25,1*%
%TO.N,GND*%
X163675000Y-78100000D03*
%TO.P,C25,2*%
%TO.N,/A7_LIGHT*%
X165750000Y-78100000D03*
%TD*%
D20*
%TO.P,R10,1*%
%TO.N,GND*%
X146475000Y-90150000D03*
%TO.P,R10,2*%
%TO.N,/BUTTON8*%
X145184530Y-91440470D03*
%TD*%
D41*
%TO.P,C28,1*%
%TO.N,GND*%
X162400000Y-88467246D03*
%TO.P,C28,2*%
%TO.N,Net-(IC2-VREG_AVDD)*%
X163867246Y-87000000D03*
%TD*%
D27*
%TO.P,R19,1*%
%TO.N,GND*%
X170345950Y-77158450D03*
%TO.P,R19,2*%
%TO.N,Net-(J5-CC1)*%
X172170950Y-77158450D03*
%TD*%
D24*
%TO.P,C30,1*%
%TO.N,+3V3*%
X167667246Y-90867246D03*
%TO.P,C30,2*%
%TO.N,Net-(IC2-VREG_PGND)*%
X166200000Y-89400000D03*
%TD*%
D50*
%TO.N,GND*%
X153540000Y-111810000D03*
X148825000Y-95250000D03*
X159090000Y-87340000D03*
X148800000Y-104650000D03*
X170000000Y-78600000D03*
X169700000Y-83730000D03*
X159200000Y-97500000D03*
X159800000Y-117700000D03*
X143225000Y-86750000D03*
X163330000Y-89397246D03*
X155800000Y-81400000D03*
X146900000Y-113070000D03*
X169300000Y-100300000D03*
X169200000Y-102000000D03*
X132300000Y-129000000D03*
X177500000Y-78000000D03*
X172600000Y-108100000D03*
X160200000Y-96500000D03*
X161100000Y-95600000D03*
X158700000Y-83900000D03*
X155700000Y-115130000D03*
X153150000Y-91460000D03*
X190975000Y-77175000D03*
X173310000Y-87340000D03*
X177100000Y-98800000D03*
X186375000Y-74350000D03*
X158200000Y-103800000D03*
X157300000Y-102900000D03*
X145586243Y-109333757D03*
X168490000Y-117010000D03*
X156400000Y-102000000D03*
X190975000Y-80200000D03*
X181100000Y-94100000D03*
X168300000Y-102900000D03*
X156375000Y-129000000D03*
X162000000Y-94700000D03*
X140200000Y-129100000D03*
X152600000Y-80400000D03*
X167400000Y-98400000D03*
X143150000Y-119100000D03*
X162375000Y-78100000D03*
X192375000Y-75025000D03*
X144800000Y-80800000D03*
X148450000Y-128987500D03*
X166500000Y-97500000D03*
X148750000Y-101200000D03*
X183800000Y-78000000D03*
X146690000Y-115300000D03*
X180300000Y-83900000D03*
X148800000Y-86200000D03*
X164325000Y-129000000D03*
X175480000Y-104540000D03*
X147075000Y-78000000D03*
X173548483Y-118386047D03*
X176280000Y-90370000D03*
X152600000Y-78200000D03*
X162775000Y-76200000D03*
X167400000Y-103800000D03*
X168300000Y-99300000D03*
%TO.N,+3V3*%
X194800000Y-115100000D03*
X126300000Y-109750000D03*
X194800000Y-103800000D03*
X175910000Y-92750000D03*
X167300000Y-83400000D03*
X160600000Y-88900000D03*
X152200000Y-82900000D03*
X107500000Y-73100000D03*
X118800000Y-73100000D03*
X194800000Y-92600000D03*
X150500000Y-99500000D03*
X188300000Y-74500000D03*
X162200000Y-90400000D03*
X166210000Y-95880000D03*
X161400000Y-89600000D03*
X196400000Y-74500000D03*
X172400000Y-92950000D03*
X152200000Y-85100000D03*
X152200000Y-84300000D03*
X165100000Y-107600000D03*
%TO.N,VBUS*%
X165600000Y-79800000D03*
X178000000Y-81800000D03*
X181400000Y-83950000D03*
X182150000Y-81400000D03*
X179400000Y-77750000D03*
%TO.N,V+*%
X152600000Y-79400000D03*
X137600000Y-125550000D03*
X153550000Y-125500000D03*
X169500000Y-125500000D03*
X161525000Y-125500000D03*
X145600000Y-125500000D03*
%TO.N,/BUTTON6*%
X153625000Y-97150000D03*
X140375000Y-90150000D03*
X116325000Y-99200000D03*
%TO.N,/BUTTON7*%
X157975000Y-109700000D03*
X128925000Y-107350000D03*
X142525000Y-114850000D03*
%TO.N,/~{RESET}*%
X151000000Y-104200000D03*
X182575000Y-98450000D03*
%TO.N,/BUTTON2*%
X200575000Y-98200000D03*
%TO.N,/BUTTON4*%
X140375000Y-89000000D03*
X118475000Y-97100000D03*
X152625000Y-96100000D03*
%TO.N,/BUTTON5*%
X140425000Y-116900000D03*
X124775000Y-111650000D03*
X158625000Y-110350000D03*
%TO.N,/BUTTON0*%
X113100000Y-79350000D03*
%TO.N,/BUTTON1*%
X192350000Y-79400000D03*
%TO.N,/BUTTON3*%
X188575000Y-109550000D03*
%TO.N,/SWDIO*%
X140725000Y-100550000D03*
X153750000Y-105900000D03*
%TO.N,/SWCLK*%
X140725000Y-101750000D03*
X145525000Y-95900000D03*
X154400000Y-107200000D03*
%TO.N,/D8_NEOPIX*%
X171525000Y-120750000D03*
%TO.N,+BATT*%
X160700000Y-78300000D03*
X143175000Y-77800000D03*
%TO.N,/SWO*%
X152496325Y-104510000D03*
X140725000Y-103050000D03*
%TO.N,/QSPI_CS*%
X174150000Y-100450000D03*
%TO.N,/D-*%
X180400000Y-77750000D03*
X181200000Y-81500000D03*
%TO.N,/D+*%
X180350000Y-88250000D03*
X180350000Y-86750000D03*
%TO.N,/BUTTON8*%
X114225000Y-101200000D03*
%TO.N,+1V1*%
X170370000Y-89880000D03*
X167530000Y-105450000D03*
X158950000Y-96100000D03*
X164810000Y-94110000D03*
X157582827Y-104990000D03*
X169750000Y-90510000D03*
%TO.N,Net-(IC2-VREG_PGND)*%
X166675000Y-86825000D03*
X165175000Y-88300000D03*
%TO.N,/LCD_SCL*%
X159575000Y-111300000D03*
%TO.N,/LCD_SDIO*%
X162075000Y-111900000D03*
%TO.N,/~{LCD_CS}*%
X163925000Y-112850000D03*
%TO.N,/LCD_D{slash}CX*%
X160475000Y-112150000D03*
%TO.N,/TE*%
X160175000Y-114950000D03*
%TO.N,Net-(J5-CC1)*%
X179415000Y-81180000D03*
X172125000Y-81127701D03*
%TD*%
D51*
%TO.N,Net-(J5-CC1)*%
X179654049Y-81145951D02*
X179654049Y-80081751D01*
X179415000Y-81180000D02*
X179620000Y-81180000D01*
X179620000Y-81180000D02*
X179654049Y-81145951D01*
D52*
%TO.N,GND*%
X168537500Y-117062500D02*
X168537500Y-118950000D01*
X169700000Y-82537500D02*
X170287500Y-81950000D01*
X190175000Y-111412500D02*
X188457500Y-111412500D01*
X177554050Y-78781749D02*
X177554050Y-78054050D01*
X181050000Y-94100000D02*
X180183623Y-93233623D01*
X142900000Y-129037500D02*
X140262500Y-129037500D01*
X166451686Y-97500000D02*
X162800000Y-101151686D01*
D53*
X161875000Y-129137500D02*
X161825000Y-129087500D01*
D52*
X183754050Y-78045950D02*
X183800000Y-78000000D01*
X170741550Y-80091751D02*
X170741550Y-79741550D01*
X147075000Y-78000000D02*
X147075000Y-76800000D01*
D54*
X177654050Y-78881749D02*
X177554050Y-78781749D01*
D52*
X160200000Y-96500000D02*
X162800000Y-99100000D01*
D55*
X155762500Y-81362500D02*
X155800000Y-81400000D01*
D52*
X154053355Y-114692723D02*
X154170632Y-114810000D01*
D55*
X152096688Y-112650610D02*
X151896078Y-112450000D01*
D52*
X180300000Y-83900000D02*
X180649999Y-83550001D01*
D55*
X143915470Y-118070470D02*
X143915470Y-118190470D01*
X144125000Y-87700000D02*
X144125000Y-87650000D01*
D52*
X186367750Y-74342750D02*
X186375000Y-74350000D01*
D54*
X159800000Y-82787500D02*
X159787500Y-82800000D01*
D52*
X171767246Y-109567246D02*
X172600000Y-108734492D01*
X144125000Y-87650000D02*
X143225000Y-86750000D01*
X177554050Y-78054050D02*
X177500000Y-78000000D01*
X149295072Y-104650000D02*
X148800000Y-104650000D01*
X144800000Y-80800000D02*
X144212500Y-80212500D01*
X189916550Y-80181751D02*
X190956751Y-80181751D01*
X170000000Y-78600000D02*
X170000000Y-77716900D01*
X169200000Y-102000000D02*
X168351686Y-101151686D01*
X174300000Y-75437500D02*
X175239298Y-75437500D01*
X158200000Y-103800000D02*
X160848314Y-101151686D01*
X154766377Y-91666377D02*
X153356377Y-91666377D01*
X159787500Y-82812500D02*
X159787500Y-82800000D01*
D56*
X147120000Y-105180000D02*
X144990000Y-103050000D01*
D53*
X156462500Y-129087500D02*
X156375000Y-129000000D01*
D52*
X161825000Y-129087500D02*
X164237500Y-129087500D01*
X160970000Y-117994900D02*
X160094900Y-117994900D01*
X145865470Y-116120470D02*
X145869530Y-116120470D01*
D55*
X152581250Y-80381250D02*
X152600000Y-80400000D01*
D52*
X155762500Y-79700000D02*
X155762500Y-81362500D01*
X172600000Y-108734492D02*
X172600000Y-108100000D01*
X147075000Y-76800000D02*
X146375000Y-76100000D01*
X150032754Y-96432754D02*
X148850000Y-95250000D01*
X153600000Y-129037500D02*
X156337500Y-129037500D01*
X155380000Y-114810000D02*
X155700000Y-115130000D01*
D55*
X166551686Y-101151686D02*
X162800000Y-101151686D01*
D52*
X159200000Y-97500000D02*
X159200000Y-97551686D01*
X166500000Y-97500000D02*
X166451686Y-97500000D01*
X162000000Y-94700000D02*
X162800000Y-95500000D01*
X198975000Y-101562500D02*
X188147500Y-101562500D01*
X169700000Y-83730000D02*
X169700000Y-82537500D01*
X154170632Y-114810000D02*
X155380000Y-114810000D01*
X148862500Y-84700000D02*
X148862500Y-86137500D01*
D55*
X162800000Y-99100000D02*
X162800000Y-101151686D01*
D52*
X170000000Y-77716900D02*
X170345950Y-77370950D01*
D55*
X148643386Y-112450000D02*
X148419732Y-112226346D01*
D52*
X166908623Y-115383623D02*
X166908623Y-115433623D01*
X172666377Y-85883623D02*
X172666377Y-86696377D01*
X190968249Y-77181751D02*
X190975000Y-77175000D01*
D55*
X148419732Y-112167246D02*
X148419732Y-112226346D01*
X168448314Y-101151686D02*
X162800000Y-101151686D01*
D52*
X175239298Y-75437500D02*
X176334048Y-74342750D01*
X148862500Y-86137500D02*
X148800000Y-86200000D01*
X152600000Y-78200000D02*
X152600000Y-76755000D01*
D55*
X162800000Y-95500000D02*
X162800000Y-101151686D01*
D52*
X153266377Y-91576377D02*
X153150000Y-91460000D01*
X143915470Y-118190470D02*
X143915470Y-118334530D01*
X148419732Y-112226346D02*
X147576078Y-113070000D01*
X160094900Y-117994900D02*
X159800000Y-117700000D01*
D55*
X160848314Y-101151686D02*
X162800000Y-101151686D01*
X155887500Y-81487500D02*
X155800000Y-81400000D01*
D53*
X161775000Y-129137500D02*
X161825000Y-129087500D01*
D52*
X153266377Y-93166377D02*
X153266377Y-91576377D01*
D55*
X166908623Y-115366377D02*
X166908623Y-115383623D01*
D52*
X177100000Y-98800000D02*
X178241322Y-99941322D01*
X145869530Y-116120470D02*
X146690000Y-115300000D01*
X174300000Y-77300000D02*
X174300000Y-75437500D01*
D56*
X144990000Y-103050000D02*
X144425000Y-103050000D01*
D52*
X163675000Y-78100000D02*
X162375000Y-78100000D01*
X147576078Y-113070000D02*
X146900000Y-113070000D01*
X181100000Y-94100000D02*
X181050000Y-94100000D01*
X188147500Y-101562500D02*
X186350000Y-103360000D01*
X155887500Y-82800000D02*
X155887500Y-81487500D01*
X169500000Y-129037500D02*
X164362500Y-129037500D01*
D55*
X166600000Y-97400000D02*
X166500000Y-97500000D01*
D52*
X153356377Y-91666377D02*
X153150000Y-91460000D01*
D55*
X157966377Y-88466377D02*
X157963623Y-88466377D01*
D52*
X159200000Y-97551686D02*
X162800000Y-101151686D01*
X184974052Y-74342750D02*
X186367750Y-74342750D01*
D55*
X159100000Y-97400000D02*
X159200000Y-97500000D01*
X189879050Y-80144251D02*
X189916550Y-80181751D01*
D52*
X168475000Y-113800000D02*
X168475000Y-116995000D01*
X140262500Y-129037500D02*
X140200000Y-129100000D01*
X174454765Y-117454765D02*
X174454765Y-117479765D01*
X144212500Y-80212500D02*
X144212500Y-79600000D01*
X175433623Y-91216377D02*
X176280000Y-90370000D01*
X170000000Y-79400000D02*
X170300000Y-79700000D01*
X164237500Y-129087500D02*
X164325000Y-129000000D01*
X161100000Y-95600000D02*
X162800000Y-97300000D01*
D55*
X157248314Y-101151686D02*
X162800000Y-101151686D01*
X145275000Y-88950000D02*
X145275000Y-88900000D01*
D52*
X147225000Y-105180000D02*
X148270000Y-105180000D01*
D55*
X147295000Y-101200000D02*
X147275000Y-101180000D01*
D52*
X166448314Y-101151686D02*
X162800000Y-101151686D01*
D55*
X162825000Y-76250000D02*
X162775000Y-76200000D01*
D52*
X176833623Y-103833623D02*
X176127246Y-104540000D01*
X166908623Y-115433623D02*
X168537500Y-117062500D01*
X146475000Y-90150000D02*
X145275000Y-88950000D01*
D54*
X183654050Y-78881749D02*
X183754050Y-78781749D01*
D55*
X164751686Y-101151686D02*
X162800000Y-101151686D01*
D52*
X169300000Y-100300000D02*
X168448314Y-101151686D01*
X152096688Y-112650610D02*
X152937298Y-111810000D01*
X168300000Y-102900000D02*
X166551686Y-101151686D01*
X148270000Y-105180000D02*
X148800000Y-104650000D01*
X151206250Y-80381250D02*
X152581250Y-80381250D01*
X167400000Y-103800000D02*
X164751686Y-101151686D01*
X174033623Y-107333623D02*
X173267246Y-108100000D01*
X144125000Y-87700000D02*
X145275000Y-88850000D01*
X176127246Y-104540000D02*
X175480000Y-104540000D01*
X155386109Y-114816109D02*
X155700000Y-115130000D01*
D55*
X164648314Y-101151686D02*
X162800000Y-101151686D01*
D52*
X190956751Y-80181751D02*
X190975000Y-80200000D01*
X189879050Y-77181751D02*
X190968249Y-77181751D01*
X168300000Y-99300000D02*
X166448314Y-101151686D01*
X148750000Y-101200000D02*
X147295000Y-101200000D01*
D56*
X147225000Y-105180000D02*
X147120000Y-105180000D01*
D52*
X192375000Y-76125000D02*
X192375000Y-75025000D01*
X143915470Y-118334530D02*
X143150000Y-119100000D01*
D55*
X175433623Y-91266377D02*
X175433623Y-91216377D01*
X142962500Y-129037500D02*
X142975000Y-129025000D01*
X162800000Y-97300000D02*
X162800000Y-101151686D01*
D52*
X171166377Y-84383623D02*
X170353623Y-84383623D01*
X158700000Y-83900000D02*
X159787500Y-82812500D01*
D55*
X145275000Y-88850000D02*
X145275000Y-88900000D01*
D52*
X170000000Y-78600000D02*
X170000000Y-79400000D01*
X172666377Y-86696377D02*
X173310000Y-87340000D01*
X148450000Y-128987500D02*
X147325000Y-128987500D01*
X183754050Y-78781749D02*
X183754050Y-78045950D01*
D55*
X168351686Y-101151686D02*
X162800000Y-101151686D01*
D52*
X155386109Y-113408283D02*
X155386109Y-114816109D01*
D55*
X159048314Y-101151686D02*
X162800000Y-101151686D01*
X163987500Y-77787500D02*
X163675000Y-78100000D01*
X162400000Y-88467246D02*
X162400000Y-88520000D01*
D52*
X156400000Y-102000000D02*
X157248314Y-101151686D01*
X180649999Y-83550001D02*
X180649999Y-82800000D01*
D55*
X142900000Y-129037500D02*
X142962500Y-129037500D01*
D52*
X164362500Y-129037500D02*
X164325000Y-129000000D01*
X150186109Y-105541037D02*
X149295072Y-104650000D01*
X188457500Y-111412500D02*
X186350000Y-113520000D01*
D55*
X146624587Y-110431201D02*
X146624587Y-110372101D01*
D52*
X152937298Y-111810000D02*
X153540000Y-111810000D01*
X178241322Y-99941322D02*
X178247245Y-99941322D01*
X163987500Y-76250000D02*
X162825000Y-76250000D01*
X170353623Y-84383623D02*
X169700000Y-83730000D01*
X174454765Y-117479765D02*
X173548483Y-118386047D01*
D55*
X148850000Y-95250000D02*
X148825000Y-95250000D01*
D52*
X173267246Y-108100000D02*
X172600000Y-108100000D01*
X159090000Y-87340000D02*
X157963623Y-88466377D01*
X167400000Y-98400000D02*
X164648314Y-101151686D01*
X163330000Y-89397246D02*
X162400000Y-88467246D01*
D55*
X152600000Y-76755000D02*
X152650000Y-76705000D01*
D52*
X156337500Y-129037500D02*
X156375000Y-129000000D01*
X168475000Y-116995000D02*
X168490000Y-117010000D01*
X157300000Y-102900000D02*
X159048314Y-101151686D01*
X145586243Y-109333757D02*
X146624587Y-110372101D01*
D54*
%TO.N,+3V3*%
X158062385Y-107268160D02*
X155850000Y-109480545D01*
D51*
X150937500Y-86887500D02*
X150950000Y-86900000D01*
D55*
X163510000Y-116077500D02*
X163687500Y-115900000D01*
D52*
X168525000Y-73950000D02*
X168525000Y-81637500D01*
X185400000Y-118600000D02*
X183775000Y-116975000D01*
D55*
X167667246Y-90867246D02*
X167109387Y-90867246D01*
X161279720Y-91779720D02*
X161279720Y-91817876D01*
D51*
X147275000Y-99105000D02*
X146270000Y-98100000D01*
D54*
X161739340Y-91358257D02*
X161739340Y-91359340D01*
X170747452Y-98252548D02*
X169720000Y-99280000D01*
X166540000Y-95820000D02*
X166752827Y-95820000D01*
D55*
X170754951Y-104050824D02*
X170750824Y-104050824D01*
D54*
X157143146Y-95954451D02*
X156388695Y-95200000D01*
D52*
X186350000Y-118600000D02*
X185400000Y-118600000D01*
D54*
X156853355Y-111941037D02*
X157985702Y-111941037D01*
D51*
X140500000Y-98100000D02*
X133700000Y-104900000D01*
D54*
X157985702Y-111941037D02*
X160360482Y-109566257D01*
X157154451Y-95954451D02*
X158100000Y-96900000D01*
D55*
X168212500Y-81950000D02*
X168212500Y-82487500D01*
D51*
X128850000Y-104900000D02*
X126300000Y-107450000D01*
D54*
X162220000Y-92720000D02*
X161317876Y-91817876D01*
X156388695Y-95200000D02*
X155300000Y-95200000D01*
D51*
X126300000Y-107450000D02*
X126300000Y-109750000D01*
D55*
X157143146Y-95954451D02*
X157154451Y-95954451D01*
X165441377Y-113899131D02*
X165441377Y-113916377D01*
D54*
X166850000Y-112175000D02*
X167007754Y-112332754D01*
D55*
X166158757Y-108647018D02*
X166591377Y-109079638D01*
D51*
X146270000Y-98100000D02*
X140500000Y-98100000D01*
D55*
X167537615Y-95035212D02*
X167564788Y-95035212D01*
X166158757Y-108647018D02*
X166157018Y-108647018D01*
X165239518Y-92737115D02*
X165232885Y-92737115D01*
D54*
X161317876Y-91817876D02*
X161279720Y-91817876D01*
D55*
X157143146Y-95954451D02*
X157143146Y-96093146D01*
D54*
X160363743Y-109566257D02*
X161350000Y-108580000D01*
X161739340Y-91358257D02*
X161739340Y-91339340D01*
D52*
X183775000Y-116975000D02*
X183775000Y-114662500D01*
D55*
X163687500Y-115670254D02*
X163687500Y-115900000D01*
D54*
X170754951Y-104054951D02*
X172566377Y-105866377D01*
X166270000Y-95550000D02*
X166540000Y-95820000D01*
D52*
X168212500Y-82487500D02*
X167300000Y-83400000D01*
D54*
X145870000Y-100510000D02*
X147275000Y-99105000D01*
D55*
X166158757Y-108647018D02*
X166158757Y-108658757D01*
D54*
X176427700Y-92733623D02*
X177352755Y-93658678D01*
X170750824Y-104050824D02*
X169820000Y-103120000D01*
D55*
X157143146Y-95954451D02*
X157143146Y-95943146D01*
D54*
X166752827Y-95820000D02*
X167537615Y-95035212D01*
D55*
X170754951Y-104050824D02*
X170754951Y-104054951D01*
D57*
X150937500Y-84700000D02*
X150937500Y-86887500D01*
D55*
X151500000Y-98584455D02*
X151500000Y-97900000D01*
D54*
X166270000Y-95380000D02*
X166270000Y-95550000D01*
X166850000Y-109338261D02*
X166850000Y-112175000D01*
X155300000Y-95200000D02*
X154733623Y-94633623D01*
X166157018Y-108647018D02*
X165210000Y-107700000D01*
D51*
X133700000Y-104900000D02*
X128850000Y-104900000D01*
D58*
X159433623Y-89933623D02*
X160000000Y-90500000D01*
D55*
X166158757Y-108647018D02*
X166590105Y-109078366D01*
D54*
X161739340Y-91359340D02*
X162660000Y-92280000D01*
D55*
X170754951Y-98252548D02*
X170747452Y-98252548D01*
D54*
X173966377Y-92733623D02*
X176427700Y-92733623D01*
D55*
X158062385Y-107268160D02*
X158071840Y-107268160D01*
D54*
X165232885Y-92737115D02*
X164360000Y-93610000D01*
X172616377Y-92733623D02*
X172400000Y-92950000D01*
X155850000Y-110937682D02*
X156853355Y-111941037D01*
X167077996Y-94575593D02*
X166273589Y-95380000D01*
X155850000Y-109480545D02*
X155850000Y-110937682D01*
X161739340Y-91339340D02*
X161000000Y-90600000D01*
X173966377Y-92733623D02*
X172616377Y-92733623D01*
D55*
X160360482Y-109566257D02*
X160363743Y-109566257D01*
D54*
X166590105Y-109078366D02*
X166850000Y-109338261D01*
D55*
X147387500Y-98992500D02*
X147275000Y-99105000D01*
D54*
X158071840Y-107268160D02*
X159040000Y-106300000D01*
X161000000Y-90600000D02*
X160100000Y-90600000D01*
X162660000Y-92280000D02*
X162220000Y-92720000D01*
X144425000Y-100510000D02*
X145870000Y-100510000D01*
D55*
X166278858Y-84388388D02*
X166311612Y-84388388D01*
D52*
X168525000Y-81637500D02*
X168212500Y-81950000D01*
D54*
X160000000Y-90500000D02*
X161279720Y-91779720D01*
D55*
%TO.N,VBUS*%
X161612500Y-82800000D02*
X161500000Y-82800000D01*
D54*
X182154050Y-81395950D02*
X182150000Y-81400000D01*
D51*
X179404050Y-78781749D02*
X179404050Y-77754050D01*
D54*
X178000000Y-81800000D02*
X175800000Y-84000000D01*
D57*
X161500000Y-82800000D02*
X158650000Y-85650000D01*
D54*
X181400000Y-83950000D02*
X181200000Y-83950000D01*
X175800000Y-84000000D02*
X174550000Y-84000000D01*
D51*
X181904050Y-78781749D02*
X181904050Y-79322749D01*
D54*
X174550000Y-84000000D02*
X174133623Y-84416377D01*
D55*
X179404050Y-77754050D02*
X179400000Y-77750000D01*
D54*
X180649999Y-84500001D02*
X180649999Y-85075000D01*
D51*
X181904050Y-79322749D02*
X182154050Y-79572749D01*
D54*
X173050000Y-82500000D02*
X172633623Y-82916377D01*
D51*
X179154050Y-79572749D02*
X179154050Y-80081751D01*
D54*
X177300000Y-82500000D02*
X173050000Y-82500000D01*
D51*
X179404050Y-79322749D02*
X179154050Y-79572749D01*
X182154050Y-80081751D02*
X182154050Y-81395950D01*
D54*
X181200000Y-83950000D02*
X180649999Y-84500001D01*
D51*
X179404050Y-78781749D02*
X179404050Y-79322749D01*
X182154050Y-79572749D02*
X182154050Y-80081751D01*
D54*
X178000000Y-81800000D02*
X177300000Y-82500000D01*
D51*
%TO.N,V+*%
X153550000Y-126912500D02*
X153600000Y-126962500D01*
X153550000Y-125500000D02*
X145600000Y-125500000D01*
X169500000Y-125500000D02*
X169500000Y-126962500D01*
X145425000Y-125500000D02*
X143962500Y-126962500D01*
X147012500Y-126912500D02*
X145600000Y-125500000D01*
X139712500Y-127012500D02*
X142850000Y-127012500D01*
X145600000Y-125500000D02*
X145425000Y-125500000D01*
X169500000Y-125500000D02*
X161525000Y-125500000D01*
X161525000Y-125500000D02*
X161525000Y-126975000D01*
D57*
X149550000Y-77575000D02*
X151206250Y-79231250D01*
D51*
X143962500Y-126962500D02*
X142900000Y-126962500D01*
X161525000Y-125500000D02*
X153550000Y-125500000D01*
X147325000Y-126912500D02*
X147012500Y-126912500D01*
X142850000Y-127012500D02*
X142900000Y-126962500D01*
X138250000Y-125550000D02*
X139712500Y-127012500D01*
X137600000Y-125550000D02*
X138250000Y-125550000D01*
D57*
X151206250Y-79231250D02*
X151206250Y-79431250D01*
D51*
X153550000Y-125500000D02*
X153550000Y-126912500D01*
X161525000Y-126975000D02*
X161550000Y-127000000D01*
D57*
X149550000Y-77200000D02*
X149550000Y-77575000D01*
D51*
X147325000Y-126900000D02*
X147325000Y-126912500D01*
%TO.N,/BUTTON6*%
X154727548Y-98252548D02*
X153625000Y-97150000D01*
X116325000Y-99025000D02*
X113550000Y-96250000D01*
X126282014Y-90150000D02*
X117232014Y-99200000D01*
D55*
X116325000Y-99200000D02*
X116325000Y-99025000D01*
X154845049Y-98252548D02*
X154727548Y-98252548D01*
D51*
X117232014Y-99200000D02*
X116325000Y-99200000D01*
X140415470Y-90190470D02*
X140375000Y-90150000D01*
X143984530Y-90190470D02*
X140415470Y-90190470D01*
X140375000Y-90150000D02*
X126282014Y-90150000D01*
%TO.N,/BUTTON7*%
X142525000Y-114850000D02*
X136425000Y-114850000D01*
X128950000Y-107350000D02*
X131200000Y-109600000D01*
X136425000Y-114825000D02*
X131200000Y-109600000D01*
X144575000Y-114830000D02*
X142545000Y-114830000D01*
D55*
X142545000Y-114830000D02*
X142525000Y-114850000D01*
D51*
X128925000Y-107350000D02*
X128950000Y-107350000D01*
X136425000Y-114850000D02*
X136425000Y-114825000D01*
X158388261Y-109700000D02*
X157975000Y-109700000D01*
X159441243Y-108647018D02*
X158388261Y-109700000D01*
%TO.N,/~{RESET}*%
X151000000Y-103967500D02*
X149975000Y-102942500D01*
X146125000Y-103105000D02*
X144800000Y-101780000D01*
X144800000Y-101780000D02*
X144425000Y-101780000D01*
X152000000Y-105200000D02*
X151000000Y-104200000D01*
X154615111Y-105200000D02*
X152000000Y-105200000D01*
X147387500Y-102942500D02*
X147225000Y-103105000D01*
X149975000Y-102942500D02*
X147387500Y-102942500D01*
X155304668Y-104510443D02*
X154615111Y-105200000D01*
X182745000Y-98280000D02*
X186350000Y-98280000D01*
X151000000Y-104200000D02*
X151000000Y-103967500D01*
X182575000Y-98450000D02*
X182745000Y-98280000D01*
X147225000Y-103105000D02*
X146125000Y-103105000D01*
%TO.N,/BUTTON2*%
X198975000Y-98950000D02*
X199725000Y-98200000D01*
X196000000Y-107150000D02*
X198250000Y-104900000D01*
X200575000Y-102600000D02*
X200575000Y-98200000D01*
X199725000Y-98200000D02*
X200575000Y-98200000D01*
X172312605Y-103770000D02*
X172850000Y-103770000D01*
X176255000Y-107175000D02*
X196000000Y-107175000D01*
X200575000Y-102600000D02*
X200550000Y-102600000D01*
X171674190Y-103131585D02*
X172312605Y-103770000D01*
X196000000Y-107175000D02*
X196000000Y-107150000D01*
X200550000Y-102600000D02*
X198250000Y-104900000D01*
X198975000Y-99737500D02*
X198975000Y-98950000D01*
X172850000Y-103770000D02*
X176255000Y-107175000D01*
%TO.N,/BUTTON4*%
X155304668Y-97792929D02*
X153611739Y-96100000D01*
X140375000Y-89000000D02*
X126575000Y-89000000D01*
X118475000Y-96875000D02*
X115950000Y-94350000D01*
X153611739Y-96100000D02*
X152625000Y-96100000D01*
X126575000Y-89000000D02*
X118475000Y-97100000D01*
D55*
X118475000Y-97100000D02*
X118475000Y-96875000D01*
D51*
X142834530Y-88990470D02*
X140384530Y-88990470D01*
X140384530Y-88990470D02*
X140375000Y-89000000D01*
D55*
%TO.N,/BUTTON5*%
X159900862Y-109106637D02*
X159868363Y-109106637D01*
D51*
X130000000Y-116900000D02*
X126650000Y-113550000D01*
X124775000Y-111675000D02*
X126650000Y-113550000D01*
X124775000Y-111650000D02*
X124775000Y-111675000D01*
X140425000Y-116900000D02*
X130000000Y-116900000D01*
X142625000Y-116900000D02*
X140425000Y-116900000D01*
X159868363Y-109106637D02*
X158625000Y-110350000D01*
%TO.N,/BUTTON0*%
X113150000Y-79400000D02*
X113100000Y-79350000D01*
X142187500Y-79400000D02*
X113150000Y-79400000D01*
X155764288Y-97333309D02*
X142400000Y-83969021D01*
X113100000Y-81650000D02*
X113150000Y-81700000D01*
X113100000Y-79350000D02*
X113100000Y-81650000D01*
X142400000Y-79612500D02*
X142387500Y-79600000D01*
X142400000Y-83969021D02*
X142400000Y-79612500D01*
X142387500Y-79600000D02*
X142187500Y-79400000D01*
%TO.N,/BUTTON1*%
X179375000Y-105450000D02*
X185275000Y-99550000D01*
X192350000Y-82100000D02*
X192350000Y-94675000D01*
X192350000Y-77975000D02*
X192375000Y-77950000D01*
X172853844Y-103392000D02*
X172133810Y-102671966D01*
X185275000Y-99550000D02*
X187475000Y-99550000D01*
X187475000Y-99550000D02*
X192350000Y-94675000D01*
X192350000Y-82100000D02*
X192350000Y-79400000D01*
X175130000Y-105450000D02*
X173072000Y-103392000D01*
X192350000Y-79400000D02*
X192350000Y-77975000D01*
X173072000Y-103392000D02*
X172853844Y-103392000D01*
X175130000Y-105450000D02*
X179375000Y-105450000D01*
%TO.N,/BUTTON3*%
X172810000Y-104400000D02*
X172175000Y-104400000D01*
X190137500Y-109550000D02*
X190175000Y-109587500D01*
X188400000Y-109725000D02*
X178135000Y-109725000D01*
X172175000Y-104400000D02*
X171366204Y-103591204D01*
X188575000Y-109550000D02*
X190137500Y-109550000D01*
D55*
X177000000Y-108600000D02*
X178125000Y-109725000D01*
D51*
X171366204Y-103591204D02*
X171214571Y-103591204D01*
X188575000Y-109550000D02*
X188400000Y-109725000D01*
X172810000Y-104410000D02*
X177000000Y-108600000D01*
X172810000Y-104400000D02*
X172810000Y-104410000D01*
D55*
X178125000Y-109725000D02*
X178135000Y-109725000D01*
D51*
%TO.N,/SWDIO*%
X140725000Y-100550000D02*
X140450000Y-100550000D01*
X155764288Y-104970063D02*
X154834351Y-105900000D01*
X154834351Y-105900000D02*
X153750000Y-105900000D01*
D55*
X140725000Y-100550000D02*
X140765000Y-100510000D01*
D51*
X140450000Y-100550000D02*
X135300000Y-105700000D01*
X140765000Y-100510000D02*
X143155000Y-100510000D01*
%TO.N,/SWCLK*%
X145562500Y-95937500D02*
X145525000Y-95900000D01*
X140755000Y-101780000D02*
X143155000Y-101780000D01*
X154400000Y-107125000D02*
X156095318Y-105429682D01*
X140200000Y-107100000D02*
X139200000Y-106100000D01*
X139200000Y-106100000D02*
X139200000Y-103275000D01*
X145562500Y-97180000D02*
X145562500Y-95937500D01*
X156095318Y-105429682D02*
X156223907Y-105429682D01*
X139200000Y-103275000D02*
X140725000Y-101750000D01*
D55*
X140725000Y-101750000D02*
X140755000Y-101780000D01*
D51*
X154400000Y-107200000D02*
X154400000Y-107125000D01*
%TO.N,/D8_NEOPIX*%
X167130000Y-108699021D02*
X167130000Y-108930000D01*
X166618377Y-108187398D02*
X167130000Y-108699021D01*
X167130000Y-108930000D02*
X171525000Y-113325000D01*
X171525000Y-113325000D02*
X171525000Y-120750000D01*
D55*
%TO.N,/D13*%
X167077996Y-107727779D02*
X167177779Y-107727779D01*
D51*
X167177779Y-107727779D02*
X168750000Y-109300000D01*
D57*
%TO.N,/EN*%
X153800000Y-81312500D02*
X151800000Y-81312500D01*
D55*
X151800000Y-81312500D02*
X151737500Y-81250000D01*
D51*
%TO.N,/A7_LIGHT*%
X165812500Y-76112500D02*
X164925000Y-75225000D01*
X164925000Y-75225000D02*
X164925000Y-73950000D01*
X165750000Y-78100000D02*
X165750000Y-76312500D01*
X158175000Y-89700000D02*
X166500000Y-81375000D01*
X166500000Y-81375000D02*
X166500000Y-78850000D01*
X165812500Y-76250000D02*
X165812500Y-76112500D01*
X164925000Y-73950000D02*
X163050000Y-73950000D01*
X160360482Y-92737115D02*
X158175000Y-90551633D01*
X165750000Y-76312500D02*
X165812500Y-76250000D01*
X166500000Y-78850000D02*
X165750000Y-78100000D01*
X158175000Y-90551633D02*
X158175000Y-89700000D01*
X163050000Y-73950000D02*
X162950000Y-74050000D01*
D52*
%TO.N,+BATT*%
X143175000Y-76100000D02*
X143175000Y-77800000D01*
D51*
%TO.N,/SWO*%
X152496325Y-104510000D02*
X152586325Y-104600000D01*
X143825000Y-103720000D02*
X143155000Y-103050000D01*
X143825000Y-108575000D02*
X143825000Y-103720000D01*
X152586325Y-104600000D02*
X154295873Y-104600000D01*
X143350000Y-109050000D02*
X143825000Y-108575000D01*
X140725000Y-103050000D02*
X143155000Y-103050000D01*
X154295873Y-104600000D02*
X154845049Y-104050824D01*
%TO.N,/QSPI_CS*%
X180025000Y-102950000D02*
X178055923Y-102950000D01*
X172026739Y-97900000D02*
X171214571Y-98712168D01*
X178055923Y-102950000D02*
X174902962Y-99797038D01*
X173005923Y-97900000D02*
X172026739Y-97900000D01*
X174902962Y-99797038D02*
X174250000Y-100450000D01*
X174902962Y-99797038D02*
X173005923Y-97900000D01*
X180534530Y-102440470D02*
X180025000Y-102950000D01*
X174250000Y-100450000D02*
X174150000Y-100450000D01*
%TO.N,/QSPI_DATA[0]*%
X170230545Y-95100000D02*
X173405923Y-95100000D01*
X173405923Y-95100000D02*
X174658678Y-96352755D01*
X168916474Y-96414071D02*
X170230545Y-95100000D01*
%TO.N,/QSPI_DATA[1]*%
X177652755Y-101652755D02*
X179058678Y-101652755D01*
X172500000Y-96500000D02*
X177652755Y-101652755D01*
X181058678Y-99160653D02*
X180043296Y-98145271D01*
X179058678Y-101652755D02*
X181058678Y-99652755D01*
X169835712Y-97333309D02*
X170669021Y-96500000D01*
X170669021Y-96500000D02*
X172500000Y-96500000D01*
X181058678Y-99652755D02*
X181058678Y-99160653D01*
%TO.N,/QSPI_DATA[2]*%
X170549783Y-95700000D02*
X172500000Y-95700000D01*
X172500000Y-95700000D02*
X174600000Y-97800000D01*
X174600000Y-97800000D02*
X177901975Y-97800000D01*
X177901975Y-97800000D02*
X179145271Y-99043296D01*
X169376093Y-96873690D02*
X170549783Y-95700000D01*
%TO.N,/QSPI_DATA[3]*%
X173690000Y-93810000D02*
X173970000Y-94090000D01*
X167997235Y-95494832D02*
X169682067Y-93810000D01*
X175988025Y-94090000D02*
X176454729Y-94556704D01*
X173970000Y-94090000D02*
X175988025Y-94090000D01*
X169682067Y-93810000D02*
X173690000Y-93810000D01*
%TO.N,/QSPI_SCK*%
X169911305Y-94500000D02*
X173746037Y-94500000D01*
X174700766Y-95454729D02*
X175556704Y-95454729D01*
X181692707Y-96057293D02*
X182650000Y-95100000D01*
X175556704Y-95454729D02*
X176159268Y-96057293D01*
X173746037Y-94500000D02*
X174700766Y-95454729D01*
X176159268Y-96057293D02*
X181692707Y-96057293D01*
X168456854Y-95954451D02*
X169911305Y-94500000D01*
D54*
%TO.N,/D-*%
X181599998Y-82800000D02*
X181599998Y-83162500D01*
X182056000Y-84256498D02*
X181599998Y-84712500D01*
X181154050Y-81495950D02*
X181150000Y-81500000D01*
X180397453Y-78002547D02*
X180397453Y-78775152D01*
X181599998Y-81899998D02*
X181200000Y-81500000D01*
X175006326Y-87550000D02*
X173801561Y-88754765D01*
D53*
X181549999Y-82450000D02*
X181549999Y-82812500D01*
D54*
X173801561Y-88754765D02*
X173045235Y-88754765D01*
X182056000Y-83618502D02*
X182056000Y-84256498D01*
X181599998Y-84712500D02*
X181599998Y-85075000D01*
X180450000Y-87550000D02*
X175006326Y-87550000D01*
X180397453Y-78775152D02*
X180404050Y-78781749D01*
X181599998Y-86400002D02*
X181599998Y-85075000D01*
X181154050Y-80081751D02*
X181154050Y-81495950D01*
X181599998Y-81950002D02*
X181599998Y-81899998D01*
X181599998Y-82800000D02*
X181599998Y-81950002D01*
X181599998Y-83162500D02*
X182056000Y-83618502D01*
X181599998Y-81950002D02*
X181600000Y-81950000D01*
X180400000Y-77750000D02*
X180400000Y-78000000D01*
D53*
X181599998Y-82437500D02*
X181599998Y-82800000D01*
D51*
X181599998Y-82399998D02*
X181599998Y-82800000D01*
D54*
X180400000Y-78000000D02*
X180397453Y-78002547D01*
X181599998Y-86400002D02*
X180450000Y-87550000D01*
%TO.N,/D+*%
X179700000Y-83162500D02*
X179250000Y-83612500D01*
X174190470Y-89143674D02*
X174190470Y-89859530D01*
X180350000Y-88250000D02*
X175084144Y-88250000D01*
X180154050Y-80081751D02*
X180154050Y-81502964D01*
D51*
X179700000Y-82400000D02*
X179700000Y-82800000D01*
D54*
X179700000Y-81957014D02*
X179700000Y-82800000D01*
X179700000Y-82800000D02*
X179700000Y-83162500D01*
D53*
X179650001Y-82450000D02*
X179650001Y-82812500D01*
D54*
X179700000Y-84712500D02*
X179700000Y-85075000D01*
X180904050Y-78781749D02*
X180904050Y-79295950D01*
X180904050Y-79295950D02*
X180154050Y-80045950D01*
X179250000Y-84262500D02*
X179700000Y-84712500D01*
X179700000Y-85075000D02*
X179700000Y-86068751D01*
X180154050Y-80045950D02*
X180154050Y-80081751D01*
D53*
X179700000Y-82437500D02*
X179700000Y-82800000D01*
D54*
X179700000Y-81957014D02*
X180154050Y-81502964D01*
X179250000Y-83612500D02*
X179250000Y-84262500D01*
X179700000Y-86068751D02*
X180374999Y-86743750D01*
X175084144Y-88250000D02*
X174190470Y-89143674D01*
D51*
%TO.N,Net-(D8-A)*%
X174400000Y-114925128D02*
X175692201Y-116217329D01*
D55*
X174400000Y-114900000D02*
X174400000Y-114925128D01*
D51*
X175692201Y-116104765D02*
X175692201Y-116217329D01*
%TO.N,/BUTTON8*%
X114225000Y-101200000D02*
X114225000Y-101175000D01*
X145184530Y-91440470D02*
X125859530Y-91440470D01*
X114225000Y-101175000D02*
X111400000Y-98350000D01*
X146540470Y-91440470D02*
X153250000Y-98150000D01*
X153823261Y-98150000D02*
X153250000Y-98150000D01*
X154385429Y-98712168D02*
X153823261Y-98150000D01*
X115619000Y-99806000D02*
X114225000Y-101200000D01*
X117494000Y-99806000D02*
X115619000Y-99806000D01*
X145184530Y-91440470D02*
X146540470Y-91440470D01*
X125859530Y-91440470D02*
X117494000Y-99806000D01*
%TO.N,Net-(R18-Pad2)*%
X170040470Y-110590470D02*
X173059530Y-113609530D01*
D55*
X173059530Y-113609530D02*
X173109530Y-113609530D01*
D57*
%TO.N,+1V1*%
X157602765Y-95494832D02*
X158207933Y-96100000D01*
X154600000Y-107950000D02*
X153463214Y-107950000D01*
X156800000Y-94692067D02*
X156800000Y-93700000D01*
X169167246Y-90472754D02*
X169540000Y-90100000D01*
X154950000Y-107600000D02*
X154600000Y-107950000D01*
D55*
X168456854Y-106348921D02*
X168548921Y-106348921D01*
D57*
X165699138Y-93196735D02*
X166245873Y-92650000D01*
X166245873Y-92650000D02*
X167300000Y-92650000D01*
X156233623Y-93133623D02*
X156366377Y-93133623D01*
D55*
X165699138Y-93196735D02*
X165699138Y-93220862D01*
D57*
X156233623Y-93133623D02*
X156233623Y-89916377D01*
D55*
X157602765Y-95494832D02*
X157602765Y-95502765D01*
D57*
X154972827Y-107600000D02*
X154950000Y-107600000D01*
X158207933Y-96100000D02*
X158950000Y-96100000D01*
X156683526Y-105889301D02*
X154972827Y-107600000D01*
X152521497Y-107008283D02*
X151653355Y-107008283D01*
X156800000Y-93700000D02*
X156233623Y-93133623D01*
X169167246Y-90782754D02*
X169167246Y-90472754D01*
X168428921Y-106348921D02*
X167530000Y-105450000D01*
X157602765Y-95494832D02*
X156800000Y-94692067D01*
X165699138Y-93220862D02*
X164810000Y-94110000D01*
X168548921Y-106348921D02*
X170300000Y-108100000D01*
D55*
X168456854Y-106348921D02*
X168428921Y-106348921D01*
D57*
X153463214Y-107950000D02*
X152521497Y-107008283D01*
X157582827Y-104990000D02*
X156683526Y-105889301D01*
X167300000Y-92650000D02*
X169167246Y-90782754D01*
X156233623Y-89916377D02*
X156250000Y-89900000D01*
D51*
%TO.N,Net-(IC2-VREG_AVDD)*%
X164375000Y-87507754D02*
X164375000Y-90843917D01*
X164375000Y-90843917D02*
X163860660Y-91358257D01*
X163867246Y-87000000D02*
X164375000Y-87507754D01*
X163867246Y-87000000D02*
X164988388Y-85878858D01*
D55*
X163810660Y-87056586D02*
X163867246Y-87000000D01*
%TO.N,Net-(IC2-VREG_PGND)*%
X166200000Y-89400000D02*
X166200000Y-89938156D01*
X166250000Y-89888156D02*
X166250000Y-89550000D01*
D51*
%TO.N,/XIN*%
X155319732Y-111626346D02*
X152119732Y-114826346D01*
X157602765Y-106808540D02*
X155319732Y-109091573D01*
X152119732Y-115693592D02*
X152586109Y-116159969D01*
X155319732Y-109091573D02*
X155319732Y-111626346D01*
X152119732Y-114826346D02*
X152119732Y-115693592D01*
X154876140Y-118450000D02*
X155400000Y-118450000D01*
X151019732Y-114826346D02*
X150470342Y-114276956D01*
X152586109Y-116159969D02*
X154876140Y-118450000D01*
X152119732Y-114826346D02*
X151019732Y-114826346D01*
%TO.N,Net-(C45-Pad2)*%
X152774497Y-108429425D02*
X150603922Y-110600000D01*
X148091833Y-108904855D02*
X149786978Y-110600000D01*
D55*
X150603922Y-110600000D02*
X150046078Y-110600000D01*
X149786978Y-110600000D02*
X150046078Y-110600000D01*
D57*
%TO.N,Net-(D9-K)*%
X159300000Y-76900000D02*
X160700000Y-75500000D01*
X160700000Y-75500000D02*
X160700000Y-73850000D01*
X159600000Y-77200000D02*
X159600000Y-80787500D01*
X157345000Y-76900000D02*
X157245000Y-76800000D01*
X159750000Y-80937500D02*
X159575000Y-80937500D01*
X159300000Y-76900000D02*
X157345000Y-76900000D01*
X159600000Y-80787500D02*
X159750000Y-80937500D01*
X159300000Y-76900000D02*
X159600000Y-77200000D01*
X159575000Y-80937500D02*
X157712500Y-82800000D01*
D53*
%TO.N,Net-(IC2-USB_DP)*%
X172900000Y-91150000D02*
X170950000Y-91150000D01*
X167134351Y-93600000D02*
X166618377Y-94115974D01*
D55*
X166618377Y-94115974D02*
X166641421Y-94115974D01*
D53*
X168500000Y-93600000D02*
X167134351Y-93600000D01*
X170950000Y-91150000D02*
X168500000Y-93600000D01*
D51*
%TO.N,/LCD_SCL*%
X160820101Y-110025876D02*
X160820101Y-110054899D01*
X160820101Y-110054899D02*
X159575000Y-111300000D01*
%TO.N,/LCD_SDIO*%
X161739340Y-110945115D02*
X161739340Y-111564340D01*
X161739340Y-111564340D02*
X162075000Y-111900000D01*
D55*
%TO.N,Net-(IC2-USB_DM)*%
X166158758Y-93656354D02*
X166158757Y-93656354D01*
D53*
X171364765Y-90045235D02*
X168260000Y-93150000D01*
X166665111Y-93150000D02*
X166158757Y-93656354D01*
X171754765Y-90045235D02*
X171364765Y-90045235D01*
X168260000Y-93150000D02*
X166665111Y-93150000D01*
D51*
%TO.N,/~{LCD_CS}*%
X164900000Y-111875000D02*
X163925000Y-112850000D01*
X164900000Y-111065216D02*
X164900000Y-111875000D01*
X164320280Y-110485496D02*
X164900000Y-111065216D01*
%TO.N,/LCD_D{slash}CX*%
X161279720Y-110485496D02*
X160475000Y-111290216D01*
X160475000Y-111290216D02*
X160475000Y-112150000D01*
%TO.N,/BKLT_PWM*%
X161154800Y-119550000D02*
X158850000Y-119550000D01*
X165675000Y-112056250D02*
X161862500Y-115868750D01*
X162240000Y-117994900D02*
X162240000Y-118464800D01*
X162240000Y-118464800D02*
X161154800Y-119550000D01*
X164779899Y-110025876D02*
X165675000Y-110920977D01*
X165675000Y-110920977D02*
X165675000Y-112056250D01*
X161862500Y-115868750D02*
X161862500Y-115900000D01*
X161862500Y-117617400D02*
X162240000Y-117994900D01*
D53*
X164779899Y-110025876D02*
X165271247Y-110517224D01*
D51*
X161862500Y-115900000D02*
X161862500Y-117617400D01*
%TO.N,/XOUT*%
X154064967Y-109719895D02*
X152955105Y-109719895D01*
X157143146Y-106348921D02*
X154064967Y-109427100D01*
D55*
X154064967Y-109427100D02*
X154064967Y-109719895D01*
D51*
X148500331Y-114174669D02*
X148500331Y-116900331D01*
X152955105Y-109719895D02*
X148500331Y-114174669D01*
X148500331Y-116900331D02*
X150250000Y-118650000D01*
%TO.N,/TE*%
X160175000Y-114950000D02*
X163860660Y-111264340D01*
X163860660Y-111264340D02*
X163860660Y-110945115D01*
%TO.N,/SP14W*%
X186350000Y-110980000D02*
X184492500Y-112837500D01*
X184492500Y-112837500D02*
X183775000Y-112837500D01*
%TO.N,/LED_K2*%
X163510000Y-123645800D02*
X164714200Y-124850000D01*
X163510000Y-123405100D02*
X163510000Y-123645800D01*
X185180000Y-124850000D02*
X186350000Y-123680000D01*
X164714200Y-124850000D02*
X185180000Y-124850000D01*
%TO.N,/LED_K1*%
X164780000Y-123405100D02*
X184084900Y-123405100D01*
X184084900Y-123405100D02*
X186350000Y-121140000D01*
%TO.N,Net-(J5-CC1)*%
X172125000Y-80050201D02*
X172125000Y-81127701D01*
X172125000Y-80050201D02*
X172125000Y-77204400D01*
%TO.N,Net-(J5-CC2)*%
X183542986Y-77400000D02*
X181750000Y-77400000D01*
X183548986Y-77394000D02*
X183542986Y-77400000D01*
X184051014Y-77394000D02*
X183548986Y-77394000D01*
X188091550Y-77219251D02*
X188054050Y-77181751D01*
X188091550Y-80181751D02*
X188091550Y-77219251D01*
X181750000Y-77400000D02*
X181404051Y-77745949D01*
D55*
X188066550Y-80156751D02*
X188091550Y-80181751D01*
D51*
X188054050Y-77181751D02*
X187835801Y-77400000D01*
X184057014Y-77400000D02*
X184051014Y-77394000D01*
X187835801Y-77400000D02*
X184057014Y-77400000D01*
X181404051Y-77745949D02*
X181404051Y-78781749D01*
%TO.N,Net-(U8-RSET)*%
X166712500Y-118950000D02*
X165735100Y-118950000D01*
X165735100Y-118950000D02*
X164780000Y-117994900D01*
%TO.N,Net-(U1-SSEL)*%
X181825000Y-98130923D02*
X180941322Y-97247245D01*
D55*
X180941322Y-97247245D02*
X180941322Y-97266322D01*
D51*
X181825000Y-101150000D02*
X181825000Y-98130923D01*
%TD*%
%TA.AperFunction,Conductor*%
%TO.N,+3V3*%
G36*
X147764736Y-96700942D02*
G01*
X147846109Y-96717128D01*
X147863773Y-96724444D01*
X147928672Y-96767808D01*
X147942191Y-96781327D01*
X147985555Y-96846226D01*
X147992871Y-96863889D01*
X148009058Y-96945263D01*
X148010000Y-96954823D01*
X148010000Y-98161036D01*
X148009999Y-98161036D01*
X148189086Y-98212241D01*
X148189091Y-98212243D01*
X148191272Y-98212866D01*
X148191273Y-98212867D01*
X149115806Y-98477215D01*
X149656027Y-98631678D01*
X149656028Y-98631679D01*
X149721288Y-98650338D01*
X149788805Y-98669643D01*
X150752690Y-97805518D01*
X150753164Y-97805100D01*
X150769183Y-97791170D01*
X150769976Y-97790879D01*
X150771562Y-97791562D01*
X151590000Y-98610000D01*
X151590000Y-98630000D01*
X151337238Y-99120136D01*
X150440000Y-100859998D01*
X150420815Y-101339640D01*
X150420815Y-101339643D01*
X150420220Y-101354501D01*
X150418892Y-101364034D01*
X150399388Y-101444865D01*
X150391339Y-101462252D01*
X150345235Y-101525442D01*
X150331133Y-101538414D01*
X150264321Y-101579092D01*
X150246323Y-101585664D01*
X150164149Y-101598363D01*
X150154537Y-101598892D01*
X150087662Y-101595985D01*
X150064133Y-101594961D01*
X149733824Y-101580600D01*
X149724574Y-101579306D01*
X149646066Y-101560562D01*
X149629126Y-101552890D01*
X149567153Y-101509001D01*
X149554292Y-101495568D01*
X149513137Y-101431748D01*
X149506208Y-101414494D01*
X149493621Y-101349368D01*
X149490890Y-101335237D01*
X149490000Y-101325939D01*
X149490000Y-100746500D01*
X149379805Y-100672167D01*
X147972329Y-99722745D01*
X147972327Y-99722744D01*
X147972325Y-99722742D01*
X147972324Y-99722741D01*
X147908961Y-99680000D01*
X147832524Y-99680000D01*
X147128943Y-99680000D01*
X147119302Y-99679042D01*
X147037267Y-99662579D01*
X147019479Y-99655141D01*
X146954257Y-99611082D01*
X146940716Y-99597356D01*
X146897542Y-99531545D01*
X146890345Y-99513660D01*
X146874991Y-99431403D01*
X146874164Y-99421764D01*
X146879709Y-99011467D01*
X149407521Y-99011467D01*
X149454527Y-98969325D01*
X149454526Y-98969325D01*
X149454522Y-98969327D01*
X149454524Y-98969325D01*
X149410000Y-98999999D01*
X149407521Y-99011467D01*
X146879709Y-99011467D01*
X146890501Y-98212867D01*
X146907547Y-96951396D01*
X146908601Y-96941936D01*
X146925604Y-96861446D01*
X146933035Y-96844007D01*
X146976578Y-96780016D01*
X146990069Y-96766706D01*
X147054641Y-96724033D01*
X147072171Y-96716840D01*
X147152897Y-96700924D01*
X147162375Y-96700000D01*
X147755177Y-96700000D01*
X147764736Y-96700942D01*
G37*
%TD.AperFunction*%
%TD*%
%TA.AperFunction,Conductor*%
%TO.N,GND*%
G36*
X176888732Y-72819685D02*
G01*
X176934487Y-72872489D01*
X176943653Y-72901605D01*
X176973140Y-73062210D01*
X178075016Y-79063914D01*
X178076311Y-79099861D01*
X178070903Y-79149032D01*
X178063783Y-79166102D01*
X178061560Y-79184461D01*
X178044475Y-79212394D01*
X178044007Y-79213518D01*
X178043145Y-79214570D01*
X178011594Y-79252665D01*
X177984880Y-79276744D01*
X177900000Y-79333332D01*
X177900000Y-79507364D01*
X177880315Y-79574403D01*
X177879103Y-79576254D01*
X177837761Y-79638127D01*
X177828449Y-79684942D01*
X177828449Y-80359380D01*
X177826212Y-80366997D01*
X177827482Y-80374835D01*
X177816508Y-80400043D01*
X177808764Y-80426419D01*
X177802054Y-80433249D01*
X177799595Y-80438899D01*
X177773338Y-80462483D01*
X177766178Y-80467267D01*
X177721482Y-80485781D01*
X177687857Y-80492469D01*
X177661978Y-80497617D01*
X177637789Y-80500000D01*
X176900000Y-80500000D01*
X176900000Y-80633675D01*
X176895774Y-80665770D01*
X176888502Y-80692908D01*
X176856409Y-80748494D01*
X176848494Y-80756409D01*
X176792908Y-80788502D01*
X176765770Y-80795774D01*
X176733675Y-80800000D01*
X175812211Y-80800000D01*
X175788020Y-80797617D01*
X175773189Y-80794667D01*
X175728518Y-80785781D01*
X175683822Y-80767267D01*
X175643727Y-80740477D01*
X175609522Y-80706272D01*
X175582730Y-80666175D01*
X175564218Y-80621480D01*
X175552383Y-80561980D01*
X175550000Y-80537789D01*
X175550000Y-73062210D01*
X175552383Y-73038019D01*
X175564218Y-72978519D01*
X175582729Y-72933826D01*
X175609524Y-72893724D01*
X175643724Y-72859524D01*
X175683826Y-72832729D01*
X175728514Y-72814219D01*
X175788028Y-72802381D01*
X175812211Y-72800000D01*
X176821693Y-72800000D01*
X176888732Y-72819685D01*
G37*
%TD.AperFunction*%
%TD*%
%TA.AperFunction,Conductor*%
%TO.N,+3V3*%
G36*
X166484369Y-82274436D02*
G01*
X166501864Y-82280947D01*
X166571033Y-82323155D01*
X166578534Y-82328783D01*
X167331582Y-83015802D01*
X167643569Y-83300433D01*
X167650150Y-83307782D01*
X167700298Y-83376627D01*
X167708444Y-83394486D01*
X167726414Y-83472561D01*
X167726896Y-83492185D01*
X167712779Y-83571050D01*
X167705521Y-83589286D01*
X167658810Y-83660510D01*
X167652598Y-83668172D01*
X167273638Y-84049627D01*
X166443287Y-84885439D01*
X166435789Y-84891620D01*
X166366063Y-84938311D01*
X166348188Y-84945688D01*
X166270715Y-84960813D01*
X166251377Y-84960700D01*
X166174088Y-84944674D01*
X166156301Y-84937090D01*
X166087117Y-84889587D01*
X166079692Y-84883319D01*
X165446011Y-84230436D01*
X165270520Y-84049627D01*
X165270519Y-84049626D01*
X165091094Y-84226531D01*
X165091094Y-84226532D01*
X161770970Y-87500004D01*
X160870513Y-88387808D01*
X162154627Y-89690266D01*
X162928754Y-90475452D01*
X162934657Y-90482712D01*
X162979443Y-90550028D01*
X162986625Y-90567216D01*
X163003049Y-90646379D01*
X163004067Y-90655680D01*
X163015859Y-91539999D01*
X163022124Y-92009845D01*
X163022124Y-92009844D01*
X163036716Y-92014854D01*
X163055676Y-92026777D01*
X163135815Y-92107970D01*
X163813670Y-92794744D01*
X164623564Y-93615022D01*
X164637695Y-93649761D01*
X164623123Y-93684317D01*
X164613196Y-93691884D01*
X164527245Y-93741508D01*
X164527245Y-93741509D01*
X164441509Y-93827245D01*
X164441508Y-93827245D01*
X164380882Y-93932250D01*
X164380881Y-93932254D01*
X164349500Y-94049370D01*
X164349500Y-94170629D01*
X164380881Y-94287745D01*
X164380882Y-94287749D01*
X164431546Y-94375500D01*
X164441508Y-94392754D01*
X164527246Y-94478492D01*
X164565679Y-94500681D01*
X164632250Y-94539117D01*
X164632252Y-94539117D01*
X164632253Y-94539118D01*
X164723074Y-94563453D01*
X164749370Y-94570499D01*
X164749371Y-94570500D01*
X164749374Y-94570500D01*
X164870629Y-94570500D01*
X164870629Y-94570499D01*
X164987747Y-94539118D01*
X165092754Y-94478492D01*
X165178492Y-94392754D01*
X165224931Y-94312318D01*
X165254684Y-94289489D01*
X165291866Y-94294384D01*
X165302234Y-94302392D01*
X167252583Y-96277745D01*
X169163352Y-98213011D01*
X169970007Y-99030007D01*
X170695049Y-99722745D01*
X171833801Y-100810762D01*
X171833802Y-100810762D01*
X171990000Y-100960000D01*
X173622806Y-101013887D01*
X174951353Y-101057734D01*
X174960322Y-101058866D01*
X175036777Y-101075809D01*
X175053359Y-101082882D01*
X175118504Y-101126337D01*
X175125538Y-101132036D01*
X176112615Y-102095662D01*
X176118846Y-102103083D01*
X176166056Y-102172187D01*
X176173588Y-102189939D01*
X176189475Y-102267041D01*
X176189574Y-102286326D01*
X176174478Y-102363588D01*
X176167127Y-102381418D01*
X176120632Y-102450993D01*
X176114479Y-102458477D01*
X175460966Y-103109674D01*
X175453517Y-103115763D01*
X175384321Y-103161789D01*
X175366612Y-103169074D01*
X175289900Y-103184116D01*
X175270749Y-103184058D01*
X175194126Y-103168547D01*
X175176462Y-103161154D01*
X175109114Y-103115763D01*
X175107544Y-103114705D01*
X175100138Y-103108574D01*
X174678026Y-102682792D01*
X174130000Y-102130000D01*
X174121566Y-102126583D01*
X174082459Y-102110736D01*
X174082459Y-102110737D01*
X174082457Y-102110736D01*
X172176699Y-101338553D01*
X172176697Y-101338552D01*
X172022894Y-101276234D01*
X172022893Y-101276234D01*
X171898880Y-101400662D01*
X171898821Y-101400721D01*
X168034018Y-105278462D01*
X167999394Y-105292872D01*
X167964722Y-105278578D01*
X167956877Y-105268372D01*
X167952501Y-105260792D01*
X167898492Y-105167246D01*
X167812754Y-105081508D01*
X167802677Y-105075690D01*
X167707749Y-105020882D01*
X167707745Y-105020881D01*
X167590629Y-104989500D01*
X167590626Y-104989500D01*
X167469374Y-104989500D01*
X167469371Y-104989500D01*
X167352254Y-105020881D01*
X167352250Y-105020882D01*
X167247245Y-105081508D01*
X167247245Y-105081509D01*
X167161509Y-105167245D01*
X167161508Y-105167245D01*
X167100882Y-105272250D01*
X167100881Y-105272254D01*
X167069500Y-105389370D01*
X167069500Y-105510629D01*
X167100881Y-105627745D01*
X167100882Y-105627749D01*
X167149083Y-105711233D01*
X167161508Y-105732754D01*
X167247246Y-105818492D01*
X167331843Y-105867334D01*
X167349802Y-105877703D01*
X167372632Y-105907456D01*
X167367737Y-105944638D01*
X167360008Y-105954728D01*
X164305023Y-109019941D01*
X163233462Y-110095091D01*
X163232327Y-110096230D01*
X163231208Y-110097380D01*
X163231209Y-110097381D01*
X162864133Y-110475276D01*
X162829697Y-110490130D01*
X162794844Y-110476283D01*
X162794073Y-110475518D01*
X162574148Y-110252211D01*
X162277703Y-109951204D01*
X162277605Y-109951105D01*
X162277541Y-109951039D01*
X162276699Y-109950185D01*
X158949648Y-106649893D01*
X158238675Y-105944638D01*
X157773432Y-105483137D01*
X157758941Y-105448548D01*
X157773153Y-105413842D01*
X157783437Y-105405917D01*
X157865581Y-105358492D01*
X157951319Y-105272754D01*
X158011945Y-105167747D01*
X158043326Y-105050629D01*
X158043327Y-105050629D01*
X158043327Y-104929371D01*
X158043326Y-104929370D01*
X158023944Y-104857034D01*
X158011945Y-104812253D01*
X158011944Y-104812252D01*
X158011944Y-104812250D01*
X157959409Y-104721259D01*
X157951319Y-104707246D01*
X157865581Y-104621508D01*
X157856164Y-104616071D01*
X157760576Y-104560882D01*
X157760572Y-104560881D01*
X157643456Y-104529500D01*
X157643453Y-104529500D01*
X157522201Y-104529500D01*
X157522198Y-104529500D01*
X157405081Y-104560881D01*
X157405077Y-104560882D01*
X157300072Y-104621508D01*
X157300072Y-104621509D01*
X157214337Y-104707243D01*
X157164893Y-104792881D01*
X157135140Y-104815711D01*
X157097957Y-104810815D01*
X157087950Y-104803168D01*
X156991249Y-104707245D01*
X155562514Y-103290000D01*
X153395724Y-101140637D01*
X154709413Y-101140637D01*
X154709413Y-101140638D01*
X154882392Y-101314404D01*
X154882397Y-101314410D01*
X155165800Y-101599103D01*
X156245223Y-102683444D01*
X162800309Y-109176248D01*
X162800309Y-109176247D01*
X162800310Y-109176248D01*
X167510000Y-104440000D01*
X167510016Y-104439984D01*
X170664624Y-101266430D01*
X170664624Y-101266428D01*
X170668612Y-101262417D01*
X170668615Y-101262412D01*
X170840000Y-101090000D01*
X170839998Y-101089998D01*
X170839999Y-101089998D01*
X170664408Y-100913719D01*
X170664373Y-100913684D01*
X169403782Y-99648150D01*
X165740018Y-95970018D01*
X165740000Y-95970000D01*
X165739984Y-95969984D01*
X165740008Y-95969960D01*
X165740006Y-95969957D01*
X165739982Y-95969982D01*
X164444544Y-94669999D01*
X164444543Y-94669998D01*
X162889999Y-93109999D01*
X158649981Y-97190017D01*
X157869492Y-97972499D01*
X154935723Y-100913752D01*
X154709413Y-101140637D01*
X153395724Y-101140637D01*
X153317982Y-101063520D01*
X153317962Y-101063500D01*
X153317495Y-101063037D01*
X153317006Y-101062557D01*
X151579173Y-99357506D01*
X151579171Y-99357505D01*
X151337238Y-99120136D01*
X151590000Y-98630000D01*
X151590000Y-98610000D01*
X150773122Y-97793122D01*
X151414918Y-97141413D01*
X151422450Y-97135159D01*
X151492655Y-97087877D01*
X151510673Y-97080421D01*
X151588824Y-97065230D01*
X151608324Y-97065394D01*
X151686203Y-97081890D01*
X151704096Y-97089647D01*
X151773494Y-97138091D01*
X151780930Y-97144477D01*
X151843333Y-97210000D01*
X152309988Y-97699988D01*
X152309999Y-97699999D01*
X152310000Y-97700000D01*
X152312156Y-97702156D01*
X152377561Y-97767561D01*
X152383704Y-97775060D01*
X152427903Y-97841469D01*
X152435222Y-97859320D01*
X152450359Y-97937644D01*
X152451248Y-97947297D01*
X152442671Y-99130955D01*
X152441923Y-99234186D01*
X152848206Y-99648207D01*
X153919999Y-100720000D01*
X153919999Y-100719999D01*
X153920000Y-100720000D01*
X155343231Y-99300812D01*
X157439700Y-97210300D01*
X157440000Y-97210000D01*
X158086944Y-96560499D01*
X158221990Y-96424920D01*
X158256609Y-96410500D01*
X158588958Y-96410500D01*
X158623606Y-96424852D01*
X158667246Y-96468492D01*
X158680245Y-96475997D01*
X158772250Y-96529117D01*
X158772252Y-96529117D01*
X158772253Y-96529118D01*
X158864624Y-96553868D01*
X158889370Y-96560499D01*
X158889371Y-96560500D01*
X158889374Y-96560500D01*
X159010629Y-96560500D01*
X159010629Y-96560499D01*
X159127747Y-96529118D01*
X159232754Y-96468492D01*
X159318492Y-96382754D01*
X159373069Y-96288225D01*
X159379117Y-96277749D01*
X159379117Y-96277748D01*
X159379118Y-96277747D01*
X159410499Y-96160629D01*
X159410500Y-96160629D01*
X159410500Y-96039371D01*
X159410499Y-96039370D01*
X159391916Y-95970018D01*
X159379118Y-95922253D01*
X159379117Y-95922252D01*
X159379117Y-95922250D01*
X159340681Y-95855679D01*
X159318492Y-95817246D01*
X159232754Y-95731508D01*
X159215515Y-95721555D01*
X159127749Y-95670882D01*
X159127745Y-95670881D01*
X159087439Y-95660081D01*
X159057686Y-95637251D01*
X159052791Y-95600069D01*
X159065405Y-95578171D01*
X159969998Y-94670002D01*
X159969997Y-94670002D01*
X159970000Y-94670000D01*
X162520000Y-92110000D01*
X162521658Y-92108257D01*
X162521721Y-92108193D01*
X162521914Y-92107989D01*
X162521934Y-92107970D01*
X162636819Y-91987340D01*
X162659102Y-91963943D01*
X162659102Y-91963942D01*
X162720000Y-91900000D01*
X162670000Y-91540000D01*
X162670000Y-91539999D01*
X161882274Y-90743043D01*
X160839760Y-89688311D01*
X160839757Y-89688308D01*
X160663525Y-89510011D01*
X160920000Y-89250000D01*
X160080000Y-88420000D01*
X160090000Y-88430000D01*
X159835367Y-88688142D01*
X159835357Y-88687468D01*
X159849176Y-88652604D01*
X159849544Y-88652229D01*
X160989989Y-87501229D01*
X160991211Y-87500004D01*
X160992357Y-87498870D01*
X165557378Y-83017378D01*
X166225004Y-82338374D01*
X166232174Y-82332359D01*
X166298962Y-82286453D01*
X166316074Y-82279005D01*
X166390503Y-82262453D01*
X166409157Y-82261948D01*
X166484369Y-82274436D01*
G37*
%TD.AperFunction*%
%TD*%
%TA.AperFunction,Conductor*%
%TO.N,+3V3*%
G36*
X178684410Y-92626363D02*
G01*
X178684490Y-92629559D01*
X178673417Y-92646582D01*
X177457937Y-93862062D01*
X177450630Y-93868077D01*
X177382773Y-93913703D01*
X177365410Y-93921013D01*
X177290101Y-93936677D01*
X177271263Y-93936896D01*
X177195608Y-93922987D01*
X177178081Y-93916083D01*
X177109182Y-93872046D01*
X177101740Y-93866205D01*
X176170026Y-92976843D01*
X176100000Y-92910000D01*
X176003220Y-92907749D01*
X176003219Y-92907749D01*
X176003217Y-92907748D01*
X175868668Y-92904620D01*
X175866333Y-92904565D01*
X175841506Y-92903987D01*
X175828814Y-92902007D01*
X175765930Y-92883500D01*
X175744201Y-92870202D01*
X175703723Y-92827497D01*
X175691609Y-92805090D01*
X175676494Y-92741304D01*
X175675196Y-92728522D01*
X175678213Y-92628966D01*
X175678863Y-92607516D01*
X175694258Y-92573318D01*
X175727841Y-92560000D01*
X176615324Y-92560000D01*
X176624590Y-92560884D01*
X176703584Y-92576097D01*
X176720785Y-92582977D01*
X176788482Y-92626442D01*
X176795798Y-92632189D01*
X176930000Y-92760000D01*
X177073269Y-92614421D01*
X177818991Y-91856670D01*
X177818990Y-91856670D01*
X177837679Y-91837679D01*
X178641317Y-92641317D01*
X179650346Y-91670488D01*
X178684410Y-92626363D01*
G37*
%TD.AperFunction*%
%TD*%
%TA.AperFunction,Conductor*%
%TO.N,+3V3*%
G36*
X167800372Y-90043910D02*
G01*
X167835510Y-90050560D01*
X167842999Y-90053564D01*
X167847956Y-90053588D01*
X167879988Y-90068402D01*
X167930402Y-90101142D01*
X167949223Y-90116153D01*
X168420768Y-90573830D01*
X168436704Y-90592732D01*
X168471558Y-90643611D01*
X168490758Y-90688912D01*
X168500548Y-90736919D01*
X168500620Y-90786118D01*
X168490970Y-90834155D01*
X168471902Y-90879512D01*
X168437197Y-90930493D01*
X168421317Y-90949441D01*
X167667226Y-91685655D01*
X167656639Y-91694880D01*
X167628682Y-91716582D01*
X167604727Y-91731163D01*
X167572614Y-91746025D01*
X167559559Y-91751191D01*
X166028843Y-92258734D01*
X166028843Y-92258733D01*
X165972628Y-92277372D01*
X165972623Y-92277375D01*
X165930748Y-92319252D01*
X165930747Y-92319253D01*
X165074045Y-93175954D01*
X165048365Y-93195660D01*
X165004103Y-93221215D01*
X164942102Y-93237828D01*
X164907898Y-93237828D01*
X164845899Y-93221216D01*
X164816275Y-93204113D01*
X164770886Y-93158723D01*
X164753784Y-93129100D01*
X164749634Y-93113612D01*
X164742195Y-93102037D01*
X164737172Y-93067102D01*
X164737172Y-93032897D01*
X164753784Y-92970898D01*
X164779340Y-92926632D01*
X164799041Y-92900958D01*
X167581102Y-90118897D01*
X167599681Y-90103619D01*
X167649617Y-90070118D01*
X167693818Y-90051617D01*
X167740637Y-90042031D01*
X167788558Y-90041675D01*
X167800372Y-90043910D01*
G37*
%TD.AperFunction*%
%TD*%
%TA.AperFunction,Conductor*%
%TO.N,GND*%
G36*
X168621483Y-112967772D02*
G01*
X168629182Y-112970961D01*
X168634341Y-112971054D01*
X168666179Y-112986287D01*
X168716621Y-113019991D01*
X168735412Y-113035412D01*
X169214587Y-113514587D01*
X169230008Y-113533378D01*
X169263712Y-113583820D01*
X169282227Y-113628518D01*
X169291634Y-113675808D01*
X169291634Y-113684145D01*
X169293524Y-113688949D01*
X169291634Y-113724193D01*
X169282227Y-113771482D01*
X169263712Y-113816179D01*
X169230008Y-113866621D01*
X169214587Y-113885412D01*
X166985412Y-116114587D01*
X166966621Y-116130008D01*
X166916179Y-116163712D01*
X166908478Y-116166901D01*
X166904765Y-116170485D01*
X166871482Y-116182227D01*
X166824193Y-116191634D01*
X166775808Y-116191634D01*
X166728518Y-116182227D01*
X166683820Y-116163712D01*
X166633378Y-116130008D01*
X166614587Y-116114587D01*
X166135412Y-115635412D01*
X166119991Y-115616621D01*
X166086287Y-115566179D01*
X166067772Y-115521482D01*
X166058365Y-115474190D01*
X166058365Y-115425808D01*
X166067772Y-115378518D01*
X166086286Y-115333822D01*
X166119994Y-115283373D01*
X166135407Y-115264592D01*
X168364592Y-113035407D01*
X168383373Y-113019994D01*
X168433822Y-112986286D01*
X168478516Y-112967772D01*
X168525810Y-112958365D01*
X168574190Y-112958365D01*
X168621483Y-112967772D01*
G37*
%TD.AperFunction*%
%TD*%
%TA.AperFunction,Conductor*%
%TO.N,GND*%
G36*
X185361980Y-77702383D02*
G01*
X185376582Y-77705287D01*
X185421480Y-77714218D01*
X185466175Y-77732730D01*
X185506272Y-77759522D01*
X185512164Y-77765414D01*
X185516896Y-77767474D01*
X185540476Y-77793726D01*
X185567267Y-77833822D01*
X185585781Y-77878517D01*
X185597617Y-77938022D01*
X185600000Y-77962210D01*
X185600000Y-80537789D01*
X185597617Y-80561982D01*
X185585781Y-80621482D01*
X185582590Y-80629183D01*
X185582499Y-80634341D01*
X185567267Y-80666179D01*
X185540481Y-80706268D01*
X185506269Y-80740479D01*
X185471975Y-80763394D01*
X185466179Y-80767267D01*
X185421482Y-80785781D01*
X185387857Y-80792469D01*
X185361978Y-80797617D01*
X185337789Y-80800000D01*
X184566325Y-80800000D01*
X184534232Y-80795775D01*
X184507091Y-80788502D01*
X184451505Y-80756409D01*
X184443590Y-80748494D01*
X184411496Y-80692904D01*
X184404225Y-80665766D01*
X184400000Y-80633675D01*
X184400000Y-80500000D01*
X184250000Y-80500000D01*
X183662211Y-80500000D01*
X183638021Y-80497617D01*
X183611774Y-80492396D01*
X183579458Y-80485968D01*
X183517548Y-80453582D01*
X183482974Y-80392866D01*
X183479651Y-80364351D01*
X183479651Y-79684942D01*
X183470338Y-79638127D01*
X183428080Y-79574882D01*
X183429472Y-79573951D01*
X183402834Y-79525167D01*
X183400000Y-79498809D01*
X183400000Y-79333332D01*
X183312519Y-79275012D01*
X183289836Y-79255564D01*
X183262185Y-79225357D01*
X183231440Y-79162616D01*
X183229651Y-79141631D01*
X183229651Y-78384940D01*
X183220338Y-78338124D01*
X183205020Y-78315199D01*
X183184142Y-78248521D01*
X183184139Y-78248374D01*
X183179441Y-77966499D01*
X183181466Y-77942029D01*
X183192547Y-77881740D01*
X183210686Y-77836353D01*
X183237326Y-77795570D01*
X183271601Y-77760722D01*
X183285792Y-77751110D01*
X183311924Y-77733412D01*
X183357009Y-77714516D01*
X183399594Y-77705953D01*
X183417103Y-77702433D01*
X183441546Y-77700000D01*
X185337789Y-77700000D01*
X185361980Y-77702383D01*
G37*
%TD.AperFunction*%
%TD*%
%TA.AperFunction,Conductor*%
%TO.N,Net-(U10-VOUT)*%
G36*
X149354736Y-79100942D02*
G01*
X149436109Y-79117128D01*
X149453773Y-79124444D01*
X149518672Y-79167808D01*
X149532191Y-79181327D01*
X149575555Y-79246226D01*
X149582871Y-79263889D01*
X149599058Y-79345263D01*
X149600000Y-79354823D01*
X149600000Y-79545176D01*
X149599058Y-79554736D01*
X149582871Y-79636110D01*
X149575555Y-79653773D01*
X149532191Y-79718672D01*
X149518672Y-79732191D01*
X149453773Y-79775555D01*
X149436110Y-79782871D01*
X149373802Y-79795265D01*
X149354734Y-79799058D01*
X149345177Y-79800000D01*
X147900000Y-79800000D01*
X147900000Y-82400000D01*
X149045177Y-82400000D01*
X149054736Y-82400942D01*
X149136109Y-82417128D01*
X149153773Y-82424444D01*
X149218672Y-82467808D01*
X149232191Y-82481327D01*
X149275555Y-82546226D01*
X149282871Y-82563889D01*
X149299058Y-82645263D01*
X149300000Y-82654823D01*
X149300000Y-83145176D01*
X149299058Y-83154735D01*
X149299058Y-83154736D01*
X149282871Y-83236110D01*
X149275555Y-83253773D01*
X149232191Y-83318672D01*
X149218672Y-83332191D01*
X149153773Y-83375555D01*
X149136110Y-83382871D01*
X149073802Y-83395265D01*
X149054734Y-83399058D01*
X149045177Y-83400000D01*
X146854823Y-83400000D01*
X146845265Y-83399058D01*
X146821619Y-83394354D01*
X146763889Y-83382871D01*
X146746226Y-83375555D01*
X146681327Y-83332191D01*
X146667808Y-83318672D01*
X146624444Y-83253773D01*
X146617128Y-83236113D01*
X146600940Y-83154726D01*
X146600000Y-83145176D01*
X146600000Y-79354823D01*
X146600939Y-79345274D01*
X146617129Y-79263884D01*
X146624444Y-79246226D01*
X146667808Y-79181327D01*
X146681327Y-79167808D01*
X146746226Y-79124444D01*
X146763884Y-79117129D01*
X146845274Y-79100939D01*
X146854823Y-79100000D01*
X149345177Y-79100000D01*
X149354736Y-79100942D01*
G37*
%TD.AperFunction*%
%TD*%
%TA.AperFunction,Conductor*%
%TO.N,+3V3*%
G36*
X160920000Y-89250000D02*
G01*
X160663525Y-89510011D01*
X160663524Y-89510011D01*
X160163931Y-90016497D01*
X159984601Y-90198301D01*
X159524080Y-90665172D01*
X159516693Y-90671319D01*
X159447984Y-90717904D01*
X159430360Y-90725342D01*
X159353871Y-90741078D01*
X159334743Y-90741201D01*
X159258060Y-90726453D01*
X159240343Y-90719244D01*
X159171037Y-90673551D01*
X159163573Y-90667502D01*
X158696122Y-90205684D01*
X158689990Y-90198304D01*
X158643489Y-90129630D01*
X158636069Y-90112029D01*
X158620361Y-90035602D01*
X158620239Y-90016503D01*
X158634957Y-89939884D01*
X158642152Y-89922184D01*
X158687764Y-89852913D01*
X158693793Y-89845464D01*
X158846880Y-89690266D01*
X160090000Y-88430000D01*
X160080000Y-88420000D01*
X160920000Y-89250000D01*
G37*
%TD.AperFunction*%
%TD*%
%TA.AperFunction,Conductor*%
%TO.N,V+*%
G36*
X155761980Y-76002383D02*
G01*
X155821480Y-76014218D01*
X155866175Y-76032730D01*
X155906272Y-76059522D01*
X155912164Y-76065414D01*
X155916896Y-76067474D01*
X155940476Y-76093726D01*
X155967267Y-76133822D01*
X155985781Y-76178517D01*
X155989542Y-76197427D01*
X155997617Y-76238019D01*
X156000000Y-76262210D01*
X156000000Y-77500000D01*
X156118265Y-77573324D01*
X157731614Y-78573601D01*
X158372795Y-78971133D01*
X158389614Y-78983646D01*
X158428957Y-79018453D01*
X158455142Y-79051019D01*
X158475498Y-79087593D01*
X158489376Y-79127002D01*
X158498227Y-79178776D01*
X158500000Y-79199671D01*
X158500000Y-80237789D01*
X158497617Y-80261980D01*
X158497617Y-80261982D01*
X158485781Y-80321482D01*
X158467267Y-80366179D01*
X158440481Y-80406268D01*
X158406269Y-80440479D01*
X158371975Y-80463394D01*
X158366179Y-80467267D01*
X158321482Y-80485781D01*
X158287857Y-80492469D01*
X158261978Y-80497617D01*
X158237789Y-80500000D01*
X157462211Y-80500000D01*
X157438020Y-80497617D01*
X157423189Y-80494667D01*
X157378518Y-80485781D01*
X157333822Y-80467267D01*
X157293727Y-80440477D01*
X157259522Y-80406272D01*
X157232730Y-80366175D01*
X157214218Y-80321480D01*
X157202383Y-80261980D01*
X157200000Y-80237789D01*
X157200000Y-79504281D01*
X156946803Y-79250000D01*
X156824329Y-79127002D01*
X156273288Y-78573601D01*
X156273285Y-78573599D01*
X156200000Y-78500000D01*
X155399719Y-78500000D01*
X155319426Y-78580517D01*
X155319420Y-78580521D01*
X154828108Y-79073222D01*
X154828108Y-79073223D01*
X154413128Y-79489373D01*
X154413128Y-79489374D01*
X154380579Y-79607519D01*
X154380579Y-79607523D01*
X154354169Y-79703380D01*
X154344275Y-79728343D01*
X154313082Y-79787417D01*
X154278569Y-79828158D01*
X154236429Y-79860258D01*
X154187988Y-79882709D01*
X154137564Y-79893826D01*
X154122750Y-79897092D01*
X154096054Y-79900000D01*
X150762211Y-79900000D01*
X150738020Y-79897617D01*
X150723189Y-79894667D01*
X150678518Y-79885781D01*
X150633822Y-79867267D01*
X150593727Y-79840477D01*
X150559522Y-79806272D01*
X150532730Y-79766175D01*
X150514218Y-79721480D01*
X150502383Y-79661980D01*
X150500000Y-79637789D01*
X150500000Y-79262210D01*
X150502383Y-79238019D01*
X150510011Y-79199671D01*
X150514218Y-79178517D01*
X150532729Y-79133826D01*
X150559524Y-79093724D01*
X150593724Y-79059524D01*
X150633826Y-79032729D01*
X150678514Y-79014219D01*
X150738028Y-79002381D01*
X150762211Y-79000000D01*
X154100000Y-79000000D01*
X155300000Y-77500000D01*
X155300000Y-76262210D01*
X155302383Y-76238019D01*
X155314219Y-76178517D01*
X155332729Y-76133826D01*
X155359524Y-76093724D01*
X155393724Y-76059524D01*
X155433826Y-76032729D01*
X155478514Y-76014219D01*
X155538028Y-76002381D01*
X155562211Y-76000000D01*
X155737789Y-76000000D01*
X155761980Y-76002383D01*
G37*
%TD.AperFunction*%
%TD*%
%TA.AperFunction,Conductor*%
%TO.N,+3V3*%
G36*
X152261980Y-82402383D02*
G01*
X152321480Y-82414218D01*
X152366175Y-82432730D01*
X152406272Y-82459522D01*
X152412164Y-82465414D01*
X152416896Y-82467474D01*
X152440476Y-82493726D01*
X152467267Y-82533822D01*
X152485781Y-82578517D01*
X152489542Y-82597427D01*
X152497617Y-82638019D01*
X152500000Y-82662210D01*
X152500000Y-85137789D01*
X152497617Y-85161982D01*
X152485781Y-85221482D01*
X152482590Y-85229183D01*
X152482499Y-85234341D01*
X152467267Y-85266179D01*
X152440481Y-85306268D01*
X152406269Y-85340479D01*
X152371975Y-85363394D01*
X152366179Y-85367267D01*
X152321482Y-85385781D01*
X152287857Y-85392469D01*
X152261978Y-85397617D01*
X152237789Y-85400000D01*
X150362211Y-85400000D01*
X150338020Y-85397617D01*
X150323189Y-85394667D01*
X150278518Y-85385781D01*
X150233822Y-85367267D01*
X150193727Y-85340477D01*
X150159522Y-85306272D01*
X150132730Y-85266175D01*
X150114218Y-85221480D01*
X150102383Y-85161980D01*
X150100000Y-85137789D01*
X150100000Y-82662210D01*
X150102383Y-82638019D01*
X150114219Y-82578517D01*
X150132729Y-82533826D01*
X150159524Y-82493724D01*
X150193724Y-82459524D01*
X150233826Y-82432729D01*
X150278514Y-82414219D01*
X150338028Y-82402381D01*
X150362211Y-82400000D01*
X152237789Y-82400000D01*
X152261980Y-82402383D01*
G37*
%TD.AperFunction*%
%TD*%
%TA.AperFunction,Conductor*%
%TO.N,VBUS*%
G36*
X179212322Y-79816699D02*
G01*
X179234283Y-79829379D01*
X179270620Y-79865716D01*
X179283302Y-79887682D01*
X179298330Y-79943767D01*
X179300000Y-79956449D01*
X179300000Y-80696470D01*
X179285648Y-80731118D01*
X179263682Y-80743800D01*
X179237254Y-80750881D01*
X179237250Y-80750882D01*
X179132245Y-80811508D01*
X179132245Y-80811509D01*
X179046509Y-80897245D01*
X179046508Y-80897245D01*
X178985882Y-81002250D01*
X178985881Y-81002254D01*
X178954500Y-81119370D01*
X178954500Y-81240629D01*
X178969339Y-81296011D01*
X178964444Y-81333193D01*
X178956657Y-81343341D01*
X178280190Y-82019809D01*
X178272765Y-82025903D01*
X178203774Y-82072001D01*
X178186111Y-82079317D01*
X178109560Y-82094545D01*
X178090440Y-82094545D01*
X178013888Y-82079317D01*
X177996225Y-82072001D01*
X177927234Y-82025903D01*
X177919809Y-82019809D01*
X177794478Y-81894478D01*
X177788125Y-81886661D01*
X177740514Y-81813905D01*
X177733203Y-81795250D01*
X177719565Y-81714617D01*
X177720334Y-81694593D01*
X177740116Y-81615244D01*
X177748833Y-81597210D01*
X177801892Y-81528309D01*
X177808813Y-81521016D01*
X178416667Y-81000000D01*
X178852886Y-80626097D01*
X178875213Y-80615243D01*
X178881775Y-80613938D01*
X178934865Y-80578465D01*
X178966524Y-80531082D01*
X178975369Y-80521112D01*
X179000000Y-80500000D01*
X179000000Y-79956449D01*
X179001668Y-79943774D01*
X179016698Y-79887679D01*
X179029377Y-79865718D01*
X179065718Y-79829377D01*
X179087677Y-79816699D01*
X179137322Y-79803397D01*
X179162678Y-79803397D01*
X179212322Y-79816699D01*
G37*
%TD.AperFunction*%
%TD*%
%TA.AperFunction,Conductor*%
%TO.N,+3V3*%
G36*
X165702002Y-114501807D02*
G01*
X165702003Y-114501808D01*
X165702854Y-114503950D01*
X165686646Y-114530182D01*
X165678846Y-114539821D01*
X164341107Y-115820388D01*
X164306116Y-115853884D01*
X164284018Y-115902783D01*
X164284005Y-115902809D01*
X164115450Y-116275807D01*
X164113906Y-116278925D01*
X164099506Y-116305571D01*
X164095772Y-116311440D01*
X164077759Y-116335757D01*
X164075600Y-116338466D01*
X163972979Y-116458191D01*
X163800000Y-116660000D01*
X163800000Y-118510923D01*
X163799038Y-118520583D01*
X163782511Y-118602771D01*
X163775044Y-118620588D01*
X163730822Y-118685884D01*
X163717048Y-118699430D01*
X163651027Y-118742556D01*
X163633088Y-118749726D01*
X163550629Y-118764882D01*
X163540955Y-118765682D01*
X163449927Y-118764165D01*
X163440484Y-118763086D01*
X163360195Y-118745895D01*
X163342808Y-118738437D01*
X163279034Y-118694857D01*
X163265769Y-118681369D01*
X163223257Y-118616877D01*
X163216091Y-118599370D01*
X163200240Y-118518807D01*
X163199318Y-118509348D01*
X163199318Y-116459441D01*
X163199321Y-116458191D01*
X163199328Y-116457119D01*
X163208954Y-115494611D01*
X163209930Y-115485362D01*
X163225917Y-115406561D01*
X163232962Y-115389436D01*
X163277069Y-115322187D01*
X163282875Y-115314943D01*
X164523280Y-114037400D01*
X164523279Y-114037400D01*
X164880000Y-113670000D01*
X164890000Y-113670000D01*
X165702002Y-114501807D01*
G37*
%TD.AperFunction*%
%TD*%
%TA.AperFunction,Conductor*%
%TO.N,+1V1*%
G36*
X170107029Y-89303593D02*
G01*
X170154950Y-89303593D01*
X170178713Y-89305891D01*
X170198697Y-89309793D01*
X170242727Y-89327668D01*
X170259780Y-89338803D01*
X170278415Y-89353717D01*
X170351150Y-89424434D01*
X170401517Y-89473404D01*
X170564251Y-89631624D01*
X170613646Y-89679648D01*
X170629300Y-89698176D01*
X170663660Y-89748020D01*
X170682798Y-89792340D01*
X170692909Y-89839380D01*
X170693672Y-89887651D01*
X170685053Y-89934986D01*
X170667324Y-89979891D01*
X170634559Y-90030790D01*
X170619500Y-90049802D01*
X169941920Y-90751581D01*
X169923418Y-90767319D01*
X169873612Y-90801888D01*
X169829285Y-90821182D01*
X169782211Y-90831430D01*
X169733869Y-90832307D01*
X169686449Y-90823772D01*
X169641451Y-90806097D01*
X169590431Y-90773361D01*
X169571370Y-90758305D01*
X169528123Y-90716648D01*
X168880435Y-90092772D01*
X168880378Y-90092716D01*
X168401815Y-89631747D01*
X168401407Y-89631352D01*
X168400439Y-89630411D01*
X168399709Y-89629696D01*
X168398417Y-89628417D01*
X168398127Y-89628127D01*
X168325449Y-89555449D01*
X168322889Y-89550761D01*
X168318433Y-89547820D01*
X168306322Y-89520421D01*
X168291964Y-89494126D01*
X168292344Y-89488799D01*
X168290186Y-89483915D01*
X168294810Y-89454317D01*
X168296948Y-89424434D01*
X168299034Y-89420965D01*
X169267494Y-88452506D01*
X170107029Y-89303593D01*
G37*
%TD.AperFunction*%
%TD*%
%TA.AperFunction,Conductor*%
%TO.N,+3V3*%
G36*
X187361980Y-89802383D02*
G01*
X187421480Y-89814218D01*
X187466175Y-89832730D01*
X187506272Y-89859522D01*
X187512164Y-89865414D01*
X187516896Y-89867474D01*
X187540476Y-89893726D01*
X187567267Y-89933822D01*
X187585781Y-89978517D01*
X187597617Y-90038022D01*
X187600000Y-90062210D01*
X187600000Y-93837789D01*
X187597617Y-93861982D01*
X187585781Y-93921482D01*
X187582590Y-93929183D01*
X187582499Y-93934341D01*
X187567267Y-93966179D01*
X187540481Y-94006268D01*
X187506269Y-94040479D01*
X187471975Y-94063394D01*
X187466179Y-94067267D01*
X187421482Y-94085781D01*
X187387857Y-94092469D01*
X187361978Y-94097617D01*
X187337789Y-94100000D01*
X185362211Y-94100000D01*
X185338020Y-94097617D01*
X185323189Y-94094667D01*
X185278518Y-94085781D01*
X185233822Y-94067267D01*
X185193727Y-94040477D01*
X185159522Y-94006272D01*
X185132730Y-93966175D01*
X185114218Y-93921480D01*
X185102383Y-93861980D01*
X185100000Y-93837789D01*
X185100000Y-91670419D01*
X184850000Y-91670419D01*
X179753206Y-91670419D01*
X179650419Y-91670419D01*
X178641317Y-92641317D01*
X177837679Y-91837679D01*
X177837586Y-91814272D01*
X177857002Y-91747154D01*
X177873899Y-91726100D01*
X179718146Y-89881853D01*
X179736927Y-89866440D01*
X179787376Y-89832732D01*
X179832071Y-89814218D01*
X179891573Y-89802383D01*
X179915764Y-89800000D01*
X187337789Y-89800000D01*
X187361980Y-89802383D01*
G37*
%TD.AperFunction*%
%TD*%
%TA.AperFunction,Conductor*%
%TO.N,+3V3*%
G36*
X167177941Y-111480569D02*
G01*
X167248458Y-111519877D01*
X167258672Y-111527462D01*
X167390768Y-111655272D01*
X167390942Y-111655441D01*
X167392563Y-111657025D01*
X167392921Y-111657379D01*
X167394494Y-111658948D01*
X167394683Y-111659138D01*
X167870997Y-112139469D01*
X167878662Y-112149510D01*
X167895887Y-112179409D01*
X167902428Y-112203595D01*
X167902584Y-112231510D01*
X167896314Y-112255769D01*
X167879426Y-112285855D01*
X167871874Y-112295981D01*
X167805415Y-112364516D01*
X167805305Y-112364629D01*
X167804534Y-112365419D01*
X167804391Y-112365565D01*
X167803585Y-112366384D01*
X167803453Y-112366518D01*
X165714725Y-114472721D01*
X165714723Y-114472725D01*
X165702067Y-114485487D01*
X165702065Y-114485490D01*
X165694006Y-114493616D01*
X164890000Y-113670000D01*
X164880000Y-113670000D01*
X164526834Y-114033739D01*
X164525530Y-114032467D01*
X164530803Y-114020040D01*
X164537383Y-114013571D01*
X164540799Y-114005000D01*
X164540861Y-114004935D01*
X166975557Y-111530925D01*
X166985578Y-111523098D01*
X167055107Y-111482076D01*
X167079403Y-111475283D01*
X167153489Y-111474375D01*
X167177941Y-111480569D01*
G37*
%TD.AperFunction*%
%TD*%
%TA.AperFunction,Conductor*%
%TO.N,+1V1*%
G36*
X169076894Y-90282008D02*
G01*
X169075962Y-90282951D01*
X169075962Y-90282952D01*
X169075772Y-90283031D01*
X169038264Y-90247745D01*
X169037902Y-90247128D01*
X169036341Y-90245897D01*
X168880433Y-90092770D01*
X169076894Y-90282008D01*
G37*
%TD.AperFunction*%
%TA.AperFunction,Conductor*%
G36*
X171355788Y-86455789D02*
G01*
X171363410Y-86458773D01*
X171368454Y-86458760D01*
X171400598Y-86473333D01*
X171451467Y-86505831D01*
X171470465Y-86520762D01*
X171709678Y-86749856D01*
X171725660Y-86768537D01*
X171760714Y-86818862D01*
X171780209Y-86863736D01*
X171790428Y-86911389D01*
X171790537Y-86920040D01*
X171792569Y-86925050D01*
X171791047Y-86960312D01*
X171782038Y-87008206D01*
X171763685Y-87053559D01*
X171729912Y-87104761D01*
X171714408Y-87123840D01*
X170200380Y-88649140D01*
X170200377Y-88649142D01*
X170193256Y-88656318D01*
X170193254Y-88656319D01*
X170136113Y-88713887D01*
X170052968Y-89248788D01*
X169267494Y-88452506D01*
X168299034Y-89420965D01*
X168300369Y-89418747D01*
X168300973Y-89414883D01*
X168320416Y-89385427D01*
X168345745Y-89356907D01*
X168346553Y-89356006D01*
X168349150Y-89353148D01*
X168350956Y-89351206D01*
X168353670Y-89348356D01*
X168354405Y-89347593D01*
X171101214Y-86527194D01*
X171119685Y-86511607D01*
X171132930Y-86502480D01*
X171169388Y-86477360D01*
X171213557Y-86458266D01*
X171260460Y-86448136D01*
X171308569Y-86447300D01*
X171355788Y-86455789D01*
G37*
%TD.AperFunction*%
%TD*%
%TA.AperFunction,Conductor*%
%TO.N,VBUS*%
G36*
X161926419Y-76700247D02*
G01*
X161969046Y-76704554D01*
X161978691Y-76706523D01*
X162019600Y-76719270D01*
X162024225Y-76720971D01*
X163116803Y-77186448D01*
X163143053Y-77213230D01*
X163142676Y-77250731D01*
X163119844Y-77275185D01*
X163093208Y-77288757D01*
X163093205Y-77288759D01*
X163001259Y-77380705D01*
X163001254Y-77380712D01*
X162942226Y-77496563D01*
X162926999Y-77592697D01*
X162926870Y-77594344D01*
X162909844Y-77627760D01*
X162878021Y-77639500D01*
X162314371Y-77639500D01*
X162197254Y-77670881D01*
X162197250Y-77670882D01*
X162092245Y-77731508D01*
X162092245Y-77731509D01*
X162006509Y-77817245D01*
X162006508Y-77817245D01*
X161945882Y-77922250D01*
X161945881Y-77922254D01*
X161914500Y-78039370D01*
X161914500Y-78160629D01*
X161945881Y-78277745D01*
X161945882Y-78277749D01*
X161993732Y-78360626D01*
X162006508Y-78382754D01*
X162092246Y-78468492D01*
X162130679Y-78490681D01*
X162197250Y-78529117D01*
X162197252Y-78529117D01*
X162197253Y-78529118D01*
X162289624Y-78553868D01*
X162314370Y-78560499D01*
X162314371Y-78560500D01*
X162314374Y-78560500D01*
X162878022Y-78560500D01*
X162912670Y-78574852D01*
X162926871Y-78605654D01*
X162927000Y-78607304D01*
X162942224Y-78703433D01*
X163001254Y-78819287D01*
X163001259Y-78819294D01*
X163093205Y-78911240D01*
X163093212Y-78911245D01*
X163209063Y-78970273D01*
X163209067Y-78970275D01*
X163305193Y-78985500D01*
X164044806Y-78985499D01*
X164140933Y-78970275D01*
X164140937Y-78970273D01*
X164256787Y-78911245D01*
X164256789Y-78911243D01*
X164256794Y-78911241D01*
X164348741Y-78819294D01*
X164407775Y-78703433D01*
X164423000Y-78607307D01*
X164422999Y-77817069D01*
X164437351Y-77782422D01*
X164471999Y-77768070D01*
X164491198Y-77771989D01*
X164674306Y-77850000D01*
X164972205Y-77976915D01*
X164998456Y-78003698D01*
X165002000Y-78021994D01*
X165002000Y-78607304D01*
X165017224Y-78703433D01*
X165076254Y-78819287D01*
X165076259Y-78819294D01*
X165168205Y-78911240D01*
X165168212Y-78911245D01*
X165284063Y-78970273D01*
X165284067Y-78970275D01*
X165380193Y-78985500D01*
X166119806Y-78985499D01*
X166143335Y-78981772D01*
X166179801Y-78990527D01*
X166199397Y-79022503D01*
X166200000Y-79030169D01*
X166200000Y-79902237D01*
X166198908Y-79912525D01*
X166180169Y-79999789D01*
X166171721Y-80018550D01*
X166118809Y-80090425D01*
X166111831Y-80098063D01*
X163564828Y-82353167D01*
X162785970Y-83042765D01*
X162606362Y-83201787D01*
X162599519Y-83206857D01*
X162536720Y-83245416D01*
X162520938Y-83251657D01*
X162448755Y-83266481D01*
X162440296Y-83267463D01*
X161562042Y-83292522D01*
X161552288Y-83291824D01*
X161469076Y-83277422D01*
X161450940Y-83270361D01*
X161384113Y-83227412D01*
X161370157Y-83213848D01*
X161325322Y-83148277D01*
X161317746Y-83130350D01*
X161300976Y-83047580D01*
X161300000Y-83037850D01*
X161300000Y-77600000D01*
X161050000Y-77600000D01*
X160354823Y-77600000D01*
X160345265Y-77599058D01*
X160313285Y-77592697D01*
X160263889Y-77582871D01*
X160246226Y-77575555D01*
X160181327Y-77532191D01*
X160167808Y-77518672D01*
X160124444Y-77453773D01*
X160117128Y-77436113D01*
X160100940Y-77354726D01*
X160100000Y-77345176D01*
X160100000Y-76954823D01*
X160100939Y-76945274D01*
X160117129Y-76863884D01*
X160124444Y-76846226D01*
X160167808Y-76781327D01*
X160181327Y-76767808D01*
X160246226Y-76724444D01*
X160263884Y-76717129D01*
X160345274Y-76700939D01*
X160354823Y-76700000D01*
X161921495Y-76700000D01*
X161926419Y-76700247D01*
G37*
%TD.AperFunction*%
%TD*%
%TA.AperFunction,Conductor*%
%TO.N,Net-(IC2-VREG_PGND)*%
G36*
X166943756Y-86224952D02*
G01*
X166972706Y-86230686D01*
X166990560Y-86234222D01*
X166997987Y-86237273D01*
X167002913Y-86237336D01*
X167034825Y-86252403D01*
X167084903Y-86285494D01*
X167103578Y-86300627D01*
X168435902Y-87613642D01*
X168451570Y-87632482D01*
X168485828Y-87683124D01*
X168504676Y-87728102D01*
X168514275Y-87775724D01*
X168514323Y-87824490D01*
X168504816Y-87872134D01*
X168486055Y-87917148D01*
X168451898Y-87967853D01*
X168436267Y-87986723D01*
X164069019Y-92307510D01*
X164042476Y-92327506D01*
X164004363Y-92348887D01*
X163940409Y-92364698D01*
X163914114Y-92364001D01*
X163851099Y-92344831D01*
X163828146Y-92330308D01*
X163784565Y-92282985D01*
X163769882Y-92254908D01*
X163755820Y-92193712D01*
X163756800Y-92161183D01*
X163774519Y-92100951D01*
X163799822Y-92058938D01*
X163819473Y-92034137D01*
X164747046Y-91129755D01*
X164747046Y-91129754D01*
X164764996Y-91112253D01*
X164764998Y-91112250D01*
X164821785Y-91056884D01*
X164841244Y-88272535D01*
X164843815Y-88248273D01*
X164856158Y-88188642D01*
X164875122Y-88143937D01*
X164909431Y-88093608D01*
X164925089Y-88074903D01*
X165086045Y-87917148D01*
X166735880Y-86300122D01*
X166754594Y-86285043D01*
X166804764Y-86252089D01*
X166849076Y-86234029D01*
X166895904Y-86224887D01*
X166943756Y-86224952D01*
G37*
%TD.AperFunction*%
%TD*%
%TA.AperFunction,Conductor*%
%TO.N,Net-(IC2-VREG_LX)*%
G36*
X170184155Y-85290265D02*
G01*
X170191672Y-85293182D01*
X170196624Y-85293150D01*
X170228824Y-85307601D01*
X170279597Y-85339762D01*
X170298582Y-85354552D01*
X170537662Y-85581372D01*
X170553835Y-85600126D01*
X170589316Y-85650720D01*
X170609033Y-85695900D01*
X170619332Y-85743893D01*
X170619887Y-85793189D01*
X170610671Y-85841407D01*
X170591978Y-85887019D01*
X170557652Y-85938391D01*
X170541900Y-85957511D01*
X169290000Y-87199999D01*
X169290000Y-87200000D01*
X169311249Y-87327493D01*
X169377465Y-87724788D01*
X169378904Y-87753011D01*
X169374470Y-87823025D01*
X169358328Y-87876800D01*
X169323467Y-87937687D01*
X169306723Y-87960451D01*
X168493542Y-88836185D01*
X168492749Y-88837031D01*
X168490764Y-88839129D01*
X168489180Y-88840773D01*
X168487093Y-88842899D01*
X168486285Y-88843714D01*
X166530139Y-90799859D01*
X166530140Y-90799860D01*
X166530000Y-90800000D01*
X164970000Y-92370000D01*
X164969814Y-92370186D01*
X164527668Y-92813282D01*
X164502129Y-92832946D01*
X164456570Y-92859383D01*
X164394887Y-92876131D01*
X164359039Y-92876291D01*
X164297202Y-92860089D01*
X164266133Y-92842426D01*
X164220485Y-92797411D01*
X164202693Y-92767107D01*
X164198425Y-92751600D01*
X164190869Y-92740003D01*
X164185627Y-92705100D01*
X164185408Y-92670066D01*
X164201698Y-92607853D01*
X164227452Y-92562707D01*
X164247063Y-92536888D01*
X167071631Y-89685867D01*
X168812942Y-87928250D01*
X168578601Y-86921453D01*
X168575608Y-86900968D01*
X168572419Y-86849180D01*
X168576772Y-86808151D01*
X168587914Y-86768331D01*
X168605485Y-86731004D01*
X168635097Y-86688378D01*
X168648283Y-86672428D01*
X169930566Y-85361436D01*
X169948987Y-85345944D01*
X169998524Y-85311906D01*
X170042512Y-85292912D01*
X170089210Y-85282805D01*
X170137119Y-85281911D01*
X170184155Y-85290265D01*
G37*
%TD.AperFunction*%
%TD*%
M02*
