%TF.GenerationSoftware,KiCad,Pcbnew,9.0.5*%
%TF.CreationDate,2025-11-13T16:23:19-08:00*%
%TF.ProjectId,SYCL Badge 2024,5359434c-2042-4616-9467-652032303234,rev?*%
%TF.SameCoordinates,Original*%
%TF.FileFunction,Legend,Top*%
%TF.FilePolarity,Positive*%
%FSLAX46Y46*%
G04 Gerber Fmt 4.6, Leading zero omitted, Abs format (unit mm)*
G04 Created by KiCad (PCBNEW 9.0.5) date 2025-11-13 16:23:19*
%MOMM*%
%LPD*%
G01*
G04 APERTURE LIST*
%ADD10C,0.150000*%
%ADD11C,0.160000*%
%ADD12C,0.508000*%
%ADD13C,0.120000*%
%ADD14C,0.263999*%
%ADD15C,0.000000*%
G04 APERTURE END LIST*
D10*
X108011905Y-95754819D02*
X108583333Y-95754819D01*
X108297619Y-96754819D02*
X108297619Y-95754819D01*
X108916667Y-96754819D02*
X108916667Y-95754819D01*
X108916667Y-95754819D02*
X109297619Y-95754819D01*
X109297619Y-95754819D02*
X109392857Y-95802438D01*
X109392857Y-95802438D02*
X109440476Y-95850057D01*
X109440476Y-95850057D02*
X109488095Y-95945295D01*
X109488095Y-95945295D02*
X109488095Y-96088152D01*
X109488095Y-96088152D02*
X109440476Y-96183390D01*
X109440476Y-96183390D02*
X109392857Y-96231009D01*
X109392857Y-96231009D02*
X109297619Y-96278628D01*
X109297619Y-96278628D02*
X108916667Y-96278628D01*
X109869048Y-95850057D02*
X109916667Y-95802438D01*
X109916667Y-95802438D02*
X110011905Y-95754819D01*
X110011905Y-95754819D02*
X110250000Y-95754819D01*
X110250000Y-95754819D02*
X110345238Y-95802438D01*
X110345238Y-95802438D02*
X110392857Y-95850057D01*
X110392857Y-95850057D02*
X110440476Y-95945295D01*
X110440476Y-95945295D02*
X110440476Y-96040533D01*
X110440476Y-96040533D02*
X110392857Y-96183390D01*
X110392857Y-96183390D02*
X109821429Y-96754819D01*
X109821429Y-96754819D02*
X110440476Y-96754819D01*
X110821429Y-95850057D02*
X110869048Y-95802438D01*
X110869048Y-95802438D02*
X110964286Y-95754819D01*
X110964286Y-95754819D02*
X111202381Y-95754819D01*
X111202381Y-95754819D02*
X111297619Y-95802438D01*
X111297619Y-95802438D02*
X111345238Y-95850057D01*
X111345238Y-95850057D02*
X111392857Y-95945295D01*
X111392857Y-95945295D02*
X111392857Y-96040533D01*
X111392857Y-96040533D02*
X111345238Y-96183390D01*
X111345238Y-96183390D02*
X110773810Y-96754819D01*
X110773810Y-96754819D02*
X111392857Y-96754819D01*
X188211905Y-97056819D02*
X188783333Y-97056819D01*
X188497619Y-98056819D02*
X188497619Y-97056819D01*
X189116667Y-98056819D02*
X189116667Y-97056819D01*
X189116667Y-97056819D02*
X189497619Y-97056819D01*
X189497619Y-97056819D02*
X189592857Y-97104438D01*
X189592857Y-97104438D02*
X189640476Y-97152057D01*
X189640476Y-97152057D02*
X189688095Y-97247295D01*
X189688095Y-97247295D02*
X189688095Y-97390152D01*
X189688095Y-97390152D02*
X189640476Y-97485390D01*
X189640476Y-97485390D02*
X189592857Y-97533009D01*
X189592857Y-97533009D02*
X189497619Y-97580628D01*
X189497619Y-97580628D02*
X189116667Y-97580628D01*
X190069048Y-97152057D02*
X190116667Y-97104438D01*
X190116667Y-97104438D02*
X190211905Y-97056819D01*
X190211905Y-97056819D02*
X190450000Y-97056819D01*
X190450000Y-97056819D02*
X190545238Y-97104438D01*
X190545238Y-97104438D02*
X190592857Y-97152057D01*
X190592857Y-97152057D02*
X190640476Y-97247295D01*
X190640476Y-97247295D02*
X190640476Y-97342533D01*
X190640476Y-97342533D02*
X190592857Y-97485390D01*
X190592857Y-97485390D02*
X190021429Y-98056819D01*
X190021429Y-98056819D02*
X190640476Y-98056819D01*
X191116667Y-98056819D02*
X191307143Y-98056819D01*
X191307143Y-98056819D02*
X191402381Y-98009200D01*
X191402381Y-98009200D02*
X191450000Y-97961580D01*
X191450000Y-97961580D02*
X191545238Y-97818723D01*
X191545238Y-97818723D02*
X191592857Y-97628247D01*
X191592857Y-97628247D02*
X191592857Y-97247295D01*
X191592857Y-97247295D02*
X191545238Y-97152057D01*
X191545238Y-97152057D02*
X191497619Y-97104438D01*
X191497619Y-97104438D02*
X191402381Y-97056819D01*
X191402381Y-97056819D02*
X191211905Y-97056819D01*
X191211905Y-97056819D02*
X191116667Y-97104438D01*
X191116667Y-97104438D02*
X191069048Y-97152057D01*
X191069048Y-97152057D02*
X191021429Y-97247295D01*
X191021429Y-97247295D02*
X191021429Y-97485390D01*
X191021429Y-97485390D02*
X191069048Y-97580628D01*
X191069048Y-97580628D02*
X191116667Y-97628247D01*
X191116667Y-97628247D02*
X191211905Y-97675866D01*
X191211905Y-97675866D02*
X191402381Y-97675866D01*
X191402381Y-97675866D02*
X191497619Y-97628247D01*
X191497619Y-97628247D02*
X191545238Y-97580628D01*
X191545238Y-97580628D02*
X191592857Y-97485390D01*
X193147619Y-80707200D02*
X193290476Y-80754819D01*
X193290476Y-80754819D02*
X193528571Y-80754819D01*
X193528571Y-80754819D02*
X193623809Y-80707200D01*
X193623809Y-80707200D02*
X193671428Y-80659580D01*
X193671428Y-80659580D02*
X193719047Y-80564342D01*
X193719047Y-80564342D02*
X193719047Y-80469104D01*
X193719047Y-80469104D02*
X193671428Y-80373866D01*
X193671428Y-80373866D02*
X193623809Y-80326247D01*
X193623809Y-80326247D02*
X193528571Y-80278628D01*
X193528571Y-80278628D02*
X193338095Y-80231009D01*
X193338095Y-80231009D02*
X193242857Y-80183390D01*
X193242857Y-80183390D02*
X193195238Y-80135771D01*
X193195238Y-80135771D02*
X193147619Y-80040533D01*
X193147619Y-80040533D02*
X193147619Y-79945295D01*
X193147619Y-79945295D02*
X193195238Y-79850057D01*
X193195238Y-79850057D02*
X193242857Y-79802438D01*
X193242857Y-79802438D02*
X193338095Y-79754819D01*
X193338095Y-79754819D02*
X193576190Y-79754819D01*
X193576190Y-79754819D02*
X193719047Y-79802438D01*
X194004762Y-79754819D02*
X194576190Y-79754819D01*
X194290476Y-80754819D02*
X194290476Y-79754819D01*
X194861905Y-80469104D02*
X195338095Y-80469104D01*
X194766667Y-80754819D02*
X195100000Y-79754819D01*
X195100000Y-79754819D02*
X195433333Y-80754819D01*
X196338095Y-80754819D02*
X196004762Y-80278628D01*
X195766667Y-80754819D02*
X195766667Y-79754819D01*
X195766667Y-79754819D02*
X196147619Y-79754819D01*
X196147619Y-79754819D02*
X196242857Y-79802438D01*
X196242857Y-79802438D02*
X196290476Y-79850057D01*
X196290476Y-79850057D02*
X196338095Y-79945295D01*
X196338095Y-79945295D02*
X196338095Y-80088152D01*
X196338095Y-80088152D02*
X196290476Y-80183390D01*
X196290476Y-80183390D02*
X196242857Y-80231009D01*
X196242857Y-80231009D02*
X196147619Y-80278628D01*
X196147619Y-80278628D02*
X195766667Y-80278628D01*
X196623810Y-79754819D02*
X197195238Y-79754819D01*
X196909524Y-80754819D02*
X196909524Y-79754819D01*
X198052381Y-80754819D02*
X197480953Y-80754819D01*
X197766667Y-80754819D02*
X197766667Y-79754819D01*
X197766667Y-79754819D02*
X197671429Y-79897676D01*
X197671429Y-79897676D02*
X197576191Y-79992914D01*
X197576191Y-79992914D02*
X197480953Y-80040533D01*
X198585714Y-92469104D02*
X199061904Y-92469104D01*
X198490476Y-92754819D02*
X198823809Y-91754819D01*
X198823809Y-91754819D02*
X199157142Y-92754819D01*
X200014285Y-92754819D02*
X199442857Y-92754819D01*
X199728571Y-92754819D02*
X199728571Y-91754819D01*
X199728571Y-91754819D02*
X199633333Y-91897676D01*
X199633333Y-91897676D02*
X199538095Y-91992914D01*
X199538095Y-91992914D02*
X199442857Y-92040533D01*
X180911905Y-92556819D02*
X181483333Y-92556819D01*
X181197619Y-93556819D02*
X181197619Y-92556819D01*
X181816667Y-93556819D02*
X181816667Y-92556819D01*
X181816667Y-92556819D02*
X182197619Y-92556819D01*
X182197619Y-92556819D02*
X182292857Y-92604438D01*
X182292857Y-92604438D02*
X182340476Y-92652057D01*
X182340476Y-92652057D02*
X182388095Y-92747295D01*
X182388095Y-92747295D02*
X182388095Y-92890152D01*
X182388095Y-92890152D02*
X182340476Y-92985390D01*
X182340476Y-92985390D02*
X182292857Y-93033009D01*
X182292857Y-93033009D02*
X182197619Y-93080628D01*
X182197619Y-93080628D02*
X181816667Y-93080628D01*
X182769048Y-92652057D02*
X182816667Y-92604438D01*
X182816667Y-92604438D02*
X182911905Y-92556819D01*
X182911905Y-92556819D02*
X183150000Y-92556819D01*
X183150000Y-92556819D02*
X183245238Y-92604438D01*
X183245238Y-92604438D02*
X183292857Y-92652057D01*
X183292857Y-92652057D02*
X183340476Y-92747295D01*
X183340476Y-92747295D02*
X183340476Y-92842533D01*
X183340476Y-92842533D02*
X183292857Y-92985390D01*
X183292857Y-92985390D02*
X182721429Y-93556819D01*
X182721429Y-93556819D02*
X183340476Y-93556819D01*
X184197619Y-92890152D02*
X184197619Y-93556819D01*
X183959524Y-92509200D02*
X183721429Y-93223485D01*
X183721429Y-93223485D02*
X184340476Y-93223485D01*
X138938095Y-104556819D02*
X139509523Y-104556819D01*
X139223809Y-105556819D02*
X139223809Y-104556819D01*
X139842857Y-105556819D02*
X139842857Y-104556819D01*
X139842857Y-104556819D02*
X140223809Y-104556819D01*
X140223809Y-104556819D02*
X140319047Y-104604438D01*
X140319047Y-104604438D02*
X140366666Y-104652057D01*
X140366666Y-104652057D02*
X140414285Y-104747295D01*
X140414285Y-104747295D02*
X140414285Y-104890152D01*
X140414285Y-104890152D02*
X140366666Y-104985390D01*
X140366666Y-104985390D02*
X140319047Y-105033009D01*
X140319047Y-105033009D02*
X140223809Y-105080628D01*
X140223809Y-105080628D02*
X139842857Y-105080628D01*
X141319047Y-104556819D02*
X140842857Y-104556819D01*
X140842857Y-104556819D02*
X140795238Y-105033009D01*
X140795238Y-105033009D02*
X140842857Y-104985390D01*
X140842857Y-104985390D02*
X140938095Y-104937771D01*
X140938095Y-104937771D02*
X141176190Y-104937771D01*
X141176190Y-104937771D02*
X141271428Y-104985390D01*
X141271428Y-104985390D02*
X141319047Y-105033009D01*
X141319047Y-105033009D02*
X141366666Y-105128247D01*
X141366666Y-105128247D02*
X141366666Y-105366342D01*
X141366666Y-105366342D02*
X141319047Y-105461580D01*
X141319047Y-105461580D02*
X141271428Y-105509200D01*
X141271428Y-105509200D02*
X141176190Y-105556819D01*
X141176190Y-105556819D02*
X140938095Y-105556819D01*
X140938095Y-105556819D02*
X140842857Y-105509200D01*
X140842857Y-105509200D02*
X140795238Y-105461580D01*
D11*
X186016666Y-85194299D02*
X186016666Y-85908584D01*
X186016666Y-85908584D02*
X185969047Y-86051441D01*
X185969047Y-86051441D02*
X185873809Y-86146680D01*
X185873809Y-86146680D02*
X185730952Y-86194299D01*
X185730952Y-86194299D02*
X185635714Y-86194299D01*
X186921428Y-85527632D02*
X186921428Y-86194299D01*
X186683333Y-85146680D02*
X186445238Y-85860965D01*
X186445238Y-85860965D02*
X187064285Y-85860965D01*
D10*
X196511905Y-106754819D02*
X197083333Y-106754819D01*
X196797619Y-107754819D02*
X196797619Y-106754819D01*
X197416667Y-107754819D02*
X197416667Y-106754819D01*
X197416667Y-106754819D02*
X197797619Y-106754819D01*
X197797619Y-106754819D02*
X197892857Y-106802438D01*
X197892857Y-106802438D02*
X197940476Y-106850057D01*
X197940476Y-106850057D02*
X197988095Y-106945295D01*
X197988095Y-106945295D02*
X197988095Y-107088152D01*
X197988095Y-107088152D02*
X197940476Y-107183390D01*
X197940476Y-107183390D02*
X197892857Y-107231009D01*
X197892857Y-107231009D02*
X197797619Y-107278628D01*
X197797619Y-107278628D02*
X197416667Y-107278628D01*
X198940476Y-107754819D02*
X198369048Y-107754819D01*
X198654762Y-107754819D02*
X198654762Y-106754819D01*
X198654762Y-106754819D02*
X198559524Y-106897676D01*
X198559524Y-106897676D02*
X198464286Y-106992914D01*
X198464286Y-106992914D02*
X198369048Y-107040533D01*
X199273810Y-106754819D02*
X199892857Y-106754819D01*
X199892857Y-106754819D02*
X199559524Y-107135771D01*
X199559524Y-107135771D02*
X199702381Y-107135771D01*
X199702381Y-107135771D02*
X199797619Y-107183390D01*
X199797619Y-107183390D02*
X199845238Y-107231009D01*
X199845238Y-107231009D02*
X199892857Y-107326247D01*
X199892857Y-107326247D02*
X199892857Y-107564342D01*
X199892857Y-107564342D02*
X199845238Y-107659580D01*
X199845238Y-107659580D02*
X199797619Y-107707200D01*
X199797619Y-107707200D02*
X199702381Y-107754819D01*
X199702381Y-107754819D02*
X199416667Y-107754819D01*
X199416667Y-107754819D02*
X199321429Y-107707200D01*
X199321429Y-107707200D02*
X199273810Y-107659580D01*
X178511905Y-108204819D02*
X179083333Y-108204819D01*
X178797619Y-109204819D02*
X178797619Y-108204819D01*
X179416667Y-109204819D02*
X179416667Y-108204819D01*
X179416667Y-108204819D02*
X179797619Y-108204819D01*
X179797619Y-108204819D02*
X179892857Y-108252438D01*
X179892857Y-108252438D02*
X179940476Y-108300057D01*
X179940476Y-108300057D02*
X179988095Y-108395295D01*
X179988095Y-108395295D02*
X179988095Y-108538152D01*
X179988095Y-108538152D02*
X179940476Y-108633390D01*
X179940476Y-108633390D02*
X179892857Y-108681009D01*
X179892857Y-108681009D02*
X179797619Y-108728628D01*
X179797619Y-108728628D02*
X179416667Y-108728628D01*
X180940476Y-109204819D02*
X180369048Y-109204819D01*
X180654762Y-109204819D02*
X180654762Y-108204819D01*
X180654762Y-108204819D02*
X180559524Y-108347676D01*
X180559524Y-108347676D02*
X180464286Y-108442914D01*
X180464286Y-108442914D02*
X180369048Y-108490533D01*
X181511905Y-108633390D02*
X181416667Y-108585771D01*
X181416667Y-108585771D02*
X181369048Y-108538152D01*
X181369048Y-108538152D02*
X181321429Y-108442914D01*
X181321429Y-108442914D02*
X181321429Y-108395295D01*
X181321429Y-108395295D02*
X181369048Y-108300057D01*
X181369048Y-108300057D02*
X181416667Y-108252438D01*
X181416667Y-108252438D02*
X181511905Y-108204819D01*
X181511905Y-108204819D02*
X181702381Y-108204819D01*
X181702381Y-108204819D02*
X181797619Y-108252438D01*
X181797619Y-108252438D02*
X181845238Y-108300057D01*
X181845238Y-108300057D02*
X181892857Y-108395295D01*
X181892857Y-108395295D02*
X181892857Y-108442914D01*
X181892857Y-108442914D02*
X181845238Y-108538152D01*
X181845238Y-108538152D02*
X181797619Y-108585771D01*
X181797619Y-108585771D02*
X181702381Y-108633390D01*
X181702381Y-108633390D02*
X181511905Y-108633390D01*
X181511905Y-108633390D02*
X181416667Y-108681009D01*
X181416667Y-108681009D02*
X181369048Y-108728628D01*
X181369048Y-108728628D02*
X181321429Y-108823866D01*
X181321429Y-108823866D02*
X181321429Y-109014342D01*
X181321429Y-109014342D02*
X181369048Y-109109580D01*
X181369048Y-109109580D02*
X181416667Y-109157200D01*
X181416667Y-109157200D02*
X181511905Y-109204819D01*
X181511905Y-109204819D02*
X181702381Y-109204819D01*
X181702381Y-109204819D02*
X181797619Y-109157200D01*
X181797619Y-109157200D02*
X181845238Y-109109580D01*
X181845238Y-109109580D02*
X181892857Y-109014342D01*
X181892857Y-109014342D02*
X181892857Y-108823866D01*
X181892857Y-108823866D02*
X181845238Y-108728628D01*
X181845238Y-108728628D02*
X181797619Y-108681009D01*
X181797619Y-108681009D02*
X181702381Y-108633390D01*
X170361905Y-124106819D02*
X170933333Y-124106819D01*
X170647619Y-125106819D02*
X170647619Y-124106819D01*
X171266667Y-125106819D02*
X171266667Y-124106819D01*
X171266667Y-124106819D02*
X171647619Y-124106819D01*
X171647619Y-124106819D02*
X171742857Y-124154438D01*
X171742857Y-124154438D02*
X171790476Y-124202057D01*
X171790476Y-124202057D02*
X171838095Y-124297295D01*
X171838095Y-124297295D02*
X171838095Y-124440152D01*
X171838095Y-124440152D02*
X171790476Y-124535390D01*
X171790476Y-124535390D02*
X171742857Y-124583009D01*
X171742857Y-124583009D02*
X171647619Y-124630628D01*
X171647619Y-124630628D02*
X171266667Y-124630628D01*
X172790476Y-125106819D02*
X172219048Y-125106819D01*
X172504762Y-125106819D02*
X172504762Y-124106819D01*
X172504762Y-124106819D02*
X172409524Y-124249676D01*
X172409524Y-124249676D02*
X172314286Y-124344914D01*
X172314286Y-124344914D02*
X172219048Y-124392533D01*
X173647619Y-124106819D02*
X173457143Y-124106819D01*
X173457143Y-124106819D02*
X173361905Y-124154438D01*
X173361905Y-124154438D02*
X173314286Y-124202057D01*
X173314286Y-124202057D02*
X173219048Y-124344914D01*
X173219048Y-124344914D02*
X173171429Y-124535390D01*
X173171429Y-124535390D02*
X173171429Y-124916342D01*
X173171429Y-124916342D02*
X173219048Y-125011580D01*
X173219048Y-125011580D02*
X173266667Y-125059200D01*
X173266667Y-125059200D02*
X173361905Y-125106819D01*
X173361905Y-125106819D02*
X173552381Y-125106819D01*
X173552381Y-125106819D02*
X173647619Y-125059200D01*
X173647619Y-125059200D02*
X173695238Y-125011580D01*
X173695238Y-125011580D02*
X173742857Y-124916342D01*
X173742857Y-124916342D02*
X173742857Y-124678247D01*
X173742857Y-124678247D02*
X173695238Y-124583009D01*
X173695238Y-124583009D02*
X173647619Y-124535390D01*
X173647619Y-124535390D02*
X173552381Y-124487771D01*
X173552381Y-124487771D02*
X173361905Y-124487771D01*
X173361905Y-124487771D02*
X173266667Y-124535390D01*
X173266667Y-124535390D02*
X173219048Y-124583009D01*
X173219048Y-124583009D02*
X173171429Y-124678247D01*
X156036905Y-121604819D02*
X156608333Y-121604819D01*
X156322619Y-122604819D02*
X156322619Y-121604819D01*
X156941667Y-122604819D02*
X156941667Y-121604819D01*
X156941667Y-121604819D02*
X157322619Y-121604819D01*
X157322619Y-121604819D02*
X157417857Y-121652438D01*
X157417857Y-121652438D02*
X157465476Y-121700057D01*
X157465476Y-121700057D02*
X157513095Y-121795295D01*
X157513095Y-121795295D02*
X157513095Y-121938152D01*
X157513095Y-121938152D02*
X157465476Y-122033390D01*
X157465476Y-122033390D02*
X157417857Y-122081009D01*
X157417857Y-122081009D02*
X157322619Y-122128628D01*
X157322619Y-122128628D02*
X156941667Y-122128628D01*
X158465476Y-122604819D02*
X157894048Y-122604819D01*
X158179762Y-122604819D02*
X158179762Y-121604819D01*
X158179762Y-121604819D02*
X158084524Y-121747676D01*
X158084524Y-121747676D02*
X157989286Y-121842914D01*
X157989286Y-121842914D02*
X157894048Y-121890533D01*
X159370238Y-121604819D02*
X158894048Y-121604819D01*
X158894048Y-121604819D02*
X158846429Y-122081009D01*
X158846429Y-122081009D02*
X158894048Y-122033390D01*
X158894048Y-122033390D02*
X158989286Y-121985771D01*
X158989286Y-121985771D02*
X159227381Y-121985771D01*
X159227381Y-121985771D02*
X159322619Y-122033390D01*
X159322619Y-122033390D02*
X159370238Y-122081009D01*
X159370238Y-122081009D02*
X159417857Y-122176247D01*
X159417857Y-122176247D02*
X159417857Y-122414342D01*
X159417857Y-122414342D02*
X159370238Y-122509580D01*
X159370238Y-122509580D02*
X159322619Y-122557200D01*
X159322619Y-122557200D02*
X159227381Y-122604819D01*
X159227381Y-122604819D02*
X158989286Y-122604819D01*
X158989286Y-122604819D02*
X158894048Y-122557200D01*
X158894048Y-122557200D02*
X158846429Y-122509580D01*
X110611905Y-93504819D02*
X111183333Y-93504819D01*
X110897619Y-94504819D02*
X110897619Y-93504819D01*
X111516667Y-94504819D02*
X111516667Y-93504819D01*
X111516667Y-93504819D02*
X111897619Y-93504819D01*
X111897619Y-93504819D02*
X111992857Y-93552438D01*
X111992857Y-93552438D02*
X112040476Y-93600057D01*
X112040476Y-93600057D02*
X112088095Y-93695295D01*
X112088095Y-93695295D02*
X112088095Y-93838152D01*
X112088095Y-93838152D02*
X112040476Y-93933390D01*
X112040476Y-93933390D02*
X111992857Y-93981009D01*
X111992857Y-93981009D02*
X111897619Y-94028628D01*
X111897619Y-94028628D02*
X111516667Y-94028628D01*
X112469048Y-93600057D02*
X112516667Y-93552438D01*
X112516667Y-93552438D02*
X112611905Y-93504819D01*
X112611905Y-93504819D02*
X112850000Y-93504819D01*
X112850000Y-93504819D02*
X112945238Y-93552438D01*
X112945238Y-93552438D02*
X112992857Y-93600057D01*
X112992857Y-93600057D02*
X113040476Y-93695295D01*
X113040476Y-93695295D02*
X113040476Y-93790533D01*
X113040476Y-93790533D02*
X112992857Y-93933390D01*
X112992857Y-93933390D02*
X112421429Y-94504819D01*
X112421429Y-94504819D02*
X113040476Y-94504819D01*
X113992857Y-94504819D02*
X113421429Y-94504819D01*
X113707143Y-94504819D02*
X113707143Y-93504819D01*
X113707143Y-93504819D02*
X113611905Y-93647676D01*
X113611905Y-93647676D02*
X113516667Y-93742914D01*
X113516667Y-93742914D02*
X113421429Y-93790533D01*
X152161905Y-120354819D02*
X152733333Y-120354819D01*
X152447619Y-121354819D02*
X152447619Y-120354819D01*
X153066667Y-121354819D02*
X153066667Y-120354819D01*
X153066667Y-120354819D02*
X153447619Y-120354819D01*
X153447619Y-120354819D02*
X153542857Y-120402438D01*
X153542857Y-120402438D02*
X153590476Y-120450057D01*
X153590476Y-120450057D02*
X153638095Y-120545295D01*
X153638095Y-120545295D02*
X153638095Y-120688152D01*
X153638095Y-120688152D02*
X153590476Y-120783390D01*
X153590476Y-120783390D02*
X153542857Y-120831009D01*
X153542857Y-120831009D02*
X153447619Y-120878628D01*
X153447619Y-120878628D02*
X153066667Y-120878628D01*
X154590476Y-121354819D02*
X154019048Y-121354819D01*
X154304762Y-121354819D02*
X154304762Y-120354819D01*
X154304762Y-120354819D02*
X154209524Y-120497676D01*
X154209524Y-120497676D02*
X154114286Y-120592914D01*
X154114286Y-120592914D02*
X154019048Y-120640533D01*
X155542857Y-121354819D02*
X154971429Y-121354819D01*
X155257143Y-121354819D02*
X155257143Y-120354819D01*
X155257143Y-120354819D02*
X155161905Y-120497676D01*
X155161905Y-120497676D02*
X155066667Y-120592914D01*
X155066667Y-120592914D02*
X154971429Y-120640533D01*
X161804819Y-78788094D02*
X161804819Y-78216666D01*
X162804819Y-78502380D02*
X161804819Y-78502380D01*
X162804819Y-77883332D02*
X161804819Y-77883332D01*
X161804819Y-77883332D02*
X161804819Y-77502380D01*
X161804819Y-77502380D02*
X161852438Y-77407142D01*
X161852438Y-77407142D02*
X161900057Y-77359523D01*
X161900057Y-77359523D02*
X161995295Y-77311904D01*
X161995295Y-77311904D02*
X162138152Y-77311904D01*
X162138152Y-77311904D02*
X162233390Y-77359523D01*
X162233390Y-77359523D02*
X162281009Y-77407142D01*
X162281009Y-77407142D02*
X162328628Y-77502380D01*
X162328628Y-77502380D02*
X162328628Y-77883332D01*
X162804819Y-76359523D02*
X162804819Y-76930951D01*
X162804819Y-76645237D02*
X161804819Y-76645237D01*
X161804819Y-76645237D02*
X161947676Y-76740475D01*
X161947676Y-76740475D02*
X162042914Y-76835713D01*
X162042914Y-76835713D02*
X162090533Y-76930951D01*
X161804819Y-75740475D02*
X161804819Y-75645237D01*
X161804819Y-75645237D02*
X161852438Y-75549999D01*
X161852438Y-75549999D02*
X161900057Y-75502380D01*
X161900057Y-75502380D02*
X161995295Y-75454761D01*
X161995295Y-75454761D02*
X162185771Y-75407142D01*
X162185771Y-75407142D02*
X162423866Y-75407142D01*
X162423866Y-75407142D02*
X162614342Y-75454761D01*
X162614342Y-75454761D02*
X162709580Y-75502380D01*
X162709580Y-75502380D02*
X162757200Y-75549999D01*
X162757200Y-75549999D02*
X162804819Y-75645237D01*
X162804819Y-75645237D02*
X162804819Y-75740475D01*
X162804819Y-75740475D02*
X162757200Y-75835713D01*
X162757200Y-75835713D02*
X162709580Y-75883332D01*
X162709580Y-75883332D02*
X162614342Y-75930951D01*
X162614342Y-75930951D02*
X162423866Y-75978570D01*
X162423866Y-75978570D02*
X162185771Y-75978570D01*
X162185771Y-75978570D02*
X161995295Y-75930951D01*
X161995295Y-75930951D02*
X161900057Y-75883332D01*
X161900057Y-75883332D02*
X161852438Y-75835713D01*
X161852438Y-75835713D02*
X161804819Y-75740475D01*
X149688095Y-84356819D02*
X150259523Y-84356819D01*
X149973809Y-85356819D02*
X149973809Y-84356819D01*
X150592857Y-85356819D02*
X150592857Y-84356819D01*
X150592857Y-84356819D02*
X150973809Y-84356819D01*
X150973809Y-84356819D02*
X151069047Y-84404438D01*
X151069047Y-84404438D02*
X151116666Y-84452057D01*
X151116666Y-84452057D02*
X151164285Y-84547295D01*
X151164285Y-84547295D02*
X151164285Y-84690152D01*
X151164285Y-84690152D02*
X151116666Y-84785390D01*
X151116666Y-84785390D02*
X151069047Y-84833009D01*
X151069047Y-84833009D02*
X150973809Y-84880628D01*
X150973809Y-84880628D02*
X150592857Y-84880628D01*
X152021428Y-84690152D02*
X152021428Y-85356819D01*
X151783333Y-84309200D02*
X151545238Y-85023485D01*
X151545238Y-85023485D02*
X152164285Y-85023485D01*
X138388095Y-93356819D02*
X138959523Y-93356819D01*
X138673809Y-94356819D02*
X138673809Y-93356819D01*
X139292857Y-94356819D02*
X139292857Y-93356819D01*
X139292857Y-93356819D02*
X139673809Y-93356819D01*
X139673809Y-93356819D02*
X139769047Y-93404438D01*
X139769047Y-93404438D02*
X139816666Y-93452057D01*
X139816666Y-93452057D02*
X139864285Y-93547295D01*
X139864285Y-93547295D02*
X139864285Y-93690152D01*
X139864285Y-93690152D02*
X139816666Y-93785390D01*
X139816666Y-93785390D02*
X139769047Y-93833009D01*
X139769047Y-93833009D02*
X139673809Y-93880628D01*
X139673809Y-93880628D02*
X139292857Y-93880628D01*
X140197619Y-93356819D02*
X140864285Y-93356819D01*
X140864285Y-93356819D02*
X140435714Y-94356819D01*
X142088095Y-106506819D02*
X142659523Y-106506819D01*
X142373809Y-107506819D02*
X142373809Y-106506819D01*
X142992857Y-107506819D02*
X142992857Y-106506819D01*
X142992857Y-106506819D02*
X143373809Y-106506819D01*
X143373809Y-106506819D02*
X143469047Y-106554438D01*
X143469047Y-106554438D02*
X143516666Y-106602057D01*
X143516666Y-106602057D02*
X143564285Y-106697295D01*
X143564285Y-106697295D02*
X143564285Y-106840152D01*
X143564285Y-106840152D02*
X143516666Y-106935390D01*
X143516666Y-106935390D02*
X143469047Y-106983009D01*
X143469047Y-106983009D02*
X143373809Y-107030628D01*
X143373809Y-107030628D02*
X142992857Y-107030628D01*
X144421428Y-106506819D02*
X144230952Y-106506819D01*
X144230952Y-106506819D02*
X144135714Y-106554438D01*
X144135714Y-106554438D02*
X144088095Y-106602057D01*
X144088095Y-106602057D02*
X143992857Y-106744914D01*
X143992857Y-106744914D02*
X143945238Y-106935390D01*
X143945238Y-106935390D02*
X143945238Y-107316342D01*
X143945238Y-107316342D02*
X143992857Y-107411580D01*
X143992857Y-107411580D02*
X144040476Y-107459200D01*
X144040476Y-107459200D02*
X144135714Y-107506819D01*
X144135714Y-107506819D02*
X144326190Y-107506819D01*
X144326190Y-107506819D02*
X144421428Y-107459200D01*
X144421428Y-107459200D02*
X144469047Y-107411580D01*
X144469047Y-107411580D02*
X144516666Y-107316342D01*
X144516666Y-107316342D02*
X144516666Y-107078247D01*
X144516666Y-107078247D02*
X144469047Y-106983009D01*
X144469047Y-106983009D02*
X144421428Y-106935390D01*
X144421428Y-106935390D02*
X144326190Y-106887771D01*
X144326190Y-106887771D02*
X144135714Y-106887771D01*
X144135714Y-106887771D02*
X144040476Y-106935390D01*
X144040476Y-106935390D02*
X143992857Y-106983009D01*
X143992857Y-106983009D02*
X143945238Y-107078247D01*
X111461905Y-83654819D02*
X112033333Y-83654819D01*
X111747619Y-84654819D02*
X111747619Y-83654819D01*
X112366667Y-84654819D02*
X112366667Y-83654819D01*
X112366667Y-83654819D02*
X112747619Y-83654819D01*
X112747619Y-83654819D02*
X112842857Y-83702438D01*
X112842857Y-83702438D02*
X112890476Y-83750057D01*
X112890476Y-83750057D02*
X112938095Y-83845295D01*
X112938095Y-83845295D02*
X112938095Y-83988152D01*
X112938095Y-83988152D02*
X112890476Y-84083390D01*
X112890476Y-84083390D02*
X112842857Y-84131009D01*
X112842857Y-84131009D02*
X112747619Y-84178628D01*
X112747619Y-84178628D02*
X112366667Y-84178628D01*
X113890476Y-84654819D02*
X113319048Y-84654819D01*
X113604762Y-84654819D02*
X113604762Y-83654819D01*
X113604762Y-83654819D02*
X113509524Y-83797676D01*
X113509524Y-83797676D02*
X113414286Y-83892914D01*
X113414286Y-83892914D02*
X113319048Y-83940533D01*
X114223810Y-83654819D02*
X114890476Y-83654819D01*
X114890476Y-83654819D02*
X114461905Y-84654819D01*
X154988095Y-87356819D02*
X155559523Y-87356819D01*
X155273809Y-88356819D02*
X155273809Y-87356819D01*
X155892857Y-88356819D02*
X155892857Y-87356819D01*
X155892857Y-87356819D02*
X156273809Y-87356819D01*
X156273809Y-87356819D02*
X156369047Y-87404438D01*
X156369047Y-87404438D02*
X156416666Y-87452057D01*
X156416666Y-87452057D02*
X156464285Y-87547295D01*
X156464285Y-87547295D02*
X156464285Y-87690152D01*
X156464285Y-87690152D02*
X156416666Y-87785390D01*
X156416666Y-87785390D02*
X156369047Y-87833009D01*
X156369047Y-87833009D02*
X156273809Y-87880628D01*
X156273809Y-87880628D02*
X155892857Y-87880628D01*
X156797619Y-87356819D02*
X157416666Y-87356819D01*
X157416666Y-87356819D02*
X157083333Y-87737771D01*
X157083333Y-87737771D02*
X157226190Y-87737771D01*
X157226190Y-87737771D02*
X157321428Y-87785390D01*
X157321428Y-87785390D02*
X157369047Y-87833009D01*
X157369047Y-87833009D02*
X157416666Y-87928247D01*
X157416666Y-87928247D02*
X157416666Y-88166342D01*
X157416666Y-88166342D02*
X157369047Y-88261580D01*
X157369047Y-88261580D02*
X157321428Y-88309200D01*
X157321428Y-88309200D02*
X157226190Y-88356819D01*
X157226190Y-88356819D02*
X156940476Y-88356819D01*
X156940476Y-88356819D02*
X156845238Y-88309200D01*
X156845238Y-88309200D02*
X156797619Y-88261580D01*
X156911905Y-83106819D02*
X157483333Y-83106819D01*
X157197619Y-84106819D02*
X157197619Y-83106819D01*
X157816667Y-84106819D02*
X157816667Y-83106819D01*
X157816667Y-83106819D02*
X158197619Y-83106819D01*
X158197619Y-83106819D02*
X158292857Y-83154438D01*
X158292857Y-83154438D02*
X158340476Y-83202057D01*
X158340476Y-83202057D02*
X158388095Y-83297295D01*
X158388095Y-83297295D02*
X158388095Y-83440152D01*
X158388095Y-83440152D02*
X158340476Y-83535390D01*
X158340476Y-83535390D02*
X158292857Y-83583009D01*
X158292857Y-83583009D02*
X158197619Y-83630628D01*
X158197619Y-83630628D02*
X157816667Y-83630628D01*
X159340476Y-84106819D02*
X158769048Y-84106819D01*
X159054762Y-84106819D02*
X159054762Y-83106819D01*
X159054762Y-83106819D02*
X158959524Y-83249676D01*
X158959524Y-83249676D02*
X158864286Y-83344914D01*
X158864286Y-83344914D02*
X158769048Y-83392533D01*
X159721429Y-83202057D02*
X159769048Y-83154438D01*
X159769048Y-83154438D02*
X159864286Y-83106819D01*
X159864286Y-83106819D02*
X160102381Y-83106819D01*
X160102381Y-83106819D02*
X160197619Y-83154438D01*
X160197619Y-83154438D02*
X160245238Y-83202057D01*
X160245238Y-83202057D02*
X160292857Y-83297295D01*
X160292857Y-83297295D02*
X160292857Y-83392533D01*
X160292857Y-83392533D02*
X160245238Y-83535390D01*
X160245238Y-83535390D02*
X159673810Y-84106819D01*
X159673810Y-84106819D02*
X160292857Y-84106819D01*
D11*
X125861905Y-110954299D02*
X126433333Y-110954299D01*
X126147619Y-111954299D02*
X126147619Y-110954299D01*
X126766667Y-111954299D02*
X126766667Y-110954299D01*
X126766667Y-110954299D02*
X127147619Y-110954299D01*
X127147619Y-110954299D02*
X127242857Y-111001918D01*
X127242857Y-111001918D02*
X127290476Y-111049537D01*
X127290476Y-111049537D02*
X127338095Y-111144775D01*
X127338095Y-111144775D02*
X127338095Y-111287632D01*
X127338095Y-111287632D02*
X127290476Y-111382870D01*
X127290476Y-111382870D02*
X127242857Y-111430489D01*
X127242857Y-111430489D02*
X127147619Y-111478108D01*
X127147619Y-111478108D02*
X126766667Y-111478108D01*
X128290476Y-111954299D02*
X127719048Y-111954299D01*
X128004762Y-111954299D02*
X128004762Y-110954299D01*
X128004762Y-110954299D02*
X127909524Y-111097156D01*
X127909524Y-111097156D02*
X127814286Y-111192394D01*
X127814286Y-111192394D02*
X127719048Y-111240013D01*
X129147619Y-111287632D02*
X129147619Y-111954299D01*
X128909524Y-110906680D02*
X128671429Y-111620965D01*
X128671429Y-111620965D02*
X129290476Y-111620965D01*
D10*
X189595238Y-103431009D02*
X189738095Y-103478628D01*
X189738095Y-103478628D02*
X189785714Y-103526247D01*
X189785714Y-103526247D02*
X189833333Y-103621485D01*
X189833333Y-103621485D02*
X189833333Y-103764342D01*
X189833333Y-103764342D02*
X189785714Y-103859580D01*
X189785714Y-103859580D02*
X189738095Y-103907200D01*
X189738095Y-103907200D02*
X189642857Y-103954819D01*
X189642857Y-103954819D02*
X189261905Y-103954819D01*
X189261905Y-103954819D02*
X189261905Y-102954819D01*
X189261905Y-102954819D02*
X189595238Y-102954819D01*
X189595238Y-102954819D02*
X189690476Y-103002438D01*
X189690476Y-103002438D02*
X189738095Y-103050057D01*
X189738095Y-103050057D02*
X189785714Y-103145295D01*
X189785714Y-103145295D02*
X189785714Y-103240533D01*
X189785714Y-103240533D02*
X189738095Y-103335771D01*
X189738095Y-103335771D02*
X189690476Y-103383390D01*
X189690476Y-103383390D02*
X189595238Y-103431009D01*
X189595238Y-103431009D02*
X189261905Y-103431009D01*
X190785714Y-103954819D02*
X190214286Y-103954819D01*
X190500000Y-103954819D02*
X190500000Y-102954819D01*
X190500000Y-102954819D02*
X190404762Y-103097676D01*
X190404762Y-103097676D02*
X190309524Y-103192914D01*
X190309524Y-103192914D02*
X190214286Y-103240533D01*
X187511905Y-83304819D02*
X188083333Y-83304819D01*
X187797619Y-84304819D02*
X187797619Y-83304819D01*
X188416667Y-84304819D02*
X188416667Y-83304819D01*
X188416667Y-83304819D02*
X188797619Y-83304819D01*
X188797619Y-83304819D02*
X188892857Y-83352438D01*
X188892857Y-83352438D02*
X188940476Y-83400057D01*
X188940476Y-83400057D02*
X188988095Y-83495295D01*
X188988095Y-83495295D02*
X188988095Y-83638152D01*
X188988095Y-83638152D02*
X188940476Y-83733390D01*
X188940476Y-83733390D02*
X188892857Y-83781009D01*
X188892857Y-83781009D02*
X188797619Y-83828628D01*
X188797619Y-83828628D02*
X188416667Y-83828628D01*
X189940476Y-84304819D02*
X189369048Y-84304819D01*
X189654762Y-84304819D02*
X189654762Y-83304819D01*
X189654762Y-83304819D02*
X189559524Y-83447676D01*
X189559524Y-83447676D02*
X189464286Y-83542914D01*
X189464286Y-83542914D02*
X189369048Y-83590533D01*
X190416667Y-84304819D02*
X190607143Y-84304819D01*
X190607143Y-84304819D02*
X190702381Y-84257200D01*
X190702381Y-84257200D02*
X190750000Y-84209580D01*
X190750000Y-84209580D02*
X190845238Y-84066723D01*
X190845238Y-84066723D02*
X190892857Y-83876247D01*
X190892857Y-83876247D02*
X190892857Y-83495295D01*
X190892857Y-83495295D02*
X190845238Y-83400057D01*
X190845238Y-83400057D02*
X190797619Y-83352438D01*
X190797619Y-83352438D02*
X190702381Y-83304819D01*
X190702381Y-83304819D02*
X190511905Y-83304819D01*
X190511905Y-83304819D02*
X190416667Y-83352438D01*
X190416667Y-83352438D02*
X190369048Y-83400057D01*
X190369048Y-83400057D02*
X190321429Y-83495295D01*
X190321429Y-83495295D02*
X190321429Y-83733390D01*
X190321429Y-83733390D02*
X190369048Y-83828628D01*
X190369048Y-83828628D02*
X190416667Y-83876247D01*
X190416667Y-83876247D02*
X190511905Y-83923866D01*
X190511905Y-83923866D02*
X190702381Y-83923866D01*
X190702381Y-83923866D02*
X190797619Y-83876247D01*
X190797619Y-83876247D02*
X190845238Y-83828628D01*
X190845238Y-83828628D02*
X190892857Y-83733390D01*
X114211905Y-91806819D02*
X114783333Y-91806819D01*
X114497619Y-92806819D02*
X114497619Y-91806819D01*
X115116667Y-92806819D02*
X115116667Y-91806819D01*
X115116667Y-91806819D02*
X115497619Y-91806819D01*
X115497619Y-91806819D02*
X115592857Y-91854438D01*
X115592857Y-91854438D02*
X115640476Y-91902057D01*
X115640476Y-91902057D02*
X115688095Y-91997295D01*
X115688095Y-91997295D02*
X115688095Y-92140152D01*
X115688095Y-92140152D02*
X115640476Y-92235390D01*
X115640476Y-92235390D02*
X115592857Y-92283009D01*
X115592857Y-92283009D02*
X115497619Y-92330628D01*
X115497619Y-92330628D02*
X115116667Y-92330628D01*
X116069048Y-91902057D02*
X116116667Y-91854438D01*
X116116667Y-91854438D02*
X116211905Y-91806819D01*
X116211905Y-91806819D02*
X116450000Y-91806819D01*
X116450000Y-91806819D02*
X116545238Y-91854438D01*
X116545238Y-91854438D02*
X116592857Y-91902057D01*
X116592857Y-91902057D02*
X116640476Y-91997295D01*
X116640476Y-91997295D02*
X116640476Y-92092533D01*
X116640476Y-92092533D02*
X116592857Y-92235390D01*
X116592857Y-92235390D02*
X116021429Y-92806819D01*
X116021429Y-92806819D02*
X116640476Y-92806819D01*
X117259524Y-91806819D02*
X117354762Y-91806819D01*
X117354762Y-91806819D02*
X117450000Y-91854438D01*
X117450000Y-91854438D02*
X117497619Y-91902057D01*
X117497619Y-91902057D02*
X117545238Y-91997295D01*
X117545238Y-91997295D02*
X117592857Y-92187771D01*
X117592857Y-92187771D02*
X117592857Y-92425866D01*
X117592857Y-92425866D02*
X117545238Y-92616342D01*
X117545238Y-92616342D02*
X117497619Y-92711580D01*
X117497619Y-92711580D02*
X117450000Y-92759200D01*
X117450000Y-92759200D02*
X117354762Y-92806819D01*
X117354762Y-92806819D02*
X117259524Y-92806819D01*
X117259524Y-92806819D02*
X117164286Y-92759200D01*
X117164286Y-92759200D02*
X117116667Y-92711580D01*
X117116667Y-92711580D02*
X117069048Y-92616342D01*
X117069048Y-92616342D02*
X117021429Y-92425866D01*
X117021429Y-92425866D02*
X117021429Y-92187771D01*
X117021429Y-92187771D02*
X117069048Y-91997295D01*
X117069048Y-91997295D02*
X117116667Y-91902057D01*
X117116667Y-91902057D02*
X117164286Y-91854438D01*
X117164286Y-91854438D02*
X117259524Y-91806819D01*
X134188095Y-103156819D02*
X134759523Y-103156819D01*
X134473809Y-104156819D02*
X134473809Y-103156819D01*
X135092857Y-104156819D02*
X135092857Y-103156819D01*
X135092857Y-103156819D02*
X135473809Y-103156819D01*
X135473809Y-103156819D02*
X135569047Y-103204438D01*
X135569047Y-103204438D02*
X135616666Y-103252057D01*
X135616666Y-103252057D02*
X135664285Y-103347295D01*
X135664285Y-103347295D02*
X135664285Y-103490152D01*
X135664285Y-103490152D02*
X135616666Y-103585390D01*
X135616666Y-103585390D02*
X135569047Y-103633009D01*
X135569047Y-103633009D02*
X135473809Y-103680628D01*
X135473809Y-103680628D02*
X135092857Y-103680628D01*
X136235714Y-103585390D02*
X136140476Y-103537771D01*
X136140476Y-103537771D02*
X136092857Y-103490152D01*
X136092857Y-103490152D02*
X136045238Y-103394914D01*
X136045238Y-103394914D02*
X136045238Y-103347295D01*
X136045238Y-103347295D02*
X136092857Y-103252057D01*
X136092857Y-103252057D02*
X136140476Y-103204438D01*
X136140476Y-103204438D02*
X136235714Y-103156819D01*
X136235714Y-103156819D02*
X136426190Y-103156819D01*
X136426190Y-103156819D02*
X136521428Y-103204438D01*
X136521428Y-103204438D02*
X136569047Y-103252057D01*
X136569047Y-103252057D02*
X136616666Y-103347295D01*
X136616666Y-103347295D02*
X136616666Y-103394914D01*
X136616666Y-103394914D02*
X136569047Y-103490152D01*
X136569047Y-103490152D02*
X136521428Y-103537771D01*
X136521428Y-103537771D02*
X136426190Y-103585390D01*
X136426190Y-103585390D02*
X136235714Y-103585390D01*
X136235714Y-103585390D02*
X136140476Y-103633009D01*
X136140476Y-103633009D02*
X136092857Y-103680628D01*
X136092857Y-103680628D02*
X136045238Y-103775866D01*
X136045238Y-103775866D02*
X136045238Y-103966342D01*
X136045238Y-103966342D02*
X136092857Y-104061580D01*
X136092857Y-104061580D02*
X136140476Y-104109200D01*
X136140476Y-104109200D02*
X136235714Y-104156819D01*
X136235714Y-104156819D02*
X136426190Y-104156819D01*
X136426190Y-104156819D02*
X136521428Y-104109200D01*
X136521428Y-104109200D02*
X136569047Y-104061580D01*
X136569047Y-104061580D02*
X136616666Y-103966342D01*
X136616666Y-103966342D02*
X136616666Y-103775866D01*
X136616666Y-103775866D02*
X136569047Y-103680628D01*
X136569047Y-103680628D02*
X136521428Y-103633009D01*
X136521428Y-103633009D02*
X136426190Y-103585390D01*
X120838095Y-76504819D02*
X121409523Y-76504819D01*
X121123809Y-77504819D02*
X121123809Y-76504819D01*
X121742857Y-77504819D02*
X121742857Y-76504819D01*
X121742857Y-76504819D02*
X122123809Y-76504819D01*
X122123809Y-76504819D02*
X122219047Y-76552438D01*
X122219047Y-76552438D02*
X122266666Y-76600057D01*
X122266666Y-76600057D02*
X122314285Y-76695295D01*
X122314285Y-76695295D02*
X122314285Y-76838152D01*
X122314285Y-76838152D02*
X122266666Y-76933390D01*
X122266666Y-76933390D02*
X122219047Y-76981009D01*
X122219047Y-76981009D02*
X122123809Y-77028628D01*
X122123809Y-77028628D02*
X121742857Y-77028628D01*
X122695238Y-76600057D02*
X122742857Y-76552438D01*
X122742857Y-76552438D02*
X122838095Y-76504819D01*
X122838095Y-76504819D02*
X123076190Y-76504819D01*
X123076190Y-76504819D02*
X123171428Y-76552438D01*
X123171428Y-76552438D02*
X123219047Y-76600057D01*
X123219047Y-76600057D02*
X123266666Y-76695295D01*
X123266666Y-76695295D02*
X123266666Y-76790533D01*
X123266666Y-76790533D02*
X123219047Y-76933390D01*
X123219047Y-76933390D02*
X122647619Y-77504819D01*
X122647619Y-77504819D02*
X123266666Y-77504819D01*
X148838095Y-120454819D02*
X149409523Y-120454819D01*
X149123809Y-121454819D02*
X149123809Y-120454819D01*
X149742857Y-121454819D02*
X149742857Y-120454819D01*
X149742857Y-120454819D02*
X150123809Y-120454819D01*
X150123809Y-120454819D02*
X150219047Y-120502438D01*
X150219047Y-120502438D02*
X150266666Y-120550057D01*
X150266666Y-120550057D02*
X150314285Y-120645295D01*
X150314285Y-120645295D02*
X150314285Y-120788152D01*
X150314285Y-120788152D02*
X150266666Y-120883390D01*
X150266666Y-120883390D02*
X150219047Y-120931009D01*
X150219047Y-120931009D02*
X150123809Y-120978628D01*
X150123809Y-120978628D02*
X149742857Y-120978628D01*
X150790476Y-121454819D02*
X150980952Y-121454819D01*
X150980952Y-121454819D02*
X151076190Y-121407200D01*
X151076190Y-121407200D02*
X151123809Y-121359580D01*
X151123809Y-121359580D02*
X151219047Y-121216723D01*
X151219047Y-121216723D02*
X151266666Y-121026247D01*
X151266666Y-121026247D02*
X151266666Y-120645295D01*
X151266666Y-120645295D02*
X151219047Y-120550057D01*
X151219047Y-120550057D02*
X151171428Y-120502438D01*
X151171428Y-120502438D02*
X151076190Y-120454819D01*
X151076190Y-120454819D02*
X150885714Y-120454819D01*
X150885714Y-120454819D02*
X150790476Y-120502438D01*
X150790476Y-120502438D02*
X150742857Y-120550057D01*
X150742857Y-120550057D02*
X150695238Y-120645295D01*
X150695238Y-120645295D02*
X150695238Y-120883390D01*
X150695238Y-120883390D02*
X150742857Y-120978628D01*
X150742857Y-120978628D02*
X150790476Y-121026247D01*
X150790476Y-121026247D02*
X150885714Y-121073866D01*
X150885714Y-121073866D02*
X151076190Y-121073866D01*
X151076190Y-121073866D02*
X151171428Y-121026247D01*
X151171428Y-121026247D02*
X151219047Y-120978628D01*
X151219047Y-120978628D02*
X151266666Y-120883390D01*
X120423530Y-104785369D02*
X119851110Y-105357789D01*
X119851110Y-105357789D02*
X119817438Y-105458804D01*
X119817438Y-105458804D02*
X119817438Y-105526148D01*
X119817438Y-105526148D02*
X119851110Y-105627163D01*
X119851110Y-105627163D02*
X119985797Y-105761850D01*
X119985797Y-105761850D02*
X120086812Y-105795522D01*
X120086812Y-105795522D02*
X120154156Y-105795522D01*
X120154156Y-105795522D02*
X120255171Y-105761850D01*
X120255171Y-105761850D02*
X120827591Y-105189430D01*
X121096965Y-105458804D02*
X121534697Y-105896537D01*
X121534697Y-105896537D02*
X121029621Y-105930209D01*
X121029621Y-105930209D02*
X121130636Y-106031224D01*
X121130636Y-106031224D02*
X121164308Y-106132239D01*
X121164308Y-106132239D02*
X121164308Y-106199583D01*
X121164308Y-106199583D02*
X121130636Y-106300598D01*
X121130636Y-106300598D02*
X120962278Y-106468957D01*
X120962278Y-106468957D02*
X120861262Y-106502629D01*
X120861262Y-106502629D02*
X120793919Y-106502629D01*
X120793919Y-106502629D02*
X120692904Y-106468957D01*
X120692904Y-106468957D02*
X120490873Y-106266926D01*
X120490873Y-106266926D02*
X120457201Y-106165911D01*
X120457201Y-106165911D02*
X120457201Y-106098568D01*
X129461905Y-107056819D02*
X130033333Y-107056819D01*
X129747619Y-108056819D02*
X129747619Y-107056819D01*
X130366667Y-108056819D02*
X130366667Y-107056819D01*
X130366667Y-107056819D02*
X130747619Y-107056819D01*
X130747619Y-107056819D02*
X130842857Y-107104438D01*
X130842857Y-107104438D02*
X130890476Y-107152057D01*
X130890476Y-107152057D02*
X130938095Y-107247295D01*
X130938095Y-107247295D02*
X130938095Y-107390152D01*
X130938095Y-107390152D02*
X130890476Y-107485390D01*
X130890476Y-107485390D02*
X130842857Y-107533009D01*
X130842857Y-107533009D02*
X130747619Y-107580628D01*
X130747619Y-107580628D02*
X130366667Y-107580628D01*
X131319048Y-107152057D02*
X131366667Y-107104438D01*
X131366667Y-107104438D02*
X131461905Y-107056819D01*
X131461905Y-107056819D02*
X131700000Y-107056819D01*
X131700000Y-107056819D02*
X131795238Y-107104438D01*
X131795238Y-107104438D02*
X131842857Y-107152057D01*
X131842857Y-107152057D02*
X131890476Y-107247295D01*
X131890476Y-107247295D02*
X131890476Y-107342533D01*
X131890476Y-107342533D02*
X131842857Y-107485390D01*
X131842857Y-107485390D02*
X131271429Y-108056819D01*
X131271429Y-108056819D02*
X131890476Y-108056819D01*
X132223810Y-107056819D02*
X132842857Y-107056819D01*
X132842857Y-107056819D02*
X132509524Y-107437771D01*
X132509524Y-107437771D02*
X132652381Y-107437771D01*
X132652381Y-107437771D02*
X132747619Y-107485390D01*
X132747619Y-107485390D02*
X132795238Y-107533009D01*
X132795238Y-107533009D02*
X132842857Y-107628247D01*
X132842857Y-107628247D02*
X132842857Y-107866342D01*
X132842857Y-107866342D02*
X132795238Y-107961580D01*
X132795238Y-107961580D02*
X132747619Y-108009200D01*
X132747619Y-108009200D02*
X132652381Y-108056819D01*
X132652381Y-108056819D02*
X132366667Y-108056819D01*
X132366667Y-108056819D02*
X132271429Y-108009200D01*
X132271429Y-108009200D02*
X132223810Y-107961580D01*
X106097619Y-80207200D02*
X106240476Y-80254819D01*
X106240476Y-80254819D02*
X106478571Y-80254819D01*
X106478571Y-80254819D02*
X106573809Y-80207200D01*
X106573809Y-80207200D02*
X106621428Y-80159580D01*
X106621428Y-80159580D02*
X106669047Y-80064342D01*
X106669047Y-80064342D02*
X106669047Y-79969104D01*
X106669047Y-79969104D02*
X106621428Y-79873866D01*
X106621428Y-79873866D02*
X106573809Y-79826247D01*
X106573809Y-79826247D02*
X106478571Y-79778628D01*
X106478571Y-79778628D02*
X106288095Y-79731009D01*
X106288095Y-79731009D02*
X106192857Y-79683390D01*
X106192857Y-79683390D02*
X106145238Y-79635771D01*
X106145238Y-79635771D02*
X106097619Y-79540533D01*
X106097619Y-79540533D02*
X106097619Y-79445295D01*
X106097619Y-79445295D02*
X106145238Y-79350057D01*
X106145238Y-79350057D02*
X106192857Y-79302438D01*
X106192857Y-79302438D02*
X106288095Y-79254819D01*
X106288095Y-79254819D02*
X106526190Y-79254819D01*
X106526190Y-79254819D02*
X106669047Y-79302438D01*
X107097619Y-79731009D02*
X107430952Y-79731009D01*
X107573809Y-80254819D02*
X107097619Y-80254819D01*
X107097619Y-80254819D02*
X107097619Y-79254819D01*
X107097619Y-79254819D02*
X107573809Y-79254819D01*
X108478571Y-80254819D02*
X108002381Y-80254819D01*
X108002381Y-80254819D02*
X108002381Y-79254819D01*
X108811905Y-79731009D02*
X109145238Y-79731009D01*
X109288095Y-80254819D02*
X108811905Y-80254819D01*
X108811905Y-80254819D02*
X108811905Y-79254819D01*
X108811905Y-79254819D02*
X109288095Y-79254819D01*
X110288095Y-80159580D02*
X110240476Y-80207200D01*
X110240476Y-80207200D02*
X110097619Y-80254819D01*
X110097619Y-80254819D02*
X110002381Y-80254819D01*
X110002381Y-80254819D02*
X109859524Y-80207200D01*
X109859524Y-80207200D02*
X109764286Y-80111961D01*
X109764286Y-80111961D02*
X109716667Y-80016723D01*
X109716667Y-80016723D02*
X109669048Y-79826247D01*
X109669048Y-79826247D02*
X109669048Y-79683390D01*
X109669048Y-79683390D02*
X109716667Y-79492914D01*
X109716667Y-79492914D02*
X109764286Y-79397676D01*
X109764286Y-79397676D02*
X109859524Y-79302438D01*
X109859524Y-79302438D02*
X110002381Y-79254819D01*
X110002381Y-79254819D02*
X110097619Y-79254819D01*
X110097619Y-79254819D02*
X110240476Y-79302438D01*
X110240476Y-79302438D02*
X110288095Y-79350057D01*
X110573810Y-79254819D02*
X111145238Y-79254819D01*
X110859524Y-80254819D02*
X110859524Y-79254819D01*
X112002381Y-80254819D02*
X111430953Y-80254819D01*
X111716667Y-80254819D02*
X111716667Y-79254819D01*
X111716667Y-79254819D02*
X111621429Y-79397676D01*
X111621429Y-79397676D02*
X111526191Y-79492914D01*
X111526191Y-79492914D02*
X111430953Y-79540533D01*
X147763095Y-74656819D02*
X148334523Y-74656819D01*
X148048809Y-75656819D02*
X148048809Y-74656819D01*
X148667857Y-75656819D02*
X148667857Y-74656819D01*
X148667857Y-74656819D02*
X149048809Y-74656819D01*
X149048809Y-74656819D02*
X149144047Y-74704438D01*
X149144047Y-74704438D02*
X149191666Y-74752057D01*
X149191666Y-74752057D02*
X149239285Y-74847295D01*
X149239285Y-74847295D02*
X149239285Y-74990152D01*
X149239285Y-74990152D02*
X149191666Y-75085390D01*
X149191666Y-75085390D02*
X149144047Y-75133009D01*
X149144047Y-75133009D02*
X149048809Y-75180628D01*
X149048809Y-75180628D02*
X148667857Y-75180628D01*
X150191666Y-75656819D02*
X149620238Y-75656819D01*
X149905952Y-75656819D02*
X149905952Y-74656819D01*
X149905952Y-74656819D02*
X149810714Y-74799676D01*
X149810714Y-74799676D02*
X149715476Y-74894914D01*
X149715476Y-74894914D02*
X149620238Y-74942533D01*
D12*
%TO.C,J5*%
X175035050Y-80342050D02*
G75*
G02*
X174273050Y-80342050I-381000J0D01*
G01*
X174273050Y-80342050D02*
G75*
G02*
X175035050Y-80342050I381000J0D01*
G01*
D13*
%TO.C,TP22*%
X112600000Y-98350000D02*
G75*
G02*
X110200000Y-98350000I-1200000J0D01*
G01*
X110200000Y-98350000D02*
G75*
G02*
X112600000Y-98350000I1200000J0D01*
G01*
%TO.C,TP29*%
X191150000Y-99600000D02*
G75*
G02*
X188750000Y-99600000I-1200000J0D01*
G01*
X188750000Y-99600000D02*
G75*
G02*
X191150000Y-99600000I1200000J0D01*
G01*
%TO.C,START1*%
X189120000Y-72320000D02*
X195580000Y-72320000D01*
X189120000Y-72350000D02*
X189120000Y-72320000D01*
X189120000Y-74250000D02*
X189120000Y-76850000D01*
X189120000Y-78780000D02*
X189120000Y-78750000D01*
X189120000Y-78780000D02*
X195580000Y-78780000D01*
X195580000Y-72320000D02*
X195580000Y-72350000D01*
X195580000Y-74250000D02*
X195580000Y-76850000D01*
X195580000Y-78780000D02*
X195580000Y-78750000D01*
%TO.C,A1*%
X193570000Y-94970000D02*
X193600000Y-94970000D01*
X193570000Y-101430000D02*
X193570000Y-94970000D01*
X193600000Y-101430000D02*
X193570000Y-101430000D01*
X195500000Y-94970000D02*
X198100000Y-94970000D01*
X195500000Y-101430000D02*
X198100000Y-101430000D01*
X200030000Y-94970000D02*
X200000000Y-94970000D01*
X200030000Y-101430000D02*
X200000000Y-101430000D01*
X200030000Y-101430000D02*
X200030000Y-94970000D01*
%TO.C,TP24*%
X183850000Y-95100000D02*
G75*
G02*
X181450000Y-95100000I-1200000J0D01*
G01*
X181450000Y-95100000D02*
G75*
G02*
X183850000Y-95100000I1200000J0D01*
G01*
%TO.C,D3*%
X148850000Y-126150000D02*
X154750000Y-126150000D01*
X148850000Y-130050000D02*
X154750000Y-130050000D01*
X154750000Y-130050000D02*
X154750000Y-128975000D01*
%TO.C,TP5*%
X141400000Y-107100000D02*
G75*
G02*
X139000000Y-107100000I-1200000J0D01*
G01*
X139000000Y-107100000D02*
G75*
G02*
X141400000Y-107100000I1200000J0D01*
G01*
%TO.C,J4*%
X184970000Y-86740000D02*
X186350000Y-86740000D01*
X184970000Y-88120000D02*
X184970000Y-86740000D01*
X184970000Y-89390000D02*
X184970000Y-125060000D01*
X184970000Y-89390000D02*
X187730000Y-89390000D01*
X184970000Y-125060000D02*
X187730000Y-125060000D01*
X187730000Y-89390000D02*
X187730000Y-125060000D01*
%TO.C,D5*%
X132900000Y-126125000D02*
X138800000Y-126125000D01*
X132900000Y-130025000D02*
X138800000Y-130025000D01*
X138800000Y-130025000D02*
X138800000Y-128950000D01*
%TO.C,TP13*%
X199450000Y-104900000D02*
G75*
G02*
X197050000Y-104900000I-1200000J0D01*
G01*
X197050000Y-104900000D02*
G75*
G02*
X199450000Y-104900000I1200000J0D01*
G01*
%TO.C,TP18*%
X178200000Y-108600000D02*
G75*
G02*
X175800000Y-108600000I-1200000J0D01*
G01*
X175800000Y-108600000D02*
G75*
G02*
X178200000Y-108600000I1200000J0D01*
G01*
%TO.C,TP16*%
X173300000Y-126650000D02*
G75*
G02*
X170900000Y-126650000I-1200000J0D01*
G01*
X170900000Y-126650000D02*
G75*
G02*
X173300000Y-126650000I1200000J0D01*
G01*
D14*
%TO.C,H5*%
X106814800Y-118432741D02*
X106814800Y-127567261D01*
X106814800Y-127567261D02*
X106815213Y-127583600D01*
X106815191Y-118416992D02*
X106814800Y-118432741D01*
X106815213Y-127583600D02*
X106816439Y-127599725D01*
X106816355Y-118401350D02*
X106815191Y-118416992D01*
X106816439Y-127599725D02*
X106818459Y-127615616D01*
X106818282Y-118385841D02*
X106816355Y-118401350D01*
X106818459Y-127615616D02*
X106821251Y-127631252D01*
X106820961Y-118370492D02*
X106818282Y-118385841D01*
X106821251Y-127631252D02*
X106824796Y-127646614D01*
X106824381Y-118355327D02*
X106820961Y-118370492D01*
X106824796Y-127646614D02*
X106829075Y-127661681D01*
X106828532Y-118340373D02*
X106824381Y-118355327D01*
X106829075Y-127661681D02*
X106834067Y-127676434D01*
X106833402Y-118325657D02*
X106828532Y-118340373D01*
X106834067Y-127676434D02*
X106839752Y-127690853D01*
X106838981Y-118311204D02*
X106833402Y-118325657D01*
X106839752Y-127690853D02*
X106846111Y-127704918D01*
X106845259Y-118297040D02*
X106838981Y-118311204D01*
X106846111Y-127704918D02*
X106853123Y-127718609D01*
X106852224Y-118283191D02*
X106845259Y-118297040D01*
X106853123Y-127718609D02*
X106860768Y-127731906D01*
X106859865Y-118269683D02*
X106852224Y-118283191D01*
X106860768Y-127731906D02*
X106869027Y-127744789D01*
X106868172Y-118256543D02*
X106859865Y-118269683D01*
X106869027Y-127744789D02*
X106877880Y-127757238D01*
X106877134Y-118243797D02*
X106868172Y-118256543D01*
X106877880Y-127757238D02*
X106887306Y-127769232D01*
X106886740Y-118231470D02*
X106877134Y-118243797D01*
X106887306Y-127769232D02*
X106897286Y-127780754D01*
X106896980Y-118219588D02*
X106886740Y-118231470D01*
X106897286Y-127780754D02*
X106907799Y-127791781D01*
X106907799Y-127791781D02*
X106918827Y-127802294D01*
X106907842Y-118208178D02*
X106896980Y-118219588D01*
X106918827Y-127802294D02*
X106930348Y-127812274D01*
X106919256Y-118197320D02*
X106907842Y-118208178D01*
X106930348Y-127812274D02*
X106942343Y-127821700D01*
X106931142Y-118187085D02*
X106919256Y-118197320D01*
X106942343Y-127821700D02*
X106954791Y-127830553D01*
X106943472Y-118177484D02*
X106931142Y-118187085D01*
X106954791Y-127830553D02*
X106967674Y-127838812D01*
X106956222Y-118168526D02*
X106943472Y-118177484D01*
X106967674Y-127838812D02*
X106980971Y-127846457D01*
X106969365Y-118160224D02*
X106956222Y-118168526D01*
X106980971Y-127846457D02*
X106994662Y-127853469D01*
X106982876Y-118152588D02*
X106969365Y-118160224D01*
X106994662Y-127853469D02*
X107008727Y-127859828D01*
X106996727Y-118145628D02*
X106982876Y-118152588D01*
X107008727Y-127859828D02*
X107023146Y-127865513D01*
X107010894Y-118139356D02*
X106996727Y-118145628D01*
X107023146Y-127865513D02*
X107037899Y-127870505D01*
X107025349Y-118133782D02*
X107010894Y-118139356D01*
X107037899Y-127870505D02*
X107052967Y-127874784D01*
X107040067Y-118128917D02*
X107025349Y-118133782D01*
X107052967Y-127874784D02*
X107068328Y-127878329D01*
X107055022Y-118124772D02*
X107040067Y-118128917D01*
X107068328Y-127878329D02*
X107083965Y-127881122D01*
X107070188Y-118121358D02*
X107055022Y-118124772D01*
X107083965Y-127881122D02*
X107099855Y-127883141D01*
X107085539Y-118118685D02*
X107070188Y-118121358D01*
X107099855Y-127883141D02*
X107115980Y-127884367D01*
X107101049Y-118116763D02*
X107085539Y-118118685D01*
X107115980Y-127884367D02*
X107132320Y-127884780D01*
X107116691Y-118115605D02*
X107101049Y-118116763D01*
X107132320Y-127884780D02*
X116266840Y-127884780D01*
X107132440Y-118115221D02*
X107116691Y-118115605D01*
X116266840Y-118115221D02*
X107132440Y-118115221D01*
X116266840Y-127884780D02*
X116283179Y-127884367D01*
X116282585Y-118115611D02*
X116266840Y-118115221D01*
X116283179Y-127884367D02*
X116299304Y-127883141D01*
X116298223Y-118116775D02*
X116282585Y-118115611D01*
X116299304Y-127883141D02*
X116315195Y-127881122D01*
X116313728Y-118118701D02*
X116298223Y-118116775D01*
X116315195Y-127881122D02*
X116330831Y-127878329D01*
X116329074Y-118121378D02*
X116313728Y-118118701D01*
X116330831Y-127878329D02*
X116346193Y-127874784D01*
X116344235Y-118124797D02*
X116329074Y-118121378D01*
X116346193Y-127874784D02*
X116361260Y-127870505D01*
X116359186Y-118128946D02*
X116344235Y-118124797D01*
X116361260Y-127870505D02*
X116376013Y-127865513D01*
X116373899Y-118133814D02*
X116359186Y-118128946D01*
X116376013Y-127865513D02*
X116390433Y-127859828D01*
X116388349Y-118139391D02*
X116373899Y-118133814D01*
X116390433Y-127859828D02*
X116404497Y-127853469D01*
X116402510Y-118145665D02*
X116388349Y-118139391D01*
X116404497Y-127853469D02*
X116418188Y-127846457D01*
X116416357Y-118152627D02*
X116402510Y-118145665D01*
X116418188Y-127846457D02*
X116431485Y-127838812D01*
X116429862Y-118160264D02*
X116416357Y-118152627D01*
X116431485Y-127838812D02*
X116444368Y-127830553D01*
X116443000Y-118168568D02*
X116429862Y-118160264D01*
X116444368Y-127830553D02*
X116456817Y-127821701D01*
X116455744Y-118177526D02*
X116443000Y-118168568D01*
X116456817Y-127821701D02*
X116468812Y-127812274D01*
X116468070Y-118187128D02*
X116455744Y-118177526D01*
X116468812Y-127812274D02*
X116480333Y-127802295D01*
X116479951Y-118197363D02*
X116468070Y-118187128D01*
X116480333Y-127802295D02*
X116491360Y-127791781D01*
X116491360Y-118208220D02*
X116479951Y-118197363D01*
X116491360Y-127791781D02*
X116501873Y-127780754D01*
X116501873Y-127780754D02*
X116511853Y-127769233D01*
X116502217Y-118219629D02*
X116491360Y-118208220D01*
X116511853Y-127769233D02*
X116521279Y-127757238D01*
X116512452Y-118231510D02*
X116502217Y-118219629D01*
X116521279Y-127757238D02*
X116530132Y-127744789D01*
X116522054Y-118243836D02*
X116512452Y-118231510D01*
X116530132Y-127744789D02*
X116538391Y-127731907D01*
X116531012Y-118256580D02*
X116522054Y-118243836D01*
X116538391Y-127731907D02*
X116546036Y-127718610D01*
X116539316Y-118269718D02*
X116531012Y-118256580D01*
X116546036Y-127718610D02*
X116553048Y-127704919D01*
X116546954Y-118283224D02*
X116539316Y-118269718D01*
X116553048Y-127704919D02*
X116559407Y-127690854D01*
X116553915Y-118297070D02*
X116546954Y-118283224D01*
X116559407Y-127690854D02*
X116565092Y-127676435D01*
X116560190Y-118311231D02*
X116553915Y-118297070D01*
X116565092Y-127676435D02*
X116570084Y-127661682D01*
X116565767Y-118325681D02*
X116560190Y-118311231D01*
X116570084Y-127661682D02*
X116574363Y-127646615D01*
X116570635Y-118340395D02*
X116565767Y-118325681D01*
X116574363Y-127646615D02*
X116577908Y-127631253D01*
X116574784Y-118355345D02*
X116570635Y-118340395D01*
X116577908Y-127631253D02*
X116580701Y-127615617D01*
X116578202Y-118370506D02*
X116574784Y-118355345D01*
X116580701Y-127615617D02*
X116582720Y-127599726D01*
X116580880Y-118385853D02*
X116578202Y-118370506D01*
X116582720Y-127599726D02*
X116583946Y-127583601D01*
X116582806Y-118401358D02*
X116580880Y-118385853D01*
X116583946Y-127583601D02*
X116584359Y-127567262D01*
X116583970Y-118416996D02*
X116582806Y-118401358D01*
X116584359Y-127567262D02*
X116584360Y-118432741D01*
X116584360Y-118432741D02*
X116583970Y-118416996D01*
D15*
G36*
X106815281Y-120372301D02*
G01*
X105254681Y-120372301D01*
X105254681Y-119737261D01*
X106815281Y-119737141D01*
X106815281Y-120372301D01*
G37*
G36*
X106815281Y-121844941D02*
G01*
X105254681Y-121844941D01*
X105254681Y-121209901D01*
X106815281Y-121209901D01*
X106815281Y-121844941D01*
G37*
G36*
X106815281Y-122682541D02*
G01*
X106815281Y-123317580D01*
X105254681Y-123317580D01*
X105254681Y-122682540D01*
X106815281Y-122682541D01*
G37*
G36*
X106815281Y-124790220D02*
G01*
X105254681Y-124790220D01*
X105254681Y-124155180D01*
X106815281Y-124155180D01*
X106815281Y-124790220D01*
G37*
G36*
X106815281Y-126262860D02*
G01*
X105254681Y-126262860D01*
X105254681Y-125627820D01*
X106815281Y-125627820D01*
X106815281Y-126262860D01*
G37*
G36*
X109072001Y-118115221D02*
G01*
X108436961Y-118115221D01*
X108436961Y-116554621D01*
X109072001Y-116554621D01*
X109072001Y-118115221D01*
G37*
G36*
X109072361Y-129445380D02*
G01*
X108437321Y-129445380D01*
X108437321Y-127884780D01*
X109072361Y-127884780D01*
X109072361Y-129445380D01*
G37*
G36*
X110544640Y-118115221D02*
G01*
X109909600Y-118115221D01*
X109909600Y-116554621D01*
X110544640Y-116554621D01*
X110544640Y-118115221D01*
G37*
G36*
X110545001Y-129445380D02*
G01*
X109909961Y-129445380D01*
X109909961Y-127884780D01*
X110545001Y-127884780D01*
X110545001Y-129445380D01*
G37*
G36*
X112017280Y-118115221D02*
G01*
X111382240Y-118115221D01*
X111382240Y-116554621D01*
X112017280Y-116554621D01*
X112017280Y-118115221D01*
G37*
G36*
X112017640Y-129445380D02*
G01*
X111382601Y-129445380D01*
X111382601Y-127884780D01*
X112017640Y-127884780D01*
X112017640Y-129445380D01*
G37*
G36*
X113489920Y-118115221D02*
G01*
X112854880Y-118115221D01*
X112854880Y-116554621D01*
X113489920Y-116554621D01*
X113489920Y-118115221D01*
G37*
G36*
X113490281Y-129445380D02*
G01*
X112855241Y-129445380D01*
X112855241Y-127884780D01*
X113490281Y-127884780D01*
X113490281Y-129445380D01*
G37*
G36*
X114962560Y-118115221D02*
G01*
X114327520Y-118115221D01*
X114327520Y-116554621D01*
X114962560Y-116554621D01*
X114962560Y-118115221D01*
G37*
G36*
X114962921Y-129445380D02*
G01*
X114327881Y-129445380D01*
X114327881Y-127884780D01*
X114962921Y-127884780D01*
X114962921Y-129445380D01*
G37*
G36*
X118145320Y-120372301D02*
G01*
X116584720Y-120372301D01*
X116584720Y-119737261D01*
X118145320Y-119737141D01*
X118145320Y-120372301D01*
G37*
G36*
X118145320Y-121844941D02*
G01*
X116584720Y-121844941D01*
X116584720Y-121209901D01*
X118145320Y-121209901D01*
X118145320Y-121844941D01*
G37*
G36*
X118145320Y-123317580D02*
G01*
X116584720Y-123317580D01*
X116584720Y-122682540D01*
X118145320Y-122682540D01*
X118145320Y-123317580D01*
G37*
G36*
X118145320Y-124790220D02*
G01*
X116584720Y-124790220D01*
X116584720Y-124155180D01*
X118145320Y-124155180D01*
X118145320Y-124790220D01*
G37*
G36*
X118145320Y-126262860D02*
G01*
X116584720Y-126262860D01*
X116584720Y-125627820D01*
X118145320Y-125627820D01*
X118145320Y-126262860D01*
G37*
D13*
%TO.C,TP15*%
X159775000Y-119600000D02*
G75*
G02*
X157375000Y-119600000I-1200000J0D01*
G01*
X157375000Y-119600000D02*
G75*
G02*
X159775000Y-119600000I1200000J0D01*
G01*
%TO.C,TP21*%
X114750000Y-96250000D02*
G75*
G02*
X112350000Y-96250000I-1200000J0D01*
G01*
X112350000Y-96250000D02*
G75*
G02*
X114750000Y-96250000I1200000J0D01*
G01*
%TO.C,TP11*%
X156600000Y-118450000D02*
G75*
G02*
X154200000Y-118450000I-1200000J0D01*
G01*
X154200000Y-118450000D02*
G75*
G02*
X156600000Y-118450000I1200000J0D01*
G01*
%TO.C,TP10*%
X164150000Y-74050000D02*
G75*
G02*
X161750000Y-74050000I-1200000J0D01*
G01*
X161750000Y-74050000D02*
G75*
G02*
X164150000Y-74050000I1200000J0D01*
G01*
%TO.C,TP4*%
X152150000Y-86900000D02*
G75*
G02*
X149750000Y-86900000I-1200000J0D01*
G01*
X149750000Y-86900000D02*
G75*
G02*
X152150000Y-86900000I1200000J0D01*
G01*
%TO.C,TP7*%
X140850000Y-95900000D02*
G75*
G02*
X138450000Y-95900000I-1200000J0D01*
G01*
X138450000Y-95900000D02*
G75*
G02*
X140850000Y-95900000I1200000J0D01*
G01*
%TO.C,TP6*%
X144550000Y-109050000D02*
G75*
G02*
X142150000Y-109050000I-1200000J0D01*
G01*
X142150000Y-109050000D02*
G75*
G02*
X144550000Y-109050000I1200000J0D01*
G01*
%TO.C,TP17*%
X114350000Y-81700000D02*
G75*
G02*
X111950000Y-81700000I-1200000J0D01*
G01*
X111950000Y-81700000D02*
G75*
G02*
X114350000Y-81700000I1200000J0D01*
G01*
%TO.C,TP3*%
X157450000Y-89900000D02*
G75*
G02*
X155050000Y-89900000I-1200000J0D01*
G01*
X155050000Y-89900000D02*
G75*
G02*
X157450000Y-89900000I1200000J0D01*
G01*
%TO.C,TP12*%
X159850000Y-85650000D02*
G75*
G02*
X157450000Y-85650000I-1200000J0D01*
G01*
X157450000Y-85650000D02*
G75*
G02*
X159850000Y-85650000I1200000J0D01*
G01*
%TO.C,TP14*%
X127850000Y-113550000D02*
G75*
G02*
X125450000Y-113550000I-1200000J0D01*
G01*
X125450000Y-113550000D02*
G75*
G02*
X127850000Y-113550000I1200000J0D01*
G01*
%TO.C,B1*%
X189245000Y-106170000D02*
X189245000Y-112630000D01*
X189245000Y-106170000D02*
X189275000Y-106170000D01*
X189245000Y-112630000D02*
X189275000Y-112630000D01*
X193775000Y-106170000D02*
X191175000Y-106170000D01*
X193775000Y-112630000D02*
X191175000Y-112630000D01*
X195675000Y-106170000D02*
X195705000Y-106170000D01*
X195705000Y-106170000D02*
X195705000Y-112630000D01*
X195705000Y-112630000D02*
X195675000Y-112630000D01*
%TO.C,D1*%
X164775000Y-126150000D02*
X170675000Y-126150000D01*
X164775000Y-130050000D02*
X170675000Y-130050000D01*
X170675000Y-130050000D02*
X170675000Y-128975000D01*
%TO.C,TP19*%
X193550000Y-82100000D02*
G75*
G02*
X191150000Y-82100000I-1200000J0D01*
G01*
X191150000Y-82100000D02*
G75*
G02*
X193550000Y-82100000I1200000J0D01*
G01*
%TO.C,TP20*%
X117150000Y-94350000D02*
G75*
G02*
X114750000Y-94350000I-1200000J0D01*
G01*
X114750000Y-94350000D02*
G75*
G02*
X117150000Y-94350000I1200000J0D01*
G01*
%TO.C,TP8*%
X136500000Y-105700000D02*
G75*
G02*
X134100000Y-105700000I-1200000J0D01*
G01*
X134100000Y-105700000D02*
G75*
G02*
X136500000Y-105700000I1200000J0D01*
G01*
%TO.C,TP2*%
X126050000Y-74600000D02*
G75*
G02*
X123650000Y-74600000I-1200000J0D01*
G01*
X123650000Y-74600000D02*
G75*
G02*
X126050000Y-74600000I1200000J0D01*
G01*
%TO.C,TP9*%
X151450000Y-118650000D02*
G75*
G02*
X149050000Y-118650000I-1200000J0D01*
G01*
X149050000Y-118650000D02*
G75*
G02*
X151450000Y-118650000I1200000J0D01*
G01*
%TO.C,D4*%
X140900000Y-126125000D02*
X146800000Y-126125000D01*
X140900000Y-130025000D02*
X146800000Y-130025000D01*
X146800000Y-130025000D02*
X146800000Y-128950000D01*
%TO.C,TP23*%
X132400000Y-109600000D02*
G75*
G02*
X130000000Y-109600000I-1200000J0D01*
G01*
X130000000Y-109600000D02*
G75*
G02*
X132400000Y-109600000I1200000J0D01*
G01*
%TO.C,D2*%
X156825000Y-126100000D02*
X162725000Y-126100000D01*
X156825000Y-130000000D02*
X162725000Y-130000000D01*
X162725000Y-130000000D02*
X162725000Y-128925000D01*
%TO.C,SELECT1*%
X109870000Y-72220000D02*
X116330000Y-72220000D01*
X109870000Y-72250000D02*
X109870000Y-72220000D01*
X109870000Y-74150000D02*
X109870000Y-76750000D01*
X109870000Y-78680000D02*
X109870000Y-78650000D01*
X109870000Y-78680000D02*
X116330000Y-78680000D01*
X116330000Y-72220000D02*
X116330000Y-72250000D01*
X116330000Y-74150000D02*
X116330000Y-76750000D01*
X116330000Y-78680000D02*
X116330000Y-78650000D01*
%TO.C,TP1*%
X150225000Y-77200000D02*
G75*
G02*
X147825000Y-77200000I-1200000J0D01*
G01*
X147825000Y-77200000D02*
G75*
G02*
X150225000Y-77200000I1200000J0D01*
G01*
%TD*%
M02*
