M48
; DRILL file {KiCad 9.0.5} date 2025-11-13T16:23:59-0800
; FORMAT={-:-/ absolute / metric / decimal}
; #@! TF.CreationDate,2025-11-13T16:23:59-08:00
; #@! TF.GenerationSoftware,Kicad,Pcbnew,9.0.5
; #@! TF.FileFunction,Plated,1,4,PTH
FMAT,2
METRIC
; #@! TA.AperFunction,Plated,PTH,ViaDrill
T1C0.200
; #@! TA.AperFunction,Plated,PTH,ViaDrill
T2C0.300
; #@! TA.AperFunction,Plated,PTH,ComponentDrill
T3C0.660
; #@! TA.AperFunction,Plated,PTH,ComponentDrill
T4C1.000
%
G90
G05
T1
X180.35Y-86.75
X180.35Y-88.25
X180.4Y-77.75
X181.2Y-81.5
T2
X107.5Y-73.1
X113.1Y-79.35
X114.225Y-101.2
X116.325Y-99.2
X118.475Y-97.1
X118.8Y-73.1
X124.775Y-111.65
X126.3Y-109.75
X128.925Y-107.35
X132.3Y-129.0
X137.6Y-125.55
X140.2Y-129.1
X140.375Y-89.0
X140.375Y-90.15
X140.425Y-116.9
X140.725Y-100.55
X140.725Y-101.75
X140.725Y-103.05
X142.525Y-114.85
X143.15Y-119.1
X143.175Y-77.8
X143.225Y-86.75
X144.8Y-80.8
X145.525Y-95.9
X145.586Y-109.334
X145.6Y-125.5
X146.69Y-115.3
X146.9Y-113.07
X147.075Y-78.0
X148.45Y-128.987
X148.75Y-101.2
X148.8Y-86.2
X148.8Y-104.65
X148.825Y-95.25
X150.5Y-99.5
X151.0Y-104.2
X152.2Y-82.9
X152.2Y-84.3
X152.2Y-85.1
X152.496Y-104.51
X152.6Y-78.2
X152.6Y-79.4
X152.6Y-80.4
X152.625Y-96.1
X153.15Y-91.46
X153.54Y-111.81
X153.55Y-125.5
X153.625Y-97.15
X153.75Y-105.9
X154.4Y-107.2
X155.7Y-115.13
X155.8Y-81.4
X156.375Y-129.0
X156.4Y-102.0
X157.3Y-102.9
X157.583Y-104.99
X157.975Y-109.7
X158.2Y-103.8
X158.625Y-110.35
X158.7Y-83.9
X158.95Y-96.1
X159.09Y-87.34
X159.2Y-97.5
X159.575Y-111.3
X159.8Y-117.7
X160.175Y-114.95
X160.2Y-96.5
X160.475Y-112.15
X160.6Y-88.9
X160.7Y-78.3
X161.1Y-95.6
X161.4Y-89.6
X161.525Y-125.5
X162.0Y-94.7
X162.075Y-111.9
X162.2Y-90.4
X162.375Y-78.1
X162.775Y-76.2
X163.33Y-89.397
X163.925Y-112.85
X164.325Y-129.0
X164.81Y-94.11
X165.1Y-107.6
X165.175Y-88.3
X165.6Y-79.8
X166.21Y-95.88
X166.5Y-97.5
X166.675Y-86.825
X167.3Y-83.4
X167.4Y-98.4
X167.4Y-103.8
X167.53Y-105.45
X168.3Y-99.3
X168.3Y-102.9
X168.49Y-117.01
X169.2Y-102.0
X169.3Y-100.3
X169.5Y-125.5
X169.7Y-83.73
X169.75Y-90.51
X170.0Y-78.6
X170.37Y-89.88
X171.525Y-120.75
X172.125Y-81.128
X172.4Y-92.95
X172.6Y-108.1
X173.31Y-87.34
X173.548Y-118.386
X174.15Y-100.45
X175.48Y-104.54
X175.91Y-92.75
X176.28Y-90.37
X177.1Y-98.8
X177.5Y-78.0
X178.0Y-81.8
X179.4Y-77.75
X179.415Y-81.18
X180.3Y-83.9
X181.1Y-94.1
X181.4Y-83.95
X182.15Y-81.4
X182.575Y-98.45
X183.8Y-78.0
X186.375Y-74.35
X188.3Y-74.5
X188.575Y-109.55
X190.975Y-77.175
X190.975Y-80.2
X192.35Y-79.4
X192.375Y-75.025
X194.8Y-92.6
X194.8Y-103.8
X194.8Y-115.1
X196.4Y-74.5
X200.575Y-98.2
T4
X111.4Y-98.35
X113.15Y-81.7
X113.55Y-96.25
X115.95Y-94.35
X124.85Y-74.6
X126.65Y-113.55
X131.2Y-109.6
X135.3Y-105.7
X139.65Y-95.9
X140.2Y-107.1
X143.35Y-109.05
X149.025Y-77.2
X150.25Y-118.65
X150.95Y-86.9
X155.4Y-118.45
X156.25Y-89.9
X158.575Y-119.6
X158.65Y-85.65
X162.95Y-74.05
X172.1Y-126.65
X177.0Y-108.6
X182.65Y-95.1
X186.35Y-88.12
X186.35Y-90.66
X186.35Y-93.2
X186.35Y-95.74
X186.35Y-98.28
X186.35Y-100.82
X186.35Y-103.36
X186.35Y-105.9
X186.35Y-108.44
X186.35Y-110.98
X186.35Y-113.52
X186.35Y-116.06
X186.35Y-118.6
X186.35Y-121.14
X186.35Y-123.68
X189.95Y-99.6
X192.35Y-82.1
X198.25Y-104.9
T3
G00X176.334Y-75.092
M15
G01X176.334Y-73.593
M16
G05
G00X176.334Y-79.207
M15
G01X176.334Y-80.198
M16
G05
G00X184.974Y-73.593
M15
G01X184.974Y-75.092
M16
G05
G00X184.974Y-79.207
M15
G01X184.974Y-80.198
M16
G05
M30
