%TF.GenerationSoftware,KiCad,Pcbnew,9.0.5*%
%TF.CreationDate,2025-11-13T16:23:19-08:00*%
%TF.ProjectId,SYCL Badge 2024,5359434c-2042-4616-9467-652032303234,rev?*%
%TF.SameCoordinates,Original*%
%TF.FileFunction,Soldermask,Top*%
%TF.FilePolarity,Negative*%
%FSLAX46Y46*%
G04 Gerber Fmt 4.6, Leading zero omitted, Abs format (unit mm)*
G04 Created by KiCad (PCBNEW 9.0.5) date 2025-11-13 16:23:19*
%MOMM*%
%LPD*%
G01*
G04 APERTURE LIST*
G04 Aperture macros list*
%AMRotRect*
0 Rectangle, with rotation*
0 The origin of the aperture is its center*
0 $1 length*
0 $2 width*
0 $3 Rotation angle, in degrees counterclockwise*
0 Add horizontal line*
21,1,$1,$2,0,0,$3*%
G04 Aperture macros list end*
%ADD10C,0.000000*%
%ADD11O,1.168400X2.667000*%
%ADD12O,1.168400X2.159000*%
%ADD13C,2.000000*%
%ADD14R,1.550000X1.300000*%
%ADD15R,1.300000X1.550000*%
%ADD16R,1.600000X0.850000*%
%ADD17R,1.700000X1.700000*%
%ADD18C,1.700000*%
%ADD19C,1.000000*%
%ADD20RotRect,1.400000X1.700000X315.000000*%
%ADD21RotRect,1.700000X1.200000X315.000000*%
%ADD22C,3.200000*%
%ADD23C,1.500000*%
%ADD24C,0.990600*%
%ADD25C,0.900000*%
G04 APERTURE END LIST*
D10*
%TO.C,H5*%
G36*
X113251857Y-119477669D02*
G01*
X113268231Y-119479272D01*
X113284272Y-119481921D01*
X113299949Y-119485575D01*
X113315232Y-119490196D01*
X113330090Y-119495745D01*
X113344493Y-119502183D01*
X113358411Y-119509471D01*
X113371813Y-119517569D01*
X113384670Y-119526439D01*
X113396950Y-119536041D01*
X113408624Y-119546337D01*
X113419661Y-119557287D01*
X113430030Y-119568853D01*
X113439703Y-119580996D01*
X113448647Y-119593676D01*
X113456834Y-119606854D01*
X113464232Y-119620491D01*
X113470811Y-119634549D01*
X113476541Y-119648988D01*
X113481392Y-119663770D01*
X113485334Y-119678854D01*
X113488335Y-119694203D01*
X113490366Y-119709776D01*
X113491396Y-119725536D01*
X113491396Y-119741443D01*
X113490334Y-119757457D01*
X113488181Y-119773541D01*
X113484906Y-119789654D01*
X113480478Y-119805759D01*
X113474869Y-119821815D01*
X112170572Y-122361971D01*
X113956931Y-122361971D01*
X114021627Y-122363696D01*
X114086605Y-122363246D01*
X114216844Y-122360291D01*
X114281820Y-122360020D01*
X114314211Y-122360675D01*
X114346513Y-122362043D01*
X114378708Y-122364264D01*
X114410779Y-122367478D01*
X114442708Y-122371823D01*
X114474478Y-122377440D01*
X114489938Y-122382913D01*
X114504743Y-122389406D01*
X114518881Y-122396867D01*
X114532337Y-122405240D01*
X114545098Y-122414473D01*
X114557149Y-122424510D01*
X114568478Y-122435299D01*
X114579071Y-122446784D01*
X114588913Y-122458912D01*
X114597992Y-122471630D01*
X114606293Y-122484882D01*
X114613802Y-122498616D01*
X114620506Y-122512776D01*
X114626392Y-122527310D01*
X114631445Y-122542162D01*
X114635652Y-122557280D01*
X114638998Y-122572609D01*
X114641471Y-122588095D01*
X114643057Y-122603683D01*
X114643741Y-122619322D01*
X114643511Y-122634955D01*
X114642352Y-122650529D01*
X114640250Y-122665990D01*
X114637193Y-122681285D01*
X114633165Y-122696359D01*
X114628154Y-122711158D01*
X114622146Y-122725628D01*
X114615127Y-122739715D01*
X114607083Y-122753366D01*
X114598001Y-122766525D01*
X114587867Y-122779140D01*
X114576666Y-122791156D01*
X110533278Y-126285940D01*
X110510641Y-126303212D01*
X110488405Y-126321790D01*
X110466440Y-126341330D01*
X110444615Y-126361491D01*
X110400866Y-126402301D01*
X110378682Y-126422266D01*
X110356118Y-126441482D01*
X110333043Y-126459605D01*
X110309329Y-126476293D01*
X110284843Y-126491203D01*
X110272271Y-126497885D01*
X110259458Y-126503994D01*
X110246386Y-126509487D01*
X110233041Y-126514322D01*
X110219406Y-126518455D01*
X110205464Y-126521845D01*
X110191199Y-126524448D01*
X110176595Y-126526221D01*
X110161636Y-126527121D01*
X110146306Y-126527106D01*
X110130070Y-126526409D01*
X110114158Y-126524567D01*
X110098597Y-126521625D01*
X110083416Y-126517631D01*
X110068642Y-126512630D01*
X110054303Y-126506668D01*
X110040427Y-126499792D01*
X110027042Y-126492047D01*
X110014177Y-126483480D01*
X110001858Y-126474136D01*
X109990114Y-126464062D01*
X109978973Y-126453304D01*
X109968462Y-126441907D01*
X109958611Y-126429919D01*
X109949445Y-126417384D01*
X109940994Y-126404350D01*
X109933286Y-126390861D01*
X109926347Y-126376965D01*
X109920207Y-126362708D01*
X109914894Y-126348134D01*
X109910434Y-126333291D01*
X109906856Y-126318225D01*
X109904188Y-126302981D01*
X109902458Y-126287606D01*
X109901693Y-126272146D01*
X109901923Y-126256647D01*
X109903174Y-126241154D01*
X109905474Y-126225715D01*
X109908852Y-126210374D01*
X109913335Y-126195179D01*
X109918952Y-126180175D01*
X109925729Y-126165409D01*
X111221823Y-123643299D01*
X109351229Y-123643299D01*
X109323116Y-123641868D01*
X109294845Y-123641283D01*
X109237960Y-123641925D01*
X109123721Y-123645365D01*
X109095252Y-123645615D01*
X109066884Y-123645256D01*
X109038648Y-123644109D01*
X109010578Y-123641990D01*
X108982706Y-123638718D01*
X108955063Y-123634111D01*
X108927683Y-123627989D01*
X108900597Y-123620168D01*
X108885598Y-123613610D01*
X108871333Y-123606091D01*
X108857812Y-123597664D01*
X108845044Y-123588385D01*
X108833037Y-123578307D01*
X108821800Y-123567484D01*
X108811341Y-123555969D01*
X108801671Y-123543818D01*
X108792796Y-123531084D01*
X108784726Y-123517820D01*
X108777471Y-123504082D01*
X108771038Y-123489923D01*
X108765436Y-123475396D01*
X108760674Y-123460557D01*
X108756761Y-123445459D01*
X108753706Y-123430156D01*
X108751518Y-123414702D01*
X108750204Y-123399150D01*
X108749775Y-123383556D01*
X108750238Y-123367974D01*
X108751602Y-123352456D01*
X108753877Y-123337057D01*
X108757071Y-123321831D01*
X108761193Y-123306833D01*
X108766251Y-123292116D01*
X108772255Y-123277733D01*
X108779213Y-123263740D01*
X108787133Y-123250190D01*
X108796025Y-123237138D01*
X108805898Y-123224636D01*
X108816760Y-123212740D01*
X108828619Y-123201503D01*
X112840719Y-119735019D01*
X112863469Y-119717815D01*
X112885696Y-119699445D01*
X112907537Y-119680192D01*
X112929127Y-119660337D01*
X112972100Y-119619950D01*
X112993756Y-119599982D01*
X113015705Y-119580539D01*
X113038085Y-119561904D01*
X113061032Y-119544358D01*
X113084681Y-119528185D01*
X113109168Y-119513664D01*
X113121769Y-119507112D01*
X113134631Y-119501079D01*
X113147770Y-119495600D01*
X113161204Y-119490710D01*
X113174950Y-119486446D01*
X113189025Y-119482841D01*
X113203445Y-119479932D01*
X113218229Y-119477753D01*
X113218228Y-119477753D01*
X113235179Y-119477149D01*
X113251857Y-119477669D01*
G37*
%TD*%
D11*
%TO.C,J5*%
X184974052Y-74342750D03*
X176334048Y-74342750D03*
D12*
X184974052Y-79702750D03*
X176334048Y-79702750D03*
%TD*%
D13*
%TO.C,TP22*%
X111400000Y-98350000D03*
%TD*%
%TO.C,TP29*%
X189950000Y-99600000D03*
%TD*%
D14*
%TO.C,START1*%
X188375000Y-73300000D03*
X196325000Y-73300000D03*
X188375000Y-77800000D03*
X196325000Y-77800000D03*
%TD*%
D15*
%TO.C,A1*%
X194550000Y-102175000D03*
X194550000Y-94225000D03*
X199050000Y-102175000D03*
X199050000Y-94225000D03*
%TD*%
D13*
%TO.C,TP24*%
X182650000Y-95100000D03*
%TD*%
D16*
%TO.C,D3*%
X150050000Y-127225000D03*
X150050000Y-128975000D03*
X153550000Y-128975000D03*
X153550000Y-127225000D03*
%TD*%
D13*
%TO.C,TP5*%
X140200000Y-107100000D03*
%TD*%
D17*
%TO.C,J4*%
X186350000Y-88120000D03*
D18*
X186350000Y-90660000D03*
X186350000Y-93200000D03*
X186350000Y-95740000D03*
X186350000Y-98280000D03*
X186350000Y-100820000D03*
X186350000Y-103360000D03*
X186350000Y-105900000D03*
X186350000Y-108440000D03*
X186350000Y-110980000D03*
X186350000Y-113520000D03*
X186350000Y-116060000D03*
X186350000Y-118600000D03*
X186350000Y-121140000D03*
X186350000Y-123680000D03*
%TD*%
D16*
%TO.C,D5*%
X134100000Y-127200000D03*
X134100000Y-128950000D03*
X137600000Y-128950000D03*
X137600000Y-127200000D03*
%TD*%
D13*
%TO.C,TP13*%
X198250000Y-104900000D03*
%TD*%
%TO.C,TP18*%
X177000000Y-108600000D03*
%TD*%
%TO.C,TP16*%
X172100000Y-126650000D03*
%TD*%
%TO.C,TP15*%
X158575000Y-119600000D03*
%TD*%
%TO.C,TP21*%
X113550000Y-96250000D03*
%TD*%
%TO.C,TP11*%
X155400000Y-118450000D03*
%TD*%
%TO.C,TP10*%
X162950000Y-74050000D03*
%TD*%
%TO.C,TP4*%
X150950000Y-86900000D03*
%TD*%
%TO.C,TP7*%
X139650000Y-95900000D03*
%TD*%
%TO.C,TP6*%
X143350000Y-109050000D03*
%TD*%
%TO.C,TP17*%
X113150000Y-81700000D03*
%TD*%
%TO.C,TP3*%
X156250000Y-89900000D03*
%TD*%
%TO.C,TP12*%
X158650000Y-85650000D03*
%TD*%
%TO.C,TP14*%
X126650000Y-113550000D03*
%TD*%
D15*
%TO.C,B1*%
X194725000Y-105425000D03*
X194725000Y-113375000D03*
X190225000Y-105425000D03*
X190225000Y-113375000D03*
%TD*%
D16*
%TO.C,D1*%
X165975000Y-127225000D03*
X165975000Y-128975000D03*
X169475000Y-128975000D03*
X169475000Y-127225000D03*
%TD*%
D13*
%TO.C,TP19*%
X192350000Y-82100000D03*
%TD*%
%TO.C,TP20*%
X115950000Y-94350000D03*
%TD*%
%TO.C,TP8*%
X135300000Y-105700000D03*
%TD*%
%TO.C,TP2*%
X124850000Y-74600000D03*
%TD*%
%TO.C,TP9*%
X150250000Y-118650000D03*
%TD*%
D19*
%TO.C,U3*%
X112657181Y-105214645D03*
D20*
X122415254Y-98497130D03*
X113647130Y-107265254D03*
X127152870Y-103234746D03*
X118384746Y-112002870D03*
D19*
X120435355Y-112992819D03*
D21*
X119480761Y-97966800D03*
X117359441Y-100088120D03*
X115238120Y-102209441D03*
X127683200Y-106169239D03*
X125561880Y-108290559D03*
X123440559Y-110411880D03*
%TD*%
D16*
%TO.C,D4*%
X142100000Y-127200000D03*
X142100000Y-128950000D03*
X145600000Y-128950000D03*
X145600000Y-127200000D03*
%TD*%
D13*
%TO.C,TP23*%
X131200000Y-109600000D03*
%TD*%
D16*
%TO.C,D2*%
X158025000Y-127175000D03*
X158025000Y-128925000D03*
X161525000Y-128925000D03*
X161525000Y-127175000D03*
%TD*%
D14*
%TO.C,SELECT1*%
X109125000Y-73200000D03*
X117075000Y-73200000D03*
X109125000Y-77700000D03*
X117075000Y-77700000D03*
%TD*%
D13*
%TO.C,TP1*%
X149025000Y-77200000D03*
%TD*%
D22*
%TO.C,BATT*%
X132400000Y-102100000D03*
%TD*%
D23*
%TO.C,U4*%
X166725000Y-73950000D03*
%TD*%
D24*
%TO.C,J2*%
X143790000Y-99240000D03*
X144806000Y-104320000D03*
X142774000Y-104320000D03*
%TD*%
D22*
%TO.C,BATT*%
X108400000Y-102200000D03*
%TD*%
D25*
%TO.C,SW3*%
X153400000Y-74945000D03*
X156400000Y-74945000D03*
%TD*%
M02*
