%TF.GenerationSoftware,KiCad,Pcbnew,9.0.5*%
%TF.CreationDate,2025-11-12T17:07:30-08:00*%
%TF.ProjectId,SYCL Badge 2024,5359434c-2042-4616-9467-652032303234,rev?*%
%TF.SameCoordinates,Original*%
%TF.FileFunction,Soldermask,Bot*%
%TF.FilePolarity,Negative*%
%FSLAX46Y46*%
G04 Gerber Fmt 4.6, Leading zero omitted, Abs format (unit mm)*
G04 Created by KiCad (PCBNEW 9.0.5) date 2025-11-12 17:07:30*
%MOMM*%
%LPD*%
G01*
G04 APERTURE LIST*
G04 Aperture macros list*
%AMRoundRect*
0 Rectangle with rounded corners*
0 $1 Rounding radius*
0 $2 $3 $4 $5 $6 $7 $8 $9 X,Y pos of 4 corners*
0 Add a 4 corners polygon primitive as box body*
4,1,4,$2,$3,$4,$5,$6,$7,$8,$9,$2,$3,0*
0 Add four circle primitives for the rounded corners*
1,1,$1+$1,$2,$3*
1,1,$1+$1,$4,$5*
1,1,$1+$1,$6,$7*
1,1,$1+$1,$8,$9*
0 Add four rect primitives between the rounded corners*
20,1,$1+$1,$2,$3,$4,$5,0*
20,1,$1+$1,$4,$5,$6,$7,0*
20,1,$1+$1,$6,$7,$8,$9,0*
20,1,$1+$1,$8,$9,$2,$3,0*%
%AMRotRect*
0 Rectangle, with rotation*
0 The origin of the aperture is its center*
0 $1 length*
0 $2 width*
0 $3 Rotation angle, in degrees counterclockwise*
0 Add horizontal line*
21,1,$1,$2,0,0,$3*%
G04 Aperture macros list end*
%ADD10R,0.330200X0.762000*%
%ADD11R,1.041400X0.762000*%
%ADD12O,1.168400X2.159000*%
%ADD13O,1.168400X2.667000*%
%ADD14C,2.000000*%
%ADD15R,1.700000X1.700000*%
%ADD16C,1.700000*%
%ADD17C,1.000000*%
%ADD18RoundRect,0.225000X-0.375000X0.225000X-0.375000X-0.225000X0.375000X-0.225000X0.375000X0.225000X0*%
%ADD19RoundRect,0.250000X-0.475000X0.337500X-0.475000X-0.337500X0.475000X-0.337500X0.475000X0.337500X0*%
%ADD20RoundRect,0.237500X-0.035355X-0.371231X0.371231X0.035355X0.035355X0.371231X-0.371231X-0.035355X0*%
%ADD21RoundRect,0.237500X0.008839X0.344715X-0.344715X-0.008839X-0.008839X-0.344715X0.344715X0.008839X0*%
%ADD22RoundRect,0.250000X0.475000X-0.337500X0.475000X0.337500X-0.475000X0.337500X-0.475000X-0.337500X0*%
%ADD23RoundRect,0.237500X-0.237500X0.250000X-0.237500X-0.250000X0.237500X-0.250000X0.237500X0.250000X0*%
%ADD24RoundRect,0.250000X-0.097227X0.574524X-0.574524X0.097227X0.097227X-0.574524X0.574524X-0.097227X0*%
%ADD25RoundRect,0.250000X0.574524X0.097227X0.097227X0.574524X-0.574524X-0.097227X-0.097227X-0.574524X0*%
%ADD26RoundRect,0.237500X0.250000X0.237500X-0.250000X0.237500X-0.250000X-0.237500X0.250000X-0.237500X0*%
%ADD27RoundRect,0.250000X-0.574524X-0.097227X-0.097227X-0.574524X0.574524X0.097227X0.097227X0.574524X0*%
%ADD28RoundRect,0.237500X-0.250000X-0.237500X0.250000X-0.237500X0.250000X0.237500X-0.250000X0.237500X0*%
%ADD29RoundRect,0.150000X-0.150000X0.512500X-0.150000X-0.512500X0.150000X-0.512500X0.150000X0.512500X0*%
%ADD30RoundRect,0.100000X0.548008X-0.406586X-0.406586X0.548008X-0.548008X0.406586X0.406586X-0.548008X0*%
%ADD31RoundRect,0.100000X0.548008X0.406586X0.406586X0.548008X-0.548008X-0.406586X-0.406586X-0.548008X0*%
%ADD32RotRect,9.500000X9.500000X135.000000*%
%ADD33C,1.500000*%
%ADD34RoundRect,0.250000X0.337500X0.475000X-0.337500X0.475000X-0.337500X-0.475000X0.337500X-0.475000X0*%
%ADD35C,3.200000*%
%ADD36RoundRect,0.237500X-0.344715X0.008839X0.008839X-0.344715X0.344715X-0.008839X-0.008839X0.344715X0*%
%ADD37RoundRect,0.237500X0.237500X-0.250000X0.237500X0.250000X-0.237500X0.250000X-0.237500X-0.250000X0*%
%ADD38RoundRect,0.050800X-0.750000X-0.800000X0.750000X-0.800000X0.750000X0.800000X-0.750000X0.800000X0*%
%ADD39RoundRect,0.150000X0.512500X0.150000X-0.512500X0.150000X-0.512500X-0.150000X0.512500X-0.150000X0*%
%ADD40C,0.990600*%
%ADD41C,0.787400*%
%ADD42RoundRect,0.212500X0.777817X0.477297X0.477297X0.777817X-0.777817X-0.477297X-0.477297X-0.777817X0*%
%ADD43RoundRect,0.162500X0.698268X-0.468458X-0.468458X0.698268X-0.698268X0.468458X0.468458X-0.698268X0*%
%ADD44RoundRect,0.250000X0.097227X-0.574524X0.574524X-0.097227X-0.097227X0.574524X-0.574524X0.097227X0*%
%ADD45RoundRect,0.237500X0.344715X-0.008839X-0.008839X0.344715X-0.344715X0.008839X0.008839X-0.344715X0*%
%ADD46RoundRect,0.150000X0.150000X-0.587500X0.150000X0.587500X-0.150000X0.587500X-0.150000X-0.587500X0*%
%ADD47R,1.000000X0.800000*%
%ADD48C,0.900000*%
%ADD49R,0.700000X1.500000*%
%ADD50RoundRect,0.237500X-0.008839X-0.344715X0.344715X0.008839X0.008839X0.344715X-0.344715X-0.008839X0*%
%ADD51RoundRect,0.250000X-0.337500X-0.475000X0.337500X-0.475000X0.337500X0.475000X-0.337500X0.475000X0*%
%ADD52RoundRect,0.250000X1.025305X-0.106066X-0.106066X1.025305X-1.025305X0.106066X0.106066X-1.025305X0*%
%ADD53R,0.558800X1.498600*%
G04 APERTURE END LIST*
D10*
%TO.C,J5*%
X177654050Y-80081751D03*
X178154049Y-80081751D03*
X178654051Y-80081751D03*
X179154050Y-80081751D03*
X179654049Y-80081751D03*
X180154050Y-80081751D03*
X181154050Y-80081751D03*
X181654051Y-80081751D03*
X182154050Y-80081751D03*
X182654049Y-80081751D03*
X183154051Y-80081751D03*
X183654050Y-80081751D03*
D11*
X183754050Y-78781749D03*
D10*
X182904051Y-78781749D03*
X182404049Y-78781749D03*
X181904050Y-78781749D03*
X181404051Y-78781749D03*
X180904050Y-78781749D03*
X180404050Y-78781749D03*
X179904049Y-78781749D03*
X179404050Y-78781749D03*
X178904051Y-78781749D03*
X178404049Y-78781749D03*
D11*
X177554050Y-78781749D03*
D12*
X176334048Y-79702750D03*
X184974052Y-79702750D03*
D13*
X176334048Y-74342750D03*
X184974052Y-74342750D03*
%TD*%
D14*
%TO.C,TP22*%
X111400000Y-98350000D03*
%TD*%
%TO.C,TP29*%
X189950000Y-99600000D03*
%TD*%
%TO.C,TP24*%
X182650000Y-95100000D03*
%TD*%
%TO.C,TP5*%
X140200000Y-107100000D03*
%TD*%
D15*
%TO.C,J4*%
X186350000Y-88120000D03*
D16*
X186350000Y-90660000D03*
X186350000Y-93200000D03*
X186350000Y-95740000D03*
X186350000Y-98280000D03*
X186350000Y-100820000D03*
X186350000Y-103360000D03*
X186350000Y-105900000D03*
X186350000Y-108440000D03*
X186350000Y-110980000D03*
X186350000Y-113520000D03*
X186350000Y-116060000D03*
X186350000Y-118600000D03*
X186350000Y-121140000D03*
X186350000Y-123680000D03*
%TD*%
D14*
%TO.C,TP13*%
X198250000Y-104900000D03*
%TD*%
%TO.C,TP18*%
X177000000Y-108600000D03*
%TD*%
%TO.C,TP16*%
X172100000Y-126650000D03*
%TD*%
%TO.C,TP15*%
X158575000Y-119600000D03*
%TD*%
%TO.C,TP21*%
X113550000Y-96250000D03*
%TD*%
%TO.C,TP11*%
X155400000Y-118450000D03*
%TD*%
%TO.C,TP10*%
X162950000Y-74050000D03*
%TD*%
%TO.C,TP4*%
X150950000Y-86900000D03*
%TD*%
%TO.C,TP7*%
X139650000Y-95900000D03*
%TD*%
%TO.C,TP6*%
X143350000Y-109050000D03*
%TD*%
%TO.C,TP17*%
X113150000Y-81700000D03*
%TD*%
%TO.C,TP3*%
X156250000Y-89900000D03*
%TD*%
%TO.C,TP12*%
X158650000Y-85650000D03*
%TD*%
%TO.C,TP14*%
X126650000Y-113550000D03*
%TD*%
%TO.C,TP19*%
X192350000Y-82100000D03*
%TD*%
%TO.C,TP20*%
X115950000Y-94350000D03*
%TD*%
%TO.C,TP8*%
X135300000Y-105700000D03*
%TD*%
%TO.C,TP2*%
X124850000Y-74600000D03*
%TD*%
%TO.C,TP9*%
X150250000Y-118650000D03*
%TD*%
D17*
%TO.C,U3*%
X112657181Y-105214645D03*
X120435355Y-112992819D03*
%TD*%
D14*
%TO.C,TP23*%
X131200000Y-109600000D03*
%TD*%
%TO.C,TP1*%
X149025000Y-77200000D03*
%TD*%
D18*
%TO.C,D9*%
X160700000Y-73850000D03*
X160700000Y-77150000D03*
%TD*%
D19*
%TO.C,C8*%
X147275000Y-99105000D03*
X147275000Y-101180000D03*
%TD*%
D20*
%TO.C,D8*%
X174454765Y-117454765D03*
X175692201Y-116217329D03*
%TD*%
D21*
%TO.C,R9*%
X145275000Y-88900000D03*
X143984530Y-90190470D03*
%TD*%
D22*
%TO.C,C43*%
X147225000Y-105180000D03*
X147225000Y-103105000D03*
%TD*%
D23*
%TO.C,R6*%
X198975000Y-99737500D03*
X198975000Y-101562500D03*
%TD*%
D24*
%TO.C,C12*%
X172633623Y-82916377D03*
X171166377Y-84383623D03*
%TD*%
%TO.C,C7*%
X174133623Y-84416377D03*
X172666377Y-85883623D03*
%TD*%
D25*
%TO.C,C35*%
X159433623Y-89933623D03*
X157966377Y-88466377D03*
%TD*%
D26*
%TO.C,R20*%
X189879050Y-77181751D03*
X188054050Y-77181751D03*
%TD*%
D23*
%TO.C,R7*%
X190175000Y-109587500D03*
X190175000Y-111412500D03*
%TD*%
D27*
%TO.C,C36*%
X172566377Y-105866377D03*
X174033623Y-107333623D03*
%TD*%
D26*
%TO.C,R38*%
X163687500Y-115900000D03*
X161862500Y-115900000D03*
%TD*%
D25*
%TO.C,C39*%
X151500000Y-97900000D03*
X150032754Y-96432754D03*
%TD*%
D28*
%TO.C,R39*%
X166712500Y-118950000D03*
X168537500Y-118950000D03*
%TD*%
D25*
%TO.C,C33*%
X156233623Y-93133623D03*
X154766377Y-91666377D03*
%TD*%
D28*
%TO.C,R16*%
X170300000Y-80050201D03*
X172125000Y-80050201D03*
%TD*%
D24*
%TO.C,C38*%
X156853355Y-111941037D03*
X155386109Y-113408283D03*
%TD*%
D29*
%TO.C,U2*%
X179700000Y-82800000D03*
X180649999Y-82800000D03*
X181599998Y-82800000D03*
X181599998Y-85075000D03*
X180649999Y-85075000D03*
X179700000Y-85075000D03*
%TD*%
D28*
%TO.C,R13*%
X163987500Y-76250000D03*
X165812500Y-76250000D03*
%TD*%
D30*
%TO.C,IC2*%
X172593429Y-102212346D03*
X172133810Y-102671966D03*
X171674190Y-103131585D03*
X171214571Y-103591204D03*
X170754951Y-104050824D03*
X170295332Y-104510443D03*
X169835712Y-104970063D03*
X169376093Y-105429682D03*
X168916474Y-105889301D03*
X168456854Y-106348921D03*
X167997235Y-106808540D03*
X167537615Y-107268160D03*
X167077996Y-107727779D03*
X166618377Y-108187398D03*
X166158757Y-108647018D03*
X165699138Y-109106637D03*
X165239518Y-109566257D03*
X164779899Y-110025876D03*
X164320280Y-110485496D03*
X163860660Y-110945115D03*
D31*
X161739340Y-110945115D03*
X161279720Y-110485496D03*
X160820101Y-110025876D03*
X160360482Y-109566257D03*
X159900862Y-109106637D03*
X159441243Y-108647018D03*
X158981623Y-108187398D03*
X158522004Y-107727779D03*
X158062385Y-107268160D03*
X157602765Y-106808540D03*
X157143146Y-106348921D03*
X156683526Y-105889301D03*
X156223907Y-105429682D03*
X155764288Y-104970063D03*
X155304668Y-104510443D03*
X154845049Y-104050824D03*
X154385429Y-103591204D03*
X153925810Y-103131585D03*
X153466190Y-102671966D03*
X153006571Y-102212346D03*
D30*
X153006571Y-100091026D03*
X153466190Y-99631406D03*
X153925810Y-99171787D03*
X154385429Y-98712168D03*
X154845049Y-98252548D03*
X155304668Y-97792929D03*
X155764288Y-97333309D03*
X156223907Y-96873690D03*
X156683526Y-96414071D03*
X157143146Y-95954451D03*
X157602765Y-95494832D03*
X158062385Y-95035212D03*
X158522004Y-94575593D03*
X158981623Y-94115974D03*
X159441243Y-93656354D03*
X159900862Y-93196735D03*
X160360482Y-92737115D03*
X160820101Y-92277496D03*
X161279720Y-91817876D03*
X161739340Y-91358257D03*
D31*
X163860660Y-91358257D03*
X164320280Y-91817876D03*
X164779899Y-92277496D03*
X165239518Y-92737115D03*
X165699138Y-93196735D03*
X166158757Y-93656354D03*
X166618377Y-94115974D03*
X167077996Y-94575593D03*
X167537615Y-95035212D03*
X167997235Y-95494832D03*
X168456854Y-95954451D03*
X168916474Y-96414071D03*
X169376093Y-96873690D03*
X169835712Y-97333309D03*
X170295332Y-97792929D03*
X170754951Y-98252548D03*
X171214571Y-98712168D03*
X171674190Y-99171787D03*
X172133810Y-99631406D03*
X172593429Y-100091026D03*
D32*
X162800000Y-101151686D03*
%TD*%
D33*
%TO.C,B-*%
X146375000Y-76100000D03*
%TD*%
D34*
%TO.C,C48*%
X150937500Y-84700000D03*
X148862500Y-84700000D03*
%TD*%
D19*
%TO.C,C1*%
X142900000Y-126962500D03*
X142900000Y-129037500D03*
%TD*%
D27*
%TO.C,C4*%
X178716377Y-91766377D03*
X180183623Y-93233623D03*
%TD*%
D35*
%TO.C,BATT*%
X132400000Y-102100000D03*
%TD*%
D23*
%TO.C,R40*%
X153800000Y-79487500D03*
X153800000Y-81312500D03*
%TD*%
D28*
%TO.C,R35*%
X145562500Y-97180000D03*
X147387500Y-97180000D03*
%TD*%
D36*
%TO.C,R36*%
X152774497Y-108429425D03*
X154064967Y-109719895D03*
%TD*%
D37*
%TO.C,R37*%
X183775000Y-114662500D03*
X183775000Y-112837500D03*
%TD*%
D33*
%TO.C,U4*%
X166725000Y-73950000D03*
D38*
X164925000Y-73950000D03*
X168525000Y-73950000D03*
%TD*%
D39*
%TO.C,U10*%
X151206250Y-79431250D03*
X151206250Y-80381250D03*
X151206250Y-81331250D03*
X148931250Y-81331250D03*
X148931250Y-79431250D03*
%TD*%
D23*
%TO.C,R25*%
X174275000Y-77137500D03*
X174275000Y-78962500D03*
%TD*%
D40*
%TO.C,J2*%
X143790000Y-99240000D03*
X144806000Y-104320000D03*
X142774000Y-104320000D03*
D41*
X144425000Y-100510000D03*
X143155000Y-100510000D03*
X144425000Y-101780000D03*
X143155000Y-101780000D03*
X144425000Y-103050000D03*
X143155000Y-103050000D03*
%TD*%
D27*
%TO.C,C37*%
X167007754Y-112332754D03*
X168475000Y-113800000D03*
%TD*%
D19*
%TO.C,C3*%
X153600000Y-126962500D03*
X153600000Y-129037500D03*
%TD*%
D37*
%TO.C,R5*%
X192375000Y-77950000D03*
X192375000Y-76125000D03*
%TD*%
D34*
%TO.C,C47*%
X157837500Y-79700000D03*
X155762500Y-79700000D03*
%TD*%
D42*
%TO.C,L1*%
X170816986Y-87416986D03*
X169650260Y-86250260D03*
%TD*%
D36*
%TO.C,R18*%
X168750000Y-109300000D03*
X170040470Y-110590470D03*
%TD*%
D33*
%TO.C,B+*%
X143175000Y-76100000D03*
%TD*%
D22*
%TO.C,C13*%
X174300000Y-75437500D03*
X174300000Y-73362500D03*
%TD*%
D43*
%TO.C,U1*%
X180941322Y-97247245D03*
X180043296Y-98145271D03*
X179145271Y-99043296D03*
X178247245Y-99941322D03*
X174658678Y-96352755D03*
X175556704Y-95454729D03*
X176454729Y-94556704D03*
X177352755Y-93658678D03*
%TD*%
D44*
%TO.C,C34*%
X173966377Y-92733623D03*
X175433623Y-91266377D03*
%TD*%
D25*
%TO.C,C32*%
X151653355Y-107008283D03*
X150186109Y-105541037D03*
%TD*%
D28*
%TO.C,R4*%
X142387500Y-79600000D03*
X144212500Y-79600000D03*
%TD*%
D19*
%TO.C,C2*%
X147000000Y-126950000D03*
X147000000Y-129025000D03*
%TD*%
D21*
%TO.C,R32*%
X166278858Y-84388388D03*
X164988388Y-85678858D03*
%TD*%
D45*
%TO.C,R12*%
X145865470Y-116120470D03*
X144575000Y-114830000D03*
%TD*%
D21*
%TO.C,R33*%
X174190470Y-89859530D03*
X172900000Y-91150000D03*
%TD*%
D25*
%TO.C,C29*%
X169167246Y-89367246D03*
X167700000Y-87900000D03*
%TD*%
D35*
%TO.C,BATT*%
X108400000Y-102200000D03*
%TD*%
D26*
%TO.C,R22*%
X189916550Y-80181751D03*
X188091550Y-80181751D03*
%TD*%
D44*
%TO.C,C45*%
X146624587Y-110372101D03*
X148091833Y-108904855D03*
%TD*%
D37*
%TO.C,R34*%
X149975000Y-102942500D03*
X149975000Y-101117500D03*
%TD*%
D27*
%TO.C,C31*%
X170300000Y-108100000D03*
X171767246Y-109567246D03*
%TD*%
D36*
%TO.C,R24*%
X173109530Y-113609530D03*
X174400000Y-114900000D03*
%TD*%
D21*
%TO.C,R8*%
X144125000Y-87700000D03*
X142834530Y-88990470D03*
%TD*%
D45*
%TO.C,R11*%
X143915470Y-118190470D03*
X142625000Y-116900000D03*
%TD*%
D25*
%TO.C,C40*%
X154733623Y-94633623D03*
X153266377Y-93166377D03*
%TD*%
D19*
%TO.C,C5*%
X161550000Y-127000000D03*
X161550000Y-129075000D03*
%TD*%
D24*
%TO.C,C44*%
X154053355Y-114692723D03*
X152586109Y-116159969D03*
%TD*%
D46*
%TO.C,Q4*%
X161650000Y-80937500D03*
X159750000Y-80937500D03*
X160700000Y-79062500D03*
%TD*%
D19*
%TO.C,C6*%
X169500000Y-126962500D03*
X169500000Y-129037500D03*
%TD*%
D47*
%TO.C,SW3*%
X151250000Y-73845000D03*
X151250000Y-76055000D03*
D48*
X153400000Y-74945000D03*
X156400000Y-74945000D03*
D47*
X158550000Y-73845000D03*
X158550000Y-76055000D03*
D49*
X152650000Y-76705000D03*
X155650000Y-76705000D03*
X157150000Y-76705000D03*
%TD*%
D26*
%TO.C,R41*%
X150612500Y-82900000D03*
X148787500Y-82900000D03*
%TD*%
D50*
%TO.C,R1*%
X180534530Y-102440470D03*
X181825000Y-101150000D03*
%TD*%
D51*
%TO.C,C9*%
X168212500Y-81950000D03*
X170287500Y-81950000D03*
%TD*%
D21*
%TO.C,R31*%
X173045235Y-88754765D03*
X171754765Y-90045235D03*
%TD*%
D52*
%TO.C,Y1*%
X150470342Y-114276956D03*
X148419732Y-112226346D03*
X150046078Y-110600000D03*
X152096688Y-112650610D03*
%TD*%
D26*
%TO.C,R42*%
X161612500Y-82800000D03*
X159787500Y-82800000D03*
%TD*%
%TO.C,R43*%
X157712500Y-82800000D03*
X155887500Y-82800000D03*
%TD*%
D27*
%TO.C,C46*%
X165441377Y-113916377D03*
X166908623Y-115383623D03*
%TD*%
D53*
%TO.C,U8*%
X164780000Y-123405100D03*
X163510000Y-123405100D03*
X162240000Y-123405100D03*
X160970000Y-123405100D03*
X160970000Y-117994900D03*
X162240000Y-117994900D03*
X163510000Y-117994900D03*
X164780000Y-117994900D03*
%TD*%
D27*
%TO.C,C41*%
X175366377Y-102366377D03*
X176833623Y-103833623D03*
%TD*%
D51*
%TO.C,C25*%
X163675000Y-78100000D03*
X165750000Y-78100000D03*
%TD*%
D21*
%TO.C,R10*%
X146475000Y-90150000D03*
X145184530Y-91440470D03*
%TD*%
D44*
%TO.C,C28*%
X162400000Y-88467246D03*
X163867246Y-87000000D03*
%TD*%
D28*
%TO.C,R19*%
X170345950Y-77158450D03*
X172170950Y-77158450D03*
%TD*%
D25*
%TO.C,C30*%
X167667246Y-90867246D03*
X166200000Y-89400000D03*
%TD*%
M02*
