%TF.GenerationSoftware,KiCad,Pcbnew,9.0.5*%
%TF.CreationDate,2025-11-12T17:07:30-08:00*%
%TF.ProjectId,SYCL Badge 2024,5359434c-2042-4616-9467-652032303234,rev?*%
%TF.SameCoordinates,Original*%
%TF.FileFunction,Legend,Bot*%
%TF.FilePolarity,Positive*%
%FSLAX46Y46*%
G04 Gerber Fmt 4.6, Leading zero omitted, Abs format (unit mm)*
G04 Created by KiCad (PCBNEW 9.0.5) date 2025-11-12 17:07:30*
%MOMM*%
%LPD*%
G01*
G04 APERTURE LIST*
%ADD10C,0.050000*%
%ADD11C,0.150000*%
%ADD12C,0.152400*%
%ADD13C,0.508000*%
%ADD14C,0.120000*%
G04 APERTURE END LIST*
D10*
X141400000Y-72150000D02*
X141400000Y-131050000D01*
D11*
X180987383Y-75796869D02*
X180987383Y-76511154D01*
X180987383Y-76511154D02*
X181035002Y-76654011D01*
X181035002Y-76654011D02*
X181130240Y-76749250D01*
X181130240Y-76749250D02*
X181273097Y-76796869D01*
X181273097Y-76796869D02*
X181368335Y-76796869D01*
X180035002Y-75796869D02*
X180511192Y-75796869D01*
X180511192Y-75796869D02*
X180558811Y-76273059D01*
X180558811Y-76273059D02*
X180511192Y-76225440D01*
X180511192Y-76225440D02*
X180415954Y-76177821D01*
X180415954Y-76177821D02*
X180177859Y-76177821D01*
X180177859Y-76177821D02*
X180082621Y-76225440D01*
X180082621Y-76225440D02*
X180035002Y-76273059D01*
X180035002Y-76273059D02*
X179987383Y-76368297D01*
X179987383Y-76368297D02*
X179987383Y-76606392D01*
X179987383Y-76606392D02*
X180035002Y-76701630D01*
X180035002Y-76701630D02*
X180082621Y-76749250D01*
X180082621Y-76749250D02*
X180177859Y-76796869D01*
X180177859Y-76796869D02*
X180415954Y-76796869D01*
X180415954Y-76796869D02*
X180511192Y-76749250D01*
X180511192Y-76749250D02*
X180558811Y-76701630D01*
X159338094Y-78604819D02*
X159338094Y-77604819D01*
X159338094Y-77604819D02*
X159099999Y-77604819D01*
X159099999Y-77604819D02*
X158957142Y-77652438D01*
X158957142Y-77652438D02*
X158861904Y-77747676D01*
X158861904Y-77747676D02*
X158814285Y-77842914D01*
X158814285Y-77842914D02*
X158766666Y-78033390D01*
X158766666Y-78033390D02*
X158766666Y-78176247D01*
X158766666Y-78176247D02*
X158814285Y-78366723D01*
X158814285Y-78366723D02*
X158861904Y-78461961D01*
X158861904Y-78461961D02*
X158957142Y-78557200D01*
X158957142Y-78557200D02*
X159099999Y-78604819D01*
X159099999Y-78604819D02*
X159338094Y-78604819D01*
X158290475Y-78604819D02*
X158099999Y-78604819D01*
X158099999Y-78604819D02*
X158004761Y-78557200D01*
X158004761Y-78557200D02*
X157957142Y-78509580D01*
X157957142Y-78509580D02*
X157861904Y-78366723D01*
X157861904Y-78366723D02*
X157814285Y-78176247D01*
X157814285Y-78176247D02*
X157814285Y-77795295D01*
X157814285Y-77795295D02*
X157861904Y-77700057D01*
X157861904Y-77700057D02*
X157909523Y-77652438D01*
X157909523Y-77652438D02*
X158004761Y-77604819D01*
X158004761Y-77604819D02*
X158195237Y-77604819D01*
X158195237Y-77604819D02*
X158290475Y-77652438D01*
X158290475Y-77652438D02*
X158338094Y-77700057D01*
X158338094Y-77700057D02*
X158385713Y-77795295D01*
X158385713Y-77795295D02*
X158385713Y-78033390D01*
X158385713Y-78033390D02*
X158338094Y-78128628D01*
X158338094Y-78128628D02*
X158290475Y-78176247D01*
X158290475Y-78176247D02*
X158195237Y-78223866D01*
X158195237Y-78223866D02*
X158004761Y-78223866D01*
X158004761Y-78223866D02*
X157909523Y-78176247D01*
X157909523Y-78176247D02*
X157861904Y-78128628D01*
X157861904Y-78128628D02*
X157814285Y-78033390D01*
X149466666Y-99309580D02*
X149514285Y-99357200D01*
X149514285Y-99357200D02*
X149657142Y-99404819D01*
X149657142Y-99404819D02*
X149752380Y-99404819D01*
X149752380Y-99404819D02*
X149895237Y-99357200D01*
X149895237Y-99357200D02*
X149990475Y-99261961D01*
X149990475Y-99261961D02*
X150038094Y-99166723D01*
X150038094Y-99166723D02*
X150085713Y-98976247D01*
X150085713Y-98976247D02*
X150085713Y-98833390D01*
X150085713Y-98833390D02*
X150038094Y-98642914D01*
X150038094Y-98642914D02*
X149990475Y-98547676D01*
X149990475Y-98547676D02*
X149895237Y-98452438D01*
X149895237Y-98452438D02*
X149752380Y-98404819D01*
X149752380Y-98404819D02*
X149657142Y-98404819D01*
X149657142Y-98404819D02*
X149514285Y-98452438D01*
X149514285Y-98452438D02*
X149466666Y-98500057D01*
X148895237Y-98833390D02*
X148990475Y-98785771D01*
X148990475Y-98785771D02*
X149038094Y-98738152D01*
X149038094Y-98738152D02*
X149085713Y-98642914D01*
X149085713Y-98642914D02*
X149085713Y-98595295D01*
X149085713Y-98595295D02*
X149038094Y-98500057D01*
X149038094Y-98500057D02*
X148990475Y-98452438D01*
X148990475Y-98452438D02*
X148895237Y-98404819D01*
X148895237Y-98404819D02*
X148704761Y-98404819D01*
X148704761Y-98404819D02*
X148609523Y-98452438D01*
X148609523Y-98452438D02*
X148561904Y-98500057D01*
X148561904Y-98500057D02*
X148514285Y-98595295D01*
X148514285Y-98595295D02*
X148514285Y-98642914D01*
X148514285Y-98642914D02*
X148561904Y-98738152D01*
X148561904Y-98738152D02*
X148609523Y-98785771D01*
X148609523Y-98785771D02*
X148704761Y-98833390D01*
X148704761Y-98833390D02*
X148895237Y-98833390D01*
X148895237Y-98833390D02*
X148990475Y-98881009D01*
X148990475Y-98881009D02*
X149038094Y-98928628D01*
X149038094Y-98928628D02*
X149085713Y-99023866D01*
X149085713Y-99023866D02*
X149085713Y-99214342D01*
X149085713Y-99214342D02*
X149038094Y-99309580D01*
X149038094Y-99309580D02*
X148990475Y-99357200D01*
X148990475Y-99357200D02*
X148895237Y-99404819D01*
X148895237Y-99404819D02*
X148704761Y-99404819D01*
X148704761Y-99404819D02*
X148609523Y-99357200D01*
X148609523Y-99357200D02*
X148561904Y-99309580D01*
X148561904Y-99309580D02*
X148514285Y-99214342D01*
X148514285Y-99214342D02*
X148514285Y-99023866D01*
X148514285Y-99023866D02*
X148561904Y-98928628D01*
X148561904Y-98928628D02*
X148609523Y-98881009D01*
X148609523Y-98881009D02*
X148704761Y-98833390D01*
X176334449Y-119447331D02*
X177041555Y-118740224D01*
X177041555Y-118740224D02*
X176873197Y-118571865D01*
X176873197Y-118571865D02*
X176738510Y-118504522D01*
X176738510Y-118504522D02*
X176603823Y-118504522D01*
X176603823Y-118504522D02*
X176502807Y-118538194D01*
X176502807Y-118538194D02*
X176334449Y-118639209D01*
X176334449Y-118639209D02*
X176233433Y-118740224D01*
X176233433Y-118740224D02*
X176132418Y-118908583D01*
X176132418Y-118908583D02*
X176098746Y-119009598D01*
X176098746Y-119009598D02*
X176098746Y-119144285D01*
X176098746Y-119144285D02*
X176166090Y-119278972D01*
X176166090Y-119278972D02*
X176334449Y-119447331D01*
X175930388Y-118235148D02*
X176031403Y-118268820D01*
X176031403Y-118268820D02*
X176098746Y-118268820D01*
X176098746Y-118268820D02*
X176199762Y-118235148D01*
X176199762Y-118235148D02*
X176233433Y-118201476D01*
X176233433Y-118201476D02*
X176267105Y-118100461D01*
X176267105Y-118100461D02*
X176267105Y-118033117D01*
X176267105Y-118033117D02*
X176233433Y-117932102D01*
X176233433Y-117932102D02*
X176098746Y-117797415D01*
X176098746Y-117797415D02*
X175997731Y-117763743D01*
X175997731Y-117763743D02*
X175930388Y-117763743D01*
X175930388Y-117763743D02*
X175829372Y-117797415D01*
X175829372Y-117797415D02*
X175795701Y-117831087D01*
X175795701Y-117831087D02*
X175762029Y-117932102D01*
X175762029Y-117932102D02*
X175762029Y-117999446D01*
X175762029Y-117999446D02*
X175795701Y-118100461D01*
X175795701Y-118100461D02*
X175930388Y-118235148D01*
X175930388Y-118235148D02*
X175964059Y-118336163D01*
X175964059Y-118336163D02*
X175964059Y-118403507D01*
X175964059Y-118403507D02*
X175930388Y-118504522D01*
X175930388Y-118504522D02*
X175795701Y-118639209D01*
X175795701Y-118639209D02*
X175694685Y-118672881D01*
X175694685Y-118672881D02*
X175627342Y-118672881D01*
X175627342Y-118672881D02*
X175526327Y-118639209D01*
X175526327Y-118639209D02*
X175391640Y-118504522D01*
X175391640Y-118504522D02*
X175357968Y-118403507D01*
X175357968Y-118403507D02*
X175357968Y-118336163D01*
X175357968Y-118336163D02*
X175391640Y-118235148D01*
X175391640Y-118235148D02*
X175526327Y-118100461D01*
X175526327Y-118100461D02*
X175627342Y-118066789D01*
X175627342Y-118066789D02*
X175694685Y-118066789D01*
X175694685Y-118066789D02*
X175795701Y-118100461D01*
X147014456Y-87953754D02*
X146913441Y-87381335D01*
X147418517Y-87549693D02*
X146711410Y-86842587D01*
X146711410Y-86842587D02*
X146442036Y-87111961D01*
X146442036Y-87111961D02*
X146408364Y-87212976D01*
X146408364Y-87212976D02*
X146408364Y-87280319D01*
X146408364Y-87280319D02*
X146442036Y-87381335D01*
X146442036Y-87381335D02*
X146543051Y-87482350D01*
X146543051Y-87482350D02*
X146644067Y-87516022D01*
X146644067Y-87516022D02*
X146711410Y-87516022D01*
X146711410Y-87516022D02*
X146812425Y-87482350D01*
X146812425Y-87482350D02*
X147081799Y-87212976D01*
X146677738Y-88290472D02*
X146543051Y-88425159D01*
X146543051Y-88425159D02*
X146442036Y-88458831D01*
X146442036Y-88458831D02*
X146374693Y-88458831D01*
X146374693Y-88458831D02*
X146206334Y-88425159D01*
X146206334Y-88425159D02*
X146037975Y-88324144D01*
X146037975Y-88324144D02*
X145768601Y-88054770D01*
X145768601Y-88054770D02*
X145734929Y-87953754D01*
X145734929Y-87953754D02*
X145734929Y-87886411D01*
X145734929Y-87886411D02*
X145768601Y-87785396D01*
X145768601Y-87785396D02*
X145903288Y-87650709D01*
X145903288Y-87650709D02*
X146004303Y-87617037D01*
X146004303Y-87617037D02*
X146071647Y-87617037D01*
X146071647Y-87617037D02*
X146172662Y-87650709D01*
X146172662Y-87650709D02*
X146341021Y-87819067D01*
X146341021Y-87819067D02*
X146374693Y-87920083D01*
X146374693Y-87920083D02*
X146374693Y-87987426D01*
X146374693Y-87987426D02*
X146341021Y-88088441D01*
X146341021Y-88088441D02*
X146206334Y-88223128D01*
X146206334Y-88223128D02*
X146105319Y-88256800D01*
X146105319Y-88256800D02*
X146037975Y-88256800D01*
X146037975Y-88256800D02*
X145936960Y-88223128D01*
X145392857Y-106459580D02*
X145440476Y-106507200D01*
X145440476Y-106507200D02*
X145583333Y-106554819D01*
X145583333Y-106554819D02*
X145678571Y-106554819D01*
X145678571Y-106554819D02*
X145821428Y-106507200D01*
X145821428Y-106507200D02*
X145916666Y-106411961D01*
X145916666Y-106411961D02*
X145964285Y-106316723D01*
X145964285Y-106316723D02*
X146011904Y-106126247D01*
X146011904Y-106126247D02*
X146011904Y-105983390D01*
X146011904Y-105983390D02*
X145964285Y-105792914D01*
X145964285Y-105792914D02*
X145916666Y-105697676D01*
X145916666Y-105697676D02*
X145821428Y-105602438D01*
X145821428Y-105602438D02*
X145678571Y-105554819D01*
X145678571Y-105554819D02*
X145583333Y-105554819D01*
X145583333Y-105554819D02*
X145440476Y-105602438D01*
X145440476Y-105602438D02*
X145392857Y-105650057D01*
X144535714Y-105888152D02*
X144535714Y-106554819D01*
X144773809Y-105507200D02*
X145011904Y-106221485D01*
X145011904Y-106221485D02*
X144392857Y-106221485D01*
X144107142Y-105554819D02*
X143488095Y-105554819D01*
X143488095Y-105554819D02*
X143821428Y-105935771D01*
X143821428Y-105935771D02*
X143678571Y-105935771D01*
X143678571Y-105935771D02*
X143583333Y-105983390D01*
X143583333Y-105983390D02*
X143535714Y-106031009D01*
X143535714Y-106031009D02*
X143488095Y-106126247D01*
X143488095Y-106126247D02*
X143488095Y-106364342D01*
X143488095Y-106364342D02*
X143535714Y-106459580D01*
X143535714Y-106459580D02*
X143583333Y-106507200D01*
X143583333Y-106507200D02*
X143678571Y-106554819D01*
X143678571Y-106554819D02*
X143964285Y-106554819D01*
X143964285Y-106554819D02*
X144059523Y-106507200D01*
X144059523Y-106507200D02*
X144107142Y-106459580D01*
X197804819Y-102583333D02*
X197328628Y-102250000D01*
X197804819Y-102011905D02*
X196804819Y-102011905D01*
X196804819Y-102011905D02*
X196804819Y-102392857D01*
X196804819Y-102392857D02*
X196852438Y-102488095D01*
X196852438Y-102488095D02*
X196900057Y-102535714D01*
X196900057Y-102535714D02*
X196995295Y-102583333D01*
X196995295Y-102583333D02*
X197138152Y-102583333D01*
X197138152Y-102583333D02*
X197233390Y-102535714D01*
X197233390Y-102535714D02*
X197281009Y-102488095D01*
X197281009Y-102488095D02*
X197328628Y-102392857D01*
X197328628Y-102392857D02*
X197328628Y-102011905D01*
X196804819Y-103440476D02*
X196804819Y-103250000D01*
X196804819Y-103250000D02*
X196852438Y-103154762D01*
X196852438Y-103154762D02*
X196900057Y-103107143D01*
X196900057Y-103107143D02*
X197042914Y-103011905D01*
X197042914Y-103011905D02*
X197233390Y-102964286D01*
X197233390Y-102964286D02*
X197614342Y-102964286D01*
X197614342Y-102964286D02*
X197709580Y-103011905D01*
X197709580Y-103011905D02*
X197757200Y-103059524D01*
X197757200Y-103059524D02*
X197804819Y-103154762D01*
X197804819Y-103154762D02*
X197804819Y-103345238D01*
X197804819Y-103345238D02*
X197757200Y-103440476D01*
X197757200Y-103440476D02*
X197709580Y-103488095D01*
X197709580Y-103488095D02*
X197614342Y-103535714D01*
X197614342Y-103535714D02*
X197376247Y-103535714D01*
X197376247Y-103535714D02*
X197281009Y-103488095D01*
X197281009Y-103488095D02*
X197233390Y-103440476D01*
X197233390Y-103440476D02*
X197185771Y-103345238D01*
X197185771Y-103345238D02*
X197185771Y-103154762D01*
X197185771Y-103154762D02*
X197233390Y-103059524D01*
X197233390Y-103059524D02*
X197281009Y-103011905D01*
X197281009Y-103011905D02*
X197376247Y-102964286D01*
X174250306Y-82858830D02*
X174250306Y-82926174D01*
X174250306Y-82926174D02*
X174317650Y-83060861D01*
X174317650Y-83060861D02*
X174384993Y-83128204D01*
X174384993Y-83128204D02*
X174519680Y-83195548D01*
X174519680Y-83195548D02*
X174654367Y-83195548D01*
X174654367Y-83195548D02*
X174755382Y-83161876D01*
X174755382Y-83161876D02*
X174923741Y-83060861D01*
X174923741Y-83060861D02*
X175024756Y-82959846D01*
X175024756Y-82959846D02*
X175125772Y-82791487D01*
X175125772Y-82791487D02*
X175159443Y-82690472D01*
X175159443Y-82690472D02*
X175159443Y-82555785D01*
X175159443Y-82555785D02*
X175092100Y-82421098D01*
X175092100Y-82421098D02*
X175024756Y-82353754D01*
X175024756Y-82353754D02*
X174890069Y-82286411D01*
X174890069Y-82286411D02*
X174822726Y-82286411D01*
X173509528Y-82252739D02*
X173913589Y-82656800D01*
X173711558Y-82454769D02*
X174418665Y-81747663D01*
X174418665Y-81747663D02*
X174384993Y-81916021D01*
X174384993Y-81916021D02*
X174384993Y-82050708D01*
X174384993Y-82050708D02*
X174418665Y-82151724D01*
X173879917Y-81343601D02*
X173879917Y-81276258D01*
X173879917Y-81276258D02*
X173846245Y-81175243D01*
X173846245Y-81175243D02*
X173677886Y-81006884D01*
X173677886Y-81006884D02*
X173576871Y-80973212D01*
X173576871Y-80973212D02*
X173509527Y-80973212D01*
X173509527Y-80973212D02*
X173408512Y-81006884D01*
X173408512Y-81006884D02*
X173341169Y-81074227D01*
X173341169Y-81074227D02*
X173273825Y-81208914D01*
X173273825Y-81208914D02*
X173273825Y-82017036D01*
X173273825Y-82017036D02*
X172836092Y-81579304D01*
X175022112Y-86536411D02*
X175089456Y-86536411D01*
X175089456Y-86536411D02*
X175224143Y-86469067D01*
X175224143Y-86469067D02*
X175291486Y-86401724D01*
X175291486Y-86401724D02*
X175358830Y-86267037D01*
X175358830Y-86267037D02*
X175358830Y-86132350D01*
X175358830Y-86132350D02*
X175325158Y-86031335D01*
X175325158Y-86031335D02*
X175224143Y-85862976D01*
X175224143Y-85862976D02*
X175123128Y-85761961D01*
X175123128Y-85761961D02*
X174954769Y-85660945D01*
X174954769Y-85660945D02*
X174853754Y-85627274D01*
X174853754Y-85627274D02*
X174719067Y-85627274D01*
X174719067Y-85627274D02*
X174584380Y-85694617D01*
X174584380Y-85694617D02*
X174517036Y-85761961D01*
X174517036Y-85761961D02*
X174449693Y-85896648D01*
X174449693Y-85896648D02*
X174449693Y-85963991D01*
X174146647Y-86132350D02*
X173675242Y-86603754D01*
X173675242Y-86603754D02*
X174685395Y-87007815D01*
X156500306Y-87508830D02*
X156500306Y-87576174D01*
X156500306Y-87576174D02*
X156567650Y-87710861D01*
X156567650Y-87710861D02*
X156634993Y-87778204D01*
X156634993Y-87778204D02*
X156769680Y-87845548D01*
X156769680Y-87845548D02*
X156904367Y-87845548D01*
X156904367Y-87845548D02*
X157005382Y-87811876D01*
X157005382Y-87811876D02*
X157173741Y-87710861D01*
X157173741Y-87710861D02*
X157274756Y-87609846D01*
X157274756Y-87609846D02*
X157375772Y-87441487D01*
X157375772Y-87441487D02*
X157409443Y-87340472D01*
X157409443Y-87340472D02*
X157409443Y-87205785D01*
X157409443Y-87205785D02*
X157342100Y-87071098D01*
X157342100Y-87071098D02*
X157274756Y-87003754D01*
X157274756Y-87003754D02*
X157140069Y-86936411D01*
X157140069Y-86936411D02*
X157072726Y-86936411D01*
X156904367Y-86633365D02*
X156466634Y-86195632D01*
X156466634Y-86195632D02*
X156432963Y-86700708D01*
X156432963Y-86700708D02*
X156331947Y-86599693D01*
X156331947Y-86599693D02*
X156230932Y-86566021D01*
X156230932Y-86566021D02*
X156163589Y-86566021D01*
X156163589Y-86566021D02*
X156062573Y-86599693D01*
X156062573Y-86599693D02*
X155894215Y-86768052D01*
X155894215Y-86768052D02*
X155860543Y-86869067D01*
X155860543Y-86869067D02*
X155860543Y-86936411D01*
X155860543Y-86936411D02*
X155894215Y-87037426D01*
X155894215Y-87037426D02*
X156096245Y-87239456D01*
X156096245Y-87239456D02*
X156197260Y-87273128D01*
X156197260Y-87273128D02*
X156264604Y-87273128D01*
X155826871Y-85555869D02*
X156163589Y-85892586D01*
X156163589Y-85892586D02*
X155860543Y-86262975D01*
X155860543Y-86262975D02*
X155860543Y-86195632D01*
X155860543Y-86195632D02*
X155826871Y-86094617D01*
X155826871Y-86094617D02*
X155658512Y-85926258D01*
X155658512Y-85926258D02*
X155557497Y-85892586D01*
X155557497Y-85892586D02*
X155490153Y-85892586D01*
X155490153Y-85892586D02*
X155389138Y-85926258D01*
X155389138Y-85926258D02*
X155220779Y-86094617D01*
X155220779Y-86094617D02*
X155187108Y-86195632D01*
X155187108Y-86195632D02*
X155187108Y-86262975D01*
X155187108Y-86262975D02*
X155220779Y-86363991D01*
X155220779Y-86363991D02*
X155389138Y-86532349D01*
X155389138Y-86532349D02*
X155490153Y-86566021D01*
X155490153Y-86566021D02*
X155557497Y-86566021D01*
X189609407Y-76206570D02*
X189942740Y-75730379D01*
X190180835Y-76206570D02*
X190180835Y-75206570D01*
X190180835Y-75206570D02*
X189799883Y-75206570D01*
X189799883Y-75206570D02*
X189704645Y-75254189D01*
X189704645Y-75254189D02*
X189657026Y-75301808D01*
X189657026Y-75301808D02*
X189609407Y-75397046D01*
X189609407Y-75397046D02*
X189609407Y-75539903D01*
X189609407Y-75539903D02*
X189657026Y-75635141D01*
X189657026Y-75635141D02*
X189704645Y-75682760D01*
X189704645Y-75682760D02*
X189799883Y-75730379D01*
X189799883Y-75730379D02*
X190180835Y-75730379D01*
X189228454Y-75301808D02*
X189180835Y-75254189D01*
X189180835Y-75254189D02*
X189085597Y-75206570D01*
X189085597Y-75206570D02*
X188847502Y-75206570D01*
X188847502Y-75206570D02*
X188752264Y-75254189D01*
X188752264Y-75254189D02*
X188704645Y-75301808D01*
X188704645Y-75301808D02*
X188657026Y-75397046D01*
X188657026Y-75397046D02*
X188657026Y-75492284D01*
X188657026Y-75492284D02*
X188704645Y-75635141D01*
X188704645Y-75635141D02*
X189276073Y-76206570D01*
X189276073Y-76206570D02*
X188657026Y-76206570D01*
X188037978Y-75206570D02*
X187942740Y-75206570D01*
X187942740Y-75206570D02*
X187847502Y-75254189D01*
X187847502Y-75254189D02*
X187799883Y-75301808D01*
X187799883Y-75301808D02*
X187752264Y-75397046D01*
X187752264Y-75397046D02*
X187704645Y-75587522D01*
X187704645Y-75587522D02*
X187704645Y-75825617D01*
X187704645Y-75825617D02*
X187752264Y-76016093D01*
X187752264Y-76016093D02*
X187799883Y-76111331D01*
X187799883Y-76111331D02*
X187847502Y-76158951D01*
X187847502Y-76158951D02*
X187942740Y-76206570D01*
X187942740Y-76206570D02*
X188037978Y-76206570D01*
X188037978Y-76206570D02*
X188133216Y-76158951D01*
X188133216Y-76158951D02*
X188180835Y-76111331D01*
X188180835Y-76111331D02*
X188228454Y-76016093D01*
X188228454Y-76016093D02*
X188276073Y-75825617D01*
X188276073Y-75825617D02*
X188276073Y-75587522D01*
X188276073Y-75587522D02*
X188228454Y-75397046D01*
X188228454Y-75397046D02*
X188180835Y-75301808D01*
X188180835Y-75301808D02*
X188133216Y-75254189D01*
X188133216Y-75254189D02*
X188037978Y-75206570D01*
X192229819Y-109483333D02*
X191753628Y-109150000D01*
X192229819Y-108911905D02*
X191229819Y-108911905D01*
X191229819Y-108911905D02*
X191229819Y-109292857D01*
X191229819Y-109292857D02*
X191277438Y-109388095D01*
X191277438Y-109388095D02*
X191325057Y-109435714D01*
X191325057Y-109435714D02*
X191420295Y-109483333D01*
X191420295Y-109483333D02*
X191563152Y-109483333D01*
X191563152Y-109483333D02*
X191658390Y-109435714D01*
X191658390Y-109435714D02*
X191706009Y-109388095D01*
X191706009Y-109388095D02*
X191753628Y-109292857D01*
X191753628Y-109292857D02*
X191753628Y-108911905D01*
X191229819Y-109816667D02*
X191229819Y-110483333D01*
X191229819Y-110483333D02*
X192229819Y-110054762D01*
X175450306Y-110408830D02*
X175450306Y-110476174D01*
X175450306Y-110476174D02*
X175517650Y-110610861D01*
X175517650Y-110610861D02*
X175584993Y-110678204D01*
X175584993Y-110678204D02*
X175719680Y-110745548D01*
X175719680Y-110745548D02*
X175854367Y-110745548D01*
X175854367Y-110745548D02*
X175955382Y-110711876D01*
X175955382Y-110711876D02*
X176123741Y-110610861D01*
X176123741Y-110610861D02*
X176224756Y-110509846D01*
X176224756Y-110509846D02*
X176325772Y-110341487D01*
X176325772Y-110341487D02*
X176359443Y-110240472D01*
X176359443Y-110240472D02*
X176359443Y-110105785D01*
X176359443Y-110105785D02*
X176292100Y-109971098D01*
X176292100Y-109971098D02*
X176224756Y-109903754D01*
X176224756Y-109903754D02*
X176090069Y-109836411D01*
X176090069Y-109836411D02*
X176022726Y-109836411D01*
X175854367Y-109533365D02*
X175416634Y-109095632D01*
X175416634Y-109095632D02*
X175382963Y-109600708D01*
X175382963Y-109600708D02*
X175281947Y-109499693D01*
X175281947Y-109499693D02*
X175180932Y-109466021D01*
X175180932Y-109466021D02*
X175113589Y-109466021D01*
X175113589Y-109466021D02*
X175012573Y-109499693D01*
X175012573Y-109499693D02*
X174844215Y-109668052D01*
X174844215Y-109668052D02*
X174810543Y-109769067D01*
X174810543Y-109769067D02*
X174810543Y-109836411D01*
X174810543Y-109836411D02*
X174844215Y-109937426D01*
X174844215Y-109937426D02*
X175046245Y-110139456D01*
X175046245Y-110139456D02*
X175147260Y-110173128D01*
X175147260Y-110173128D02*
X175214604Y-110173128D01*
X174810543Y-108489540D02*
X174945230Y-108624227D01*
X174945230Y-108624227D02*
X174978901Y-108725243D01*
X174978901Y-108725243D02*
X174978901Y-108792586D01*
X174978901Y-108792586D02*
X174945230Y-108960945D01*
X174945230Y-108960945D02*
X174844214Y-109129304D01*
X174844214Y-109129304D02*
X174574840Y-109398678D01*
X174574840Y-109398678D02*
X174473825Y-109432349D01*
X174473825Y-109432349D02*
X174406482Y-109432349D01*
X174406482Y-109432349D02*
X174305466Y-109398678D01*
X174305466Y-109398678D02*
X174170779Y-109263991D01*
X174170779Y-109263991D02*
X174137108Y-109162975D01*
X174137108Y-109162975D02*
X174137108Y-109095632D01*
X174137108Y-109095632D02*
X174170779Y-108994617D01*
X174170779Y-108994617D02*
X174339138Y-108826258D01*
X174339138Y-108826258D02*
X174440153Y-108792586D01*
X174440153Y-108792586D02*
X174507497Y-108792586D01*
X174507497Y-108792586D02*
X174608512Y-108826258D01*
X174608512Y-108826258D02*
X174743199Y-108960945D01*
X174743199Y-108960945D02*
X174776871Y-109061960D01*
X174776871Y-109061960D02*
X174776871Y-109129304D01*
X174776871Y-109129304D02*
X174743199Y-109230319D01*
X160317857Y-116354819D02*
X160651190Y-115878628D01*
X160889285Y-116354819D02*
X160889285Y-115354819D01*
X160889285Y-115354819D02*
X160508333Y-115354819D01*
X160508333Y-115354819D02*
X160413095Y-115402438D01*
X160413095Y-115402438D02*
X160365476Y-115450057D01*
X160365476Y-115450057D02*
X160317857Y-115545295D01*
X160317857Y-115545295D02*
X160317857Y-115688152D01*
X160317857Y-115688152D02*
X160365476Y-115783390D01*
X160365476Y-115783390D02*
X160413095Y-115831009D01*
X160413095Y-115831009D02*
X160508333Y-115878628D01*
X160508333Y-115878628D02*
X160889285Y-115878628D01*
X159984523Y-115354819D02*
X159365476Y-115354819D01*
X159365476Y-115354819D02*
X159698809Y-115735771D01*
X159698809Y-115735771D02*
X159555952Y-115735771D01*
X159555952Y-115735771D02*
X159460714Y-115783390D01*
X159460714Y-115783390D02*
X159413095Y-115831009D01*
X159413095Y-115831009D02*
X159365476Y-115926247D01*
X159365476Y-115926247D02*
X159365476Y-116164342D01*
X159365476Y-116164342D02*
X159413095Y-116259580D01*
X159413095Y-116259580D02*
X159460714Y-116307200D01*
X159460714Y-116307200D02*
X159555952Y-116354819D01*
X159555952Y-116354819D02*
X159841666Y-116354819D01*
X159841666Y-116354819D02*
X159936904Y-116307200D01*
X159936904Y-116307200D02*
X159984523Y-116259580D01*
X158794047Y-115783390D02*
X158889285Y-115735771D01*
X158889285Y-115735771D02*
X158936904Y-115688152D01*
X158936904Y-115688152D02*
X158984523Y-115592914D01*
X158984523Y-115592914D02*
X158984523Y-115545295D01*
X158984523Y-115545295D02*
X158936904Y-115450057D01*
X158936904Y-115450057D02*
X158889285Y-115402438D01*
X158889285Y-115402438D02*
X158794047Y-115354819D01*
X158794047Y-115354819D02*
X158603571Y-115354819D01*
X158603571Y-115354819D02*
X158508333Y-115402438D01*
X158508333Y-115402438D02*
X158460714Y-115450057D01*
X158460714Y-115450057D02*
X158413095Y-115545295D01*
X158413095Y-115545295D02*
X158413095Y-115592914D01*
X158413095Y-115592914D02*
X158460714Y-115688152D01*
X158460714Y-115688152D02*
X158508333Y-115735771D01*
X158508333Y-115735771D02*
X158603571Y-115783390D01*
X158603571Y-115783390D02*
X158794047Y-115783390D01*
X158794047Y-115783390D02*
X158889285Y-115831009D01*
X158889285Y-115831009D02*
X158936904Y-115878628D01*
X158936904Y-115878628D02*
X158984523Y-115973866D01*
X158984523Y-115973866D02*
X158984523Y-116164342D01*
X158984523Y-116164342D02*
X158936904Y-116259580D01*
X158936904Y-116259580D02*
X158889285Y-116307200D01*
X158889285Y-116307200D02*
X158794047Y-116354819D01*
X158794047Y-116354819D02*
X158603571Y-116354819D01*
X158603571Y-116354819D02*
X158508333Y-116307200D01*
X158508333Y-116307200D02*
X158460714Y-116259580D01*
X158460714Y-116259580D02*
X158413095Y-116164342D01*
X158413095Y-116164342D02*
X158413095Y-115973866D01*
X158413095Y-115973866D02*
X158460714Y-115878628D01*
X158460714Y-115878628D02*
X158508333Y-115831009D01*
X158508333Y-115831009D02*
X158603571Y-115783390D01*
X148500306Y-95508830D02*
X148500306Y-95576174D01*
X148500306Y-95576174D02*
X148567650Y-95710861D01*
X148567650Y-95710861D02*
X148634993Y-95778204D01*
X148634993Y-95778204D02*
X148769680Y-95845548D01*
X148769680Y-95845548D02*
X148904367Y-95845548D01*
X148904367Y-95845548D02*
X149005382Y-95811876D01*
X149005382Y-95811876D02*
X149173741Y-95710861D01*
X149173741Y-95710861D02*
X149274756Y-95609846D01*
X149274756Y-95609846D02*
X149375772Y-95441487D01*
X149375772Y-95441487D02*
X149409443Y-95340472D01*
X149409443Y-95340472D02*
X149409443Y-95205785D01*
X149409443Y-95205785D02*
X149342100Y-95071098D01*
X149342100Y-95071098D02*
X149274756Y-95003754D01*
X149274756Y-95003754D02*
X149140069Y-94936411D01*
X149140069Y-94936411D02*
X149072726Y-94936411D01*
X148904367Y-94633365D02*
X148466634Y-94195632D01*
X148466634Y-94195632D02*
X148432963Y-94700708D01*
X148432963Y-94700708D02*
X148331947Y-94599693D01*
X148331947Y-94599693D02*
X148230932Y-94566021D01*
X148230932Y-94566021D02*
X148163589Y-94566021D01*
X148163589Y-94566021D02*
X148062573Y-94599693D01*
X148062573Y-94599693D02*
X147894215Y-94768052D01*
X147894215Y-94768052D02*
X147860543Y-94869067D01*
X147860543Y-94869067D02*
X147860543Y-94936411D01*
X147860543Y-94936411D02*
X147894215Y-95037426D01*
X147894215Y-95037426D02*
X148096245Y-95239456D01*
X148096245Y-95239456D02*
X148197260Y-95273128D01*
X148197260Y-95273128D02*
X148264604Y-95273128D01*
X147422810Y-94566021D02*
X147288123Y-94431334D01*
X147288123Y-94431334D02*
X147254451Y-94330319D01*
X147254451Y-94330319D02*
X147254451Y-94262975D01*
X147254451Y-94262975D02*
X147288123Y-94094617D01*
X147288123Y-94094617D02*
X147389138Y-93926258D01*
X147389138Y-93926258D02*
X147658512Y-93656884D01*
X147658512Y-93656884D02*
X147759527Y-93623212D01*
X147759527Y-93623212D02*
X147826871Y-93623212D01*
X147826871Y-93623212D02*
X147927886Y-93656884D01*
X147927886Y-93656884D02*
X148062573Y-93791571D01*
X148062573Y-93791571D02*
X148096245Y-93892586D01*
X148096245Y-93892586D02*
X148096245Y-93959930D01*
X148096245Y-93959930D02*
X148062573Y-94060945D01*
X148062573Y-94060945D02*
X147894214Y-94229304D01*
X147894214Y-94229304D02*
X147793199Y-94262975D01*
X147793199Y-94262975D02*
X147725856Y-94262975D01*
X147725856Y-94262975D02*
X147624840Y-94229304D01*
X147624840Y-94229304D02*
X147490153Y-94094617D01*
X147490153Y-94094617D02*
X147456482Y-93993601D01*
X147456482Y-93993601D02*
X147456482Y-93926258D01*
X147456482Y-93926258D02*
X147490153Y-93825243D01*
X168667857Y-120834819D02*
X169001190Y-120358628D01*
X169239285Y-120834819D02*
X169239285Y-119834819D01*
X169239285Y-119834819D02*
X168858333Y-119834819D01*
X168858333Y-119834819D02*
X168763095Y-119882438D01*
X168763095Y-119882438D02*
X168715476Y-119930057D01*
X168715476Y-119930057D02*
X168667857Y-120025295D01*
X168667857Y-120025295D02*
X168667857Y-120168152D01*
X168667857Y-120168152D02*
X168715476Y-120263390D01*
X168715476Y-120263390D02*
X168763095Y-120311009D01*
X168763095Y-120311009D02*
X168858333Y-120358628D01*
X168858333Y-120358628D02*
X169239285Y-120358628D01*
X168334523Y-119834819D02*
X167715476Y-119834819D01*
X167715476Y-119834819D02*
X168048809Y-120215771D01*
X168048809Y-120215771D02*
X167905952Y-120215771D01*
X167905952Y-120215771D02*
X167810714Y-120263390D01*
X167810714Y-120263390D02*
X167763095Y-120311009D01*
X167763095Y-120311009D02*
X167715476Y-120406247D01*
X167715476Y-120406247D02*
X167715476Y-120644342D01*
X167715476Y-120644342D02*
X167763095Y-120739580D01*
X167763095Y-120739580D02*
X167810714Y-120787200D01*
X167810714Y-120787200D02*
X167905952Y-120834819D01*
X167905952Y-120834819D02*
X168191666Y-120834819D01*
X168191666Y-120834819D02*
X168286904Y-120787200D01*
X168286904Y-120787200D02*
X168334523Y-120739580D01*
X167239285Y-120834819D02*
X167048809Y-120834819D01*
X167048809Y-120834819D02*
X166953571Y-120787200D01*
X166953571Y-120787200D02*
X166905952Y-120739580D01*
X166905952Y-120739580D02*
X166810714Y-120596723D01*
X166810714Y-120596723D02*
X166763095Y-120406247D01*
X166763095Y-120406247D02*
X166763095Y-120025295D01*
X166763095Y-120025295D02*
X166810714Y-119930057D01*
X166810714Y-119930057D02*
X166858333Y-119882438D01*
X166858333Y-119882438D02*
X166953571Y-119834819D01*
X166953571Y-119834819D02*
X167144047Y-119834819D01*
X167144047Y-119834819D02*
X167239285Y-119882438D01*
X167239285Y-119882438D02*
X167286904Y-119930057D01*
X167286904Y-119930057D02*
X167334523Y-120025295D01*
X167334523Y-120025295D02*
X167334523Y-120263390D01*
X167334523Y-120263390D02*
X167286904Y-120358628D01*
X167286904Y-120358628D02*
X167239285Y-120406247D01*
X167239285Y-120406247D02*
X167144047Y-120453866D01*
X167144047Y-120453866D02*
X166953571Y-120453866D01*
X166953571Y-120453866D02*
X166858333Y-120406247D01*
X166858333Y-120406247D02*
X166810714Y-120358628D01*
X166810714Y-120358628D02*
X166763095Y-120263390D01*
X153200306Y-90808829D02*
X153200306Y-90876173D01*
X153200306Y-90876173D02*
X153267650Y-91010860D01*
X153267650Y-91010860D02*
X153334993Y-91078203D01*
X153334993Y-91078203D02*
X153469680Y-91145547D01*
X153469680Y-91145547D02*
X153604367Y-91145547D01*
X153604367Y-91145547D02*
X153705382Y-91111875D01*
X153705382Y-91111875D02*
X153873741Y-91010860D01*
X153873741Y-91010860D02*
X153974756Y-90909845D01*
X153974756Y-90909845D02*
X154075772Y-90741486D01*
X154075772Y-90741486D02*
X154109443Y-90640471D01*
X154109443Y-90640471D02*
X154109443Y-90505784D01*
X154109443Y-90505784D02*
X154042100Y-90371097D01*
X154042100Y-90371097D02*
X153974756Y-90303753D01*
X153974756Y-90303753D02*
X153840069Y-90236410D01*
X153840069Y-90236410D02*
X153772726Y-90236410D01*
X153604367Y-89933364D02*
X153166634Y-89495631D01*
X153166634Y-89495631D02*
X153132963Y-90000707D01*
X153132963Y-90000707D02*
X153031947Y-89899692D01*
X153031947Y-89899692D02*
X152930932Y-89866020D01*
X152930932Y-89866020D02*
X152863589Y-89866020D01*
X152863589Y-89866020D02*
X152762573Y-89899692D01*
X152762573Y-89899692D02*
X152594215Y-90068051D01*
X152594215Y-90068051D02*
X152560543Y-90169066D01*
X152560543Y-90169066D02*
X152560543Y-90236410D01*
X152560543Y-90236410D02*
X152594215Y-90337425D01*
X152594215Y-90337425D02*
X152796245Y-90539455D01*
X152796245Y-90539455D02*
X152897260Y-90573127D01*
X152897260Y-90573127D02*
X152964604Y-90573127D01*
X152930932Y-89259929D02*
X152493199Y-88822196D01*
X152493199Y-88822196D02*
X152459527Y-89327272D01*
X152459527Y-89327272D02*
X152358512Y-89226257D01*
X152358512Y-89226257D02*
X152257497Y-89192585D01*
X152257497Y-89192585D02*
X152190153Y-89192585D01*
X152190153Y-89192585D02*
X152089138Y-89226257D01*
X152089138Y-89226257D02*
X151920779Y-89394616D01*
X151920779Y-89394616D02*
X151887108Y-89495631D01*
X151887108Y-89495631D02*
X151887108Y-89562974D01*
X151887108Y-89562974D02*
X151920779Y-89663990D01*
X151920779Y-89663990D02*
X152122810Y-89866020D01*
X152122810Y-89866020D02*
X152223825Y-89899692D01*
X152223825Y-89899692D02*
X152291169Y-89899692D01*
X171867857Y-79054819D02*
X172201190Y-78578628D01*
X172439285Y-79054819D02*
X172439285Y-78054819D01*
X172439285Y-78054819D02*
X172058333Y-78054819D01*
X172058333Y-78054819D02*
X171963095Y-78102438D01*
X171963095Y-78102438D02*
X171915476Y-78150057D01*
X171915476Y-78150057D02*
X171867857Y-78245295D01*
X171867857Y-78245295D02*
X171867857Y-78388152D01*
X171867857Y-78388152D02*
X171915476Y-78483390D01*
X171915476Y-78483390D02*
X171963095Y-78531009D01*
X171963095Y-78531009D02*
X172058333Y-78578628D01*
X172058333Y-78578628D02*
X172439285Y-78578628D01*
X170915476Y-79054819D02*
X171486904Y-79054819D01*
X171201190Y-79054819D02*
X171201190Y-78054819D01*
X171201190Y-78054819D02*
X171296428Y-78197676D01*
X171296428Y-78197676D02*
X171391666Y-78292914D01*
X171391666Y-78292914D02*
X171486904Y-78340533D01*
X170058333Y-78054819D02*
X170248809Y-78054819D01*
X170248809Y-78054819D02*
X170344047Y-78102438D01*
X170344047Y-78102438D02*
X170391666Y-78150057D01*
X170391666Y-78150057D02*
X170486904Y-78292914D01*
X170486904Y-78292914D02*
X170534523Y-78483390D01*
X170534523Y-78483390D02*
X170534523Y-78864342D01*
X170534523Y-78864342D02*
X170486904Y-78959580D01*
X170486904Y-78959580D02*
X170439285Y-79007200D01*
X170439285Y-79007200D02*
X170344047Y-79054819D01*
X170344047Y-79054819D02*
X170153571Y-79054819D01*
X170153571Y-79054819D02*
X170058333Y-79007200D01*
X170058333Y-79007200D02*
X170010714Y-78959580D01*
X170010714Y-78959580D02*
X169963095Y-78864342D01*
X169963095Y-78864342D02*
X169963095Y-78626247D01*
X169963095Y-78626247D02*
X170010714Y-78531009D01*
X170010714Y-78531009D02*
X170058333Y-78483390D01*
X170058333Y-78483390D02*
X170153571Y-78435771D01*
X170153571Y-78435771D02*
X170344047Y-78435771D01*
X170344047Y-78435771D02*
X170439285Y-78483390D01*
X170439285Y-78483390D02*
X170486904Y-78531009D01*
X170486904Y-78531009D02*
X170534523Y-78626247D01*
X158128562Y-113774353D02*
X158195906Y-113774353D01*
X158195906Y-113774353D02*
X158330593Y-113707009D01*
X158330593Y-113707009D02*
X158397936Y-113639666D01*
X158397936Y-113639666D02*
X158465280Y-113504979D01*
X158465280Y-113504979D02*
X158465280Y-113370292D01*
X158465280Y-113370292D02*
X158431608Y-113269277D01*
X158431608Y-113269277D02*
X158330593Y-113100918D01*
X158330593Y-113100918D02*
X158229578Y-112999903D01*
X158229578Y-112999903D02*
X158061219Y-112898887D01*
X158061219Y-112898887D02*
X157960204Y-112865216D01*
X157960204Y-112865216D02*
X157825517Y-112865216D01*
X157825517Y-112865216D02*
X157690830Y-112932559D01*
X157690830Y-112932559D02*
X157623486Y-112999903D01*
X157623486Y-112999903D02*
X157556143Y-113134590D01*
X157556143Y-113134590D02*
X157556143Y-113201933D01*
X157253097Y-113370292D02*
X156815364Y-113808025D01*
X156815364Y-113808025D02*
X157320440Y-113841696D01*
X157320440Y-113841696D02*
X157219425Y-113942712D01*
X157219425Y-113942712D02*
X157185753Y-114043727D01*
X157185753Y-114043727D02*
X157185753Y-114111070D01*
X157185753Y-114111070D02*
X157219425Y-114212086D01*
X157219425Y-114212086D02*
X157387784Y-114380444D01*
X157387784Y-114380444D02*
X157488799Y-114414116D01*
X157488799Y-114414116D02*
X157556143Y-114414116D01*
X157556143Y-114414116D02*
X157657158Y-114380444D01*
X157657158Y-114380444D02*
X157859188Y-114178414D01*
X157859188Y-114178414D02*
X157892860Y-114077399D01*
X157892860Y-114077399D02*
X157892860Y-114010055D01*
X156714349Y-114515132D02*
X156748020Y-114414116D01*
X156748020Y-114414116D02*
X156748020Y-114346773D01*
X156748020Y-114346773D02*
X156714349Y-114245758D01*
X156714349Y-114245758D02*
X156680677Y-114212086D01*
X156680677Y-114212086D02*
X156579662Y-114178414D01*
X156579662Y-114178414D02*
X156512318Y-114178414D01*
X156512318Y-114178414D02*
X156411303Y-114212086D01*
X156411303Y-114212086D02*
X156276616Y-114346773D01*
X156276616Y-114346773D02*
X156242944Y-114447788D01*
X156242944Y-114447788D02*
X156242944Y-114515132D01*
X156242944Y-114515132D02*
X156276616Y-114616147D01*
X156276616Y-114616147D02*
X156310288Y-114649819D01*
X156310288Y-114649819D02*
X156411303Y-114683490D01*
X156411303Y-114683490D02*
X156478646Y-114683490D01*
X156478646Y-114683490D02*
X156579662Y-114649819D01*
X156579662Y-114649819D02*
X156714349Y-114515132D01*
X156714349Y-114515132D02*
X156815364Y-114481460D01*
X156815364Y-114481460D02*
X156882707Y-114481460D01*
X156882707Y-114481460D02*
X156983723Y-114515132D01*
X156983723Y-114515132D02*
X157118410Y-114649819D01*
X157118410Y-114649819D02*
X157152081Y-114750834D01*
X157152081Y-114750834D02*
X157152081Y-114818177D01*
X157152081Y-114818177D02*
X157118410Y-114919193D01*
X157118410Y-114919193D02*
X156983723Y-115053880D01*
X156983723Y-115053880D02*
X156882707Y-115087551D01*
X156882707Y-115087551D02*
X156815364Y-115087551D01*
X156815364Y-115087551D02*
X156714349Y-115053880D01*
X156714349Y-115053880D02*
X156579662Y-114919193D01*
X156579662Y-114919193D02*
X156545990Y-114818177D01*
X156545990Y-114818177D02*
X156545990Y-114750834D01*
X156545990Y-114750834D02*
X156579662Y-114649819D01*
X178711904Y-83392318D02*
X178711904Y-84201841D01*
X178711904Y-84201841D02*
X178664285Y-84297079D01*
X178664285Y-84297079D02*
X178616666Y-84344699D01*
X178616666Y-84344699D02*
X178521428Y-84392318D01*
X178521428Y-84392318D02*
X178330952Y-84392318D01*
X178330952Y-84392318D02*
X178235714Y-84344699D01*
X178235714Y-84344699D02*
X178188095Y-84297079D01*
X178188095Y-84297079D02*
X178140476Y-84201841D01*
X178140476Y-84201841D02*
X178140476Y-83392318D01*
X177711904Y-83487556D02*
X177664285Y-83439937D01*
X177664285Y-83439937D02*
X177569047Y-83392318D01*
X177569047Y-83392318D02*
X177330952Y-83392318D01*
X177330952Y-83392318D02*
X177235714Y-83439937D01*
X177235714Y-83439937D02*
X177188095Y-83487556D01*
X177188095Y-83487556D02*
X177140476Y-83582794D01*
X177140476Y-83582794D02*
X177140476Y-83678032D01*
X177140476Y-83678032D02*
X177188095Y-83820889D01*
X177188095Y-83820889D02*
X177759523Y-84392318D01*
X177759523Y-84392318D02*
X177140476Y-84392318D01*
X168642857Y-77404819D02*
X168976190Y-76928628D01*
X169214285Y-77404819D02*
X169214285Y-76404819D01*
X169214285Y-76404819D02*
X168833333Y-76404819D01*
X168833333Y-76404819D02*
X168738095Y-76452438D01*
X168738095Y-76452438D02*
X168690476Y-76500057D01*
X168690476Y-76500057D02*
X168642857Y-76595295D01*
X168642857Y-76595295D02*
X168642857Y-76738152D01*
X168642857Y-76738152D02*
X168690476Y-76833390D01*
X168690476Y-76833390D02*
X168738095Y-76881009D01*
X168738095Y-76881009D02*
X168833333Y-76928628D01*
X168833333Y-76928628D02*
X169214285Y-76928628D01*
X167690476Y-77404819D02*
X168261904Y-77404819D01*
X167976190Y-77404819D02*
X167976190Y-76404819D01*
X167976190Y-76404819D02*
X168071428Y-76547676D01*
X168071428Y-76547676D02*
X168166666Y-76642914D01*
X168166666Y-76642914D02*
X168261904Y-76690533D01*
X167357142Y-76404819D02*
X166738095Y-76404819D01*
X166738095Y-76404819D02*
X167071428Y-76785771D01*
X167071428Y-76785771D02*
X166928571Y-76785771D01*
X166928571Y-76785771D02*
X166833333Y-76833390D01*
X166833333Y-76833390D02*
X166785714Y-76881009D01*
X166785714Y-76881009D02*
X166738095Y-76976247D01*
X166738095Y-76976247D02*
X166738095Y-77214342D01*
X166738095Y-77214342D02*
X166785714Y-77309580D01*
X166785714Y-77309580D02*
X166833333Y-77357200D01*
X166833333Y-77357200D02*
X166928571Y-77404819D01*
X166928571Y-77404819D02*
X167214285Y-77404819D01*
X167214285Y-77404819D02*
X167309523Y-77357200D01*
X167309523Y-77357200D02*
X167357142Y-77309580D01*
X173768664Y-99411876D02*
X174475771Y-98704769D01*
X173095230Y-98603754D02*
X173095230Y-98671097D01*
X173095230Y-98671097D02*
X173162573Y-98805784D01*
X173162573Y-98805784D02*
X173229917Y-98873128D01*
X173229917Y-98873128D02*
X173364604Y-98940471D01*
X173364604Y-98940471D02*
X173499291Y-98940471D01*
X173499291Y-98940471D02*
X173600306Y-98906800D01*
X173600306Y-98906800D02*
X173768665Y-98805784D01*
X173768665Y-98805784D02*
X173869680Y-98704769D01*
X173869680Y-98704769D02*
X173970695Y-98536410D01*
X173970695Y-98536410D02*
X174004367Y-98435395D01*
X174004367Y-98435395D02*
X174004367Y-98300708D01*
X174004367Y-98300708D02*
X173937023Y-98166021D01*
X173937023Y-98166021D02*
X173869680Y-98098678D01*
X173869680Y-98098678D02*
X173734993Y-98031334D01*
X173734993Y-98031334D02*
X173667649Y-98031334D01*
X173398275Y-97761960D02*
X173398275Y-97694617D01*
X173398275Y-97694617D02*
X173364604Y-97593601D01*
X173364604Y-97593601D02*
X173196245Y-97425243D01*
X173196245Y-97425243D02*
X173095230Y-97391571D01*
X173095230Y-97391571D02*
X173027886Y-97391571D01*
X173027886Y-97391571D02*
X172926871Y-97425243D01*
X172926871Y-97425243D02*
X172859527Y-97492586D01*
X172859527Y-97492586D02*
X172792184Y-97627273D01*
X172792184Y-97627273D02*
X172792184Y-98435395D01*
X172792184Y-98435395D02*
X172354451Y-97997662D01*
X146922618Y-73731009D02*
X146779761Y-73778628D01*
X146779761Y-73778628D02*
X146732142Y-73826247D01*
X146732142Y-73826247D02*
X146684523Y-73921485D01*
X146684523Y-73921485D02*
X146684523Y-74064342D01*
X146684523Y-74064342D02*
X146732142Y-74159580D01*
X146732142Y-74159580D02*
X146779761Y-74207200D01*
X146779761Y-74207200D02*
X146874999Y-74254819D01*
X146874999Y-74254819D02*
X147255951Y-74254819D01*
X147255951Y-74254819D02*
X147255951Y-73254819D01*
X147255951Y-73254819D02*
X146922618Y-73254819D01*
X146922618Y-73254819D02*
X146827380Y-73302438D01*
X146827380Y-73302438D02*
X146779761Y-73350057D01*
X146779761Y-73350057D02*
X146732142Y-73445295D01*
X146732142Y-73445295D02*
X146732142Y-73540533D01*
X146732142Y-73540533D02*
X146779761Y-73635771D01*
X146779761Y-73635771D02*
X146827380Y-73683390D01*
X146827380Y-73683390D02*
X146922618Y-73731009D01*
X146922618Y-73731009D02*
X147255951Y-73731009D01*
X146255951Y-73873866D02*
X145494047Y-73873866D01*
X147142857Y-85059580D02*
X147190476Y-85107200D01*
X147190476Y-85107200D02*
X147333333Y-85154819D01*
X147333333Y-85154819D02*
X147428571Y-85154819D01*
X147428571Y-85154819D02*
X147571428Y-85107200D01*
X147571428Y-85107200D02*
X147666666Y-85011961D01*
X147666666Y-85011961D02*
X147714285Y-84916723D01*
X147714285Y-84916723D02*
X147761904Y-84726247D01*
X147761904Y-84726247D02*
X147761904Y-84583390D01*
X147761904Y-84583390D02*
X147714285Y-84392914D01*
X147714285Y-84392914D02*
X147666666Y-84297676D01*
X147666666Y-84297676D02*
X147571428Y-84202438D01*
X147571428Y-84202438D02*
X147428571Y-84154819D01*
X147428571Y-84154819D02*
X147333333Y-84154819D01*
X147333333Y-84154819D02*
X147190476Y-84202438D01*
X147190476Y-84202438D02*
X147142857Y-84250057D01*
X146285714Y-84488152D02*
X146285714Y-85154819D01*
X146523809Y-84107200D02*
X146761904Y-84821485D01*
X146761904Y-84821485D02*
X146142857Y-84821485D01*
X145619047Y-84583390D02*
X145714285Y-84535771D01*
X145714285Y-84535771D02*
X145761904Y-84488152D01*
X145761904Y-84488152D02*
X145809523Y-84392914D01*
X145809523Y-84392914D02*
X145809523Y-84345295D01*
X145809523Y-84345295D02*
X145761904Y-84250057D01*
X145761904Y-84250057D02*
X145714285Y-84202438D01*
X145714285Y-84202438D02*
X145619047Y-84154819D01*
X145619047Y-84154819D02*
X145428571Y-84154819D01*
X145428571Y-84154819D02*
X145333333Y-84202438D01*
X145333333Y-84202438D02*
X145285714Y-84250057D01*
X145285714Y-84250057D02*
X145238095Y-84345295D01*
X145238095Y-84345295D02*
X145238095Y-84392914D01*
X145238095Y-84392914D02*
X145285714Y-84488152D01*
X145285714Y-84488152D02*
X145333333Y-84535771D01*
X145333333Y-84535771D02*
X145428571Y-84583390D01*
X145428571Y-84583390D02*
X145619047Y-84583390D01*
X145619047Y-84583390D02*
X145714285Y-84631009D01*
X145714285Y-84631009D02*
X145761904Y-84678628D01*
X145761904Y-84678628D02*
X145809523Y-84773866D01*
X145809523Y-84773866D02*
X145809523Y-84964342D01*
X145809523Y-84964342D02*
X145761904Y-85059580D01*
X145761904Y-85059580D02*
X145714285Y-85107200D01*
X145714285Y-85107200D02*
X145619047Y-85154819D01*
X145619047Y-85154819D02*
X145428571Y-85154819D01*
X145428571Y-85154819D02*
X145333333Y-85107200D01*
X145333333Y-85107200D02*
X145285714Y-85059580D01*
X145285714Y-85059580D02*
X145238095Y-84964342D01*
X145238095Y-84964342D02*
X145238095Y-84773866D01*
X145238095Y-84773866D02*
X145285714Y-84678628D01*
X145285714Y-84678628D02*
X145333333Y-84631009D01*
X145333333Y-84631009D02*
X145428571Y-84583390D01*
X145009580Y-126783333D02*
X145057200Y-126735714D01*
X145057200Y-126735714D02*
X145104819Y-126592857D01*
X145104819Y-126592857D02*
X145104819Y-126497619D01*
X145104819Y-126497619D02*
X145057200Y-126354762D01*
X145057200Y-126354762D02*
X144961961Y-126259524D01*
X144961961Y-126259524D02*
X144866723Y-126211905D01*
X144866723Y-126211905D02*
X144676247Y-126164286D01*
X144676247Y-126164286D02*
X144533390Y-126164286D01*
X144533390Y-126164286D02*
X144342914Y-126211905D01*
X144342914Y-126211905D02*
X144247676Y-126259524D01*
X144247676Y-126259524D02*
X144152438Y-126354762D01*
X144152438Y-126354762D02*
X144104819Y-126497619D01*
X144104819Y-126497619D02*
X144104819Y-126592857D01*
X144104819Y-126592857D02*
X144152438Y-126735714D01*
X144152438Y-126735714D02*
X144200057Y-126783333D01*
X145104819Y-127735714D02*
X145104819Y-127164286D01*
X145104819Y-127450000D02*
X144104819Y-127450000D01*
X144104819Y-127450000D02*
X144247676Y-127354762D01*
X144247676Y-127354762D02*
X144342914Y-127259524D01*
X144342914Y-127259524D02*
X144390533Y-127164286D01*
X180463588Y-91672112D02*
X180463588Y-91739456D01*
X180463588Y-91739456D02*
X180530932Y-91874143D01*
X180530932Y-91874143D02*
X180598275Y-91941486D01*
X180598275Y-91941486D02*
X180732962Y-92008830D01*
X180732962Y-92008830D02*
X180867649Y-92008830D01*
X180867649Y-92008830D02*
X180968664Y-91975158D01*
X180968664Y-91975158D02*
X181137023Y-91874143D01*
X181137023Y-91874143D02*
X181238038Y-91773128D01*
X181238038Y-91773128D02*
X181339054Y-91604769D01*
X181339054Y-91604769D02*
X181372725Y-91503754D01*
X181372725Y-91503754D02*
X181372725Y-91369067D01*
X181372725Y-91369067D02*
X181305382Y-91234380D01*
X181305382Y-91234380D02*
X181238038Y-91167036D01*
X181238038Y-91167036D02*
X181103351Y-91099693D01*
X181103351Y-91099693D02*
X181036008Y-91099693D01*
X180261558Y-90661960D02*
X179790153Y-91133364D01*
X180699290Y-90560945D02*
X180362573Y-91234380D01*
X180362573Y-91234380D02*
X179924840Y-90796647D01*
X133494047Y-99281009D02*
X133351190Y-99328628D01*
X133351190Y-99328628D02*
X133303571Y-99376247D01*
X133303571Y-99376247D02*
X133255952Y-99471485D01*
X133255952Y-99471485D02*
X133255952Y-99614342D01*
X133255952Y-99614342D02*
X133303571Y-99709580D01*
X133303571Y-99709580D02*
X133351190Y-99757200D01*
X133351190Y-99757200D02*
X133446428Y-99804819D01*
X133446428Y-99804819D02*
X133827380Y-99804819D01*
X133827380Y-99804819D02*
X133827380Y-98804819D01*
X133827380Y-98804819D02*
X133494047Y-98804819D01*
X133494047Y-98804819D02*
X133398809Y-98852438D01*
X133398809Y-98852438D02*
X133351190Y-98900057D01*
X133351190Y-98900057D02*
X133303571Y-98995295D01*
X133303571Y-98995295D02*
X133303571Y-99090533D01*
X133303571Y-99090533D02*
X133351190Y-99185771D01*
X133351190Y-99185771D02*
X133398809Y-99233390D01*
X133398809Y-99233390D02*
X133494047Y-99281009D01*
X133494047Y-99281009D02*
X133827380Y-99281009D01*
X132874999Y-99519104D02*
X132398809Y-99519104D01*
X132970237Y-99804819D02*
X132636904Y-98804819D01*
X132636904Y-98804819D02*
X132303571Y-99804819D01*
X132113094Y-98804819D02*
X131541666Y-98804819D01*
X131827380Y-99804819D02*
X131827380Y-98804819D01*
X131351189Y-98804819D02*
X130779761Y-98804819D01*
X131065475Y-99804819D02*
X131065475Y-98804819D01*
X154254819Y-82957142D02*
X153778628Y-82623809D01*
X154254819Y-82385714D02*
X153254819Y-82385714D01*
X153254819Y-82385714D02*
X153254819Y-82766666D01*
X153254819Y-82766666D02*
X153302438Y-82861904D01*
X153302438Y-82861904D02*
X153350057Y-82909523D01*
X153350057Y-82909523D02*
X153445295Y-82957142D01*
X153445295Y-82957142D02*
X153588152Y-82957142D01*
X153588152Y-82957142D02*
X153683390Y-82909523D01*
X153683390Y-82909523D02*
X153731009Y-82861904D01*
X153731009Y-82861904D02*
X153778628Y-82766666D01*
X153778628Y-82766666D02*
X153778628Y-82385714D01*
X153588152Y-83814285D02*
X154254819Y-83814285D01*
X153207200Y-83576190D02*
X153921485Y-83338095D01*
X153921485Y-83338095D02*
X153921485Y-83957142D01*
X153254819Y-84528571D02*
X153254819Y-84623809D01*
X153254819Y-84623809D02*
X153302438Y-84719047D01*
X153302438Y-84719047D02*
X153350057Y-84766666D01*
X153350057Y-84766666D02*
X153445295Y-84814285D01*
X153445295Y-84814285D02*
X153635771Y-84861904D01*
X153635771Y-84861904D02*
X153873866Y-84861904D01*
X153873866Y-84861904D02*
X154064342Y-84814285D01*
X154064342Y-84814285D02*
X154159580Y-84766666D01*
X154159580Y-84766666D02*
X154207200Y-84719047D01*
X154207200Y-84719047D02*
X154254819Y-84623809D01*
X154254819Y-84623809D02*
X154254819Y-84528571D01*
X154254819Y-84528571D02*
X154207200Y-84433333D01*
X154207200Y-84433333D02*
X154159580Y-84385714D01*
X154159580Y-84385714D02*
X154064342Y-84338095D01*
X154064342Y-84338095D02*
X153873866Y-84290476D01*
X153873866Y-84290476D02*
X153635771Y-84290476D01*
X153635771Y-84290476D02*
X153445295Y-84338095D01*
X153445295Y-84338095D02*
X153350057Y-84385714D01*
X153350057Y-84385714D02*
X153302438Y-84433333D01*
X153302438Y-84433333D02*
X153254819Y-84528571D01*
X144017857Y-97584819D02*
X144351190Y-97108628D01*
X144589285Y-97584819D02*
X144589285Y-96584819D01*
X144589285Y-96584819D02*
X144208333Y-96584819D01*
X144208333Y-96584819D02*
X144113095Y-96632438D01*
X144113095Y-96632438D02*
X144065476Y-96680057D01*
X144065476Y-96680057D02*
X144017857Y-96775295D01*
X144017857Y-96775295D02*
X144017857Y-96918152D01*
X144017857Y-96918152D02*
X144065476Y-97013390D01*
X144065476Y-97013390D02*
X144113095Y-97061009D01*
X144113095Y-97061009D02*
X144208333Y-97108628D01*
X144208333Y-97108628D02*
X144589285Y-97108628D01*
X143684523Y-96584819D02*
X143065476Y-96584819D01*
X143065476Y-96584819D02*
X143398809Y-96965771D01*
X143398809Y-96965771D02*
X143255952Y-96965771D01*
X143255952Y-96965771D02*
X143160714Y-97013390D01*
X143160714Y-97013390D02*
X143113095Y-97061009D01*
X143113095Y-97061009D02*
X143065476Y-97156247D01*
X143065476Y-97156247D02*
X143065476Y-97394342D01*
X143065476Y-97394342D02*
X143113095Y-97489580D01*
X143113095Y-97489580D02*
X143160714Y-97537200D01*
X143160714Y-97537200D02*
X143255952Y-97584819D01*
X143255952Y-97584819D02*
X143541666Y-97584819D01*
X143541666Y-97584819D02*
X143636904Y-97537200D01*
X143636904Y-97537200D02*
X143684523Y-97489580D01*
X142160714Y-96584819D02*
X142636904Y-96584819D01*
X142636904Y-96584819D02*
X142684523Y-97061009D01*
X142684523Y-97061009D02*
X142636904Y-97013390D01*
X142636904Y-97013390D02*
X142541666Y-96965771D01*
X142541666Y-96965771D02*
X142303571Y-96965771D01*
X142303571Y-96965771D02*
X142208333Y-97013390D01*
X142208333Y-97013390D02*
X142160714Y-97061009D01*
X142160714Y-97061009D02*
X142113095Y-97156247D01*
X142113095Y-97156247D02*
X142113095Y-97394342D01*
X142113095Y-97394342D02*
X142160714Y-97489580D01*
X142160714Y-97489580D02*
X142208333Y-97537200D01*
X142208333Y-97537200D02*
X142303571Y-97584819D01*
X142303571Y-97584819D02*
X142541666Y-97584819D01*
X142541666Y-97584819D02*
X142636904Y-97537200D01*
X142636904Y-97537200D02*
X142684523Y-97489580D01*
X152452695Y-110950834D02*
X153025114Y-110849819D01*
X152856756Y-111354895D02*
X153563862Y-110647788D01*
X153563862Y-110647788D02*
X153294488Y-110378414D01*
X153294488Y-110378414D02*
X153193473Y-110344742D01*
X153193473Y-110344742D02*
X153126130Y-110344742D01*
X153126130Y-110344742D02*
X153025114Y-110378414D01*
X153025114Y-110378414D02*
X152924099Y-110479429D01*
X152924099Y-110479429D02*
X152890427Y-110580445D01*
X152890427Y-110580445D02*
X152890427Y-110647788D01*
X152890427Y-110647788D02*
X152924099Y-110748803D01*
X152924099Y-110748803D02*
X153193473Y-111018177D01*
X152924099Y-110008025D02*
X152486366Y-109570292D01*
X152486366Y-109570292D02*
X152452695Y-110075368D01*
X152452695Y-110075368D02*
X152351679Y-109974353D01*
X152351679Y-109974353D02*
X152250664Y-109940681D01*
X152250664Y-109940681D02*
X152183321Y-109940681D01*
X152183321Y-109940681D02*
X152082305Y-109974353D01*
X152082305Y-109974353D02*
X151913947Y-110142712D01*
X151913947Y-110142712D02*
X151880275Y-110243727D01*
X151880275Y-110243727D02*
X151880275Y-110311071D01*
X151880275Y-110311071D02*
X151913947Y-110412086D01*
X151913947Y-110412086D02*
X152115977Y-110614116D01*
X152115977Y-110614116D02*
X152216992Y-110647788D01*
X152216992Y-110647788D02*
X152284336Y-110647788D01*
X151880275Y-108964200D02*
X152014962Y-109098887D01*
X152014962Y-109098887D02*
X152048633Y-109199903D01*
X152048633Y-109199903D02*
X152048633Y-109267246D01*
X152048633Y-109267246D02*
X152014962Y-109435605D01*
X152014962Y-109435605D02*
X151913946Y-109603964D01*
X151913946Y-109603964D02*
X151644572Y-109873338D01*
X151644572Y-109873338D02*
X151543557Y-109907009D01*
X151543557Y-109907009D02*
X151476214Y-109907009D01*
X151476214Y-109907009D02*
X151375198Y-109873338D01*
X151375198Y-109873338D02*
X151240511Y-109738651D01*
X151240511Y-109738651D02*
X151206840Y-109637635D01*
X151206840Y-109637635D02*
X151206840Y-109570292D01*
X151206840Y-109570292D02*
X151240511Y-109469277D01*
X151240511Y-109469277D02*
X151408870Y-109300918D01*
X151408870Y-109300918D02*
X151509885Y-109267246D01*
X151509885Y-109267246D02*
X151577229Y-109267246D01*
X151577229Y-109267246D02*
X151678244Y-109300918D01*
X151678244Y-109300918D02*
X151812931Y-109435605D01*
X151812931Y-109435605D02*
X151846603Y-109536620D01*
X151846603Y-109536620D02*
X151846603Y-109603964D01*
X151846603Y-109603964D02*
X151812931Y-109704979D01*
X182829819Y-113257142D02*
X182353628Y-112923809D01*
X182829819Y-112685714D02*
X181829819Y-112685714D01*
X181829819Y-112685714D02*
X181829819Y-113066666D01*
X181829819Y-113066666D02*
X181877438Y-113161904D01*
X181877438Y-113161904D02*
X181925057Y-113209523D01*
X181925057Y-113209523D02*
X182020295Y-113257142D01*
X182020295Y-113257142D02*
X182163152Y-113257142D01*
X182163152Y-113257142D02*
X182258390Y-113209523D01*
X182258390Y-113209523D02*
X182306009Y-113161904D01*
X182306009Y-113161904D02*
X182353628Y-113066666D01*
X182353628Y-113066666D02*
X182353628Y-112685714D01*
X181829819Y-113590476D02*
X181829819Y-114209523D01*
X181829819Y-114209523D02*
X182210771Y-113876190D01*
X182210771Y-113876190D02*
X182210771Y-114019047D01*
X182210771Y-114019047D02*
X182258390Y-114114285D01*
X182258390Y-114114285D02*
X182306009Y-114161904D01*
X182306009Y-114161904D02*
X182401247Y-114209523D01*
X182401247Y-114209523D02*
X182639342Y-114209523D01*
X182639342Y-114209523D02*
X182734580Y-114161904D01*
X182734580Y-114161904D02*
X182782200Y-114114285D01*
X182782200Y-114114285D02*
X182829819Y-114019047D01*
X182829819Y-114019047D02*
X182829819Y-113733333D01*
X182829819Y-113733333D02*
X182782200Y-113638095D01*
X182782200Y-113638095D02*
X182734580Y-113590476D01*
X181829819Y-114542857D02*
X181829819Y-115209523D01*
X181829819Y-115209523D02*
X182829819Y-114780952D01*
X169360588Y-75089819D02*
X169360588Y-75899342D01*
X169360588Y-75899342D02*
X169312969Y-75994580D01*
X169312969Y-75994580D02*
X169265350Y-76042200D01*
X169265350Y-76042200D02*
X169170112Y-76089819D01*
X169170112Y-76089819D02*
X168979636Y-76089819D01*
X168979636Y-76089819D02*
X168884398Y-76042200D01*
X168884398Y-76042200D02*
X168836779Y-75994580D01*
X168836779Y-75994580D02*
X168789160Y-75899342D01*
X168789160Y-75899342D02*
X168789160Y-75089819D01*
X167884398Y-75423152D02*
X167884398Y-76089819D01*
X168122493Y-75042200D02*
X168360588Y-75756485D01*
X168360588Y-75756485D02*
X167741541Y-75756485D01*
X147738094Y-79854819D02*
X147738094Y-80664342D01*
X147738094Y-80664342D02*
X147690475Y-80759580D01*
X147690475Y-80759580D02*
X147642856Y-80807200D01*
X147642856Y-80807200D02*
X147547618Y-80854819D01*
X147547618Y-80854819D02*
X147357142Y-80854819D01*
X147357142Y-80854819D02*
X147261904Y-80807200D01*
X147261904Y-80807200D02*
X147214285Y-80759580D01*
X147214285Y-80759580D02*
X147166666Y-80664342D01*
X147166666Y-80664342D02*
X147166666Y-79854819D01*
X146166666Y-80854819D02*
X146738094Y-80854819D01*
X146452380Y-80854819D02*
X146452380Y-79854819D01*
X146452380Y-79854819D02*
X146547618Y-79997676D01*
X146547618Y-79997676D02*
X146642856Y-80092914D01*
X146642856Y-80092914D02*
X146738094Y-80140533D01*
X145547618Y-79854819D02*
X145452380Y-79854819D01*
X145452380Y-79854819D02*
X145357142Y-79902438D01*
X145357142Y-79902438D02*
X145309523Y-79950057D01*
X145309523Y-79950057D02*
X145261904Y-80045295D01*
X145261904Y-80045295D02*
X145214285Y-80235771D01*
X145214285Y-80235771D02*
X145214285Y-80473866D01*
X145214285Y-80473866D02*
X145261904Y-80664342D01*
X145261904Y-80664342D02*
X145309523Y-80759580D01*
X145309523Y-80759580D02*
X145357142Y-80807200D01*
X145357142Y-80807200D02*
X145452380Y-80854819D01*
X145452380Y-80854819D02*
X145547618Y-80854819D01*
X145547618Y-80854819D02*
X145642856Y-80807200D01*
X145642856Y-80807200D02*
X145690475Y-80759580D01*
X145690475Y-80759580D02*
X145738094Y-80664342D01*
X145738094Y-80664342D02*
X145785713Y-80473866D01*
X145785713Y-80473866D02*
X145785713Y-80235771D01*
X145785713Y-80235771D02*
X145738094Y-80045295D01*
X145738094Y-80045295D02*
X145690475Y-79950057D01*
X145690475Y-79950057D02*
X145642856Y-79902438D01*
X145642856Y-79902438D02*
X145547618Y-79854819D01*
X172417857Y-74854819D02*
X172751190Y-74378628D01*
X172989285Y-74854819D02*
X172989285Y-73854819D01*
X172989285Y-73854819D02*
X172608333Y-73854819D01*
X172608333Y-73854819D02*
X172513095Y-73902438D01*
X172513095Y-73902438D02*
X172465476Y-73950057D01*
X172465476Y-73950057D02*
X172417857Y-74045295D01*
X172417857Y-74045295D02*
X172417857Y-74188152D01*
X172417857Y-74188152D02*
X172465476Y-74283390D01*
X172465476Y-74283390D02*
X172513095Y-74331009D01*
X172513095Y-74331009D02*
X172608333Y-74378628D01*
X172608333Y-74378628D02*
X172989285Y-74378628D01*
X172036904Y-73950057D02*
X171989285Y-73902438D01*
X171989285Y-73902438D02*
X171894047Y-73854819D01*
X171894047Y-73854819D02*
X171655952Y-73854819D01*
X171655952Y-73854819D02*
X171560714Y-73902438D01*
X171560714Y-73902438D02*
X171513095Y-73950057D01*
X171513095Y-73950057D02*
X171465476Y-74045295D01*
X171465476Y-74045295D02*
X171465476Y-74140533D01*
X171465476Y-74140533D02*
X171513095Y-74283390D01*
X171513095Y-74283390D02*
X172084523Y-74854819D01*
X172084523Y-74854819D02*
X171465476Y-74854819D01*
X170560714Y-73854819D02*
X171036904Y-73854819D01*
X171036904Y-73854819D02*
X171084523Y-74331009D01*
X171084523Y-74331009D02*
X171036904Y-74283390D01*
X171036904Y-74283390D02*
X170941666Y-74235771D01*
X170941666Y-74235771D02*
X170703571Y-74235771D01*
X170703571Y-74235771D02*
X170608333Y-74283390D01*
X170608333Y-74283390D02*
X170560714Y-74331009D01*
X170560714Y-74331009D02*
X170513095Y-74426247D01*
X170513095Y-74426247D02*
X170513095Y-74664342D01*
X170513095Y-74664342D02*
X170560714Y-74759580D01*
X170560714Y-74759580D02*
X170608333Y-74807200D01*
X170608333Y-74807200D02*
X170703571Y-74854819D01*
X170703571Y-74854819D02*
X170941666Y-74854819D01*
X170941666Y-74854819D02*
X171036904Y-74807200D01*
X171036904Y-74807200D02*
X171084523Y-74759580D01*
X170200306Y-116258830D02*
X170200306Y-116326174D01*
X170200306Y-116326174D02*
X170267650Y-116460861D01*
X170267650Y-116460861D02*
X170334993Y-116528204D01*
X170334993Y-116528204D02*
X170469680Y-116595548D01*
X170469680Y-116595548D02*
X170604367Y-116595548D01*
X170604367Y-116595548D02*
X170705382Y-116561876D01*
X170705382Y-116561876D02*
X170873741Y-116460861D01*
X170873741Y-116460861D02*
X170974756Y-116359846D01*
X170974756Y-116359846D02*
X171075772Y-116191487D01*
X171075772Y-116191487D02*
X171109443Y-116090472D01*
X171109443Y-116090472D02*
X171109443Y-115955785D01*
X171109443Y-115955785D02*
X171042100Y-115821098D01*
X171042100Y-115821098D02*
X170974756Y-115753754D01*
X170974756Y-115753754D02*
X170840069Y-115686411D01*
X170840069Y-115686411D02*
X170772726Y-115686411D01*
X170604367Y-115383365D02*
X170166634Y-114945632D01*
X170166634Y-114945632D02*
X170132963Y-115450708D01*
X170132963Y-115450708D02*
X170031947Y-115349693D01*
X170031947Y-115349693D02*
X169930932Y-115316021D01*
X169930932Y-115316021D02*
X169863589Y-115316021D01*
X169863589Y-115316021D02*
X169762573Y-115349693D01*
X169762573Y-115349693D02*
X169594215Y-115518052D01*
X169594215Y-115518052D02*
X169560543Y-115619067D01*
X169560543Y-115619067D02*
X169560543Y-115686411D01*
X169560543Y-115686411D02*
X169594215Y-115787426D01*
X169594215Y-115787426D02*
X169796245Y-115989456D01*
X169796245Y-115989456D02*
X169897260Y-116023128D01*
X169897260Y-116023128D02*
X169964604Y-116023128D01*
X169930932Y-114709930D02*
X169459527Y-114238525D01*
X169459527Y-114238525D02*
X169055466Y-115248678D01*
X155709580Y-126795833D02*
X155757200Y-126748214D01*
X155757200Y-126748214D02*
X155804819Y-126605357D01*
X155804819Y-126605357D02*
X155804819Y-126510119D01*
X155804819Y-126510119D02*
X155757200Y-126367262D01*
X155757200Y-126367262D02*
X155661961Y-126272024D01*
X155661961Y-126272024D02*
X155566723Y-126224405D01*
X155566723Y-126224405D02*
X155376247Y-126176786D01*
X155376247Y-126176786D02*
X155233390Y-126176786D01*
X155233390Y-126176786D02*
X155042914Y-126224405D01*
X155042914Y-126224405D02*
X154947676Y-126272024D01*
X154947676Y-126272024D02*
X154852438Y-126367262D01*
X154852438Y-126367262D02*
X154804819Y-126510119D01*
X154804819Y-126510119D02*
X154804819Y-126605357D01*
X154804819Y-126605357D02*
X154852438Y-126748214D01*
X154852438Y-126748214D02*
X154900057Y-126795833D01*
X154804819Y-127129167D02*
X154804819Y-127748214D01*
X154804819Y-127748214D02*
X155185771Y-127414881D01*
X155185771Y-127414881D02*
X155185771Y-127557738D01*
X155185771Y-127557738D02*
X155233390Y-127652976D01*
X155233390Y-127652976D02*
X155281009Y-127700595D01*
X155281009Y-127700595D02*
X155376247Y-127748214D01*
X155376247Y-127748214D02*
X155614342Y-127748214D01*
X155614342Y-127748214D02*
X155709580Y-127700595D01*
X155709580Y-127700595D02*
X155757200Y-127652976D01*
X155757200Y-127652976D02*
X155804819Y-127557738D01*
X155804819Y-127557738D02*
X155804819Y-127272024D01*
X155804819Y-127272024D02*
X155757200Y-127176786D01*
X155757200Y-127176786D02*
X155709580Y-127129167D01*
X194329819Y-76920833D02*
X193853628Y-76587500D01*
X194329819Y-76349405D02*
X193329819Y-76349405D01*
X193329819Y-76349405D02*
X193329819Y-76730357D01*
X193329819Y-76730357D02*
X193377438Y-76825595D01*
X193377438Y-76825595D02*
X193425057Y-76873214D01*
X193425057Y-76873214D02*
X193520295Y-76920833D01*
X193520295Y-76920833D02*
X193663152Y-76920833D01*
X193663152Y-76920833D02*
X193758390Y-76873214D01*
X193758390Y-76873214D02*
X193806009Y-76825595D01*
X193806009Y-76825595D02*
X193853628Y-76730357D01*
X193853628Y-76730357D02*
X193853628Y-76349405D01*
X193329819Y-77825595D02*
X193329819Y-77349405D01*
X193329819Y-77349405D02*
X193806009Y-77301786D01*
X193806009Y-77301786D02*
X193758390Y-77349405D01*
X193758390Y-77349405D02*
X193710771Y-77444643D01*
X193710771Y-77444643D02*
X193710771Y-77682738D01*
X193710771Y-77682738D02*
X193758390Y-77777976D01*
X193758390Y-77777976D02*
X193806009Y-77825595D01*
X193806009Y-77825595D02*
X193901247Y-77873214D01*
X193901247Y-77873214D02*
X194139342Y-77873214D01*
X194139342Y-77873214D02*
X194234580Y-77825595D01*
X194234580Y-77825595D02*
X194282200Y-77777976D01*
X194282200Y-77777976D02*
X194329819Y-77682738D01*
X194329819Y-77682738D02*
X194329819Y-77444643D01*
X194329819Y-77444643D02*
X194282200Y-77349405D01*
X194282200Y-77349405D02*
X194234580Y-77301786D01*
X157442857Y-81759580D02*
X157490476Y-81807200D01*
X157490476Y-81807200D02*
X157633333Y-81854819D01*
X157633333Y-81854819D02*
X157728571Y-81854819D01*
X157728571Y-81854819D02*
X157871428Y-81807200D01*
X157871428Y-81807200D02*
X157966666Y-81711961D01*
X157966666Y-81711961D02*
X158014285Y-81616723D01*
X158014285Y-81616723D02*
X158061904Y-81426247D01*
X158061904Y-81426247D02*
X158061904Y-81283390D01*
X158061904Y-81283390D02*
X158014285Y-81092914D01*
X158014285Y-81092914D02*
X157966666Y-80997676D01*
X157966666Y-80997676D02*
X157871428Y-80902438D01*
X157871428Y-80902438D02*
X157728571Y-80854819D01*
X157728571Y-80854819D02*
X157633333Y-80854819D01*
X157633333Y-80854819D02*
X157490476Y-80902438D01*
X157490476Y-80902438D02*
X157442857Y-80950057D01*
X156585714Y-81188152D02*
X156585714Y-81854819D01*
X156823809Y-80807200D02*
X157061904Y-81521485D01*
X157061904Y-81521485D02*
X156442857Y-81521485D01*
X156157142Y-80854819D02*
X155490476Y-80854819D01*
X155490476Y-80854819D02*
X155919047Y-81854819D01*
X169073079Y-85537377D02*
X169409797Y-85200660D01*
X169409797Y-85200660D02*
X168702690Y-84493553D01*
X168466987Y-86143469D02*
X168871048Y-85739408D01*
X168669018Y-85941438D02*
X167961911Y-85234332D01*
X167961911Y-85234332D02*
X168130270Y-85268003D01*
X168130270Y-85268003D02*
X168264957Y-85268003D01*
X168264957Y-85268003D02*
X168365972Y-85234332D01*
X171782963Y-112826174D02*
X172355382Y-112725159D01*
X172187024Y-113230235D02*
X172894130Y-112523128D01*
X172894130Y-112523128D02*
X172624756Y-112253754D01*
X172624756Y-112253754D02*
X172523741Y-112220082D01*
X172523741Y-112220082D02*
X172456398Y-112220082D01*
X172456398Y-112220082D02*
X172355382Y-112253754D01*
X172355382Y-112253754D02*
X172254367Y-112354769D01*
X172254367Y-112354769D02*
X172220695Y-112455785D01*
X172220695Y-112455785D02*
X172220695Y-112523128D01*
X172220695Y-112523128D02*
X172254367Y-112624143D01*
X172254367Y-112624143D02*
X172523741Y-112893517D01*
X171109528Y-112152739D02*
X171513589Y-112556800D01*
X171311558Y-112354769D02*
X172018665Y-111647663D01*
X172018665Y-111647663D02*
X171984993Y-111816021D01*
X171984993Y-111816021D02*
X171984993Y-111950708D01*
X171984993Y-111950708D02*
X172018665Y-112051724D01*
X171109527Y-111344617D02*
X171210543Y-111378288D01*
X171210543Y-111378288D02*
X171277886Y-111378288D01*
X171277886Y-111378288D02*
X171378901Y-111344617D01*
X171378901Y-111344617D02*
X171412573Y-111310945D01*
X171412573Y-111310945D02*
X171446245Y-111209930D01*
X171446245Y-111209930D02*
X171446245Y-111142586D01*
X171446245Y-111142586D02*
X171412573Y-111041571D01*
X171412573Y-111041571D02*
X171277886Y-110906884D01*
X171277886Y-110906884D02*
X171176871Y-110873212D01*
X171176871Y-110873212D02*
X171109527Y-110873212D01*
X171109527Y-110873212D02*
X171008512Y-110906884D01*
X171008512Y-110906884D02*
X170974840Y-110940556D01*
X170974840Y-110940556D02*
X170941169Y-111041571D01*
X170941169Y-111041571D02*
X170941169Y-111108914D01*
X170941169Y-111108914D02*
X170974840Y-111209930D01*
X170974840Y-111209930D02*
X171109527Y-111344617D01*
X171109527Y-111344617D02*
X171143199Y-111445632D01*
X171143199Y-111445632D02*
X171143199Y-111512975D01*
X171143199Y-111512975D02*
X171109527Y-111613991D01*
X171109527Y-111613991D02*
X170974840Y-111748678D01*
X170974840Y-111748678D02*
X170873825Y-111782349D01*
X170873825Y-111782349D02*
X170806482Y-111782349D01*
X170806482Y-111782349D02*
X170705466Y-111748678D01*
X170705466Y-111748678D02*
X170570779Y-111613991D01*
X170570779Y-111613991D02*
X170537108Y-111512975D01*
X170537108Y-111512975D02*
X170537108Y-111445632D01*
X170537108Y-111445632D02*
X170570779Y-111344617D01*
X170570779Y-111344617D02*
X170705466Y-111209930D01*
X170705466Y-111209930D02*
X170806482Y-111176258D01*
X170806482Y-111176258D02*
X170873825Y-111176258D01*
X170873825Y-111176258D02*
X170974840Y-111209930D01*
X143722618Y-73731009D02*
X143579761Y-73778628D01*
X143579761Y-73778628D02*
X143532142Y-73826247D01*
X143532142Y-73826247D02*
X143484523Y-73921485D01*
X143484523Y-73921485D02*
X143484523Y-74064342D01*
X143484523Y-74064342D02*
X143532142Y-74159580D01*
X143532142Y-74159580D02*
X143579761Y-74207200D01*
X143579761Y-74207200D02*
X143674999Y-74254819D01*
X143674999Y-74254819D02*
X144055951Y-74254819D01*
X144055951Y-74254819D02*
X144055951Y-73254819D01*
X144055951Y-73254819D02*
X143722618Y-73254819D01*
X143722618Y-73254819D02*
X143627380Y-73302438D01*
X143627380Y-73302438D02*
X143579761Y-73350057D01*
X143579761Y-73350057D02*
X143532142Y-73445295D01*
X143532142Y-73445295D02*
X143532142Y-73540533D01*
X143532142Y-73540533D02*
X143579761Y-73635771D01*
X143579761Y-73635771D02*
X143627380Y-73683390D01*
X143627380Y-73683390D02*
X143722618Y-73731009D01*
X143722618Y-73731009D02*
X144055951Y-73731009D01*
X143055951Y-73873866D02*
X142294047Y-73873866D01*
X142674999Y-74254819D02*
X142674999Y-73492914D01*
X172442857Y-73459580D02*
X172490476Y-73507200D01*
X172490476Y-73507200D02*
X172633333Y-73554819D01*
X172633333Y-73554819D02*
X172728571Y-73554819D01*
X172728571Y-73554819D02*
X172871428Y-73507200D01*
X172871428Y-73507200D02*
X172966666Y-73411961D01*
X172966666Y-73411961D02*
X173014285Y-73316723D01*
X173014285Y-73316723D02*
X173061904Y-73126247D01*
X173061904Y-73126247D02*
X173061904Y-72983390D01*
X173061904Y-72983390D02*
X173014285Y-72792914D01*
X173014285Y-72792914D02*
X172966666Y-72697676D01*
X172966666Y-72697676D02*
X172871428Y-72602438D01*
X172871428Y-72602438D02*
X172728571Y-72554819D01*
X172728571Y-72554819D02*
X172633333Y-72554819D01*
X172633333Y-72554819D02*
X172490476Y-72602438D01*
X172490476Y-72602438D02*
X172442857Y-72650057D01*
X171490476Y-73554819D02*
X172061904Y-73554819D01*
X171776190Y-73554819D02*
X171776190Y-72554819D01*
X171776190Y-72554819D02*
X171871428Y-72697676D01*
X171871428Y-72697676D02*
X171966666Y-72792914D01*
X171966666Y-72792914D02*
X172061904Y-72840533D01*
X171157142Y-72554819D02*
X170538095Y-72554819D01*
X170538095Y-72554819D02*
X170871428Y-72935771D01*
X170871428Y-72935771D02*
X170728571Y-72935771D01*
X170728571Y-72935771D02*
X170633333Y-72983390D01*
X170633333Y-72983390D02*
X170585714Y-73031009D01*
X170585714Y-73031009D02*
X170538095Y-73126247D01*
X170538095Y-73126247D02*
X170538095Y-73364342D01*
X170538095Y-73364342D02*
X170585714Y-73459580D01*
X170585714Y-73459580D02*
X170633333Y-73507200D01*
X170633333Y-73507200D02*
X170728571Y-73554819D01*
X170728571Y-73554819D02*
X171014285Y-73554819D01*
X171014285Y-73554819D02*
X171109523Y-73507200D01*
X171109523Y-73507200D02*
X171157142Y-73459580D01*
X184124250Y-97403246D02*
X183551830Y-97975666D01*
X183551830Y-97975666D02*
X183450815Y-98009338D01*
X183450815Y-98009338D02*
X183383471Y-98009338D01*
X183383471Y-98009338D02*
X183282456Y-97975666D01*
X183282456Y-97975666D02*
X183147769Y-97840979D01*
X183147769Y-97840979D02*
X183114097Y-97739964D01*
X183114097Y-97739964D02*
X183114097Y-97672620D01*
X183114097Y-97672620D02*
X183147769Y-97571605D01*
X183147769Y-97571605D02*
X183720189Y-96999185D01*
X182305975Y-96999185D02*
X182710036Y-97403246D01*
X182508006Y-97201216D02*
X183215112Y-96494109D01*
X183215112Y-96494109D02*
X183181441Y-96662468D01*
X183181441Y-96662468D02*
X183181441Y-96797155D01*
X183181441Y-96797155D02*
X183215112Y-96898170D01*
X173008830Y-94199693D02*
X173076174Y-94199693D01*
X173076174Y-94199693D02*
X173210861Y-94132349D01*
X173210861Y-94132349D02*
X173278204Y-94065006D01*
X173278204Y-94065006D02*
X173345548Y-93930319D01*
X173345548Y-93930319D02*
X173345548Y-93795632D01*
X173345548Y-93795632D02*
X173311876Y-93694617D01*
X173311876Y-93694617D02*
X173210861Y-93526258D01*
X173210861Y-93526258D02*
X173109846Y-93425243D01*
X173109846Y-93425243D02*
X172941487Y-93324227D01*
X172941487Y-93324227D02*
X172840472Y-93290556D01*
X172840472Y-93290556D02*
X172705785Y-93290556D01*
X172705785Y-93290556D02*
X172571098Y-93357899D01*
X172571098Y-93357899D02*
X172503754Y-93425243D01*
X172503754Y-93425243D02*
X172436411Y-93559930D01*
X172436411Y-93559930D02*
X172436411Y-93627273D01*
X172133365Y-93795632D02*
X171695632Y-94233365D01*
X171695632Y-94233365D02*
X172200708Y-94267036D01*
X172200708Y-94267036D02*
X172099693Y-94368052D01*
X172099693Y-94368052D02*
X172066021Y-94469067D01*
X172066021Y-94469067D02*
X172066021Y-94536410D01*
X172066021Y-94536410D02*
X172099693Y-94637426D01*
X172099693Y-94637426D02*
X172268052Y-94805784D01*
X172268052Y-94805784D02*
X172369067Y-94839456D01*
X172369067Y-94839456D02*
X172436411Y-94839456D01*
X172436411Y-94839456D02*
X172537426Y-94805784D01*
X172537426Y-94805784D02*
X172739456Y-94603754D01*
X172739456Y-94603754D02*
X172773128Y-94502739D01*
X172773128Y-94502739D02*
X172773128Y-94435395D01*
X171325243Y-95075159D02*
X171796647Y-95546563D01*
X171224227Y-94637426D02*
X171897662Y-94974143D01*
X171897662Y-94974143D02*
X171459930Y-95411876D01*
X149820038Y-108183490D02*
X149820038Y-108250834D01*
X149820038Y-108250834D02*
X149887382Y-108385521D01*
X149887382Y-108385521D02*
X149954725Y-108452864D01*
X149954725Y-108452864D02*
X150089412Y-108520208D01*
X150089412Y-108520208D02*
X150224099Y-108520208D01*
X150224099Y-108520208D02*
X150325114Y-108486536D01*
X150325114Y-108486536D02*
X150493473Y-108385521D01*
X150493473Y-108385521D02*
X150594488Y-108284506D01*
X150594488Y-108284506D02*
X150695504Y-108116147D01*
X150695504Y-108116147D02*
X150729175Y-108015132D01*
X150729175Y-108015132D02*
X150729175Y-107880445D01*
X150729175Y-107880445D02*
X150661832Y-107745758D01*
X150661832Y-107745758D02*
X150594488Y-107678414D01*
X150594488Y-107678414D02*
X150459801Y-107611071D01*
X150459801Y-107611071D02*
X150392458Y-107611071D01*
X150224099Y-107308025D02*
X149786366Y-106870292D01*
X149786366Y-106870292D02*
X149752695Y-107375368D01*
X149752695Y-107375368D02*
X149651679Y-107274353D01*
X149651679Y-107274353D02*
X149550664Y-107240681D01*
X149550664Y-107240681D02*
X149483321Y-107240681D01*
X149483321Y-107240681D02*
X149382305Y-107274353D01*
X149382305Y-107274353D02*
X149213947Y-107442712D01*
X149213947Y-107442712D02*
X149180275Y-107543727D01*
X149180275Y-107543727D02*
X149180275Y-107611071D01*
X149180275Y-107611071D02*
X149213947Y-107712086D01*
X149213947Y-107712086D02*
X149415977Y-107914116D01*
X149415977Y-107914116D02*
X149516992Y-107947788D01*
X149516992Y-107947788D02*
X149584336Y-107947788D01*
X149449649Y-106668261D02*
X149449649Y-106600918D01*
X149449649Y-106600918D02*
X149415977Y-106499903D01*
X149415977Y-106499903D02*
X149247618Y-106331544D01*
X149247618Y-106331544D02*
X149146603Y-106297872D01*
X149146603Y-106297872D02*
X149079259Y-106297872D01*
X149079259Y-106297872D02*
X148978244Y-106331544D01*
X148978244Y-106331544D02*
X148910901Y-106398887D01*
X148910901Y-106398887D02*
X148843557Y-106533574D01*
X148843557Y-106533574D02*
X148843557Y-107341696D01*
X148843557Y-107341696D02*
X148405824Y-106903964D01*
X143454166Y-81604819D02*
X143787499Y-81128628D01*
X144025594Y-81604819D02*
X144025594Y-80604819D01*
X144025594Y-80604819D02*
X143644642Y-80604819D01*
X143644642Y-80604819D02*
X143549404Y-80652438D01*
X143549404Y-80652438D02*
X143501785Y-80700057D01*
X143501785Y-80700057D02*
X143454166Y-80795295D01*
X143454166Y-80795295D02*
X143454166Y-80938152D01*
X143454166Y-80938152D02*
X143501785Y-81033390D01*
X143501785Y-81033390D02*
X143549404Y-81081009D01*
X143549404Y-81081009D02*
X143644642Y-81128628D01*
X143644642Y-81128628D02*
X144025594Y-81128628D01*
X142597023Y-80938152D02*
X142597023Y-81604819D01*
X142835118Y-80557200D02*
X143073213Y-81271485D01*
X143073213Y-81271485D02*
X142454166Y-81271485D01*
X149109580Y-126783333D02*
X149157200Y-126735714D01*
X149157200Y-126735714D02*
X149204819Y-126592857D01*
X149204819Y-126592857D02*
X149204819Y-126497619D01*
X149204819Y-126497619D02*
X149157200Y-126354762D01*
X149157200Y-126354762D02*
X149061961Y-126259524D01*
X149061961Y-126259524D02*
X148966723Y-126211905D01*
X148966723Y-126211905D02*
X148776247Y-126164286D01*
X148776247Y-126164286D02*
X148633390Y-126164286D01*
X148633390Y-126164286D02*
X148442914Y-126211905D01*
X148442914Y-126211905D02*
X148347676Y-126259524D01*
X148347676Y-126259524D02*
X148252438Y-126354762D01*
X148252438Y-126354762D02*
X148204819Y-126497619D01*
X148204819Y-126497619D02*
X148204819Y-126592857D01*
X148204819Y-126592857D02*
X148252438Y-126735714D01*
X148252438Y-126735714D02*
X148300057Y-126783333D01*
X148300057Y-127164286D02*
X148252438Y-127211905D01*
X148252438Y-127211905D02*
X148204819Y-127307143D01*
X148204819Y-127307143D02*
X148204819Y-127545238D01*
X148204819Y-127545238D02*
X148252438Y-127640476D01*
X148252438Y-127640476D02*
X148300057Y-127688095D01*
X148300057Y-127688095D02*
X148395295Y-127735714D01*
X148395295Y-127735714D02*
X148490533Y-127735714D01*
X148490533Y-127735714D02*
X148633390Y-127688095D01*
X148633390Y-127688095D02*
X149204819Y-127116667D01*
X149204819Y-127116667D02*
X149204819Y-127735714D01*
X165398634Y-83889496D02*
X165297619Y-83317077D01*
X165802695Y-83485435D02*
X165095588Y-82778329D01*
X165095588Y-82778329D02*
X164826214Y-83047703D01*
X164826214Y-83047703D02*
X164792542Y-83148718D01*
X164792542Y-83148718D02*
X164792542Y-83216061D01*
X164792542Y-83216061D02*
X164826214Y-83317077D01*
X164826214Y-83317077D02*
X164927229Y-83418092D01*
X164927229Y-83418092D02*
X165028245Y-83451764D01*
X165028245Y-83451764D02*
X165095588Y-83451764D01*
X165095588Y-83451764D02*
X165196603Y-83418092D01*
X165196603Y-83418092D02*
X165465977Y-83148718D01*
X164455825Y-83418092D02*
X164018092Y-83855825D01*
X164018092Y-83855825D02*
X164523168Y-83889496D01*
X164523168Y-83889496D02*
X164422153Y-83990512D01*
X164422153Y-83990512D02*
X164388481Y-84091527D01*
X164388481Y-84091527D02*
X164388481Y-84158870D01*
X164388481Y-84158870D02*
X164422153Y-84259886D01*
X164422153Y-84259886D02*
X164590512Y-84428244D01*
X164590512Y-84428244D02*
X164691527Y-84461916D01*
X164691527Y-84461916D02*
X164758871Y-84461916D01*
X164758871Y-84461916D02*
X164859886Y-84428244D01*
X164859886Y-84428244D02*
X165061916Y-84226214D01*
X165061916Y-84226214D02*
X165095588Y-84125199D01*
X165095588Y-84125199D02*
X165095588Y-84057855D01*
X163816061Y-84192542D02*
X163748718Y-84192542D01*
X163748718Y-84192542D02*
X163647703Y-84226214D01*
X163647703Y-84226214D02*
X163479344Y-84394573D01*
X163479344Y-84394573D02*
X163445672Y-84495588D01*
X163445672Y-84495588D02*
X163445672Y-84562932D01*
X163445672Y-84562932D02*
X163479344Y-84663947D01*
X163479344Y-84663947D02*
X163546687Y-84731290D01*
X163546687Y-84731290D02*
X163681374Y-84798634D01*
X163681374Y-84798634D02*
X164489496Y-84798634D01*
X164489496Y-84798634D02*
X164051764Y-85236367D01*
X147557963Y-118326174D02*
X148130382Y-118225159D01*
X147962024Y-118730235D02*
X148669130Y-118023128D01*
X148669130Y-118023128D02*
X148399756Y-117753754D01*
X148399756Y-117753754D02*
X148298741Y-117720082D01*
X148298741Y-117720082D02*
X148231398Y-117720082D01*
X148231398Y-117720082D02*
X148130382Y-117753754D01*
X148130382Y-117753754D02*
X148029367Y-117854769D01*
X148029367Y-117854769D02*
X147995695Y-117955785D01*
X147995695Y-117955785D02*
X147995695Y-118023128D01*
X147995695Y-118023128D02*
X148029367Y-118124143D01*
X148029367Y-118124143D02*
X148298741Y-118393517D01*
X146884528Y-117652739D02*
X147288589Y-118056800D01*
X147086558Y-117854769D02*
X147793665Y-117147663D01*
X147793665Y-117147663D02*
X147759993Y-117316021D01*
X147759993Y-117316021D02*
X147759993Y-117450708D01*
X147759993Y-117450708D02*
X147793665Y-117551724D01*
X147254917Y-116743601D02*
X147254917Y-116676258D01*
X147254917Y-116676258D02*
X147221245Y-116575243D01*
X147221245Y-116575243D02*
X147052886Y-116406884D01*
X147052886Y-116406884D02*
X146951871Y-116373212D01*
X146951871Y-116373212D02*
X146884527Y-116373212D01*
X146884527Y-116373212D02*
X146783512Y-116406884D01*
X146783512Y-116406884D02*
X146716169Y-116474227D01*
X146716169Y-116474227D02*
X146648825Y-116608914D01*
X146648825Y-116608914D02*
X146648825Y-117417036D01*
X146648825Y-117417036D02*
X146211092Y-116979304D01*
X172121409Y-92571801D02*
X172020394Y-91999382D01*
X172525470Y-92167740D02*
X171818363Y-91460634D01*
X171818363Y-91460634D02*
X171548989Y-91730008D01*
X171548989Y-91730008D02*
X171515317Y-91831023D01*
X171515317Y-91831023D02*
X171515317Y-91898366D01*
X171515317Y-91898366D02*
X171548989Y-91999382D01*
X171548989Y-91999382D02*
X171650004Y-92100397D01*
X171650004Y-92100397D02*
X171751020Y-92134069D01*
X171751020Y-92134069D02*
X171818363Y-92134069D01*
X171818363Y-92134069D02*
X171919378Y-92100397D01*
X171919378Y-92100397D02*
X172188752Y-91831023D01*
X171178600Y-92100397D02*
X170740867Y-92538130D01*
X170740867Y-92538130D02*
X171245943Y-92571801D01*
X171245943Y-92571801D02*
X171144928Y-92672817D01*
X171144928Y-92672817D02*
X171111256Y-92773832D01*
X171111256Y-92773832D02*
X171111256Y-92841175D01*
X171111256Y-92841175D02*
X171144928Y-92942191D01*
X171144928Y-92942191D02*
X171313287Y-93110549D01*
X171313287Y-93110549D02*
X171414302Y-93144221D01*
X171414302Y-93144221D02*
X171481646Y-93144221D01*
X171481646Y-93144221D02*
X171582661Y-93110549D01*
X171582661Y-93110549D02*
X171784691Y-92908519D01*
X171784691Y-92908519D02*
X171818363Y-92807504D01*
X171818363Y-92807504D02*
X171818363Y-92740160D01*
X170505165Y-92773832D02*
X170067432Y-93211565D01*
X170067432Y-93211565D02*
X170572508Y-93245237D01*
X170572508Y-93245237D02*
X170471493Y-93346252D01*
X170471493Y-93346252D02*
X170437821Y-93447267D01*
X170437821Y-93447267D02*
X170437821Y-93514611D01*
X170437821Y-93514611D02*
X170471493Y-93615626D01*
X170471493Y-93615626D02*
X170639852Y-93783985D01*
X170639852Y-93783985D02*
X170740867Y-93817656D01*
X170740867Y-93817656D02*
X170808210Y-93817656D01*
X170808210Y-93817656D02*
X170909226Y-93783985D01*
X170909226Y-93783985D02*
X171111256Y-93581954D01*
X171111256Y-93581954D02*
X171144928Y-93480939D01*
X171144928Y-93480939D02*
X171144928Y-93413595D01*
X167242454Y-86733316D02*
X167309798Y-86733316D01*
X167309798Y-86733316D02*
X167444485Y-86665972D01*
X167444485Y-86665972D02*
X167511828Y-86598629D01*
X167511828Y-86598629D02*
X167579172Y-86463942D01*
X167579172Y-86463942D02*
X167579172Y-86329255D01*
X167579172Y-86329255D02*
X167545500Y-86228240D01*
X167545500Y-86228240D02*
X167444485Y-86059881D01*
X167444485Y-86059881D02*
X167343470Y-85958866D01*
X167343470Y-85958866D02*
X167175111Y-85857850D01*
X167175111Y-85857850D02*
X167074096Y-85824179D01*
X167074096Y-85824179D02*
X166939409Y-85824179D01*
X166939409Y-85824179D02*
X166804722Y-85891522D01*
X166804722Y-85891522D02*
X166737378Y-85958866D01*
X166737378Y-85958866D02*
X166670035Y-86093553D01*
X166670035Y-86093553D02*
X166670035Y-86160896D01*
X166400661Y-86430270D02*
X166333317Y-86430270D01*
X166333317Y-86430270D02*
X166232302Y-86463942D01*
X166232302Y-86463942D02*
X166063943Y-86632301D01*
X166063943Y-86632301D02*
X166030271Y-86733316D01*
X166030271Y-86733316D02*
X166030271Y-86800659D01*
X166030271Y-86800659D02*
X166063943Y-86901675D01*
X166063943Y-86901675D02*
X166131287Y-86969018D01*
X166131287Y-86969018D02*
X166265974Y-87036362D01*
X166265974Y-87036362D02*
X167074096Y-87036362D01*
X167074096Y-87036362D02*
X166636363Y-87474094D01*
X166299645Y-87810812D02*
X166164958Y-87945499D01*
X166164958Y-87945499D02*
X166063943Y-87979171D01*
X166063943Y-87979171D02*
X165996599Y-87979171D01*
X165996599Y-87979171D02*
X165828241Y-87945499D01*
X165828241Y-87945499D02*
X165659882Y-87844484D01*
X165659882Y-87844484D02*
X165390508Y-87575110D01*
X165390508Y-87575110D02*
X165356836Y-87474095D01*
X165356836Y-87474095D02*
X165356836Y-87406751D01*
X165356836Y-87406751D02*
X165390508Y-87305736D01*
X165390508Y-87305736D02*
X165525195Y-87171049D01*
X165525195Y-87171049D02*
X165626210Y-87137377D01*
X165626210Y-87137377D02*
X165693554Y-87137377D01*
X165693554Y-87137377D02*
X165794569Y-87171049D01*
X165794569Y-87171049D02*
X165962928Y-87339408D01*
X165962928Y-87339408D02*
X165996599Y-87440423D01*
X165996599Y-87440423D02*
X165996599Y-87507766D01*
X165996599Y-87507766D02*
X165962928Y-87608782D01*
X165962928Y-87608782D02*
X165828241Y-87743469D01*
X165828241Y-87743469D02*
X165727225Y-87777140D01*
X165727225Y-87777140D02*
X165659882Y-87777140D01*
X165659882Y-87777140D02*
X165558867Y-87743469D01*
X109494047Y-99431009D02*
X109351190Y-99478628D01*
X109351190Y-99478628D02*
X109303571Y-99526247D01*
X109303571Y-99526247D02*
X109255952Y-99621485D01*
X109255952Y-99621485D02*
X109255952Y-99764342D01*
X109255952Y-99764342D02*
X109303571Y-99859580D01*
X109303571Y-99859580D02*
X109351190Y-99907200D01*
X109351190Y-99907200D02*
X109446428Y-99954819D01*
X109446428Y-99954819D02*
X109827380Y-99954819D01*
X109827380Y-99954819D02*
X109827380Y-98954819D01*
X109827380Y-98954819D02*
X109494047Y-98954819D01*
X109494047Y-98954819D02*
X109398809Y-99002438D01*
X109398809Y-99002438D02*
X109351190Y-99050057D01*
X109351190Y-99050057D02*
X109303571Y-99145295D01*
X109303571Y-99145295D02*
X109303571Y-99240533D01*
X109303571Y-99240533D02*
X109351190Y-99335771D01*
X109351190Y-99335771D02*
X109398809Y-99383390D01*
X109398809Y-99383390D02*
X109494047Y-99431009D01*
X109494047Y-99431009D02*
X109827380Y-99431009D01*
X108874999Y-99669104D02*
X108398809Y-99669104D01*
X108970237Y-99954819D02*
X108636904Y-98954819D01*
X108636904Y-98954819D02*
X108303571Y-99954819D01*
X108113094Y-98954819D02*
X107541666Y-98954819D01*
X107827380Y-99954819D02*
X107827380Y-98954819D01*
X107351189Y-98954819D02*
X106779761Y-98954819D01*
X107065475Y-99954819D02*
X107065475Y-98954819D01*
X189646907Y-79206570D02*
X189980240Y-78730379D01*
X190218335Y-79206570D02*
X190218335Y-78206570D01*
X190218335Y-78206570D02*
X189837383Y-78206570D01*
X189837383Y-78206570D02*
X189742145Y-78254189D01*
X189742145Y-78254189D02*
X189694526Y-78301808D01*
X189694526Y-78301808D02*
X189646907Y-78397046D01*
X189646907Y-78397046D02*
X189646907Y-78539903D01*
X189646907Y-78539903D02*
X189694526Y-78635141D01*
X189694526Y-78635141D02*
X189742145Y-78682760D01*
X189742145Y-78682760D02*
X189837383Y-78730379D01*
X189837383Y-78730379D02*
X190218335Y-78730379D01*
X189265954Y-78301808D02*
X189218335Y-78254189D01*
X189218335Y-78254189D02*
X189123097Y-78206570D01*
X189123097Y-78206570D02*
X188885002Y-78206570D01*
X188885002Y-78206570D02*
X188789764Y-78254189D01*
X188789764Y-78254189D02*
X188742145Y-78301808D01*
X188742145Y-78301808D02*
X188694526Y-78397046D01*
X188694526Y-78397046D02*
X188694526Y-78492284D01*
X188694526Y-78492284D02*
X188742145Y-78635141D01*
X188742145Y-78635141D02*
X189313573Y-79206570D01*
X189313573Y-79206570D02*
X188694526Y-79206570D01*
X188313573Y-78301808D02*
X188265954Y-78254189D01*
X188265954Y-78254189D02*
X188170716Y-78206570D01*
X188170716Y-78206570D02*
X187932621Y-78206570D01*
X187932621Y-78206570D02*
X187837383Y-78254189D01*
X187837383Y-78254189D02*
X187789764Y-78301808D01*
X187789764Y-78301808D02*
X187742145Y-78397046D01*
X187742145Y-78397046D02*
X187742145Y-78492284D01*
X187742145Y-78492284D02*
X187789764Y-78635141D01*
X187789764Y-78635141D02*
X188361192Y-79206570D01*
X188361192Y-79206570D02*
X187742145Y-79206570D01*
X145450306Y-112058830D02*
X145450306Y-112126174D01*
X145450306Y-112126174D02*
X145517650Y-112260861D01*
X145517650Y-112260861D02*
X145584993Y-112328204D01*
X145584993Y-112328204D02*
X145719680Y-112395548D01*
X145719680Y-112395548D02*
X145854367Y-112395548D01*
X145854367Y-112395548D02*
X145955382Y-112361876D01*
X145955382Y-112361876D02*
X146123741Y-112260861D01*
X146123741Y-112260861D02*
X146224756Y-112159846D01*
X146224756Y-112159846D02*
X146325772Y-111991487D01*
X146325772Y-111991487D02*
X146359443Y-111890472D01*
X146359443Y-111890472D02*
X146359443Y-111755785D01*
X146359443Y-111755785D02*
X146292100Y-111621098D01*
X146292100Y-111621098D02*
X146224756Y-111553754D01*
X146224756Y-111553754D02*
X146090069Y-111486411D01*
X146090069Y-111486411D02*
X146022726Y-111486411D01*
X145248276Y-111048678D02*
X144776871Y-111520082D01*
X145686008Y-110947663D02*
X145349291Y-111621098D01*
X145349291Y-111621098D02*
X144911558Y-111183365D01*
X144776871Y-110105869D02*
X145113589Y-110442586D01*
X145113589Y-110442586D02*
X144810543Y-110812975D01*
X144810543Y-110812975D02*
X144810543Y-110745632D01*
X144810543Y-110745632D02*
X144776871Y-110644617D01*
X144776871Y-110644617D02*
X144608512Y-110476258D01*
X144608512Y-110476258D02*
X144507497Y-110442586D01*
X144507497Y-110442586D02*
X144440153Y-110442586D01*
X144440153Y-110442586D02*
X144339138Y-110476258D01*
X144339138Y-110476258D02*
X144170779Y-110644617D01*
X144170779Y-110644617D02*
X144137108Y-110745632D01*
X144137108Y-110745632D02*
X144137108Y-110812975D01*
X144137108Y-110812975D02*
X144170779Y-110913991D01*
X144170779Y-110913991D02*
X144339138Y-111082349D01*
X144339138Y-111082349D02*
X144440153Y-111116021D01*
X144440153Y-111116021D02*
X144507497Y-111116021D01*
X151904819Y-101407142D02*
X151428628Y-101073809D01*
X151904819Y-100835714D02*
X150904819Y-100835714D01*
X150904819Y-100835714D02*
X150904819Y-101216666D01*
X150904819Y-101216666D02*
X150952438Y-101311904D01*
X150952438Y-101311904D02*
X151000057Y-101359523D01*
X151000057Y-101359523D02*
X151095295Y-101407142D01*
X151095295Y-101407142D02*
X151238152Y-101407142D01*
X151238152Y-101407142D02*
X151333390Y-101359523D01*
X151333390Y-101359523D02*
X151381009Y-101311904D01*
X151381009Y-101311904D02*
X151428628Y-101216666D01*
X151428628Y-101216666D02*
X151428628Y-100835714D01*
X150904819Y-101740476D02*
X150904819Y-102359523D01*
X150904819Y-102359523D02*
X151285771Y-102026190D01*
X151285771Y-102026190D02*
X151285771Y-102169047D01*
X151285771Y-102169047D02*
X151333390Y-102264285D01*
X151333390Y-102264285D02*
X151381009Y-102311904D01*
X151381009Y-102311904D02*
X151476247Y-102359523D01*
X151476247Y-102359523D02*
X151714342Y-102359523D01*
X151714342Y-102359523D02*
X151809580Y-102311904D01*
X151809580Y-102311904D02*
X151857200Y-102264285D01*
X151857200Y-102264285D02*
X151904819Y-102169047D01*
X151904819Y-102169047D02*
X151904819Y-101883333D01*
X151904819Y-101883333D02*
X151857200Y-101788095D01*
X151857200Y-101788095D02*
X151809580Y-101740476D01*
X151238152Y-103216666D02*
X151904819Y-103216666D01*
X150857200Y-102978571D02*
X151571485Y-102740476D01*
X151571485Y-102740476D02*
X151571485Y-103359523D01*
X173550306Y-111708830D02*
X173550306Y-111776174D01*
X173550306Y-111776174D02*
X173617650Y-111910861D01*
X173617650Y-111910861D02*
X173684993Y-111978204D01*
X173684993Y-111978204D02*
X173819680Y-112045548D01*
X173819680Y-112045548D02*
X173954367Y-112045548D01*
X173954367Y-112045548D02*
X174055382Y-112011876D01*
X174055382Y-112011876D02*
X174223741Y-111910861D01*
X174223741Y-111910861D02*
X174324756Y-111809846D01*
X174324756Y-111809846D02*
X174425772Y-111641487D01*
X174425772Y-111641487D02*
X174459443Y-111540472D01*
X174459443Y-111540472D02*
X174459443Y-111405785D01*
X174459443Y-111405785D02*
X174392100Y-111271098D01*
X174392100Y-111271098D02*
X174324756Y-111203754D01*
X174324756Y-111203754D02*
X174190069Y-111136411D01*
X174190069Y-111136411D02*
X174122726Y-111136411D01*
X173954367Y-110833365D02*
X173516634Y-110395632D01*
X173516634Y-110395632D02*
X173482963Y-110900708D01*
X173482963Y-110900708D02*
X173381947Y-110799693D01*
X173381947Y-110799693D02*
X173280932Y-110766021D01*
X173280932Y-110766021D02*
X173213589Y-110766021D01*
X173213589Y-110766021D02*
X173112573Y-110799693D01*
X173112573Y-110799693D02*
X172944215Y-110968052D01*
X172944215Y-110968052D02*
X172910543Y-111069067D01*
X172910543Y-111069067D02*
X172910543Y-111136411D01*
X172910543Y-111136411D02*
X172944215Y-111237426D01*
X172944215Y-111237426D02*
X173146245Y-111439456D01*
X173146245Y-111439456D02*
X173247260Y-111473128D01*
X173247260Y-111473128D02*
X173314604Y-111473128D01*
X172136092Y-110429304D02*
X172540153Y-110833365D01*
X172338123Y-110631334D02*
X173045230Y-109924227D01*
X173045230Y-109924227D02*
X173011558Y-110092586D01*
X173011558Y-110092586D02*
X173011558Y-110227273D01*
X173011558Y-110227273D02*
X173045230Y-110328288D01*
X175082963Y-114376174D02*
X175655382Y-114275159D01*
X175487024Y-114780235D02*
X176194130Y-114073128D01*
X176194130Y-114073128D02*
X175924756Y-113803754D01*
X175924756Y-113803754D02*
X175823741Y-113770082D01*
X175823741Y-113770082D02*
X175756398Y-113770082D01*
X175756398Y-113770082D02*
X175655382Y-113803754D01*
X175655382Y-113803754D02*
X175554367Y-113904769D01*
X175554367Y-113904769D02*
X175520695Y-114005785D01*
X175520695Y-114005785D02*
X175520695Y-114073128D01*
X175520695Y-114073128D02*
X175554367Y-114174143D01*
X175554367Y-114174143D02*
X175823741Y-114443517D01*
X175453352Y-113467037D02*
X175453352Y-113399693D01*
X175453352Y-113399693D02*
X175419680Y-113298678D01*
X175419680Y-113298678D02*
X175251321Y-113130319D01*
X175251321Y-113130319D02*
X175150306Y-113096647D01*
X175150306Y-113096647D02*
X175082963Y-113096647D01*
X175082963Y-113096647D02*
X174981947Y-113130319D01*
X174981947Y-113130319D02*
X174914604Y-113197663D01*
X174914604Y-113197663D02*
X174847260Y-113332350D01*
X174847260Y-113332350D02*
X174847260Y-114140472D01*
X174847260Y-114140472D02*
X174409528Y-113702739D01*
X174274840Y-112625243D02*
X173803436Y-113096647D01*
X174712573Y-112524227D02*
X174375856Y-113197662D01*
X174375856Y-113197662D02*
X173938123Y-112759930D01*
X145864455Y-86803754D02*
X145763440Y-86231335D01*
X146268516Y-86399693D02*
X145561409Y-85692587D01*
X145561409Y-85692587D02*
X145292035Y-85961961D01*
X145292035Y-85961961D02*
X145258363Y-86062976D01*
X145258363Y-86062976D02*
X145258363Y-86130319D01*
X145258363Y-86130319D02*
X145292035Y-86231335D01*
X145292035Y-86231335D02*
X145393050Y-86332350D01*
X145393050Y-86332350D02*
X145494066Y-86366022D01*
X145494066Y-86366022D02*
X145561409Y-86366022D01*
X145561409Y-86366022D02*
X145662424Y-86332350D01*
X145662424Y-86332350D02*
X145931798Y-86062976D01*
X145056333Y-86803754D02*
X145090005Y-86702739D01*
X145090005Y-86702739D02*
X145090005Y-86635396D01*
X145090005Y-86635396D02*
X145056333Y-86534380D01*
X145056333Y-86534380D02*
X145022661Y-86500709D01*
X145022661Y-86500709D02*
X144921646Y-86467037D01*
X144921646Y-86467037D02*
X144854302Y-86467037D01*
X144854302Y-86467037D02*
X144753287Y-86500709D01*
X144753287Y-86500709D02*
X144618600Y-86635396D01*
X144618600Y-86635396D02*
X144584928Y-86736411D01*
X144584928Y-86736411D02*
X144584928Y-86803754D01*
X144584928Y-86803754D02*
X144618600Y-86904770D01*
X144618600Y-86904770D02*
X144652272Y-86938441D01*
X144652272Y-86938441D02*
X144753287Y-86972113D01*
X144753287Y-86972113D02*
X144820631Y-86972113D01*
X144820631Y-86972113D02*
X144921646Y-86938441D01*
X144921646Y-86938441D02*
X145056333Y-86803754D01*
X145056333Y-86803754D02*
X145157348Y-86770083D01*
X145157348Y-86770083D02*
X145224692Y-86770083D01*
X145224692Y-86770083D02*
X145325707Y-86803754D01*
X145325707Y-86803754D02*
X145460394Y-86938441D01*
X145460394Y-86938441D02*
X145494066Y-87039457D01*
X145494066Y-87039457D02*
X145494066Y-87106800D01*
X145494066Y-87106800D02*
X145460394Y-87207815D01*
X145460394Y-87207815D02*
X145325707Y-87342502D01*
X145325707Y-87342502D02*
X145224692Y-87376174D01*
X145224692Y-87376174D02*
X145157348Y-87376174D01*
X145157348Y-87376174D02*
X145056333Y-87342502D01*
X145056333Y-87342502D02*
X144921646Y-87207815D01*
X144921646Y-87207815D02*
X144887974Y-87106800D01*
X144887974Y-87106800D02*
X144887974Y-87039457D01*
X144887974Y-87039457D02*
X144921646Y-86938441D01*
X145607963Y-120426174D02*
X146180382Y-120325159D01*
X146012024Y-120830235D02*
X146719130Y-120123128D01*
X146719130Y-120123128D02*
X146449756Y-119853754D01*
X146449756Y-119853754D02*
X146348741Y-119820082D01*
X146348741Y-119820082D02*
X146281398Y-119820082D01*
X146281398Y-119820082D02*
X146180382Y-119853754D01*
X146180382Y-119853754D02*
X146079367Y-119954769D01*
X146079367Y-119954769D02*
X146045695Y-120055785D01*
X146045695Y-120055785D02*
X146045695Y-120123128D01*
X146045695Y-120123128D02*
X146079367Y-120224143D01*
X146079367Y-120224143D02*
X146348741Y-120493517D01*
X144934528Y-119752739D02*
X145338589Y-120156800D01*
X145136558Y-119954769D02*
X145843665Y-119247663D01*
X145843665Y-119247663D02*
X145809993Y-119416021D01*
X145809993Y-119416021D02*
X145809993Y-119550708D01*
X145809993Y-119550708D02*
X145843665Y-119651724D01*
X144261092Y-119079304D02*
X144665153Y-119483365D01*
X144463123Y-119281334D02*
X145170230Y-118574227D01*
X145170230Y-118574227D02*
X145136558Y-118742586D01*
X145136558Y-118742586D02*
X145136558Y-118877273D01*
X145136558Y-118877273D02*
X145170230Y-118978288D01*
X151700306Y-92308829D02*
X151700306Y-92376173D01*
X151700306Y-92376173D02*
X151767650Y-92510860D01*
X151767650Y-92510860D02*
X151834993Y-92578203D01*
X151834993Y-92578203D02*
X151969680Y-92645547D01*
X151969680Y-92645547D02*
X152104367Y-92645547D01*
X152104367Y-92645547D02*
X152205382Y-92611875D01*
X152205382Y-92611875D02*
X152373741Y-92510860D01*
X152373741Y-92510860D02*
X152474756Y-92409845D01*
X152474756Y-92409845D02*
X152575772Y-92241486D01*
X152575772Y-92241486D02*
X152609443Y-92140471D01*
X152609443Y-92140471D02*
X152609443Y-92005784D01*
X152609443Y-92005784D02*
X152542100Y-91871097D01*
X152542100Y-91871097D02*
X152474756Y-91803753D01*
X152474756Y-91803753D02*
X152340069Y-91736410D01*
X152340069Y-91736410D02*
X152272726Y-91736410D01*
X151498276Y-91298677D02*
X151026871Y-91770081D01*
X151936008Y-91197662D02*
X151599291Y-91871097D01*
X151599291Y-91871097D02*
X151161558Y-91433364D01*
X151228901Y-90557898D02*
X151161558Y-90490555D01*
X151161558Y-90490555D02*
X151060543Y-90456883D01*
X151060543Y-90456883D02*
X150993199Y-90456883D01*
X150993199Y-90456883D02*
X150892184Y-90490555D01*
X150892184Y-90490555D02*
X150723825Y-90591570D01*
X150723825Y-90591570D02*
X150555466Y-90759929D01*
X150555466Y-90759929D02*
X150454451Y-90928287D01*
X150454451Y-90928287D02*
X150420779Y-91029303D01*
X150420779Y-91029303D02*
X150420779Y-91096646D01*
X150420779Y-91096646D02*
X150454451Y-91197661D01*
X150454451Y-91197661D02*
X150521795Y-91265005D01*
X150521795Y-91265005D02*
X150622810Y-91298677D01*
X150622810Y-91298677D02*
X150690153Y-91298677D01*
X150690153Y-91298677D02*
X150791169Y-91265005D01*
X150791169Y-91265005D02*
X150959527Y-91163990D01*
X150959527Y-91163990D02*
X151127886Y-90995631D01*
X151127886Y-90995631D02*
X151228901Y-90827272D01*
X151228901Y-90827272D02*
X151262573Y-90726257D01*
X151262573Y-90726257D02*
X151262573Y-90658913D01*
X151262573Y-90658913D02*
X151228901Y-90557898D01*
X163634580Y-126770833D02*
X163682200Y-126723214D01*
X163682200Y-126723214D02*
X163729819Y-126580357D01*
X163729819Y-126580357D02*
X163729819Y-126485119D01*
X163729819Y-126485119D02*
X163682200Y-126342262D01*
X163682200Y-126342262D02*
X163586961Y-126247024D01*
X163586961Y-126247024D02*
X163491723Y-126199405D01*
X163491723Y-126199405D02*
X163301247Y-126151786D01*
X163301247Y-126151786D02*
X163158390Y-126151786D01*
X163158390Y-126151786D02*
X162967914Y-126199405D01*
X162967914Y-126199405D02*
X162872676Y-126247024D01*
X162872676Y-126247024D02*
X162777438Y-126342262D01*
X162777438Y-126342262D02*
X162729819Y-126485119D01*
X162729819Y-126485119D02*
X162729819Y-126580357D01*
X162729819Y-126580357D02*
X162777438Y-126723214D01*
X162777438Y-126723214D02*
X162825057Y-126770833D01*
X162729819Y-127675595D02*
X162729819Y-127199405D01*
X162729819Y-127199405D02*
X163206009Y-127151786D01*
X163206009Y-127151786D02*
X163158390Y-127199405D01*
X163158390Y-127199405D02*
X163110771Y-127294643D01*
X163110771Y-127294643D02*
X163110771Y-127532738D01*
X163110771Y-127532738D02*
X163158390Y-127627976D01*
X163158390Y-127627976D02*
X163206009Y-127675595D01*
X163206009Y-127675595D02*
X163301247Y-127723214D01*
X163301247Y-127723214D02*
X163539342Y-127723214D01*
X163539342Y-127723214D02*
X163634580Y-127675595D01*
X163634580Y-127675595D02*
X163682200Y-127627976D01*
X163682200Y-127627976D02*
X163729819Y-127532738D01*
X163729819Y-127532738D02*
X163729819Y-127294643D01*
X163729819Y-127294643D02*
X163682200Y-127199405D01*
X163682200Y-127199405D02*
X163634580Y-127151786D01*
X155228562Y-116674353D02*
X155295906Y-116674353D01*
X155295906Y-116674353D02*
X155430593Y-116607009D01*
X155430593Y-116607009D02*
X155497936Y-116539666D01*
X155497936Y-116539666D02*
X155565280Y-116404979D01*
X155565280Y-116404979D02*
X155565280Y-116270292D01*
X155565280Y-116270292D02*
X155531608Y-116169277D01*
X155531608Y-116169277D02*
X155430593Y-116000918D01*
X155430593Y-116000918D02*
X155329578Y-115899903D01*
X155329578Y-115899903D02*
X155161219Y-115798887D01*
X155161219Y-115798887D02*
X155060204Y-115765216D01*
X155060204Y-115765216D02*
X154925517Y-115765216D01*
X154925517Y-115765216D02*
X154790830Y-115832559D01*
X154790830Y-115832559D02*
X154723486Y-115899903D01*
X154723486Y-115899903D02*
X154656143Y-116034590D01*
X154656143Y-116034590D02*
X154656143Y-116101933D01*
X154218410Y-116876383D02*
X154689814Y-117347788D01*
X154117395Y-116438651D02*
X154790830Y-116775368D01*
X154790830Y-116775368D02*
X154353097Y-117213101D01*
X153544975Y-117549819D02*
X154016379Y-118021223D01*
X153443959Y-117112086D02*
X154117394Y-117448803D01*
X154117394Y-117448803D02*
X153679662Y-117886536D01*
X163595238Y-80512557D02*
X163690476Y-80464938D01*
X163690476Y-80464938D02*
X163785714Y-80369700D01*
X163785714Y-80369700D02*
X163928571Y-80226842D01*
X163928571Y-80226842D02*
X164023809Y-80179223D01*
X164023809Y-80179223D02*
X164119047Y-80179223D01*
X164071428Y-80417319D02*
X164166666Y-80369700D01*
X164166666Y-80369700D02*
X164261904Y-80274461D01*
X164261904Y-80274461D02*
X164309523Y-80083985D01*
X164309523Y-80083985D02*
X164309523Y-79750652D01*
X164309523Y-79750652D02*
X164261904Y-79560176D01*
X164261904Y-79560176D02*
X164166666Y-79464938D01*
X164166666Y-79464938D02*
X164071428Y-79417319D01*
X164071428Y-79417319D02*
X163880952Y-79417319D01*
X163880952Y-79417319D02*
X163785714Y-79464938D01*
X163785714Y-79464938D02*
X163690476Y-79560176D01*
X163690476Y-79560176D02*
X163642857Y-79750652D01*
X163642857Y-79750652D02*
X163642857Y-80083985D01*
X163642857Y-80083985D02*
X163690476Y-80274461D01*
X163690476Y-80274461D02*
X163785714Y-80369700D01*
X163785714Y-80369700D02*
X163880952Y-80417319D01*
X163880952Y-80417319D02*
X164071428Y-80417319D01*
X162785714Y-79750652D02*
X162785714Y-80417319D01*
X163023809Y-79369700D02*
X163261904Y-80083985D01*
X163261904Y-80083985D02*
X162642857Y-80083985D01*
X171859580Y-128733333D02*
X171907200Y-128685714D01*
X171907200Y-128685714D02*
X171954819Y-128542857D01*
X171954819Y-128542857D02*
X171954819Y-128447619D01*
X171954819Y-128447619D02*
X171907200Y-128304762D01*
X171907200Y-128304762D02*
X171811961Y-128209524D01*
X171811961Y-128209524D02*
X171716723Y-128161905D01*
X171716723Y-128161905D02*
X171526247Y-128114286D01*
X171526247Y-128114286D02*
X171383390Y-128114286D01*
X171383390Y-128114286D02*
X171192914Y-128161905D01*
X171192914Y-128161905D02*
X171097676Y-128209524D01*
X171097676Y-128209524D02*
X171002438Y-128304762D01*
X171002438Y-128304762D02*
X170954819Y-128447619D01*
X170954819Y-128447619D02*
X170954819Y-128542857D01*
X170954819Y-128542857D02*
X171002438Y-128685714D01*
X171002438Y-128685714D02*
X171050057Y-128733333D01*
X170954819Y-129590476D02*
X170954819Y-129400000D01*
X170954819Y-129400000D02*
X171002438Y-129304762D01*
X171002438Y-129304762D02*
X171050057Y-129257143D01*
X171050057Y-129257143D02*
X171192914Y-129161905D01*
X171192914Y-129161905D02*
X171383390Y-129114286D01*
X171383390Y-129114286D02*
X171764342Y-129114286D01*
X171764342Y-129114286D02*
X171859580Y-129161905D01*
X171859580Y-129161905D02*
X171907200Y-129209524D01*
X171907200Y-129209524D02*
X171954819Y-129304762D01*
X171954819Y-129304762D02*
X171954819Y-129495238D01*
X171954819Y-129495238D02*
X171907200Y-129590476D01*
X171907200Y-129590476D02*
X171859580Y-129638095D01*
X171859580Y-129638095D02*
X171764342Y-129685714D01*
X171764342Y-129685714D02*
X171526247Y-129685714D01*
X171526247Y-129685714D02*
X171431009Y-129638095D01*
X171431009Y-129638095D02*
X171383390Y-129590476D01*
X171383390Y-129590476D02*
X171335771Y-129495238D01*
X171335771Y-129495238D02*
X171335771Y-129304762D01*
X171335771Y-129304762D02*
X171383390Y-129209524D01*
X171383390Y-129209524D02*
X171431009Y-129161905D01*
X171431009Y-129161905D02*
X171526247Y-129114286D01*
X150107200Y-73066667D02*
X150154819Y-73209524D01*
X150154819Y-73209524D02*
X150154819Y-73447619D01*
X150154819Y-73447619D02*
X150107200Y-73542857D01*
X150107200Y-73542857D02*
X150059580Y-73590476D01*
X150059580Y-73590476D02*
X149964342Y-73638095D01*
X149964342Y-73638095D02*
X149869104Y-73638095D01*
X149869104Y-73638095D02*
X149773866Y-73590476D01*
X149773866Y-73590476D02*
X149726247Y-73542857D01*
X149726247Y-73542857D02*
X149678628Y-73447619D01*
X149678628Y-73447619D02*
X149631009Y-73257143D01*
X149631009Y-73257143D02*
X149583390Y-73161905D01*
X149583390Y-73161905D02*
X149535771Y-73114286D01*
X149535771Y-73114286D02*
X149440533Y-73066667D01*
X149440533Y-73066667D02*
X149345295Y-73066667D01*
X149345295Y-73066667D02*
X149250057Y-73114286D01*
X149250057Y-73114286D02*
X149202438Y-73161905D01*
X149202438Y-73161905D02*
X149154819Y-73257143D01*
X149154819Y-73257143D02*
X149154819Y-73495238D01*
X149154819Y-73495238D02*
X149202438Y-73638095D01*
X149154819Y-73971429D02*
X150154819Y-74209524D01*
X150154819Y-74209524D02*
X149440533Y-74400000D01*
X149440533Y-74400000D02*
X150154819Y-74590476D01*
X150154819Y-74590476D02*
X149154819Y-74828572D01*
X149154819Y-75114286D02*
X149154819Y-75733333D01*
X149154819Y-75733333D02*
X149535771Y-75400000D01*
X149535771Y-75400000D02*
X149535771Y-75542857D01*
X149535771Y-75542857D02*
X149583390Y-75638095D01*
X149583390Y-75638095D02*
X149631009Y-75685714D01*
X149631009Y-75685714D02*
X149726247Y-75733333D01*
X149726247Y-75733333D02*
X149964342Y-75733333D01*
X149964342Y-75733333D02*
X150059580Y-75685714D01*
X150059580Y-75685714D02*
X150107200Y-75638095D01*
X150107200Y-75638095D02*
X150154819Y-75542857D01*
X150154819Y-75542857D02*
X150154819Y-75257143D01*
X150154819Y-75257143D02*
X150107200Y-75161905D01*
X150107200Y-75161905D02*
X150059580Y-75114286D01*
X147242857Y-83354819D02*
X147576190Y-82878628D01*
X147814285Y-83354819D02*
X147814285Y-82354819D01*
X147814285Y-82354819D02*
X147433333Y-82354819D01*
X147433333Y-82354819D02*
X147338095Y-82402438D01*
X147338095Y-82402438D02*
X147290476Y-82450057D01*
X147290476Y-82450057D02*
X147242857Y-82545295D01*
X147242857Y-82545295D02*
X147242857Y-82688152D01*
X147242857Y-82688152D02*
X147290476Y-82783390D01*
X147290476Y-82783390D02*
X147338095Y-82831009D01*
X147338095Y-82831009D02*
X147433333Y-82878628D01*
X147433333Y-82878628D02*
X147814285Y-82878628D01*
X146385714Y-82688152D02*
X146385714Y-83354819D01*
X146623809Y-82307200D02*
X146861904Y-83021485D01*
X146861904Y-83021485D02*
X146242857Y-83021485D01*
X145338095Y-83354819D02*
X145909523Y-83354819D01*
X145623809Y-83354819D02*
X145623809Y-82354819D01*
X145623809Y-82354819D02*
X145719047Y-82497676D01*
X145719047Y-82497676D02*
X145814285Y-82592914D01*
X145814285Y-82592914D02*
X145909523Y-82640533D01*
X182630384Y-103010152D02*
X182529369Y-102437733D01*
X183034445Y-102606091D02*
X182327338Y-101898985D01*
X182327338Y-101898985D02*
X182057964Y-102168359D01*
X182057964Y-102168359D02*
X182024292Y-102269374D01*
X182024292Y-102269374D02*
X182024292Y-102336717D01*
X182024292Y-102336717D02*
X182057964Y-102437733D01*
X182057964Y-102437733D02*
X182158979Y-102538748D01*
X182158979Y-102538748D02*
X182259995Y-102572420D01*
X182259995Y-102572420D02*
X182327338Y-102572420D01*
X182327338Y-102572420D02*
X182428353Y-102538748D01*
X182428353Y-102538748D02*
X182697727Y-102269374D01*
X181956949Y-103683587D02*
X182361010Y-103279526D01*
X182158979Y-103481557D02*
X181451873Y-102774450D01*
X181451873Y-102774450D02*
X181620231Y-102808122D01*
X181620231Y-102808122D02*
X181754918Y-102808122D01*
X181754918Y-102808122D02*
X181855934Y-102774450D01*
X166563811Y-82522879D02*
X166611430Y-82570499D01*
X166611430Y-82570499D02*
X166754287Y-82618118D01*
X166754287Y-82618118D02*
X166849525Y-82618118D01*
X166849525Y-82618118D02*
X166992382Y-82570499D01*
X166992382Y-82570499D02*
X167087620Y-82475260D01*
X167087620Y-82475260D02*
X167135239Y-82380022D01*
X167135239Y-82380022D02*
X167182858Y-82189546D01*
X167182858Y-82189546D02*
X167182858Y-82046689D01*
X167182858Y-82046689D02*
X167135239Y-81856213D01*
X167135239Y-81856213D02*
X167087620Y-81760975D01*
X167087620Y-81760975D02*
X166992382Y-81665737D01*
X166992382Y-81665737D02*
X166849525Y-81618118D01*
X166849525Y-81618118D02*
X166754287Y-81618118D01*
X166754287Y-81618118D02*
X166611430Y-81665737D01*
X166611430Y-81665737D02*
X166563811Y-81713356D01*
X166087620Y-82618118D02*
X165897144Y-82618118D01*
X165897144Y-82618118D02*
X165801906Y-82570499D01*
X165801906Y-82570499D02*
X165754287Y-82522879D01*
X165754287Y-82522879D02*
X165659049Y-82380022D01*
X165659049Y-82380022D02*
X165611430Y-82189546D01*
X165611430Y-82189546D02*
X165611430Y-81808594D01*
X165611430Y-81808594D02*
X165659049Y-81713356D01*
X165659049Y-81713356D02*
X165706668Y-81665737D01*
X165706668Y-81665737D02*
X165801906Y-81618118D01*
X165801906Y-81618118D02*
X165992382Y-81618118D01*
X165992382Y-81618118D02*
X166087620Y-81665737D01*
X166087620Y-81665737D02*
X166135239Y-81713356D01*
X166135239Y-81713356D02*
X166182858Y-81808594D01*
X166182858Y-81808594D02*
X166182858Y-82046689D01*
X166182858Y-82046689D02*
X166135239Y-82141927D01*
X166135239Y-82141927D02*
X166087620Y-82189546D01*
X166087620Y-82189546D02*
X165992382Y-82237165D01*
X165992382Y-82237165D02*
X165801906Y-82237165D01*
X165801906Y-82237165D02*
X165706668Y-82189546D01*
X165706668Y-82189546D02*
X165659049Y-82141927D01*
X165659049Y-82141927D02*
X165611430Y-82046689D01*
X170976174Y-91517036D02*
X170875159Y-90944617D01*
X171380235Y-91112975D02*
X170673128Y-90405869D01*
X170673128Y-90405869D02*
X170403754Y-90675243D01*
X170403754Y-90675243D02*
X170370082Y-90776258D01*
X170370082Y-90776258D02*
X170370082Y-90843601D01*
X170370082Y-90843601D02*
X170403754Y-90944617D01*
X170403754Y-90944617D02*
X170504769Y-91045632D01*
X170504769Y-91045632D02*
X170605785Y-91079304D01*
X170605785Y-91079304D02*
X170673128Y-91079304D01*
X170673128Y-91079304D02*
X170774143Y-91045632D01*
X170774143Y-91045632D02*
X171043517Y-90776258D01*
X170033365Y-91045632D02*
X169595632Y-91483365D01*
X169595632Y-91483365D02*
X170100708Y-91517036D01*
X170100708Y-91517036D02*
X169999693Y-91618052D01*
X169999693Y-91618052D02*
X169966021Y-91719067D01*
X169966021Y-91719067D02*
X169966021Y-91786410D01*
X169966021Y-91786410D02*
X169999693Y-91887426D01*
X169999693Y-91887426D02*
X170168052Y-92055784D01*
X170168052Y-92055784D02*
X170269067Y-92089456D01*
X170269067Y-92089456D02*
X170336411Y-92089456D01*
X170336411Y-92089456D02*
X170437426Y-92055784D01*
X170437426Y-92055784D02*
X170639456Y-91853754D01*
X170639456Y-91853754D02*
X170673128Y-91752739D01*
X170673128Y-91752739D02*
X170673128Y-91685395D01*
X169629304Y-92863907D02*
X170033365Y-92459846D01*
X169831334Y-92661876D02*
X169124227Y-91954769D01*
X169124227Y-91954769D02*
X169292586Y-91988441D01*
X169292586Y-91988441D02*
X169427273Y-91988441D01*
X169427273Y-91988441D02*
X169528288Y-91954769D01*
X149671561Y-116296265D02*
X149334843Y-116632983D01*
X150277652Y-116161578D02*
X149671561Y-116296265D01*
X149671561Y-116296265D02*
X149806248Y-115690174D01*
X148493050Y-115791189D02*
X148897111Y-116195250D01*
X148695080Y-115993219D02*
X149402187Y-115286113D01*
X149402187Y-115286113D02*
X149368515Y-115454471D01*
X149368515Y-115454471D02*
X149368515Y-115589158D01*
X149368515Y-115589158D02*
X149402187Y-115690174D01*
X161792857Y-84754819D02*
X162126190Y-84278628D01*
X162364285Y-84754819D02*
X162364285Y-83754819D01*
X162364285Y-83754819D02*
X161983333Y-83754819D01*
X161983333Y-83754819D02*
X161888095Y-83802438D01*
X161888095Y-83802438D02*
X161840476Y-83850057D01*
X161840476Y-83850057D02*
X161792857Y-83945295D01*
X161792857Y-83945295D02*
X161792857Y-84088152D01*
X161792857Y-84088152D02*
X161840476Y-84183390D01*
X161840476Y-84183390D02*
X161888095Y-84231009D01*
X161888095Y-84231009D02*
X161983333Y-84278628D01*
X161983333Y-84278628D02*
X162364285Y-84278628D01*
X160935714Y-84088152D02*
X160935714Y-84754819D01*
X161173809Y-83707200D02*
X161411904Y-84421485D01*
X161411904Y-84421485D02*
X160792857Y-84421485D01*
X160459523Y-83850057D02*
X160411904Y-83802438D01*
X160411904Y-83802438D02*
X160316666Y-83754819D01*
X160316666Y-83754819D02*
X160078571Y-83754819D01*
X160078571Y-83754819D02*
X159983333Y-83802438D01*
X159983333Y-83802438D02*
X159935714Y-83850057D01*
X159935714Y-83850057D02*
X159888095Y-83945295D01*
X159888095Y-83945295D02*
X159888095Y-84040533D01*
X159888095Y-84040533D02*
X159935714Y-84183390D01*
X159935714Y-84183390D02*
X160507142Y-84754819D01*
X160507142Y-84754819D02*
X159888095Y-84754819D01*
X156892857Y-84754819D02*
X157226190Y-84278628D01*
X157464285Y-84754819D02*
X157464285Y-83754819D01*
X157464285Y-83754819D02*
X157083333Y-83754819D01*
X157083333Y-83754819D02*
X156988095Y-83802438D01*
X156988095Y-83802438D02*
X156940476Y-83850057D01*
X156940476Y-83850057D02*
X156892857Y-83945295D01*
X156892857Y-83945295D02*
X156892857Y-84088152D01*
X156892857Y-84088152D02*
X156940476Y-84183390D01*
X156940476Y-84183390D02*
X156988095Y-84231009D01*
X156988095Y-84231009D02*
X157083333Y-84278628D01*
X157083333Y-84278628D02*
X157464285Y-84278628D01*
X156035714Y-84088152D02*
X156035714Y-84754819D01*
X156273809Y-83707200D02*
X156511904Y-84421485D01*
X156511904Y-84421485D02*
X155892857Y-84421485D01*
X155607142Y-83754819D02*
X154988095Y-83754819D01*
X154988095Y-83754819D02*
X155321428Y-84135771D01*
X155321428Y-84135771D02*
X155178571Y-84135771D01*
X155178571Y-84135771D02*
X155083333Y-84183390D01*
X155083333Y-84183390D02*
X155035714Y-84231009D01*
X155035714Y-84231009D02*
X154988095Y-84326247D01*
X154988095Y-84326247D02*
X154988095Y-84564342D01*
X154988095Y-84564342D02*
X155035714Y-84659580D01*
X155035714Y-84659580D02*
X155083333Y-84707200D01*
X155083333Y-84707200D02*
X155178571Y-84754819D01*
X155178571Y-84754819D02*
X155464285Y-84754819D01*
X155464285Y-84754819D02*
X155559523Y-84707200D01*
X155559523Y-84707200D02*
X155607142Y-84659580D01*
X168975306Y-117658830D02*
X168975306Y-117726174D01*
X168975306Y-117726174D02*
X169042650Y-117860861D01*
X169042650Y-117860861D02*
X169109993Y-117928204D01*
X169109993Y-117928204D02*
X169244680Y-117995548D01*
X169244680Y-117995548D02*
X169379367Y-117995548D01*
X169379367Y-117995548D02*
X169480382Y-117961876D01*
X169480382Y-117961876D02*
X169648741Y-117860861D01*
X169648741Y-117860861D02*
X169749756Y-117759846D01*
X169749756Y-117759846D02*
X169850772Y-117591487D01*
X169850772Y-117591487D02*
X169884443Y-117490472D01*
X169884443Y-117490472D02*
X169884443Y-117355785D01*
X169884443Y-117355785D02*
X169817100Y-117221098D01*
X169817100Y-117221098D02*
X169749756Y-117153754D01*
X169749756Y-117153754D02*
X169615069Y-117086411D01*
X169615069Y-117086411D02*
X169547726Y-117086411D01*
X168773276Y-116648678D02*
X168301871Y-117120082D01*
X169211008Y-116547663D02*
X168874291Y-117221098D01*
X168874291Y-117221098D02*
X168436558Y-116783365D01*
X168335543Y-115739540D02*
X168470230Y-115874227D01*
X168470230Y-115874227D02*
X168503901Y-115975243D01*
X168503901Y-115975243D02*
X168503901Y-116042586D01*
X168503901Y-116042586D02*
X168470230Y-116210945D01*
X168470230Y-116210945D02*
X168369214Y-116379304D01*
X168369214Y-116379304D02*
X168099840Y-116648678D01*
X168099840Y-116648678D02*
X167998825Y-116682349D01*
X167998825Y-116682349D02*
X167931482Y-116682349D01*
X167931482Y-116682349D02*
X167830466Y-116648678D01*
X167830466Y-116648678D02*
X167695779Y-116513991D01*
X167695779Y-116513991D02*
X167662108Y-116412975D01*
X167662108Y-116412975D02*
X167662108Y-116345632D01*
X167662108Y-116345632D02*
X167695779Y-116244617D01*
X167695779Y-116244617D02*
X167864138Y-116076258D01*
X167864138Y-116076258D02*
X167965153Y-116042586D01*
X167965153Y-116042586D02*
X168032497Y-116042586D01*
X168032497Y-116042586D02*
X168133512Y-116076258D01*
X168133512Y-116076258D02*
X168268199Y-116210945D01*
X168268199Y-116210945D02*
X168301871Y-116311960D01*
X168301871Y-116311960D02*
X168301871Y-116379304D01*
X168301871Y-116379304D02*
X168268199Y-116480319D01*
X163420180Y-121461904D02*
X162610657Y-121461904D01*
X162610657Y-121461904D02*
X162515419Y-121414285D01*
X162515419Y-121414285D02*
X162467800Y-121366666D01*
X162467800Y-121366666D02*
X162420180Y-121271428D01*
X162420180Y-121271428D02*
X162420180Y-121080952D01*
X162420180Y-121080952D02*
X162467800Y-120985714D01*
X162467800Y-120985714D02*
X162515419Y-120938095D01*
X162515419Y-120938095D02*
X162610657Y-120890476D01*
X162610657Y-120890476D02*
X163420180Y-120890476D01*
X162991609Y-120271428D02*
X163039228Y-120366666D01*
X163039228Y-120366666D02*
X163086847Y-120414285D01*
X163086847Y-120414285D02*
X163182085Y-120461904D01*
X163182085Y-120461904D02*
X163229704Y-120461904D01*
X163229704Y-120461904D02*
X163324942Y-120414285D01*
X163324942Y-120414285D02*
X163372561Y-120366666D01*
X163372561Y-120366666D02*
X163420180Y-120271428D01*
X163420180Y-120271428D02*
X163420180Y-120080952D01*
X163420180Y-120080952D02*
X163372561Y-119985714D01*
X163372561Y-119985714D02*
X163324942Y-119938095D01*
X163324942Y-119938095D02*
X163229704Y-119890476D01*
X163229704Y-119890476D02*
X163182085Y-119890476D01*
X163182085Y-119890476D02*
X163086847Y-119938095D01*
X163086847Y-119938095D02*
X163039228Y-119985714D01*
X163039228Y-119985714D02*
X162991609Y-120080952D01*
X162991609Y-120080952D02*
X162991609Y-120271428D01*
X162991609Y-120271428D02*
X162943990Y-120366666D01*
X162943990Y-120366666D02*
X162896371Y-120414285D01*
X162896371Y-120414285D02*
X162801133Y-120461904D01*
X162801133Y-120461904D02*
X162610657Y-120461904D01*
X162610657Y-120461904D02*
X162515419Y-120414285D01*
X162515419Y-120414285D02*
X162467800Y-120366666D01*
X162467800Y-120366666D02*
X162420180Y-120271428D01*
X162420180Y-120271428D02*
X162420180Y-120080952D01*
X162420180Y-120080952D02*
X162467800Y-119985714D01*
X162467800Y-119985714D02*
X162515419Y-119938095D01*
X162515419Y-119938095D02*
X162610657Y-119890476D01*
X162610657Y-119890476D02*
X162801133Y-119890476D01*
X162801133Y-119890476D02*
X162896371Y-119938095D01*
X162896371Y-119938095D02*
X162943990Y-119985714D01*
X162943990Y-119985714D02*
X162991609Y-120080952D01*
X166595180Y-123999999D02*
X166357085Y-123999999D01*
X166452323Y-124238094D02*
X166357085Y-123999999D01*
X166357085Y-123999999D02*
X166452323Y-123761904D01*
X166166609Y-124142856D02*
X166357085Y-123999999D01*
X166357085Y-123999999D02*
X166166609Y-123857142D01*
X165504819Y-124000000D02*
X165742914Y-124000000D01*
X165647676Y-123761905D02*
X165742914Y-124000000D01*
X165742914Y-124000000D02*
X165647676Y-124238095D01*
X165933390Y-123857143D02*
X165742914Y-124000000D01*
X165742914Y-124000000D02*
X165933390Y-124142857D01*
X178700306Y-106208830D02*
X178700306Y-106276174D01*
X178700306Y-106276174D02*
X178767650Y-106410861D01*
X178767650Y-106410861D02*
X178834993Y-106478204D01*
X178834993Y-106478204D02*
X178969680Y-106545548D01*
X178969680Y-106545548D02*
X179104367Y-106545548D01*
X179104367Y-106545548D02*
X179205382Y-106511876D01*
X179205382Y-106511876D02*
X179373741Y-106410861D01*
X179373741Y-106410861D02*
X179474756Y-106309846D01*
X179474756Y-106309846D02*
X179575772Y-106141487D01*
X179575772Y-106141487D02*
X179609443Y-106040472D01*
X179609443Y-106040472D02*
X179609443Y-105905785D01*
X179609443Y-105905785D02*
X179542100Y-105771098D01*
X179542100Y-105771098D02*
X179474756Y-105703754D01*
X179474756Y-105703754D02*
X179340069Y-105636411D01*
X179340069Y-105636411D02*
X179272726Y-105636411D01*
X178498276Y-105198678D02*
X178026871Y-105670082D01*
X178936008Y-105097663D02*
X178599291Y-105771098D01*
X178599291Y-105771098D02*
X178161558Y-105333365D01*
X177286092Y-104929304D02*
X177690153Y-105333365D01*
X177488123Y-105131334D02*
X178195230Y-104424227D01*
X178195230Y-104424227D02*
X178161558Y-104592586D01*
X178161558Y-104592586D02*
X178161558Y-104727273D01*
X178161558Y-104727273D02*
X178195230Y-104828288D01*
X168692857Y-78609580D02*
X168740476Y-78657200D01*
X168740476Y-78657200D02*
X168883333Y-78704819D01*
X168883333Y-78704819D02*
X168978571Y-78704819D01*
X168978571Y-78704819D02*
X169121428Y-78657200D01*
X169121428Y-78657200D02*
X169216666Y-78561961D01*
X169216666Y-78561961D02*
X169264285Y-78466723D01*
X169264285Y-78466723D02*
X169311904Y-78276247D01*
X169311904Y-78276247D02*
X169311904Y-78133390D01*
X169311904Y-78133390D02*
X169264285Y-77942914D01*
X169264285Y-77942914D02*
X169216666Y-77847676D01*
X169216666Y-77847676D02*
X169121428Y-77752438D01*
X169121428Y-77752438D02*
X168978571Y-77704819D01*
X168978571Y-77704819D02*
X168883333Y-77704819D01*
X168883333Y-77704819D02*
X168740476Y-77752438D01*
X168740476Y-77752438D02*
X168692857Y-77800057D01*
X168311904Y-77800057D02*
X168264285Y-77752438D01*
X168264285Y-77752438D02*
X168169047Y-77704819D01*
X168169047Y-77704819D02*
X167930952Y-77704819D01*
X167930952Y-77704819D02*
X167835714Y-77752438D01*
X167835714Y-77752438D02*
X167788095Y-77800057D01*
X167788095Y-77800057D02*
X167740476Y-77895295D01*
X167740476Y-77895295D02*
X167740476Y-77990533D01*
X167740476Y-77990533D02*
X167788095Y-78133390D01*
X167788095Y-78133390D02*
X168359523Y-78704819D01*
X168359523Y-78704819D02*
X167740476Y-78704819D01*
X166835714Y-77704819D02*
X167311904Y-77704819D01*
X167311904Y-77704819D02*
X167359523Y-78181009D01*
X167359523Y-78181009D02*
X167311904Y-78133390D01*
X167311904Y-78133390D02*
X167216666Y-78085771D01*
X167216666Y-78085771D02*
X166978571Y-78085771D01*
X166978571Y-78085771D02*
X166883333Y-78133390D01*
X166883333Y-78133390D02*
X166835714Y-78181009D01*
X166835714Y-78181009D02*
X166788095Y-78276247D01*
X166788095Y-78276247D02*
X166788095Y-78514342D01*
X166788095Y-78514342D02*
X166835714Y-78609580D01*
X166835714Y-78609580D02*
X166883333Y-78657200D01*
X166883333Y-78657200D02*
X166978571Y-78704819D01*
X166978571Y-78704819D02*
X167216666Y-78704819D01*
X167216666Y-78704819D02*
X167311904Y-78657200D01*
X167311904Y-78657200D02*
X167359523Y-78609580D01*
X148801174Y-88517036D02*
X148700159Y-87944617D01*
X149205235Y-88112975D02*
X148498128Y-87405869D01*
X148498128Y-87405869D02*
X148228754Y-87675243D01*
X148228754Y-87675243D02*
X148195082Y-87776258D01*
X148195082Y-87776258D02*
X148195082Y-87843601D01*
X148195082Y-87843601D02*
X148228754Y-87944617D01*
X148228754Y-87944617D02*
X148329769Y-88045632D01*
X148329769Y-88045632D02*
X148430785Y-88079304D01*
X148430785Y-88079304D02*
X148498128Y-88079304D01*
X148498128Y-88079304D02*
X148599143Y-88045632D01*
X148599143Y-88045632D02*
X148868517Y-87776258D01*
X148127739Y-89190471D02*
X148531800Y-88786410D01*
X148329769Y-88988441D02*
X147622663Y-88281334D01*
X147622663Y-88281334D02*
X147791021Y-88315006D01*
X147791021Y-88315006D02*
X147925708Y-88315006D01*
X147925708Y-88315006D02*
X148026724Y-88281334D01*
X146982899Y-88921098D02*
X146915556Y-88988441D01*
X146915556Y-88988441D02*
X146881884Y-89089456D01*
X146881884Y-89089456D02*
X146881884Y-89156800D01*
X146881884Y-89156800D02*
X146915556Y-89257815D01*
X146915556Y-89257815D02*
X147016571Y-89426174D01*
X147016571Y-89426174D02*
X147184930Y-89594533D01*
X147184930Y-89594533D02*
X147353288Y-89695548D01*
X147353288Y-89695548D02*
X147454304Y-89729220D01*
X147454304Y-89729220D02*
X147521647Y-89729220D01*
X147521647Y-89729220D02*
X147622662Y-89695548D01*
X147622662Y-89695548D02*
X147690006Y-89628204D01*
X147690006Y-89628204D02*
X147723678Y-89527189D01*
X147723678Y-89527189D02*
X147723678Y-89459846D01*
X147723678Y-89459846D02*
X147690006Y-89358830D01*
X147690006Y-89358830D02*
X147588991Y-89190472D01*
X147588991Y-89190472D02*
X147420632Y-89022113D01*
X147420632Y-89022113D02*
X147252273Y-88921098D01*
X147252273Y-88921098D02*
X147151258Y-88887426D01*
X147151258Y-88887426D02*
X147083914Y-88887426D01*
X147083914Y-88887426D02*
X146982899Y-88921098D01*
X162642453Y-86333316D02*
X162709797Y-86333316D01*
X162709797Y-86333316D02*
X162844484Y-86265972D01*
X162844484Y-86265972D02*
X162911827Y-86198629D01*
X162911827Y-86198629D02*
X162979171Y-86063942D01*
X162979171Y-86063942D02*
X162979171Y-85929255D01*
X162979171Y-85929255D02*
X162945499Y-85828240D01*
X162945499Y-85828240D02*
X162844484Y-85659881D01*
X162844484Y-85659881D02*
X162743469Y-85558866D01*
X162743469Y-85558866D02*
X162575110Y-85457850D01*
X162575110Y-85457850D02*
X162474095Y-85424179D01*
X162474095Y-85424179D02*
X162339408Y-85424179D01*
X162339408Y-85424179D02*
X162204721Y-85491522D01*
X162204721Y-85491522D02*
X162137377Y-85558866D01*
X162137377Y-85558866D02*
X162070034Y-85693553D01*
X162070034Y-85693553D02*
X162070034Y-85760896D01*
X161800660Y-86030270D02*
X161733316Y-86030270D01*
X161733316Y-86030270D02*
X161632301Y-86063942D01*
X161632301Y-86063942D02*
X161463942Y-86232301D01*
X161463942Y-86232301D02*
X161430270Y-86333316D01*
X161430270Y-86333316D02*
X161430270Y-86400659D01*
X161430270Y-86400659D02*
X161463942Y-86501675D01*
X161463942Y-86501675D02*
X161531286Y-86569018D01*
X161531286Y-86569018D02*
X161665973Y-86636362D01*
X161665973Y-86636362D02*
X162474095Y-86636362D01*
X162474095Y-86636362D02*
X162036362Y-87074094D01*
X161228240Y-87074095D02*
X161261911Y-86973079D01*
X161261911Y-86973079D02*
X161261911Y-86905736D01*
X161261911Y-86905736D02*
X161228240Y-86804721D01*
X161228240Y-86804721D02*
X161194568Y-86771049D01*
X161194568Y-86771049D02*
X161093553Y-86737377D01*
X161093553Y-86737377D02*
X161026209Y-86737377D01*
X161026209Y-86737377D02*
X160925194Y-86771049D01*
X160925194Y-86771049D02*
X160790507Y-86905736D01*
X160790507Y-86905736D02*
X160756835Y-87006751D01*
X160756835Y-87006751D02*
X160756835Y-87074095D01*
X160756835Y-87074095D02*
X160790507Y-87175110D01*
X160790507Y-87175110D02*
X160824179Y-87208782D01*
X160824179Y-87208782D02*
X160925194Y-87242453D01*
X160925194Y-87242453D02*
X160992537Y-87242453D01*
X160992537Y-87242453D02*
X161093553Y-87208782D01*
X161093553Y-87208782D02*
X161228240Y-87074095D01*
X161228240Y-87074095D02*
X161329255Y-87040423D01*
X161329255Y-87040423D02*
X161396598Y-87040423D01*
X161396598Y-87040423D02*
X161497614Y-87074095D01*
X161497614Y-87074095D02*
X161632301Y-87208782D01*
X161632301Y-87208782D02*
X161665972Y-87309797D01*
X161665972Y-87309797D02*
X161665972Y-87377140D01*
X161665972Y-87377140D02*
X161632301Y-87478156D01*
X161632301Y-87478156D02*
X161497614Y-87612843D01*
X161497614Y-87612843D02*
X161396598Y-87646514D01*
X161396598Y-87646514D02*
X161329255Y-87646514D01*
X161329255Y-87646514D02*
X161228240Y-87612843D01*
X161228240Y-87612843D02*
X161093553Y-87478156D01*
X161093553Y-87478156D02*
X161059881Y-87377140D01*
X161059881Y-87377140D02*
X161059881Y-87309797D01*
X161059881Y-87309797D02*
X161093553Y-87208782D01*
X171901307Y-76223269D02*
X172234640Y-75747078D01*
X172472735Y-76223269D02*
X172472735Y-75223269D01*
X172472735Y-75223269D02*
X172091783Y-75223269D01*
X172091783Y-75223269D02*
X171996545Y-75270888D01*
X171996545Y-75270888D02*
X171948926Y-75318507D01*
X171948926Y-75318507D02*
X171901307Y-75413745D01*
X171901307Y-75413745D02*
X171901307Y-75556602D01*
X171901307Y-75556602D02*
X171948926Y-75651840D01*
X171948926Y-75651840D02*
X171996545Y-75699459D01*
X171996545Y-75699459D02*
X172091783Y-75747078D01*
X172091783Y-75747078D02*
X172472735Y-75747078D01*
X170948926Y-76223269D02*
X171520354Y-76223269D01*
X171234640Y-76223269D02*
X171234640Y-75223269D01*
X171234640Y-75223269D02*
X171329878Y-75366126D01*
X171329878Y-75366126D02*
X171425116Y-75461364D01*
X171425116Y-75461364D02*
X171520354Y-75508983D01*
X170472735Y-76223269D02*
X170282259Y-76223269D01*
X170282259Y-76223269D02*
X170187021Y-76175650D01*
X170187021Y-76175650D02*
X170139402Y-76128030D01*
X170139402Y-76128030D02*
X170044164Y-75985173D01*
X170044164Y-75985173D02*
X169996545Y-75794697D01*
X169996545Y-75794697D02*
X169996545Y-75413745D01*
X169996545Y-75413745D02*
X170044164Y-75318507D01*
X170044164Y-75318507D02*
X170091783Y-75270888D01*
X170091783Y-75270888D02*
X170187021Y-75223269D01*
X170187021Y-75223269D02*
X170377497Y-75223269D01*
X170377497Y-75223269D02*
X170472735Y-75270888D01*
X170472735Y-75270888D02*
X170520354Y-75318507D01*
X170520354Y-75318507D02*
X170567973Y-75413745D01*
X170567973Y-75413745D02*
X170567973Y-75651840D01*
X170567973Y-75651840D02*
X170520354Y-75747078D01*
X170520354Y-75747078D02*
X170472735Y-75794697D01*
X170472735Y-75794697D02*
X170377497Y-75842316D01*
X170377497Y-75842316D02*
X170187021Y-75842316D01*
X170187021Y-75842316D02*
X170091783Y-75794697D01*
X170091783Y-75794697D02*
X170044164Y-75747078D01*
X170044164Y-75747078D02*
X169996545Y-75651840D01*
X165242453Y-88833316D02*
X165309797Y-88833316D01*
X165309797Y-88833316D02*
X165444484Y-88765972D01*
X165444484Y-88765972D02*
X165511827Y-88698629D01*
X165511827Y-88698629D02*
X165579171Y-88563942D01*
X165579171Y-88563942D02*
X165579171Y-88429255D01*
X165579171Y-88429255D02*
X165545499Y-88328240D01*
X165545499Y-88328240D02*
X165444484Y-88159881D01*
X165444484Y-88159881D02*
X165343469Y-88058866D01*
X165343469Y-88058866D02*
X165175110Y-87957850D01*
X165175110Y-87957850D02*
X165074095Y-87924179D01*
X165074095Y-87924179D02*
X164939408Y-87924179D01*
X164939408Y-87924179D02*
X164804721Y-87991522D01*
X164804721Y-87991522D02*
X164737377Y-88058866D01*
X164737377Y-88058866D02*
X164670034Y-88193553D01*
X164670034Y-88193553D02*
X164670034Y-88260896D01*
X164366988Y-88429255D02*
X163929255Y-88866988D01*
X163929255Y-88866988D02*
X164434331Y-88900659D01*
X164434331Y-88900659D02*
X164333316Y-89001675D01*
X164333316Y-89001675D02*
X164299644Y-89102690D01*
X164299644Y-89102690D02*
X164299644Y-89170033D01*
X164299644Y-89170033D02*
X164333316Y-89271049D01*
X164333316Y-89271049D02*
X164501675Y-89439407D01*
X164501675Y-89439407D02*
X164602690Y-89473079D01*
X164602690Y-89473079D02*
X164670034Y-89473079D01*
X164670034Y-89473079D02*
X164771049Y-89439407D01*
X164771049Y-89439407D02*
X164973079Y-89237377D01*
X164973079Y-89237377D02*
X165006751Y-89136362D01*
X165006751Y-89136362D02*
X165006751Y-89069018D01*
X163491522Y-89304721D02*
X163424179Y-89372064D01*
X163424179Y-89372064D02*
X163390507Y-89473079D01*
X163390507Y-89473079D02*
X163390507Y-89540423D01*
X163390507Y-89540423D02*
X163424179Y-89641438D01*
X163424179Y-89641438D02*
X163525194Y-89809797D01*
X163525194Y-89809797D02*
X163693553Y-89978156D01*
X163693553Y-89978156D02*
X163861911Y-90079171D01*
X163861911Y-90079171D02*
X163962927Y-90112843D01*
X163962927Y-90112843D02*
X164030270Y-90112843D01*
X164030270Y-90112843D02*
X164131285Y-90079171D01*
X164131285Y-90079171D02*
X164198629Y-90011827D01*
X164198629Y-90011827D02*
X164232301Y-89910812D01*
X164232301Y-89910812D02*
X164232301Y-89843469D01*
X164232301Y-89843469D02*
X164198629Y-89742453D01*
X164198629Y-89742453D02*
X164097614Y-89574095D01*
X164097614Y-89574095D02*
X163929255Y-89405736D01*
X163929255Y-89405736D02*
X163760896Y-89304721D01*
X163760896Y-89304721D02*
X163659881Y-89271049D01*
X163659881Y-89271049D02*
X163592537Y-89271049D01*
X163592537Y-89271049D02*
X163491522Y-89304721D01*
D12*
%TO.C,J5*%
X176056650Y-76259338D02*
X176056650Y-78307462D01*
X176056650Y-72265350D02*
X176056650Y-72342050D01*
X185251450Y-78307462D02*
X185251450Y-76259338D01*
X185251450Y-72342050D02*
X185251450Y-72265350D01*
X185251450Y-72265350D02*
X176056650Y-72265350D01*
D13*
X175035050Y-80342050D02*
G75*
G02*
X174273050Y-80342050I-381000J0D01*
G01*
X174273050Y-80342050D02*
G75*
G02*
X175035050Y-80342050I381000J0D01*
G01*
D14*
%TO.C,D9*%
X159700000Y-73140000D02*
X159700000Y-77150000D01*
X159700000Y-73140000D02*
X161700000Y-73140000D01*
X161700000Y-73140000D02*
X161700000Y-77150000D01*
%TO.C,C8*%
X146540000Y-99881248D02*
X146540000Y-100403752D01*
X148010000Y-99881248D02*
X148010000Y-100403752D01*
%TO.C,D8*%
X173379962Y-117490121D02*
X175119445Y-115750638D01*
X174419409Y-118529568D02*
X173379962Y-117490121D01*
X176158892Y-116790085D02*
X174419409Y-118529568D01*
%TO.C,R9*%
X144440419Y-88995655D02*
X144080185Y-89355889D01*
X145179345Y-89734581D02*
X144819111Y-90094815D01*
%TO.C,C43*%
X146490000Y-104403752D02*
X146490000Y-103881248D01*
X147960000Y-104403752D02*
X147960000Y-103881248D01*
%TO.C,R6*%
X198452500Y-100395276D02*
X198452500Y-100904724D01*
X199497500Y-100395276D02*
X199497500Y-100904724D01*
%TO.C,C12*%
X171565010Y-82945543D02*
X171195543Y-83315010D01*
X172604457Y-83984990D02*
X172234990Y-84354457D01*
%TO.C,C7*%
X173065010Y-84445543D02*
X172695543Y-84815010D01*
X174104457Y-85484990D02*
X173734990Y-85854457D01*
%TO.C,C35*%
X158365010Y-89904457D02*
X157995543Y-89534990D01*
X159404457Y-88865010D02*
X159034990Y-88495543D01*
%TO.C,R20*%
X189221274Y-76659251D02*
X188711826Y-76659251D01*
X189221274Y-77704251D02*
X188711826Y-77704251D01*
%TO.C,R7*%
X189652500Y-110245276D02*
X189652500Y-110754724D01*
X190697500Y-110245276D02*
X190697500Y-110754724D01*
%TO.C,C36*%
X172595543Y-106934990D02*
X172965010Y-107304457D01*
X173634990Y-105895543D02*
X174004457Y-106265010D01*
%TO.C,R38*%
X163029724Y-115377500D02*
X162520276Y-115377500D01*
X163029724Y-116422500D02*
X162520276Y-116422500D01*
%TO.C,C39*%
X150431387Y-97870834D02*
X150061920Y-97501367D01*
X151470834Y-96831387D02*
X151101367Y-96461920D01*
%TO.C,R39*%
X167370276Y-118427500D02*
X167879724Y-118427500D01*
X167370276Y-119472500D02*
X167879724Y-119472500D01*
%TO.C,C33*%
X155165010Y-93104457D02*
X154795543Y-92734990D01*
X156204457Y-92065010D02*
X155834990Y-91695543D01*
%TO.C,R16*%
X170957776Y-79527701D02*
X171467224Y-79527701D01*
X170957776Y-80572701D02*
X171467224Y-80572701D01*
%TO.C,C38*%
X155784742Y-111970203D02*
X155415275Y-112339670D01*
X156824189Y-113009650D02*
X156454722Y-113379117D01*
%TO.C,U2*%
X179089999Y-84847500D02*
X179139999Y-84847500D01*
X179090001Y-83027500D02*
X179089999Y-84847500D01*
X179139999Y-83027500D02*
X179090001Y-83027500D01*
X182159999Y-84847500D02*
X182209997Y-84847500D01*
X182209997Y-84847500D02*
X182209999Y-83027500D01*
X182209999Y-83027500D02*
X182159999Y-83027500D01*
X179139999Y-82487500D02*
X178809999Y-82727500D01*
X178809999Y-82247500D01*
X179139999Y-82487500D01*
G36*
X179139999Y-82487500D02*
G01*
X178809999Y-82727500D01*
X178809999Y-82247500D01*
X179139999Y-82487500D01*
G37*
%TO.C,R13*%
X164645276Y-75727500D02*
X165154724Y-75727500D01*
X164645276Y-76772500D02*
X165154724Y-76772500D01*
%TO.C,IC2*%
X152744942Y-101151686D02*
X153080817Y-101487562D01*
X153080817Y-100815810D02*
X152744942Y-101151686D01*
X162464124Y-110870869D02*
X162800000Y-111206744D01*
X162800000Y-91096628D02*
X162464124Y-91432503D01*
X162800000Y-111206744D02*
X163135876Y-110870869D01*
X163135876Y-91432503D02*
X162800000Y-91096628D01*
X172519183Y-101487562D02*
X172855058Y-101151686D01*
X172855058Y-101151686D02*
X172519183Y-100815810D01*
X173548023Y-101844651D02*
X172975267Y-101936575D01*
X173067190Y-101363818D01*
X173548023Y-101844651D01*
G36*
X173548023Y-101844651D02*
G01*
X172975267Y-101936575D01*
X173067190Y-101363818D01*
X173548023Y-101844651D01*
G37*
%TO.C,B-*%
X147325000Y-76100000D02*
G75*
G02*
X145425000Y-76100000I-950000J0D01*
G01*
X145425000Y-76100000D02*
G75*
G02*
X147325000Y-76100000I950000J0D01*
G01*
%TO.C,C48*%
X150161252Y-83965000D02*
X149638748Y-83965000D01*
X150161252Y-85435000D02*
X149638748Y-85435000D01*
%TO.C,C1*%
X142165000Y-127738748D02*
X142165000Y-128261252D01*
X143635000Y-127738748D02*
X143635000Y-128261252D01*
%TO.C,C4*%
X178745543Y-92834990D02*
X179115010Y-93204457D01*
X179784990Y-91795543D02*
X180154457Y-92165010D01*
%TO.C,BATT*%
X134150000Y-102100000D02*
G75*
G02*
X130650000Y-102100000I-1750000J0D01*
G01*
X130650000Y-102100000D02*
G75*
G02*
X134150000Y-102100000I1750000J0D01*
G01*
%TO.C,R40*%
X153277500Y-80145276D02*
X153277500Y-80654724D01*
X154322500Y-80145276D02*
X154322500Y-80654724D01*
%TO.C,R35*%
X146220276Y-96657500D02*
X146729724Y-96657500D01*
X146220276Y-97702500D02*
X146729724Y-97702500D01*
%TO.C,R36*%
X152870152Y-109264006D02*
X153230386Y-109624240D01*
X153609078Y-108525080D02*
X153969312Y-108885314D01*
%TO.C,R37*%
X183252500Y-114004724D02*
X183252500Y-113495276D01*
X184297500Y-114004724D02*
X184297500Y-113495276D01*
%TO.C,U10*%
X149158750Y-78821250D02*
X149158750Y-78871250D01*
X149158750Y-79991250D02*
X149158750Y-80771250D01*
X149158750Y-81891250D02*
X149158750Y-81941250D01*
X149158750Y-81941250D02*
X150978750Y-81941250D01*
X150978750Y-78821250D02*
X149158750Y-78821250D01*
X150978750Y-78871250D02*
X150978750Y-78821250D01*
X150978750Y-81941250D02*
X150978750Y-81891250D01*
X151518750Y-78871250D02*
X151278750Y-78541250D01*
X151758750Y-78541250D01*
X151518750Y-78871250D01*
G36*
X151518750Y-78871250D02*
G01*
X151278750Y-78541250D01*
X151758750Y-78541250D01*
X151518750Y-78871250D01*
G37*
%TO.C,R25*%
X173752500Y-77795276D02*
X173752500Y-78304724D01*
X174797500Y-77795276D02*
X174797500Y-78304724D01*
%TO.C,C37*%
X167036920Y-113401367D02*
X167406387Y-113770834D01*
X168076367Y-112361920D02*
X168445834Y-112731387D01*
%TO.C,C3*%
X152865000Y-127738748D02*
X152865000Y-128261252D01*
X154335000Y-127738748D02*
X154335000Y-128261252D01*
%TO.C,R5*%
X191852500Y-77292224D02*
X191852500Y-76782776D01*
X192897500Y-77292224D02*
X192897500Y-76782776D01*
%TO.C,C47*%
X157061252Y-78965000D02*
X156538748Y-78965000D01*
X157061252Y-80435000D02*
X156538748Y-80435000D01*
%TO.C,L1*%
X168310293Y-86833623D02*
X170233623Y-88756953D01*
X172156953Y-86833623D02*
X170233623Y-84910293D01*
%TO.C,R18*%
X168845655Y-110134581D02*
X169205889Y-110494815D01*
X169584581Y-109395655D02*
X169944815Y-109755889D01*
%TO.C,B+*%
X144125000Y-76100000D02*
G75*
G02*
X142225000Y-76100000I-950000J0D01*
G01*
X142225000Y-76100000D02*
G75*
G02*
X144125000Y-76100000I950000J0D01*
G01*
%TO.C,C13*%
X173565000Y-74661252D02*
X173565000Y-74138748D01*
X175035000Y-74661252D02*
X175035000Y-74138748D01*
%TO.C,U1*%
X175968593Y-98631407D02*
X174639233Y-97302046D01*
X175968593Y-98631407D02*
X177297954Y-99960767D01*
X179631407Y-94968593D02*
X178302046Y-93639233D01*
X179631407Y-94968593D02*
X182123958Y-97461145D01*
%TO.C,C34*%
X173995543Y-91665010D02*
X174365010Y-91295543D01*
X175034990Y-92704457D02*
X175404457Y-92334990D01*
%TO.C,C32*%
X150584742Y-106979117D02*
X150215275Y-106609650D01*
X151624189Y-105939670D02*
X151254722Y-105570203D01*
%TO.C,R4*%
X143045276Y-79077500D02*
X143554724Y-79077500D01*
X143045276Y-80122500D02*
X143554724Y-80122500D01*
%TO.C,C2*%
X146265000Y-127726248D02*
X146265000Y-128248752D01*
X147735000Y-127726248D02*
X147735000Y-128248752D01*
%TO.C,R32*%
X165444277Y-84484043D02*
X165084043Y-84844277D01*
X166183203Y-85222969D02*
X165822969Y-85583203D01*
%TO.C,R12*%
X145030889Y-116024815D02*
X144670655Y-115664581D01*
X145769815Y-115285889D02*
X145409581Y-114925655D01*
%TO.C,R33*%
X173355889Y-89955185D02*
X172995655Y-90315419D01*
X174094815Y-90694111D02*
X173734581Y-91054345D01*
%TO.C,C29*%
X168098633Y-89338080D02*
X167729166Y-88968613D01*
X169138080Y-88298633D02*
X168768613Y-87929166D01*
%TO.C,BATT*%
X110150000Y-102200000D02*
G75*
G02*
X106650000Y-102200000I-1750000J0D01*
G01*
X106650000Y-102200000D02*
G75*
G02*
X110150000Y-102200000I1750000J0D01*
G01*
%TO.C,R22*%
X189258774Y-79659251D02*
X188749326Y-79659251D01*
X189258774Y-80704251D02*
X188749326Y-80704251D01*
%TO.C,C45*%
X146653753Y-109303488D02*
X147023220Y-108934021D01*
X147693200Y-110342935D02*
X148062667Y-109973468D01*
%TO.C,R34*%
X149452500Y-102284724D02*
X149452500Y-101775276D01*
X150497500Y-102284724D02*
X150497500Y-101775276D01*
%TO.C,C31*%
X170329166Y-109168613D02*
X170698633Y-109538080D01*
X171368613Y-108129166D02*
X171738080Y-108498633D01*
%TO.C,R24*%
X173205185Y-114444111D02*
X173565419Y-114804345D01*
X173944111Y-113705185D02*
X174304345Y-114065419D01*
%TO.C,R8*%
X143290419Y-87795655D02*
X142930185Y-88155889D01*
X144029345Y-88534581D02*
X143669111Y-88894815D01*
%TO.C,R11*%
X143080889Y-118094815D02*
X142720655Y-117734581D01*
X143819815Y-117355889D02*
X143459581Y-116995655D01*
%TO.C,C40*%
X153665010Y-94604457D02*
X153295543Y-94234990D01*
X154704457Y-93565010D02*
X154334990Y-93195543D01*
%TO.C,C5*%
X160815000Y-127776248D02*
X160815000Y-128298752D01*
X162285000Y-127776248D02*
X162285000Y-128298752D01*
%TO.C,C44*%
X152984742Y-114721889D02*
X152615275Y-115091356D01*
X154024189Y-115761336D02*
X153654722Y-116130803D01*
%TO.C,Q4*%
X159140000Y-79240000D02*
X159140000Y-80760000D01*
X159140000Y-80760000D02*
X159190000Y-80760000D01*
X160140000Y-79240000D02*
X159140000Y-79240000D01*
X160310000Y-80760000D02*
X161090000Y-80760000D01*
X162210000Y-80760000D02*
X162260000Y-80760000D01*
X162260000Y-79240000D02*
X161260000Y-79240000D01*
X162260000Y-80760000D02*
X162260000Y-79240000D01*
X161080000Y-81300000D02*
X160750000Y-81540000D01*
X160750000Y-81060000D01*
X161080000Y-81300000D01*
G36*
X161080000Y-81300000D02*
G01*
X160750000Y-81540000D01*
X160750000Y-81060000D01*
X161080000Y-81300000D01*
G37*
%TO.C,C6*%
X168765000Y-127738748D02*
X168765000Y-128261252D01*
X170235000Y-127738748D02*
X170235000Y-128261252D01*
%TO.C,SW3*%
X151450000Y-75345000D02*
X151450000Y-74555000D01*
X152050000Y-73545000D02*
X157750000Y-73545000D01*
X153300000Y-76395000D02*
X155000000Y-76395000D01*
X153500000Y-72255000D02*
X153700000Y-72045000D01*
X153500000Y-73545000D02*
X153500000Y-72255000D01*
X153700000Y-72045000D02*
X154600000Y-72045000D01*
X154800000Y-72255000D02*
X154600000Y-72045000D01*
X154800000Y-72255000D02*
X154800000Y-73545000D01*
X156300000Y-76395000D02*
X156500000Y-76395000D01*
X158350000Y-74555000D02*
X158350000Y-75345000D01*
%TO.C,R41*%
X149954724Y-82377500D02*
X149445276Y-82377500D01*
X149954724Y-83422500D02*
X149445276Y-83422500D01*
%TO.C,R1*%
X180630185Y-101605889D02*
X180990419Y-101245655D01*
X181369111Y-102344815D02*
X181729345Y-101984581D01*
%TO.C,C9*%
X168988748Y-81215000D02*
X169511252Y-81215000D01*
X168988748Y-82685000D02*
X169511252Y-82685000D01*
%TO.C,R31*%
X172210654Y-88850420D02*
X171850420Y-89210654D01*
X172949580Y-89589346D02*
X172589346Y-89949580D01*
%TO.C,Y1*%
X150576408Y-116023509D02*
X146673179Y-112120280D01*
X153843241Y-112756676D02*
X150576408Y-116023509D01*
%TO.C,R42*%
X160954724Y-82277500D02*
X160445276Y-82277500D01*
X160954724Y-83322500D02*
X160445276Y-83322500D01*
%TO.C,R43*%
X157054724Y-82277500D02*
X156545276Y-82277500D01*
X157054724Y-83322500D02*
X156545276Y-83322500D01*
%TO.C,C46*%
X165470543Y-114984990D02*
X165840010Y-115354457D01*
X166509990Y-113945543D02*
X166879457Y-114315010D01*
D12*
%TO.C,U8*%
X160296900Y-122782800D02*
X160296900Y-118617200D01*
X165453100Y-118617200D02*
X165453100Y-122782800D01*
D14*
%TO.C,C41*%
X175395543Y-103434990D02*
X175765010Y-103804457D01*
X176434990Y-102395543D02*
X176804457Y-102765010D01*
%TO.C,C25*%
X164451248Y-77365000D02*
X164973752Y-77365000D01*
X164451248Y-78835000D02*
X164973752Y-78835000D01*
%TO.C,R10*%
X145640419Y-90245655D02*
X145280185Y-90605889D01*
X146379345Y-90984581D02*
X146019111Y-91344815D01*
%TO.C,C28*%
X162429166Y-87398633D02*
X162798633Y-87029166D01*
X163468613Y-88438080D02*
X163838080Y-88068613D01*
%TO.C,R19*%
X171003726Y-76635950D02*
X171513174Y-76635950D01*
X171003726Y-77680950D02*
X171513174Y-77680950D01*
%TO.C,C30*%
X166598633Y-90838080D02*
X166229166Y-90468613D01*
X167638080Y-89798633D02*
X167268613Y-89429166D01*
%TD*%
M02*
