%TF.GenerationSoftware,KiCad,Pcbnew,9.0.5*%
%TF.CreationDate,2025-11-14T15:11:00-08:00*%
%TF.ProjectId,SYCL Badge 2024,5359434c-2042-4616-9467-652032303234,rev?*%
%TF.SameCoordinates,Original*%
%TF.FileFunction,Drillmap*%
%TF.FilePolarity,Positive*%
%FSLAX45Y45*%
G04 Gerber Fmt 4.5, Leading zero omitted, Abs format (unit mm)*
G04 Created by KiCad (PCBNEW 9.0.5) date 2025-11-14 15:11:00*
%MOMM*%
%LPD*%
G01*
G04 APERTURE LIST*
%ADD10C,0.050000*%
%ADD11C,0.200000*%
%ADD12C,0.100000*%
%ADD13C,0.150000*%
%ADD14C,0.320000*%
G04 APERTURE END LIST*
D10*
X5350000Y-5240000D02*
X5200000Y-5390000D01*
X-320000Y-10830000D02*
X-320000Y-5540000D01*
X9680000Y-5540000D02*
X9680000Y-10840000D01*
X4860000Y-5390000D02*
X5200000Y-5390000D01*
X4710000Y-5240000D02*
X4860000Y-5390000D01*
X9680368Y-10840000D02*
G75*
G02*
X9380368Y-11139998I-299998J0D01*
G01*
X9380000Y-5240000D02*
G75*
G02*
X9680000Y-5540000I0J-300000D01*
G01*
X-320000Y-5540000D02*
G75*
G02*
X-20000Y-5240000I300000J0D01*
G01*
X5350000Y-5240000D02*
X9380000Y-5240000D01*
X-30000Y-11139859D02*
G75*
G02*
X-320000Y-10830000I12130J301989D01*
G01*
X-20000Y-5240000D02*
X4710000Y-5240000D01*
X9380000Y-11140000D02*
X-30000Y-11140000D01*
D11*
D12*
X4835000Y-5479500D02*
X4925000Y-5569500D01*
X4925000Y-5479500D02*
X4835000Y-5569500D01*
X5135000Y-5479500D02*
X5225000Y-5569500D01*
X5225000Y-5479500D02*
X5135000Y-5569500D01*
X3866930Y-8462000D02*
G75*
G02*
X3767870Y-8462000I-49530J0D01*
G01*
X3767870Y-8462000D02*
G75*
G02*
X3866930Y-8462000I49530J0D01*
G01*
X3968530Y-7954000D02*
G75*
G02*
X3869470Y-7954000I-49530J0D01*
G01*
X3869470Y-7954000D02*
G75*
G02*
X3968530Y-7954000I49530J0D01*
G01*
X4070130Y-8462000D02*
G75*
G02*
X3971070Y-8462000I-49530J0D01*
G01*
X3971070Y-8462000D02*
G75*
G02*
X4070130Y-8462000I49530J0D01*
G01*
X805718Y-8501465D02*
X805718Y-8601465D01*
X755718Y-8551465D02*
X855718Y-8551465D01*
X1583535Y-9279282D02*
X1583535Y-9379282D01*
X1533535Y-9329282D02*
X1633535Y-9329282D01*
D13*
X6265533Y-5478034D02*
X6265533Y-5371967D01*
X6159466Y-5371967D01*
X6159466Y-5478034D01*
X6265533Y-5478034D01*
D14*
X380000Y-8410000D02*
X540000Y-8250000D01*
X380000Y-8090000D01*
X220000Y-8250000D01*
X380000Y-8410000D01*
X2780000Y-8400000D02*
X2940000Y-8240000D01*
X2780000Y-8080000D01*
X2620000Y-8240000D01*
X2780000Y-8400000D01*
D11*
X-61826Y-11453984D02*
X-61826Y-11253984D01*
X-61826Y-11253984D02*
X-14207Y-11253984D01*
X-14207Y-11253984D02*
X14365Y-11263508D01*
X14365Y-11263508D02*
X33413Y-11282555D01*
X33413Y-11282555D02*
X42936Y-11301603D01*
X42936Y-11301603D02*
X52460Y-11339698D01*
X52460Y-11339698D02*
X52460Y-11368269D01*
X52460Y-11368269D02*
X42936Y-11406365D01*
X42936Y-11406365D02*
X33413Y-11425412D01*
X33413Y-11425412D02*
X14365Y-11444460D01*
X14365Y-11444460D02*
X-14207Y-11453984D01*
X-14207Y-11453984D02*
X-61826Y-11453984D01*
X138174Y-11453984D02*
X138174Y-11320650D01*
X138174Y-11358746D02*
X147698Y-11339698D01*
X147698Y-11339698D02*
X157222Y-11330174D01*
X157222Y-11330174D02*
X176270Y-11320650D01*
X176270Y-11320650D02*
X195317Y-11320650D01*
X261984Y-11453984D02*
X261984Y-11320650D01*
X261984Y-11253984D02*
X252460Y-11263508D01*
X252460Y-11263508D02*
X261984Y-11273031D01*
X261984Y-11273031D02*
X271508Y-11263508D01*
X271508Y-11263508D02*
X261984Y-11253984D01*
X261984Y-11253984D02*
X261984Y-11273031D01*
X385793Y-11453984D02*
X366746Y-11444460D01*
X366746Y-11444460D02*
X357222Y-11425412D01*
X357222Y-11425412D02*
X357222Y-11253984D01*
X490555Y-11453984D02*
X471508Y-11444460D01*
X471508Y-11444460D02*
X461984Y-11425412D01*
X461984Y-11425412D02*
X461984Y-11253984D01*
X719127Y-11453984D02*
X719127Y-11253984D01*
X719127Y-11253984D02*
X785793Y-11396841D01*
X785793Y-11396841D02*
X852460Y-11253984D01*
X852460Y-11253984D02*
X852460Y-11453984D01*
X1033412Y-11453984D02*
X1033412Y-11349222D01*
X1033412Y-11349222D02*
X1023889Y-11330174D01*
X1023889Y-11330174D02*
X1004841Y-11320650D01*
X1004841Y-11320650D02*
X966746Y-11320650D01*
X966746Y-11320650D02*
X947698Y-11330174D01*
X1033412Y-11444460D02*
X1014365Y-11453984D01*
X1014365Y-11453984D02*
X966746Y-11453984D01*
X966746Y-11453984D02*
X947698Y-11444460D01*
X947698Y-11444460D02*
X938174Y-11425412D01*
X938174Y-11425412D02*
X938174Y-11406365D01*
X938174Y-11406365D02*
X947698Y-11387317D01*
X947698Y-11387317D02*
X966746Y-11377793D01*
X966746Y-11377793D02*
X1014365Y-11377793D01*
X1014365Y-11377793D02*
X1033412Y-11368269D01*
X1128651Y-11320650D02*
X1128651Y-11520650D01*
X1128651Y-11330174D02*
X1147698Y-11320650D01*
X1147698Y-11320650D02*
X1185794Y-11320650D01*
X1185794Y-11320650D02*
X1204841Y-11330174D01*
X1204841Y-11330174D02*
X1214365Y-11339698D01*
X1214365Y-11339698D02*
X1223889Y-11358746D01*
X1223889Y-11358746D02*
X1223889Y-11415888D01*
X1223889Y-11415888D02*
X1214365Y-11434936D01*
X1214365Y-11434936D02*
X1204841Y-11444460D01*
X1204841Y-11444460D02*
X1185794Y-11453984D01*
X1185794Y-11453984D02*
X1147698Y-11453984D01*
X1147698Y-11453984D02*
X1128651Y-11444460D01*
X1309603Y-11434936D02*
X1319127Y-11444460D01*
X1319127Y-11444460D02*
X1309603Y-11453984D01*
X1309603Y-11453984D02*
X1300079Y-11444460D01*
X1300079Y-11444460D02*
X1309603Y-11434936D01*
X1309603Y-11434936D02*
X1309603Y-11453984D01*
X1309603Y-11330174D02*
X1319127Y-11339698D01*
X1319127Y-11339698D02*
X1309603Y-11349222D01*
X1309603Y-11349222D02*
X1300079Y-11339698D01*
X1300079Y-11339698D02*
X1309603Y-11330174D01*
X1309603Y-11330174D02*
X1309603Y-11349222D01*
D12*
X-412602Y-11737500D02*
X-322602Y-11827500D01*
X-322602Y-11737500D02*
X-412602Y-11827500D01*
D11*
X-23730Y-11673984D02*
X-4683Y-11673984D01*
X-4683Y-11673984D02*
X14365Y-11683508D01*
X14365Y-11683508D02*
X23889Y-11693031D01*
X23889Y-11693031D02*
X33413Y-11712079D01*
X33413Y-11712079D02*
X42936Y-11750174D01*
X42936Y-11750174D02*
X42936Y-11797793D01*
X42936Y-11797793D02*
X33413Y-11835888D01*
X33413Y-11835888D02*
X23889Y-11854936D01*
X23889Y-11854936D02*
X14365Y-11864460D01*
X14365Y-11864460D02*
X-4683Y-11873984D01*
X-4683Y-11873984D02*
X-23730Y-11873984D01*
X-23730Y-11873984D02*
X-42778Y-11864460D01*
X-42778Y-11864460D02*
X-52302Y-11854936D01*
X-52302Y-11854936D02*
X-61826Y-11835888D01*
X-61826Y-11835888D02*
X-71349Y-11797793D01*
X-71349Y-11797793D02*
X-71349Y-11750174D01*
X-71349Y-11750174D02*
X-61826Y-11712079D01*
X-61826Y-11712079D02*
X-52302Y-11693031D01*
X-52302Y-11693031D02*
X-42778Y-11683508D01*
X-42778Y-11683508D02*
X-23730Y-11673984D01*
X128651Y-11854936D02*
X138174Y-11864460D01*
X138174Y-11864460D02*
X128651Y-11873984D01*
X128651Y-11873984D02*
X119127Y-11864460D01*
X119127Y-11864460D02*
X128651Y-11854936D01*
X128651Y-11854936D02*
X128651Y-11873984D01*
X233412Y-11873984D02*
X271508Y-11873984D01*
X271508Y-11873984D02*
X290555Y-11864460D01*
X290555Y-11864460D02*
X300079Y-11854936D01*
X300079Y-11854936D02*
X319127Y-11826365D01*
X319127Y-11826365D02*
X328651Y-11788269D01*
X328651Y-11788269D02*
X328651Y-11712079D01*
X328651Y-11712079D02*
X319127Y-11693031D01*
X319127Y-11693031D02*
X309603Y-11683508D01*
X309603Y-11683508D02*
X290555Y-11673984D01*
X290555Y-11673984D02*
X252460Y-11673984D01*
X252460Y-11673984D02*
X233412Y-11683508D01*
X233412Y-11683508D02*
X223889Y-11693031D01*
X223889Y-11693031D02*
X214365Y-11712079D01*
X214365Y-11712079D02*
X214365Y-11759698D01*
X214365Y-11759698D02*
X223889Y-11778746D01*
X223889Y-11778746D02*
X233412Y-11788269D01*
X233412Y-11788269D02*
X252460Y-11797793D01*
X252460Y-11797793D02*
X290555Y-11797793D01*
X290555Y-11797793D02*
X309603Y-11788269D01*
X309603Y-11788269D02*
X319127Y-11778746D01*
X319127Y-11778746D02*
X328651Y-11759698D01*
X452460Y-11673984D02*
X471508Y-11673984D01*
X471508Y-11673984D02*
X490555Y-11683508D01*
X490555Y-11683508D02*
X500079Y-11693031D01*
X500079Y-11693031D02*
X509603Y-11712079D01*
X509603Y-11712079D02*
X519127Y-11750174D01*
X519127Y-11750174D02*
X519127Y-11797793D01*
X519127Y-11797793D02*
X509603Y-11835888D01*
X509603Y-11835888D02*
X500079Y-11854936D01*
X500079Y-11854936D02*
X490555Y-11864460D01*
X490555Y-11864460D02*
X471508Y-11873984D01*
X471508Y-11873984D02*
X452460Y-11873984D01*
X452460Y-11873984D02*
X433412Y-11864460D01*
X433412Y-11864460D02*
X423889Y-11854936D01*
X423889Y-11854936D02*
X414365Y-11835888D01*
X414365Y-11835888D02*
X404841Y-11797793D01*
X404841Y-11797793D02*
X404841Y-11750174D01*
X404841Y-11750174D02*
X414365Y-11712079D01*
X414365Y-11712079D02*
X423889Y-11693031D01*
X423889Y-11693031D02*
X433412Y-11683508D01*
X433412Y-11683508D02*
X452460Y-11673984D01*
X642936Y-11673984D02*
X661984Y-11673984D01*
X661984Y-11673984D02*
X681032Y-11683508D01*
X681032Y-11683508D02*
X690555Y-11693031D01*
X690555Y-11693031D02*
X700079Y-11712079D01*
X700079Y-11712079D02*
X709603Y-11750174D01*
X709603Y-11750174D02*
X709603Y-11797793D01*
X709603Y-11797793D02*
X700079Y-11835888D01*
X700079Y-11835888D02*
X690555Y-11854936D01*
X690555Y-11854936D02*
X681032Y-11864460D01*
X681032Y-11864460D02*
X661984Y-11873984D01*
X661984Y-11873984D02*
X642936Y-11873984D01*
X642936Y-11873984D02*
X623889Y-11864460D01*
X623889Y-11864460D02*
X614365Y-11854936D01*
X614365Y-11854936D02*
X604841Y-11835888D01*
X604841Y-11835888D02*
X595317Y-11797793D01*
X595317Y-11797793D02*
X595317Y-11750174D01*
X595317Y-11750174D02*
X604841Y-11712079D01*
X604841Y-11712079D02*
X614365Y-11693031D01*
X614365Y-11693031D02*
X623889Y-11683508D01*
X623889Y-11683508D02*
X642936Y-11673984D01*
X795317Y-11873984D02*
X795317Y-11740650D01*
X795317Y-11759698D02*
X804841Y-11750174D01*
X804841Y-11750174D02*
X823889Y-11740650D01*
X823889Y-11740650D02*
X852460Y-11740650D01*
X852460Y-11740650D02*
X871508Y-11750174D01*
X871508Y-11750174D02*
X881032Y-11769222D01*
X881032Y-11769222D02*
X881032Y-11873984D01*
X881032Y-11769222D02*
X890555Y-11750174D01*
X890555Y-11750174D02*
X909603Y-11740650D01*
X909603Y-11740650D02*
X938174Y-11740650D01*
X938174Y-11740650D02*
X957222Y-11750174D01*
X957222Y-11750174D02*
X966746Y-11769222D01*
X966746Y-11769222D02*
X966746Y-11873984D01*
X1061984Y-11873984D02*
X1061984Y-11740650D01*
X1061984Y-11759698D02*
X1071508Y-11750174D01*
X1071508Y-11750174D02*
X1090555Y-11740650D01*
X1090555Y-11740650D02*
X1119127Y-11740650D01*
X1119127Y-11740650D02*
X1138175Y-11750174D01*
X1138175Y-11750174D02*
X1147698Y-11769222D01*
X1147698Y-11769222D02*
X1147698Y-11873984D01*
X1147698Y-11769222D02*
X1157222Y-11750174D01*
X1157222Y-11750174D02*
X1176270Y-11740650D01*
X1176270Y-11740650D02*
X1204841Y-11740650D01*
X1204841Y-11740650D02*
X1223889Y-11750174D01*
X1223889Y-11750174D02*
X1233413Y-11769222D01*
X1233413Y-11769222D02*
X1233413Y-11873984D01*
X1623889Y-11664460D02*
X1452460Y-11921603D01*
X1881032Y-11673984D02*
X1900079Y-11673984D01*
X1900079Y-11673984D02*
X1919127Y-11683508D01*
X1919127Y-11683508D02*
X1928651Y-11693031D01*
X1928651Y-11693031D02*
X1938175Y-11712079D01*
X1938175Y-11712079D02*
X1947698Y-11750174D01*
X1947698Y-11750174D02*
X1947698Y-11797793D01*
X1947698Y-11797793D02*
X1938175Y-11835888D01*
X1938175Y-11835888D02*
X1928651Y-11854936D01*
X1928651Y-11854936D02*
X1919127Y-11864460D01*
X1919127Y-11864460D02*
X1900079Y-11873984D01*
X1900079Y-11873984D02*
X1881032Y-11873984D01*
X1881032Y-11873984D02*
X1861984Y-11864460D01*
X1861984Y-11864460D02*
X1852460Y-11854936D01*
X1852460Y-11854936D02*
X1842936Y-11835888D01*
X1842936Y-11835888D02*
X1833413Y-11797793D01*
X1833413Y-11797793D02*
X1833413Y-11750174D01*
X1833413Y-11750174D02*
X1842936Y-11712079D01*
X1842936Y-11712079D02*
X1852460Y-11693031D01*
X1852460Y-11693031D02*
X1861984Y-11683508D01*
X1861984Y-11683508D02*
X1881032Y-11673984D01*
X2033413Y-11854936D02*
X2042936Y-11864460D01*
X2042936Y-11864460D02*
X2033413Y-11873984D01*
X2033413Y-11873984D02*
X2023889Y-11864460D01*
X2023889Y-11864460D02*
X2033413Y-11854936D01*
X2033413Y-11854936D02*
X2033413Y-11873984D01*
X2166746Y-11673984D02*
X2185794Y-11673984D01*
X2185794Y-11673984D02*
X2204841Y-11683508D01*
X2204841Y-11683508D02*
X2214365Y-11693031D01*
X2214365Y-11693031D02*
X2223889Y-11712079D01*
X2223889Y-11712079D02*
X2233413Y-11750174D01*
X2233413Y-11750174D02*
X2233413Y-11797793D01*
X2233413Y-11797793D02*
X2223889Y-11835888D01*
X2223889Y-11835888D02*
X2214365Y-11854936D01*
X2214365Y-11854936D02*
X2204841Y-11864460D01*
X2204841Y-11864460D02*
X2185794Y-11873984D01*
X2185794Y-11873984D02*
X2166746Y-11873984D01*
X2166746Y-11873984D02*
X2147698Y-11864460D01*
X2147698Y-11864460D02*
X2138175Y-11854936D01*
X2138175Y-11854936D02*
X2128651Y-11835888D01*
X2128651Y-11835888D02*
X2119127Y-11797793D01*
X2119127Y-11797793D02*
X2119127Y-11750174D01*
X2119127Y-11750174D02*
X2128651Y-11712079D01*
X2128651Y-11712079D02*
X2138175Y-11693031D01*
X2138175Y-11693031D02*
X2147698Y-11683508D01*
X2147698Y-11683508D02*
X2166746Y-11673984D01*
X2300079Y-11673984D02*
X2423889Y-11673984D01*
X2423889Y-11673984D02*
X2357222Y-11750174D01*
X2357222Y-11750174D02*
X2385794Y-11750174D01*
X2385794Y-11750174D02*
X2404841Y-11759698D01*
X2404841Y-11759698D02*
X2414365Y-11769222D01*
X2414365Y-11769222D02*
X2423889Y-11788269D01*
X2423889Y-11788269D02*
X2423889Y-11835888D01*
X2423889Y-11835888D02*
X2414365Y-11854936D01*
X2414365Y-11854936D02*
X2404841Y-11864460D01*
X2404841Y-11864460D02*
X2385794Y-11873984D01*
X2385794Y-11873984D02*
X2328651Y-11873984D01*
X2328651Y-11873984D02*
X2309603Y-11864460D01*
X2309603Y-11864460D02*
X2300079Y-11854936D01*
X2604841Y-11673984D02*
X2509603Y-11673984D01*
X2509603Y-11673984D02*
X2500079Y-11769222D01*
X2500079Y-11769222D02*
X2509603Y-11759698D01*
X2509603Y-11759698D02*
X2528651Y-11750174D01*
X2528651Y-11750174D02*
X2576270Y-11750174D01*
X2576270Y-11750174D02*
X2595318Y-11759698D01*
X2595318Y-11759698D02*
X2604841Y-11769222D01*
X2604841Y-11769222D02*
X2614365Y-11788269D01*
X2614365Y-11788269D02*
X2614365Y-11835888D01*
X2614365Y-11835888D02*
X2604841Y-11854936D01*
X2604841Y-11854936D02*
X2595318Y-11864460D01*
X2595318Y-11864460D02*
X2576270Y-11873984D01*
X2576270Y-11873984D02*
X2528651Y-11873984D01*
X2528651Y-11873984D02*
X2509603Y-11864460D01*
X2509603Y-11864460D02*
X2500079Y-11854936D01*
X2785794Y-11740650D02*
X2785794Y-11873984D01*
X2738175Y-11664460D02*
X2690556Y-11807317D01*
X2690556Y-11807317D02*
X2814365Y-11807317D01*
X2881032Y-11673984D02*
X2881032Y-11712079D01*
X2957222Y-11673984D02*
X2957222Y-11712079D01*
X3252460Y-11950174D02*
X3242937Y-11940650D01*
X3242937Y-11940650D02*
X3223889Y-11912079D01*
X3223889Y-11912079D02*
X3214365Y-11893031D01*
X3214365Y-11893031D02*
X3204841Y-11864460D01*
X3204841Y-11864460D02*
X3195318Y-11816841D01*
X3195318Y-11816841D02*
X3195318Y-11778746D01*
X3195318Y-11778746D02*
X3204841Y-11731127D01*
X3204841Y-11731127D02*
X3214365Y-11702555D01*
X3214365Y-11702555D02*
X3223889Y-11683508D01*
X3223889Y-11683508D02*
X3242937Y-11654936D01*
X3242937Y-11654936D02*
X3252460Y-11645412D01*
X3319127Y-11693031D02*
X3328651Y-11683508D01*
X3328651Y-11683508D02*
X3347698Y-11673984D01*
X3347698Y-11673984D02*
X3395318Y-11673984D01*
X3395318Y-11673984D02*
X3414365Y-11683508D01*
X3414365Y-11683508D02*
X3423889Y-11693031D01*
X3423889Y-11693031D02*
X3433413Y-11712079D01*
X3433413Y-11712079D02*
X3433413Y-11731127D01*
X3433413Y-11731127D02*
X3423889Y-11759698D01*
X3423889Y-11759698D02*
X3309603Y-11873984D01*
X3309603Y-11873984D02*
X3433413Y-11873984D01*
X3671508Y-11873984D02*
X3671508Y-11673984D01*
X3757222Y-11873984D02*
X3757222Y-11769222D01*
X3757222Y-11769222D02*
X3747699Y-11750174D01*
X3747699Y-11750174D02*
X3728651Y-11740650D01*
X3728651Y-11740650D02*
X3700079Y-11740650D01*
X3700079Y-11740650D02*
X3681032Y-11750174D01*
X3681032Y-11750174D02*
X3671508Y-11759698D01*
X3881032Y-11873984D02*
X3861984Y-11864460D01*
X3861984Y-11864460D02*
X3852460Y-11854936D01*
X3852460Y-11854936D02*
X3842937Y-11835888D01*
X3842937Y-11835888D02*
X3842937Y-11778746D01*
X3842937Y-11778746D02*
X3852460Y-11759698D01*
X3852460Y-11759698D02*
X3861984Y-11750174D01*
X3861984Y-11750174D02*
X3881032Y-11740650D01*
X3881032Y-11740650D02*
X3909603Y-11740650D01*
X3909603Y-11740650D02*
X3928651Y-11750174D01*
X3928651Y-11750174D02*
X3938175Y-11759698D01*
X3938175Y-11759698D02*
X3947699Y-11778746D01*
X3947699Y-11778746D02*
X3947699Y-11835888D01*
X3947699Y-11835888D02*
X3938175Y-11854936D01*
X3938175Y-11854936D02*
X3928651Y-11864460D01*
X3928651Y-11864460D02*
X3909603Y-11873984D01*
X3909603Y-11873984D02*
X3881032Y-11873984D01*
X4061984Y-11873984D02*
X4042937Y-11864460D01*
X4042937Y-11864460D02*
X4033413Y-11845412D01*
X4033413Y-11845412D02*
X4033413Y-11673984D01*
X4214365Y-11864460D02*
X4195318Y-11873984D01*
X4195318Y-11873984D02*
X4157222Y-11873984D01*
X4157222Y-11873984D02*
X4138175Y-11864460D01*
X4138175Y-11864460D02*
X4128651Y-11845412D01*
X4128651Y-11845412D02*
X4128651Y-11769222D01*
X4128651Y-11769222D02*
X4138175Y-11750174D01*
X4138175Y-11750174D02*
X4157222Y-11740650D01*
X4157222Y-11740650D02*
X4195318Y-11740650D01*
X4195318Y-11740650D02*
X4214365Y-11750174D01*
X4214365Y-11750174D02*
X4223889Y-11769222D01*
X4223889Y-11769222D02*
X4223889Y-11788269D01*
X4223889Y-11788269D02*
X4128651Y-11807317D01*
X4300080Y-11864460D02*
X4319127Y-11873984D01*
X4319127Y-11873984D02*
X4357222Y-11873984D01*
X4357222Y-11873984D02*
X4376270Y-11864460D01*
X4376270Y-11864460D02*
X4385794Y-11845412D01*
X4385794Y-11845412D02*
X4385794Y-11835888D01*
X4385794Y-11835888D02*
X4376270Y-11816841D01*
X4376270Y-11816841D02*
X4357222Y-11807317D01*
X4357222Y-11807317D02*
X4328651Y-11807317D01*
X4328651Y-11807317D02*
X4309603Y-11797793D01*
X4309603Y-11797793D02*
X4300080Y-11778746D01*
X4300080Y-11778746D02*
X4300080Y-11769222D01*
X4300080Y-11769222D02*
X4309603Y-11750174D01*
X4309603Y-11750174D02*
X4328651Y-11740650D01*
X4328651Y-11740650D02*
X4357222Y-11740650D01*
X4357222Y-11740650D02*
X4376270Y-11750174D01*
X4452461Y-11950174D02*
X4461984Y-11940650D01*
X4461984Y-11940650D02*
X4481032Y-11912079D01*
X4481032Y-11912079D02*
X4490556Y-11893031D01*
X4490556Y-11893031D02*
X4500080Y-11864460D01*
X4500080Y-11864460D02*
X4509603Y-11816841D01*
X4509603Y-11816841D02*
X4509603Y-11778746D01*
X4509603Y-11778746D02*
X4500080Y-11731127D01*
X4500080Y-11731127D02*
X4490556Y-11702555D01*
X4490556Y-11702555D02*
X4481032Y-11683508D01*
X4481032Y-11683508D02*
X4461984Y-11654936D01*
X4461984Y-11654936D02*
X4452461Y-11645412D01*
X4814365Y-11950174D02*
X4804842Y-11940650D01*
X4804842Y-11940650D02*
X4785794Y-11912079D01*
X4785794Y-11912079D02*
X4776270Y-11893031D01*
X4776270Y-11893031D02*
X4766746Y-11864460D01*
X4766746Y-11864460D02*
X4757223Y-11816841D01*
X4757223Y-11816841D02*
X4757223Y-11778746D01*
X4757223Y-11778746D02*
X4766746Y-11731127D01*
X4766746Y-11731127D02*
X4776270Y-11702555D01*
X4776270Y-11702555D02*
X4785794Y-11683508D01*
X4785794Y-11683508D02*
X4804842Y-11654936D01*
X4804842Y-11654936D02*
X4814365Y-11645412D01*
X4890556Y-11740650D02*
X4890556Y-11873984D01*
X4890556Y-11759698D02*
X4900080Y-11750174D01*
X4900080Y-11750174D02*
X4919127Y-11740650D01*
X4919127Y-11740650D02*
X4947699Y-11740650D01*
X4947699Y-11740650D02*
X4966746Y-11750174D01*
X4966746Y-11750174D02*
X4976270Y-11769222D01*
X4976270Y-11769222D02*
X4976270Y-11873984D01*
X5100080Y-11873984D02*
X5081032Y-11864460D01*
X5081032Y-11864460D02*
X5071508Y-11854936D01*
X5071508Y-11854936D02*
X5061984Y-11835888D01*
X5061984Y-11835888D02*
X5061984Y-11778746D01*
X5061984Y-11778746D02*
X5071508Y-11759698D01*
X5071508Y-11759698D02*
X5081032Y-11750174D01*
X5081032Y-11750174D02*
X5100080Y-11740650D01*
X5100080Y-11740650D02*
X5128651Y-11740650D01*
X5128651Y-11740650D02*
X5147699Y-11750174D01*
X5147699Y-11750174D02*
X5157223Y-11759698D01*
X5157223Y-11759698D02*
X5166746Y-11778746D01*
X5166746Y-11778746D02*
X5166746Y-11835888D01*
X5166746Y-11835888D02*
X5157223Y-11854936D01*
X5157223Y-11854936D02*
X5147699Y-11864460D01*
X5147699Y-11864460D02*
X5128651Y-11873984D01*
X5128651Y-11873984D02*
X5100080Y-11873984D01*
X5223889Y-11740650D02*
X5300080Y-11740650D01*
X5252461Y-11673984D02*
X5252461Y-11845412D01*
X5252461Y-11845412D02*
X5261984Y-11864460D01*
X5261984Y-11864460D02*
X5281032Y-11873984D01*
X5281032Y-11873984D02*
X5300080Y-11873984D01*
X5519127Y-11740650D02*
X5519127Y-11940650D01*
X5519127Y-11750174D02*
X5538175Y-11740650D01*
X5538175Y-11740650D02*
X5576270Y-11740650D01*
X5576270Y-11740650D02*
X5595318Y-11750174D01*
X5595318Y-11750174D02*
X5604842Y-11759698D01*
X5604842Y-11759698D02*
X5614365Y-11778746D01*
X5614365Y-11778746D02*
X5614365Y-11835888D01*
X5614365Y-11835888D02*
X5604842Y-11854936D01*
X5604842Y-11854936D02*
X5595318Y-11864460D01*
X5595318Y-11864460D02*
X5576270Y-11873984D01*
X5576270Y-11873984D02*
X5538175Y-11873984D01*
X5538175Y-11873984D02*
X5519127Y-11864460D01*
X5728651Y-11873984D02*
X5709603Y-11864460D01*
X5709603Y-11864460D02*
X5700080Y-11845412D01*
X5700080Y-11845412D02*
X5700080Y-11673984D01*
X5890556Y-11873984D02*
X5890556Y-11769222D01*
X5890556Y-11769222D02*
X5881032Y-11750174D01*
X5881032Y-11750174D02*
X5861984Y-11740650D01*
X5861984Y-11740650D02*
X5823889Y-11740650D01*
X5823889Y-11740650D02*
X5804842Y-11750174D01*
X5890556Y-11864460D02*
X5871508Y-11873984D01*
X5871508Y-11873984D02*
X5823889Y-11873984D01*
X5823889Y-11873984D02*
X5804842Y-11864460D01*
X5804842Y-11864460D02*
X5795318Y-11845412D01*
X5795318Y-11845412D02*
X5795318Y-11826365D01*
X5795318Y-11826365D02*
X5804842Y-11807317D01*
X5804842Y-11807317D02*
X5823889Y-11797793D01*
X5823889Y-11797793D02*
X5871508Y-11797793D01*
X5871508Y-11797793D02*
X5890556Y-11788269D01*
X5957223Y-11740650D02*
X6033413Y-11740650D01*
X5985794Y-11673984D02*
X5985794Y-11845412D01*
X5985794Y-11845412D02*
X5995318Y-11864460D01*
X5995318Y-11864460D02*
X6014365Y-11873984D01*
X6014365Y-11873984D02*
X6033413Y-11873984D01*
X6176270Y-11864460D02*
X6157223Y-11873984D01*
X6157223Y-11873984D02*
X6119127Y-11873984D01*
X6119127Y-11873984D02*
X6100080Y-11864460D01*
X6100080Y-11864460D02*
X6090556Y-11845412D01*
X6090556Y-11845412D02*
X6090556Y-11769222D01*
X6090556Y-11769222D02*
X6100080Y-11750174D01*
X6100080Y-11750174D02*
X6119127Y-11740650D01*
X6119127Y-11740650D02*
X6157223Y-11740650D01*
X6157223Y-11740650D02*
X6176270Y-11750174D01*
X6176270Y-11750174D02*
X6185794Y-11769222D01*
X6185794Y-11769222D02*
X6185794Y-11788269D01*
X6185794Y-11788269D02*
X6090556Y-11807317D01*
X6357223Y-11873984D02*
X6357223Y-11673984D01*
X6357223Y-11864460D02*
X6338175Y-11873984D01*
X6338175Y-11873984D02*
X6300080Y-11873984D01*
X6300080Y-11873984D02*
X6281032Y-11864460D01*
X6281032Y-11864460D02*
X6271508Y-11854936D01*
X6271508Y-11854936D02*
X6261984Y-11835888D01*
X6261984Y-11835888D02*
X6261984Y-11778746D01*
X6261984Y-11778746D02*
X6271508Y-11759698D01*
X6271508Y-11759698D02*
X6281032Y-11750174D01*
X6281032Y-11750174D02*
X6300080Y-11740650D01*
X6300080Y-11740650D02*
X6338175Y-11740650D01*
X6338175Y-11740650D02*
X6357223Y-11750174D01*
X6433413Y-11950174D02*
X6442937Y-11940650D01*
X6442937Y-11940650D02*
X6461984Y-11912079D01*
X6461984Y-11912079D02*
X6471508Y-11893031D01*
X6471508Y-11893031D02*
X6481032Y-11864460D01*
X6481032Y-11864460D02*
X6490556Y-11816841D01*
X6490556Y-11816841D02*
X6490556Y-11778746D01*
X6490556Y-11778746D02*
X6481032Y-11731127D01*
X6481032Y-11731127D02*
X6471508Y-11702555D01*
X6471508Y-11702555D02*
X6461984Y-11683508D01*
X6461984Y-11683508D02*
X6442937Y-11654936D01*
X6442937Y-11654936D02*
X6433413Y-11645412D01*
D12*
X-322602Y-12046500D02*
G75*
G02*
X-421662Y-12046500I-49530J0D01*
G01*
X-421662Y-12046500D02*
G75*
G02*
X-322602Y-12046500I49530J0D01*
G01*
D11*
X-23730Y-11937984D02*
X-4683Y-11937984D01*
X-4683Y-11937984D02*
X14365Y-11947508D01*
X14365Y-11947508D02*
X23889Y-11957031D01*
X23889Y-11957031D02*
X33413Y-11976079D01*
X33413Y-11976079D02*
X42936Y-12014174D01*
X42936Y-12014174D02*
X42936Y-12061793D01*
X42936Y-12061793D02*
X33413Y-12099888D01*
X33413Y-12099888D02*
X23889Y-12118936D01*
X23889Y-12118936D02*
X14365Y-12128460D01*
X14365Y-12128460D02*
X-4683Y-12137984D01*
X-4683Y-12137984D02*
X-23730Y-12137984D01*
X-23730Y-12137984D02*
X-42778Y-12128460D01*
X-42778Y-12128460D02*
X-52302Y-12118936D01*
X-52302Y-12118936D02*
X-61826Y-12099888D01*
X-61826Y-12099888D02*
X-71349Y-12061793D01*
X-71349Y-12061793D02*
X-71349Y-12014174D01*
X-71349Y-12014174D02*
X-61826Y-11976079D01*
X-61826Y-11976079D02*
X-52302Y-11957031D01*
X-52302Y-11957031D02*
X-42778Y-11947508D01*
X-42778Y-11947508D02*
X-23730Y-11937984D01*
X128651Y-12118936D02*
X138174Y-12128460D01*
X138174Y-12128460D02*
X128651Y-12137984D01*
X128651Y-12137984D02*
X119127Y-12128460D01*
X119127Y-12128460D02*
X128651Y-12118936D01*
X128651Y-12118936D02*
X128651Y-12137984D01*
X233412Y-12137984D02*
X271508Y-12137984D01*
X271508Y-12137984D02*
X290555Y-12128460D01*
X290555Y-12128460D02*
X300079Y-12118936D01*
X300079Y-12118936D02*
X319127Y-12090365D01*
X319127Y-12090365D02*
X328651Y-12052269D01*
X328651Y-12052269D02*
X328651Y-11976079D01*
X328651Y-11976079D02*
X319127Y-11957031D01*
X319127Y-11957031D02*
X309603Y-11947508D01*
X309603Y-11947508D02*
X290555Y-11937984D01*
X290555Y-11937984D02*
X252460Y-11937984D01*
X252460Y-11937984D02*
X233412Y-11947508D01*
X233412Y-11947508D02*
X223889Y-11957031D01*
X223889Y-11957031D02*
X214365Y-11976079D01*
X214365Y-11976079D02*
X214365Y-12023698D01*
X214365Y-12023698D02*
X223889Y-12042746D01*
X223889Y-12042746D02*
X233412Y-12052269D01*
X233412Y-12052269D02*
X252460Y-12061793D01*
X252460Y-12061793D02*
X290555Y-12061793D01*
X290555Y-12061793D02*
X309603Y-12052269D01*
X309603Y-12052269D02*
X319127Y-12042746D01*
X319127Y-12042746D02*
X328651Y-12023698D01*
X423889Y-12137984D02*
X461984Y-12137984D01*
X461984Y-12137984D02*
X481032Y-12128460D01*
X481032Y-12128460D02*
X490555Y-12118936D01*
X490555Y-12118936D02*
X509603Y-12090365D01*
X509603Y-12090365D02*
X519127Y-12052269D01*
X519127Y-12052269D02*
X519127Y-11976079D01*
X519127Y-11976079D02*
X509603Y-11957031D01*
X509603Y-11957031D02*
X500079Y-11947508D01*
X500079Y-11947508D02*
X481032Y-11937984D01*
X481032Y-11937984D02*
X442936Y-11937984D01*
X442936Y-11937984D02*
X423889Y-11947508D01*
X423889Y-11947508D02*
X414365Y-11957031D01*
X414365Y-11957031D02*
X404841Y-11976079D01*
X404841Y-11976079D02*
X404841Y-12023698D01*
X404841Y-12023698D02*
X414365Y-12042746D01*
X414365Y-12042746D02*
X423889Y-12052269D01*
X423889Y-12052269D02*
X442936Y-12061793D01*
X442936Y-12061793D02*
X481032Y-12061793D01*
X481032Y-12061793D02*
X500079Y-12052269D01*
X500079Y-12052269D02*
X509603Y-12042746D01*
X509603Y-12042746D02*
X519127Y-12023698D01*
X709603Y-12137984D02*
X595317Y-12137984D01*
X652460Y-12137984D02*
X652460Y-11937984D01*
X652460Y-11937984D02*
X633413Y-11966555D01*
X633413Y-11966555D02*
X614365Y-11985603D01*
X614365Y-11985603D02*
X595317Y-11995127D01*
X795317Y-12137984D02*
X795317Y-12004650D01*
X795317Y-12023698D02*
X804841Y-12014174D01*
X804841Y-12014174D02*
X823889Y-12004650D01*
X823889Y-12004650D02*
X852460Y-12004650D01*
X852460Y-12004650D02*
X871508Y-12014174D01*
X871508Y-12014174D02*
X881032Y-12033222D01*
X881032Y-12033222D02*
X881032Y-12137984D01*
X881032Y-12033222D02*
X890555Y-12014174D01*
X890555Y-12014174D02*
X909603Y-12004650D01*
X909603Y-12004650D02*
X938174Y-12004650D01*
X938174Y-12004650D02*
X957222Y-12014174D01*
X957222Y-12014174D02*
X966746Y-12033222D01*
X966746Y-12033222D02*
X966746Y-12137984D01*
X1061984Y-12137984D02*
X1061984Y-12004650D01*
X1061984Y-12023698D02*
X1071508Y-12014174D01*
X1071508Y-12014174D02*
X1090555Y-12004650D01*
X1090555Y-12004650D02*
X1119127Y-12004650D01*
X1119127Y-12004650D02*
X1138175Y-12014174D01*
X1138175Y-12014174D02*
X1147698Y-12033222D01*
X1147698Y-12033222D02*
X1147698Y-12137984D01*
X1147698Y-12033222D02*
X1157222Y-12014174D01*
X1157222Y-12014174D02*
X1176270Y-12004650D01*
X1176270Y-12004650D02*
X1204841Y-12004650D01*
X1204841Y-12004650D02*
X1223889Y-12014174D01*
X1223889Y-12014174D02*
X1233413Y-12033222D01*
X1233413Y-12033222D02*
X1233413Y-12137984D01*
X1623889Y-11928460D02*
X1452460Y-12185603D01*
X1881032Y-11937984D02*
X1900079Y-11937984D01*
X1900079Y-11937984D02*
X1919127Y-11947508D01*
X1919127Y-11947508D02*
X1928651Y-11957031D01*
X1928651Y-11957031D02*
X1938175Y-11976079D01*
X1938175Y-11976079D02*
X1947698Y-12014174D01*
X1947698Y-12014174D02*
X1947698Y-12061793D01*
X1947698Y-12061793D02*
X1938175Y-12099888D01*
X1938175Y-12099888D02*
X1928651Y-12118936D01*
X1928651Y-12118936D02*
X1919127Y-12128460D01*
X1919127Y-12128460D02*
X1900079Y-12137984D01*
X1900079Y-12137984D02*
X1881032Y-12137984D01*
X1881032Y-12137984D02*
X1861984Y-12128460D01*
X1861984Y-12128460D02*
X1852460Y-12118936D01*
X1852460Y-12118936D02*
X1842936Y-12099888D01*
X1842936Y-12099888D02*
X1833413Y-12061793D01*
X1833413Y-12061793D02*
X1833413Y-12014174D01*
X1833413Y-12014174D02*
X1842936Y-11976079D01*
X1842936Y-11976079D02*
X1852460Y-11957031D01*
X1852460Y-11957031D02*
X1861984Y-11947508D01*
X1861984Y-11947508D02*
X1881032Y-11937984D01*
X2033413Y-12118936D02*
X2042936Y-12128460D01*
X2042936Y-12128460D02*
X2033413Y-12137984D01*
X2033413Y-12137984D02*
X2023889Y-12128460D01*
X2023889Y-12128460D02*
X2033413Y-12118936D01*
X2033413Y-12118936D02*
X2033413Y-12137984D01*
X2166746Y-11937984D02*
X2185794Y-11937984D01*
X2185794Y-11937984D02*
X2204841Y-11947508D01*
X2204841Y-11947508D02*
X2214365Y-11957031D01*
X2214365Y-11957031D02*
X2223889Y-11976079D01*
X2223889Y-11976079D02*
X2233413Y-12014174D01*
X2233413Y-12014174D02*
X2233413Y-12061793D01*
X2233413Y-12061793D02*
X2223889Y-12099888D01*
X2223889Y-12099888D02*
X2214365Y-12118936D01*
X2214365Y-12118936D02*
X2204841Y-12128460D01*
X2204841Y-12128460D02*
X2185794Y-12137984D01*
X2185794Y-12137984D02*
X2166746Y-12137984D01*
X2166746Y-12137984D02*
X2147698Y-12128460D01*
X2147698Y-12128460D02*
X2138175Y-12118936D01*
X2138175Y-12118936D02*
X2128651Y-12099888D01*
X2128651Y-12099888D02*
X2119127Y-12061793D01*
X2119127Y-12061793D02*
X2119127Y-12014174D01*
X2119127Y-12014174D02*
X2128651Y-11976079D01*
X2128651Y-11976079D02*
X2138175Y-11957031D01*
X2138175Y-11957031D02*
X2147698Y-11947508D01*
X2147698Y-11947508D02*
X2166746Y-11937984D01*
X2300079Y-11937984D02*
X2423889Y-11937984D01*
X2423889Y-11937984D02*
X2357222Y-12014174D01*
X2357222Y-12014174D02*
X2385794Y-12014174D01*
X2385794Y-12014174D02*
X2404841Y-12023698D01*
X2404841Y-12023698D02*
X2414365Y-12033222D01*
X2414365Y-12033222D02*
X2423889Y-12052269D01*
X2423889Y-12052269D02*
X2423889Y-12099888D01*
X2423889Y-12099888D02*
X2414365Y-12118936D01*
X2414365Y-12118936D02*
X2404841Y-12128460D01*
X2404841Y-12128460D02*
X2385794Y-12137984D01*
X2385794Y-12137984D02*
X2328651Y-12137984D01*
X2328651Y-12137984D02*
X2309603Y-12128460D01*
X2309603Y-12128460D02*
X2300079Y-12118936D01*
X2519127Y-12137984D02*
X2557222Y-12137984D01*
X2557222Y-12137984D02*
X2576270Y-12128460D01*
X2576270Y-12128460D02*
X2585794Y-12118936D01*
X2585794Y-12118936D02*
X2604841Y-12090365D01*
X2604841Y-12090365D02*
X2614365Y-12052269D01*
X2614365Y-12052269D02*
X2614365Y-11976079D01*
X2614365Y-11976079D02*
X2604841Y-11957031D01*
X2604841Y-11957031D02*
X2595318Y-11947508D01*
X2595318Y-11947508D02*
X2576270Y-11937984D01*
X2576270Y-11937984D02*
X2538175Y-11937984D01*
X2538175Y-11937984D02*
X2519127Y-11947508D01*
X2519127Y-11947508D02*
X2509603Y-11957031D01*
X2509603Y-11957031D02*
X2500079Y-11976079D01*
X2500079Y-11976079D02*
X2500079Y-12023698D01*
X2500079Y-12023698D02*
X2509603Y-12042746D01*
X2509603Y-12042746D02*
X2519127Y-12052269D01*
X2519127Y-12052269D02*
X2538175Y-12061793D01*
X2538175Y-12061793D02*
X2576270Y-12061793D01*
X2576270Y-12061793D02*
X2595318Y-12052269D01*
X2595318Y-12052269D02*
X2604841Y-12042746D01*
X2604841Y-12042746D02*
X2614365Y-12023698D01*
X2738175Y-11937984D02*
X2757222Y-11937984D01*
X2757222Y-11937984D02*
X2776270Y-11947508D01*
X2776270Y-11947508D02*
X2785794Y-11957031D01*
X2785794Y-11957031D02*
X2795318Y-11976079D01*
X2795318Y-11976079D02*
X2804841Y-12014174D01*
X2804841Y-12014174D02*
X2804841Y-12061793D01*
X2804841Y-12061793D02*
X2795318Y-12099888D01*
X2795318Y-12099888D02*
X2785794Y-12118936D01*
X2785794Y-12118936D02*
X2776270Y-12128460D01*
X2776270Y-12128460D02*
X2757222Y-12137984D01*
X2757222Y-12137984D02*
X2738175Y-12137984D01*
X2738175Y-12137984D02*
X2719127Y-12128460D01*
X2719127Y-12128460D02*
X2709603Y-12118936D01*
X2709603Y-12118936D02*
X2700079Y-12099888D01*
X2700079Y-12099888D02*
X2690556Y-12061793D01*
X2690556Y-12061793D02*
X2690556Y-12014174D01*
X2690556Y-12014174D02*
X2700079Y-11976079D01*
X2700079Y-11976079D02*
X2709603Y-11957031D01*
X2709603Y-11957031D02*
X2719127Y-11947508D01*
X2719127Y-11947508D02*
X2738175Y-11937984D01*
X2881032Y-11937984D02*
X2881032Y-11976079D01*
X2957222Y-11937984D02*
X2957222Y-11976079D01*
X3252460Y-12214174D02*
X3242937Y-12204650D01*
X3242937Y-12204650D02*
X3223889Y-12176079D01*
X3223889Y-12176079D02*
X3214365Y-12157031D01*
X3214365Y-12157031D02*
X3204841Y-12128460D01*
X3204841Y-12128460D02*
X3195318Y-12080841D01*
X3195318Y-12080841D02*
X3195318Y-12042746D01*
X3195318Y-12042746D02*
X3204841Y-11995127D01*
X3204841Y-11995127D02*
X3214365Y-11966555D01*
X3214365Y-11966555D02*
X3223889Y-11947508D01*
X3223889Y-11947508D02*
X3242937Y-11918936D01*
X3242937Y-11918936D02*
X3252460Y-11909412D01*
X3309603Y-11937984D02*
X3433413Y-11937984D01*
X3433413Y-11937984D02*
X3366746Y-12014174D01*
X3366746Y-12014174D02*
X3395318Y-12014174D01*
X3395318Y-12014174D02*
X3414365Y-12023698D01*
X3414365Y-12023698D02*
X3423889Y-12033222D01*
X3423889Y-12033222D02*
X3433413Y-12052269D01*
X3433413Y-12052269D02*
X3433413Y-12099888D01*
X3433413Y-12099888D02*
X3423889Y-12118936D01*
X3423889Y-12118936D02*
X3414365Y-12128460D01*
X3414365Y-12128460D02*
X3395318Y-12137984D01*
X3395318Y-12137984D02*
X3338175Y-12137984D01*
X3338175Y-12137984D02*
X3319127Y-12128460D01*
X3319127Y-12128460D02*
X3309603Y-12118936D01*
X3671508Y-12137984D02*
X3671508Y-11937984D01*
X3757222Y-12137984D02*
X3757222Y-12033222D01*
X3757222Y-12033222D02*
X3747699Y-12014174D01*
X3747699Y-12014174D02*
X3728651Y-12004650D01*
X3728651Y-12004650D02*
X3700079Y-12004650D01*
X3700079Y-12004650D02*
X3681032Y-12014174D01*
X3681032Y-12014174D02*
X3671508Y-12023698D01*
X3881032Y-12137984D02*
X3861984Y-12128460D01*
X3861984Y-12128460D02*
X3852460Y-12118936D01*
X3852460Y-12118936D02*
X3842937Y-12099888D01*
X3842937Y-12099888D02*
X3842937Y-12042746D01*
X3842937Y-12042746D02*
X3852460Y-12023698D01*
X3852460Y-12023698D02*
X3861984Y-12014174D01*
X3861984Y-12014174D02*
X3881032Y-12004650D01*
X3881032Y-12004650D02*
X3909603Y-12004650D01*
X3909603Y-12004650D02*
X3928651Y-12014174D01*
X3928651Y-12014174D02*
X3938175Y-12023698D01*
X3938175Y-12023698D02*
X3947699Y-12042746D01*
X3947699Y-12042746D02*
X3947699Y-12099888D01*
X3947699Y-12099888D02*
X3938175Y-12118936D01*
X3938175Y-12118936D02*
X3928651Y-12128460D01*
X3928651Y-12128460D02*
X3909603Y-12137984D01*
X3909603Y-12137984D02*
X3881032Y-12137984D01*
X4061984Y-12137984D02*
X4042937Y-12128460D01*
X4042937Y-12128460D02*
X4033413Y-12109412D01*
X4033413Y-12109412D02*
X4033413Y-11937984D01*
X4214365Y-12128460D02*
X4195318Y-12137984D01*
X4195318Y-12137984D02*
X4157222Y-12137984D01*
X4157222Y-12137984D02*
X4138175Y-12128460D01*
X4138175Y-12128460D02*
X4128651Y-12109412D01*
X4128651Y-12109412D02*
X4128651Y-12033222D01*
X4128651Y-12033222D02*
X4138175Y-12014174D01*
X4138175Y-12014174D02*
X4157222Y-12004650D01*
X4157222Y-12004650D02*
X4195318Y-12004650D01*
X4195318Y-12004650D02*
X4214365Y-12014174D01*
X4214365Y-12014174D02*
X4223889Y-12033222D01*
X4223889Y-12033222D02*
X4223889Y-12052269D01*
X4223889Y-12052269D02*
X4128651Y-12071317D01*
X4300080Y-12128460D02*
X4319127Y-12137984D01*
X4319127Y-12137984D02*
X4357222Y-12137984D01*
X4357222Y-12137984D02*
X4376270Y-12128460D01*
X4376270Y-12128460D02*
X4385794Y-12109412D01*
X4385794Y-12109412D02*
X4385794Y-12099888D01*
X4385794Y-12099888D02*
X4376270Y-12080841D01*
X4376270Y-12080841D02*
X4357222Y-12071317D01*
X4357222Y-12071317D02*
X4328651Y-12071317D01*
X4328651Y-12071317D02*
X4309603Y-12061793D01*
X4309603Y-12061793D02*
X4300080Y-12042746D01*
X4300080Y-12042746D02*
X4300080Y-12033222D01*
X4300080Y-12033222D02*
X4309603Y-12014174D01*
X4309603Y-12014174D02*
X4328651Y-12004650D01*
X4328651Y-12004650D02*
X4357222Y-12004650D01*
X4357222Y-12004650D02*
X4376270Y-12014174D01*
X4452461Y-12214174D02*
X4461984Y-12204650D01*
X4461984Y-12204650D02*
X4481032Y-12176079D01*
X4481032Y-12176079D02*
X4490556Y-12157031D01*
X4490556Y-12157031D02*
X4500080Y-12128460D01*
X4500080Y-12128460D02*
X4509603Y-12080841D01*
X4509603Y-12080841D02*
X4509603Y-12042746D01*
X4509603Y-12042746D02*
X4500080Y-11995127D01*
X4500080Y-11995127D02*
X4490556Y-11966555D01*
X4490556Y-11966555D02*
X4481032Y-11947508D01*
X4481032Y-11947508D02*
X4461984Y-11918936D01*
X4461984Y-11918936D02*
X4452461Y-11909412D01*
X4814365Y-12214174D02*
X4804842Y-12204650D01*
X4804842Y-12204650D02*
X4785794Y-12176079D01*
X4785794Y-12176079D02*
X4776270Y-12157031D01*
X4776270Y-12157031D02*
X4766746Y-12128460D01*
X4766746Y-12128460D02*
X4757223Y-12080841D01*
X4757223Y-12080841D02*
X4757223Y-12042746D01*
X4757223Y-12042746D02*
X4766746Y-11995127D01*
X4766746Y-11995127D02*
X4776270Y-11966555D01*
X4776270Y-11966555D02*
X4785794Y-11947508D01*
X4785794Y-11947508D02*
X4804842Y-11918936D01*
X4804842Y-11918936D02*
X4814365Y-11909412D01*
X4890556Y-12004650D02*
X4890556Y-12137984D01*
X4890556Y-12023698D02*
X4900080Y-12014174D01*
X4900080Y-12014174D02*
X4919127Y-12004650D01*
X4919127Y-12004650D02*
X4947699Y-12004650D01*
X4947699Y-12004650D02*
X4966746Y-12014174D01*
X4966746Y-12014174D02*
X4976270Y-12033222D01*
X4976270Y-12033222D02*
X4976270Y-12137984D01*
X5100080Y-12137984D02*
X5081032Y-12128460D01*
X5081032Y-12128460D02*
X5071508Y-12118936D01*
X5071508Y-12118936D02*
X5061984Y-12099888D01*
X5061984Y-12099888D02*
X5061984Y-12042746D01*
X5061984Y-12042746D02*
X5071508Y-12023698D01*
X5071508Y-12023698D02*
X5081032Y-12014174D01*
X5081032Y-12014174D02*
X5100080Y-12004650D01*
X5100080Y-12004650D02*
X5128651Y-12004650D01*
X5128651Y-12004650D02*
X5147699Y-12014174D01*
X5147699Y-12014174D02*
X5157223Y-12023698D01*
X5157223Y-12023698D02*
X5166746Y-12042746D01*
X5166746Y-12042746D02*
X5166746Y-12099888D01*
X5166746Y-12099888D02*
X5157223Y-12118936D01*
X5157223Y-12118936D02*
X5147699Y-12128460D01*
X5147699Y-12128460D02*
X5128651Y-12137984D01*
X5128651Y-12137984D02*
X5100080Y-12137984D01*
X5223889Y-12004650D02*
X5300080Y-12004650D01*
X5252461Y-11937984D02*
X5252461Y-12109412D01*
X5252461Y-12109412D02*
X5261984Y-12128460D01*
X5261984Y-12128460D02*
X5281032Y-12137984D01*
X5281032Y-12137984D02*
X5300080Y-12137984D01*
X5519127Y-12004650D02*
X5519127Y-12204650D01*
X5519127Y-12014174D02*
X5538175Y-12004650D01*
X5538175Y-12004650D02*
X5576270Y-12004650D01*
X5576270Y-12004650D02*
X5595318Y-12014174D01*
X5595318Y-12014174D02*
X5604842Y-12023698D01*
X5604842Y-12023698D02*
X5614365Y-12042746D01*
X5614365Y-12042746D02*
X5614365Y-12099888D01*
X5614365Y-12099888D02*
X5604842Y-12118936D01*
X5604842Y-12118936D02*
X5595318Y-12128460D01*
X5595318Y-12128460D02*
X5576270Y-12137984D01*
X5576270Y-12137984D02*
X5538175Y-12137984D01*
X5538175Y-12137984D02*
X5519127Y-12128460D01*
X5728651Y-12137984D02*
X5709603Y-12128460D01*
X5709603Y-12128460D02*
X5700080Y-12109412D01*
X5700080Y-12109412D02*
X5700080Y-11937984D01*
X5890556Y-12137984D02*
X5890556Y-12033222D01*
X5890556Y-12033222D02*
X5881032Y-12014174D01*
X5881032Y-12014174D02*
X5861984Y-12004650D01*
X5861984Y-12004650D02*
X5823889Y-12004650D01*
X5823889Y-12004650D02*
X5804842Y-12014174D01*
X5890556Y-12128460D02*
X5871508Y-12137984D01*
X5871508Y-12137984D02*
X5823889Y-12137984D01*
X5823889Y-12137984D02*
X5804842Y-12128460D01*
X5804842Y-12128460D02*
X5795318Y-12109412D01*
X5795318Y-12109412D02*
X5795318Y-12090365D01*
X5795318Y-12090365D02*
X5804842Y-12071317D01*
X5804842Y-12071317D02*
X5823889Y-12061793D01*
X5823889Y-12061793D02*
X5871508Y-12061793D01*
X5871508Y-12061793D02*
X5890556Y-12052269D01*
X5957223Y-12004650D02*
X6033413Y-12004650D01*
X5985794Y-11937984D02*
X5985794Y-12109412D01*
X5985794Y-12109412D02*
X5995318Y-12128460D01*
X5995318Y-12128460D02*
X6014365Y-12137984D01*
X6014365Y-12137984D02*
X6033413Y-12137984D01*
X6176270Y-12128460D02*
X6157223Y-12137984D01*
X6157223Y-12137984D02*
X6119127Y-12137984D01*
X6119127Y-12137984D02*
X6100080Y-12128460D01*
X6100080Y-12128460D02*
X6090556Y-12109412D01*
X6090556Y-12109412D02*
X6090556Y-12033222D01*
X6090556Y-12033222D02*
X6100080Y-12014174D01*
X6100080Y-12014174D02*
X6119127Y-12004650D01*
X6119127Y-12004650D02*
X6157223Y-12004650D01*
X6157223Y-12004650D02*
X6176270Y-12014174D01*
X6176270Y-12014174D02*
X6185794Y-12033222D01*
X6185794Y-12033222D02*
X6185794Y-12052269D01*
X6185794Y-12052269D02*
X6090556Y-12071317D01*
X6357223Y-12137984D02*
X6357223Y-11937984D01*
X6357223Y-12128460D02*
X6338175Y-12137984D01*
X6338175Y-12137984D02*
X6300080Y-12137984D01*
X6300080Y-12137984D02*
X6281032Y-12128460D01*
X6281032Y-12128460D02*
X6271508Y-12118936D01*
X6271508Y-12118936D02*
X6261984Y-12099888D01*
X6261984Y-12099888D02*
X6261984Y-12042746D01*
X6261984Y-12042746D02*
X6271508Y-12023698D01*
X6271508Y-12023698D02*
X6281032Y-12014174D01*
X6281032Y-12014174D02*
X6300080Y-12004650D01*
X6300080Y-12004650D02*
X6338175Y-12004650D01*
X6338175Y-12004650D02*
X6357223Y-12014174D01*
X6433413Y-12214174D02*
X6442937Y-12204650D01*
X6442937Y-12204650D02*
X6461984Y-12176079D01*
X6461984Y-12176079D02*
X6471508Y-12157031D01*
X6471508Y-12157031D02*
X6481032Y-12128460D01*
X6481032Y-12128460D02*
X6490556Y-12080841D01*
X6490556Y-12080841D02*
X6490556Y-12042746D01*
X6490556Y-12042746D02*
X6481032Y-11995127D01*
X6481032Y-11995127D02*
X6471508Y-11966555D01*
X6471508Y-11966555D02*
X6461984Y-11947508D01*
X6461984Y-11947508D02*
X6442937Y-11918936D01*
X6442937Y-11918936D02*
X6433413Y-11909412D01*
D12*
X-372602Y-12260500D02*
X-372602Y-12360500D01*
X-422602Y-12310500D02*
X-322602Y-12310500D01*
D11*
X42936Y-12401984D02*
X-71349Y-12401984D01*
X-14207Y-12401984D02*
X-14207Y-12201984D01*
X-14207Y-12201984D02*
X-33254Y-12230555D01*
X-33254Y-12230555D02*
X-52302Y-12249603D01*
X-52302Y-12249603D02*
X-71349Y-12259127D01*
X128651Y-12382936D02*
X138174Y-12392460D01*
X138174Y-12392460D02*
X128651Y-12401984D01*
X128651Y-12401984D02*
X119127Y-12392460D01*
X119127Y-12392460D02*
X128651Y-12382936D01*
X128651Y-12382936D02*
X128651Y-12401984D01*
X261984Y-12201984D02*
X281032Y-12201984D01*
X281032Y-12201984D02*
X300079Y-12211508D01*
X300079Y-12211508D02*
X309603Y-12221031D01*
X309603Y-12221031D02*
X319127Y-12240079D01*
X319127Y-12240079D02*
X328651Y-12278174D01*
X328651Y-12278174D02*
X328651Y-12325793D01*
X328651Y-12325793D02*
X319127Y-12363888D01*
X319127Y-12363888D02*
X309603Y-12382936D01*
X309603Y-12382936D02*
X300079Y-12392460D01*
X300079Y-12392460D02*
X281032Y-12401984D01*
X281032Y-12401984D02*
X261984Y-12401984D01*
X261984Y-12401984D02*
X242936Y-12392460D01*
X242936Y-12392460D02*
X233412Y-12382936D01*
X233412Y-12382936D02*
X223889Y-12363888D01*
X223889Y-12363888D02*
X214365Y-12325793D01*
X214365Y-12325793D02*
X214365Y-12278174D01*
X214365Y-12278174D02*
X223889Y-12240079D01*
X223889Y-12240079D02*
X233412Y-12221031D01*
X233412Y-12221031D02*
X242936Y-12211508D01*
X242936Y-12211508D02*
X261984Y-12201984D01*
X452460Y-12201984D02*
X471508Y-12201984D01*
X471508Y-12201984D02*
X490555Y-12211508D01*
X490555Y-12211508D02*
X500079Y-12221031D01*
X500079Y-12221031D02*
X509603Y-12240079D01*
X509603Y-12240079D02*
X519127Y-12278174D01*
X519127Y-12278174D02*
X519127Y-12325793D01*
X519127Y-12325793D02*
X509603Y-12363888D01*
X509603Y-12363888D02*
X500079Y-12382936D01*
X500079Y-12382936D02*
X490555Y-12392460D01*
X490555Y-12392460D02*
X471508Y-12401984D01*
X471508Y-12401984D02*
X452460Y-12401984D01*
X452460Y-12401984D02*
X433412Y-12392460D01*
X433412Y-12392460D02*
X423889Y-12382936D01*
X423889Y-12382936D02*
X414365Y-12363888D01*
X414365Y-12363888D02*
X404841Y-12325793D01*
X404841Y-12325793D02*
X404841Y-12278174D01*
X404841Y-12278174D02*
X414365Y-12240079D01*
X414365Y-12240079D02*
X423889Y-12221031D01*
X423889Y-12221031D02*
X433412Y-12211508D01*
X433412Y-12211508D02*
X452460Y-12201984D01*
X642936Y-12201984D02*
X661984Y-12201984D01*
X661984Y-12201984D02*
X681032Y-12211508D01*
X681032Y-12211508D02*
X690555Y-12221031D01*
X690555Y-12221031D02*
X700079Y-12240079D01*
X700079Y-12240079D02*
X709603Y-12278174D01*
X709603Y-12278174D02*
X709603Y-12325793D01*
X709603Y-12325793D02*
X700079Y-12363888D01*
X700079Y-12363888D02*
X690555Y-12382936D01*
X690555Y-12382936D02*
X681032Y-12392460D01*
X681032Y-12392460D02*
X661984Y-12401984D01*
X661984Y-12401984D02*
X642936Y-12401984D01*
X642936Y-12401984D02*
X623889Y-12392460D01*
X623889Y-12392460D02*
X614365Y-12382936D01*
X614365Y-12382936D02*
X604841Y-12363888D01*
X604841Y-12363888D02*
X595317Y-12325793D01*
X595317Y-12325793D02*
X595317Y-12278174D01*
X595317Y-12278174D02*
X604841Y-12240079D01*
X604841Y-12240079D02*
X614365Y-12221031D01*
X614365Y-12221031D02*
X623889Y-12211508D01*
X623889Y-12211508D02*
X642936Y-12201984D01*
X795317Y-12401984D02*
X795317Y-12268650D01*
X795317Y-12287698D02*
X804841Y-12278174D01*
X804841Y-12278174D02*
X823889Y-12268650D01*
X823889Y-12268650D02*
X852460Y-12268650D01*
X852460Y-12268650D02*
X871508Y-12278174D01*
X871508Y-12278174D02*
X881032Y-12297222D01*
X881032Y-12297222D02*
X881032Y-12401984D01*
X881032Y-12297222D02*
X890555Y-12278174D01*
X890555Y-12278174D02*
X909603Y-12268650D01*
X909603Y-12268650D02*
X938174Y-12268650D01*
X938174Y-12268650D02*
X957222Y-12278174D01*
X957222Y-12278174D02*
X966746Y-12297222D01*
X966746Y-12297222D02*
X966746Y-12401984D01*
X1061984Y-12401984D02*
X1061984Y-12268650D01*
X1061984Y-12287698D02*
X1071508Y-12278174D01*
X1071508Y-12278174D02*
X1090555Y-12268650D01*
X1090555Y-12268650D02*
X1119127Y-12268650D01*
X1119127Y-12268650D02*
X1138175Y-12278174D01*
X1138175Y-12278174D02*
X1147698Y-12297222D01*
X1147698Y-12297222D02*
X1147698Y-12401984D01*
X1147698Y-12297222D02*
X1157222Y-12278174D01*
X1157222Y-12278174D02*
X1176270Y-12268650D01*
X1176270Y-12268650D02*
X1204841Y-12268650D01*
X1204841Y-12268650D02*
X1223889Y-12278174D01*
X1223889Y-12278174D02*
X1233413Y-12297222D01*
X1233413Y-12297222D02*
X1233413Y-12401984D01*
X1623889Y-12192460D02*
X1452460Y-12449603D01*
X1881032Y-12201984D02*
X1900079Y-12201984D01*
X1900079Y-12201984D02*
X1919127Y-12211508D01*
X1919127Y-12211508D02*
X1928651Y-12221031D01*
X1928651Y-12221031D02*
X1938175Y-12240079D01*
X1938175Y-12240079D02*
X1947698Y-12278174D01*
X1947698Y-12278174D02*
X1947698Y-12325793D01*
X1947698Y-12325793D02*
X1938175Y-12363888D01*
X1938175Y-12363888D02*
X1928651Y-12382936D01*
X1928651Y-12382936D02*
X1919127Y-12392460D01*
X1919127Y-12392460D02*
X1900079Y-12401984D01*
X1900079Y-12401984D02*
X1881032Y-12401984D01*
X1881032Y-12401984D02*
X1861984Y-12392460D01*
X1861984Y-12392460D02*
X1852460Y-12382936D01*
X1852460Y-12382936D02*
X1842936Y-12363888D01*
X1842936Y-12363888D02*
X1833413Y-12325793D01*
X1833413Y-12325793D02*
X1833413Y-12278174D01*
X1833413Y-12278174D02*
X1842936Y-12240079D01*
X1842936Y-12240079D02*
X1852460Y-12221031D01*
X1852460Y-12221031D02*
X1861984Y-12211508D01*
X1861984Y-12211508D02*
X1881032Y-12201984D01*
X2033413Y-12382936D02*
X2042936Y-12392460D01*
X2042936Y-12392460D02*
X2033413Y-12401984D01*
X2033413Y-12401984D02*
X2023889Y-12392460D01*
X2023889Y-12392460D02*
X2033413Y-12382936D01*
X2033413Y-12382936D02*
X2033413Y-12401984D01*
X2166746Y-12201984D02*
X2185794Y-12201984D01*
X2185794Y-12201984D02*
X2204841Y-12211508D01*
X2204841Y-12211508D02*
X2214365Y-12221031D01*
X2214365Y-12221031D02*
X2223889Y-12240079D01*
X2223889Y-12240079D02*
X2233413Y-12278174D01*
X2233413Y-12278174D02*
X2233413Y-12325793D01*
X2233413Y-12325793D02*
X2223889Y-12363888D01*
X2223889Y-12363888D02*
X2214365Y-12382936D01*
X2214365Y-12382936D02*
X2204841Y-12392460D01*
X2204841Y-12392460D02*
X2185794Y-12401984D01*
X2185794Y-12401984D02*
X2166746Y-12401984D01*
X2166746Y-12401984D02*
X2147698Y-12392460D01*
X2147698Y-12392460D02*
X2138175Y-12382936D01*
X2138175Y-12382936D02*
X2128651Y-12363888D01*
X2128651Y-12363888D02*
X2119127Y-12325793D01*
X2119127Y-12325793D02*
X2119127Y-12278174D01*
X2119127Y-12278174D02*
X2128651Y-12240079D01*
X2128651Y-12240079D02*
X2138175Y-12221031D01*
X2138175Y-12221031D02*
X2147698Y-12211508D01*
X2147698Y-12211508D02*
X2166746Y-12201984D01*
X2300079Y-12201984D02*
X2423889Y-12201984D01*
X2423889Y-12201984D02*
X2357222Y-12278174D01*
X2357222Y-12278174D02*
X2385794Y-12278174D01*
X2385794Y-12278174D02*
X2404841Y-12287698D01*
X2404841Y-12287698D02*
X2414365Y-12297222D01*
X2414365Y-12297222D02*
X2423889Y-12316269D01*
X2423889Y-12316269D02*
X2423889Y-12363888D01*
X2423889Y-12363888D02*
X2414365Y-12382936D01*
X2414365Y-12382936D02*
X2404841Y-12392460D01*
X2404841Y-12392460D02*
X2385794Y-12401984D01*
X2385794Y-12401984D02*
X2328651Y-12401984D01*
X2328651Y-12401984D02*
X2309603Y-12392460D01*
X2309603Y-12392460D02*
X2300079Y-12382936D01*
X2519127Y-12401984D02*
X2557222Y-12401984D01*
X2557222Y-12401984D02*
X2576270Y-12392460D01*
X2576270Y-12392460D02*
X2585794Y-12382936D01*
X2585794Y-12382936D02*
X2604841Y-12354365D01*
X2604841Y-12354365D02*
X2614365Y-12316269D01*
X2614365Y-12316269D02*
X2614365Y-12240079D01*
X2614365Y-12240079D02*
X2604841Y-12221031D01*
X2604841Y-12221031D02*
X2595318Y-12211508D01*
X2595318Y-12211508D02*
X2576270Y-12201984D01*
X2576270Y-12201984D02*
X2538175Y-12201984D01*
X2538175Y-12201984D02*
X2519127Y-12211508D01*
X2519127Y-12211508D02*
X2509603Y-12221031D01*
X2509603Y-12221031D02*
X2500079Y-12240079D01*
X2500079Y-12240079D02*
X2500079Y-12287698D01*
X2500079Y-12287698D02*
X2509603Y-12306746D01*
X2509603Y-12306746D02*
X2519127Y-12316269D01*
X2519127Y-12316269D02*
X2538175Y-12325793D01*
X2538175Y-12325793D02*
X2576270Y-12325793D01*
X2576270Y-12325793D02*
X2595318Y-12316269D01*
X2595318Y-12316269D02*
X2604841Y-12306746D01*
X2604841Y-12306746D02*
X2614365Y-12287698D01*
X2785794Y-12268650D02*
X2785794Y-12401984D01*
X2738175Y-12192460D02*
X2690556Y-12335317D01*
X2690556Y-12335317D02*
X2814365Y-12335317D01*
X2881032Y-12201984D02*
X2881032Y-12240079D01*
X2957222Y-12201984D02*
X2957222Y-12240079D01*
X3252460Y-12478174D02*
X3242937Y-12468650D01*
X3242937Y-12468650D02*
X3223889Y-12440079D01*
X3223889Y-12440079D02*
X3214365Y-12421031D01*
X3214365Y-12421031D02*
X3204841Y-12392460D01*
X3204841Y-12392460D02*
X3195318Y-12344841D01*
X3195318Y-12344841D02*
X3195318Y-12306746D01*
X3195318Y-12306746D02*
X3204841Y-12259127D01*
X3204841Y-12259127D02*
X3214365Y-12230555D01*
X3214365Y-12230555D02*
X3223889Y-12211508D01*
X3223889Y-12211508D02*
X3242937Y-12182936D01*
X3242937Y-12182936D02*
X3252460Y-12173412D01*
X3319127Y-12221031D02*
X3328651Y-12211508D01*
X3328651Y-12211508D02*
X3347698Y-12201984D01*
X3347698Y-12201984D02*
X3395318Y-12201984D01*
X3395318Y-12201984D02*
X3414365Y-12211508D01*
X3414365Y-12211508D02*
X3423889Y-12221031D01*
X3423889Y-12221031D02*
X3433413Y-12240079D01*
X3433413Y-12240079D02*
X3433413Y-12259127D01*
X3433413Y-12259127D02*
X3423889Y-12287698D01*
X3423889Y-12287698D02*
X3309603Y-12401984D01*
X3309603Y-12401984D02*
X3433413Y-12401984D01*
X3671508Y-12401984D02*
X3671508Y-12201984D01*
X3757222Y-12401984D02*
X3757222Y-12297222D01*
X3757222Y-12297222D02*
X3747699Y-12278174D01*
X3747699Y-12278174D02*
X3728651Y-12268650D01*
X3728651Y-12268650D02*
X3700079Y-12268650D01*
X3700079Y-12268650D02*
X3681032Y-12278174D01*
X3681032Y-12278174D02*
X3671508Y-12287698D01*
X3881032Y-12401984D02*
X3861984Y-12392460D01*
X3861984Y-12392460D02*
X3852460Y-12382936D01*
X3852460Y-12382936D02*
X3842937Y-12363888D01*
X3842937Y-12363888D02*
X3842937Y-12306746D01*
X3842937Y-12306746D02*
X3852460Y-12287698D01*
X3852460Y-12287698D02*
X3861984Y-12278174D01*
X3861984Y-12278174D02*
X3881032Y-12268650D01*
X3881032Y-12268650D02*
X3909603Y-12268650D01*
X3909603Y-12268650D02*
X3928651Y-12278174D01*
X3928651Y-12278174D02*
X3938175Y-12287698D01*
X3938175Y-12287698D02*
X3947699Y-12306746D01*
X3947699Y-12306746D02*
X3947699Y-12363888D01*
X3947699Y-12363888D02*
X3938175Y-12382936D01*
X3938175Y-12382936D02*
X3928651Y-12392460D01*
X3928651Y-12392460D02*
X3909603Y-12401984D01*
X3909603Y-12401984D02*
X3881032Y-12401984D01*
X4061984Y-12401984D02*
X4042937Y-12392460D01*
X4042937Y-12392460D02*
X4033413Y-12373412D01*
X4033413Y-12373412D02*
X4033413Y-12201984D01*
X4214365Y-12392460D02*
X4195318Y-12401984D01*
X4195318Y-12401984D02*
X4157222Y-12401984D01*
X4157222Y-12401984D02*
X4138175Y-12392460D01*
X4138175Y-12392460D02*
X4128651Y-12373412D01*
X4128651Y-12373412D02*
X4128651Y-12297222D01*
X4128651Y-12297222D02*
X4138175Y-12278174D01*
X4138175Y-12278174D02*
X4157222Y-12268650D01*
X4157222Y-12268650D02*
X4195318Y-12268650D01*
X4195318Y-12268650D02*
X4214365Y-12278174D01*
X4214365Y-12278174D02*
X4223889Y-12297222D01*
X4223889Y-12297222D02*
X4223889Y-12316269D01*
X4223889Y-12316269D02*
X4128651Y-12335317D01*
X4300080Y-12392460D02*
X4319127Y-12401984D01*
X4319127Y-12401984D02*
X4357222Y-12401984D01*
X4357222Y-12401984D02*
X4376270Y-12392460D01*
X4376270Y-12392460D02*
X4385794Y-12373412D01*
X4385794Y-12373412D02*
X4385794Y-12363888D01*
X4385794Y-12363888D02*
X4376270Y-12344841D01*
X4376270Y-12344841D02*
X4357222Y-12335317D01*
X4357222Y-12335317D02*
X4328651Y-12335317D01*
X4328651Y-12335317D02*
X4309603Y-12325793D01*
X4309603Y-12325793D02*
X4300080Y-12306746D01*
X4300080Y-12306746D02*
X4300080Y-12297222D01*
X4300080Y-12297222D02*
X4309603Y-12278174D01*
X4309603Y-12278174D02*
X4328651Y-12268650D01*
X4328651Y-12268650D02*
X4357222Y-12268650D01*
X4357222Y-12268650D02*
X4376270Y-12278174D01*
X4452461Y-12478174D02*
X4461984Y-12468650D01*
X4461984Y-12468650D02*
X4481032Y-12440079D01*
X4481032Y-12440079D02*
X4490556Y-12421031D01*
X4490556Y-12421031D02*
X4500080Y-12392460D01*
X4500080Y-12392460D02*
X4509603Y-12344841D01*
X4509603Y-12344841D02*
X4509603Y-12306746D01*
X4509603Y-12306746D02*
X4500080Y-12259127D01*
X4500080Y-12259127D02*
X4490556Y-12230555D01*
X4490556Y-12230555D02*
X4481032Y-12211508D01*
X4481032Y-12211508D02*
X4461984Y-12182936D01*
X4461984Y-12182936D02*
X4452461Y-12173412D01*
X4814365Y-12478174D02*
X4804842Y-12468650D01*
X4804842Y-12468650D02*
X4785794Y-12440079D01*
X4785794Y-12440079D02*
X4776270Y-12421031D01*
X4776270Y-12421031D02*
X4766746Y-12392460D01*
X4766746Y-12392460D02*
X4757223Y-12344841D01*
X4757223Y-12344841D02*
X4757223Y-12306746D01*
X4757223Y-12306746D02*
X4766746Y-12259127D01*
X4766746Y-12259127D02*
X4776270Y-12230555D01*
X4776270Y-12230555D02*
X4785794Y-12211508D01*
X4785794Y-12211508D02*
X4804842Y-12182936D01*
X4804842Y-12182936D02*
X4814365Y-12173412D01*
X4890556Y-12268650D02*
X4890556Y-12401984D01*
X4890556Y-12287698D02*
X4900080Y-12278174D01*
X4900080Y-12278174D02*
X4919127Y-12268650D01*
X4919127Y-12268650D02*
X4947699Y-12268650D01*
X4947699Y-12268650D02*
X4966746Y-12278174D01*
X4966746Y-12278174D02*
X4976270Y-12297222D01*
X4976270Y-12297222D02*
X4976270Y-12401984D01*
X5100080Y-12401984D02*
X5081032Y-12392460D01*
X5081032Y-12392460D02*
X5071508Y-12382936D01*
X5071508Y-12382936D02*
X5061984Y-12363888D01*
X5061984Y-12363888D02*
X5061984Y-12306746D01*
X5061984Y-12306746D02*
X5071508Y-12287698D01*
X5071508Y-12287698D02*
X5081032Y-12278174D01*
X5081032Y-12278174D02*
X5100080Y-12268650D01*
X5100080Y-12268650D02*
X5128651Y-12268650D01*
X5128651Y-12268650D02*
X5147699Y-12278174D01*
X5147699Y-12278174D02*
X5157223Y-12287698D01*
X5157223Y-12287698D02*
X5166746Y-12306746D01*
X5166746Y-12306746D02*
X5166746Y-12363888D01*
X5166746Y-12363888D02*
X5157223Y-12382936D01*
X5157223Y-12382936D02*
X5147699Y-12392460D01*
X5147699Y-12392460D02*
X5128651Y-12401984D01*
X5128651Y-12401984D02*
X5100080Y-12401984D01*
X5223889Y-12268650D02*
X5300080Y-12268650D01*
X5252461Y-12201984D02*
X5252461Y-12373412D01*
X5252461Y-12373412D02*
X5261984Y-12392460D01*
X5261984Y-12392460D02*
X5281032Y-12401984D01*
X5281032Y-12401984D02*
X5300080Y-12401984D01*
X5519127Y-12268650D02*
X5519127Y-12468650D01*
X5519127Y-12278174D02*
X5538175Y-12268650D01*
X5538175Y-12268650D02*
X5576270Y-12268650D01*
X5576270Y-12268650D02*
X5595318Y-12278174D01*
X5595318Y-12278174D02*
X5604842Y-12287698D01*
X5604842Y-12287698D02*
X5614365Y-12306746D01*
X5614365Y-12306746D02*
X5614365Y-12363888D01*
X5614365Y-12363888D02*
X5604842Y-12382936D01*
X5604842Y-12382936D02*
X5595318Y-12392460D01*
X5595318Y-12392460D02*
X5576270Y-12401984D01*
X5576270Y-12401984D02*
X5538175Y-12401984D01*
X5538175Y-12401984D02*
X5519127Y-12392460D01*
X5728651Y-12401984D02*
X5709603Y-12392460D01*
X5709603Y-12392460D02*
X5700080Y-12373412D01*
X5700080Y-12373412D02*
X5700080Y-12201984D01*
X5890556Y-12401984D02*
X5890556Y-12297222D01*
X5890556Y-12297222D02*
X5881032Y-12278174D01*
X5881032Y-12278174D02*
X5861984Y-12268650D01*
X5861984Y-12268650D02*
X5823889Y-12268650D01*
X5823889Y-12268650D02*
X5804842Y-12278174D01*
X5890556Y-12392460D02*
X5871508Y-12401984D01*
X5871508Y-12401984D02*
X5823889Y-12401984D01*
X5823889Y-12401984D02*
X5804842Y-12392460D01*
X5804842Y-12392460D02*
X5795318Y-12373412D01*
X5795318Y-12373412D02*
X5795318Y-12354365D01*
X5795318Y-12354365D02*
X5804842Y-12335317D01*
X5804842Y-12335317D02*
X5823889Y-12325793D01*
X5823889Y-12325793D02*
X5871508Y-12325793D01*
X5871508Y-12325793D02*
X5890556Y-12316269D01*
X5957223Y-12268650D02*
X6033413Y-12268650D01*
X5985794Y-12201984D02*
X5985794Y-12373412D01*
X5985794Y-12373412D02*
X5995318Y-12392460D01*
X5995318Y-12392460D02*
X6014365Y-12401984D01*
X6014365Y-12401984D02*
X6033413Y-12401984D01*
X6176270Y-12392460D02*
X6157223Y-12401984D01*
X6157223Y-12401984D02*
X6119127Y-12401984D01*
X6119127Y-12401984D02*
X6100080Y-12392460D01*
X6100080Y-12392460D02*
X6090556Y-12373412D01*
X6090556Y-12373412D02*
X6090556Y-12297222D01*
X6090556Y-12297222D02*
X6100080Y-12278174D01*
X6100080Y-12278174D02*
X6119127Y-12268650D01*
X6119127Y-12268650D02*
X6157223Y-12268650D01*
X6157223Y-12268650D02*
X6176270Y-12278174D01*
X6176270Y-12278174D02*
X6185794Y-12297222D01*
X6185794Y-12297222D02*
X6185794Y-12316269D01*
X6185794Y-12316269D02*
X6090556Y-12335317D01*
X6357223Y-12401984D02*
X6357223Y-12201984D01*
X6357223Y-12392460D02*
X6338175Y-12401984D01*
X6338175Y-12401984D02*
X6300080Y-12401984D01*
X6300080Y-12401984D02*
X6281032Y-12392460D01*
X6281032Y-12392460D02*
X6271508Y-12382936D01*
X6271508Y-12382936D02*
X6261984Y-12363888D01*
X6261984Y-12363888D02*
X6261984Y-12306746D01*
X6261984Y-12306746D02*
X6271508Y-12287698D01*
X6271508Y-12287698D02*
X6281032Y-12278174D01*
X6281032Y-12278174D02*
X6300080Y-12268650D01*
X6300080Y-12268650D02*
X6338175Y-12268650D01*
X6338175Y-12268650D02*
X6357223Y-12278174D01*
X6433413Y-12478174D02*
X6442937Y-12468650D01*
X6442937Y-12468650D02*
X6461984Y-12440079D01*
X6461984Y-12440079D02*
X6471508Y-12421031D01*
X6471508Y-12421031D02*
X6481032Y-12392460D01*
X6481032Y-12392460D02*
X6490556Y-12344841D01*
X6490556Y-12344841D02*
X6490556Y-12306746D01*
X6490556Y-12306746D02*
X6481032Y-12259127D01*
X6481032Y-12259127D02*
X6471508Y-12230555D01*
X6471508Y-12230555D02*
X6461984Y-12211508D01*
X6461984Y-12211508D02*
X6442937Y-12182936D01*
X6442937Y-12182936D02*
X6433413Y-12173412D01*
D13*
X-344569Y-12627533D02*
X-344569Y-12521466D01*
X-450636Y-12521466D01*
X-450636Y-12627533D01*
X-344569Y-12627533D01*
D11*
X42936Y-12665984D02*
X-71349Y-12665984D01*
X-14207Y-12665984D02*
X-14207Y-12465984D01*
X-14207Y-12465984D02*
X-33254Y-12494555D01*
X-33254Y-12494555D02*
X-52302Y-12513603D01*
X-52302Y-12513603D02*
X-71349Y-12523127D01*
X128651Y-12646936D02*
X138174Y-12656460D01*
X138174Y-12656460D02*
X128651Y-12665984D01*
X128651Y-12665984D02*
X119127Y-12656460D01*
X119127Y-12656460D02*
X128651Y-12646936D01*
X128651Y-12646936D02*
X128651Y-12665984D01*
X319127Y-12465984D02*
X223889Y-12465984D01*
X223889Y-12465984D02*
X214365Y-12561222D01*
X214365Y-12561222D02*
X223889Y-12551698D01*
X223889Y-12551698D02*
X242936Y-12542174D01*
X242936Y-12542174D02*
X290555Y-12542174D01*
X290555Y-12542174D02*
X309603Y-12551698D01*
X309603Y-12551698D02*
X319127Y-12561222D01*
X319127Y-12561222D02*
X328651Y-12580269D01*
X328651Y-12580269D02*
X328651Y-12627888D01*
X328651Y-12627888D02*
X319127Y-12646936D01*
X319127Y-12646936D02*
X309603Y-12656460D01*
X309603Y-12656460D02*
X290555Y-12665984D01*
X290555Y-12665984D02*
X242936Y-12665984D01*
X242936Y-12665984D02*
X223889Y-12656460D01*
X223889Y-12656460D02*
X214365Y-12646936D01*
X452460Y-12465984D02*
X471508Y-12465984D01*
X471508Y-12465984D02*
X490555Y-12475508D01*
X490555Y-12475508D02*
X500079Y-12485031D01*
X500079Y-12485031D02*
X509603Y-12504079D01*
X509603Y-12504079D02*
X519127Y-12542174D01*
X519127Y-12542174D02*
X519127Y-12589793D01*
X519127Y-12589793D02*
X509603Y-12627888D01*
X509603Y-12627888D02*
X500079Y-12646936D01*
X500079Y-12646936D02*
X490555Y-12656460D01*
X490555Y-12656460D02*
X471508Y-12665984D01*
X471508Y-12665984D02*
X452460Y-12665984D01*
X452460Y-12665984D02*
X433412Y-12656460D01*
X433412Y-12656460D02*
X423889Y-12646936D01*
X423889Y-12646936D02*
X414365Y-12627888D01*
X414365Y-12627888D02*
X404841Y-12589793D01*
X404841Y-12589793D02*
X404841Y-12542174D01*
X404841Y-12542174D02*
X414365Y-12504079D01*
X414365Y-12504079D02*
X423889Y-12485031D01*
X423889Y-12485031D02*
X433412Y-12475508D01*
X433412Y-12475508D02*
X452460Y-12465984D01*
X642936Y-12465984D02*
X661984Y-12465984D01*
X661984Y-12465984D02*
X681032Y-12475508D01*
X681032Y-12475508D02*
X690555Y-12485031D01*
X690555Y-12485031D02*
X700079Y-12504079D01*
X700079Y-12504079D02*
X709603Y-12542174D01*
X709603Y-12542174D02*
X709603Y-12589793D01*
X709603Y-12589793D02*
X700079Y-12627888D01*
X700079Y-12627888D02*
X690555Y-12646936D01*
X690555Y-12646936D02*
X681032Y-12656460D01*
X681032Y-12656460D02*
X661984Y-12665984D01*
X661984Y-12665984D02*
X642936Y-12665984D01*
X642936Y-12665984D02*
X623889Y-12656460D01*
X623889Y-12656460D02*
X614365Y-12646936D01*
X614365Y-12646936D02*
X604841Y-12627888D01*
X604841Y-12627888D02*
X595317Y-12589793D01*
X595317Y-12589793D02*
X595317Y-12542174D01*
X595317Y-12542174D02*
X604841Y-12504079D01*
X604841Y-12504079D02*
X614365Y-12485031D01*
X614365Y-12485031D02*
X623889Y-12475508D01*
X623889Y-12475508D02*
X642936Y-12465984D01*
X795317Y-12665984D02*
X795317Y-12532650D01*
X795317Y-12551698D02*
X804841Y-12542174D01*
X804841Y-12542174D02*
X823889Y-12532650D01*
X823889Y-12532650D02*
X852460Y-12532650D01*
X852460Y-12532650D02*
X871508Y-12542174D01*
X871508Y-12542174D02*
X881032Y-12561222D01*
X881032Y-12561222D02*
X881032Y-12665984D01*
X881032Y-12561222D02*
X890555Y-12542174D01*
X890555Y-12542174D02*
X909603Y-12532650D01*
X909603Y-12532650D02*
X938174Y-12532650D01*
X938174Y-12532650D02*
X957222Y-12542174D01*
X957222Y-12542174D02*
X966746Y-12561222D01*
X966746Y-12561222D02*
X966746Y-12665984D01*
X1061984Y-12665984D02*
X1061984Y-12532650D01*
X1061984Y-12551698D02*
X1071508Y-12542174D01*
X1071508Y-12542174D02*
X1090555Y-12532650D01*
X1090555Y-12532650D02*
X1119127Y-12532650D01*
X1119127Y-12532650D02*
X1138175Y-12542174D01*
X1138175Y-12542174D02*
X1147698Y-12561222D01*
X1147698Y-12561222D02*
X1147698Y-12665984D01*
X1147698Y-12561222D02*
X1157222Y-12542174D01*
X1157222Y-12542174D02*
X1176270Y-12532650D01*
X1176270Y-12532650D02*
X1204841Y-12532650D01*
X1204841Y-12532650D02*
X1223889Y-12542174D01*
X1223889Y-12542174D02*
X1233413Y-12561222D01*
X1233413Y-12561222D02*
X1233413Y-12665984D01*
X1623889Y-12456460D02*
X1452460Y-12713603D01*
X1881032Y-12465984D02*
X1900079Y-12465984D01*
X1900079Y-12465984D02*
X1919127Y-12475508D01*
X1919127Y-12475508D02*
X1928651Y-12485031D01*
X1928651Y-12485031D02*
X1938175Y-12504079D01*
X1938175Y-12504079D02*
X1947698Y-12542174D01*
X1947698Y-12542174D02*
X1947698Y-12589793D01*
X1947698Y-12589793D02*
X1938175Y-12627888D01*
X1938175Y-12627888D02*
X1928651Y-12646936D01*
X1928651Y-12646936D02*
X1919127Y-12656460D01*
X1919127Y-12656460D02*
X1900079Y-12665984D01*
X1900079Y-12665984D02*
X1881032Y-12665984D01*
X1881032Y-12665984D02*
X1861984Y-12656460D01*
X1861984Y-12656460D02*
X1852460Y-12646936D01*
X1852460Y-12646936D02*
X1842936Y-12627888D01*
X1842936Y-12627888D02*
X1833413Y-12589793D01*
X1833413Y-12589793D02*
X1833413Y-12542174D01*
X1833413Y-12542174D02*
X1842936Y-12504079D01*
X1842936Y-12504079D02*
X1852460Y-12485031D01*
X1852460Y-12485031D02*
X1861984Y-12475508D01*
X1861984Y-12475508D02*
X1881032Y-12465984D01*
X2033413Y-12646936D02*
X2042936Y-12656460D01*
X2042936Y-12656460D02*
X2033413Y-12665984D01*
X2033413Y-12665984D02*
X2023889Y-12656460D01*
X2023889Y-12656460D02*
X2033413Y-12646936D01*
X2033413Y-12646936D02*
X2033413Y-12665984D01*
X2166746Y-12465984D02*
X2185794Y-12465984D01*
X2185794Y-12465984D02*
X2204841Y-12475508D01*
X2204841Y-12475508D02*
X2214365Y-12485031D01*
X2214365Y-12485031D02*
X2223889Y-12504079D01*
X2223889Y-12504079D02*
X2233413Y-12542174D01*
X2233413Y-12542174D02*
X2233413Y-12589793D01*
X2233413Y-12589793D02*
X2223889Y-12627888D01*
X2223889Y-12627888D02*
X2214365Y-12646936D01*
X2214365Y-12646936D02*
X2204841Y-12656460D01*
X2204841Y-12656460D02*
X2185794Y-12665984D01*
X2185794Y-12665984D02*
X2166746Y-12665984D01*
X2166746Y-12665984D02*
X2147698Y-12656460D01*
X2147698Y-12656460D02*
X2138175Y-12646936D01*
X2138175Y-12646936D02*
X2128651Y-12627888D01*
X2128651Y-12627888D02*
X2119127Y-12589793D01*
X2119127Y-12589793D02*
X2119127Y-12542174D01*
X2119127Y-12542174D02*
X2128651Y-12504079D01*
X2128651Y-12504079D02*
X2138175Y-12485031D01*
X2138175Y-12485031D02*
X2147698Y-12475508D01*
X2147698Y-12475508D02*
X2166746Y-12465984D01*
X2414365Y-12465984D02*
X2319127Y-12465984D01*
X2319127Y-12465984D02*
X2309603Y-12561222D01*
X2309603Y-12561222D02*
X2319127Y-12551698D01*
X2319127Y-12551698D02*
X2338175Y-12542174D01*
X2338175Y-12542174D02*
X2385794Y-12542174D01*
X2385794Y-12542174D02*
X2404841Y-12551698D01*
X2404841Y-12551698D02*
X2414365Y-12561222D01*
X2414365Y-12561222D02*
X2423889Y-12580269D01*
X2423889Y-12580269D02*
X2423889Y-12627888D01*
X2423889Y-12627888D02*
X2414365Y-12646936D01*
X2414365Y-12646936D02*
X2404841Y-12656460D01*
X2404841Y-12656460D02*
X2385794Y-12665984D01*
X2385794Y-12665984D02*
X2338175Y-12665984D01*
X2338175Y-12665984D02*
X2319127Y-12656460D01*
X2319127Y-12656460D02*
X2309603Y-12646936D01*
X2519127Y-12665984D02*
X2557222Y-12665984D01*
X2557222Y-12665984D02*
X2576270Y-12656460D01*
X2576270Y-12656460D02*
X2585794Y-12646936D01*
X2585794Y-12646936D02*
X2604841Y-12618365D01*
X2604841Y-12618365D02*
X2614365Y-12580269D01*
X2614365Y-12580269D02*
X2614365Y-12504079D01*
X2614365Y-12504079D02*
X2604841Y-12485031D01*
X2604841Y-12485031D02*
X2595318Y-12475508D01*
X2595318Y-12475508D02*
X2576270Y-12465984D01*
X2576270Y-12465984D02*
X2538175Y-12465984D01*
X2538175Y-12465984D02*
X2519127Y-12475508D01*
X2519127Y-12475508D02*
X2509603Y-12485031D01*
X2509603Y-12485031D02*
X2500079Y-12504079D01*
X2500079Y-12504079D02*
X2500079Y-12551698D01*
X2500079Y-12551698D02*
X2509603Y-12570746D01*
X2509603Y-12570746D02*
X2519127Y-12580269D01*
X2519127Y-12580269D02*
X2538175Y-12589793D01*
X2538175Y-12589793D02*
X2576270Y-12589793D01*
X2576270Y-12589793D02*
X2595318Y-12580269D01*
X2595318Y-12580269D02*
X2604841Y-12570746D01*
X2604841Y-12570746D02*
X2614365Y-12551698D01*
X2804841Y-12665984D02*
X2690556Y-12665984D01*
X2747698Y-12665984D02*
X2747698Y-12465984D01*
X2747698Y-12465984D02*
X2728651Y-12494555D01*
X2728651Y-12494555D02*
X2709603Y-12513603D01*
X2709603Y-12513603D02*
X2690556Y-12523127D01*
X2881032Y-12465984D02*
X2881032Y-12504079D01*
X2957222Y-12465984D02*
X2957222Y-12504079D01*
X3252460Y-12742174D02*
X3242937Y-12732650D01*
X3242937Y-12732650D02*
X3223889Y-12704079D01*
X3223889Y-12704079D02*
X3214365Y-12685031D01*
X3214365Y-12685031D02*
X3204841Y-12656460D01*
X3204841Y-12656460D02*
X3195318Y-12608841D01*
X3195318Y-12608841D02*
X3195318Y-12570746D01*
X3195318Y-12570746D02*
X3204841Y-12523127D01*
X3204841Y-12523127D02*
X3214365Y-12494555D01*
X3214365Y-12494555D02*
X3223889Y-12475508D01*
X3223889Y-12475508D02*
X3242937Y-12446936D01*
X3242937Y-12446936D02*
X3252460Y-12437412D01*
X3433413Y-12665984D02*
X3319127Y-12665984D01*
X3376270Y-12665984D02*
X3376270Y-12465984D01*
X3376270Y-12465984D02*
X3357222Y-12494555D01*
X3357222Y-12494555D02*
X3338175Y-12513603D01*
X3338175Y-12513603D02*
X3319127Y-12523127D01*
X3671508Y-12665984D02*
X3671508Y-12465984D01*
X3757222Y-12665984D02*
X3757222Y-12561222D01*
X3757222Y-12561222D02*
X3747699Y-12542174D01*
X3747699Y-12542174D02*
X3728651Y-12532650D01*
X3728651Y-12532650D02*
X3700079Y-12532650D01*
X3700079Y-12532650D02*
X3681032Y-12542174D01*
X3681032Y-12542174D02*
X3671508Y-12551698D01*
X3881032Y-12665984D02*
X3861984Y-12656460D01*
X3861984Y-12656460D02*
X3852460Y-12646936D01*
X3852460Y-12646936D02*
X3842937Y-12627888D01*
X3842937Y-12627888D02*
X3842937Y-12570746D01*
X3842937Y-12570746D02*
X3852460Y-12551698D01*
X3852460Y-12551698D02*
X3861984Y-12542174D01*
X3861984Y-12542174D02*
X3881032Y-12532650D01*
X3881032Y-12532650D02*
X3909603Y-12532650D01*
X3909603Y-12532650D02*
X3928651Y-12542174D01*
X3928651Y-12542174D02*
X3938175Y-12551698D01*
X3938175Y-12551698D02*
X3947699Y-12570746D01*
X3947699Y-12570746D02*
X3947699Y-12627888D01*
X3947699Y-12627888D02*
X3938175Y-12646936D01*
X3938175Y-12646936D02*
X3928651Y-12656460D01*
X3928651Y-12656460D02*
X3909603Y-12665984D01*
X3909603Y-12665984D02*
X3881032Y-12665984D01*
X4061984Y-12665984D02*
X4042937Y-12656460D01*
X4042937Y-12656460D02*
X4033413Y-12637412D01*
X4033413Y-12637412D02*
X4033413Y-12465984D01*
X4214365Y-12656460D02*
X4195318Y-12665984D01*
X4195318Y-12665984D02*
X4157222Y-12665984D01*
X4157222Y-12665984D02*
X4138175Y-12656460D01*
X4138175Y-12656460D02*
X4128651Y-12637412D01*
X4128651Y-12637412D02*
X4128651Y-12561222D01*
X4128651Y-12561222D02*
X4138175Y-12542174D01*
X4138175Y-12542174D02*
X4157222Y-12532650D01*
X4157222Y-12532650D02*
X4195318Y-12532650D01*
X4195318Y-12532650D02*
X4214365Y-12542174D01*
X4214365Y-12542174D02*
X4223889Y-12561222D01*
X4223889Y-12561222D02*
X4223889Y-12580269D01*
X4223889Y-12580269D02*
X4128651Y-12599317D01*
X4290556Y-12742174D02*
X4300080Y-12732650D01*
X4300080Y-12732650D02*
X4319127Y-12704079D01*
X4319127Y-12704079D02*
X4328651Y-12685031D01*
X4328651Y-12685031D02*
X4338175Y-12656460D01*
X4338175Y-12656460D02*
X4347699Y-12608841D01*
X4347699Y-12608841D02*
X4347699Y-12570746D01*
X4347699Y-12570746D02*
X4338175Y-12523127D01*
X4338175Y-12523127D02*
X4328651Y-12494555D01*
X4328651Y-12494555D02*
X4319127Y-12475508D01*
X4319127Y-12475508D02*
X4300080Y-12446936D01*
X4300080Y-12446936D02*
X4290556Y-12437412D01*
X4652461Y-12742174D02*
X4642937Y-12732650D01*
X4642937Y-12732650D02*
X4623889Y-12704079D01*
X4623889Y-12704079D02*
X4614365Y-12685031D01*
X4614365Y-12685031D02*
X4604842Y-12656460D01*
X4604842Y-12656460D02*
X4595318Y-12608841D01*
X4595318Y-12608841D02*
X4595318Y-12570746D01*
X4595318Y-12570746D02*
X4604842Y-12523127D01*
X4604842Y-12523127D02*
X4614365Y-12494555D01*
X4614365Y-12494555D02*
X4623889Y-12475508D01*
X4623889Y-12475508D02*
X4642937Y-12446936D01*
X4642937Y-12446936D02*
X4652461Y-12437412D01*
X4728651Y-12532650D02*
X4728651Y-12665984D01*
X4728651Y-12551698D02*
X4738175Y-12542174D01*
X4738175Y-12542174D02*
X4757222Y-12532650D01*
X4757222Y-12532650D02*
X4785794Y-12532650D01*
X4785794Y-12532650D02*
X4804842Y-12542174D01*
X4804842Y-12542174D02*
X4814365Y-12561222D01*
X4814365Y-12561222D02*
X4814365Y-12665984D01*
X4938175Y-12665984D02*
X4919127Y-12656460D01*
X4919127Y-12656460D02*
X4909603Y-12646936D01*
X4909603Y-12646936D02*
X4900080Y-12627888D01*
X4900080Y-12627888D02*
X4900080Y-12570746D01*
X4900080Y-12570746D02*
X4909603Y-12551698D01*
X4909603Y-12551698D02*
X4919127Y-12542174D01*
X4919127Y-12542174D02*
X4938175Y-12532650D01*
X4938175Y-12532650D02*
X4966746Y-12532650D01*
X4966746Y-12532650D02*
X4985794Y-12542174D01*
X4985794Y-12542174D02*
X4995318Y-12551698D01*
X4995318Y-12551698D02*
X5004842Y-12570746D01*
X5004842Y-12570746D02*
X5004842Y-12627888D01*
X5004842Y-12627888D02*
X4995318Y-12646936D01*
X4995318Y-12646936D02*
X4985794Y-12656460D01*
X4985794Y-12656460D02*
X4966746Y-12665984D01*
X4966746Y-12665984D02*
X4938175Y-12665984D01*
X5061984Y-12532650D02*
X5138175Y-12532650D01*
X5090556Y-12465984D02*
X5090556Y-12637412D01*
X5090556Y-12637412D02*
X5100080Y-12656460D01*
X5100080Y-12656460D02*
X5119127Y-12665984D01*
X5119127Y-12665984D02*
X5138175Y-12665984D01*
X5357223Y-12532650D02*
X5357223Y-12732650D01*
X5357223Y-12542174D02*
X5376270Y-12532650D01*
X5376270Y-12532650D02*
X5414365Y-12532650D01*
X5414365Y-12532650D02*
X5433413Y-12542174D01*
X5433413Y-12542174D02*
X5442937Y-12551698D01*
X5442937Y-12551698D02*
X5452461Y-12570746D01*
X5452461Y-12570746D02*
X5452461Y-12627888D01*
X5452461Y-12627888D02*
X5442937Y-12646936D01*
X5442937Y-12646936D02*
X5433413Y-12656460D01*
X5433413Y-12656460D02*
X5414365Y-12665984D01*
X5414365Y-12665984D02*
X5376270Y-12665984D01*
X5376270Y-12665984D02*
X5357223Y-12656460D01*
X5566746Y-12665984D02*
X5547699Y-12656460D01*
X5547699Y-12656460D02*
X5538175Y-12637412D01*
X5538175Y-12637412D02*
X5538175Y-12465984D01*
X5728651Y-12665984D02*
X5728651Y-12561222D01*
X5728651Y-12561222D02*
X5719127Y-12542174D01*
X5719127Y-12542174D02*
X5700080Y-12532650D01*
X5700080Y-12532650D02*
X5661984Y-12532650D01*
X5661984Y-12532650D02*
X5642937Y-12542174D01*
X5728651Y-12656460D02*
X5709603Y-12665984D01*
X5709603Y-12665984D02*
X5661984Y-12665984D01*
X5661984Y-12665984D02*
X5642937Y-12656460D01*
X5642937Y-12656460D02*
X5633413Y-12637412D01*
X5633413Y-12637412D02*
X5633413Y-12618365D01*
X5633413Y-12618365D02*
X5642937Y-12599317D01*
X5642937Y-12599317D02*
X5661984Y-12589793D01*
X5661984Y-12589793D02*
X5709603Y-12589793D01*
X5709603Y-12589793D02*
X5728651Y-12580269D01*
X5795318Y-12532650D02*
X5871508Y-12532650D01*
X5823889Y-12465984D02*
X5823889Y-12637412D01*
X5823889Y-12637412D02*
X5833413Y-12656460D01*
X5833413Y-12656460D02*
X5852461Y-12665984D01*
X5852461Y-12665984D02*
X5871508Y-12665984D01*
X6014365Y-12656460D02*
X5995318Y-12665984D01*
X5995318Y-12665984D02*
X5957222Y-12665984D01*
X5957222Y-12665984D02*
X5938175Y-12656460D01*
X5938175Y-12656460D02*
X5928651Y-12637412D01*
X5928651Y-12637412D02*
X5928651Y-12561222D01*
X5928651Y-12561222D02*
X5938175Y-12542174D01*
X5938175Y-12542174D02*
X5957222Y-12532650D01*
X5957222Y-12532650D02*
X5995318Y-12532650D01*
X5995318Y-12532650D02*
X6014365Y-12542174D01*
X6014365Y-12542174D02*
X6023889Y-12561222D01*
X6023889Y-12561222D02*
X6023889Y-12580269D01*
X6023889Y-12580269D02*
X5928651Y-12599317D01*
X6195318Y-12665984D02*
X6195318Y-12465984D01*
X6195318Y-12656460D02*
X6176270Y-12665984D01*
X6176270Y-12665984D02*
X6138175Y-12665984D01*
X6138175Y-12665984D02*
X6119127Y-12656460D01*
X6119127Y-12656460D02*
X6109603Y-12646936D01*
X6109603Y-12646936D02*
X6100080Y-12627888D01*
X6100080Y-12627888D02*
X6100080Y-12570746D01*
X6100080Y-12570746D02*
X6109603Y-12551698D01*
X6109603Y-12551698D02*
X6119127Y-12542174D01*
X6119127Y-12542174D02*
X6138175Y-12532650D01*
X6138175Y-12532650D02*
X6176270Y-12532650D01*
X6176270Y-12532650D02*
X6195318Y-12542174D01*
X6271508Y-12742174D02*
X6281032Y-12732650D01*
X6281032Y-12732650D02*
X6300080Y-12704079D01*
X6300080Y-12704079D02*
X6309603Y-12685031D01*
X6309603Y-12685031D02*
X6319127Y-12656460D01*
X6319127Y-12656460D02*
X6328651Y-12608841D01*
X6328651Y-12608841D02*
X6328651Y-12570746D01*
X6328651Y-12570746D02*
X6319127Y-12523127D01*
X6319127Y-12523127D02*
X6309603Y-12494555D01*
X6309603Y-12494555D02*
X6300080Y-12475508D01*
X6300080Y-12475508D02*
X6281032Y-12446936D01*
X6281032Y-12446936D02*
X6271508Y-12437412D01*
X-422602Y-12944500D02*
X-322602Y-12844500D01*
X-422602Y-12744500D01*
X-522602Y-12844500D01*
X-422602Y-12944500D01*
X-80873Y-12735984D02*
X42936Y-12735984D01*
X42936Y-12735984D02*
X-23730Y-12812174D01*
X-23730Y-12812174D02*
X4841Y-12812174D01*
X4841Y-12812174D02*
X23889Y-12821698D01*
X23889Y-12821698D02*
X33413Y-12831222D01*
X33413Y-12831222D02*
X42936Y-12850269D01*
X42936Y-12850269D02*
X42936Y-12897888D01*
X42936Y-12897888D02*
X33413Y-12916936D01*
X33413Y-12916936D02*
X23889Y-12926460D01*
X23889Y-12926460D02*
X4841Y-12935984D01*
X4841Y-12935984D02*
X-52302Y-12935984D01*
X-52302Y-12935984D02*
X-71349Y-12926460D01*
X-71349Y-12926460D02*
X-80873Y-12916936D01*
X128651Y-12916936D02*
X138174Y-12926460D01*
X138174Y-12926460D02*
X128651Y-12935984D01*
X128651Y-12935984D02*
X119127Y-12926460D01*
X119127Y-12926460D02*
X128651Y-12916936D01*
X128651Y-12916936D02*
X128651Y-12935984D01*
X214365Y-12755031D02*
X223889Y-12745508D01*
X223889Y-12745508D02*
X242936Y-12735984D01*
X242936Y-12735984D02*
X290555Y-12735984D01*
X290555Y-12735984D02*
X309603Y-12745508D01*
X309603Y-12745508D02*
X319127Y-12755031D01*
X319127Y-12755031D02*
X328651Y-12774079D01*
X328651Y-12774079D02*
X328651Y-12793127D01*
X328651Y-12793127D02*
X319127Y-12821698D01*
X319127Y-12821698D02*
X204841Y-12935984D01*
X204841Y-12935984D02*
X328651Y-12935984D01*
X452460Y-12735984D02*
X471508Y-12735984D01*
X471508Y-12735984D02*
X490555Y-12745508D01*
X490555Y-12745508D02*
X500079Y-12755031D01*
X500079Y-12755031D02*
X509603Y-12774079D01*
X509603Y-12774079D02*
X519127Y-12812174D01*
X519127Y-12812174D02*
X519127Y-12859793D01*
X519127Y-12859793D02*
X509603Y-12897888D01*
X509603Y-12897888D02*
X500079Y-12916936D01*
X500079Y-12916936D02*
X490555Y-12926460D01*
X490555Y-12926460D02*
X471508Y-12935984D01*
X471508Y-12935984D02*
X452460Y-12935984D01*
X452460Y-12935984D02*
X433412Y-12926460D01*
X433412Y-12926460D02*
X423889Y-12916936D01*
X423889Y-12916936D02*
X414365Y-12897888D01*
X414365Y-12897888D02*
X404841Y-12859793D01*
X404841Y-12859793D02*
X404841Y-12812174D01*
X404841Y-12812174D02*
X414365Y-12774079D01*
X414365Y-12774079D02*
X423889Y-12755031D01*
X423889Y-12755031D02*
X433412Y-12745508D01*
X433412Y-12745508D02*
X452460Y-12735984D01*
X642936Y-12735984D02*
X661984Y-12735984D01*
X661984Y-12735984D02*
X681032Y-12745508D01*
X681032Y-12745508D02*
X690555Y-12755031D01*
X690555Y-12755031D02*
X700079Y-12774079D01*
X700079Y-12774079D02*
X709603Y-12812174D01*
X709603Y-12812174D02*
X709603Y-12859793D01*
X709603Y-12859793D02*
X700079Y-12897888D01*
X700079Y-12897888D02*
X690555Y-12916936D01*
X690555Y-12916936D02*
X681032Y-12926460D01*
X681032Y-12926460D02*
X661984Y-12935984D01*
X661984Y-12935984D02*
X642936Y-12935984D01*
X642936Y-12935984D02*
X623889Y-12926460D01*
X623889Y-12926460D02*
X614365Y-12916936D01*
X614365Y-12916936D02*
X604841Y-12897888D01*
X604841Y-12897888D02*
X595317Y-12859793D01*
X595317Y-12859793D02*
X595317Y-12812174D01*
X595317Y-12812174D02*
X604841Y-12774079D01*
X604841Y-12774079D02*
X614365Y-12755031D01*
X614365Y-12755031D02*
X623889Y-12745508D01*
X623889Y-12745508D02*
X642936Y-12735984D01*
X795317Y-12935984D02*
X795317Y-12802650D01*
X795317Y-12821698D02*
X804841Y-12812174D01*
X804841Y-12812174D02*
X823889Y-12802650D01*
X823889Y-12802650D02*
X852460Y-12802650D01*
X852460Y-12802650D02*
X871508Y-12812174D01*
X871508Y-12812174D02*
X881032Y-12831222D01*
X881032Y-12831222D02*
X881032Y-12935984D01*
X881032Y-12831222D02*
X890555Y-12812174D01*
X890555Y-12812174D02*
X909603Y-12802650D01*
X909603Y-12802650D02*
X938174Y-12802650D01*
X938174Y-12802650D02*
X957222Y-12812174D01*
X957222Y-12812174D02*
X966746Y-12831222D01*
X966746Y-12831222D02*
X966746Y-12935984D01*
X1061984Y-12935984D02*
X1061984Y-12802650D01*
X1061984Y-12821698D02*
X1071508Y-12812174D01*
X1071508Y-12812174D02*
X1090555Y-12802650D01*
X1090555Y-12802650D02*
X1119127Y-12802650D01*
X1119127Y-12802650D02*
X1138175Y-12812174D01*
X1138175Y-12812174D02*
X1147698Y-12831222D01*
X1147698Y-12831222D02*
X1147698Y-12935984D01*
X1147698Y-12831222D02*
X1157222Y-12812174D01*
X1157222Y-12812174D02*
X1176270Y-12802650D01*
X1176270Y-12802650D02*
X1204841Y-12802650D01*
X1204841Y-12802650D02*
X1223889Y-12812174D01*
X1223889Y-12812174D02*
X1233413Y-12831222D01*
X1233413Y-12831222D02*
X1233413Y-12935984D01*
X1623889Y-12726460D02*
X1452460Y-12983603D01*
X1881032Y-12735984D02*
X1900079Y-12735984D01*
X1900079Y-12735984D02*
X1919127Y-12745508D01*
X1919127Y-12745508D02*
X1928651Y-12755031D01*
X1928651Y-12755031D02*
X1938175Y-12774079D01*
X1938175Y-12774079D02*
X1947698Y-12812174D01*
X1947698Y-12812174D02*
X1947698Y-12859793D01*
X1947698Y-12859793D02*
X1938175Y-12897888D01*
X1938175Y-12897888D02*
X1928651Y-12916936D01*
X1928651Y-12916936D02*
X1919127Y-12926460D01*
X1919127Y-12926460D02*
X1900079Y-12935984D01*
X1900079Y-12935984D02*
X1881032Y-12935984D01*
X1881032Y-12935984D02*
X1861984Y-12926460D01*
X1861984Y-12926460D02*
X1852460Y-12916936D01*
X1852460Y-12916936D02*
X1842936Y-12897888D01*
X1842936Y-12897888D02*
X1833413Y-12859793D01*
X1833413Y-12859793D02*
X1833413Y-12812174D01*
X1833413Y-12812174D02*
X1842936Y-12774079D01*
X1842936Y-12774079D02*
X1852460Y-12755031D01*
X1852460Y-12755031D02*
X1861984Y-12745508D01*
X1861984Y-12745508D02*
X1881032Y-12735984D01*
X2033413Y-12916936D02*
X2042936Y-12926460D01*
X2042936Y-12926460D02*
X2033413Y-12935984D01*
X2033413Y-12935984D02*
X2023889Y-12926460D01*
X2023889Y-12926460D02*
X2033413Y-12916936D01*
X2033413Y-12916936D02*
X2033413Y-12935984D01*
X2233413Y-12935984D02*
X2119127Y-12935984D01*
X2176270Y-12935984D02*
X2176270Y-12735984D01*
X2176270Y-12735984D02*
X2157222Y-12764555D01*
X2157222Y-12764555D02*
X2138175Y-12783603D01*
X2138175Y-12783603D02*
X2119127Y-12793127D01*
X2309603Y-12755031D02*
X2319127Y-12745508D01*
X2319127Y-12745508D02*
X2338175Y-12735984D01*
X2338175Y-12735984D02*
X2385794Y-12735984D01*
X2385794Y-12735984D02*
X2404841Y-12745508D01*
X2404841Y-12745508D02*
X2414365Y-12755031D01*
X2414365Y-12755031D02*
X2423889Y-12774079D01*
X2423889Y-12774079D02*
X2423889Y-12793127D01*
X2423889Y-12793127D02*
X2414365Y-12821698D01*
X2414365Y-12821698D02*
X2300079Y-12935984D01*
X2300079Y-12935984D02*
X2423889Y-12935984D01*
X2595318Y-12735984D02*
X2557222Y-12735984D01*
X2557222Y-12735984D02*
X2538175Y-12745508D01*
X2538175Y-12745508D02*
X2528651Y-12755031D01*
X2528651Y-12755031D02*
X2509603Y-12783603D01*
X2509603Y-12783603D02*
X2500079Y-12821698D01*
X2500079Y-12821698D02*
X2500079Y-12897888D01*
X2500079Y-12897888D02*
X2509603Y-12916936D01*
X2509603Y-12916936D02*
X2519127Y-12926460D01*
X2519127Y-12926460D02*
X2538175Y-12935984D01*
X2538175Y-12935984D02*
X2576270Y-12935984D01*
X2576270Y-12935984D02*
X2595318Y-12926460D01*
X2595318Y-12926460D02*
X2604841Y-12916936D01*
X2604841Y-12916936D02*
X2614365Y-12897888D01*
X2614365Y-12897888D02*
X2614365Y-12850269D01*
X2614365Y-12850269D02*
X2604841Y-12831222D01*
X2604841Y-12831222D02*
X2595318Y-12821698D01*
X2595318Y-12821698D02*
X2576270Y-12812174D01*
X2576270Y-12812174D02*
X2538175Y-12812174D01*
X2538175Y-12812174D02*
X2519127Y-12821698D01*
X2519127Y-12821698D02*
X2509603Y-12831222D01*
X2509603Y-12831222D02*
X2500079Y-12850269D01*
X2738175Y-12735984D02*
X2757222Y-12735984D01*
X2757222Y-12735984D02*
X2776270Y-12745508D01*
X2776270Y-12745508D02*
X2785794Y-12755031D01*
X2785794Y-12755031D02*
X2795318Y-12774079D01*
X2795318Y-12774079D02*
X2804841Y-12812174D01*
X2804841Y-12812174D02*
X2804841Y-12859793D01*
X2804841Y-12859793D02*
X2795318Y-12897888D01*
X2795318Y-12897888D02*
X2785794Y-12916936D01*
X2785794Y-12916936D02*
X2776270Y-12926460D01*
X2776270Y-12926460D02*
X2757222Y-12935984D01*
X2757222Y-12935984D02*
X2738175Y-12935984D01*
X2738175Y-12935984D02*
X2719127Y-12926460D01*
X2719127Y-12926460D02*
X2709603Y-12916936D01*
X2709603Y-12916936D02*
X2700079Y-12897888D01*
X2700079Y-12897888D02*
X2690556Y-12859793D01*
X2690556Y-12859793D02*
X2690556Y-12812174D01*
X2690556Y-12812174D02*
X2700079Y-12774079D01*
X2700079Y-12774079D02*
X2709603Y-12755031D01*
X2709603Y-12755031D02*
X2719127Y-12745508D01*
X2719127Y-12745508D02*
X2738175Y-12735984D01*
X2881032Y-12735984D02*
X2881032Y-12774079D01*
X2957222Y-12735984D02*
X2957222Y-12774079D01*
X3252460Y-13012174D02*
X3242937Y-13002650D01*
X3242937Y-13002650D02*
X3223889Y-12974079D01*
X3223889Y-12974079D02*
X3214365Y-12955031D01*
X3214365Y-12955031D02*
X3204841Y-12926460D01*
X3204841Y-12926460D02*
X3195318Y-12878841D01*
X3195318Y-12878841D02*
X3195318Y-12840746D01*
X3195318Y-12840746D02*
X3204841Y-12793127D01*
X3204841Y-12793127D02*
X3214365Y-12764555D01*
X3214365Y-12764555D02*
X3223889Y-12745508D01*
X3223889Y-12745508D02*
X3242937Y-12716936D01*
X3242937Y-12716936D02*
X3252460Y-12707412D01*
X3319127Y-12755031D02*
X3328651Y-12745508D01*
X3328651Y-12745508D02*
X3347698Y-12735984D01*
X3347698Y-12735984D02*
X3395318Y-12735984D01*
X3395318Y-12735984D02*
X3414365Y-12745508D01*
X3414365Y-12745508D02*
X3423889Y-12755031D01*
X3423889Y-12755031D02*
X3433413Y-12774079D01*
X3433413Y-12774079D02*
X3433413Y-12793127D01*
X3433413Y-12793127D02*
X3423889Y-12821698D01*
X3423889Y-12821698D02*
X3309603Y-12935984D01*
X3309603Y-12935984D02*
X3433413Y-12935984D01*
X3671508Y-12935984D02*
X3671508Y-12735984D01*
X3757222Y-12935984D02*
X3757222Y-12831222D01*
X3757222Y-12831222D02*
X3747699Y-12812174D01*
X3747699Y-12812174D02*
X3728651Y-12802650D01*
X3728651Y-12802650D02*
X3700079Y-12802650D01*
X3700079Y-12802650D02*
X3681032Y-12812174D01*
X3681032Y-12812174D02*
X3671508Y-12821698D01*
X3881032Y-12935984D02*
X3861984Y-12926460D01*
X3861984Y-12926460D02*
X3852460Y-12916936D01*
X3852460Y-12916936D02*
X3842937Y-12897888D01*
X3842937Y-12897888D02*
X3842937Y-12840746D01*
X3842937Y-12840746D02*
X3852460Y-12821698D01*
X3852460Y-12821698D02*
X3861984Y-12812174D01*
X3861984Y-12812174D02*
X3881032Y-12802650D01*
X3881032Y-12802650D02*
X3909603Y-12802650D01*
X3909603Y-12802650D02*
X3928651Y-12812174D01*
X3928651Y-12812174D02*
X3938175Y-12821698D01*
X3938175Y-12821698D02*
X3947699Y-12840746D01*
X3947699Y-12840746D02*
X3947699Y-12897888D01*
X3947699Y-12897888D02*
X3938175Y-12916936D01*
X3938175Y-12916936D02*
X3928651Y-12926460D01*
X3928651Y-12926460D02*
X3909603Y-12935984D01*
X3909603Y-12935984D02*
X3881032Y-12935984D01*
X4061984Y-12935984D02*
X4042937Y-12926460D01*
X4042937Y-12926460D02*
X4033413Y-12907412D01*
X4033413Y-12907412D02*
X4033413Y-12735984D01*
X4214365Y-12926460D02*
X4195318Y-12935984D01*
X4195318Y-12935984D02*
X4157222Y-12935984D01*
X4157222Y-12935984D02*
X4138175Y-12926460D01*
X4138175Y-12926460D02*
X4128651Y-12907412D01*
X4128651Y-12907412D02*
X4128651Y-12831222D01*
X4128651Y-12831222D02*
X4138175Y-12812174D01*
X4138175Y-12812174D02*
X4157222Y-12802650D01*
X4157222Y-12802650D02*
X4195318Y-12802650D01*
X4195318Y-12802650D02*
X4214365Y-12812174D01*
X4214365Y-12812174D02*
X4223889Y-12831222D01*
X4223889Y-12831222D02*
X4223889Y-12850269D01*
X4223889Y-12850269D02*
X4128651Y-12869317D01*
X4300080Y-12926460D02*
X4319127Y-12935984D01*
X4319127Y-12935984D02*
X4357222Y-12935984D01*
X4357222Y-12935984D02*
X4376270Y-12926460D01*
X4376270Y-12926460D02*
X4385794Y-12907412D01*
X4385794Y-12907412D02*
X4385794Y-12897888D01*
X4385794Y-12897888D02*
X4376270Y-12878841D01*
X4376270Y-12878841D02*
X4357222Y-12869317D01*
X4357222Y-12869317D02*
X4328651Y-12869317D01*
X4328651Y-12869317D02*
X4309603Y-12859793D01*
X4309603Y-12859793D02*
X4300080Y-12840746D01*
X4300080Y-12840746D02*
X4300080Y-12831222D01*
X4300080Y-12831222D02*
X4309603Y-12812174D01*
X4309603Y-12812174D02*
X4328651Y-12802650D01*
X4328651Y-12802650D02*
X4357222Y-12802650D01*
X4357222Y-12802650D02*
X4376270Y-12812174D01*
X4452461Y-13012174D02*
X4461984Y-13002650D01*
X4461984Y-13002650D02*
X4481032Y-12974079D01*
X4481032Y-12974079D02*
X4490556Y-12955031D01*
X4490556Y-12955031D02*
X4500080Y-12926460D01*
X4500080Y-12926460D02*
X4509603Y-12878841D01*
X4509603Y-12878841D02*
X4509603Y-12840746D01*
X4509603Y-12840746D02*
X4500080Y-12793127D01*
X4500080Y-12793127D02*
X4490556Y-12764555D01*
X4490556Y-12764555D02*
X4481032Y-12745508D01*
X4481032Y-12745508D02*
X4461984Y-12716936D01*
X4461984Y-12716936D02*
X4452461Y-12707412D01*
X4814365Y-13012174D02*
X4804842Y-13002650D01*
X4804842Y-13002650D02*
X4785794Y-12974079D01*
X4785794Y-12974079D02*
X4776270Y-12955031D01*
X4776270Y-12955031D02*
X4766746Y-12926460D01*
X4766746Y-12926460D02*
X4757223Y-12878841D01*
X4757223Y-12878841D02*
X4757223Y-12840746D01*
X4757223Y-12840746D02*
X4766746Y-12793127D01*
X4766746Y-12793127D02*
X4776270Y-12764555D01*
X4776270Y-12764555D02*
X4785794Y-12745508D01*
X4785794Y-12745508D02*
X4804842Y-12716936D01*
X4804842Y-12716936D02*
X4814365Y-12707412D01*
X4890556Y-12802650D02*
X4890556Y-12935984D01*
X4890556Y-12821698D02*
X4900080Y-12812174D01*
X4900080Y-12812174D02*
X4919127Y-12802650D01*
X4919127Y-12802650D02*
X4947699Y-12802650D01*
X4947699Y-12802650D02*
X4966746Y-12812174D01*
X4966746Y-12812174D02*
X4976270Y-12831222D01*
X4976270Y-12831222D02*
X4976270Y-12935984D01*
X5100080Y-12935984D02*
X5081032Y-12926460D01*
X5081032Y-12926460D02*
X5071508Y-12916936D01*
X5071508Y-12916936D02*
X5061984Y-12897888D01*
X5061984Y-12897888D02*
X5061984Y-12840746D01*
X5061984Y-12840746D02*
X5071508Y-12821698D01*
X5071508Y-12821698D02*
X5081032Y-12812174D01*
X5081032Y-12812174D02*
X5100080Y-12802650D01*
X5100080Y-12802650D02*
X5128651Y-12802650D01*
X5128651Y-12802650D02*
X5147699Y-12812174D01*
X5147699Y-12812174D02*
X5157223Y-12821698D01*
X5157223Y-12821698D02*
X5166746Y-12840746D01*
X5166746Y-12840746D02*
X5166746Y-12897888D01*
X5166746Y-12897888D02*
X5157223Y-12916936D01*
X5157223Y-12916936D02*
X5147699Y-12926460D01*
X5147699Y-12926460D02*
X5128651Y-12935984D01*
X5128651Y-12935984D02*
X5100080Y-12935984D01*
X5223889Y-12802650D02*
X5300080Y-12802650D01*
X5252461Y-12735984D02*
X5252461Y-12907412D01*
X5252461Y-12907412D02*
X5261984Y-12926460D01*
X5261984Y-12926460D02*
X5281032Y-12935984D01*
X5281032Y-12935984D02*
X5300080Y-12935984D01*
X5519127Y-12802650D02*
X5519127Y-13002650D01*
X5519127Y-12812174D02*
X5538175Y-12802650D01*
X5538175Y-12802650D02*
X5576270Y-12802650D01*
X5576270Y-12802650D02*
X5595318Y-12812174D01*
X5595318Y-12812174D02*
X5604842Y-12821698D01*
X5604842Y-12821698D02*
X5614365Y-12840746D01*
X5614365Y-12840746D02*
X5614365Y-12897888D01*
X5614365Y-12897888D02*
X5604842Y-12916936D01*
X5604842Y-12916936D02*
X5595318Y-12926460D01*
X5595318Y-12926460D02*
X5576270Y-12935984D01*
X5576270Y-12935984D02*
X5538175Y-12935984D01*
X5538175Y-12935984D02*
X5519127Y-12926460D01*
X5728651Y-12935984D02*
X5709603Y-12926460D01*
X5709603Y-12926460D02*
X5700080Y-12907412D01*
X5700080Y-12907412D02*
X5700080Y-12735984D01*
X5890556Y-12935984D02*
X5890556Y-12831222D01*
X5890556Y-12831222D02*
X5881032Y-12812174D01*
X5881032Y-12812174D02*
X5861984Y-12802650D01*
X5861984Y-12802650D02*
X5823889Y-12802650D01*
X5823889Y-12802650D02*
X5804842Y-12812174D01*
X5890556Y-12926460D02*
X5871508Y-12935984D01*
X5871508Y-12935984D02*
X5823889Y-12935984D01*
X5823889Y-12935984D02*
X5804842Y-12926460D01*
X5804842Y-12926460D02*
X5795318Y-12907412D01*
X5795318Y-12907412D02*
X5795318Y-12888365D01*
X5795318Y-12888365D02*
X5804842Y-12869317D01*
X5804842Y-12869317D02*
X5823889Y-12859793D01*
X5823889Y-12859793D02*
X5871508Y-12859793D01*
X5871508Y-12859793D02*
X5890556Y-12850269D01*
X5957223Y-12802650D02*
X6033413Y-12802650D01*
X5985794Y-12735984D02*
X5985794Y-12907412D01*
X5985794Y-12907412D02*
X5995318Y-12926460D01*
X5995318Y-12926460D02*
X6014365Y-12935984D01*
X6014365Y-12935984D02*
X6033413Y-12935984D01*
X6176270Y-12926460D02*
X6157223Y-12935984D01*
X6157223Y-12935984D02*
X6119127Y-12935984D01*
X6119127Y-12935984D02*
X6100080Y-12926460D01*
X6100080Y-12926460D02*
X6090556Y-12907412D01*
X6090556Y-12907412D02*
X6090556Y-12831222D01*
X6090556Y-12831222D02*
X6100080Y-12812174D01*
X6100080Y-12812174D02*
X6119127Y-12802650D01*
X6119127Y-12802650D02*
X6157223Y-12802650D01*
X6157223Y-12802650D02*
X6176270Y-12812174D01*
X6176270Y-12812174D02*
X6185794Y-12831222D01*
X6185794Y-12831222D02*
X6185794Y-12850269D01*
X6185794Y-12850269D02*
X6090556Y-12869317D01*
X6357223Y-12935984D02*
X6357223Y-12735984D01*
X6357223Y-12926460D02*
X6338175Y-12935984D01*
X6338175Y-12935984D02*
X6300080Y-12935984D01*
X6300080Y-12935984D02*
X6281032Y-12926460D01*
X6281032Y-12926460D02*
X6271508Y-12916936D01*
X6271508Y-12916936D02*
X6261984Y-12897888D01*
X6261984Y-12897888D02*
X6261984Y-12840746D01*
X6261984Y-12840746D02*
X6271508Y-12821698D01*
X6271508Y-12821698D02*
X6281032Y-12812174D01*
X6281032Y-12812174D02*
X6300080Y-12802650D01*
X6300080Y-12802650D02*
X6338175Y-12802650D01*
X6338175Y-12802650D02*
X6357223Y-12812174D01*
X6433413Y-13012174D02*
X6442937Y-13002650D01*
X6442937Y-13002650D02*
X6461984Y-12974079D01*
X6461984Y-12974079D02*
X6471508Y-12955031D01*
X6471508Y-12955031D02*
X6481032Y-12926460D01*
X6481032Y-12926460D02*
X6490556Y-12878841D01*
X6490556Y-12878841D02*
X6490556Y-12840746D01*
X6490556Y-12840746D02*
X6481032Y-12793127D01*
X6481032Y-12793127D02*
X6471508Y-12764555D01*
X6471508Y-12764555D02*
X6461984Y-12745508D01*
X6461984Y-12745508D02*
X6442937Y-12716936D01*
X6442937Y-12716936D02*
X6433413Y-12707412D01*
M02*
