G04 #@! TF.GenerationSoftware,KiCad,Pcbnew,9.0.5*
G04 #@! TF.CreationDate,2025-11-14T15:11:00-08:00*
G04 #@! TF.ProjectId,SYCL Badge 2024,5359434c-2042-4616-9467-652032303234,rev?*
G04 #@! TF.SameCoordinates,Original*
G04 #@! TF.FileFunction,Copper,L2,Inr*
G04 #@! TF.FilePolarity,Positive*
%FSLAX46Y46*%
G04 Gerber Fmt 4.6, Leading zero omitted, Abs format (unit mm)*
G04 Created by KiCad (PCBNEW 9.0.5) date 2025-11-14 15:11:00*
%MOMM*%
%LPD*%
G01*
G04 APERTURE LIST*
G04 #@! TA.AperFunction,ComponentPad*
%ADD10C,2.000000*%
G04 #@! TD*
G04 #@! TA.AperFunction,ComponentPad*
%ADD11R,1.700000X1.700000*%
G04 #@! TD*
G04 #@! TA.AperFunction,ComponentPad*
%ADD12C,1.700000*%
G04 #@! TD*
G04 #@! TA.AperFunction,ComponentPad*
%ADD13O,1.168400X2.159000*%
G04 #@! TD*
G04 #@! TA.AperFunction,ComponentPad*
%ADD14O,1.168400X2.667000*%
G04 #@! TD*
G04 #@! TA.AperFunction,ViaPad*
%ADD15C,0.600000*%
G04 #@! TD*
G04 #@! TA.AperFunction,Conductor*
%ADD16C,0.250000*%
G04 #@! TD*
G04 #@! TA.AperFunction,Conductor*
%ADD17C,0.600000*%
G04 #@! TD*
G04 APERTURE END LIST*
D10*
G04 #@! TO.N,/BUTTON8*
G04 #@! TO.C,TP22*
X6800000Y-78650000D03*
G04 #@! TD*
G04 #@! TO.N,/QSPI_CS*
G04 #@! TO.C,TP29*
X85350000Y-79900000D03*
G04 #@! TD*
G04 #@! TO.N,/QSPI_SCK*
G04 #@! TO.C,TP24*
X78050000Y-75400000D03*
G04 #@! TD*
G04 #@! TO.N,/SWCLK*
G04 #@! TO.C,TP5*
X35600000Y-87400000D03*
G04 #@! TD*
D11*
G04 #@! TO.N,GND*
G04 #@! TO.C,J4*
X81750000Y-68420000D03*
D12*
G04 #@! TO.N,+3V3*
X81750000Y-70960000D03*
X81750000Y-73500000D03*
G04 #@! TO.N,/~{LCD_CS}*
X81750000Y-76040000D03*
G04 #@! TO.N,/~{RESET}*
X81750000Y-78580000D03*
G04 #@! TO.N,/LCD_SDIO*
X81750000Y-81120000D03*
G04 #@! TO.N,GND*
X81750000Y-83660000D03*
G04 #@! TO.N,/LCD_D{slash}CX*
X81750000Y-86200000D03*
G04 #@! TO.N,/LCD_SCL*
X81750000Y-88740000D03*
G04 #@! TO.N,/SP14W*
X81750000Y-91280000D03*
G04 #@! TO.N,GND*
X81750000Y-93820000D03*
G04 #@! TO.N,/TE*
X81750000Y-96360000D03*
G04 #@! TO.N,+3V3*
X81750000Y-98900000D03*
G04 #@! TO.N,/LED_K1*
X81750000Y-101440000D03*
G04 #@! TO.N,/LED_K2*
X81750000Y-103980000D03*
G04 #@! TD*
D10*
G04 #@! TO.N,/BUTTON2*
G04 #@! TO.C,TP13*
X93650000Y-85200000D03*
G04 #@! TD*
G04 #@! TO.N,/BUTTON3*
G04 #@! TO.C,TP18*
X72225000Y-88950000D03*
G04 #@! TD*
G04 #@! TO.N,/D8_NEOPIX*
G04 #@! TO.C,TP16*
X67500000Y-106950000D03*
G04 #@! TD*
G04 #@! TO.N,/BKLT_PWM*
G04 #@! TO.C,TP15*
X53975000Y-99900000D03*
G04 #@! TD*
G04 #@! TO.N,/BUTTON6*
G04 #@! TO.C,TP21*
X8950000Y-76550000D03*
G04 #@! TD*
G04 #@! TO.N,/XIN*
G04 #@! TO.C,TP11*
X50800000Y-98750000D03*
G04 #@! TD*
G04 #@! TO.N,/A7_LIGHT*
G04 #@! TO.C,TP10*
X58350000Y-54350000D03*
G04 #@! TD*
G04 #@! TO.N,+3V3*
G04 #@! TO.C,TP4*
X46350000Y-67200000D03*
G04 #@! TD*
G04 #@! TO.N,/~{RESET}*
G04 #@! TO.C,TP7*
X35050000Y-76200000D03*
G04 #@! TD*
G04 #@! TO.N,/SWO*
G04 #@! TO.C,TP6*
X38750000Y-89350000D03*
G04 #@! TD*
G04 #@! TO.N,/BUTTON0*
G04 #@! TO.C,TP17*
X8550000Y-62000000D03*
G04 #@! TD*
G04 #@! TO.N,+1V1*
G04 #@! TO.C,TP3*
X51650000Y-70200000D03*
G04 #@! TD*
G04 #@! TO.N,VBUS*
G04 #@! TO.C,TP12*
X54050000Y-65950000D03*
G04 #@! TD*
G04 #@! TO.N,/BUTTON5*
G04 #@! TO.C,TP14*
X22050000Y-93850000D03*
G04 #@! TD*
G04 #@! TO.N,/BUTTON1*
G04 #@! TO.C,TP19*
X87750000Y-62400000D03*
G04 #@! TD*
G04 #@! TO.N,/BUTTON4*
G04 #@! TO.C,TP20*
X11350000Y-74650000D03*
G04 #@! TD*
G04 #@! TO.N,/SWDIO*
G04 #@! TO.C,TP8*
X30700000Y-86000000D03*
G04 #@! TD*
G04 #@! TO.N,GND*
G04 #@! TO.C,TP2*
X20250000Y-54900000D03*
G04 #@! TD*
G04 #@! TO.N,/XOUT*
G04 #@! TO.C,TP9*
X45650000Y-98950000D03*
G04 #@! TD*
G04 #@! TO.N,/BUTTON7*
G04 #@! TO.C,TP23*
X26600000Y-89900000D03*
G04 #@! TD*
G04 #@! TO.N,V+*
G04 #@! TO.C,TP1*
X44425000Y-57500000D03*
G04 #@! TD*
D13*
G04 #@! TO.N,GND*
G04 #@! TO.C,J5*
X71734048Y-60002750D03*
X80374052Y-60002750D03*
D14*
X71734048Y-54642750D03*
X80374052Y-54642750D03*
G04 #@! TD*
D15*
G04 #@! TO.N,GND*
X48940000Y-92110000D03*
X44225000Y-75550000D03*
X54490000Y-67640000D03*
X44200000Y-84950000D03*
X65400000Y-58900000D03*
X65100000Y-64030000D03*
X55200000Y-98000000D03*
X38625000Y-67050000D03*
X58730000Y-69697246D03*
X51200000Y-61700000D03*
X42300000Y-93370000D03*
X27700000Y-109300000D03*
X72900000Y-58300000D03*
X68000000Y-88400000D03*
X54100000Y-64200000D03*
X51100000Y-95430000D03*
X48550000Y-71760000D03*
X86375000Y-57475000D03*
X68710000Y-67640000D03*
X72500000Y-79100000D03*
X81775000Y-54650000D03*
X40986243Y-89633757D03*
X63890000Y-97310000D03*
X86375000Y-60500000D03*
X76500000Y-74400000D03*
X51775000Y-109300000D03*
X35600000Y-109400000D03*
X48000000Y-60700000D03*
X38550000Y-99400000D03*
X57775000Y-58400000D03*
X87775000Y-55325000D03*
X40200000Y-61100000D03*
X43850000Y-109287500D03*
X44150000Y-81500000D03*
X79200000Y-58300000D03*
X42090000Y-95600000D03*
X75700000Y-64200000D03*
X44200000Y-66500000D03*
X59725000Y-109300000D03*
X70880000Y-84840000D03*
X42475000Y-58300000D03*
X68948483Y-98686047D03*
X71680000Y-70670000D03*
X48000000Y-58500000D03*
X58175000Y-56500000D03*
G04 #@! TO.N,+3V3*
X90200000Y-95400000D03*
X58234174Y-77050000D03*
X21700000Y-90050000D03*
X90200000Y-84100000D03*
X71310000Y-73050000D03*
X62700000Y-63700000D03*
X53775000Y-81430540D03*
X56000000Y-69200000D03*
X58175000Y-85800000D03*
X47600000Y-63200000D03*
X2900000Y-53400000D03*
X14200000Y-53400000D03*
X90200000Y-72900000D03*
X45900000Y-79800000D03*
X83700000Y-54800000D03*
X57600000Y-70700000D03*
X62525000Y-81410693D03*
X56800000Y-69900000D03*
X91800000Y-54800000D03*
X67800000Y-73250000D03*
X47600000Y-65400000D03*
X47600000Y-64600000D03*
G04 #@! TO.N,VBUS*
X61000000Y-60100000D03*
X73400000Y-62100000D03*
X76800000Y-64250000D03*
X77550000Y-61700000D03*
X74800000Y-58050000D03*
G04 #@! TO.N,V+*
X48000000Y-59700000D03*
X33000000Y-105850000D03*
X48950000Y-105800000D03*
X64900000Y-105800000D03*
X56925000Y-105800000D03*
X41000000Y-105800000D03*
G04 #@! TO.N,/BUTTON6*
X49025000Y-77450000D03*
X35775000Y-70450000D03*
X11725000Y-79500000D03*
G04 #@! TO.N,/BUTTON7*
X53375000Y-90000000D03*
X24325000Y-87650000D03*
X37925000Y-95150000D03*
G04 #@! TO.N,/~{RESET}*
X46400000Y-84500000D03*
X77975000Y-78750000D03*
G04 #@! TO.N,/BUTTON2*
X95975000Y-78500000D03*
G04 #@! TO.N,/BUTTON4*
X35775000Y-69300000D03*
X13875000Y-77400000D03*
X48375000Y-75750000D03*
G04 #@! TO.N,/BUTTON5*
X35825000Y-97200000D03*
X20175000Y-91950000D03*
X54025000Y-90650000D03*
G04 #@! TO.N,/BUTTON0*
X8500000Y-59650000D03*
G04 #@! TO.N,/BUTTON1*
X87750000Y-59700000D03*
G04 #@! TO.N,/BUTTON3*
X83975000Y-89850000D03*
G04 #@! TO.N,/SWDIO*
X36125000Y-80850000D03*
X49150000Y-86200000D03*
G04 #@! TO.N,/SWCLK*
X36125000Y-82050000D03*
X40925000Y-76200000D03*
X49800000Y-87500000D03*
G04 #@! TO.N,/D8_NEOPIX*
X66925000Y-101050000D03*
G04 #@! TO.N,+BATT*
X56100000Y-58600000D03*
X38575000Y-58100000D03*
G04 #@! TO.N,/SWO*
X47896325Y-84810000D03*
X36125000Y-83350000D03*
G04 #@! TO.N,/QSPI_CS*
X69550000Y-80750000D03*
G04 #@! TO.N,/D-*
X75800000Y-58050000D03*
X76600000Y-61800000D03*
G04 #@! TO.N,/D+*
X75750000Y-68550000D03*
X75750000Y-67050000D03*
G04 #@! TO.N,/BUTTON8*
X9625000Y-81500000D03*
G04 #@! TO.N,+1V1*
X55475000Y-78450000D03*
X65770000Y-70180000D03*
X59525000Y-77000000D03*
X61225000Y-84250000D03*
X54875000Y-83950000D03*
X65150000Y-70810000D03*
G04 #@! TO.N,Net-(IC2-VREG_PGND)*
X62075000Y-67125000D03*
X60575000Y-68600000D03*
G04 #@! TO.N,/LCD_SCL*
X54975000Y-91600000D03*
G04 #@! TO.N,/LCD_SDIO*
X57475000Y-92200000D03*
G04 #@! TO.N,/~{LCD_CS}*
X59325000Y-93150000D03*
G04 #@! TO.N,/LCD_D{slash}CX*
X55875000Y-92450000D03*
G04 #@! TO.N,/TE*
X55575000Y-95250000D03*
G04 #@! TO.N,Net-(J5-CC1)*
X74815000Y-61480000D03*
X67525000Y-61427701D03*
G04 #@! TD*
D16*
G04 #@! TO.N,/QSPI_CS*
X69550000Y-80750000D02*
X70400000Y-79900000D01*
X70400000Y-79900000D02*
X85350000Y-79900000D01*
D17*
G04 #@! TO.N,+1V1*
X57575000Y-86700000D02*
X58775000Y-86700000D01*
X52925000Y-81000000D02*
X55425000Y-78500000D01*
X59525000Y-77000000D02*
X58675000Y-76150000D01*
X63395000Y-80870000D02*
X59525000Y-77000000D01*
X54875000Y-83950000D02*
X52925000Y-82000000D01*
X63395000Y-82080000D02*
X63395000Y-80870000D01*
X57775000Y-76150000D02*
X55525000Y-78400000D01*
X54875000Y-84000000D02*
X57575000Y-86700000D01*
X58675000Y-76150000D02*
X57775000Y-76150000D01*
X54875000Y-83950000D02*
X54875000Y-84000000D01*
X58775000Y-86700000D02*
X63395000Y-82080000D01*
X52925000Y-82000000D02*
X52925000Y-81000000D01*
G04 #@! TD*
G04 #@! TA.AperFunction,Conductor*
G04 #@! TO.N,+3V3*
G36*
X92361980Y-52902383D02*
G01*
X92421480Y-52914218D01*
X92466175Y-52932730D01*
X92506272Y-52959522D01*
X92512164Y-52965414D01*
X92516896Y-52967474D01*
X92540476Y-52993726D01*
X92567267Y-53033822D01*
X92585781Y-53078517D01*
X92589542Y-53097427D01*
X92597617Y-53138019D01*
X92600000Y-53162210D01*
X92600000Y-58883922D01*
X92599949Y-58887477D01*
X92599692Y-58896438D01*
X92599287Y-58903502D01*
X92598519Y-58912437D01*
X92598165Y-58915968D01*
X90900000Y-73699991D01*
X90900000Y-99637789D01*
X90897617Y-99661982D01*
X90885781Y-99721482D01*
X90867267Y-99766179D01*
X90840481Y-99806268D01*
X90806269Y-99840479D01*
X90771975Y-99863394D01*
X90766179Y-99867267D01*
X90721482Y-99885781D01*
X90687857Y-99892469D01*
X90661978Y-99897617D01*
X90637789Y-99900000D01*
X80700000Y-99900000D01*
X80700000Y-97900000D01*
X89400000Y-97900000D01*
X89400000Y-73714187D01*
X89400038Y-73711124D01*
X89400240Y-73703111D01*
X89400555Y-73696901D01*
X89401157Y-73688973D01*
X89401433Y-73685858D01*
X90899042Y-58909456D01*
X90899044Y-58909424D01*
X90900000Y-58899997D01*
X90900000Y-55100000D01*
X90650000Y-55100000D01*
X88248428Y-55100000D01*
X88181389Y-55080315D01*
X88150057Y-55047457D01*
X88148442Y-55048697D01*
X88143490Y-55042244D01*
X88057756Y-54956510D01*
X88057754Y-54956508D01*
X87952747Y-54895882D01*
X87835626Y-54864500D01*
X87714374Y-54864500D01*
X87597253Y-54895882D01*
X87597250Y-54895883D01*
X87492249Y-54956506D01*
X87492243Y-54956510D01*
X87406509Y-55042244D01*
X87401558Y-55048697D01*
X87399443Y-55047074D01*
X87358391Y-55086216D01*
X87301572Y-55100000D01*
X83162211Y-55100000D01*
X83138020Y-55097617D01*
X83123189Y-55094667D01*
X83078518Y-55085781D01*
X83033822Y-55067267D01*
X82993727Y-55040477D01*
X82959522Y-55006272D01*
X82932730Y-54966175D01*
X82914218Y-54921480D01*
X82902383Y-54861980D01*
X82900000Y-54837789D01*
X82900000Y-53162210D01*
X82902383Y-53138019D01*
X82914219Y-53078517D01*
X82932729Y-53033826D01*
X82959524Y-52993724D01*
X82993724Y-52959524D01*
X83033826Y-52932729D01*
X83078514Y-52914219D01*
X83138028Y-52902381D01*
X83162211Y-52900000D01*
X92337789Y-52900000D01*
X92361980Y-52902383D01*
G37*
G04 #@! TD.AperFunction*
G04 #@! TD*
G04 #@! TA.AperFunction,Conductor*
G04 #@! TO.N,+3V3*
G36*
X60671483Y-87517772D02*
G01*
X60679182Y-87520961D01*
X60684341Y-87521054D01*
X60716179Y-87536287D01*
X60766621Y-87569991D01*
X60785412Y-87585412D01*
X67500000Y-94300000D01*
X79437789Y-94300000D01*
X79461980Y-94302383D01*
X79521480Y-94314218D01*
X79566175Y-94332730D01*
X79606272Y-94359522D01*
X79640477Y-94393727D01*
X79667267Y-94433822D01*
X79685781Y-94478517D01*
X79697617Y-94538022D01*
X79700000Y-94562210D01*
X79700000Y-95700000D01*
X79712828Y-95738484D01*
X79712829Y-95738488D01*
X80349999Y-97650000D01*
X80433333Y-97900000D01*
X80433334Y-97900000D01*
X80700000Y-97900000D01*
X80700000Y-99900000D01*
X78662211Y-99900000D01*
X78638020Y-99897617D01*
X78623189Y-99894667D01*
X78578518Y-99885781D01*
X78533822Y-99867267D01*
X78493727Y-99840477D01*
X78459522Y-99806272D01*
X78432730Y-99766175D01*
X78414218Y-99721480D01*
X78402383Y-99661980D01*
X78400000Y-99637789D01*
X78400000Y-95500000D01*
X78150000Y-95500000D01*
X67615764Y-95500000D01*
X67591574Y-95497617D01*
X67558814Y-95491101D01*
X67532071Y-95485781D01*
X67487374Y-95467266D01*
X67436932Y-95433562D01*
X67418141Y-95418141D01*
X60185412Y-88185412D01*
X60169991Y-88166621D01*
X60136287Y-88116179D01*
X60133097Y-88108478D01*
X60129514Y-88104765D01*
X60117772Y-88071482D01*
X60108365Y-88024190D01*
X60108365Y-87975808D01*
X60117772Y-87928518D01*
X60136286Y-87883822D01*
X60169994Y-87833373D01*
X60185407Y-87814592D01*
X60414592Y-87585407D01*
X60433373Y-87569994D01*
X60483822Y-87536286D01*
X60528516Y-87517772D01*
X60575810Y-87508365D01*
X60624190Y-87508365D01*
X60671483Y-87517772D01*
G37*
G04 #@! TD.AperFunction*
G04 #@! TD*
G04 #@! TA.AperFunction,Conductor*
G04 #@! TO.N,GND*
G36*
X1954088Y-52720185D02*
G01*
X1999843Y-52772989D01*
X2009787Y-52842147D01*
X2008668Y-52848679D01*
X2007480Y-52854653D01*
X2002755Y-52878404D01*
X2002746Y-52878456D01*
X1998354Y-52908070D01*
X1995972Y-52932254D01*
X1995972Y-52932257D01*
X1995972Y-52932261D01*
X1994500Y-52962210D01*
X1994500Y-53837789D01*
X1995139Y-53850781D01*
X1995972Y-53867741D01*
X1995972Y-53867744D01*
X1998354Y-53891926D01*
X2002749Y-53921557D01*
X2014588Y-53981081D01*
X2031969Y-54038382D01*
X2050480Y-54083075D01*
X2050485Y-54083085D01*
X2078708Y-54135889D01*
X2078719Y-54135907D01*
X2094712Y-54159842D01*
X2105508Y-54175999D01*
X2108809Y-54180021D01*
X2143505Y-54222298D01*
X2177700Y-54256493D01*
X2177705Y-54256497D01*
X2177706Y-54256498D01*
X2224003Y-54294493D01*
X2224010Y-54294497D01*
X2224016Y-54294502D01*
X2264086Y-54321276D01*
X2264095Y-54321281D01*
X2264098Y-54321283D01*
X2316911Y-54349512D01*
X2316917Y-54349515D01*
X2336551Y-54357647D01*
X2361607Y-54368026D01*
X2418916Y-54385411D01*
X2469399Y-54395453D01*
X2478397Y-54397243D01*
X2478402Y-54397243D01*
X2478418Y-54397247D01*
X2478445Y-54397251D01*
X2478457Y-54397253D01*
X2497519Y-54400080D01*
X2508071Y-54401645D01*
X2532262Y-54404028D01*
X2562211Y-54405500D01*
X2562224Y-54405500D01*
X18664438Y-54405500D01*
X18731477Y-54425185D01*
X18777232Y-54477989D01*
X18787176Y-54547147D01*
X18786911Y-54548898D01*
X18750000Y-54781947D01*
X18750000Y-55018052D01*
X18786934Y-55251247D01*
X18859897Y-55475802D01*
X18967087Y-55686174D01*
X19027338Y-55769104D01*
X19027340Y-55769105D01*
X19767037Y-55029408D01*
X19784075Y-55092993D01*
X19849901Y-55207007D01*
X19942993Y-55300099D01*
X20057007Y-55365925D01*
X20120589Y-55382962D01*
X19380893Y-56122658D01*
X19463830Y-56182916D01*
X19626794Y-56265949D01*
X19677590Y-56313923D01*
X19694500Y-56376434D01*
X19694500Y-80100000D01*
X19694500Y-87637789D01*
X19695076Y-87649500D01*
X19695972Y-87667741D01*
X19695972Y-87667744D01*
X19698354Y-87691926D01*
X19702749Y-87721557D01*
X19702751Y-87721571D01*
X19702753Y-87721579D01*
X19704783Y-87731783D01*
X19714588Y-87781081D01*
X19731969Y-87838382D01*
X19750480Y-87883075D01*
X19750485Y-87883085D01*
X19778708Y-87935889D01*
X19778713Y-87935897D01*
X19778716Y-87935902D01*
X19805508Y-87975999D01*
X19809222Y-87980524D01*
X19843505Y-88022298D01*
X19877700Y-88056493D01*
X19877705Y-88056497D01*
X19877706Y-88056498D01*
X19924003Y-88094493D01*
X19924010Y-88094497D01*
X19924016Y-88094502D01*
X19964086Y-88121276D01*
X19964095Y-88121281D01*
X19964098Y-88121283D01*
X20016911Y-88149512D01*
X20016917Y-88149515D01*
X20036551Y-88157647D01*
X20061607Y-88168026D01*
X20118916Y-88185411D01*
X20169399Y-88195453D01*
X20178397Y-88197243D01*
X20178402Y-88197243D01*
X20178418Y-88197247D01*
X20178445Y-88197251D01*
X20178457Y-88197253D01*
X20208064Y-88201644D01*
X20208071Y-88201645D01*
X20232262Y-88204028D01*
X20262211Y-88205500D01*
X20262224Y-88205500D01*
X21837776Y-88205500D01*
X21837789Y-88205500D01*
X21867741Y-88204028D01*
X21867758Y-88204026D01*
X21867765Y-88204026D01*
X21874218Y-88203389D01*
X21891930Y-88201645D01*
X21901812Y-88200179D01*
X21921566Y-88197249D01*
X21921567Y-88197248D01*
X21921578Y-88197247D01*
X21981082Y-88185411D01*
X22038391Y-88168026D01*
X22083088Y-88149512D01*
X22135909Y-88121279D01*
X22175999Y-88094491D01*
X22222287Y-88056503D01*
X22256499Y-88022292D01*
X22294497Y-87975992D01*
X22321283Y-87935903D01*
X22349512Y-87883088D01*
X22368026Y-87838391D01*
X22385410Y-87781086D01*
X22397246Y-87721586D01*
X22401646Y-87691929D01*
X22404029Y-87667736D01*
X22405500Y-87637789D01*
X22405500Y-87570943D01*
X23724500Y-87570943D01*
X23724500Y-87729057D01*
X23761922Y-87868716D01*
X23765423Y-87881783D01*
X23765426Y-87881790D01*
X23844475Y-88018709D01*
X23844479Y-88018714D01*
X23844480Y-88018716D01*
X23956284Y-88130520D01*
X23956286Y-88130521D01*
X23956290Y-88130524D01*
X24079477Y-88201645D01*
X24093216Y-88209577D01*
X24245943Y-88250500D01*
X24245945Y-88250500D01*
X24404055Y-88250500D01*
X24404057Y-88250500D01*
X24556784Y-88209577D01*
X24693716Y-88130520D01*
X24805520Y-88018716D01*
X24884577Y-87881784D01*
X24925500Y-87729057D01*
X24925500Y-87570943D01*
X24884577Y-87418216D01*
X24884573Y-87418209D01*
X24805524Y-87281290D01*
X24805518Y-87281282D01*
X24693717Y-87169481D01*
X24693709Y-87169475D01*
X24556790Y-87090426D01*
X24556786Y-87090424D01*
X24556784Y-87090423D01*
X24404057Y-87049500D01*
X24245943Y-87049500D01*
X24093216Y-87090423D01*
X24093209Y-87090426D01*
X23956290Y-87169475D01*
X23956282Y-87169481D01*
X23844481Y-87281282D01*
X23844475Y-87281290D01*
X23765426Y-87418209D01*
X23765423Y-87418216D01*
X23724500Y-87570943D01*
X22405500Y-87570943D01*
X22405500Y-85897648D01*
X29399500Y-85897648D01*
X29399500Y-86102351D01*
X29431522Y-86304534D01*
X29494781Y-86499223D01*
X29587715Y-86681613D01*
X29708028Y-86847213D01*
X29852786Y-86991971D01*
X29995236Y-87095465D01*
X30018390Y-87112287D01*
X30130628Y-87169475D01*
X30200776Y-87205218D01*
X30200778Y-87205218D01*
X30200781Y-87205220D01*
X30296152Y-87236208D01*
X30395465Y-87268477D01*
X30482550Y-87282270D01*
X30597648Y-87300500D01*
X30597649Y-87300500D01*
X30802351Y-87300500D01*
X30802352Y-87300500D01*
X30820359Y-87297648D01*
X34299500Y-87297648D01*
X34299500Y-87502352D01*
X34300178Y-87506631D01*
X34331522Y-87704534D01*
X34394781Y-87899223D01*
X34455663Y-88018709D01*
X34487668Y-88081522D01*
X34487715Y-88081613D01*
X34608028Y-88247213D01*
X34752786Y-88391971D01*
X34905306Y-88502781D01*
X34918390Y-88512287D01*
X35034607Y-88571503D01*
X35100776Y-88605218D01*
X35100778Y-88605218D01*
X35100781Y-88605220D01*
X35205137Y-88639127D01*
X35295465Y-88668477D01*
X35396557Y-88684488D01*
X35497648Y-88700500D01*
X35497649Y-88700500D01*
X35702351Y-88700500D01*
X35702352Y-88700500D01*
X35904534Y-88668477D01*
X36099219Y-88605220D01*
X36281610Y-88512287D01*
X36434189Y-88401433D01*
X36447213Y-88391971D01*
X36447215Y-88391968D01*
X36447219Y-88391966D01*
X36591966Y-88247219D01*
X36591968Y-88247215D01*
X36591971Y-88247213D01*
X36649503Y-88168025D01*
X36712287Y-88081610D01*
X36805220Y-87899219D01*
X36868477Y-87704534D01*
X36900500Y-87502352D01*
X36900500Y-87420943D01*
X49199500Y-87420943D01*
X49199500Y-87579057D01*
X49239693Y-87729057D01*
X49240423Y-87731783D01*
X49240426Y-87731790D01*
X49319475Y-87868709D01*
X49319479Y-87868714D01*
X49319480Y-87868716D01*
X49431284Y-87980520D01*
X49431286Y-87980521D01*
X49431290Y-87980524D01*
X49503646Y-88022298D01*
X49568216Y-88059577D01*
X49720943Y-88100500D01*
X49720945Y-88100500D01*
X49879055Y-88100500D01*
X49879057Y-88100500D01*
X50031784Y-88059577D01*
X50168716Y-87980520D01*
X50280520Y-87868716D01*
X50359577Y-87731784D01*
X50400500Y-87579057D01*
X50400500Y-87420943D01*
X50359577Y-87268216D01*
X50351394Y-87254043D01*
X50280524Y-87131290D01*
X50280518Y-87131282D01*
X50168717Y-87019481D01*
X50168709Y-87019475D01*
X50031790Y-86940426D01*
X50031786Y-86940424D01*
X50031784Y-86940423D01*
X49879057Y-86899500D01*
X49720943Y-86899500D01*
X49568216Y-86940423D01*
X49568209Y-86940426D01*
X49431290Y-87019475D01*
X49431282Y-87019481D01*
X49319481Y-87131282D01*
X49319475Y-87131290D01*
X49240426Y-87268209D01*
X49240423Y-87268216D01*
X49199500Y-87420943D01*
X36900500Y-87420943D01*
X36900500Y-87297648D01*
X36881949Y-87180524D01*
X36868477Y-87095465D01*
X36805218Y-86900776D01*
X36754124Y-86800500D01*
X36712287Y-86718390D01*
X36656525Y-86641639D01*
X36591971Y-86552786D01*
X36447213Y-86408028D01*
X36281613Y-86287715D01*
X36281612Y-86287714D01*
X36281610Y-86287713D01*
X36156643Y-86224039D01*
X36155195Y-86223301D01*
X36099223Y-86194781D01*
X35904534Y-86131522D01*
X35837740Y-86120943D01*
X48549500Y-86120943D01*
X48549500Y-86279057D01*
X48559170Y-86315144D01*
X48590423Y-86431783D01*
X48590426Y-86431790D01*
X48669475Y-86568709D01*
X48669479Y-86568714D01*
X48669480Y-86568716D01*
X48781284Y-86680520D01*
X48781286Y-86680521D01*
X48781290Y-86680524D01*
X48846870Y-86718386D01*
X48918216Y-86759577D01*
X49070943Y-86800500D01*
X49070945Y-86800500D01*
X49229055Y-86800500D01*
X49229057Y-86800500D01*
X49381784Y-86759577D01*
X49518716Y-86680520D01*
X49630520Y-86568716D01*
X49709577Y-86431784D01*
X49750500Y-86279057D01*
X49750500Y-86120943D01*
X49709577Y-85968216D01*
X49709573Y-85968209D01*
X49630524Y-85831290D01*
X49630518Y-85831282D01*
X49518717Y-85719481D01*
X49518709Y-85719475D01*
X49381790Y-85640426D01*
X49381786Y-85640424D01*
X49381784Y-85640423D01*
X49229057Y-85599500D01*
X49070943Y-85599500D01*
X48918216Y-85640423D01*
X48918209Y-85640426D01*
X48781290Y-85719475D01*
X48781282Y-85719481D01*
X48669481Y-85831282D01*
X48669475Y-85831290D01*
X48590426Y-85968209D01*
X48590423Y-85968216D01*
X48549500Y-86120943D01*
X35837740Y-86120943D01*
X35729995Y-86103878D01*
X35702352Y-86099500D01*
X35497648Y-86099500D01*
X35473329Y-86103351D01*
X35295465Y-86131522D01*
X35100776Y-86194781D01*
X34918386Y-86287715D01*
X34752786Y-86408028D01*
X34608028Y-86552786D01*
X34487715Y-86718386D01*
X34394781Y-86900776D01*
X34331522Y-87095465D01*
X34304120Y-87268477D01*
X34299500Y-87297648D01*
X30820359Y-87297648D01*
X31004534Y-87268477D01*
X31199219Y-87205220D01*
X31203841Y-87202865D01*
X31244220Y-87182291D01*
X31259948Y-87174276D01*
X31381610Y-87112287D01*
X31509356Y-87019475D01*
X31547213Y-86991971D01*
X31547215Y-86991968D01*
X31547219Y-86991966D01*
X31691966Y-86847219D01*
X31691968Y-86847215D01*
X31691971Y-86847213D01*
X31755644Y-86759573D01*
X31812287Y-86681610D01*
X31905220Y-86499219D01*
X31968477Y-86304534D01*
X32000500Y-86102352D01*
X32000500Y-85897648D01*
X31989989Y-85831284D01*
X31968477Y-85695465D01*
X31905218Y-85500776D01*
X31871503Y-85434607D01*
X31812287Y-85318390D01*
X31792041Y-85290524D01*
X31691971Y-85152786D01*
X31547213Y-85008028D01*
X31381613Y-84887715D01*
X31381612Y-84887714D01*
X31381610Y-84887713D01*
X31311751Y-84852118D01*
X31199223Y-84794781D01*
X31004534Y-84731522D01*
X30829995Y-84703878D01*
X30802352Y-84699500D01*
X30597648Y-84699500D01*
X30573329Y-84703351D01*
X30395465Y-84731522D01*
X30200776Y-84794781D01*
X30018386Y-84887715D01*
X29852786Y-85008028D01*
X29708028Y-85152786D01*
X29587715Y-85318386D01*
X29494781Y-85500776D01*
X29431522Y-85695465D01*
X29399500Y-85897648D01*
X22405500Y-85897648D01*
X22405500Y-84541615D01*
X37378200Y-84541615D01*
X37378200Y-84698384D01*
X37408780Y-84852118D01*
X37408783Y-84852130D01*
X37468769Y-84996951D01*
X37468771Y-84996955D01*
X37555857Y-85127288D01*
X37555863Y-85127296D01*
X37666703Y-85238136D01*
X37666711Y-85238142D01*
X37797044Y-85325228D01*
X37797048Y-85325230D01*
X37904113Y-85369577D01*
X37941874Y-85385218D01*
X38068970Y-85410499D01*
X38095615Y-85415799D01*
X38095618Y-85415800D01*
X38095620Y-85415800D01*
X38252382Y-85415800D01*
X38252383Y-85415799D01*
X38406126Y-85385218D01*
X38550953Y-85325229D01*
X38550955Y-85325228D01*
X38677870Y-85240426D01*
X38681293Y-85238139D01*
X38792139Y-85127293D01*
X38871829Y-85008028D01*
X38879228Y-84996955D01*
X38879230Y-84996951D01*
X38922347Y-84892856D01*
X38939218Y-84852126D01*
X38969800Y-84698380D01*
X38969800Y-84541620D01*
X38969800Y-84541617D01*
X38969799Y-84541615D01*
X39410200Y-84541615D01*
X39410200Y-84698384D01*
X39440780Y-84852118D01*
X39440783Y-84852130D01*
X39500769Y-84996951D01*
X39500771Y-84996955D01*
X39587857Y-85127288D01*
X39587863Y-85127296D01*
X39698703Y-85238136D01*
X39698711Y-85238142D01*
X39829044Y-85325228D01*
X39829048Y-85325230D01*
X39936113Y-85369577D01*
X39973874Y-85385218D01*
X40100970Y-85410499D01*
X40127615Y-85415799D01*
X40127618Y-85415800D01*
X40127620Y-85415800D01*
X40284382Y-85415800D01*
X40284383Y-85415799D01*
X40438126Y-85385218D01*
X40582953Y-85325229D01*
X40582955Y-85325228D01*
X40709870Y-85240426D01*
X40713293Y-85238139D01*
X40824139Y-85127293D01*
X40903829Y-85008028D01*
X40911228Y-84996955D01*
X40911230Y-84996951D01*
X40954347Y-84892856D01*
X40971218Y-84852126D01*
X41001800Y-84698380D01*
X41001800Y-84541620D01*
X41001800Y-84541617D01*
X41001799Y-84541615D01*
X40980992Y-84437007D01*
X40977796Y-84420943D01*
X45799500Y-84420943D01*
X45799500Y-84579057D01*
X45832115Y-84700776D01*
X45840423Y-84731783D01*
X45840426Y-84731790D01*
X45919475Y-84868709D01*
X45919479Y-84868714D01*
X45919480Y-84868716D01*
X46031284Y-84980520D01*
X46031286Y-84980521D01*
X46031290Y-84980524D01*
X46150762Y-85049500D01*
X46168216Y-85059577D01*
X46320943Y-85100500D01*
X46320945Y-85100500D01*
X46479055Y-85100500D01*
X46479057Y-85100500D01*
X46631784Y-85059577D01*
X46768716Y-84980520D01*
X46880520Y-84868716D01*
X46959577Y-84731784D01*
X46959802Y-84730943D01*
X47295825Y-84730943D01*
X47295825Y-84889057D01*
X47320334Y-84980524D01*
X47336748Y-85041783D01*
X47336751Y-85041790D01*
X47415800Y-85178709D01*
X47415804Y-85178714D01*
X47415805Y-85178716D01*
X47527609Y-85290520D01*
X47527611Y-85290521D01*
X47527615Y-85290524D01*
X47664534Y-85369573D01*
X47664541Y-85369577D01*
X47817268Y-85410500D01*
X47817270Y-85410500D01*
X47975380Y-85410500D01*
X47975382Y-85410500D01*
X48128109Y-85369577D01*
X48265041Y-85290520D01*
X48376845Y-85178716D01*
X48455902Y-85041784D01*
X48496825Y-84889057D01*
X48496825Y-84730943D01*
X48455902Y-84578216D01*
X48455898Y-84578209D01*
X48376849Y-84441290D01*
X48376843Y-84441282D01*
X48265042Y-84329481D01*
X48265034Y-84329475D01*
X48128115Y-84250426D01*
X48128111Y-84250424D01*
X48128109Y-84250423D01*
X47975382Y-84209500D01*
X47817268Y-84209500D01*
X47664541Y-84250423D01*
X47664534Y-84250426D01*
X47527615Y-84329475D01*
X47527607Y-84329481D01*
X47415806Y-84441282D01*
X47415800Y-84441290D01*
X47336751Y-84578209D01*
X47336748Y-84578216D01*
X47295825Y-84730943D01*
X46959802Y-84730943D01*
X47000500Y-84579057D01*
X47000500Y-84420943D01*
X46959577Y-84268216D01*
X46959442Y-84267982D01*
X46880524Y-84131290D01*
X46880518Y-84131282D01*
X46768717Y-84019481D01*
X46768709Y-84019475D01*
X46631790Y-83940426D01*
X46631786Y-83940424D01*
X46631784Y-83940423D01*
X46479057Y-83899500D01*
X46320943Y-83899500D01*
X46168216Y-83940423D01*
X46168209Y-83940426D01*
X46031290Y-84019475D01*
X46031282Y-84019481D01*
X45919481Y-84131282D01*
X45919475Y-84131290D01*
X45840426Y-84268209D01*
X45840423Y-84268216D01*
X45799500Y-84420943D01*
X40977796Y-84420943D01*
X40971219Y-84387879D01*
X40971218Y-84387878D01*
X40971218Y-84387874D01*
X40947031Y-84329480D01*
X40911230Y-84243048D01*
X40911228Y-84243044D01*
X40824142Y-84112711D01*
X40824136Y-84112703D01*
X40713296Y-84001863D01*
X40713288Y-84001857D01*
X40582955Y-83914771D01*
X40582951Y-83914769D01*
X40438130Y-83854783D01*
X40438118Y-83854780D01*
X40284383Y-83824200D01*
X40284380Y-83824200D01*
X40127620Y-83824200D01*
X40127617Y-83824200D01*
X39973881Y-83854780D01*
X39973869Y-83854783D01*
X39829048Y-83914769D01*
X39829044Y-83914771D01*
X39698711Y-84001857D01*
X39698703Y-84001863D01*
X39587863Y-84112703D01*
X39587857Y-84112711D01*
X39500771Y-84243044D01*
X39500769Y-84243048D01*
X39440783Y-84387869D01*
X39440780Y-84387881D01*
X39410200Y-84541615D01*
X38969799Y-84541615D01*
X38959052Y-84487585D01*
X38939218Y-84387874D01*
X38915031Y-84329480D01*
X38879230Y-84243048D01*
X38879228Y-84243044D01*
X38792142Y-84112711D01*
X38792136Y-84112703D01*
X38681296Y-84001863D01*
X38681288Y-84001857D01*
X38550955Y-83914771D01*
X38550951Y-83914769D01*
X38406130Y-83854783D01*
X38406118Y-83854780D01*
X38252383Y-83824200D01*
X38252380Y-83824200D01*
X38095620Y-83824200D01*
X38095617Y-83824200D01*
X37941881Y-83854780D01*
X37941869Y-83854783D01*
X37797048Y-83914769D01*
X37797044Y-83914771D01*
X37666711Y-84001857D01*
X37666703Y-84001863D01*
X37555863Y-84112703D01*
X37555857Y-84112711D01*
X37468771Y-84243044D01*
X37468769Y-84243048D01*
X37408783Y-84387869D01*
X37408780Y-84387881D01*
X37378200Y-84541615D01*
X22405500Y-84541615D01*
X22405500Y-80529500D01*
X22425185Y-80462461D01*
X22477989Y-80416706D01*
X22529500Y-80405500D01*
X27025513Y-80405500D01*
X27092552Y-80425185D01*
X27138307Y-80477989D01*
X27148251Y-80547147D01*
X27119226Y-80610703D01*
X27072966Y-80644061D01*
X26957633Y-80691833D01*
X26957623Y-80691837D01*
X26741873Y-80816400D01*
X26544225Y-80968060D01*
X26544218Y-80968066D01*
X26368066Y-81144218D01*
X26368060Y-81144225D01*
X26216400Y-81341873D01*
X26091837Y-81557623D01*
X26091830Y-81557638D01*
X25996498Y-81787792D01*
X25932017Y-82028438D01*
X25899501Y-82275424D01*
X25899500Y-82275441D01*
X25899500Y-82524558D01*
X25899501Y-82524575D01*
X25930076Y-82756821D01*
X25932018Y-82771565D01*
X25958253Y-82869475D01*
X25996498Y-83012207D01*
X26091830Y-83242361D01*
X26091837Y-83242376D01*
X26216400Y-83458126D01*
X26368060Y-83655774D01*
X26368066Y-83655781D01*
X26544218Y-83831933D01*
X26544225Y-83831939D01*
X26741873Y-83983599D01*
X26957623Y-84108162D01*
X26957638Y-84108169D01*
X27013458Y-84131290D01*
X27187793Y-84203502D01*
X27428435Y-84267982D01*
X27675435Y-84300500D01*
X27675442Y-84300500D01*
X27924558Y-84300500D01*
X27924565Y-84300500D01*
X28171565Y-84267982D01*
X28412207Y-84203502D01*
X28642373Y-84108164D01*
X28858127Y-83983599D01*
X29055776Y-83831938D01*
X29231938Y-83655776D01*
X29383599Y-83458127D01*
X29508164Y-83242373D01*
X29603502Y-83012207D01*
X29667982Y-82771565D01*
X29700500Y-82524565D01*
X29700500Y-82275435D01*
X29667982Y-82028435D01*
X29603502Y-81787793D01*
X29517041Y-81579057D01*
X29508169Y-81557638D01*
X29508162Y-81557623D01*
X29383599Y-81341873D01*
X29231939Y-81144225D01*
X29231933Y-81144218D01*
X29055781Y-80968066D01*
X29055774Y-80968060D01*
X28858126Y-80816400D01*
X28642376Y-80691837D01*
X28642366Y-80691833D01*
X28559161Y-80657368D01*
X28527033Y-80644060D01*
X28472631Y-80600220D01*
X28450566Y-80533926D01*
X28467845Y-80466227D01*
X28518982Y-80418616D01*
X28574487Y-80405500D01*
X35473460Y-80405500D01*
X35540499Y-80425185D01*
X35586254Y-80477989D01*
X35596198Y-80547147D01*
X35580848Y-80591499D01*
X35565423Y-80618215D01*
X35565423Y-80618216D01*
X35524500Y-80770943D01*
X35524500Y-80929057D01*
X35564693Y-81079057D01*
X35565423Y-81081783D01*
X35565426Y-81081790D01*
X35644475Y-81218709D01*
X35644479Y-81218714D01*
X35644480Y-81218716D01*
X35756284Y-81330520D01*
X35756285Y-81330521D01*
X35756287Y-81330522D01*
X35777229Y-81342613D01*
X35825445Y-81393180D01*
X35838668Y-81461787D01*
X35812700Y-81526652D01*
X35777229Y-81557387D01*
X35756287Y-81569477D01*
X35756282Y-81569481D01*
X35644481Y-81681282D01*
X35644475Y-81681290D01*
X35565426Y-81818209D01*
X35565423Y-81818216D01*
X35524500Y-81970943D01*
X35524500Y-82129057D01*
X35563724Y-82275441D01*
X35565423Y-82281783D01*
X35565426Y-82281790D01*
X35644475Y-82418709D01*
X35644479Y-82418714D01*
X35644480Y-82418716D01*
X35756284Y-82530520D01*
X35756285Y-82530521D01*
X35756287Y-82530522D01*
X35863832Y-82592613D01*
X35912047Y-82643180D01*
X35925271Y-82711787D01*
X35899303Y-82776652D01*
X35863832Y-82807387D01*
X35756287Y-82869477D01*
X35756282Y-82869481D01*
X35644481Y-82981282D01*
X35644475Y-82981290D01*
X35565426Y-83118209D01*
X35565423Y-83118216D01*
X35524500Y-83270943D01*
X35524500Y-83429057D01*
X35547780Y-83515937D01*
X35565423Y-83581783D01*
X35565426Y-83581790D01*
X35644475Y-83718709D01*
X35644479Y-83718714D01*
X35644480Y-83718716D01*
X35756284Y-83830520D01*
X35756286Y-83830521D01*
X35756290Y-83830524D01*
X35875762Y-83899500D01*
X35893216Y-83909577D01*
X36045943Y-83950500D01*
X36045945Y-83950500D01*
X36204055Y-83950500D01*
X36204057Y-83950500D01*
X36356784Y-83909577D01*
X36493716Y-83830520D01*
X36605520Y-83718716D01*
X36684577Y-83581784D01*
X36725500Y-83429057D01*
X36725500Y-83270943D01*
X36684577Y-83118216D01*
X36681108Y-83112207D01*
X36605524Y-82981290D01*
X36605518Y-82981282D01*
X36493717Y-82869481D01*
X36493709Y-82869475D01*
X36386168Y-82807387D01*
X36337952Y-82756821D01*
X36324728Y-82688214D01*
X36350696Y-82623349D01*
X36386168Y-82592613D01*
X36493709Y-82530524D01*
X36493708Y-82530524D01*
X36493716Y-82530520D01*
X36605520Y-82418716D01*
X36684577Y-82281784D01*
X36725500Y-82129057D01*
X36725500Y-82079054D01*
X52324498Y-82079054D01*
X52365423Y-82231786D01*
X52365424Y-82231787D01*
X52387775Y-82270500D01*
X52444480Y-82368716D01*
X52444482Y-82368718D01*
X52563349Y-82487585D01*
X52563355Y-82487590D01*
X54314634Y-84238869D01*
X54334340Y-84264550D01*
X54394477Y-84368712D01*
X54394481Y-84368717D01*
X54513349Y-84487585D01*
X54513354Y-84487589D01*
X57206284Y-87180520D01*
X57206286Y-87180521D01*
X57206290Y-87180524D01*
X57343209Y-87259573D01*
X57343212Y-87259575D01*
X57343216Y-87259577D01*
X57495943Y-87300501D01*
X57495945Y-87300501D01*
X57661654Y-87300501D01*
X57661670Y-87300500D01*
X58688331Y-87300500D01*
X58688347Y-87300501D01*
X58695943Y-87300501D01*
X58854054Y-87300501D01*
X58854057Y-87300501D01*
X59006785Y-87259577D01*
X59078552Y-87218142D01*
X59143716Y-87180520D01*
X59255520Y-87068716D01*
X59255520Y-87068714D01*
X59265724Y-87058511D01*
X59265727Y-87058506D01*
X63875520Y-82448716D01*
X63954577Y-82311784D01*
X63995501Y-82159057D01*
X63995501Y-82000942D01*
X63995501Y-81993347D01*
X63995500Y-81993329D01*
X63995500Y-80790942D01*
X63995433Y-80790694D01*
X63995375Y-80790479D01*
X63984863Y-80751248D01*
X63971266Y-80700500D01*
X63971266Y-80700498D01*
X63969771Y-80694918D01*
X63969768Y-80694910D01*
X63965334Y-80678361D01*
X63954577Y-80638216D01*
X63932225Y-80599500D01*
X63875524Y-80501290D01*
X63875521Y-80501286D01*
X63875520Y-80501284D01*
X63763716Y-80389480D01*
X63763715Y-80389479D01*
X63759385Y-80385149D01*
X63759374Y-80385139D01*
X60012590Y-76638355D01*
X60012588Y-76638352D01*
X59162590Y-75788355D01*
X59162588Y-75788352D01*
X59043717Y-75669481D01*
X59043716Y-75669480D01*
X58956904Y-75619360D01*
X58956904Y-75619359D01*
X58956900Y-75619358D01*
X58906785Y-75590423D01*
X58754057Y-75549499D01*
X58595943Y-75549499D01*
X58588347Y-75549499D01*
X58588331Y-75549500D01*
X57861670Y-75549500D01*
X57861654Y-75549499D01*
X57854058Y-75549499D01*
X57695943Y-75549499D01*
X57619579Y-75569961D01*
X57543214Y-75590423D01*
X57543209Y-75590426D01*
X57406290Y-75669475D01*
X57406282Y-75669481D01*
X52444481Y-80631282D01*
X52444479Y-80631285D01*
X52437103Y-80644061D01*
X52397432Y-80712775D01*
X52394361Y-80718094D01*
X52394359Y-80718096D01*
X52365425Y-80768209D01*
X52365424Y-80768210D01*
X52359093Y-80791837D01*
X52324499Y-80920943D01*
X52324499Y-81079057D01*
X52324499Y-81079059D01*
X52324500Y-81089053D01*
X52324500Y-81913330D01*
X52324499Y-81913348D01*
X52324499Y-82079054D01*
X52324498Y-82079054D01*
X36725500Y-82079054D01*
X36725500Y-81970943D01*
X36684577Y-81818216D01*
X36673631Y-81799256D01*
X36605524Y-81681290D01*
X36605518Y-81681282D01*
X36493717Y-81569481D01*
X36493712Y-81569477D01*
X36472772Y-81557388D01*
X36424555Y-81506822D01*
X36411331Y-81438215D01*
X36437298Y-81373350D01*
X36472772Y-81342612D01*
X36491783Y-81331636D01*
X36493716Y-81330520D01*
X36605520Y-81218716D01*
X36684577Y-81081784D01*
X36725500Y-80929057D01*
X36725500Y-80770943D01*
X36684577Y-80618216D01*
X36669151Y-80591498D01*
X36652681Y-80523599D01*
X36675533Y-80457572D01*
X36730455Y-80414382D01*
X36776540Y-80405500D01*
X38375724Y-80405500D01*
X38375730Y-80405500D01*
X38428634Y-80400884D01*
X38428644Y-80400882D01*
X38428646Y-80400882D01*
X38435463Y-80399683D01*
X38470931Y-80393447D01*
X38497772Y-80387472D01*
X38598920Y-80338750D01*
X38655224Y-80297379D01*
X38686284Y-80269330D01*
X38749229Y-80239011D01*
X38816839Y-80246799D01*
X38957874Y-80305218D01*
X39074086Y-80328334D01*
X39111615Y-80335799D01*
X39111618Y-80335800D01*
X39111620Y-80335800D01*
X39268382Y-80335800D01*
X39268383Y-80335799D01*
X39422126Y-80305218D01*
X39564512Y-80246239D01*
X39633981Y-80238771D01*
X39696460Y-80270046D01*
X39705676Y-80279598D01*
X39706341Y-80280365D01*
X39706361Y-80280387D01*
X39751077Y-80322548D01*
X39751079Y-80322549D01*
X39751083Y-80322553D01*
X39851159Y-80373439D01*
X39918198Y-80393124D01*
X40004270Y-80405500D01*
X40004273Y-80405500D01*
X45997784Y-80405500D01*
X45997788Y-80405499D01*
X46028423Y-80403959D01*
X46053168Y-80401464D01*
X46083491Y-80396859D01*
X46144279Y-80384478D01*
X46202797Y-80366287D01*
X46248345Y-80346930D01*
X46302050Y-80317430D01*
X46342643Y-80289494D01*
X46389390Y-80249860D01*
X46423744Y-80214224D01*
X46461636Y-80166062D01*
X46488068Y-80124473D01*
X46515583Y-80069723D01*
X46533261Y-80023494D01*
X46549298Y-79964348D01*
X46559445Y-79903149D01*
X46562938Y-79872670D01*
X46564525Y-79847848D01*
X46564942Y-79817173D01*
X46514553Y-78441582D01*
X46512080Y-78412403D01*
X46508943Y-78388867D01*
X46503688Y-78360062D01*
X46490263Y-78302306D01*
X46471623Y-78246855D01*
X46452341Y-78203697D01*
X46423476Y-78152818D01*
X46396391Y-78114225D01*
X46396390Y-78114224D01*
X46396386Y-78114218D01*
X46396383Y-78114214D01*
X46358359Y-78069783D01*
X46324324Y-78036972D01*
X46278524Y-78000597D01*
X46278517Y-78000592D01*
X46238974Y-77974948D01*
X46238967Y-77974944D01*
X46187076Y-77947965D01*
X46187054Y-77947955D01*
X46143239Y-77930275D01*
X46143236Y-77930274D01*
X46143231Y-77930272D01*
X46087135Y-77913675D01*
X46087136Y-77913675D01*
X46087132Y-77913674D01*
X46028914Y-77902371D01*
X45999947Y-77898176D01*
X45999941Y-77898175D01*
X45976316Y-77895903D01*
X45947100Y-77894501D01*
X45947071Y-77894500D01*
X45947063Y-77894500D01*
X45947052Y-77894500D01*
X22529500Y-77894500D01*
X22462461Y-77874815D01*
X22416706Y-77822011D01*
X22405500Y-77770500D01*
X22405500Y-76097648D01*
X33749500Y-76097648D01*
X33749500Y-76302351D01*
X33781522Y-76504534D01*
X33844781Y-76699223D01*
X33937715Y-76881613D01*
X34058028Y-77047213D01*
X34202786Y-77191971D01*
X34327280Y-77282419D01*
X34368390Y-77312287D01*
X34441425Y-77349500D01*
X34550776Y-77405218D01*
X34550778Y-77405218D01*
X34550781Y-77405220D01*
X34625507Y-77429500D01*
X34745465Y-77468477D01*
X34846557Y-77484488D01*
X34947648Y-77500500D01*
X34947649Y-77500500D01*
X35152351Y-77500500D01*
X35152352Y-77500500D01*
X35354534Y-77468477D01*
X35549219Y-77405220D01*
X35616491Y-77370943D01*
X48424500Y-77370943D01*
X48424500Y-77529057D01*
X48457041Y-77650500D01*
X48465423Y-77681783D01*
X48465426Y-77681790D01*
X48544475Y-77818709D01*
X48544479Y-77818714D01*
X48544480Y-77818716D01*
X48656284Y-77930520D01*
X48656286Y-77930521D01*
X48656290Y-77930524D01*
X48777492Y-78000499D01*
X48793216Y-78009577D01*
X48945943Y-78050500D01*
X48945945Y-78050500D01*
X49104055Y-78050500D01*
X49104057Y-78050500D01*
X49256784Y-78009577D01*
X49393716Y-77930520D01*
X49505520Y-77818716D01*
X49584577Y-77681784D01*
X49625500Y-77529057D01*
X49625500Y-77370943D01*
X49584577Y-77218216D01*
X49538340Y-77138130D01*
X49505524Y-77081290D01*
X49505518Y-77081282D01*
X49393717Y-76969481D01*
X49393709Y-76969475D01*
X49256790Y-76890426D01*
X49256786Y-76890424D01*
X49256784Y-76890423D01*
X49104057Y-76849500D01*
X48945943Y-76849500D01*
X48793216Y-76890423D01*
X48793209Y-76890426D01*
X48656290Y-76969475D01*
X48656282Y-76969481D01*
X48544481Y-77081282D01*
X48544475Y-77081290D01*
X48465426Y-77218209D01*
X48465423Y-77218216D01*
X48424500Y-77370943D01*
X35616491Y-77370943D01*
X35731610Y-77312287D01*
X35897219Y-77191966D01*
X36041966Y-77047219D01*
X36041968Y-77047215D01*
X36041971Y-77047213D01*
X36094732Y-76974590D01*
X36162287Y-76881610D01*
X36255220Y-76699219D01*
X36318477Y-76504534D01*
X36350500Y-76302352D01*
X36350500Y-76120943D01*
X40324500Y-76120943D01*
X40324500Y-76279056D01*
X40365423Y-76431783D01*
X40365426Y-76431790D01*
X40444475Y-76568709D01*
X40444479Y-76568714D01*
X40444480Y-76568716D01*
X40556284Y-76680520D01*
X40556286Y-76680521D01*
X40556290Y-76680524D01*
X40693209Y-76759573D01*
X40693216Y-76759577D01*
X40845943Y-76800500D01*
X40845945Y-76800500D01*
X41004055Y-76800500D01*
X41004057Y-76800500D01*
X41156784Y-76759577D01*
X41293716Y-76680520D01*
X41405520Y-76568716D01*
X41484577Y-76431784D01*
X41525500Y-76279057D01*
X41525500Y-76120943D01*
X41484577Y-75968216D01*
X41473741Y-75949448D01*
X41405524Y-75831290D01*
X41405518Y-75831282D01*
X41293717Y-75719481D01*
X41293709Y-75719475D01*
X41209648Y-75670943D01*
X47774500Y-75670943D01*
X47774500Y-75829057D01*
X47811788Y-75968216D01*
X47815423Y-75981783D01*
X47815426Y-75981790D01*
X47894475Y-76118709D01*
X47894479Y-76118714D01*
X47894480Y-76118716D01*
X48006284Y-76230520D01*
X48006286Y-76230521D01*
X48006290Y-76230524D01*
X48090353Y-76279057D01*
X48143216Y-76309577D01*
X48295943Y-76350500D01*
X48295945Y-76350500D01*
X48454055Y-76350500D01*
X48454057Y-76350500D01*
X48606784Y-76309577D01*
X48743716Y-76230520D01*
X48855520Y-76118716D01*
X48934577Y-75981784D01*
X48975500Y-75829057D01*
X48975500Y-75670943D01*
X48934577Y-75518216D01*
X48925418Y-75502352D01*
X48855524Y-75381290D01*
X48855518Y-75381282D01*
X48771884Y-75297648D01*
X76749500Y-75297648D01*
X76749500Y-75502351D01*
X76781522Y-75704534D01*
X76844781Y-75899223D01*
X76937715Y-76081613D01*
X77058028Y-76247213D01*
X77202786Y-76391971D01*
X77326202Y-76481636D01*
X77368390Y-76512287D01*
X77479124Y-76568709D01*
X77550776Y-76605218D01*
X77550778Y-76605218D01*
X77550781Y-76605220D01*
X77630998Y-76631284D01*
X77745465Y-76668477D01*
X77846557Y-76684488D01*
X77947648Y-76700500D01*
X77947649Y-76700500D01*
X78152351Y-76700500D01*
X78152352Y-76700500D01*
X78354534Y-76668477D01*
X78549219Y-76605220D01*
X78731610Y-76512287D01*
X78842415Y-76431783D01*
X78897213Y-76391971D01*
X78897215Y-76391968D01*
X78897219Y-76391966D01*
X79041966Y-76247219D01*
X79041968Y-76247215D01*
X79041971Y-76247213D01*
X79094732Y-76174590D01*
X79162287Y-76081610D01*
X79255220Y-75899219D01*
X79318477Y-75704534D01*
X79350500Y-75502352D01*
X79350500Y-75297648D01*
X79336305Y-75208028D01*
X79318477Y-75095465D01*
X79272685Y-74954534D01*
X79255220Y-74900781D01*
X79255218Y-74900778D01*
X79255218Y-74900776D01*
X79205516Y-74803232D01*
X79162287Y-74718390D01*
X79130862Y-74675137D01*
X79041971Y-74552786D01*
X78897213Y-74408028D01*
X78731613Y-74287715D01*
X78731612Y-74287714D01*
X78731610Y-74287713D01*
X78656601Y-74249494D01*
X78549223Y-74194781D01*
X78354534Y-74131522D01*
X78174412Y-74102994D01*
X78152352Y-74099500D01*
X77947648Y-74099500D01*
X77925588Y-74102994D01*
X77745465Y-74131522D01*
X77550776Y-74194781D01*
X77368386Y-74287715D01*
X77202786Y-74408028D01*
X77058028Y-74552786D01*
X76937715Y-74718386D01*
X76844781Y-74900776D01*
X76781522Y-75095465D01*
X76749500Y-75297648D01*
X48771884Y-75297648D01*
X48743717Y-75269481D01*
X48743709Y-75269475D01*
X48606790Y-75190426D01*
X48606786Y-75190424D01*
X48606784Y-75190423D01*
X48454057Y-75149500D01*
X48295943Y-75149500D01*
X48143216Y-75190423D01*
X48143209Y-75190426D01*
X48006290Y-75269475D01*
X48006282Y-75269481D01*
X47894481Y-75381282D01*
X47894475Y-75381290D01*
X47815426Y-75518209D01*
X47815423Y-75518216D01*
X47774500Y-75670943D01*
X41209648Y-75670943D01*
X41156790Y-75640426D01*
X41156786Y-75640424D01*
X41156784Y-75640423D01*
X41004057Y-75599500D01*
X40845943Y-75599500D01*
X40693216Y-75640423D01*
X40693209Y-75640426D01*
X40556290Y-75719475D01*
X40556282Y-75719481D01*
X40444481Y-75831282D01*
X40444475Y-75831290D01*
X40365426Y-75968209D01*
X40365423Y-75968216D01*
X40324500Y-76120943D01*
X36350500Y-76120943D01*
X36350500Y-76097648D01*
X36332149Y-75981784D01*
X36318477Y-75895465D01*
X36289127Y-75805137D01*
X36255220Y-75700781D01*
X36255218Y-75700778D01*
X36255218Y-75700776D01*
X36213733Y-75619358D01*
X36162287Y-75518390D01*
X36150634Y-75502351D01*
X36041971Y-75352786D01*
X35897213Y-75208028D01*
X35731613Y-75087715D01*
X35731612Y-75087714D01*
X35731610Y-75087713D01*
X35669378Y-75056004D01*
X35549223Y-74994781D01*
X35354534Y-74931522D01*
X35179995Y-74903878D01*
X35152352Y-74899500D01*
X34947648Y-74899500D01*
X34923329Y-74903351D01*
X34745465Y-74931522D01*
X34550776Y-74994781D01*
X34368386Y-75087715D01*
X34202786Y-75208028D01*
X34058028Y-75352786D01*
X33937715Y-75518386D01*
X33844781Y-75700776D01*
X33781522Y-75895465D01*
X33749500Y-76097648D01*
X22405500Y-76097648D01*
X22405500Y-73170943D01*
X67199500Y-73170943D01*
X67199500Y-73329057D01*
X67223525Y-73418717D01*
X67240423Y-73481783D01*
X67240426Y-73481790D01*
X67319475Y-73618709D01*
X67319479Y-73618714D01*
X67319480Y-73618716D01*
X67431284Y-73730520D01*
X67431286Y-73730521D01*
X67431290Y-73730524D01*
X67568209Y-73809573D01*
X67568216Y-73809577D01*
X67720943Y-73850500D01*
X67720945Y-73850500D01*
X67879055Y-73850500D01*
X67879057Y-73850500D01*
X68031784Y-73809577D01*
X68168716Y-73730520D01*
X68280520Y-73618716D01*
X68359577Y-73481784D01*
X68400500Y-73329057D01*
X68400500Y-73170943D01*
X68359577Y-73018216D01*
X68332285Y-72970945D01*
X68332284Y-72970943D01*
X70709500Y-72970943D01*
X70709500Y-73129057D01*
X70736706Y-73230589D01*
X70750423Y-73281783D01*
X70750426Y-73281790D01*
X70829475Y-73418709D01*
X70829479Y-73418714D01*
X70829480Y-73418716D01*
X70941284Y-73530520D01*
X70941286Y-73530521D01*
X70941290Y-73530524D01*
X71078209Y-73609573D01*
X71078216Y-73609577D01*
X71230943Y-73650500D01*
X71230945Y-73650500D01*
X71389055Y-73650500D01*
X71389057Y-73650500D01*
X71541784Y-73609577D01*
X71678716Y-73530520D01*
X71790520Y-73418716D01*
X71869577Y-73281784D01*
X71910500Y-73129057D01*
X71910500Y-72970943D01*
X71869577Y-72818216D01*
X71841437Y-72769475D01*
X71790524Y-72681290D01*
X71790518Y-72681282D01*
X71678717Y-72569481D01*
X71678709Y-72569475D01*
X71541790Y-72490426D01*
X71541786Y-72490424D01*
X71541784Y-72490423D01*
X71389057Y-72449500D01*
X71230943Y-72449500D01*
X71078216Y-72490423D01*
X71078209Y-72490426D01*
X70941290Y-72569475D01*
X70941282Y-72569481D01*
X70829481Y-72681282D01*
X70829475Y-72681290D01*
X70750426Y-72818209D01*
X70750423Y-72818216D01*
X70709500Y-72970943D01*
X68332284Y-72970943D01*
X68280522Y-72881287D01*
X68280518Y-72881282D01*
X68168717Y-72769481D01*
X68168709Y-72769475D01*
X68031790Y-72690426D01*
X68031786Y-72690424D01*
X68031784Y-72690423D01*
X67879057Y-72649500D01*
X67720943Y-72649500D01*
X67568216Y-72690423D01*
X67568209Y-72690426D01*
X67431290Y-72769475D01*
X67431282Y-72769481D01*
X67319481Y-72881282D01*
X67319475Y-72881290D01*
X67240426Y-73018209D01*
X67240426Y-73018210D01*
X67240423Y-73018216D01*
X67199500Y-73170943D01*
X22405500Y-73170943D01*
X22405500Y-69220943D01*
X35174500Y-69220943D01*
X35174500Y-69379057D01*
X35215289Y-69531282D01*
X35215423Y-69531783D01*
X35215426Y-69531790D01*
X35294475Y-69668709D01*
X35294481Y-69668717D01*
X35412031Y-69786267D01*
X35409849Y-69788448D01*
X35442424Y-69833093D01*
X35446554Y-69902840D01*
X35412321Y-69963749D01*
X35410030Y-69965733D01*
X35294481Y-70081282D01*
X35294475Y-70081290D01*
X35215426Y-70218209D01*
X35215423Y-70218216D01*
X35174500Y-70370943D01*
X35174500Y-70529057D01*
X35209727Y-70660524D01*
X35215423Y-70681783D01*
X35215426Y-70681790D01*
X35294475Y-70818709D01*
X35294479Y-70818714D01*
X35294480Y-70818716D01*
X35406284Y-70930520D01*
X35406286Y-70930521D01*
X35406290Y-70930524D01*
X35543209Y-71009573D01*
X35543216Y-71009577D01*
X35695943Y-71050500D01*
X35695945Y-71050500D01*
X35854055Y-71050500D01*
X35854057Y-71050500D01*
X36006784Y-71009577D01*
X36143716Y-70930520D01*
X36255520Y-70818716D01*
X36334577Y-70681784D01*
X36375500Y-70529057D01*
X36375500Y-70370943D01*
X36334577Y-70218216D01*
X36264968Y-70097648D01*
X50349500Y-70097648D01*
X50349500Y-70302351D01*
X50381522Y-70504534D01*
X50444781Y-70699223D01*
X50487193Y-70782459D01*
X50531519Y-70869454D01*
X50537715Y-70881613D01*
X50658028Y-71047213D01*
X50802786Y-71191971D01*
X50952165Y-71300499D01*
X50968390Y-71312287D01*
X51080820Y-71369573D01*
X51150776Y-71405218D01*
X51150778Y-71405218D01*
X51150781Y-71405220D01*
X51255137Y-71439127D01*
X51345465Y-71468477D01*
X51446557Y-71484488D01*
X51547648Y-71500500D01*
X51547649Y-71500500D01*
X51752351Y-71500500D01*
X51752352Y-71500500D01*
X51954534Y-71468477D01*
X52149219Y-71405220D01*
X52331610Y-71312287D01*
X52424590Y-71244732D01*
X52497213Y-71191971D01*
X52497215Y-71191968D01*
X52497219Y-71191966D01*
X52641966Y-71047219D01*
X52641968Y-71047215D01*
X52641971Y-71047213D01*
X52725829Y-70931790D01*
X52762287Y-70881610D01*
X52855220Y-70699219D01*
X52918477Y-70504534D01*
X52950500Y-70302352D01*
X52950500Y-70097648D01*
X52926831Y-69948209D01*
X52918477Y-69895465D01*
X52878758Y-69773223D01*
X52855220Y-69700781D01*
X52855218Y-69700778D01*
X52855218Y-69700776D01*
X52793424Y-69579500D01*
X52762287Y-69518390D01*
X52754556Y-69507749D01*
X52641971Y-69352786D01*
X52497215Y-69208030D01*
X52377348Y-69120943D01*
X55399500Y-69120943D01*
X55399500Y-69279057D01*
X55437127Y-69419481D01*
X55440423Y-69431783D01*
X55440426Y-69431790D01*
X55519475Y-69568709D01*
X55519479Y-69568714D01*
X55519480Y-69568716D01*
X55631284Y-69680520D01*
X55631286Y-69680521D01*
X55631290Y-69680524D01*
X55768209Y-69759573D01*
X55768216Y-69759577D01*
X55920943Y-69800500D01*
X55920945Y-69800500D01*
X56075500Y-69800500D01*
X56142539Y-69820185D01*
X56188294Y-69872989D01*
X56199500Y-69924500D01*
X56199500Y-69979057D01*
X56234235Y-70108688D01*
X56240423Y-70131783D01*
X56240426Y-70131790D01*
X56319475Y-70268709D01*
X56319479Y-70268714D01*
X56319480Y-70268716D01*
X56431284Y-70380520D01*
X56431286Y-70380521D01*
X56431290Y-70380524D01*
X56547776Y-70447776D01*
X56568216Y-70459577D01*
X56720943Y-70500500D01*
X56720945Y-70500500D01*
X56875500Y-70500500D01*
X56942539Y-70520185D01*
X56988294Y-70572989D01*
X56999500Y-70624500D01*
X56999500Y-70779057D01*
X57040086Y-70930524D01*
X57040423Y-70931783D01*
X57040426Y-70931790D01*
X57119475Y-71068709D01*
X57119479Y-71068714D01*
X57119480Y-71068716D01*
X57231284Y-71180520D01*
X57231286Y-71180521D01*
X57231290Y-71180524D01*
X57368209Y-71259573D01*
X57368216Y-71259577D01*
X57520943Y-71300500D01*
X57520945Y-71300500D01*
X57679055Y-71300500D01*
X57679057Y-71300500D01*
X57831784Y-71259577D01*
X57968716Y-71180520D01*
X58080520Y-71068716D01*
X58159577Y-70931784D01*
X58200500Y-70779057D01*
X58200500Y-70730943D01*
X64549500Y-70730943D01*
X64549500Y-70889057D01*
X64560951Y-70931790D01*
X64590423Y-71041783D01*
X64590426Y-71041790D01*
X64669475Y-71178709D01*
X64669479Y-71178714D01*
X64669480Y-71178716D01*
X64781284Y-71290520D01*
X64781286Y-71290521D01*
X64781290Y-71290524D01*
X64918209Y-71369573D01*
X64918216Y-71369577D01*
X65070943Y-71410500D01*
X65070945Y-71410500D01*
X65229055Y-71410500D01*
X65229057Y-71410500D01*
X65381784Y-71369577D01*
X65518716Y-71290520D01*
X65630520Y-71178716D01*
X65709577Y-71041784D01*
X65750500Y-70889057D01*
X65750500Y-70889050D01*
X65750894Y-70886058D01*
X65751932Y-70883710D01*
X65752603Y-70881207D01*
X65752993Y-70881311D01*
X65779155Y-70822159D01*
X65837477Y-70783684D01*
X65841741Y-70782459D01*
X65849052Y-70780500D01*
X65849057Y-70780500D01*
X66001784Y-70739577D01*
X66138716Y-70660520D01*
X66250520Y-70548716D01*
X66329577Y-70411784D01*
X66370500Y-70259057D01*
X66370500Y-70100943D01*
X66329577Y-69948216D01*
X66308464Y-69911647D01*
X66250524Y-69811290D01*
X66250518Y-69811282D01*
X66138717Y-69699481D01*
X66138709Y-69699475D01*
X66001790Y-69620426D01*
X66001786Y-69620424D01*
X66001784Y-69620423D01*
X65849057Y-69579500D01*
X65690943Y-69579500D01*
X65538216Y-69620423D01*
X65538209Y-69620426D01*
X65401290Y-69699475D01*
X65401282Y-69699481D01*
X65289481Y-69811282D01*
X65289475Y-69811290D01*
X65210426Y-69948209D01*
X65210423Y-69948216D01*
X65169500Y-70100943D01*
X65169104Y-70103953D01*
X65168063Y-70106303D01*
X65167397Y-70108793D01*
X65167008Y-70108688D01*
X65140836Y-70167849D01*
X65082510Y-70206319D01*
X65078259Y-70207540D01*
X65070944Y-70209500D01*
X65070943Y-70209500D01*
X65019291Y-70223339D01*
X64918214Y-70250423D01*
X64918209Y-70250426D01*
X64781290Y-70329475D01*
X64781282Y-70329481D01*
X64669481Y-70441282D01*
X64669475Y-70441290D01*
X64590426Y-70578209D01*
X64590423Y-70578216D01*
X64549500Y-70730943D01*
X58200500Y-70730943D01*
X58200500Y-70620943D01*
X58159577Y-70468216D01*
X58147776Y-70447776D01*
X58080524Y-70331290D01*
X58080518Y-70331282D01*
X57968717Y-70219481D01*
X57968709Y-70219475D01*
X57831790Y-70140426D01*
X57831786Y-70140424D01*
X57831784Y-70140423D01*
X57679057Y-70099500D01*
X57524500Y-70099500D01*
X57457461Y-70079815D01*
X57411706Y-70027011D01*
X57400500Y-69975500D01*
X57400500Y-69820945D01*
X57400500Y-69820943D01*
X57359577Y-69668216D01*
X57309152Y-69580876D01*
X57280524Y-69531290D01*
X57280518Y-69531282D01*
X57168717Y-69419481D01*
X57168709Y-69419475D01*
X57031790Y-69340426D01*
X57031786Y-69340424D01*
X57031784Y-69340423D01*
X56879057Y-69299500D01*
X56724500Y-69299500D01*
X56657461Y-69279815D01*
X56611706Y-69227011D01*
X56600500Y-69175500D01*
X56600500Y-69120945D01*
X56600500Y-69120943D01*
X56559577Y-68968216D01*
X56559573Y-68968209D01*
X56480524Y-68831290D01*
X56480518Y-68831282D01*
X56368717Y-68719481D01*
X56368709Y-68719475D01*
X56231790Y-68640426D01*
X56231786Y-68640424D01*
X56231784Y-68640423D01*
X56079057Y-68599500D01*
X55920943Y-68599500D01*
X55768216Y-68640423D01*
X55768209Y-68640426D01*
X55631290Y-68719475D01*
X55631282Y-68719481D01*
X55519481Y-68831282D01*
X55519475Y-68831290D01*
X55440426Y-68968209D01*
X55440423Y-68968216D01*
X55399500Y-69120943D01*
X52377348Y-69120943D01*
X52331613Y-69087715D01*
X52331612Y-69087714D01*
X52331610Y-69087713D01*
X52274653Y-69058691D01*
X52149223Y-68994781D01*
X51954534Y-68931522D01*
X51779995Y-68903878D01*
X51752352Y-68899500D01*
X51547648Y-68899500D01*
X51523329Y-68903351D01*
X51345465Y-68931522D01*
X51150776Y-68994781D01*
X50968386Y-69087715D01*
X50802786Y-69208028D01*
X50658028Y-69352786D01*
X50537715Y-69518386D01*
X50444781Y-69700776D01*
X50381522Y-69895465D01*
X50349500Y-70097648D01*
X36264968Y-70097648D01*
X36255520Y-70081284D01*
X36143716Y-69969480D01*
X36137969Y-69963733D01*
X36140155Y-69961546D01*
X36107590Y-69916948D01*
X36103435Y-69847202D01*
X36137647Y-69786282D01*
X36139946Y-69784289D01*
X36143713Y-69780521D01*
X36143716Y-69780520D01*
X36255520Y-69668716D01*
X36334577Y-69531784D01*
X36375500Y-69379057D01*
X36375500Y-69220943D01*
X36334577Y-69068216D01*
X36312816Y-69030524D01*
X36255524Y-68931290D01*
X36255518Y-68931282D01*
X36143717Y-68819481D01*
X36143709Y-68819475D01*
X36006790Y-68740426D01*
X36006786Y-68740424D01*
X36006784Y-68740423D01*
X35854057Y-68699500D01*
X35695943Y-68699500D01*
X35543216Y-68740423D01*
X35543209Y-68740426D01*
X35406290Y-68819475D01*
X35406282Y-68819481D01*
X35294481Y-68931282D01*
X35294475Y-68931290D01*
X35215426Y-69068209D01*
X35215423Y-69068216D01*
X35174500Y-69220943D01*
X22405500Y-69220943D01*
X22405500Y-68520943D01*
X59974500Y-68520943D01*
X59974500Y-68679057D01*
X60015289Y-68831282D01*
X60015423Y-68831783D01*
X60015426Y-68831790D01*
X60094475Y-68968709D01*
X60094479Y-68968714D01*
X60094480Y-68968716D01*
X60206284Y-69080520D01*
X60206286Y-69080521D01*
X60206290Y-69080524D01*
X60327492Y-69150499D01*
X60343216Y-69159577D01*
X60495943Y-69200500D01*
X60495945Y-69200500D01*
X60654055Y-69200500D01*
X60654057Y-69200500D01*
X60806784Y-69159577D01*
X60943716Y-69080520D01*
X61055520Y-68968716D01*
X61134577Y-68831784D01*
X61175500Y-68679057D01*
X61175500Y-68520943D01*
X61134577Y-68368216D01*
X61102285Y-68312284D01*
X61055524Y-68231290D01*
X61055518Y-68231282D01*
X60943717Y-68119481D01*
X60943709Y-68119475D01*
X60806790Y-68040426D01*
X60806786Y-68040424D01*
X60806784Y-68040423D01*
X60654057Y-67999500D01*
X60495943Y-67999500D01*
X60343216Y-68040423D01*
X60343209Y-68040426D01*
X60206290Y-68119475D01*
X60206282Y-68119481D01*
X60094481Y-68231282D01*
X60094475Y-68231290D01*
X60015426Y-68368209D01*
X60015423Y-68368216D01*
X59974500Y-68520943D01*
X22405500Y-68520943D01*
X22405500Y-67097648D01*
X45049500Y-67097648D01*
X45049500Y-67302351D01*
X45081522Y-67504534D01*
X45144781Y-67699223D01*
X45237715Y-67881613D01*
X45358028Y-68047213D01*
X45502786Y-68191971D01*
X45657749Y-68304556D01*
X45668390Y-68312287D01*
X45750598Y-68354174D01*
X45850776Y-68405218D01*
X45850778Y-68405218D01*
X45850781Y-68405220D01*
X45955137Y-68439127D01*
X46045465Y-68468477D01*
X46146557Y-68484488D01*
X46247648Y-68500500D01*
X46247649Y-68500500D01*
X46452351Y-68500500D01*
X46452352Y-68500500D01*
X46654534Y-68468477D01*
X46849219Y-68405220D01*
X47031610Y-68312287D01*
X47148989Y-68227007D01*
X47197213Y-68191971D01*
X47197215Y-68191968D01*
X47197219Y-68191966D01*
X47341966Y-68047219D01*
X47341968Y-68047215D01*
X47341971Y-68047213D01*
X47394732Y-67974590D01*
X47462287Y-67881610D01*
X47555220Y-67699219D01*
X47618477Y-67504534D01*
X47650500Y-67302352D01*
X47650500Y-67097648D01*
X47630432Y-66970943D01*
X47618477Y-66895465D01*
X47555218Y-66700776D01*
X47488319Y-66569481D01*
X47462287Y-66518390D01*
X47412032Y-66449219D01*
X47341971Y-66352786D01*
X47197213Y-66208028D01*
X47031613Y-66087715D01*
X47031612Y-66087714D01*
X47031610Y-66087713D01*
X46962208Y-66052351D01*
X46849223Y-65994781D01*
X46654534Y-65931522D01*
X46479995Y-65903878D01*
X46452352Y-65899500D01*
X46247648Y-65899500D01*
X46223329Y-65903351D01*
X46045465Y-65931522D01*
X45850776Y-65994781D01*
X45668386Y-66087715D01*
X45502786Y-66208028D01*
X45358028Y-66352786D01*
X45237715Y-66518386D01*
X45144781Y-66700776D01*
X45081522Y-66895465D01*
X45049500Y-67097648D01*
X22405500Y-67097648D01*
X22405500Y-63120943D01*
X46999500Y-63120943D01*
X46999500Y-63279056D01*
X47040423Y-63431783D01*
X47040426Y-63431790D01*
X47119475Y-63568709D01*
X47119479Y-63568714D01*
X47119480Y-63568716D01*
X47231284Y-63680520D01*
X47231286Y-63680521D01*
X47231290Y-63680524D01*
X47368209Y-63759573D01*
X47368216Y-63759577D01*
X47445278Y-63780225D01*
X47504937Y-63816590D01*
X47535466Y-63879437D01*
X47527171Y-63948813D01*
X47482686Y-64002691D01*
X47445279Y-64019774D01*
X47412615Y-64028526D01*
X47368214Y-64040423D01*
X47368209Y-64040426D01*
X47231290Y-64119475D01*
X47231282Y-64119481D01*
X47119481Y-64231282D01*
X47119475Y-64231290D01*
X47040426Y-64368209D01*
X47040423Y-64368216D01*
X46999500Y-64520943D01*
X46999500Y-64679057D01*
X47034473Y-64809576D01*
X47040423Y-64831783D01*
X47040423Y-64831784D01*
X47101746Y-64938001D01*
X47118217Y-65005902D01*
X47101746Y-65061999D01*
X47040423Y-65168215D01*
X47040423Y-65168216D01*
X46999500Y-65320943D01*
X46999500Y-65479056D01*
X47040423Y-65631783D01*
X47040426Y-65631790D01*
X47119475Y-65768709D01*
X47119477Y-65768711D01*
X47119480Y-65768716D01*
X47231284Y-65880520D01*
X47231286Y-65880521D01*
X47231290Y-65880524D01*
X47368209Y-65959573D01*
X47368216Y-65959577D01*
X47520943Y-66000500D01*
X47520945Y-66000500D01*
X47679055Y-66000500D01*
X47679057Y-66000500D01*
X47831784Y-65959577D01*
X47968716Y-65880520D01*
X48001588Y-65847648D01*
X52749500Y-65847648D01*
X52749500Y-66052351D01*
X52781522Y-66254534D01*
X52844781Y-66449223D01*
X52937715Y-66631613D01*
X53058028Y-66797213D01*
X53202786Y-66941971D01*
X53326845Y-67032103D01*
X53368390Y-67062287D01*
X53484607Y-67121503D01*
X53550776Y-67155218D01*
X53550778Y-67155218D01*
X53550781Y-67155220D01*
X53655137Y-67189127D01*
X53745465Y-67218477D01*
X53846557Y-67234488D01*
X53947648Y-67250500D01*
X53947649Y-67250500D01*
X54152351Y-67250500D01*
X54152352Y-67250500D01*
X54354534Y-67218477D01*
X54549219Y-67155220D01*
X54731610Y-67062287D01*
X54754106Y-67045943D01*
X61474500Y-67045943D01*
X61474500Y-67204057D01*
X61495329Y-67281790D01*
X61515423Y-67356783D01*
X61515426Y-67356790D01*
X61594475Y-67493709D01*
X61594479Y-67493714D01*
X61594480Y-67493716D01*
X61706284Y-67605520D01*
X61706286Y-67605521D01*
X61706290Y-67605524D01*
X61784192Y-67650500D01*
X61843216Y-67684577D01*
X61995943Y-67725500D01*
X61995945Y-67725500D01*
X62154055Y-67725500D01*
X62154057Y-67725500D01*
X62306784Y-67684577D01*
X62443716Y-67605520D01*
X62555520Y-67493716D01*
X62634577Y-67356784D01*
X62675500Y-67204057D01*
X62675500Y-67045943D01*
X62649792Y-66950000D01*
X63449999Y-66950000D01*
X65782444Y-69332072D01*
X65782445Y-69332072D01*
X65800000Y-69350000D01*
X66658127Y-68470943D01*
X75149500Y-68470943D01*
X75149500Y-68629057D01*
X75179341Y-68740423D01*
X75190423Y-68781783D01*
X75190426Y-68781790D01*
X75269475Y-68918709D01*
X75269479Y-68918714D01*
X75269480Y-68918716D01*
X75381284Y-69030520D01*
X75381286Y-69030521D01*
X75381290Y-69030524D01*
X75518209Y-69109573D01*
X75518216Y-69109577D01*
X75670943Y-69150500D01*
X75670945Y-69150500D01*
X75829055Y-69150500D01*
X75829057Y-69150500D01*
X75981784Y-69109577D01*
X76118716Y-69030520D01*
X76230520Y-68918716D01*
X76309577Y-68781784D01*
X76350500Y-68629057D01*
X76350500Y-68470943D01*
X76309577Y-68318216D01*
X76259391Y-68231290D01*
X76230524Y-68181290D01*
X76230518Y-68181282D01*
X76118717Y-68069481D01*
X76118709Y-68069475D01*
X75981790Y-67990426D01*
X75981786Y-67990424D01*
X75981784Y-67990423D01*
X75829057Y-67949500D01*
X75670943Y-67949500D01*
X75518216Y-67990423D01*
X75518209Y-67990426D01*
X75381290Y-68069475D01*
X75381282Y-68069481D01*
X75269481Y-68181282D01*
X75269475Y-68181290D01*
X75190426Y-68318209D01*
X75190423Y-68318216D01*
X75149500Y-68470943D01*
X66658127Y-68470943D01*
X67850000Y-67250000D01*
X67812004Y-67212812D01*
X67647119Y-67051435D01*
X67564877Y-66970943D01*
X75149500Y-66970943D01*
X75149500Y-67129057D01*
X75182041Y-67250500D01*
X75190423Y-67281783D01*
X75190426Y-67281790D01*
X75269475Y-67418709D01*
X75269479Y-67418714D01*
X75269480Y-67418716D01*
X75381284Y-67530520D01*
X75381286Y-67530521D01*
X75381290Y-67530524D01*
X75511189Y-67605520D01*
X75518216Y-67609577D01*
X75670943Y-67650500D01*
X75670945Y-67650500D01*
X75829055Y-67650500D01*
X75829057Y-67650500D01*
X75981784Y-67609577D01*
X76118716Y-67530520D01*
X76230520Y-67418716D01*
X76309577Y-67281784D01*
X76350500Y-67129057D01*
X76350500Y-66970943D01*
X76309577Y-66818216D01*
X76309573Y-66818209D01*
X76230524Y-66681290D01*
X76230518Y-66681282D01*
X76118717Y-66569481D01*
X76118709Y-66569475D01*
X75981790Y-66490426D01*
X75981786Y-66490424D01*
X75981784Y-66490423D01*
X75829057Y-66449500D01*
X75670943Y-66449500D01*
X75518216Y-66490423D01*
X75518209Y-66490426D01*
X75381290Y-66569475D01*
X75381282Y-66569481D01*
X75269481Y-66681282D01*
X75269475Y-66681290D01*
X75190426Y-66818209D01*
X75190423Y-66818216D01*
X75149500Y-66970943D01*
X67564877Y-66970943D01*
X65500000Y-64949999D01*
X65499999Y-64949999D01*
X63450000Y-66949999D01*
X63449999Y-66950000D01*
X62649792Y-66950000D01*
X62634577Y-66893216D01*
X62579154Y-66797219D01*
X62555524Y-66756290D01*
X62555518Y-66756282D01*
X62443717Y-66644481D01*
X62443709Y-66644475D01*
X62306790Y-66565426D01*
X62306786Y-66565424D01*
X62306784Y-66565423D01*
X62154057Y-66524500D01*
X61995943Y-66524500D01*
X61843216Y-66565423D01*
X61843209Y-66565426D01*
X61706290Y-66644475D01*
X61706282Y-66644481D01*
X61594481Y-66756282D01*
X61594475Y-66756290D01*
X61515426Y-66893209D01*
X61515423Y-66893216D01*
X61474500Y-67045943D01*
X54754106Y-67045943D01*
X54886161Y-66950000D01*
X54897214Y-66941970D01*
X54897215Y-66941968D01*
X54897219Y-66941966D01*
X55041966Y-66797219D01*
X55041968Y-66797215D01*
X55041971Y-66797213D01*
X55112035Y-66700776D01*
X55162287Y-66631610D01*
X55255220Y-66449219D01*
X55318477Y-66254534D01*
X55350500Y-66052352D01*
X55350500Y-65847648D01*
X55318477Y-65645466D01*
X55314033Y-65631790D01*
X55255218Y-65450776D01*
X55189064Y-65320943D01*
X55162287Y-65268390D01*
X55154556Y-65257749D01*
X55041971Y-65102786D01*
X54897213Y-64958028D01*
X54731613Y-64837715D01*
X54731612Y-64837714D01*
X54731610Y-64837713D01*
X54674653Y-64808691D01*
X54549223Y-64744781D01*
X54354534Y-64681522D01*
X54179995Y-64653878D01*
X54152352Y-64649500D01*
X53947648Y-64649500D01*
X53923329Y-64653351D01*
X53745465Y-64681522D01*
X53550776Y-64744781D01*
X53368386Y-64837715D01*
X53202786Y-64958028D01*
X53058028Y-65102786D01*
X52937715Y-65268386D01*
X52844781Y-65450776D01*
X52781522Y-65645465D01*
X52749500Y-65847648D01*
X48001588Y-65847648D01*
X48080520Y-65768716D01*
X48159577Y-65631784D01*
X48200500Y-65479057D01*
X48200500Y-65320943D01*
X48159577Y-65168216D01*
X48159573Y-65168209D01*
X48098254Y-65061999D01*
X48081781Y-64994099D01*
X48098254Y-64938001D01*
X48148772Y-64850499D01*
X48159577Y-64831784D01*
X48200500Y-64679057D01*
X48200500Y-64520943D01*
X48159577Y-64368216D01*
X48096855Y-64259577D01*
X48080524Y-64231290D01*
X48080518Y-64231282D01*
X47968717Y-64119481D01*
X47968709Y-64119475D01*
X47831790Y-64040426D01*
X47831786Y-64040424D01*
X47831784Y-64040423D01*
X47754721Y-64019774D01*
X47695062Y-63983410D01*
X47664533Y-63920563D01*
X47672828Y-63851188D01*
X47717313Y-63797310D01*
X47754720Y-63780225D01*
X47831784Y-63759577D01*
X47968716Y-63680520D01*
X48028293Y-63620943D01*
X62099500Y-63620943D01*
X62099500Y-63779057D01*
X62137417Y-63920563D01*
X62140423Y-63931783D01*
X62140426Y-63931790D01*
X62219475Y-64068709D01*
X62219479Y-64068714D01*
X62219480Y-64068716D01*
X62331284Y-64180520D01*
X62331286Y-64180521D01*
X62331290Y-64180524D01*
X62419221Y-64231290D01*
X62468216Y-64259577D01*
X62620943Y-64300500D01*
X62620945Y-64300500D01*
X62779055Y-64300500D01*
X62779057Y-64300500D01*
X62931784Y-64259577D01*
X63068716Y-64180520D01*
X63078293Y-64170943D01*
X76199500Y-64170943D01*
X76199500Y-64329056D01*
X76240423Y-64481783D01*
X76240426Y-64481790D01*
X76319475Y-64618709D01*
X76319479Y-64618714D01*
X76319480Y-64618716D01*
X76431284Y-64730520D01*
X76431286Y-64730521D01*
X76431290Y-64730524D01*
X76568209Y-64809573D01*
X76568216Y-64809577D01*
X76720943Y-64850500D01*
X76720945Y-64850500D01*
X76879055Y-64850500D01*
X76879057Y-64850500D01*
X77031784Y-64809577D01*
X77168716Y-64730520D01*
X77280520Y-64618716D01*
X77359577Y-64481784D01*
X77400500Y-64329057D01*
X77400500Y-64170943D01*
X77359577Y-64018216D01*
X77350614Y-64002691D01*
X77280524Y-63881290D01*
X77280518Y-63881282D01*
X77168717Y-63769481D01*
X77168709Y-63769475D01*
X77031790Y-63690426D01*
X77031786Y-63690424D01*
X77031784Y-63690423D01*
X76879057Y-63649500D01*
X76720943Y-63649500D01*
X76568216Y-63690423D01*
X76568209Y-63690426D01*
X76431290Y-63769475D01*
X76431282Y-63769481D01*
X76319481Y-63881282D01*
X76319475Y-63881290D01*
X76240426Y-64018209D01*
X76240423Y-64018216D01*
X76199500Y-64170943D01*
X63078293Y-64170943D01*
X63180520Y-64068716D01*
X63259577Y-63931784D01*
X63300500Y-63779057D01*
X63300500Y-63620943D01*
X63259577Y-63468216D01*
X63238543Y-63431783D01*
X63180524Y-63331290D01*
X63180518Y-63331282D01*
X63068717Y-63219481D01*
X63068709Y-63219475D01*
X62931790Y-63140426D01*
X62931786Y-63140424D01*
X62931784Y-63140423D01*
X62779057Y-63099500D01*
X62620943Y-63099500D01*
X62468216Y-63140423D01*
X62468209Y-63140426D01*
X62331290Y-63219475D01*
X62331282Y-63219481D01*
X62219481Y-63331282D01*
X62219475Y-63331290D01*
X62140426Y-63468209D01*
X62140423Y-63468216D01*
X62099500Y-63620943D01*
X48028293Y-63620943D01*
X48080520Y-63568716D01*
X48084352Y-63562078D01*
X48090855Y-63550816D01*
X48138547Y-63468209D01*
X48159577Y-63431784D01*
X48200500Y-63279057D01*
X48200500Y-63120943D01*
X48159577Y-62968216D01*
X48159573Y-62968209D01*
X48080524Y-62831290D01*
X48080518Y-62831282D01*
X47968717Y-62719481D01*
X47968709Y-62719475D01*
X47831790Y-62640426D01*
X47831786Y-62640424D01*
X47831784Y-62640423D01*
X47679057Y-62599500D01*
X47520943Y-62599500D01*
X47368216Y-62640423D01*
X47368209Y-62640426D01*
X47231290Y-62719475D01*
X47231282Y-62719481D01*
X47119481Y-62831282D01*
X47119475Y-62831290D01*
X47040426Y-62968209D01*
X47040423Y-62968216D01*
X46999500Y-63120943D01*
X22405500Y-63120943D01*
X22405500Y-61348644D01*
X66924500Y-61348644D01*
X66924500Y-61506758D01*
X66955097Y-61620945D01*
X66965423Y-61659484D01*
X66965426Y-61659491D01*
X67044475Y-61796410D01*
X67044479Y-61796415D01*
X67044480Y-61796417D01*
X67156284Y-61908221D01*
X67156286Y-61908222D01*
X67156290Y-61908225D01*
X67246866Y-61960518D01*
X67293216Y-61987278D01*
X67445943Y-62028201D01*
X67445945Y-62028201D01*
X67604055Y-62028201D01*
X67604057Y-62028201D01*
X67631144Y-62020943D01*
X72799500Y-62020943D01*
X72799500Y-62179057D01*
X72833122Y-62304534D01*
X72840423Y-62331783D01*
X72840426Y-62331790D01*
X72919475Y-62468709D01*
X72919479Y-62468714D01*
X72919480Y-62468716D01*
X73031284Y-62580520D01*
X73031286Y-62580521D01*
X73031290Y-62580524D01*
X73135040Y-62640423D01*
X73168216Y-62659577D01*
X73320943Y-62700500D01*
X73320945Y-62700500D01*
X73479055Y-62700500D01*
X73479057Y-62700500D01*
X73631784Y-62659577D01*
X73768716Y-62580520D01*
X73880520Y-62468716D01*
X73959577Y-62331784D01*
X74000500Y-62179057D01*
X74000500Y-62020943D01*
X73959577Y-61868216D01*
X73918125Y-61796418D01*
X73880524Y-61731290D01*
X73880518Y-61731282D01*
X73768717Y-61619481D01*
X73768709Y-61619475D01*
X73631790Y-61540426D01*
X73631786Y-61540424D01*
X73631784Y-61540423D01*
X73479057Y-61499500D01*
X73320943Y-61499500D01*
X73168216Y-61540423D01*
X73168209Y-61540426D01*
X73031290Y-61619475D01*
X73031282Y-61619481D01*
X72919481Y-61731282D01*
X72919475Y-61731290D01*
X72840426Y-61868209D01*
X72840423Y-61868216D01*
X72799500Y-62020943D01*
X67631144Y-62020943D01*
X67756784Y-61987278D01*
X67893716Y-61908221D01*
X68005520Y-61796417D01*
X68084577Y-61659485D01*
X68125500Y-61506758D01*
X68125500Y-61348644D01*
X68084577Y-61195917D01*
X68052538Y-61140423D01*
X68005524Y-61058991D01*
X68005518Y-61058983D01*
X67893717Y-60947182D01*
X67893709Y-60947176D01*
X67756790Y-60868127D01*
X67756786Y-60868125D01*
X67756784Y-60868124D01*
X67604057Y-60827201D01*
X67445943Y-60827201D01*
X67293216Y-60868124D01*
X67293209Y-60868127D01*
X67156290Y-60947176D01*
X67156282Y-60947182D01*
X67044481Y-61058983D01*
X67044475Y-61058991D01*
X66965426Y-61195910D01*
X66965423Y-61195917D01*
X66924500Y-61348644D01*
X22405500Y-61348644D01*
X22405500Y-59620943D01*
X47399500Y-59620943D01*
X47399500Y-59779057D01*
X47427026Y-59881783D01*
X47440423Y-59931783D01*
X47440426Y-59931790D01*
X47519475Y-60068709D01*
X47519479Y-60068714D01*
X47519480Y-60068716D01*
X47631284Y-60180520D01*
X47631286Y-60180521D01*
X47631290Y-60180524D01*
X47752492Y-60250499D01*
X47768216Y-60259577D01*
X47920943Y-60300500D01*
X47920945Y-60300500D01*
X48079055Y-60300500D01*
X48079057Y-60300500D01*
X48231784Y-60259577D01*
X48368716Y-60180520D01*
X48480520Y-60068716D01*
X48508102Y-60020943D01*
X60399500Y-60020943D01*
X60399500Y-60179057D01*
X60432041Y-60300500D01*
X60440423Y-60331783D01*
X60440426Y-60331790D01*
X60519475Y-60468709D01*
X60519479Y-60468714D01*
X60519480Y-60468716D01*
X60631284Y-60580520D01*
X60631286Y-60580521D01*
X60631290Y-60580524D01*
X60768209Y-60659573D01*
X60768216Y-60659577D01*
X60920943Y-60700500D01*
X60920945Y-60700500D01*
X61079055Y-60700500D01*
X61079057Y-60700500D01*
X61231784Y-60659577D01*
X61368716Y-60580520D01*
X61480520Y-60468716D01*
X61559577Y-60331784D01*
X61600500Y-60179057D01*
X61600500Y-60020943D01*
X61559577Y-59868216D01*
X61508101Y-59779056D01*
X61480524Y-59731290D01*
X61480518Y-59731282D01*
X61368717Y-59619481D01*
X61368709Y-59619475D01*
X61231790Y-59540426D01*
X61231786Y-59540424D01*
X61231784Y-59540423D01*
X61079057Y-59499500D01*
X60920943Y-59499500D01*
X60768216Y-59540423D01*
X60768209Y-59540426D01*
X60631290Y-59619475D01*
X60631282Y-59619481D01*
X60519481Y-59731282D01*
X60519475Y-59731290D01*
X60440426Y-59868209D01*
X60440423Y-59868216D01*
X60399500Y-60020943D01*
X48508102Y-60020943D01*
X48559577Y-59931784D01*
X48600500Y-59779057D01*
X48600500Y-59620943D01*
X48559577Y-59468216D01*
X48557130Y-59463978D01*
X48532961Y-59422116D01*
X70649848Y-59422116D01*
X70649848Y-60583383D01*
X70670358Y-60712885D01*
X70670359Y-60712886D01*
X71380496Y-60002750D01*
X71380496Y-60002749D01*
X70670359Y-59292612D01*
X70670358Y-59292613D01*
X70649848Y-59422116D01*
X48532961Y-59422116D01*
X48480524Y-59331290D01*
X48480518Y-59331282D01*
X48368717Y-59219481D01*
X48368709Y-59219475D01*
X48231790Y-59140426D01*
X48231786Y-59140424D01*
X48231784Y-59140423D01*
X48079057Y-59099500D01*
X47920943Y-59099500D01*
X47768216Y-59140423D01*
X47768209Y-59140426D01*
X47631290Y-59219475D01*
X47631282Y-59219481D01*
X47519481Y-59331282D01*
X47519475Y-59331290D01*
X47440426Y-59468209D01*
X47440423Y-59468216D01*
X47399500Y-59620943D01*
X22405500Y-59620943D01*
X22405500Y-58020943D01*
X37974500Y-58020943D01*
X37974500Y-58179057D01*
X38002026Y-58281783D01*
X38015423Y-58331783D01*
X38015426Y-58331790D01*
X38094475Y-58468709D01*
X38094479Y-58468714D01*
X38094480Y-58468716D01*
X38206284Y-58580520D01*
X38206286Y-58580521D01*
X38206290Y-58580524D01*
X38327492Y-58650499D01*
X38343216Y-58659577D01*
X38495943Y-58700500D01*
X38495945Y-58700500D01*
X38654055Y-58700500D01*
X38654057Y-58700500D01*
X38806784Y-58659577D01*
X38943716Y-58580520D01*
X39055520Y-58468716D01*
X39134577Y-58331784D01*
X39175500Y-58179057D01*
X39175500Y-58020943D01*
X39134577Y-57868216D01*
X39097811Y-57804534D01*
X39055524Y-57731290D01*
X39055518Y-57731282D01*
X38943717Y-57619481D01*
X38943709Y-57619475D01*
X38806790Y-57540426D01*
X38806787Y-57540424D01*
X38806784Y-57540423D01*
X38702761Y-57512550D01*
X38683643Y-57507427D01*
X38654057Y-57499500D01*
X38495943Y-57499500D01*
X38343216Y-57540423D01*
X38343209Y-57540426D01*
X38206290Y-57619475D01*
X38206282Y-57619481D01*
X38094481Y-57731282D01*
X38094475Y-57731290D01*
X38015426Y-57868209D01*
X38015423Y-57868216D01*
X37974500Y-58020943D01*
X22405500Y-58020943D01*
X22405500Y-57397648D01*
X43124500Y-57397648D01*
X43124500Y-57602351D01*
X43156522Y-57804534D01*
X43219781Y-57999223D01*
X43281054Y-58119475D01*
X43311412Y-58179057D01*
X43312715Y-58181613D01*
X43433028Y-58347213D01*
X43577786Y-58491971D01*
X43732749Y-58604556D01*
X43743390Y-58612287D01*
X43836194Y-58659573D01*
X43925776Y-58705218D01*
X43925778Y-58705218D01*
X43925781Y-58705220D01*
X44030137Y-58739127D01*
X44120465Y-58768477D01*
X44221557Y-58784488D01*
X44322648Y-58800500D01*
X44322649Y-58800500D01*
X44527351Y-58800500D01*
X44527352Y-58800500D01*
X44729534Y-58768477D01*
X44924219Y-58705220D01*
X45106610Y-58612287D01*
X45219154Y-58530520D01*
X45232336Y-58520943D01*
X55499500Y-58520943D01*
X55499500Y-58679057D01*
X55532212Y-58801138D01*
X55540423Y-58831783D01*
X55540426Y-58831790D01*
X55619475Y-58968709D01*
X55619479Y-58968714D01*
X55619480Y-58968716D01*
X55731284Y-59080520D01*
X55731286Y-59080521D01*
X55731290Y-59080524D01*
X55835040Y-59140423D01*
X55868216Y-59159577D01*
X56020943Y-59200500D01*
X56020945Y-59200500D01*
X56179055Y-59200500D01*
X56179057Y-59200500D01*
X56331784Y-59159577D01*
X56468716Y-59080520D01*
X56580520Y-58968716D01*
X56659577Y-58831784D01*
X56664517Y-58813346D01*
X70898196Y-58813346D01*
X70898196Y-58813347D01*
X71440441Y-59355591D01*
X71426351Y-59379998D01*
X71403848Y-59463978D01*
X71403848Y-60541522D01*
X71426351Y-60625502D01*
X71440441Y-60649907D01*
X70898197Y-61192151D01*
X70898196Y-61192151D01*
X70907065Y-61204358D01*
X71027740Y-61325033D01*
X71027745Y-61325037D01*
X71165799Y-61425338D01*
X71317856Y-61502816D01*
X71480163Y-61555553D01*
X71648715Y-61582250D01*
X71819381Y-61582250D01*
X71987932Y-61555553D01*
X72150239Y-61502816D01*
X72302296Y-61425338D01*
X72335873Y-61400943D01*
X74214500Y-61400943D01*
X74214500Y-61559057D01*
X74255423Y-61711782D01*
X74255423Y-61711783D01*
X74255426Y-61711790D01*
X74334475Y-61848709D01*
X74334479Y-61848714D01*
X74334480Y-61848716D01*
X74446284Y-61960520D01*
X74446286Y-61960521D01*
X74446290Y-61960524D01*
X74550944Y-62020945D01*
X74583216Y-62039577D01*
X74735943Y-62080500D01*
X74735945Y-62080500D01*
X74894055Y-62080500D01*
X74894057Y-62080500D01*
X75046784Y-62039577D01*
X75183716Y-61960520D01*
X75295520Y-61848716D01*
X75369289Y-61720943D01*
X75999500Y-61720943D01*
X75999500Y-61879057D01*
X76028498Y-61987277D01*
X76040423Y-62031783D01*
X76040426Y-62031790D01*
X76119475Y-62168709D01*
X76119479Y-62168714D01*
X76119480Y-62168716D01*
X76231284Y-62280520D01*
X76231286Y-62280521D01*
X76231290Y-62280524D01*
X76320087Y-62331790D01*
X76368216Y-62359577D01*
X76520943Y-62400500D01*
X76520945Y-62400500D01*
X76679055Y-62400500D01*
X76679057Y-62400500D01*
X76831784Y-62359577D01*
X76968716Y-62280520D01*
X77042641Y-62206594D01*
X77103960Y-62173112D01*
X77173652Y-62178096D01*
X77192318Y-62186890D01*
X77318216Y-62259577D01*
X77470943Y-62300500D01*
X77470945Y-62300500D01*
X77629055Y-62300500D01*
X77629057Y-62300500D01*
X77639701Y-62297648D01*
X86449500Y-62297648D01*
X86449500Y-62502351D01*
X86481522Y-62704534D01*
X86544781Y-62899223D01*
X86637715Y-63081613D01*
X86758028Y-63247213D01*
X86902786Y-63391971D01*
X87057749Y-63504556D01*
X87068390Y-63512287D01*
X87179124Y-63568709D01*
X87250776Y-63605218D01*
X87250778Y-63605218D01*
X87250781Y-63605220D01*
X87299178Y-63620945D01*
X87445465Y-63668477D01*
X87546557Y-63684488D01*
X87647648Y-63700500D01*
X87647649Y-63700500D01*
X87852351Y-63700500D01*
X87852352Y-63700500D01*
X88054534Y-63668477D01*
X88249219Y-63605220D01*
X88431610Y-63512287D01*
X88542415Y-63431783D01*
X88597213Y-63391971D01*
X88597215Y-63391968D01*
X88597219Y-63391966D01*
X88741966Y-63247219D01*
X88741968Y-63247215D01*
X88741971Y-63247213D01*
X88819557Y-63140423D01*
X88862287Y-63081610D01*
X88955220Y-62899219D01*
X89018477Y-62704534D01*
X89050500Y-62502352D01*
X89050500Y-62297648D01*
X89032720Y-62185391D01*
X89018477Y-62095465D01*
X88965293Y-61931783D01*
X88955220Y-61900781D01*
X88955218Y-61900778D01*
X88955218Y-61900776D01*
X88902044Y-61796418D01*
X88862287Y-61718390D01*
X88845631Y-61695465D01*
X88741971Y-61552786D01*
X88597213Y-61408028D01*
X88431613Y-61287715D01*
X88431612Y-61287714D01*
X88431610Y-61287713D01*
X88354079Y-61248209D01*
X88249223Y-61194781D01*
X88054534Y-61131522D01*
X87879995Y-61103878D01*
X87852352Y-61099500D01*
X87647648Y-61099500D01*
X87623329Y-61103351D01*
X87445465Y-61131522D01*
X87250776Y-61194781D01*
X87068386Y-61287715D01*
X86902786Y-61408028D01*
X86758028Y-61552786D01*
X86637715Y-61718386D01*
X86544781Y-61900776D01*
X86481522Y-62095465D01*
X86449500Y-62297648D01*
X77639701Y-62297648D01*
X77781784Y-62259577D01*
X77918716Y-62180520D01*
X78030520Y-62068716D01*
X78109577Y-61931784D01*
X78150500Y-61779057D01*
X78150500Y-61620943D01*
X78109577Y-61468216D01*
X78088258Y-61431290D01*
X78030524Y-61331290D01*
X78030518Y-61331282D01*
X77918717Y-61219481D01*
X77918709Y-61219475D01*
X77781790Y-61140426D01*
X77781786Y-61140424D01*
X77781784Y-61140423D01*
X77629057Y-61099500D01*
X77470943Y-61099500D01*
X77318216Y-61140423D01*
X77318209Y-61140426D01*
X77181290Y-61219475D01*
X77181286Y-61219478D01*
X77107361Y-61293403D01*
X77046037Y-61326887D01*
X76976346Y-61321902D01*
X76957681Y-61313109D01*
X76831784Y-61240423D01*
X76753627Y-61219481D01*
X76679057Y-61199500D01*
X76520943Y-61199500D01*
X76368216Y-61240423D01*
X76368209Y-61240426D01*
X76231290Y-61319475D01*
X76231282Y-61319481D01*
X76119481Y-61431282D01*
X76119475Y-61431290D01*
X76040426Y-61568209D01*
X76040423Y-61568216D01*
X75999500Y-61720943D01*
X75369289Y-61720943D01*
X75374577Y-61711784D01*
X75415500Y-61559057D01*
X75415500Y-61400943D01*
X75374577Y-61248216D01*
X75374573Y-61248209D01*
X75295524Y-61111290D01*
X75295518Y-61111282D01*
X75183717Y-60999481D01*
X75183709Y-60999475D01*
X75046790Y-60920426D01*
X75046786Y-60920424D01*
X75046784Y-60920423D01*
X74894057Y-60879500D01*
X74735943Y-60879500D01*
X74583216Y-60920423D01*
X74583209Y-60920426D01*
X74446290Y-60999475D01*
X74446282Y-60999481D01*
X74334481Y-61111282D01*
X74334475Y-61111290D01*
X74255426Y-61248209D01*
X74255423Y-61248216D01*
X74214500Y-61400943D01*
X72335873Y-61400943D01*
X72440350Y-61325037D01*
X72440355Y-61325033D01*
X72561029Y-61204360D01*
X72561029Y-61204359D01*
X72569897Y-61192151D01*
X72027654Y-60649908D01*
X72041745Y-60625502D01*
X72064248Y-60541522D01*
X72064248Y-60002749D01*
X72087600Y-60002749D01*
X72087600Y-60002750D01*
X72797735Y-60712886D01*
X72797736Y-60712885D01*
X72818248Y-60583383D01*
X72818248Y-59422116D01*
X79289852Y-59422116D01*
X79289852Y-60583383D01*
X79310362Y-60712885D01*
X79310363Y-60712886D01*
X80020500Y-60002750D01*
X80020500Y-60002749D01*
X79310363Y-59292612D01*
X79310362Y-59292613D01*
X79289852Y-59422116D01*
X72818248Y-59422116D01*
X72797736Y-59292613D01*
X72087600Y-60002749D01*
X72064248Y-60002749D01*
X72064248Y-59463978D01*
X72041745Y-59379998D01*
X72027654Y-59355591D01*
X72569897Y-58813347D01*
X72569897Y-58813346D01*
X79538200Y-58813346D01*
X79538200Y-58813347D01*
X80080445Y-59355591D01*
X80066355Y-59379998D01*
X80043852Y-59463978D01*
X80043852Y-60541522D01*
X80066355Y-60625502D01*
X80080445Y-60649907D01*
X79538201Y-61192151D01*
X79538200Y-61192151D01*
X79547069Y-61204358D01*
X79667744Y-61325033D01*
X79667749Y-61325037D01*
X79805803Y-61425338D01*
X79957860Y-61502816D01*
X80120167Y-61555553D01*
X80288719Y-61582250D01*
X80459385Y-61582250D01*
X80627936Y-61555553D01*
X80790243Y-61502816D01*
X80942300Y-61425338D01*
X81080354Y-61325037D01*
X81080359Y-61325033D01*
X81201033Y-61204360D01*
X81201033Y-61204359D01*
X81209901Y-61192151D01*
X80667658Y-60649908D01*
X80681749Y-60625502D01*
X80704252Y-60541522D01*
X80704252Y-60002749D01*
X80727604Y-60002749D01*
X80727604Y-60002750D01*
X81437739Y-60712886D01*
X81437740Y-60712885D01*
X81458252Y-60583383D01*
X81458252Y-59620943D01*
X87149500Y-59620943D01*
X87149500Y-59779057D01*
X87177026Y-59881783D01*
X87190423Y-59931783D01*
X87190426Y-59931790D01*
X87269475Y-60068709D01*
X87269479Y-60068714D01*
X87269480Y-60068716D01*
X87381284Y-60180520D01*
X87381286Y-60180521D01*
X87381290Y-60180524D01*
X87502492Y-60250499D01*
X87518216Y-60259577D01*
X87670943Y-60300500D01*
X87670945Y-60300500D01*
X87829055Y-60300500D01*
X87829057Y-60300500D01*
X87981784Y-60259577D01*
X88118716Y-60180520D01*
X88230520Y-60068716D01*
X88309577Y-59931784D01*
X88350500Y-59779057D01*
X88350500Y-59620943D01*
X88309577Y-59468216D01*
X88307130Y-59463978D01*
X88230524Y-59331290D01*
X88230518Y-59331282D01*
X88118717Y-59219481D01*
X88118709Y-59219475D01*
X87981790Y-59140426D01*
X87981786Y-59140424D01*
X87981784Y-59140423D01*
X87829057Y-59099500D01*
X87670943Y-59099500D01*
X87518216Y-59140423D01*
X87518209Y-59140426D01*
X87381290Y-59219475D01*
X87381282Y-59219481D01*
X87269481Y-59331282D01*
X87269475Y-59331290D01*
X87190426Y-59468209D01*
X87190423Y-59468216D01*
X87149500Y-59620943D01*
X81458252Y-59620943D01*
X81458252Y-59422116D01*
X81437740Y-59292613D01*
X80727604Y-60002749D01*
X80704252Y-60002749D01*
X80704252Y-59463978D01*
X80681749Y-59379998D01*
X80667658Y-59355591D01*
X81209901Y-58813347D01*
X81209901Y-58813346D01*
X81201034Y-58801142D01*
X81201032Y-58801139D01*
X81080359Y-58680466D01*
X81080354Y-58680462D01*
X80942300Y-58580161D01*
X80790243Y-58502683D01*
X80627936Y-58449946D01*
X80459385Y-58423250D01*
X80288719Y-58423250D01*
X80120167Y-58449946D01*
X79957860Y-58502683D01*
X79805803Y-58580161D01*
X79667749Y-58680462D01*
X79667744Y-58680466D01*
X79547072Y-58801138D01*
X79547064Y-58801147D01*
X79538200Y-58813346D01*
X72569897Y-58813346D01*
X72561030Y-58801142D01*
X72561028Y-58801139D01*
X72440355Y-58680466D01*
X72440350Y-58680462D01*
X72302296Y-58580161D01*
X72150239Y-58502683D01*
X71987932Y-58449946D01*
X71819381Y-58423250D01*
X71648715Y-58423250D01*
X71480163Y-58449946D01*
X71317856Y-58502683D01*
X71165799Y-58580161D01*
X71027745Y-58680462D01*
X71027740Y-58680466D01*
X70907068Y-58801138D01*
X70907060Y-58801147D01*
X70898196Y-58813346D01*
X56664517Y-58813346D01*
X56700500Y-58679057D01*
X56700500Y-58520943D01*
X56659577Y-58368216D01*
X56659573Y-58368209D01*
X56580524Y-58231290D01*
X56580518Y-58231282D01*
X56468717Y-58119481D01*
X56468716Y-58119480D01*
X56331784Y-58040423D01*
X56179057Y-57999500D01*
X56020943Y-57999500D01*
X55868216Y-58040423D01*
X55868209Y-58040426D01*
X55731290Y-58119475D01*
X55731282Y-58119481D01*
X55619481Y-58231282D01*
X55619475Y-58231290D01*
X55540426Y-58368209D01*
X55540423Y-58368216D01*
X55499500Y-58520943D01*
X45232336Y-58520943D01*
X45272213Y-58491971D01*
X45272215Y-58491968D01*
X45272219Y-58491966D01*
X45416966Y-58347219D01*
X45416968Y-58347215D01*
X45416971Y-58347213D01*
X45469732Y-58274590D01*
X45537287Y-58181610D01*
X45630220Y-57999219D01*
X45639407Y-57970943D01*
X74199500Y-57970943D01*
X74199500Y-58129057D01*
X74213583Y-58181613D01*
X74240423Y-58281783D01*
X74240426Y-58281790D01*
X74319475Y-58418709D01*
X74319479Y-58418714D01*
X74319480Y-58418716D01*
X74431284Y-58530520D01*
X74431286Y-58530521D01*
X74431290Y-58530524D01*
X74517887Y-58580520D01*
X74568216Y-58609577D01*
X74720943Y-58650500D01*
X74720945Y-58650500D01*
X74879055Y-58650500D01*
X74879057Y-58650500D01*
X75031784Y-58609577D01*
X75168716Y-58530520D01*
X75212319Y-58486917D01*
X75273642Y-58453432D01*
X75343334Y-58458416D01*
X75387681Y-58486917D01*
X75431284Y-58530520D01*
X75431286Y-58530521D01*
X75431290Y-58530524D01*
X75517887Y-58580520D01*
X75568216Y-58609577D01*
X75720943Y-58650500D01*
X75720945Y-58650500D01*
X75879055Y-58650500D01*
X75879057Y-58650500D01*
X76031784Y-58609577D01*
X76168716Y-58530520D01*
X76280520Y-58418716D01*
X76359577Y-58281784D01*
X76400500Y-58129057D01*
X76400500Y-57970943D01*
X76359577Y-57818216D01*
X76309391Y-57731290D01*
X76280524Y-57681290D01*
X76280518Y-57681282D01*
X76168717Y-57569481D01*
X76168709Y-57569475D01*
X76031790Y-57490426D01*
X76031786Y-57490424D01*
X76031784Y-57490423D01*
X75879057Y-57449500D01*
X75720943Y-57449500D01*
X75568216Y-57490423D01*
X75568209Y-57490426D01*
X75431290Y-57569475D01*
X75431282Y-57569481D01*
X75387681Y-57613083D01*
X75326358Y-57646568D01*
X75256666Y-57641584D01*
X75212319Y-57613083D01*
X75168717Y-57569481D01*
X75168709Y-57569475D01*
X75031790Y-57490426D01*
X75031786Y-57490424D01*
X75031784Y-57490423D01*
X74879057Y-57449500D01*
X74720943Y-57449500D01*
X74568216Y-57490423D01*
X74568209Y-57490426D01*
X74431290Y-57569475D01*
X74431282Y-57569481D01*
X74319481Y-57681282D01*
X74319475Y-57681290D01*
X74240426Y-57818209D01*
X74240423Y-57818216D01*
X74199500Y-57970943D01*
X45639407Y-57970943D01*
X45693477Y-57804534D01*
X45725500Y-57602352D01*
X45725500Y-57397648D01*
X45693477Y-57195466D01*
X45630220Y-57000781D01*
X45630218Y-57000778D01*
X45630218Y-57000776D01*
X45596503Y-56934607D01*
X45537287Y-56818390D01*
X45529556Y-56807749D01*
X45416971Y-56652786D01*
X45272213Y-56508028D01*
X45106613Y-56387715D01*
X45106612Y-56387714D01*
X45106610Y-56387713D01*
X45049653Y-56358691D01*
X44924223Y-56294781D01*
X44729534Y-56231522D01*
X44554995Y-56203878D01*
X44527352Y-56199500D01*
X44322648Y-56199500D01*
X44298329Y-56203351D01*
X44120465Y-56231522D01*
X43925776Y-56294781D01*
X43743386Y-56387715D01*
X43577786Y-56508028D01*
X43433028Y-56652786D01*
X43312715Y-56818386D01*
X43219781Y-57000776D01*
X43156522Y-57195465D01*
X43124500Y-57397648D01*
X22405500Y-57397648D01*
X22405500Y-55318920D01*
X48049499Y-55318920D01*
X48078340Y-55463907D01*
X48078343Y-55463917D01*
X48134912Y-55600488D01*
X48134919Y-55600501D01*
X48217048Y-55723415D01*
X48217051Y-55723419D01*
X48321580Y-55827948D01*
X48321584Y-55827951D01*
X48444498Y-55910080D01*
X48444511Y-55910087D01*
X48581082Y-55966656D01*
X48581087Y-55966658D01*
X48581091Y-55966658D01*
X48581092Y-55966659D01*
X48726079Y-55995500D01*
X48726082Y-55995500D01*
X48873920Y-55995500D01*
X48971462Y-55976096D01*
X49018913Y-55966658D01*
X49155495Y-55910084D01*
X49278416Y-55827951D01*
X49382951Y-55723416D01*
X49465084Y-55600495D01*
X49521658Y-55463913D01*
X49535740Y-55393122D01*
X49550500Y-55318920D01*
X51049499Y-55318920D01*
X51078340Y-55463907D01*
X51078343Y-55463917D01*
X51134912Y-55600488D01*
X51134919Y-55600501D01*
X51217048Y-55723415D01*
X51217051Y-55723419D01*
X51321580Y-55827948D01*
X51321584Y-55827951D01*
X51444498Y-55910080D01*
X51444511Y-55910087D01*
X51581082Y-55966656D01*
X51581087Y-55966658D01*
X51581091Y-55966658D01*
X51581092Y-55966659D01*
X51726079Y-55995500D01*
X51726082Y-55995500D01*
X51873920Y-55995500D01*
X51971462Y-55976096D01*
X52018913Y-55966658D01*
X52155495Y-55910084D01*
X52196577Y-55882634D01*
X52240515Y-55853276D01*
X52265054Y-55836879D01*
X52278416Y-55827951D01*
X52382951Y-55723416D01*
X52465084Y-55600495D01*
X52521658Y-55463913D01*
X52535740Y-55393122D01*
X52550500Y-55318920D01*
X52550500Y-55171079D01*
X52521659Y-55026092D01*
X52521658Y-55026091D01*
X52521658Y-55026087D01*
X52509321Y-54996302D01*
X52465087Y-54889511D01*
X52465080Y-54889498D01*
X52382951Y-54766584D01*
X52382948Y-54766580D01*
X52278419Y-54662051D01*
X52278415Y-54662048D01*
X52155501Y-54579919D01*
X52155488Y-54579912D01*
X52018917Y-54523343D01*
X52018907Y-54523340D01*
X51873920Y-54494500D01*
X51873918Y-54494500D01*
X51726082Y-54494500D01*
X51726080Y-54494500D01*
X51581092Y-54523340D01*
X51581082Y-54523343D01*
X51444511Y-54579912D01*
X51444498Y-54579919D01*
X51321584Y-54662048D01*
X51321580Y-54662051D01*
X51217051Y-54766580D01*
X51217048Y-54766584D01*
X51134919Y-54889498D01*
X51134912Y-54889511D01*
X51078343Y-55026082D01*
X51078340Y-55026092D01*
X51049500Y-55171079D01*
X51049500Y-55171082D01*
X51049500Y-55318918D01*
X51049500Y-55318920D01*
X51049499Y-55318920D01*
X49550500Y-55318920D01*
X49550500Y-55171079D01*
X49521659Y-55026092D01*
X49521658Y-55026091D01*
X49521658Y-55026087D01*
X49509321Y-54996302D01*
X49465087Y-54889511D01*
X49465080Y-54889498D01*
X49382951Y-54766584D01*
X49382948Y-54766580D01*
X49278419Y-54662051D01*
X49278415Y-54662048D01*
X49155501Y-54579919D01*
X49155488Y-54579912D01*
X49018917Y-54523343D01*
X49018907Y-54523340D01*
X48873920Y-54494500D01*
X48873918Y-54494500D01*
X48726082Y-54494500D01*
X48726080Y-54494500D01*
X48581092Y-54523340D01*
X48581082Y-54523343D01*
X48444511Y-54579912D01*
X48444498Y-54579919D01*
X48321584Y-54662048D01*
X48321580Y-54662051D01*
X48217051Y-54766580D01*
X48217048Y-54766584D01*
X48134919Y-54889498D01*
X48134912Y-54889511D01*
X48078343Y-55026082D01*
X48078340Y-55026092D01*
X48049500Y-55171079D01*
X48049500Y-55171082D01*
X48049500Y-55318918D01*
X48049500Y-55318920D01*
X48049499Y-55318920D01*
X22405500Y-55318920D01*
X22405500Y-54247648D01*
X57049500Y-54247648D01*
X57049500Y-54452351D01*
X57081522Y-54654534D01*
X57144781Y-54849223D01*
X57180669Y-54919655D01*
X57234901Y-55026092D01*
X57237715Y-55031613D01*
X57358028Y-55197213D01*
X57502786Y-55341971D01*
X57617323Y-55425185D01*
X57668390Y-55462287D01*
X57780681Y-55519502D01*
X57850776Y-55555218D01*
X57850778Y-55555218D01*
X57850781Y-55555220D01*
X57955137Y-55589127D01*
X58045465Y-55618477D01*
X58126186Y-55631262D01*
X58247648Y-55650500D01*
X58247649Y-55650500D01*
X58452351Y-55650500D01*
X58452352Y-55650500D01*
X58654534Y-55618477D01*
X58849219Y-55555220D01*
X59031610Y-55462287D01*
X59124590Y-55394732D01*
X59153955Y-55373398D01*
X70649848Y-55373398D01*
X71380496Y-54642750D01*
X71380496Y-54642749D01*
X70649848Y-53912101D01*
X70649848Y-55373398D01*
X59153955Y-55373398D01*
X59197213Y-55341971D01*
X59197215Y-55341968D01*
X59197219Y-55341966D01*
X59341966Y-55197219D01*
X59341968Y-55197215D01*
X59341971Y-55197213D01*
X59394732Y-55124590D01*
X59462287Y-55031610D01*
X59555220Y-54849219D01*
X59618477Y-54654534D01*
X59650500Y-54452352D01*
X59650500Y-54247648D01*
X59634484Y-54146530D01*
X61074500Y-54146530D01*
X61074500Y-54353469D01*
X61114868Y-54556412D01*
X61114870Y-54556420D01*
X61177245Y-54707007D01*
X61194059Y-54747598D01*
X61250931Y-54832713D01*
X61309024Y-54919657D01*
X61455342Y-55065975D01*
X61455345Y-55065977D01*
X61627402Y-55180941D01*
X61818580Y-55260130D01*
X61991336Y-55294493D01*
X62021530Y-55300499D01*
X62021534Y-55300500D01*
X62021535Y-55300500D01*
X62228466Y-55300500D01*
X62228467Y-55300499D01*
X62431420Y-55260130D01*
X62622598Y-55180941D01*
X62794655Y-55065977D01*
X62940977Y-54919655D01*
X63055941Y-54747598D01*
X63135130Y-54556420D01*
X63175500Y-54353465D01*
X63175500Y-54146535D01*
X63135130Y-53943580D01*
X63126008Y-53921557D01*
X63107428Y-53876700D01*
X63055942Y-53752403D01*
X62940975Y-53580342D01*
X62794657Y-53434024D01*
X62708626Y-53376541D01*
X62622598Y-53319059D01*
X62551106Y-53289446D01*
X62431420Y-53239870D01*
X62431412Y-53239868D01*
X62228469Y-53199500D01*
X62228465Y-53199500D01*
X62021535Y-53199500D01*
X62021530Y-53199500D01*
X61818587Y-53239868D01*
X61818579Y-53239870D01*
X61627403Y-53319058D01*
X61455342Y-53434024D01*
X61309024Y-53580342D01*
X61194058Y-53752403D01*
X61114870Y-53943579D01*
X61114868Y-53943587D01*
X61074500Y-54146530D01*
X59634484Y-54146530D01*
X59618477Y-54045466D01*
X59555220Y-53850781D01*
X59555218Y-53850778D01*
X59555218Y-53850776D01*
X59505093Y-53752402D01*
X59462287Y-53668390D01*
X59454556Y-53657749D01*
X59341971Y-53502786D01*
X59197213Y-53358028D01*
X59031613Y-53237715D01*
X59031612Y-53237714D01*
X59031610Y-53237713D01*
X58932369Y-53187147D01*
X58849223Y-53144781D01*
X58654534Y-53081522D01*
X58479995Y-53053878D01*
X58452352Y-53049500D01*
X58247648Y-53049500D01*
X58223329Y-53053351D01*
X58045465Y-53081522D01*
X57850776Y-53144781D01*
X57668386Y-53237715D01*
X57502786Y-53358028D01*
X57358028Y-53502786D01*
X57237715Y-53668386D01*
X57144781Y-53850776D01*
X57081522Y-54045465D01*
X57049500Y-54247648D01*
X22405500Y-54247648D01*
X22405500Y-52962223D01*
X22405500Y-52962210D01*
X22404028Y-52932261D01*
X22401645Y-52908070D01*
X22401294Y-52905703D01*
X22397253Y-52878456D01*
X22397251Y-52878447D01*
X22397247Y-52878417D01*
X22391334Y-52848691D01*
X22397561Y-52779101D01*
X22440423Y-52723923D01*
X22506313Y-52700678D01*
X22512951Y-52700500D01*
X46924167Y-52700500D01*
X46991206Y-52720185D01*
X47011848Y-52736819D01*
X48359540Y-54084511D01*
X48415489Y-54140460D01*
X48415491Y-54140461D01*
X48415495Y-54140464D01*
X48484004Y-54180017D01*
X48484011Y-54180021D01*
X48560438Y-54200500D01*
X48560440Y-54200500D01*
X52039560Y-54200500D01*
X52039562Y-54200500D01*
X52115989Y-54180021D01*
X52184511Y-54140460D01*
X52240460Y-54084511D01*
X53588152Y-52736819D01*
X53649475Y-52703334D01*
X53675833Y-52700500D01*
X71170690Y-52700500D01*
X71237729Y-52720185D01*
X71283484Y-52772989D01*
X71293428Y-52842147D01*
X71264403Y-52905703D01*
X71226985Y-52934985D01*
X71165799Y-52966161D01*
X71027745Y-53066462D01*
X71027740Y-53066466D01*
X70907066Y-53187140D01*
X70806752Y-53325213D01*
X70794368Y-53349516D01*
X70794368Y-53349518D01*
X71403848Y-53958998D01*
X71403848Y-55326500D01*
X70794368Y-55935979D01*
X70794368Y-55935981D01*
X70806758Y-55960298D01*
X70907060Y-56098352D01*
X70907064Y-56098357D01*
X71027740Y-56219033D01*
X71027745Y-56219037D01*
X71165799Y-56319338D01*
X71317856Y-56396816D01*
X71480163Y-56449553D01*
X71648715Y-56476250D01*
X71819381Y-56476250D01*
X71987932Y-56449553D01*
X72150239Y-56396816D01*
X72302296Y-56319338D01*
X72440350Y-56219037D01*
X72440355Y-56219033D01*
X72561029Y-56098359D01*
X72661341Y-55960289D01*
X72673726Y-55935980D01*
X72064248Y-55326502D01*
X72064248Y-54642749D01*
X72087600Y-54642749D01*
X72087600Y-54642750D01*
X72818247Y-55373398D01*
X79289852Y-55373398D01*
X80020500Y-54642750D01*
X80020500Y-54642749D01*
X79289852Y-53912101D01*
X79289852Y-55373398D01*
X72818247Y-55373398D01*
X72818248Y-55373397D01*
X72818248Y-53912102D01*
X72818247Y-53912101D01*
X72087600Y-54642749D01*
X72064248Y-54642749D01*
X72064248Y-53958998D01*
X72673727Y-53349519D01*
X72661337Y-53325203D01*
X72661331Y-53325194D01*
X72561035Y-53187147D01*
X72561031Y-53187142D01*
X72440355Y-53066466D01*
X72440350Y-53066462D01*
X72302296Y-52966161D01*
X72241111Y-52934985D01*
X72190315Y-52887010D01*
X72173520Y-52819189D01*
X72196058Y-52753054D01*
X72250773Y-52709603D01*
X72297406Y-52700500D01*
X79810694Y-52700500D01*
X79877733Y-52720185D01*
X79923488Y-52772989D01*
X79933432Y-52842147D01*
X79904407Y-52905703D01*
X79866989Y-52934985D01*
X79805803Y-52966161D01*
X79667749Y-53066462D01*
X79667744Y-53066466D01*
X79547070Y-53187140D01*
X79446756Y-53325213D01*
X79434372Y-53349516D01*
X79434372Y-53349518D01*
X80043852Y-53958998D01*
X80043852Y-55326500D01*
X79434372Y-55935979D01*
X79434372Y-55935981D01*
X79446762Y-55960298D01*
X79547064Y-56098352D01*
X79547068Y-56098357D01*
X79667744Y-56219033D01*
X79667749Y-56219037D01*
X79805803Y-56319338D01*
X79957860Y-56396816D01*
X80120167Y-56449553D01*
X80288719Y-56476250D01*
X80459385Y-56476250D01*
X80627936Y-56449553D01*
X80790243Y-56396816D01*
X80942300Y-56319338D01*
X81080354Y-56219037D01*
X81080359Y-56219033D01*
X81201033Y-56098359D01*
X81301346Y-55960289D01*
X81313731Y-55935981D01*
X80704252Y-55326502D01*
X80704252Y-54642749D01*
X80727604Y-54642749D01*
X80727604Y-54642750D01*
X81458251Y-55373398D01*
X81458252Y-55373397D01*
X81458252Y-53912102D01*
X81458251Y-53912101D01*
X80727604Y-54642749D01*
X80704252Y-54642749D01*
X80704252Y-53958998D01*
X81313731Y-53349519D01*
X81301341Y-53325203D01*
X81301335Y-53325194D01*
X81201039Y-53187147D01*
X81201035Y-53187142D01*
X81080359Y-53066466D01*
X81080354Y-53066462D01*
X80942300Y-52966161D01*
X80881115Y-52934985D01*
X80830319Y-52887010D01*
X80813524Y-52819189D01*
X80836062Y-52753054D01*
X80890777Y-52709603D01*
X80937410Y-52700500D01*
X82559280Y-52700500D01*
X82626319Y-52720185D01*
X82672074Y-52772989D01*
X82682018Y-52842147D01*
X82668638Y-52882953D01*
X82650480Y-52916922D01*
X82631971Y-52961612D01*
X82614588Y-53018918D01*
X82602756Y-53078396D01*
X82602746Y-53078456D01*
X82598354Y-53108070D01*
X82595972Y-53132254D01*
X82595972Y-53132257D01*
X82595972Y-53132261D01*
X82594500Y-53162210D01*
X82594500Y-54837789D01*
X82595062Y-54849219D01*
X82595972Y-54867741D01*
X82595972Y-54867744D01*
X82598354Y-54891926D01*
X82602749Y-54921557D01*
X82614588Y-54981081D01*
X82631969Y-55038382D01*
X82650480Y-55083075D01*
X82650485Y-55083085D01*
X82678708Y-55135889D01*
X82678716Y-55135902D01*
X82705508Y-55175999D01*
X82722918Y-55197213D01*
X82743505Y-55222298D01*
X82777700Y-55256493D01*
X82819918Y-55291141D01*
X82824003Y-55294493D01*
X82824010Y-55294497D01*
X82824016Y-55294502D01*
X82864086Y-55321276D01*
X82864095Y-55321281D01*
X82864098Y-55321283D01*
X82902803Y-55341971D01*
X82916917Y-55349515D01*
X82936551Y-55357647D01*
X82961607Y-55368026D01*
X83018916Y-55385411D01*
X83069399Y-55395453D01*
X83078397Y-55397243D01*
X83078402Y-55397243D01*
X83078418Y-55397247D01*
X83078445Y-55397251D01*
X83078457Y-55397253D01*
X83108071Y-55401645D01*
X83132262Y-55404028D01*
X83162211Y-55405500D01*
X83162224Y-55405500D01*
X87301573Y-55405500D01*
X87370551Y-55397253D01*
X87373596Y-55396889D01*
X87430415Y-55383105D01*
X87475100Y-55368544D01*
X87569207Y-55307319D01*
X87610259Y-55268177D01*
X87610200Y-55268115D01*
X87621528Y-55257263D01*
X87622530Y-55258265D01*
X87669254Y-55211539D01*
X87670180Y-55210653D01*
X87671792Y-55209817D01*
X87693954Y-55192810D01*
X87701032Y-55188724D01*
X87730941Y-55176337D01*
X87737626Y-55174546D01*
X87738839Y-55174222D01*
X87770919Y-55170000D01*
X87779081Y-55170000D01*
X87811174Y-55174225D01*
X87819060Y-55176338D01*
X87848958Y-55188720D01*
X87856030Y-55192804D01*
X87881716Y-55212512D01*
X87914208Y-55245004D01*
X87921297Y-55252718D01*
X87924026Y-55255953D01*
X87924328Y-55256310D01*
X87925260Y-55257002D01*
X87941066Y-55270976D01*
X87960295Y-55291141D01*
X87995241Y-55322553D01*
X88095317Y-55373439D01*
X88162356Y-55393124D01*
X88248428Y-55405500D01*
X90470500Y-55405500D01*
X90537539Y-55425185D01*
X90583294Y-55477989D01*
X90594500Y-55529500D01*
X90594500Y-58878292D01*
X90593868Y-58890796D01*
X89097482Y-73655125D01*
X89097136Y-73658770D01*
X89096842Y-73662090D01*
X89096534Y-73665836D01*
X89095930Y-73673787D01*
X89095446Y-73681439D01*
X89095133Y-73687588D01*
X89094837Y-73695398D01*
X89094632Y-73703527D01*
X89094563Y-73707229D01*
X89094522Y-73710530D01*
X89094500Y-73714111D01*
X89094500Y-97470500D01*
X89074815Y-97537539D01*
X89022011Y-97583294D01*
X88970500Y-97594500D01*
X82377850Y-97594500D01*
X82310811Y-97574815D01*
X82265056Y-97522011D01*
X82255112Y-97452853D01*
X82284137Y-97389297D01*
X82321555Y-97360015D01*
X82352994Y-97343996D01*
X82499501Y-97237553D01*
X82627553Y-97109501D01*
X82733996Y-96962994D01*
X82816211Y-96801639D01*
X82872171Y-96629409D01*
X82886765Y-96537259D01*
X82900500Y-96450551D01*
X82900500Y-96269448D01*
X82884019Y-96165397D01*
X82872171Y-96090591D01*
X82844191Y-96004476D01*
X82816212Y-95918363D01*
X82816211Y-95918360D01*
X82760782Y-95809577D01*
X82733996Y-95757006D01*
X82670579Y-95669719D01*
X82627558Y-95610505D01*
X82627554Y-95610500D01*
X82499499Y-95482445D01*
X82499494Y-95482441D01*
X82352995Y-95376004D01*
X82221314Y-95308908D01*
X82170519Y-95260934D01*
X82153724Y-95193113D01*
X82176262Y-95126978D01*
X82230977Y-95083527D01*
X82239295Y-95080492D01*
X82268217Y-95071095D01*
X82457554Y-94974622D01*
X82511716Y-94935270D01*
X82511717Y-94935270D01*
X81879408Y-94302962D01*
X81942993Y-94285925D01*
X82057007Y-94220099D01*
X82150099Y-94127007D01*
X82215925Y-94012993D01*
X82232962Y-93949408D01*
X82865270Y-94581717D01*
X82865270Y-94581716D01*
X82904622Y-94527554D01*
X83001095Y-94338217D01*
X83066757Y-94136130D01*
X83066757Y-94136127D01*
X83100000Y-93926246D01*
X83100000Y-93713753D01*
X83066757Y-93503872D01*
X83066757Y-93503869D01*
X83001095Y-93301782D01*
X82904624Y-93112449D01*
X82865270Y-93058282D01*
X82865269Y-93058282D01*
X82232962Y-93690590D01*
X82215925Y-93627007D01*
X82150099Y-93512993D01*
X82057007Y-93419901D01*
X81942993Y-93354075D01*
X81879409Y-93337037D01*
X82511716Y-92704728D01*
X82457550Y-92665375D01*
X82268217Y-92568904D01*
X82239292Y-92559506D01*
X82181616Y-92520068D01*
X82154418Y-92455710D01*
X82166333Y-92386863D01*
X82213577Y-92335388D01*
X82221315Y-92331090D01*
X82352994Y-92263996D01*
X82499501Y-92157553D01*
X82627553Y-92029501D01*
X82733996Y-91882994D01*
X82816211Y-91721639D01*
X82816913Y-91719480D01*
X82818230Y-91715424D01*
X82872171Y-91549409D01*
X82886765Y-91457259D01*
X82900500Y-91370551D01*
X82900500Y-91189448D01*
X82876896Y-91040426D01*
X82872171Y-91010591D01*
X82830320Y-90881784D01*
X82816212Y-90838363D01*
X82816211Y-90838360D01*
X82787740Y-90782484D01*
X82733996Y-90677006D01*
X82714738Y-90650499D01*
X82627558Y-90530505D01*
X82627554Y-90530500D01*
X82499499Y-90402445D01*
X82499494Y-90402441D01*
X82352997Y-90296006D01*
X82352996Y-90296005D01*
X82352994Y-90296004D01*
X82301300Y-90269664D01*
X82191639Y-90213788D01*
X82191636Y-90213787D01*
X82019410Y-90157829D01*
X81859321Y-90132473D01*
X81796186Y-90102544D01*
X81759255Y-90043232D01*
X81760253Y-89973370D01*
X81798863Y-89915137D01*
X81859321Y-89887527D01*
X81929425Y-89876422D01*
X82019409Y-89862171D01*
X82191639Y-89806211D01*
X82260856Y-89770943D01*
X83374500Y-89770943D01*
X83374500Y-89929057D01*
X83414693Y-90079057D01*
X83415423Y-90081783D01*
X83415426Y-90081790D01*
X83494475Y-90218709D01*
X83494479Y-90218714D01*
X83494480Y-90218716D01*
X83606284Y-90330520D01*
X83606286Y-90330521D01*
X83606290Y-90330524D01*
X83725275Y-90399219D01*
X83743216Y-90409577D01*
X83895943Y-90450500D01*
X83895945Y-90450500D01*
X84054055Y-90450500D01*
X84054057Y-90450500D01*
X84206784Y-90409577D01*
X84343716Y-90330520D01*
X84455520Y-90218716D01*
X84534577Y-90081784D01*
X84575500Y-89929057D01*
X84575500Y-89770943D01*
X84534577Y-89618216D01*
X84534194Y-89617552D01*
X84455524Y-89481290D01*
X84455518Y-89481282D01*
X84343717Y-89369481D01*
X84343709Y-89369475D01*
X84206790Y-89290426D01*
X84206786Y-89290424D01*
X84206784Y-89290423D01*
X84054057Y-89249500D01*
X83895943Y-89249500D01*
X83743216Y-89290423D01*
X83743209Y-89290426D01*
X83606290Y-89369475D01*
X83606282Y-89369481D01*
X83494481Y-89481282D01*
X83494475Y-89481290D01*
X83415426Y-89618209D01*
X83415423Y-89618216D01*
X83374500Y-89770943D01*
X82260856Y-89770943D01*
X82352994Y-89723996D01*
X82499501Y-89617553D01*
X82627553Y-89489501D01*
X82733996Y-89342994D01*
X82816211Y-89181639D01*
X82872171Y-89009409D01*
X82888228Y-88908028D01*
X82900500Y-88830551D01*
X82900500Y-88649448D01*
X82877269Y-88502781D01*
X82872171Y-88470591D01*
X82842482Y-88379216D01*
X82816212Y-88298363D01*
X82816211Y-88298360D01*
X82769356Y-88206404D01*
X82733996Y-88137006D01*
X82703107Y-88094491D01*
X82627558Y-87990505D01*
X82627554Y-87990500D01*
X82499499Y-87862445D01*
X82499494Y-87862441D01*
X82352997Y-87756006D01*
X82352996Y-87756005D01*
X82352994Y-87756004D01*
X82285467Y-87721597D01*
X82191639Y-87673788D01*
X82191636Y-87673787D01*
X82019410Y-87617829D01*
X81859321Y-87592473D01*
X81796186Y-87562544D01*
X81759255Y-87503232D01*
X81760253Y-87433370D01*
X81798863Y-87375137D01*
X81859321Y-87347527D01*
X81929425Y-87336422D01*
X82019409Y-87322171D01*
X82191639Y-87266211D01*
X82352994Y-87183996D01*
X82499501Y-87077553D01*
X82627553Y-86949501D01*
X82733996Y-86802994D01*
X82816211Y-86641639D01*
X82872171Y-86469409D01*
X82896604Y-86315145D01*
X82900500Y-86290551D01*
X82900500Y-86109448D01*
X82878129Y-85968209D01*
X82872171Y-85930591D01*
X82816211Y-85758361D01*
X82816211Y-85758360D01*
X82784164Y-85695465D01*
X82733996Y-85597006D01*
X82713079Y-85568216D01*
X82627558Y-85450505D01*
X82627554Y-85450500D01*
X82499499Y-85322445D01*
X82499494Y-85322441D01*
X82352995Y-85216004D01*
X82221314Y-85148908D01*
X82170519Y-85100934D01*
X82153724Y-85033113D01*
X82176262Y-84966978D01*
X82230977Y-84923527D01*
X82239295Y-84920492D01*
X82268217Y-84911095D01*
X82457554Y-84814622D01*
X82511716Y-84775270D01*
X82511717Y-84775270D01*
X81879408Y-84142962D01*
X81942993Y-84125925D01*
X82057007Y-84060099D01*
X82150099Y-83967007D01*
X82215925Y-83852993D01*
X82232962Y-83789408D01*
X82865270Y-84421717D01*
X82865270Y-84421716D01*
X82904622Y-84367554D01*
X83001095Y-84178217D01*
X83066757Y-83976130D01*
X83066757Y-83976127D01*
X83100000Y-83766246D01*
X83100000Y-83553753D01*
X83066757Y-83343872D01*
X83066757Y-83343869D01*
X83001095Y-83141782D01*
X82904624Y-82952449D01*
X82865270Y-82898282D01*
X82865269Y-82898282D01*
X82232962Y-83530590D01*
X82215925Y-83467007D01*
X82150099Y-83352993D01*
X82057007Y-83259901D01*
X81942993Y-83194075D01*
X81879409Y-83177037D01*
X82511716Y-82544728D01*
X82457550Y-82505375D01*
X82268217Y-82408904D01*
X82239292Y-82399506D01*
X82181616Y-82360068D01*
X82154418Y-82295710D01*
X82166333Y-82226863D01*
X82213577Y-82175388D01*
X82221315Y-82171090D01*
X82352994Y-82103996D01*
X82499501Y-81997553D01*
X82627553Y-81869501D01*
X82733996Y-81722994D01*
X82816211Y-81561639D01*
X82872171Y-81389409D01*
X82897336Y-81230524D01*
X82900500Y-81210551D01*
X82900500Y-81029448D01*
X82878724Y-80891966D01*
X82872171Y-80850591D01*
X82829352Y-80718805D01*
X82816212Y-80678363D01*
X82816211Y-80678360D01*
X82733993Y-80517000D01*
X82732332Y-80514290D01*
X82732015Y-80513118D01*
X82731784Y-80512665D01*
X82731879Y-80512616D01*
X82714087Y-80446845D01*
X82735203Y-80380242D01*
X82788975Y-80335629D01*
X82838059Y-80325500D01*
X84031390Y-80325500D01*
X84098429Y-80345185D01*
X84141818Y-80395259D01*
X84142568Y-80394878D01*
X84144109Y-80397902D01*
X84144184Y-80397989D01*
X84144365Y-80398406D01*
X84237715Y-80581613D01*
X84358028Y-80747213D01*
X84502786Y-80891971D01*
X84626414Y-80981790D01*
X84668390Y-81012287D01*
X84777862Y-81068066D01*
X84850776Y-81105218D01*
X84850778Y-81105218D01*
X84850781Y-81105220D01*
X84930992Y-81131282D01*
X85045465Y-81168477D01*
X85111330Y-81178909D01*
X85247648Y-81200500D01*
X85247649Y-81200500D01*
X85452351Y-81200500D01*
X85452352Y-81200500D01*
X85654534Y-81168477D01*
X85849219Y-81105220D01*
X86031610Y-81012287D01*
X86157333Y-80920945D01*
X86197213Y-80891971D01*
X86197215Y-80891968D01*
X86197219Y-80891966D01*
X86341966Y-80747219D01*
X86341968Y-80747215D01*
X86341971Y-80747213D01*
X86416914Y-80644061D01*
X86462287Y-80581610D01*
X86555220Y-80399219D01*
X86618477Y-80204534D01*
X86650500Y-80002352D01*
X86650500Y-79797648D01*
X86618477Y-79595466D01*
X86613145Y-79579057D01*
X86574564Y-79460317D01*
X86555220Y-79400781D01*
X86555218Y-79400778D01*
X86555218Y-79400776D01*
X86500649Y-79293680D01*
X86462287Y-79218390D01*
X86399006Y-79131290D01*
X86341971Y-79052786D01*
X86197213Y-78908028D01*
X86031613Y-78787715D01*
X86031612Y-78787714D01*
X86031610Y-78787713D01*
X85962208Y-78752351D01*
X85849223Y-78694781D01*
X85654534Y-78631522D01*
X85479995Y-78603878D01*
X85452352Y-78599500D01*
X85247648Y-78599500D01*
X85223329Y-78603351D01*
X85045465Y-78631522D01*
X84850776Y-78694781D01*
X84668386Y-78787715D01*
X84502786Y-78908028D01*
X84358028Y-79052786D01*
X84237715Y-79218386D01*
X84142568Y-79405122D01*
X84140871Y-79404257D01*
X84102109Y-79452357D01*
X84035815Y-79474421D01*
X84031390Y-79474500D01*
X82765569Y-79474500D01*
X82698530Y-79454815D01*
X82652775Y-79402011D01*
X82642831Y-79332853D01*
X82665251Y-79277615D01*
X82708282Y-79218386D01*
X82733996Y-79182994D01*
X82816211Y-79021639D01*
X82816913Y-79019480D01*
X82823903Y-78997965D01*
X82872171Y-78849409D01*
X82896662Y-78694780D01*
X82900500Y-78670551D01*
X82900500Y-78489448D01*
X82880006Y-78360062D01*
X82872171Y-78310591D01*
X82833127Y-78190423D01*
X82816212Y-78138363D01*
X82816211Y-78138360D01*
X82787129Y-78081284D01*
X82733996Y-77977006D01*
X82687983Y-77913674D01*
X82627558Y-77830505D01*
X82627554Y-77830500D01*
X82499499Y-77702445D01*
X82499494Y-77702441D01*
X82352997Y-77596006D01*
X82352996Y-77596005D01*
X82352994Y-77596004D01*
X82301300Y-77569664D01*
X82191639Y-77513788D01*
X82191636Y-77513787D01*
X82019410Y-77457829D01*
X81859321Y-77432473D01*
X81796186Y-77402544D01*
X81759255Y-77343232D01*
X81760253Y-77273370D01*
X81798863Y-77215137D01*
X81859321Y-77187527D01*
X81929425Y-77176422D01*
X82019409Y-77162171D01*
X82191639Y-77106211D01*
X82352994Y-77023996D01*
X82499501Y-76917553D01*
X82627553Y-76789501D01*
X82733996Y-76642994D01*
X82816211Y-76481639D01*
X82872171Y-76309409D01*
X82886765Y-76217259D01*
X82900500Y-76130551D01*
X82900500Y-75949448D01*
X82881431Y-75829055D01*
X82872171Y-75770591D01*
X82816211Y-75598361D01*
X82816211Y-75598360D01*
X82775371Y-75518209D01*
X82733996Y-75437006D01*
X82693512Y-75381284D01*
X82627558Y-75290505D01*
X82627554Y-75290500D01*
X82499499Y-75162445D01*
X82499494Y-75162441D01*
X82352997Y-75056006D01*
X82352996Y-75056005D01*
X82352994Y-75056004D01*
X82301300Y-75029664D01*
X82191639Y-74973788D01*
X82191636Y-74973787D01*
X82019410Y-74917829D01*
X81859321Y-74892473D01*
X81796186Y-74862544D01*
X81759255Y-74803232D01*
X81760253Y-74733370D01*
X81798863Y-74675137D01*
X81859321Y-74647527D01*
X81929425Y-74636422D01*
X82019409Y-74622171D01*
X82191639Y-74566211D01*
X82352994Y-74483996D01*
X82499501Y-74377553D01*
X82627553Y-74249501D01*
X82733996Y-74102994D01*
X82816211Y-73941639D01*
X82872171Y-73769409D01*
X82889675Y-73658895D01*
X82900500Y-73590551D01*
X82900500Y-73409448D01*
X82880279Y-73281783D01*
X82872171Y-73230591D01*
X82839181Y-73129056D01*
X82816212Y-73058363D01*
X82816211Y-73058360D01*
X82771669Y-72970943D01*
X82733996Y-72897006D01*
X82676747Y-72818209D01*
X82627558Y-72750505D01*
X82627554Y-72750500D01*
X82499499Y-72622445D01*
X82499494Y-72622441D01*
X82352997Y-72516006D01*
X82352996Y-72516005D01*
X82352994Y-72516004D01*
X82301300Y-72489664D01*
X82191639Y-72433788D01*
X82191636Y-72433787D01*
X82019410Y-72377829D01*
X81859321Y-72352473D01*
X81796186Y-72322544D01*
X81759255Y-72263232D01*
X81760253Y-72193370D01*
X81798863Y-72135137D01*
X81859321Y-72107527D01*
X81929425Y-72096422D01*
X82019409Y-72082171D01*
X82191639Y-72026211D01*
X82352994Y-71943996D01*
X82499501Y-71837553D01*
X82627553Y-71709501D01*
X82733996Y-71562994D01*
X82816211Y-71401639D01*
X82872171Y-71229409D01*
X82886765Y-71137259D01*
X82900500Y-71050551D01*
X82900500Y-70869448D01*
X82884019Y-70765397D01*
X82872171Y-70690591D01*
X82835659Y-70578216D01*
X82816212Y-70518363D01*
X82816211Y-70518360D01*
X82761910Y-70411790D01*
X82733996Y-70357006D01*
X82669845Y-70268709D01*
X82627558Y-70210505D01*
X82627554Y-70210500D01*
X82499495Y-70082441D01*
X82378202Y-69994318D01*
X82335536Y-69938989D01*
X82329557Y-69869375D01*
X82362162Y-69807580D01*
X82423001Y-69773223D01*
X82451087Y-69770000D01*
X82647828Y-69770000D01*
X82647844Y-69769999D01*
X82707372Y-69763598D01*
X82707379Y-69763596D01*
X82842086Y-69713354D01*
X82842093Y-69713350D01*
X82957187Y-69627190D01*
X82957190Y-69627187D01*
X83043350Y-69512093D01*
X83043354Y-69512086D01*
X83093596Y-69377379D01*
X83093598Y-69377372D01*
X83099999Y-69317844D01*
X83100000Y-69317827D01*
X83100000Y-68670000D01*
X82183012Y-68670000D01*
X82215925Y-68612993D01*
X82250000Y-68485826D01*
X82250000Y-68354174D01*
X82215925Y-68227007D01*
X82183012Y-68170000D01*
X83100000Y-68170000D01*
X83100000Y-67522172D01*
X83099999Y-67522155D01*
X83093598Y-67462627D01*
X83093596Y-67462620D01*
X83043354Y-67327913D01*
X83043350Y-67327906D01*
X82957190Y-67212812D01*
X82957187Y-67212809D01*
X82842093Y-67126649D01*
X82842086Y-67126645D01*
X82707379Y-67076403D01*
X82707372Y-67076401D01*
X82647844Y-67070000D01*
X82000000Y-67070000D01*
X82000000Y-67986988D01*
X81942993Y-67954075D01*
X81815826Y-67920000D01*
X81684174Y-67920000D01*
X81557007Y-67954075D01*
X81500000Y-67986988D01*
X81500000Y-67070000D01*
X80852155Y-67070000D01*
X80792627Y-67076401D01*
X80792620Y-67076403D01*
X80657913Y-67126645D01*
X80657906Y-67126649D01*
X80542812Y-67212809D01*
X80542809Y-67212812D01*
X80456649Y-67327906D01*
X80456645Y-67327913D01*
X80406403Y-67462620D01*
X80406401Y-67462627D01*
X80400000Y-67522155D01*
X80400000Y-68170000D01*
X81316988Y-68170000D01*
X81284075Y-68227007D01*
X81250000Y-68354174D01*
X81250000Y-68485826D01*
X81284075Y-68612993D01*
X81316988Y-68670000D01*
X80400000Y-68670000D01*
X80400000Y-69317844D01*
X80406401Y-69377372D01*
X80406403Y-69377379D01*
X80456645Y-69512086D01*
X80456649Y-69512093D01*
X80542809Y-69627187D01*
X80542812Y-69627190D01*
X80657906Y-69713350D01*
X80657913Y-69713354D01*
X80792620Y-69763596D01*
X80792627Y-69763598D01*
X80852155Y-69769999D01*
X80852172Y-69770000D01*
X81048913Y-69770000D01*
X81115952Y-69789685D01*
X81161707Y-69842489D01*
X81171651Y-69911647D01*
X81142626Y-69975203D01*
X81121798Y-69994318D01*
X81000504Y-70082441D01*
X80872445Y-70210500D01*
X80872441Y-70210505D01*
X80766006Y-70357002D01*
X80683788Y-70518360D01*
X80683787Y-70518363D01*
X80627829Y-70690589D01*
X80599500Y-70869448D01*
X80599500Y-71050551D01*
X80627829Y-71229410D01*
X80683787Y-71401636D01*
X80683788Y-71401639D01*
X80766006Y-71562997D01*
X80872441Y-71709494D01*
X80872445Y-71709499D01*
X81000500Y-71837554D01*
X81000505Y-71837558D01*
X81128287Y-71930396D01*
X81147006Y-71943996D01*
X81252484Y-71997740D01*
X81308360Y-72026211D01*
X81308363Y-72026212D01*
X81394476Y-72054191D01*
X81480591Y-72082171D01*
X81553639Y-72093740D01*
X81640678Y-72107527D01*
X81703813Y-72137456D01*
X81740744Y-72196768D01*
X81739746Y-72266631D01*
X81701136Y-72324863D01*
X81640678Y-72352473D01*
X81480589Y-72377829D01*
X81308363Y-72433787D01*
X81308360Y-72433788D01*
X81147002Y-72516006D01*
X81000505Y-72622441D01*
X81000500Y-72622445D01*
X80872445Y-72750500D01*
X80872441Y-72750505D01*
X80766006Y-72897002D01*
X80683788Y-73058360D01*
X80683787Y-73058363D01*
X80627829Y-73230589D01*
X80599500Y-73409448D01*
X80599500Y-73590551D01*
X80627829Y-73769410D01*
X80683787Y-73941636D01*
X80683788Y-73941639D01*
X80766006Y-74102997D01*
X80872441Y-74249494D01*
X80872445Y-74249499D01*
X81000500Y-74377554D01*
X81000505Y-74377558D01*
X81128287Y-74470396D01*
X81147006Y-74483996D01*
X81252484Y-74537740D01*
X81308360Y-74566211D01*
X81308363Y-74566212D01*
X81394476Y-74594191D01*
X81480591Y-74622171D01*
X81553639Y-74633740D01*
X81640678Y-74647527D01*
X81703813Y-74677456D01*
X81740744Y-74736768D01*
X81739746Y-74806631D01*
X81701136Y-74864863D01*
X81640678Y-74892473D01*
X81480589Y-74917829D01*
X81308363Y-74973787D01*
X81308360Y-74973788D01*
X81147002Y-75056006D01*
X81000505Y-75162441D01*
X81000500Y-75162445D01*
X80872445Y-75290500D01*
X80872441Y-75290505D01*
X80766006Y-75437002D01*
X80683788Y-75598360D01*
X80683787Y-75598363D01*
X80627829Y-75770589D01*
X80599500Y-75949448D01*
X80599500Y-76130551D01*
X80627829Y-76309410D01*
X80683787Y-76481636D01*
X80683788Y-76481639D01*
X80728157Y-76568716D01*
X80763640Y-76638355D01*
X80766006Y-76642997D01*
X80872441Y-76789494D01*
X80872445Y-76789499D01*
X81000500Y-76917554D01*
X81000505Y-76917558D01*
X81071972Y-76969481D01*
X81147006Y-77023996D01*
X81252484Y-77077740D01*
X81308360Y-77106211D01*
X81308363Y-77106212D01*
X81394476Y-77134191D01*
X81480591Y-77162171D01*
X81553639Y-77173740D01*
X81640678Y-77187527D01*
X81703813Y-77217456D01*
X81740744Y-77276768D01*
X81739746Y-77346631D01*
X81701136Y-77404863D01*
X81640678Y-77432473D01*
X81480589Y-77457829D01*
X81308363Y-77513787D01*
X81308360Y-77513788D01*
X81147002Y-77596006D01*
X81000505Y-77702441D01*
X81000500Y-77702445D01*
X80872445Y-77830500D01*
X80872441Y-77830505D01*
X80766006Y-77977002D01*
X80683788Y-78138360D01*
X80683787Y-78138363D01*
X80627829Y-78310589D01*
X80599500Y-78489448D01*
X80599500Y-78670551D01*
X80627829Y-78849410D01*
X80683787Y-79021636D01*
X80683788Y-79021639D01*
X80766006Y-79182997D01*
X80834749Y-79277615D01*
X80858229Y-79343421D01*
X80842403Y-79411475D01*
X80792297Y-79460170D01*
X80734431Y-79474500D01*
X78383905Y-79474500D01*
X78316866Y-79454815D01*
X78271111Y-79402011D01*
X78261167Y-79332853D01*
X78290192Y-79269297D01*
X78321905Y-79243113D01*
X78335665Y-79235167D01*
X78343716Y-79230520D01*
X78455520Y-79118716D01*
X78534577Y-78981784D01*
X78575500Y-78829057D01*
X78575500Y-78670943D01*
X78534577Y-78518216D01*
X78534573Y-78518209D01*
X78455524Y-78381290D01*
X78455518Y-78381282D01*
X78343717Y-78269481D01*
X78343709Y-78269475D01*
X78206790Y-78190426D01*
X78206786Y-78190424D01*
X78206784Y-78190423D01*
X78054057Y-78149500D01*
X77895943Y-78149500D01*
X77743216Y-78190423D01*
X77743209Y-78190426D01*
X77606290Y-78269475D01*
X77606282Y-78269481D01*
X77494481Y-78381282D01*
X77494475Y-78381290D01*
X77415426Y-78518209D01*
X77415423Y-78518216D01*
X77374500Y-78670943D01*
X77374500Y-78829057D01*
X77415413Y-78981744D01*
X77415423Y-78981783D01*
X77415426Y-78981790D01*
X77494475Y-79118709D01*
X77494479Y-79118714D01*
X77494480Y-79118716D01*
X77606284Y-79230520D01*
X77606285Y-79230521D01*
X77606287Y-79230522D01*
X77628095Y-79243113D01*
X77676311Y-79293680D01*
X77689534Y-79362287D01*
X77663566Y-79427152D01*
X77606651Y-79467680D01*
X77566095Y-79474500D01*
X70343982Y-79474500D01*
X70235763Y-79503497D01*
X70235760Y-79503498D01*
X70138740Y-79559513D01*
X70138734Y-79559517D01*
X69585071Y-80113181D01*
X69523748Y-80146666D01*
X69497390Y-80149500D01*
X69470943Y-80149500D01*
X69318216Y-80190423D01*
X69318209Y-80190426D01*
X69181290Y-80269475D01*
X69181282Y-80269481D01*
X69069481Y-80381282D01*
X69069475Y-80381290D01*
X68990426Y-80518209D01*
X68990423Y-80518216D01*
X68949500Y-80670943D01*
X68949500Y-80829057D01*
X68986748Y-80968066D01*
X68990423Y-80981783D01*
X68990426Y-80981790D01*
X69069475Y-81118709D01*
X69069479Y-81118714D01*
X69069480Y-81118716D01*
X69181284Y-81230520D01*
X69181286Y-81230521D01*
X69181290Y-81230524D01*
X69263503Y-81277989D01*
X69318216Y-81309577D01*
X69470943Y-81350500D01*
X69470945Y-81350500D01*
X69629055Y-81350500D01*
X69629057Y-81350500D01*
X69781784Y-81309577D01*
X69918716Y-81230520D01*
X70030520Y-81118716D01*
X70109577Y-80981784D01*
X70150500Y-80829057D01*
X70150500Y-80802610D01*
X70170185Y-80735571D01*
X70186819Y-80714929D01*
X70539929Y-80361819D01*
X70601252Y-80328334D01*
X70627610Y-80325500D01*
X80661941Y-80325500D01*
X80728980Y-80345185D01*
X80774735Y-80397989D01*
X80784679Y-80467147D01*
X80767668Y-80514290D01*
X80766006Y-80517000D01*
X80683788Y-80678360D01*
X80683787Y-80678363D01*
X80627829Y-80850589D01*
X80599500Y-81029448D01*
X80599500Y-81210551D01*
X80627829Y-81389410D01*
X80683787Y-81561636D01*
X80683788Y-81561639D01*
X80766006Y-81722997D01*
X80872441Y-81869494D01*
X80872445Y-81869499D01*
X81000500Y-81997554D01*
X81000505Y-81997558D01*
X81112676Y-82079054D01*
X81147006Y-82103996D01*
X81248780Y-82155853D01*
X81278684Y-82171090D01*
X81329480Y-82219065D01*
X81346275Y-82286886D01*
X81323737Y-82353021D01*
X81269022Y-82396472D01*
X81260708Y-82399506D01*
X81231781Y-82408905D01*
X81042439Y-82505380D01*
X80988282Y-82544727D01*
X80988282Y-82544728D01*
X81620591Y-83177037D01*
X81557007Y-83194075D01*
X81442993Y-83259901D01*
X81349901Y-83352993D01*
X81284075Y-83467007D01*
X81267037Y-83530591D01*
X80634728Y-82898282D01*
X80634727Y-82898282D01*
X80595380Y-82952439D01*
X80498904Y-83141782D01*
X80433242Y-83343869D01*
X80433242Y-83343872D01*
X80400000Y-83553753D01*
X80400000Y-83766246D01*
X80433242Y-83976127D01*
X80433242Y-83976130D01*
X80498904Y-84178217D01*
X80595375Y-84367550D01*
X80634728Y-84421716D01*
X81267037Y-83789408D01*
X81284075Y-83852993D01*
X81349901Y-83967007D01*
X81442993Y-84060099D01*
X81557007Y-84125925D01*
X81620590Y-84142962D01*
X80988282Y-84775269D01*
X80988282Y-84775270D01*
X81042449Y-84814624D01*
X81231780Y-84911094D01*
X81260705Y-84920492D01*
X81318381Y-84959929D01*
X81345580Y-85024287D01*
X81333667Y-85093134D01*
X81286424Y-85144610D01*
X81278685Y-85148908D01*
X81147004Y-85216004D01*
X81000505Y-85322441D01*
X81000500Y-85322445D01*
X80872445Y-85450500D01*
X80872441Y-85450505D01*
X80766006Y-85597002D01*
X80683788Y-85758360D01*
X80683787Y-85758363D01*
X80627829Y-85930589D01*
X80599500Y-86109448D01*
X80599500Y-86290551D01*
X80627829Y-86469410D01*
X80683787Y-86641636D01*
X80683788Y-86641639D01*
X80722896Y-86718390D01*
X80764733Y-86800500D01*
X80766006Y-86802997D01*
X80872441Y-86949494D01*
X80872445Y-86949499D01*
X81000500Y-87077554D01*
X81000505Y-87077558D01*
X81074462Y-87131290D01*
X81147006Y-87183996D01*
X81214035Y-87218149D01*
X81308360Y-87266211D01*
X81308363Y-87266212D01*
X81354770Y-87281290D01*
X81480591Y-87322171D01*
X81553639Y-87333740D01*
X81640678Y-87347527D01*
X81703813Y-87377456D01*
X81740744Y-87436768D01*
X81739746Y-87506631D01*
X81701136Y-87564863D01*
X81640678Y-87592473D01*
X81480589Y-87617829D01*
X81308363Y-87673787D01*
X81308360Y-87673788D01*
X81147002Y-87756006D01*
X81000505Y-87862441D01*
X81000500Y-87862445D01*
X80872445Y-87990500D01*
X80872441Y-87990505D01*
X80766006Y-88137002D01*
X80683788Y-88298360D01*
X80683787Y-88298363D01*
X80627829Y-88470589D01*
X80599500Y-88649448D01*
X80599500Y-88830551D01*
X80627829Y-89009410D01*
X80683787Y-89181636D01*
X80683788Y-89181639D01*
X80766006Y-89342997D01*
X80872441Y-89489494D01*
X80872445Y-89489499D01*
X81000500Y-89617554D01*
X81000505Y-89617558D01*
X81088226Y-89681290D01*
X81147006Y-89723996D01*
X81233792Y-89768216D01*
X81308360Y-89806211D01*
X81308363Y-89806212D01*
X81345309Y-89818216D01*
X81480591Y-89862171D01*
X81553639Y-89873740D01*
X81640678Y-89887527D01*
X81703813Y-89917456D01*
X81740744Y-89976768D01*
X81739746Y-90046631D01*
X81701136Y-90104863D01*
X81640678Y-90132473D01*
X81480589Y-90157829D01*
X81308363Y-90213787D01*
X81308360Y-90213788D01*
X81147002Y-90296006D01*
X81000505Y-90402441D01*
X81000500Y-90402445D01*
X80872445Y-90530500D01*
X80872441Y-90530505D01*
X80766006Y-90677002D01*
X80683788Y-90838360D01*
X80683787Y-90838363D01*
X80627829Y-91010589D01*
X80599500Y-91189448D01*
X80599500Y-91370551D01*
X80627829Y-91549410D01*
X80683787Y-91721636D01*
X80683788Y-91721639D01*
X80738955Y-91829907D01*
X80758909Y-91869070D01*
X80766006Y-91882997D01*
X80872441Y-92029494D01*
X80872445Y-92029499D01*
X81000500Y-92157554D01*
X81000505Y-92157558D01*
X81083995Y-92218216D01*
X81147006Y-92263996D01*
X81248780Y-92315853D01*
X81278684Y-92331090D01*
X81329480Y-92379065D01*
X81346275Y-92446886D01*
X81323737Y-92513021D01*
X81269022Y-92556472D01*
X81260708Y-92559506D01*
X81231781Y-92568905D01*
X81042439Y-92665380D01*
X80988282Y-92704727D01*
X80988282Y-92704728D01*
X81620591Y-93337037D01*
X81557007Y-93354075D01*
X81442993Y-93419901D01*
X81349901Y-93512993D01*
X81284075Y-93627007D01*
X81267037Y-93690591D01*
X80634728Y-93058282D01*
X80634727Y-93058282D01*
X80595380Y-93112439D01*
X80498904Y-93301782D01*
X80433242Y-93503869D01*
X80433242Y-93503872D01*
X80400000Y-93713753D01*
X80400000Y-93926246D01*
X80433242Y-94136127D01*
X80433242Y-94136130D01*
X80498904Y-94338217D01*
X80595375Y-94527550D01*
X80634728Y-94581716D01*
X81267037Y-93949408D01*
X81284075Y-94012993D01*
X81349901Y-94127007D01*
X81442993Y-94220099D01*
X81557007Y-94285925D01*
X81620590Y-94302962D01*
X80988282Y-94935269D01*
X80988282Y-94935270D01*
X81042449Y-94974624D01*
X81231780Y-95071094D01*
X81260705Y-95080492D01*
X81318381Y-95119929D01*
X81345580Y-95184287D01*
X81333667Y-95253134D01*
X81286424Y-95304610D01*
X81278685Y-95308908D01*
X81147004Y-95376004D01*
X81000505Y-95482441D01*
X81000500Y-95482445D01*
X80872445Y-95610500D01*
X80872441Y-95610505D01*
X80766006Y-95757002D01*
X80683788Y-95918360D01*
X80683787Y-95918363D01*
X80627829Y-96090589D01*
X80599500Y-96269448D01*
X80599500Y-96450551D01*
X80627829Y-96629410D01*
X80683787Y-96801636D01*
X80683788Y-96801639D01*
X80766006Y-96962997D01*
X80872441Y-97109494D01*
X80872445Y-97109499D01*
X81000500Y-97237554D01*
X81000505Y-97237558D01*
X81128287Y-97330396D01*
X81147006Y-97343996D01*
X81178445Y-97360015D01*
X81229241Y-97407990D01*
X81246036Y-97475811D01*
X81223498Y-97541946D01*
X81168783Y-97585397D01*
X81122150Y-97594500D01*
X80742899Y-97594500D01*
X80675860Y-97574815D01*
X80630105Y-97522011D01*
X80625262Y-97509712D01*
X80615865Y-97481522D01*
X80011863Y-95669512D01*
X80005500Y-95630300D01*
X80005500Y-94562222D01*
X80005500Y-94562210D01*
X80004028Y-94532257D01*
X80001645Y-94508069D01*
X79997247Y-94478423D01*
X79985411Y-94418918D01*
X79968025Y-94361603D01*
X79949511Y-94316908D01*
X79949508Y-94316901D01*
X79921282Y-94264097D01*
X79921280Y-94264092D01*
X79894502Y-94224016D01*
X79894489Y-94223998D01*
X79856493Y-94177700D01*
X79822298Y-94143505D01*
X79816462Y-94138716D01*
X79775999Y-94105508D01*
X79757757Y-94093319D01*
X79735907Y-94078719D01*
X79735889Y-94078708D01*
X79683085Y-94050485D01*
X79683075Y-94050480D01*
X79638382Y-94031969D01*
X79581081Y-94014588D01*
X79550478Y-94008501D01*
X79521579Y-94002753D01*
X79521571Y-94002751D01*
X79521557Y-94002749D01*
X79491926Y-93998354D01*
X79467742Y-93995972D01*
X79460691Y-93995625D01*
X79437789Y-93994500D01*
X79437776Y-93994500D01*
X67677904Y-93994500D01*
X67648463Y-93985855D01*
X67618477Y-93979332D01*
X67613461Y-93975577D01*
X67610865Y-93974815D01*
X67590223Y-93958181D01*
X62479690Y-88847648D01*
X70924500Y-88847648D01*
X70924500Y-89052351D01*
X70956522Y-89254534D01*
X71019781Y-89449223D01*
X71055580Y-89519481D01*
X71105888Y-89618216D01*
X71112715Y-89631613D01*
X71233028Y-89797213D01*
X71377786Y-89941971D01*
X71517163Y-90043232D01*
X71543390Y-90062287D01*
X71659607Y-90121503D01*
X71725776Y-90155218D01*
X71725778Y-90155218D01*
X71725781Y-90155220D01*
X71830137Y-90189127D01*
X71920465Y-90218477D01*
X72021557Y-90234488D01*
X72122648Y-90250500D01*
X72122649Y-90250500D01*
X72327351Y-90250500D01*
X72327352Y-90250500D01*
X72529534Y-90218477D01*
X72724219Y-90155220D01*
X72906610Y-90062287D01*
X72999590Y-89994732D01*
X73072213Y-89941971D01*
X73072215Y-89941968D01*
X73072219Y-89941966D01*
X73216966Y-89797219D01*
X73216968Y-89797215D01*
X73216971Y-89797213D01*
X73270167Y-89723993D01*
X73337287Y-89631610D01*
X73430220Y-89449219D01*
X73493477Y-89254534D01*
X73525500Y-89052352D01*
X73525500Y-88847648D01*
X73493477Y-88645466D01*
X73488946Y-88631522D01*
X73464127Y-88555137D01*
X73430220Y-88450781D01*
X73430218Y-88450778D01*
X73430218Y-88450776D01*
X73384181Y-88360425D01*
X73337287Y-88268390D01*
X73324289Y-88250499D01*
X73216971Y-88102786D01*
X73072213Y-87958028D01*
X72906613Y-87837715D01*
X72906612Y-87837714D01*
X72906610Y-87837713D01*
X72849653Y-87808691D01*
X72724223Y-87744781D01*
X72529534Y-87681522D01*
X72354995Y-87653878D01*
X72327352Y-87649500D01*
X72122648Y-87649500D01*
X72098329Y-87653351D01*
X71920465Y-87681522D01*
X71725776Y-87744781D01*
X71543386Y-87837715D01*
X71377786Y-87958028D01*
X71233028Y-88102786D01*
X71112715Y-88268386D01*
X71019781Y-88450776D01*
X70956522Y-88645465D01*
X70924500Y-88847648D01*
X62479690Y-88847648D01*
X61001433Y-87369391D01*
X60979226Y-87349263D01*
X60960408Y-87333820D01*
X60936380Y-87316000D01*
X60936360Y-87315985D01*
X60936347Y-87315976D01*
X60885905Y-87282272D01*
X60885898Y-87282268D01*
X60885895Y-87282266D01*
X60848045Y-87260713D01*
X60848027Y-87260703D01*
X60816192Y-87245472D01*
X60799818Y-87238219D01*
X60799811Y-87238217D01*
X60797472Y-87237736D01*
X60786461Y-87234940D01*
X60731084Y-87218142D01*
X60699259Y-87211812D01*
X60683789Y-87208735D01*
X60683787Y-87208734D01*
X60683783Y-87208734D01*
X60683776Y-87208733D01*
X60636993Y-87204126D01*
X60624190Y-87202865D01*
X60575810Y-87202865D01*
X60564248Y-87204003D01*
X60516224Y-87208733D01*
X60516217Y-87208734D01*
X60468924Y-87218140D01*
X60468918Y-87218142D01*
X60411606Y-87235526D01*
X60411602Y-87235528D01*
X60366905Y-87254043D01*
X60314101Y-87282268D01*
X60279841Y-87305159D01*
X60263667Y-87315967D01*
X60263637Y-87315987D01*
X60239586Y-87333822D01*
X60239559Y-87333843D01*
X60220806Y-87349234D01*
X60220779Y-87349257D01*
X60198575Y-87369381D01*
X59969381Y-87598575D01*
X59949257Y-87620779D01*
X59949234Y-87620806D01*
X59933843Y-87639559D01*
X59933822Y-87639586D01*
X59915987Y-87663637D01*
X59882271Y-87714097D01*
X59854040Y-87766911D01*
X59854038Y-87766917D01*
X59835527Y-87811604D01*
X59818143Y-87868914D01*
X59808737Y-87916195D01*
X59808736Y-87916201D01*
X59808736Y-87916205D01*
X59804617Y-87958028D01*
X59802865Y-87975812D01*
X59802865Y-88024187D01*
X59808734Y-88083786D01*
X59818141Y-88131078D01*
X59818142Y-88131083D01*
X59829673Y-88173113D01*
X59829683Y-88173147D01*
X59841418Y-88206411D01*
X59847886Y-88223157D01*
X59847888Y-88223161D01*
X59849227Y-88225192D01*
X59855054Y-88234982D01*
X59861591Y-88247213D01*
X59882269Y-88285900D01*
X59882272Y-88285905D01*
X59915967Y-88336334D01*
X59916000Y-88336380D01*
X59933820Y-88360408D01*
X59949263Y-88379226D01*
X59969391Y-88401433D01*
X67202119Y-95634161D01*
X67224326Y-95654289D01*
X67243144Y-95669732D01*
X67267172Y-95687552D01*
X67267206Y-95687577D01*
X67317648Y-95721281D01*
X67370459Y-95749509D01*
X67415156Y-95768024D01*
X67472470Y-95785411D01*
X67531973Y-95797247D01*
X67561624Y-95801645D01*
X67585814Y-95804028D01*
X67615764Y-95805500D01*
X77970500Y-95805500D01*
X78037539Y-95825185D01*
X78083294Y-95877989D01*
X78094500Y-95929500D01*
X78094500Y-99637789D01*
X78095712Y-99662452D01*
X78095972Y-99667741D01*
X78095972Y-99667744D01*
X78098354Y-99691926D01*
X78102749Y-99721557D01*
X78102751Y-99721571D01*
X78102753Y-99721579D01*
X78102757Y-99721597D01*
X78114588Y-99781081D01*
X78131969Y-99838382D01*
X78150480Y-99883075D01*
X78150485Y-99883085D01*
X78178708Y-99935889D01*
X78178719Y-99935907D01*
X78191624Y-99955220D01*
X78205508Y-99975999D01*
X78227135Y-100002351D01*
X78243505Y-100022298D01*
X78277700Y-100056493D01*
X78277705Y-100056497D01*
X78277706Y-100056498D01*
X78324003Y-100094493D01*
X78324010Y-100094497D01*
X78324016Y-100094502D01*
X78364086Y-100121276D01*
X78364095Y-100121281D01*
X78364098Y-100121283D01*
X78416911Y-100149512D01*
X78416917Y-100149515D01*
X78430686Y-100155218D01*
X78461607Y-100168026D01*
X78518916Y-100185411D01*
X78569399Y-100195453D01*
X78578397Y-100197243D01*
X78578402Y-100197243D01*
X78578418Y-100197247D01*
X78578445Y-100197251D01*
X78578457Y-100197253D01*
X78608064Y-100201644D01*
X78608071Y-100201645D01*
X78632262Y-100204028D01*
X78662211Y-100205500D01*
X78662224Y-100205500D01*
X81122150Y-100205500D01*
X81189189Y-100225185D01*
X81234944Y-100277989D01*
X81244888Y-100347147D01*
X81215863Y-100410703D01*
X81178445Y-100439985D01*
X81147002Y-100456006D01*
X81000505Y-100562441D01*
X81000500Y-100562445D01*
X80872445Y-100690500D01*
X80872441Y-100690505D01*
X80766006Y-100837002D01*
X80683788Y-100998360D01*
X80683787Y-100998363D01*
X80627829Y-101170589D01*
X80599500Y-101349448D01*
X80599500Y-101530551D01*
X80627829Y-101709410D01*
X80683787Y-101881636D01*
X80683788Y-101881639D01*
X80766006Y-102042997D01*
X80872441Y-102189494D01*
X80872445Y-102189499D01*
X81000500Y-102317554D01*
X81000505Y-102317558D01*
X81128287Y-102410396D01*
X81147006Y-102423996D01*
X81252484Y-102477740D01*
X81308360Y-102506211D01*
X81308363Y-102506212D01*
X81394476Y-102534191D01*
X81480591Y-102562171D01*
X81553639Y-102573740D01*
X81640678Y-102587527D01*
X81703813Y-102617456D01*
X81740744Y-102676768D01*
X81739746Y-102746631D01*
X81701136Y-102804863D01*
X81640678Y-102832473D01*
X81480589Y-102857829D01*
X81308363Y-102913787D01*
X81308360Y-102913788D01*
X81147002Y-102996006D01*
X81000505Y-103102441D01*
X81000500Y-103102445D01*
X80872445Y-103230500D01*
X80872441Y-103230505D01*
X80766006Y-103377002D01*
X80683788Y-103538360D01*
X80683787Y-103538363D01*
X80627829Y-103710589D01*
X80599500Y-103889448D01*
X80599500Y-104070551D01*
X80627829Y-104249410D01*
X80683787Y-104421636D01*
X80683788Y-104421639D01*
X80766006Y-104582997D01*
X80872441Y-104729494D01*
X80872445Y-104729499D01*
X81000500Y-104857554D01*
X81000505Y-104857558D01*
X81128287Y-104950396D01*
X81147006Y-104963996D01*
X81252484Y-105017740D01*
X81308360Y-105046211D01*
X81308363Y-105046212D01*
X81394476Y-105074191D01*
X81480591Y-105102171D01*
X81563429Y-105115291D01*
X81659449Y-105130500D01*
X81659454Y-105130500D01*
X81840551Y-105130500D01*
X81927259Y-105116765D01*
X82019409Y-105102171D01*
X82191639Y-105046211D01*
X82352994Y-104963996D01*
X82499501Y-104857553D01*
X82627553Y-104729501D01*
X82733996Y-104582994D01*
X82816211Y-104421639D01*
X82872171Y-104249409D01*
X82886765Y-104157259D01*
X82900500Y-104070551D01*
X82900500Y-103889448D01*
X82884019Y-103785397D01*
X82872171Y-103710591D01*
X82816211Y-103538361D01*
X82816211Y-103538360D01*
X82787740Y-103482484D01*
X82733996Y-103377006D01*
X82720396Y-103358287D01*
X82627558Y-103230505D01*
X82627554Y-103230500D01*
X82499499Y-103102445D01*
X82499494Y-103102441D01*
X82352997Y-102996006D01*
X82352996Y-102996005D01*
X82352994Y-102996004D01*
X82301300Y-102969664D01*
X82191639Y-102913788D01*
X82191636Y-102913787D01*
X82019410Y-102857829D01*
X81859321Y-102832473D01*
X81796186Y-102802544D01*
X81759255Y-102743232D01*
X81760253Y-102673370D01*
X81798863Y-102615137D01*
X81859321Y-102587527D01*
X81929425Y-102576422D01*
X82019409Y-102562171D01*
X82191639Y-102506211D01*
X82352994Y-102423996D01*
X82499501Y-102317553D01*
X82627553Y-102189501D01*
X82733996Y-102042994D01*
X82816211Y-101881639D01*
X82872171Y-101709409D01*
X82887983Y-101609573D01*
X82900500Y-101530551D01*
X82900500Y-101349448D01*
X82876908Y-101200500D01*
X82872171Y-101170591D01*
X82816211Y-100998361D01*
X82816211Y-100998360D01*
X82762000Y-100891967D01*
X82733996Y-100837006D01*
X82720339Y-100818209D01*
X82627558Y-100690505D01*
X82627554Y-100690500D01*
X82499499Y-100562445D01*
X82499494Y-100562441D01*
X82352997Y-100456006D01*
X82352996Y-100456005D01*
X82352994Y-100456004D01*
X82321554Y-100439984D01*
X82270759Y-100392010D01*
X82253964Y-100324189D01*
X82276502Y-100258054D01*
X82331217Y-100214603D01*
X82377850Y-100205500D01*
X90637776Y-100205500D01*
X90637789Y-100205500D01*
X90667741Y-100204028D01*
X90667758Y-100204026D01*
X90667765Y-100204026D01*
X90674218Y-100203389D01*
X90691930Y-100201645D01*
X90701812Y-100200179D01*
X90721566Y-100197249D01*
X90721567Y-100197248D01*
X90721578Y-100197247D01*
X90781082Y-100185411D01*
X90838391Y-100168026D01*
X90883088Y-100149512D01*
X90935909Y-100121279D01*
X90975999Y-100094491D01*
X91022287Y-100056503D01*
X91056499Y-100022292D01*
X91094497Y-99975992D01*
X91121283Y-99935903D01*
X91149512Y-99883088D01*
X91168026Y-99838391D01*
X91185410Y-99781086D01*
X91197246Y-99721586D01*
X91201646Y-99691929D01*
X91204029Y-99667736D01*
X91205500Y-99637789D01*
X91205500Y-85097648D01*
X92349500Y-85097648D01*
X92349500Y-85302352D01*
X92352683Y-85322447D01*
X92381522Y-85504534D01*
X92444781Y-85699223D01*
X92474914Y-85758361D01*
X92521741Y-85850264D01*
X92537715Y-85881613D01*
X92658028Y-86047213D01*
X92802786Y-86191971D01*
X92957719Y-86304534D01*
X92968390Y-86312287D01*
X93084607Y-86371503D01*
X93150776Y-86405218D01*
X93150778Y-86405218D01*
X93150781Y-86405220D01*
X93232537Y-86431784D01*
X93345465Y-86468477D01*
X93446557Y-86484488D01*
X93547648Y-86500500D01*
X93547649Y-86500500D01*
X93752351Y-86500500D01*
X93752352Y-86500500D01*
X93954534Y-86468477D01*
X94149219Y-86405220D01*
X94331610Y-86312287D01*
X94453074Y-86224039D01*
X94497213Y-86191971D01*
X94497215Y-86191968D01*
X94497219Y-86191966D01*
X94641966Y-86047219D01*
X94641968Y-86047215D01*
X94641971Y-86047213D01*
X94699370Y-85968209D01*
X94762287Y-85881610D01*
X94855220Y-85699219D01*
X94918477Y-85504534D01*
X94950500Y-85302352D01*
X94950500Y-85097648D01*
X94941652Y-85041783D01*
X94918477Y-84895465D01*
X94865293Y-84731783D01*
X94855220Y-84700781D01*
X94855218Y-84700778D01*
X94855218Y-84700776D01*
X94793198Y-84579057D01*
X94762287Y-84518390D01*
X94734773Y-84480520D01*
X94641971Y-84352786D01*
X94497213Y-84208028D01*
X94331613Y-84087715D01*
X94331612Y-84087714D01*
X94331610Y-84087713D01*
X94274653Y-84058691D01*
X94149223Y-83994781D01*
X93954534Y-83931522D01*
X93779995Y-83903878D01*
X93752352Y-83899500D01*
X93547648Y-83899500D01*
X93523329Y-83903351D01*
X93345465Y-83931522D01*
X93150776Y-83994781D01*
X92968386Y-84087715D01*
X92802786Y-84208028D01*
X92658028Y-84352786D01*
X92537715Y-84518386D01*
X92444781Y-84700776D01*
X92381522Y-84895465D01*
X92355530Y-85059576D01*
X92349500Y-85097648D01*
X91205500Y-85097648D01*
X91205500Y-73724574D01*
X91206310Y-73710424D01*
X91247768Y-73349500D01*
X92155053Y-65450781D01*
X92901671Y-58950813D01*
X92902143Y-58946421D01*
X92902489Y-58942972D01*
X92902495Y-58942912D01*
X92902897Y-58938600D01*
X92903665Y-58929665D01*
X92904286Y-58920989D01*
X92904691Y-58913925D01*
X92905066Y-58905196D01*
X92905323Y-58896235D01*
X92905418Y-58891859D01*
X92905469Y-58888304D01*
X92905500Y-58883922D01*
X92905500Y-53162210D01*
X92904028Y-53132261D01*
X92901645Y-53108070D01*
X92897247Y-53078417D01*
X92885411Y-53018915D01*
X92868025Y-52961603D01*
X92849511Y-52916908D01*
X92831360Y-52882951D01*
X92817119Y-52814552D01*
X92842118Y-52749308D01*
X92898423Y-52707937D01*
X92940719Y-52700500D01*
X93752405Y-52700500D01*
X93796519Y-52700500D01*
X93803472Y-52700695D01*
X94095306Y-52717084D01*
X94109103Y-52718638D01*
X94393827Y-52767015D01*
X94407382Y-52770108D01*
X94546141Y-52810084D01*
X94684899Y-52850060D01*
X94698025Y-52854653D01*
X94964841Y-52965172D01*
X94977355Y-52971198D01*
X95143444Y-53062992D01*
X95230125Y-53110899D01*
X95241899Y-53118297D01*
X95477430Y-53285415D01*
X95488302Y-53294085D01*
X95550329Y-53349516D01*
X95703642Y-53486524D01*
X95713475Y-53496357D01*
X95905914Y-53711697D01*
X95914584Y-53722569D01*
X96081702Y-53958100D01*
X96089100Y-53969874D01*
X96228797Y-54222637D01*
X96234830Y-54235165D01*
X96345346Y-54501975D01*
X96349939Y-54515100D01*
X96429890Y-54792615D01*
X96432984Y-54806172D01*
X96481359Y-55090885D01*
X96482916Y-55104703D01*
X96499305Y-55396527D01*
X96499500Y-55403480D01*
X96499500Y-77894647D01*
X96479815Y-77961686D01*
X96427011Y-78007441D01*
X96357853Y-78017385D01*
X96313501Y-78002035D01*
X96206784Y-77940423D01*
X96168900Y-77930272D01*
X96054057Y-77899500D01*
X95895943Y-77899500D01*
X95743216Y-77940423D01*
X95743209Y-77940426D01*
X95606290Y-78019475D01*
X95606282Y-78019481D01*
X95494481Y-78131282D01*
X95494475Y-78131290D01*
X95415426Y-78268209D01*
X95415423Y-78268216D01*
X95374500Y-78420943D01*
X95374500Y-78579057D01*
X95399122Y-78670945D01*
X95415423Y-78731783D01*
X95415426Y-78731790D01*
X95494475Y-78868709D01*
X95494479Y-78868714D01*
X95494480Y-78868716D01*
X95606284Y-78980520D01*
X95606286Y-78980521D01*
X95606290Y-78980524D01*
X95742677Y-79059266D01*
X95743216Y-79059577D01*
X95895943Y-79100500D01*
X95895945Y-79100500D01*
X96054055Y-79100500D01*
X96054057Y-79100500D01*
X96206784Y-79059577D01*
X96313500Y-78997964D01*
X96381401Y-78981492D01*
X96447427Y-79004345D01*
X96490618Y-79059266D01*
X96499500Y-79105352D01*
X96499500Y-108447686D01*
X96499450Y-108447686D01*
X96499869Y-108458930D01*
X96486596Y-108695294D01*
X96485039Y-108709113D01*
X96436664Y-108993825D01*
X96433570Y-109007381D01*
X96353620Y-109284895D01*
X96349027Y-109298021D01*
X96238510Y-109564830D01*
X96232477Y-109577358D01*
X96092777Y-109830125D01*
X96085378Y-109841899D01*
X95918264Y-110077423D01*
X95909594Y-110088295D01*
X95717158Y-110303629D01*
X95707326Y-110313462D01*
X95491982Y-110505904D01*
X95481110Y-110514574D01*
X95245579Y-110681691D01*
X95233805Y-110689089D01*
X94981039Y-110828786D01*
X94968510Y-110834819D01*
X94701705Y-110945332D01*
X94688580Y-110949925D01*
X94411065Y-111029874D01*
X94397508Y-111032968D01*
X94112795Y-111081341D01*
X94098977Y-111082898D01*
X93806799Y-111099304D01*
X93799849Y-111099499D01*
X93776637Y-111099499D01*
X93756087Y-111099499D01*
X93756084Y-111099499D01*
X93746089Y-111099500D01*
X93746088Y-111099499D01*
X93746087Y-111099500D01*
X-256347Y-111099500D01*
X-261321Y-111099400D01*
X-266703Y-111099183D01*
X-284497Y-111098469D01*
X-291373Y-111098001D01*
X-582170Y-111070074D01*
X-595793Y-111067997D01*
X-878331Y-111008682D01*
X-891640Y-111005105D01*
X-1165839Y-110914807D01*
X-1178668Y-110909776D01*
X-1441160Y-110789608D01*
X-1453352Y-110783184D01*
X-1700885Y-110634634D01*
X-1712289Y-110626897D01*
X-1941807Y-110451798D01*
X-1952282Y-110442844D01*
X-2097909Y-110303629D01*
X-2160966Y-110243347D01*
X-2170373Y-110233297D01*
X-2355632Y-110011875D01*
X-2363864Y-110000844D01*
X-2523407Y-109760235D01*
X-2530372Y-109748345D01*
X-2618159Y-109577358D01*
X-2662230Y-109491520D01*
X-2667830Y-109478936D01*
X-2739020Y-109291585D01*
X-2770376Y-109209064D01*
X-2774545Y-109195936D01*
X-2846510Y-108916361D01*
X-2849195Y-108902865D01*
X-2889695Y-108617016D01*
X-2890867Y-108603285D01*
X-2899446Y-108313068D01*
X-2899500Y-108309404D01*
X-2899500Y-108305569D01*
X-2899458Y-108302339D01*
X-2899298Y-108296188D01*
X-2898361Y-108260247D01*
X-2898363Y-108260240D01*
X-2898438Y-108259664D01*
X-2899500Y-108243468D01*
X-2899500Y-106847648D01*
X66199500Y-106847648D01*
X66199500Y-107052351D01*
X66231522Y-107254534D01*
X66294781Y-107449223D01*
X66387715Y-107631613D01*
X66508028Y-107797213D01*
X66652786Y-107941971D01*
X66807749Y-108054556D01*
X66818390Y-108062287D01*
X66934607Y-108121503D01*
X67000776Y-108155218D01*
X67000778Y-108155218D01*
X67000781Y-108155220D01*
X67105137Y-108189127D01*
X67195465Y-108218477D01*
X67296557Y-108234488D01*
X67397648Y-108250500D01*
X67397649Y-108250500D01*
X67602351Y-108250500D01*
X67602352Y-108250500D01*
X67804534Y-108218477D01*
X67999219Y-108155220D01*
X68181610Y-108062287D01*
X68274590Y-107994732D01*
X68347213Y-107941971D01*
X68347215Y-107941968D01*
X68347219Y-107941966D01*
X68491966Y-107797219D01*
X68491968Y-107797215D01*
X68491971Y-107797213D01*
X68544732Y-107724590D01*
X68612287Y-107631610D01*
X68705220Y-107449219D01*
X68768477Y-107254534D01*
X68800500Y-107052352D01*
X68800500Y-106847648D01*
X68768477Y-106645466D01*
X68705220Y-106450781D01*
X68705218Y-106450778D01*
X68705218Y-106450776D01*
X68658749Y-106359577D01*
X68612287Y-106268390D01*
X68576192Y-106218709D01*
X68491971Y-106102786D01*
X68347213Y-105958028D01*
X68181613Y-105837715D01*
X68181612Y-105837714D01*
X68181610Y-105837713D01*
X68124653Y-105808691D01*
X67999223Y-105744781D01*
X67804534Y-105681522D01*
X67629995Y-105653878D01*
X67602352Y-105649500D01*
X67397648Y-105649500D01*
X67373329Y-105653351D01*
X67195465Y-105681522D01*
X67000776Y-105744781D01*
X66818386Y-105837715D01*
X66652786Y-105958028D01*
X66508028Y-106102786D01*
X66387715Y-106268386D01*
X66294781Y-106450776D01*
X66231522Y-106645465D01*
X66199500Y-106847648D01*
X-2899500Y-106847648D01*
X-2899500Y-105770943D01*
X32399500Y-105770943D01*
X32399500Y-105929057D01*
X32427026Y-106031783D01*
X32440423Y-106081783D01*
X32440426Y-106081790D01*
X32519475Y-106218709D01*
X32519479Y-106218714D01*
X32519480Y-106218716D01*
X32631284Y-106330520D01*
X32631286Y-106330521D01*
X32631290Y-106330524D01*
X32752492Y-106400499D01*
X32768216Y-106409577D01*
X32920943Y-106450500D01*
X32920945Y-106450500D01*
X33079055Y-106450500D01*
X33079057Y-106450500D01*
X33231784Y-106409577D01*
X33368716Y-106330520D01*
X33480520Y-106218716D01*
X33559577Y-106081784D01*
X33600500Y-105929057D01*
X33600500Y-105770943D01*
X33587103Y-105720943D01*
X40399500Y-105720943D01*
X40399500Y-105879057D01*
X40412898Y-105929057D01*
X40440423Y-106031783D01*
X40440426Y-106031790D01*
X40519475Y-106168709D01*
X40519479Y-106168714D01*
X40519480Y-106168716D01*
X40631284Y-106280520D01*
X40631286Y-106280521D01*
X40631290Y-106280524D01*
X40717887Y-106330520D01*
X40768216Y-106359577D01*
X40920943Y-106400500D01*
X40920945Y-106400500D01*
X41079055Y-106400500D01*
X41079057Y-106400500D01*
X41231784Y-106359577D01*
X41368716Y-106280520D01*
X41480520Y-106168716D01*
X41559577Y-106031784D01*
X41600500Y-105879057D01*
X41600500Y-105720943D01*
X48349500Y-105720943D01*
X48349500Y-105879057D01*
X48362898Y-105929057D01*
X48390423Y-106031783D01*
X48390426Y-106031790D01*
X48469475Y-106168709D01*
X48469479Y-106168714D01*
X48469480Y-106168716D01*
X48581284Y-106280520D01*
X48581286Y-106280521D01*
X48581290Y-106280524D01*
X48667887Y-106330520D01*
X48718216Y-106359577D01*
X48870943Y-106400500D01*
X48870945Y-106400500D01*
X49029055Y-106400500D01*
X49029057Y-106400500D01*
X49181784Y-106359577D01*
X49318716Y-106280520D01*
X49430520Y-106168716D01*
X49509577Y-106031784D01*
X49550500Y-105879057D01*
X49550500Y-105720943D01*
X56324500Y-105720943D01*
X56324500Y-105879057D01*
X56337898Y-105929057D01*
X56365423Y-106031783D01*
X56365426Y-106031790D01*
X56444475Y-106168709D01*
X56444479Y-106168714D01*
X56444480Y-106168716D01*
X56556284Y-106280520D01*
X56556286Y-106280521D01*
X56556290Y-106280524D01*
X56642887Y-106330520D01*
X56693216Y-106359577D01*
X56845943Y-106400500D01*
X56845945Y-106400500D01*
X57004055Y-106400500D01*
X57004057Y-106400500D01*
X57156784Y-106359577D01*
X57293716Y-106280520D01*
X57405520Y-106168716D01*
X57484577Y-106031784D01*
X57525500Y-105879057D01*
X57525500Y-105720943D01*
X64299500Y-105720943D01*
X64299500Y-105879057D01*
X64312898Y-105929057D01*
X64340423Y-106031783D01*
X64340426Y-106031790D01*
X64419475Y-106168709D01*
X64419479Y-106168714D01*
X64419480Y-106168716D01*
X64531284Y-106280520D01*
X64531286Y-106280521D01*
X64531290Y-106280524D01*
X64617887Y-106330520D01*
X64668216Y-106359577D01*
X64820943Y-106400500D01*
X64820945Y-106400500D01*
X64979055Y-106400500D01*
X64979057Y-106400500D01*
X65131784Y-106359577D01*
X65268716Y-106280520D01*
X65380520Y-106168716D01*
X65459577Y-106031784D01*
X65500500Y-105879057D01*
X65500500Y-105720943D01*
X65459577Y-105568216D01*
X65409391Y-105481290D01*
X65380524Y-105431290D01*
X65380518Y-105431282D01*
X65268717Y-105319481D01*
X65268709Y-105319475D01*
X65131790Y-105240426D01*
X65131786Y-105240424D01*
X65131784Y-105240423D01*
X64979057Y-105199500D01*
X64820943Y-105199500D01*
X64668216Y-105240423D01*
X64668209Y-105240426D01*
X64531290Y-105319475D01*
X64531282Y-105319481D01*
X64419481Y-105431282D01*
X64419475Y-105431290D01*
X64340426Y-105568209D01*
X64340423Y-105568216D01*
X64299500Y-105720943D01*
X57525500Y-105720943D01*
X57484577Y-105568216D01*
X57434391Y-105481290D01*
X57405524Y-105431290D01*
X57405518Y-105431282D01*
X57293717Y-105319481D01*
X57293709Y-105319475D01*
X57156790Y-105240426D01*
X57156786Y-105240424D01*
X57156784Y-105240423D01*
X57004057Y-105199500D01*
X56845943Y-105199500D01*
X56693216Y-105240423D01*
X56693209Y-105240426D01*
X56556290Y-105319475D01*
X56556282Y-105319481D01*
X56444481Y-105431282D01*
X56444475Y-105431290D01*
X56365426Y-105568209D01*
X56365423Y-105568216D01*
X56324500Y-105720943D01*
X49550500Y-105720943D01*
X49509577Y-105568216D01*
X49459391Y-105481290D01*
X49430524Y-105431290D01*
X49430518Y-105431282D01*
X49318717Y-105319481D01*
X49318709Y-105319475D01*
X49181790Y-105240426D01*
X49181786Y-105240424D01*
X49181784Y-105240423D01*
X49029057Y-105199500D01*
X48870943Y-105199500D01*
X48718216Y-105240423D01*
X48718209Y-105240426D01*
X48581290Y-105319475D01*
X48581282Y-105319481D01*
X48469481Y-105431282D01*
X48469475Y-105431290D01*
X48390426Y-105568209D01*
X48390423Y-105568216D01*
X48349500Y-105720943D01*
X41600500Y-105720943D01*
X41559577Y-105568216D01*
X41509391Y-105481290D01*
X41480524Y-105431290D01*
X41480518Y-105431282D01*
X41368717Y-105319481D01*
X41368709Y-105319475D01*
X41231790Y-105240426D01*
X41231786Y-105240424D01*
X41231784Y-105240423D01*
X41079057Y-105199500D01*
X40920943Y-105199500D01*
X40768216Y-105240423D01*
X40768209Y-105240426D01*
X40631290Y-105319475D01*
X40631282Y-105319481D01*
X40519481Y-105431282D01*
X40519475Y-105431290D01*
X40440426Y-105568209D01*
X40440423Y-105568216D01*
X40399500Y-105720943D01*
X33587103Y-105720943D01*
X33559577Y-105618216D01*
X33530706Y-105568209D01*
X33480524Y-105481290D01*
X33480518Y-105481282D01*
X33368717Y-105369481D01*
X33368709Y-105369475D01*
X33231790Y-105290426D01*
X33231786Y-105290424D01*
X33231784Y-105290423D01*
X33079057Y-105249500D01*
X32920943Y-105249500D01*
X32768216Y-105290423D01*
X32768209Y-105290426D01*
X32631290Y-105369475D01*
X32631282Y-105369481D01*
X32519481Y-105481282D01*
X32519475Y-105481290D01*
X32440426Y-105618209D01*
X32440424Y-105618214D01*
X32440423Y-105618216D01*
X32399500Y-105770943D01*
X-2899500Y-105770943D01*
X-2899500Y-98847648D01*
X44349500Y-98847648D01*
X44349500Y-99052351D01*
X44381522Y-99254534D01*
X44444781Y-99449223D01*
X44537715Y-99631613D01*
X44658028Y-99797213D01*
X44802786Y-99941971D01*
X44913349Y-100022298D01*
X44968390Y-100062287D01*
X45084162Y-100121276D01*
X45150776Y-100155218D01*
X45150778Y-100155218D01*
X45150781Y-100155220D01*
X45243684Y-100185406D01*
X45345465Y-100218477D01*
X45446557Y-100234488D01*
X45547648Y-100250500D01*
X45547649Y-100250500D01*
X45752351Y-100250500D01*
X45752352Y-100250500D01*
X45954534Y-100218477D01*
X46149219Y-100155220D01*
X46331610Y-100062287D01*
X46450371Y-99976003D01*
X46497213Y-99941971D01*
X46497215Y-99941968D01*
X46497219Y-99941966D01*
X46641966Y-99797219D01*
X46641968Y-99797215D01*
X46641971Y-99797213D01*
X46718463Y-99691929D01*
X46762287Y-99631610D01*
X46855220Y-99449219D01*
X46918477Y-99254534D01*
X46950500Y-99052352D01*
X46950500Y-98847648D01*
X46918823Y-98647648D01*
X49499500Y-98647648D01*
X49499500Y-98852351D01*
X49531522Y-99054534D01*
X49594781Y-99249223D01*
X49687715Y-99431613D01*
X49808028Y-99597213D01*
X49952786Y-99741971D01*
X50085502Y-99838393D01*
X50118390Y-99862287D01*
X50234607Y-99921503D01*
X50300776Y-99955218D01*
X50300778Y-99955218D01*
X50300781Y-99955220D01*
X50405137Y-99989127D01*
X50495465Y-100018477D01*
X50519590Y-100022298D01*
X50697648Y-100050500D01*
X50697649Y-100050500D01*
X50902351Y-100050500D01*
X50902352Y-100050500D01*
X51104534Y-100018477D01*
X51299219Y-99955220D01*
X51481610Y-99862287D01*
X51570578Y-99797648D01*
X52674500Y-99797648D01*
X52674500Y-100002351D01*
X52706522Y-100204534D01*
X52769781Y-100399223D01*
X52790551Y-100439985D01*
X52856532Y-100569480D01*
X52862715Y-100581613D01*
X52983028Y-100747213D01*
X53127786Y-100891971D01*
X53236484Y-100970943D01*
X53293390Y-101012287D01*
X53409607Y-101071503D01*
X53475776Y-101105218D01*
X53475778Y-101105218D01*
X53475781Y-101105220D01*
X53549138Y-101129055D01*
X53670465Y-101168477D01*
X53771557Y-101184488D01*
X53872648Y-101200500D01*
X53872649Y-101200500D01*
X54077351Y-101200500D01*
X54077352Y-101200500D01*
X54279534Y-101168477D01*
X54474219Y-101105220D01*
X54656610Y-101012287D01*
X54713514Y-100970943D01*
X66324500Y-100970943D01*
X66324500Y-101129057D01*
X66335629Y-101170589D01*
X66365423Y-101281783D01*
X66365426Y-101281790D01*
X66444475Y-101418709D01*
X66444479Y-101418714D01*
X66444480Y-101418716D01*
X66556284Y-101530520D01*
X66556286Y-101530521D01*
X66556290Y-101530524D01*
X66693209Y-101609573D01*
X66693216Y-101609577D01*
X66845943Y-101650500D01*
X66845945Y-101650500D01*
X67004055Y-101650500D01*
X67004057Y-101650500D01*
X67156784Y-101609577D01*
X67293716Y-101530520D01*
X67405520Y-101418716D01*
X67484577Y-101281784D01*
X67525500Y-101129057D01*
X67525500Y-100970943D01*
X67484577Y-100818216D01*
X67484573Y-100818209D01*
X67405524Y-100681290D01*
X67405518Y-100681282D01*
X67293717Y-100569481D01*
X67293709Y-100569475D01*
X67156790Y-100490426D01*
X67156786Y-100490424D01*
X67156784Y-100490423D01*
X67004057Y-100449500D01*
X66845943Y-100449500D01*
X66693216Y-100490423D01*
X66693209Y-100490426D01*
X66556290Y-100569475D01*
X66556282Y-100569481D01*
X66444481Y-100681282D01*
X66444475Y-100681290D01*
X66365426Y-100818209D01*
X66365423Y-100818216D01*
X66324500Y-100970943D01*
X54713514Y-100970943D01*
X54749590Y-100944732D01*
X54822213Y-100891971D01*
X54822215Y-100891968D01*
X54822219Y-100891966D01*
X54966966Y-100747219D01*
X54966968Y-100747215D01*
X54966971Y-100747213D01*
X55019732Y-100674590D01*
X55087287Y-100581610D01*
X55180220Y-100399219D01*
X55243477Y-100204534D01*
X55275500Y-100002352D01*
X55275500Y-99797648D01*
X55272876Y-99781079D01*
X55243477Y-99595465D01*
X55180218Y-99400776D01*
X55102997Y-99249223D01*
X55087287Y-99218390D01*
X55079556Y-99207749D01*
X54966971Y-99052786D01*
X54822213Y-98908028D01*
X54656613Y-98787715D01*
X54656612Y-98787714D01*
X54656610Y-98787713D01*
X54599653Y-98758691D01*
X54474223Y-98694781D01*
X54279534Y-98631522D01*
X54104995Y-98603878D01*
X54077352Y-98599500D01*
X53872648Y-98599500D01*
X53848329Y-98603351D01*
X53670465Y-98631522D01*
X53475776Y-98694781D01*
X53293386Y-98787715D01*
X53127786Y-98908028D01*
X52983028Y-99052786D01*
X52862715Y-99218386D01*
X52769781Y-99400776D01*
X52706522Y-99595465D01*
X52674500Y-99797648D01*
X51570578Y-99797648D01*
X51593377Y-99781084D01*
X51647213Y-99741971D01*
X51647215Y-99741968D01*
X51647219Y-99741966D01*
X51791966Y-99597219D01*
X51791968Y-99597215D01*
X51791971Y-99597213D01*
X51844732Y-99524590D01*
X51912287Y-99431610D01*
X52005220Y-99249219D01*
X52068477Y-99054534D01*
X52100500Y-98852352D01*
X52100500Y-98647648D01*
X52068477Y-98445466D01*
X52005220Y-98250781D01*
X52005218Y-98250778D01*
X52005218Y-98250776D01*
X51971503Y-98184607D01*
X51912287Y-98068390D01*
X51904556Y-98057749D01*
X51791971Y-97902786D01*
X51647213Y-97758028D01*
X51481613Y-97637715D01*
X51481612Y-97637714D01*
X51481610Y-97637713D01*
X51396800Y-97594500D01*
X51299223Y-97544781D01*
X51104534Y-97481522D01*
X50929995Y-97453878D01*
X50902352Y-97449500D01*
X50697648Y-97449500D01*
X50676478Y-97452853D01*
X50495465Y-97481522D01*
X50300776Y-97544781D01*
X50118386Y-97637715D01*
X49952786Y-97758028D01*
X49808028Y-97902786D01*
X49687715Y-98068386D01*
X49594781Y-98250776D01*
X49531522Y-98445465D01*
X49499500Y-98647648D01*
X46918823Y-98647648D01*
X46918477Y-98645466D01*
X46855220Y-98450781D01*
X46855218Y-98450778D01*
X46855218Y-98450776D01*
X46821503Y-98384607D01*
X46762287Y-98268390D01*
X46749490Y-98250776D01*
X46641971Y-98102786D01*
X46497213Y-97958028D01*
X46331613Y-97837715D01*
X46331612Y-97837714D01*
X46331610Y-97837713D01*
X46274653Y-97808691D01*
X46149223Y-97744781D01*
X45954534Y-97681522D01*
X45779995Y-97653878D01*
X45752352Y-97649500D01*
X45547648Y-97649500D01*
X45523329Y-97653351D01*
X45345465Y-97681522D01*
X45150776Y-97744781D01*
X44968386Y-97837715D01*
X44802786Y-97958028D01*
X44658028Y-98102786D01*
X44537715Y-98268386D01*
X44444781Y-98450776D01*
X44381522Y-98645465D01*
X44349500Y-98847648D01*
X-2899500Y-98847648D01*
X-2899500Y-97120943D01*
X35224500Y-97120943D01*
X35224500Y-97279057D01*
X35259048Y-97407990D01*
X35265423Y-97431783D01*
X35265426Y-97431790D01*
X35344475Y-97568709D01*
X35344479Y-97568714D01*
X35344480Y-97568716D01*
X35456284Y-97680520D01*
X35456286Y-97680521D01*
X35456290Y-97680524D01*
X35567588Y-97744781D01*
X35593216Y-97759577D01*
X35745943Y-97800500D01*
X35745945Y-97800500D01*
X35904055Y-97800500D01*
X35904057Y-97800500D01*
X36056784Y-97759577D01*
X36193716Y-97680520D01*
X36305520Y-97568716D01*
X36384577Y-97431784D01*
X36425500Y-97279057D01*
X36425500Y-97120943D01*
X36384577Y-96968216D01*
X36381562Y-96962994D01*
X36305524Y-96831290D01*
X36305518Y-96831282D01*
X36193717Y-96719481D01*
X36193709Y-96719475D01*
X36056790Y-96640426D01*
X36056786Y-96640424D01*
X36056784Y-96640423D01*
X35904057Y-96599500D01*
X35745943Y-96599500D01*
X35593216Y-96640423D01*
X35593209Y-96640426D01*
X35456290Y-96719475D01*
X35456282Y-96719481D01*
X35344481Y-96831282D01*
X35344475Y-96831290D01*
X35265426Y-96968209D01*
X35265423Y-96968216D01*
X35224500Y-97120943D01*
X-2899500Y-97120943D01*
X-2899500Y-93213972D01*
X15034855Y-93213972D01*
X15034855Y-93371665D01*
X15065616Y-93526308D01*
X15065619Y-93526320D01*
X15125957Y-93671991D01*
X15125964Y-93672004D01*
X15213565Y-93803107D01*
X15213568Y-93803111D01*
X15325062Y-93914605D01*
X15325066Y-93914608D01*
X15456169Y-94002209D01*
X15456182Y-94002216D01*
X15601853Y-94062554D01*
X15601858Y-94062556D01*
X15756508Y-94093318D01*
X15756511Y-94093319D01*
X15756513Y-94093319D01*
X15914199Y-94093319D01*
X15914200Y-94093318D01*
X16068852Y-94062556D01*
X16188509Y-94012993D01*
X16214527Y-94002216D01*
X16214527Y-94002215D01*
X16214534Y-94002213D01*
X16345644Y-93914608D01*
X16457144Y-93803108D01*
X16494200Y-93747648D01*
X20749500Y-93747648D01*
X20749500Y-93952351D01*
X20781522Y-94154534D01*
X20844781Y-94349223D01*
X20880293Y-94418918D01*
X20935646Y-94527554D01*
X20937715Y-94531613D01*
X21058028Y-94697213D01*
X21202786Y-94841971D01*
X21331204Y-94935270D01*
X21368390Y-94962287D01*
X21478143Y-95018209D01*
X21550776Y-95055218D01*
X21550778Y-95055218D01*
X21550781Y-95055220D01*
X21637901Y-95083527D01*
X21745465Y-95118477D01*
X21754633Y-95119929D01*
X21947648Y-95150500D01*
X21947649Y-95150500D01*
X22152351Y-95150500D01*
X22152352Y-95150500D01*
X22354534Y-95118477D01*
X22500829Y-95070943D01*
X37324500Y-95070943D01*
X37324500Y-95229057D01*
X37363875Y-95376004D01*
X37365423Y-95381783D01*
X37365426Y-95381790D01*
X37444475Y-95518709D01*
X37444479Y-95518714D01*
X37444480Y-95518716D01*
X37556284Y-95630520D01*
X37556286Y-95630521D01*
X37556290Y-95630524D01*
X37655124Y-95687585D01*
X37693216Y-95709577D01*
X37845943Y-95750500D01*
X37845945Y-95750500D01*
X38004055Y-95750500D01*
X38004057Y-95750500D01*
X38156784Y-95709577D01*
X38293716Y-95630520D01*
X38405520Y-95518716D01*
X38484577Y-95381784D01*
X38525500Y-95229057D01*
X38525500Y-95170943D01*
X54974500Y-95170943D01*
X54974500Y-95329057D01*
X54987080Y-95376004D01*
X55015423Y-95481783D01*
X55015426Y-95481790D01*
X55094475Y-95618709D01*
X55094479Y-95618714D01*
X55094480Y-95618716D01*
X55206284Y-95730520D01*
X55206286Y-95730521D01*
X55206290Y-95730524D01*
X55321861Y-95797248D01*
X55343216Y-95809577D01*
X55495943Y-95850500D01*
X55495945Y-95850500D01*
X55654055Y-95850500D01*
X55654057Y-95850500D01*
X55806784Y-95809577D01*
X55943716Y-95730520D01*
X56055520Y-95618716D01*
X56134577Y-95481784D01*
X56175500Y-95329057D01*
X56175500Y-95170943D01*
X56134577Y-95018216D01*
X56134573Y-95018209D01*
X56055524Y-94881290D01*
X56055518Y-94881282D01*
X55943717Y-94769481D01*
X55943709Y-94769475D01*
X55806790Y-94690426D01*
X55806786Y-94690424D01*
X55806784Y-94690423D01*
X55654057Y-94649500D01*
X55495943Y-94649500D01*
X55343216Y-94690423D01*
X55343209Y-94690426D01*
X55206290Y-94769475D01*
X55206282Y-94769481D01*
X55094481Y-94881282D01*
X55094475Y-94881290D01*
X55015426Y-95018209D01*
X55015423Y-95018216D01*
X54974500Y-95170943D01*
X38525500Y-95170943D01*
X38525500Y-95070943D01*
X38484577Y-94918216D01*
X38463258Y-94881290D01*
X38405524Y-94781290D01*
X38405518Y-94781282D01*
X38293717Y-94669481D01*
X38293709Y-94669475D01*
X38156790Y-94590426D01*
X38156786Y-94590424D01*
X38156784Y-94590423D01*
X38004057Y-94549500D01*
X37845943Y-94549500D01*
X37693216Y-94590423D01*
X37693209Y-94590426D01*
X37556290Y-94669475D01*
X37556282Y-94669481D01*
X37444481Y-94781282D01*
X37444475Y-94781290D01*
X37365426Y-94918209D01*
X37365423Y-94918216D01*
X37324500Y-95070943D01*
X22500829Y-95070943D01*
X22549219Y-95055220D01*
X22731610Y-94962287D01*
X22731612Y-94962285D01*
X22731615Y-94962284D01*
X22897212Y-94841971D01*
X22897210Y-94841971D01*
X22897219Y-94841966D01*
X23041966Y-94697219D01*
X23041968Y-94697215D01*
X23041971Y-94697213D01*
X23140046Y-94562222D01*
X23162287Y-94531610D01*
X23255220Y-94349219D01*
X23318477Y-94154534D01*
X23350500Y-93952352D01*
X23350500Y-93747648D01*
X23338817Y-93673884D01*
X23318477Y-93545465D01*
X23265293Y-93381783D01*
X23255220Y-93350781D01*
X23255218Y-93350778D01*
X23255218Y-93350776D01*
X23193198Y-93229057D01*
X23162287Y-93168390D01*
X23091490Y-93070945D01*
X23091489Y-93070943D01*
X58724500Y-93070943D01*
X58724500Y-93229057D01*
X58757999Y-93354075D01*
X58765423Y-93381783D01*
X58765426Y-93381790D01*
X58844475Y-93518709D01*
X58844479Y-93518714D01*
X58844480Y-93518716D01*
X58956284Y-93630520D01*
X58956286Y-93630521D01*
X58956290Y-93630524D01*
X59028137Y-93672004D01*
X59093216Y-93709577D01*
X59245943Y-93750500D01*
X59245945Y-93750500D01*
X59404055Y-93750500D01*
X59404057Y-93750500D01*
X59556784Y-93709577D01*
X59693716Y-93630520D01*
X59805520Y-93518716D01*
X59884577Y-93381784D01*
X59925500Y-93229057D01*
X59925500Y-93070943D01*
X59884577Y-92918216D01*
X59827132Y-92818717D01*
X59805524Y-92781290D01*
X59805518Y-92781282D01*
X59693717Y-92669481D01*
X59693709Y-92669475D01*
X59556790Y-92590426D01*
X59556786Y-92590424D01*
X59556784Y-92590423D01*
X59404057Y-92549500D01*
X59245943Y-92549500D01*
X59093216Y-92590423D01*
X59093209Y-92590426D01*
X58956290Y-92669475D01*
X58956282Y-92669481D01*
X58844481Y-92781282D01*
X58844475Y-92781290D01*
X58765426Y-92918209D01*
X58765423Y-92918216D01*
X58724500Y-93070943D01*
X23091489Y-93070943D01*
X23041971Y-93002786D01*
X22897213Y-92858028D01*
X22731613Y-92737715D01*
X22731612Y-92737714D01*
X22731610Y-92737713D01*
X22674653Y-92708691D01*
X22549223Y-92644781D01*
X22354534Y-92581522D01*
X22179995Y-92553878D01*
X22152352Y-92549500D01*
X21947648Y-92549500D01*
X21923329Y-92553351D01*
X21745465Y-92581522D01*
X21550776Y-92644781D01*
X21368386Y-92737715D01*
X21202786Y-92858028D01*
X21058028Y-93002786D01*
X20937715Y-93168386D01*
X20844781Y-93350776D01*
X20781522Y-93545465D01*
X20749500Y-93747648D01*
X16494200Y-93747648D01*
X16495033Y-93746402D01*
X16543489Y-93673885D01*
X16543489Y-93673884D01*
X16544743Y-93672007D01*
X16544745Y-93672004D01*
X16544749Y-93671998D01*
X16605092Y-93526316D01*
X16635855Y-93371661D01*
X16635855Y-93213977D01*
X16635855Y-93213974D01*
X16635854Y-93213972D01*
X16626786Y-93168386D01*
X16605092Y-93059322D01*
X16601438Y-93050500D01*
X16544752Y-92913646D01*
X16544745Y-92913633D01*
X16457144Y-92782530D01*
X16457141Y-92782526D01*
X16345647Y-92671032D01*
X16345643Y-92671029D01*
X16214540Y-92583428D01*
X16214527Y-92583421D01*
X16068856Y-92523083D01*
X16068844Y-92523080D01*
X15914200Y-92492319D01*
X15914197Y-92492319D01*
X15756513Y-92492319D01*
X15756510Y-92492319D01*
X15601865Y-92523080D01*
X15601853Y-92523083D01*
X15456182Y-92583421D01*
X15456169Y-92583428D01*
X15325066Y-92671029D01*
X15325062Y-92671032D01*
X15213568Y-92782526D01*
X15213565Y-92782530D01*
X15125964Y-92913633D01*
X15125957Y-92913646D01*
X15065619Y-93059317D01*
X15065616Y-93059329D01*
X15034855Y-93213972D01*
X-2899500Y-93213972D01*
X-2899500Y-91870943D01*
X19574500Y-91870943D01*
X19574500Y-92029057D01*
X19609473Y-92159576D01*
X19615423Y-92181783D01*
X19615426Y-92181790D01*
X19694475Y-92318709D01*
X19694479Y-92318714D01*
X19694480Y-92318716D01*
X19806284Y-92430520D01*
X19806286Y-92430521D01*
X19806290Y-92430524D01*
X19913324Y-92492319D01*
X19943216Y-92509577D01*
X20095943Y-92550500D01*
X20095945Y-92550500D01*
X20254055Y-92550500D01*
X20254057Y-92550500D01*
X20406784Y-92509577D01*
X20543716Y-92430520D01*
X20655520Y-92318716D01*
X20734577Y-92181784D01*
X20775500Y-92029057D01*
X20775500Y-91870943D01*
X20734577Y-91718216D01*
X20711967Y-91679054D01*
X20655524Y-91581290D01*
X20655518Y-91581282D01*
X20543717Y-91469481D01*
X20543709Y-91469475D01*
X20406790Y-91390426D01*
X20406786Y-91390424D01*
X20406784Y-91390423D01*
X20254057Y-91349500D01*
X20095943Y-91349500D01*
X19943216Y-91390423D01*
X19943209Y-91390426D01*
X19806290Y-91469475D01*
X19806282Y-91469481D01*
X19694481Y-91581282D01*
X19694475Y-91581290D01*
X19615426Y-91718209D01*
X19615423Y-91718216D01*
X19574500Y-91870943D01*
X-2899500Y-91870943D01*
X-2899500Y-89970943D01*
X21099500Y-89970943D01*
X21099500Y-90129057D01*
X21140289Y-90281282D01*
X21140423Y-90281783D01*
X21140426Y-90281790D01*
X21219475Y-90418709D01*
X21219479Y-90418714D01*
X21219480Y-90418716D01*
X21331284Y-90530520D01*
X21331286Y-90530521D01*
X21331290Y-90530524D01*
X21419775Y-90581610D01*
X21468216Y-90609577D01*
X21620943Y-90650500D01*
X21620945Y-90650500D01*
X21779055Y-90650500D01*
X21779057Y-90650500D01*
X21931784Y-90609577D01*
X22068716Y-90530520D01*
X22180520Y-90418716D01*
X22259577Y-90281784D01*
X22300500Y-90129057D01*
X22300500Y-89970943D01*
X22259577Y-89818216D01*
X22247702Y-89797648D01*
X25299500Y-89797648D01*
X25299500Y-90002351D01*
X25331522Y-90204534D01*
X25394781Y-90399223D01*
X25487715Y-90581613D01*
X25608028Y-90747213D01*
X25752786Y-90891971D01*
X25838322Y-90954115D01*
X25918390Y-91012287D01*
X26034607Y-91071503D01*
X26100776Y-91105218D01*
X26100778Y-91105218D01*
X26100781Y-91105220D01*
X26178659Y-91130524D01*
X26295465Y-91168477D01*
X26396557Y-91184488D01*
X26497648Y-91200500D01*
X26497649Y-91200500D01*
X26702351Y-91200500D01*
X26702352Y-91200500D01*
X26904534Y-91168477D01*
X27099219Y-91105220D01*
X27281610Y-91012287D01*
X27374590Y-90944732D01*
X27447213Y-90891971D01*
X27447215Y-90891968D01*
X27447219Y-90891966D01*
X27591966Y-90747219D01*
X27591968Y-90747215D01*
X27591971Y-90747213D01*
X27662236Y-90650500D01*
X27712287Y-90581610D01*
X27805220Y-90399219D01*
X27868477Y-90204534D01*
X27900500Y-90002352D01*
X27900500Y-89797648D01*
X27895837Y-89768209D01*
X27868477Y-89595465D01*
X27805218Y-89400776D01*
X27753396Y-89299071D01*
X27728138Y-89249500D01*
X27727194Y-89247648D01*
X37449500Y-89247648D01*
X37449500Y-89452351D01*
X37481522Y-89654534D01*
X37544781Y-89849223D01*
X37606802Y-89970943D01*
X37636798Y-90029815D01*
X37637715Y-90031613D01*
X37758028Y-90197213D01*
X37902786Y-90341971D01*
X38052165Y-90450499D01*
X38068390Y-90462287D01*
X38184607Y-90521503D01*
X38250776Y-90555218D01*
X38250778Y-90555218D01*
X38250781Y-90555220D01*
X38355137Y-90589127D01*
X38445465Y-90618477D01*
X38546557Y-90634488D01*
X38647648Y-90650500D01*
X38647649Y-90650500D01*
X38852351Y-90650500D01*
X38852352Y-90650500D01*
X39054534Y-90618477D01*
X39249219Y-90555220D01*
X39431610Y-90462287D01*
X39524590Y-90394732D01*
X39597213Y-90341971D01*
X39597215Y-90341968D01*
X39597219Y-90341966D01*
X39741966Y-90197219D01*
X39741968Y-90197215D01*
X39741971Y-90197213D01*
X39825829Y-90081790D01*
X39862287Y-90031610D01*
X39918675Y-89920943D01*
X52774500Y-89920943D01*
X52774500Y-90079057D01*
X52811922Y-90218716D01*
X52815423Y-90231783D01*
X52815426Y-90231790D01*
X52894475Y-90368709D01*
X52894479Y-90368714D01*
X52894480Y-90368716D01*
X53006284Y-90480520D01*
X53006286Y-90480521D01*
X53006290Y-90480524D01*
X53092887Y-90530520D01*
X53143216Y-90559577D01*
X53295943Y-90600500D01*
X53300500Y-90600500D01*
X53367539Y-90620185D01*
X53413294Y-90672989D01*
X53424500Y-90724500D01*
X53424500Y-90729057D01*
X53453789Y-90838363D01*
X53465423Y-90881783D01*
X53465426Y-90881790D01*
X53544475Y-91018709D01*
X53544479Y-91018714D01*
X53544480Y-91018716D01*
X53656284Y-91130520D01*
X53656286Y-91130521D01*
X53656290Y-91130524D01*
X53777494Y-91200500D01*
X53793216Y-91209577D01*
X53945943Y-91250500D01*
X53945945Y-91250500D01*
X54104055Y-91250500D01*
X54104057Y-91250500D01*
X54256784Y-91209577D01*
X54256785Y-91209576D01*
X54264635Y-91207473D01*
X54265425Y-91210423D01*
X54320436Y-91204483D01*
X54382930Y-91235729D01*
X54418610Y-91295801D01*
X54416345Y-91360048D01*
X54417527Y-91360365D01*
X54416153Y-91365489D01*
X54416149Y-91365627D01*
X54416035Y-91365932D01*
X54415423Y-91368215D01*
X54415423Y-91368216D01*
X54374500Y-91520943D01*
X54374500Y-91679057D01*
X54415289Y-91831282D01*
X54415423Y-91831783D01*
X54415426Y-91831790D01*
X54494475Y-91968709D01*
X54494479Y-91968714D01*
X54494480Y-91968716D01*
X54606284Y-92080520D01*
X54606286Y-92080521D01*
X54606290Y-92080524D01*
X54739710Y-92157553D01*
X54743216Y-92159577D01*
X54895943Y-92200500D01*
X54895945Y-92200500D01*
X55054055Y-92200500D01*
X55054057Y-92200500D01*
X55133299Y-92179267D01*
X55203146Y-92180929D01*
X55261009Y-92220090D01*
X55288514Y-92284318D01*
X55285167Y-92331132D01*
X55274500Y-92370943D01*
X55274500Y-92529057D01*
X55315086Y-92680524D01*
X55315423Y-92681783D01*
X55315426Y-92681790D01*
X55394475Y-92818709D01*
X55394479Y-92818714D01*
X55394480Y-92818716D01*
X55506284Y-92930520D01*
X55506286Y-92930521D01*
X55506290Y-92930524D01*
X55643209Y-93009573D01*
X55643216Y-93009577D01*
X55795943Y-93050500D01*
X55795945Y-93050500D01*
X55954055Y-93050500D01*
X55954057Y-93050500D01*
X56106784Y-93009577D01*
X56243716Y-92930520D01*
X56355520Y-92818716D01*
X56434577Y-92681784D01*
X56475500Y-92529057D01*
X56475500Y-92370943D01*
X56434577Y-92218216D01*
X56378417Y-92120943D01*
X56874500Y-92120943D01*
X56874500Y-92279057D01*
X56915086Y-92430524D01*
X56915423Y-92431783D01*
X56915426Y-92431790D01*
X56994475Y-92568709D01*
X56994479Y-92568714D01*
X56994480Y-92568716D01*
X57106284Y-92680520D01*
X57106286Y-92680521D01*
X57106290Y-92680524D01*
X57243209Y-92759573D01*
X57243216Y-92759577D01*
X57395943Y-92800500D01*
X57395945Y-92800500D01*
X57554055Y-92800500D01*
X57554057Y-92800500D01*
X57706784Y-92759577D01*
X57843716Y-92680520D01*
X57955520Y-92568716D01*
X58034577Y-92431784D01*
X58075500Y-92279057D01*
X58075500Y-92120943D01*
X58034577Y-91968216D01*
X58034573Y-91968209D01*
X57955524Y-91831290D01*
X57955518Y-91831282D01*
X57843717Y-91719481D01*
X57843709Y-91719475D01*
X57706790Y-91640426D01*
X57706786Y-91640424D01*
X57706784Y-91640423D01*
X57554057Y-91599500D01*
X57395943Y-91599500D01*
X57243216Y-91640423D01*
X57243209Y-91640426D01*
X57106290Y-91719475D01*
X57106282Y-91719481D01*
X56994481Y-91831282D01*
X56994475Y-91831290D01*
X56915426Y-91968209D01*
X56915423Y-91968216D01*
X56874500Y-92120943D01*
X56378417Y-92120943D01*
X56355520Y-92081284D01*
X56243716Y-91969480D01*
X56243714Y-91969479D01*
X56243709Y-91969475D01*
X56106790Y-91890426D01*
X56106786Y-91890424D01*
X56106784Y-91890423D01*
X55954057Y-91849500D01*
X55795943Y-91849500D01*
X55716700Y-91870732D01*
X55646851Y-91869070D01*
X55588989Y-91829907D01*
X55561485Y-91765679D01*
X55564832Y-91718867D01*
X55575500Y-91679057D01*
X55575500Y-91520943D01*
X55534577Y-91368216D01*
X55529861Y-91360048D01*
X55455524Y-91231290D01*
X55455518Y-91231282D01*
X55343717Y-91119481D01*
X55343709Y-91119475D01*
X55206790Y-91040426D01*
X55206786Y-91040424D01*
X55206784Y-91040423D01*
X55054057Y-90999500D01*
X54895943Y-90999500D01*
X54743216Y-91040423D01*
X54743214Y-91040423D01*
X54735365Y-91042527D01*
X54734578Y-91039589D01*
X54679479Y-91045501D01*
X54617007Y-91014212D01*
X54581368Y-90954115D01*
X54583673Y-90889956D01*
X54582473Y-90889635D01*
X54583872Y-90884411D01*
X54583877Y-90884290D01*
X54583976Y-90884022D01*
X54584574Y-90881788D01*
X54584577Y-90881784D01*
X54625500Y-90729057D01*
X54625500Y-90570943D01*
X54584577Y-90418216D01*
X54575469Y-90402441D01*
X54505524Y-90281290D01*
X54505518Y-90281282D01*
X54393717Y-90169481D01*
X54393709Y-90169475D01*
X54256790Y-90090426D01*
X54256786Y-90090424D01*
X54256784Y-90090423D01*
X54104057Y-90049500D01*
X54104056Y-90049500D01*
X54099500Y-90049500D01*
X54032461Y-90029815D01*
X53986706Y-89977011D01*
X53975500Y-89925500D01*
X53975500Y-89920945D01*
X53975500Y-89920943D01*
X53934577Y-89768216D01*
X53884391Y-89681290D01*
X53855524Y-89631290D01*
X53855518Y-89631282D01*
X53743717Y-89519481D01*
X53743709Y-89519475D01*
X53606790Y-89440426D01*
X53606786Y-89440424D01*
X53606784Y-89440423D01*
X53454057Y-89399500D01*
X53295943Y-89399500D01*
X53143216Y-89440423D01*
X53143209Y-89440426D01*
X53006290Y-89519475D01*
X53006282Y-89519481D01*
X52894481Y-89631282D01*
X52894475Y-89631290D01*
X52815426Y-89768209D01*
X52815423Y-89768216D01*
X52774500Y-89920943D01*
X39918675Y-89920943D01*
X39948621Y-89862171D01*
X39951500Y-89856521D01*
X39951501Y-89856519D01*
X39955216Y-89849226D01*
X39955220Y-89849219D01*
X40018477Y-89654534D01*
X40050500Y-89452352D01*
X40050500Y-89247648D01*
X40040045Y-89181636D01*
X40018477Y-89045465D01*
X39989127Y-88955137D01*
X39955220Y-88850781D01*
X39955218Y-88850778D01*
X39955218Y-88850776D01*
X39921503Y-88784607D01*
X39862287Y-88668390D01*
X39816392Y-88605220D01*
X39741971Y-88502786D01*
X39597213Y-88358028D01*
X39431613Y-88237715D01*
X39431612Y-88237714D01*
X39431610Y-88237713D01*
X39374653Y-88208691D01*
X39249223Y-88144781D01*
X39054534Y-88081522D01*
X38879995Y-88053878D01*
X38852352Y-88049500D01*
X38647648Y-88049500D01*
X38623329Y-88053351D01*
X38445465Y-88081522D01*
X38250776Y-88144781D01*
X38068386Y-88237715D01*
X37902786Y-88358028D01*
X37758028Y-88502786D01*
X37637715Y-88668386D01*
X37544781Y-88850776D01*
X37481522Y-89045465D01*
X37449500Y-89247648D01*
X27727194Y-89247648D01*
X27712287Y-89218390D01*
X27712285Y-89218387D01*
X27712284Y-89218385D01*
X27591971Y-89052786D01*
X27447213Y-88908028D01*
X27281613Y-88787715D01*
X27281612Y-88787714D01*
X27281610Y-88787713D01*
X27224653Y-88758691D01*
X27099223Y-88694781D01*
X26904534Y-88631522D01*
X26729995Y-88603878D01*
X26702352Y-88599500D01*
X26497648Y-88599500D01*
X26473329Y-88603351D01*
X26295465Y-88631522D01*
X26100776Y-88694781D01*
X25918386Y-88787715D01*
X25752786Y-88908028D01*
X25608028Y-89052786D01*
X25487715Y-89218386D01*
X25394781Y-89400776D01*
X25331522Y-89595465D01*
X25299500Y-89797648D01*
X22247702Y-89797648D01*
X22180524Y-89681290D01*
X22180518Y-89681282D01*
X22068717Y-89569481D01*
X22068709Y-89569475D01*
X21931790Y-89490426D01*
X21931786Y-89490424D01*
X21931784Y-89490423D01*
X21779057Y-89449500D01*
X21620943Y-89449500D01*
X21468216Y-89490423D01*
X21468209Y-89490426D01*
X21331290Y-89569475D01*
X21331282Y-89569481D01*
X21219481Y-89681282D01*
X21219475Y-89681290D01*
X21140426Y-89818209D01*
X21140423Y-89818216D01*
X21099500Y-89970943D01*
X-2899500Y-89970943D01*
X-2899500Y-85435798D01*
X7256681Y-85435798D01*
X7256681Y-85593491D01*
X7287442Y-85748134D01*
X7287445Y-85748146D01*
X7347783Y-85893817D01*
X7347790Y-85893830D01*
X7435391Y-86024933D01*
X7435394Y-86024937D01*
X7546888Y-86136431D01*
X7546892Y-86136434D01*
X7677995Y-86224035D01*
X7678008Y-86224042D01*
X7810823Y-86279055D01*
X7823684Y-86284382D01*
X7963956Y-86312284D01*
X7978334Y-86315144D01*
X7978337Y-86315145D01*
X7978339Y-86315145D01*
X8136025Y-86315145D01*
X8136026Y-86315144D01*
X8290678Y-86284382D01*
X8436360Y-86224039D01*
X8567470Y-86136434D01*
X8678970Y-86024934D01*
X8766575Y-85893824D01*
X8826918Y-85748142D01*
X8857681Y-85593487D01*
X8857681Y-85435803D01*
X8857681Y-85435800D01*
X8857680Y-85435798D01*
X8847619Y-85385218D01*
X8826918Y-85281148D01*
X8810049Y-85240423D01*
X8766578Y-85135472D01*
X8766571Y-85135459D01*
X8678970Y-85004356D01*
X8678967Y-85004352D01*
X8567473Y-84892858D01*
X8567469Y-84892855D01*
X8436366Y-84805254D01*
X8436353Y-84805247D01*
X8290682Y-84744909D01*
X8290670Y-84744906D01*
X8136026Y-84714145D01*
X8136023Y-84714145D01*
X7978339Y-84714145D01*
X7978336Y-84714145D01*
X7823691Y-84744906D01*
X7823679Y-84744909D01*
X7678008Y-84805247D01*
X7677995Y-84805254D01*
X7546892Y-84892855D01*
X7546888Y-84892858D01*
X7435394Y-85004352D01*
X7435391Y-85004356D01*
X7347790Y-85135459D01*
X7347783Y-85135472D01*
X7287445Y-85281143D01*
X7287442Y-85281155D01*
X7256681Y-85435798D01*
X-2899500Y-85435798D01*
X-2899500Y-82375441D01*
X1899500Y-82375441D01*
X1899500Y-82624558D01*
X1899501Y-82624575D01*
X1932017Y-82871561D01*
X1996498Y-83112207D01*
X2091830Y-83342361D01*
X2091837Y-83342376D01*
X2216400Y-83558126D01*
X2368060Y-83755774D01*
X2368066Y-83755781D01*
X2544218Y-83931933D01*
X2544225Y-83931939D01*
X2741873Y-84083599D01*
X2957623Y-84208162D01*
X2957638Y-84208169D01*
X3031755Y-84238869D01*
X3187793Y-84303502D01*
X3428435Y-84367982D01*
X3675435Y-84400500D01*
X3675442Y-84400500D01*
X3924558Y-84400500D01*
X3924565Y-84400500D01*
X4171565Y-84367982D01*
X4412207Y-84303502D01*
X4642373Y-84208164D01*
X4858127Y-84083599D01*
X5055776Y-83931938D01*
X5231938Y-83755776D01*
X5383599Y-83558127D01*
X5508164Y-83342373D01*
X5603502Y-83112207D01*
X5667982Y-82871565D01*
X5700500Y-82624565D01*
X5700500Y-82375435D01*
X5667982Y-82128435D01*
X5603502Y-81887793D01*
X5538881Y-81731784D01*
X5508169Y-81657638D01*
X5508162Y-81657623D01*
X5402619Y-81474816D01*
X5383599Y-81441873D01*
X5367539Y-81420943D01*
X9024500Y-81420943D01*
X9024500Y-81579057D01*
X9046812Y-81662324D01*
X9065423Y-81731783D01*
X9065426Y-81731790D01*
X9144475Y-81868709D01*
X9144479Y-81868714D01*
X9144480Y-81868716D01*
X9256284Y-81980520D01*
X9256286Y-81980521D01*
X9256290Y-81980524D01*
X9337838Y-82027605D01*
X9393216Y-82059577D01*
X9545943Y-82100500D01*
X9545945Y-82100500D01*
X9704055Y-82100500D01*
X9704057Y-82100500D01*
X9856784Y-82059577D01*
X9993716Y-81980520D01*
X10105520Y-81868716D01*
X10184577Y-81731784D01*
X10225500Y-81579057D01*
X10225500Y-81420943D01*
X10184577Y-81268216D01*
X10162816Y-81230524D01*
X10105524Y-81131290D01*
X10105518Y-81131282D01*
X9993717Y-81019481D01*
X9993709Y-81019475D01*
X9856790Y-80940426D01*
X9856786Y-80940424D01*
X9856784Y-80940423D01*
X9704057Y-80899500D01*
X9545943Y-80899500D01*
X9393216Y-80940423D01*
X9393209Y-80940426D01*
X9256290Y-81019475D01*
X9256282Y-81019481D01*
X9144481Y-81131282D01*
X9144475Y-81131290D01*
X9065426Y-81268209D01*
X9065423Y-81268216D01*
X9024500Y-81420943D01*
X5367539Y-81420943D01*
X5231939Y-81244225D01*
X5231933Y-81244218D01*
X5055781Y-81068066D01*
X5055774Y-81068060D01*
X4858126Y-80916400D01*
X4642376Y-80791837D01*
X4642361Y-80791830D01*
X4412207Y-80696498D01*
X4194696Y-80638216D01*
X4171565Y-80632018D01*
X4171564Y-80632017D01*
X4171561Y-80632017D01*
X3924575Y-80599501D01*
X3924570Y-80599500D01*
X3924565Y-80599500D01*
X3675435Y-80599500D01*
X3675429Y-80599500D01*
X3675424Y-80599501D01*
X3428438Y-80632017D01*
X3187792Y-80696498D01*
X2957638Y-80791830D01*
X2957623Y-80791837D01*
X2741873Y-80916400D01*
X2544225Y-81068060D01*
X2544218Y-81068066D01*
X2368066Y-81244218D01*
X2368060Y-81244225D01*
X2216400Y-81441873D01*
X2091837Y-81657623D01*
X2091830Y-81657638D01*
X1996498Y-81887792D01*
X1932017Y-82128438D01*
X1899501Y-82375424D01*
X1899500Y-82375441D01*
X-2899500Y-82375441D01*
X-2899500Y-78547648D01*
X5499500Y-78547648D01*
X5499500Y-78752351D01*
X5531522Y-78954534D01*
X5594781Y-79149223D01*
X5655412Y-79268216D01*
X5686638Y-79329501D01*
X5687715Y-79331613D01*
X5808028Y-79497213D01*
X5952786Y-79641971D01*
X6076414Y-79731790D01*
X6118390Y-79762287D01*
X6226098Y-79817167D01*
X6300776Y-79855218D01*
X6300778Y-79855218D01*
X6300781Y-79855220D01*
X6354487Y-79872670D01*
X6495465Y-79918477D01*
X6596557Y-79934488D01*
X6697648Y-79950500D01*
X6697649Y-79950500D01*
X6902351Y-79950500D01*
X6902352Y-79950500D01*
X7104534Y-79918477D01*
X7299219Y-79855220D01*
X7481610Y-79762287D01*
X7574590Y-79694732D01*
X7647213Y-79641971D01*
X7647215Y-79641968D01*
X7647219Y-79641966D01*
X7791966Y-79497219D01*
X7847383Y-79420943D01*
X11124500Y-79420943D01*
X11124500Y-79579057D01*
X11150847Y-79677383D01*
X11165423Y-79731783D01*
X11165426Y-79731790D01*
X11244475Y-79868709D01*
X11244479Y-79868714D01*
X11244480Y-79868716D01*
X11356284Y-79980520D01*
X11356286Y-79980521D01*
X11356290Y-79980524D01*
X11493209Y-80059573D01*
X11493216Y-80059577D01*
X11645943Y-80100500D01*
X11645945Y-80100500D01*
X11804055Y-80100500D01*
X11804057Y-80100500D01*
X11956784Y-80059577D01*
X12093716Y-79980520D01*
X12205520Y-79868716D01*
X12284577Y-79731784D01*
X12325500Y-79579057D01*
X12325500Y-79420943D01*
X12284577Y-79268216D01*
X12262815Y-79230522D01*
X12205524Y-79131290D01*
X12205518Y-79131282D01*
X12093717Y-79019481D01*
X12093709Y-79019475D01*
X11956790Y-78940426D01*
X11956786Y-78940424D01*
X11956784Y-78940423D01*
X11804057Y-78899500D01*
X11645943Y-78899500D01*
X11493216Y-78940423D01*
X11493209Y-78940426D01*
X11356290Y-79019475D01*
X11356282Y-79019481D01*
X11244481Y-79131282D01*
X11244475Y-79131290D01*
X11165426Y-79268209D01*
X11165423Y-79268216D01*
X11124500Y-79420943D01*
X7847383Y-79420943D01*
X7912287Y-79331610D01*
X8005220Y-79149219D01*
X8068477Y-78954534D01*
X8100500Y-78752352D01*
X8100500Y-78547648D01*
X8068477Y-78345466D01*
X8057145Y-78310591D01*
X8018100Y-78190423D01*
X8005220Y-78150781D01*
X8005218Y-78150778D01*
X8005218Y-78150776D01*
X7954124Y-78050500D01*
X7912287Y-77968390D01*
X7904556Y-77957749D01*
X7791971Y-77802786D01*
X7647213Y-77658028D01*
X7481613Y-77537715D01*
X7481612Y-77537714D01*
X7481610Y-77537713D01*
X7424653Y-77508691D01*
X7299223Y-77444781D01*
X7104534Y-77381522D01*
X6929995Y-77353878D01*
X6902352Y-77349500D01*
X6697648Y-77349500D01*
X6673329Y-77353351D01*
X6495465Y-77381522D01*
X6300776Y-77444781D01*
X6118386Y-77537715D01*
X5952786Y-77658028D01*
X5808028Y-77802786D01*
X5687715Y-77968386D01*
X5594781Y-78150776D01*
X5531522Y-78345465D01*
X5499500Y-78547648D01*
X-2899500Y-78547648D01*
X-2899500Y-76447648D01*
X7649500Y-76447648D01*
X7649500Y-76652351D01*
X7681522Y-76854534D01*
X7744781Y-77049223D01*
X7805412Y-77168216D01*
X7830888Y-77218216D01*
X7837715Y-77231613D01*
X7958028Y-77397213D01*
X8102786Y-77541971D01*
X8226414Y-77631790D01*
X8268390Y-77662287D01*
X8384607Y-77721503D01*
X8450776Y-77755218D01*
X8450778Y-77755218D01*
X8450781Y-77755220D01*
X8555137Y-77789127D01*
X8645465Y-77818477D01*
X8746557Y-77834488D01*
X8847648Y-77850500D01*
X8847649Y-77850500D01*
X9052351Y-77850500D01*
X9052352Y-77850500D01*
X9254534Y-77818477D01*
X9449219Y-77755220D01*
X9631610Y-77662287D01*
X9724590Y-77594732D01*
X9797213Y-77541971D01*
X9797215Y-77541968D01*
X9797219Y-77541966D01*
X9941966Y-77397219D01*
X9997383Y-77320943D01*
X13274500Y-77320943D01*
X13274500Y-77479057D01*
X13309473Y-77609576D01*
X13315423Y-77631783D01*
X13315426Y-77631790D01*
X13394475Y-77768709D01*
X13394479Y-77768714D01*
X13394480Y-77768716D01*
X13506284Y-77880520D01*
X13506286Y-77880521D01*
X13506290Y-77880524D01*
X13592887Y-77930520D01*
X13643216Y-77959577D01*
X13795943Y-78000500D01*
X13795945Y-78000500D01*
X13954055Y-78000500D01*
X13954057Y-78000500D01*
X14106784Y-77959577D01*
X14243716Y-77880520D01*
X14355520Y-77768716D01*
X14434577Y-77631784D01*
X14475500Y-77479057D01*
X14475500Y-77320943D01*
X14434577Y-77168216D01*
X14417207Y-77138130D01*
X14355524Y-77031290D01*
X14355518Y-77031282D01*
X14243717Y-76919481D01*
X14243709Y-76919475D01*
X14106790Y-76840426D01*
X14106786Y-76840424D01*
X14106784Y-76840423D01*
X13954057Y-76799500D01*
X13795943Y-76799500D01*
X13643216Y-76840423D01*
X13643209Y-76840426D01*
X13506290Y-76919475D01*
X13506282Y-76919481D01*
X13394481Y-77031282D01*
X13394475Y-77031290D01*
X13315426Y-77168209D01*
X13315423Y-77168216D01*
X13274500Y-77320943D01*
X9997383Y-77320943D01*
X10062287Y-77231610D01*
X10155220Y-77049219D01*
X10218477Y-76854534D01*
X10250500Y-76652352D01*
X10250500Y-76447648D01*
X10247987Y-76431783D01*
X10218477Y-76245465D01*
X10155218Y-76050776D01*
X10103588Y-75949448D01*
X10062287Y-75868390D01*
X10052717Y-75855218D01*
X9941971Y-75702786D01*
X9797213Y-75558028D01*
X9631613Y-75437715D01*
X9631612Y-75437714D01*
X9631610Y-75437713D01*
X9574653Y-75408691D01*
X9449223Y-75344781D01*
X9254534Y-75281522D01*
X9079995Y-75253878D01*
X9052352Y-75249500D01*
X8847648Y-75249500D01*
X8823329Y-75253351D01*
X8645465Y-75281522D01*
X8450776Y-75344781D01*
X8268386Y-75437715D01*
X8102786Y-75558028D01*
X7958028Y-75702786D01*
X7837715Y-75868386D01*
X7744781Y-76050776D01*
X7681522Y-76245465D01*
X7649500Y-76447648D01*
X-2899500Y-76447648D01*
X-2899500Y-74547648D01*
X10049500Y-74547648D01*
X10049500Y-74752351D01*
X10081522Y-74954534D01*
X10144781Y-75149223D01*
X10195876Y-75249500D01*
X10220408Y-75297648D01*
X10237715Y-75331613D01*
X10358028Y-75497213D01*
X10502786Y-75641971D01*
X10609472Y-75719481D01*
X10668390Y-75762287D01*
X10784607Y-75821503D01*
X10850776Y-75855218D01*
X10850778Y-75855218D01*
X10850781Y-75855220D01*
X10955137Y-75889127D01*
X11045465Y-75918477D01*
X11146557Y-75934488D01*
X11247648Y-75950500D01*
X11247649Y-75950500D01*
X11452351Y-75950500D01*
X11452352Y-75950500D01*
X11654534Y-75918477D01*
X11849219Y-75855220D01*
X12031610Y-75762287D01*
X12157333Y-75670945D01*
X12197213Y-75641971D01*
X12197215Y-75641968D01*
X12197219Y-75641966D01*
X12341966Y-75497219D01*
X12341968Y-75497215D01*
X12341971Y-75497213D01*
X12394732Y-75424590D01*
X12462287Y-75331610D01*
X12555220Y-75149219D01*
X12618477Y-74954534D01*
X12650500Y-74752352D01*
X12650500Y-74547648D01*
X12618477Y-74345466D01*
X12555220Y-74150781D01*
X12555218Y-74150778D01*
X12555218Y-74150776D01*
X12521503Y-74084607D01*
X12462287Y-73968390D01*
X12454556Y-73957749D01*
X12341971Y-73802786D01*
X12197213Y-73658028D01*
X12031613Y-73537715D01*
X12031612Y-73537714D01*
X12031610Y-73537713D01*
X11974653Y-73508691D01*
X11849223Y-73444781D01*
X11654534Y-73381522D01*
X11479995Y-73353878D01*
X11452352Y-73349500D01*
X11247648Y-73349500D01*
X11223329Y-73353351D01*
X11045465Y-73381522D01*
X10850776Y-73444781D01*
X10668386Y-73537715D01*
X10502786Y-73658028D01*
X10358028Y-73802786D01*
X10237715Y-73968386D01*
X10144781Y-74150776D01*
X10081522Y-74345465D01*
X10049500Y-74547648D01*
X-2899500Y-74547648D01*
X-2899500Y-61897648D01*
X7249500Y-61897648D01*
X7249500Y-62102351D01*
X7281522Y-62304534D01*
X7344781Y-62499223D01*
X7437715Y-62681613D01*
X7558028Y-62847213D01*
X7702786Y-62991971D01*
X7850790Y-63099500D01*
X7868390Y-63112287D01*
X7984607Y-63171503D01*
X8050776Y-63205218D01*
X8050778Y-63205218D01*
X8050781Y-63205220D01*
X8155137Y-63239127D01*
X8245465Y-63268477D01*
X8312258Y-63279056D01*
X8447648Y-63300500D01*
X8447649Y-63300500D01*
X8652351Y-63300500D01*
X8652352Y-63300500D01*
X8854534Y-63268477D01*
X9049219Y-63205220D01*
X9231610Y-63112287D01*
X9324590Y-63044732D01*
X9397213Y-62991971D01*
X9397215Y-62991968D01*
X9397219Y-62991966D01*
X9541966Y-62847219D01*
X9541968Y-62847215D01*
X9541971Y-62847213D01*
X9634773Y-62719480D01*
X9662287Y-62681610D01*
X9755220Y-62499219D01*
X9818477Y-62304534D01*
X9850500Y-62102352D01*
X9850500Y-61897648D01*
X9842749Y-61848709D01*
X9818477Y-61695465D01*
X9774154Y-61559054D01*
X9755220Y-61500781D01*
X9755218Y-61500778D01*
X9755218Y-61500776D01*
X9721503Y-61434607D01*
X9662287Y-61318390D01*
X9644133Y-61293403D01*
X9541971Y-61152786D01*
X9397213Y-61008028D01*
X9231613Y-60887715D01*
X9231612Y-60887714D01*
X9231610Y-60887713D01*
X9174653Y-60858691D01*
X9049223Y-60794781D01*
X8854534Y-60731522D01*
X8679995Y-60703878D01*
X8652352Y-60699500D01*
X8447648Y-60699500D01*
X8423329Y-60703351D01*
X8245465Y-60731522D01*
X8050776Y-60794781D01*
X7868386Y-60887715D01*
X7702786Y-61008028D01*
X7558028Y-61152786D01*
X7437715Y-61318386D01*
X7344781Y-61500776D01*
X7281522Y-61695465D01*
X7249500Y-61897648D01*
X-2899500Y-61897648D01*
X-2899500Y-59570943D01*
X7899500Y-59570943D01*
X7899500Y-59729057D01*
X7936788Y-59868216D01*
X7940423Y-59881783D01*
X7940426Y-59881790D01*
X8019475Y-60018709D01*
X8019479Y-60018714D01*
X8019480Y-60018716D01*
X8131284Y-60130520D01*
X8131286Y-60130521D01*
X8131290Y-60130524D01*
X8217887Y-60180520D01*
X8268216Y-60209577D01*
X8420943Y-60250500D01*
X8420945Y-60250500D01*
X8579055Y-60250500D01*
X8579057Y-60250500D01*
X8731784Y-60209577D01*
X8868716Y-60130520D01*
X8980520Y-60018716D01*
X9059577Y-59881784D01*
X9100500Y-59729057D01*
X9100500Y-59570943D01*
X9059577Y-59418216D01*
X9009391Y-59331290D01*
X8980524Y-59281290D01*
X8980518Y-59281282D01*
X8868717Y-59169481D01*
X8868709Y-59169475D01*
X8731790Y-59090426D01*
X8731786Y-59090424D01*
X8731784Y-59090423D01*
X8579057Y-59049500D01*
X8420943Y-59049500D01*
X8268216Y-59090423D01*
X8268209Y-59090426D01*
X8131290Y-59169475D01*
X8131282Y-59169481D01*
X8019481Y-59281282D01*
X8019475Y-59281290D01*
X7940426Y-59418209D01*
X7940423Y-59418216D01*
X7899500Y-59570943D01*
X-2899500Y-59570943D01*
X-2899500Y-55403480D01*
X-2899305Y-55396527D01*
X-2898006Y-55373397D01*
X-2882916Y-55104691D01*
X-2881362Y-55090898D01*
X-2832985Y-54806167D01*
X-2829891Y-54792615D01*
X-2826817Y-54781947D01*
X-2749939Y-54515096D01*
X-2745347Y-54501975D01*
X-2744488Y-54499901D01*
X-2634825Y-54235151D01*
X-2628805Y-54222651D01*
X-2489098Y-53969868D01*
X-2481703Y-53958100D01*
X-2471405Y-53943587D01*
X-2314578Y-53722559D01*
X-2305923Y-53711705D01*
X-2113466Y-53496346D01*
X-2103654Y-53486534D01*
X-1888295Y-53294077D01*
X-1877441Y-53285422D01*
X-1641895Y-53118293D01*
X-1630132Y-53110902D01*
X-1377349Y-52971195D01*
X-1364849Y-52965175D01*
X-1098021Y-52854651D01*
X-1084904Y-52850061D01*
X-807379Y-52770107D01*
X-793833Y-52767015D01*
X-509102Y-52718638D01*
X-495309Y-52717084D01*
X-203472Y-52700695D01*
X-196519Y-52700500D01*
X-152405Y-52700500D01*
X1887049Y-52700500D01*
X1954088Y-52720185D01*
G37*
G04 #@! TD.AperFunction*
G04 #@! TD*
G04 #@! TA.AperFunction,Conductor*
G04 #@! TO.N,+3V3*
G36*
X21864493Y-52702882D02*
G01*
X21921480Y-52714218D01*
X21966175Y-52732730D01*
X22006272Y-52759522D01*
X22012164Y-52765414D01*
X22016896Y-52767474D01*
X22040476Y-52793726D01*
X22067267Y-52833822D01*
X22085781Y-52878517D01*
X22089542Y-52897427D01*
X22097617Y-52938019D01*
X22100000Y-52962210D01*
X22100000Y-80100000D01*
X20000000Y-80100000D01*
X20000000Y-56180554D01*
X20019685Y-56113515D01*
X20072489Y-56067760D01*
X20141647Y-56057816D01*
X20143256Y-56058059D01*
X20158667Y-56060500D01*
X20158672Y-56060500D01*
X20341332Y-56060500D01*
X20341333Y-56060500D01*
X20521751Y-56031924D01*
X20695477Y-55975477D01*
X20858234Y-55892548D01*
X21006015Y-55785179D01*
X21135179Y-55656015D01*
X21242548Y-55508234D01*
X21325477Y-55345477D01*
X21381924Y-55171751D01*
X21410500Y-54991333D01*
X21410500Y-54808667D01*
X21381924Y-54628249D01*
X21325477Y-54454523D01*
X21242548Y-54291766D01*
X21135179Y-54143985D01*
X21006015Y-54014821D01*
X20858234Y-53907452D01*
X20695477Y-53824523D01*
X20521751Y-53768076D01*
X20521749Y-53768075D01*
X20521747Y-53768075D01*
X20395778Y-53748123D01*
X20341333Y-53739500D01*
X20158667Y-53739500D01*
X20116843Y-53746124D01*
X19978252Y-53768075D01*
X19978251Y-53768075D01*
X19804520Y-53824524D01*
X19641765Y-53907452D01*
X19493982Y-54014823D01*
X19445125Y-54063681D01*
X19383802Y-54097166D01*
X19357444Y-54100000D01*
X2562211Y-54100000D01*
X2538020Y-54097617D01*
X2523189Y-54094667D01*
X2478518Y-54085781D01*
X2433822Y-54067267D01*
X2393727Y-54040477D01*
X2359522Y-54006272D01*
X2332730Y-53966175D01*
X2314218Y-53921480D01*
X2302383Y-53861980D01*
X2300000Y-53837789D01*
X2300000Y-52962210D01*
X2302383Y-52938019D01*
X2314219Y-52878517D01*
X2332729Y-52833826D01*
X2359524Y-52793724D01*
X2393724Y-52759524D01*
X2433826Y-52732729D01*
X2478514Y-52714219D01*
X2535515Y-52702881D01*
X2559697Y-52700500D01*
X21840303Y-52700500D01*
X21864493Y-52702882D01*
G37*
G04 #@! TD.AperFunction*
G04 #@! TD*
G04 #@! TA.AperFunction,Conductor*
G04 #@! TO.N,+3V3*
G36*
X45970697Y-78202273D02*
G01*
X46028908Y-78213575D01*
X46072743Y-78231264D01*
X46112300Y-78256917D01*
X46146329Y-78289722D01*
X46173414Y-78328315D01*
X46192696Y-78371473D01*
X46206121Y-78429229D01*
X46209258Y-78452765D01*
X46259647Y-79828356D01*
X46258060Y-79853178D01*
X46247913Y-79914377D01*
X46230235Y-79960606D01*
X46203803Y-80002195D01*
X46169449Y-80037831D01*
X46128856Y-80065767D01*
X46083308Y-80085124D01*
X46062219Y-80089419D01*
X46022520Y-80097505D01*
X45997775Y-80100000D01*
X40004270Y-80100000D01*
X39937231Y-80080315D01*
X39891476Y-80027511D01*
X39881532Y-79958353D01*
X39893217Y-79922714D01*
X39892898Y-79922582D01*
X39894641Y-79918371D01*
X39894913Y-79917545D01*
X39895230Y-79916951D01*
X39955216Y-79772130D01*
X39955218Y-79772126D01*
X39985800Y-79618380D01*
X39985800Y-79461620D01*
X39985800Y-79461617D01*
X39985799Y-79461615D01*
X39955219Y-79307881D01*
X39955218Y-79307874D01*
X39955216Y-79307869D01*
X39895230Y-79163048D01*
X39895228Y-79163044D01*
X39808142Y-79032711D01*
X39808136Y-79032703D01*
X39697296Y-78921863D01*
X39697288Y-78921857D01*
X39566955Y-78834771D01*
X39566951Y-78834769D01*
X39422130Y-78774783D01*
X39422118Y-78774780D01*
X39268383Y-78744200D01*
X39268380Y-78744200D01*
X39111620Y-78744200D01*
X39111617Y-78744200D01*
X38957881Y-78774780D01*
X38957869Y-78774783D01*
X38813048Y-78834769D01*
X38813044Y-78834771D01*
X38682711Y-78921857D01*
X38682703Y-78921863D01*
X38571863Y-79032703D01*
X38571857Y-79032711D01*
X38484771Y-79163044D01*
X38484769Y-79163048D01*
X38424783Y-79307869D01*
X38424780Y-79307881D01*
X38394200Y-79461615D01*
X38394200Y-79618384D01*
X38424780Y-79772118D01*
X38424783Y-79772130D01*
X38484769Y-79916951D01*
X38485087Y-79917545D01*
X38485159Y-79917891D01*
X38487102Y-79922582D01*
X38486212Y-79922950D01*
X38499330Y-79985948D01*
X38474331Y-80051192D01*
X38418027Y-80092563D01*
X38375730Y-80100000D01*
X22100000Y-80100000D01*
X22100000Y-87637789D01*
X22097617Y-87661980D01*
X22097617Y-87661982D01*
X22085781Y-87721482D01*
X22067267Y-87766179D01*
X22040481Y-87806268D01*
X22006269Y-87840479D01*
X21971975Y-87863394D01*
X21966179Y-87867267D01*
X21921482Y-87885781D01*
X21887857Y-87892469D01*
X21861978Y-87897617D01*
X21837789Y-87900000D01*
X20262211Y-87900000D01*
X20238020Y-87897617D01*
X20223189Y-87894667D01*
X20178518Y-87885781D01*
X20133822Y-87867267D01*
X20093727Y-87840477D01*
X20059522Y-87806272D01*
X20032730Y-87766175D01*
X20014218Y-87721480D01*
X20002383Y-87661980D01*
X20000000Y-87637789D01*
X20000000Y-80100000D01*
X22100000Y-80100000D01*
X22100000Y-78200000D01*
X45947063Y-78200000D01*
X45970697Y-78202273D01*
G37*
G04 #@! TD.AperFunction*
G04 #@! TD*
M02*
