%TF.GenerationSoftware,KiCad,Pcbnew,9.0.5*%
%TF.CreationDate,2025-11-14T15:11:00-08:00*%
%TF.ProjectId,SYCL Badge 2024,5359434c-2042-4616-9467-652032303234,rev?*%
%TF.SameCoordinates,Original*%
%TF.FileFunction,Drillmap*%
%TF.FilePolarity,Positive*%
%FSLAX45Y45*%
G04 Gerber Fmt 4.5, Leading zero omitted, Abs format (unit mm)*
G04 Created by KiCad (PCBNEW 9.0.5) date 2025-11-14 15:11:00*
%MOMM*%
%LPD*%
G01*
G04 APERTURE LIST*
%ADD10C,0.050000*%
%ADD11C,0.200000*%
%ADD12C,0.100000*%
G04 APERTURE END LIST*
D10*
X5350000Y-5240000D02*
X5200000Y-5390000D01*
X-320000Y-10830000D02*
X-320000Y-5540000D01*
X9680000Y-5540000D02*
X9680000Y-10840000D01*
X4860000Y-5390000D02*
X5200000Y-5390000D01*
X4710000Y-5240000D02*
X4860000Y-5390000D01*
X9680368Y-10840000D02*
G75*
G02*
X9380368Y-11139998I-299998J0D01*
G01*
X9380000Y-5240000D02*
G75*
G02*
X9680000Y-5540000I0J-300000D01*
G01*
X-320000Y-5540000D02*
G75*
G02*
X-20000Y-5240000I300000J0D01*
G01*
X5350000Y-5240000D02*
X9380000Y-5240000D01*
X-30000Y-11139859D02*
G75*
G02*
X-320000Y-10830000I12130J301989D01*
G01*
X-20000Y-5240000D02*
X4710000Y-5240000D01*
X9380000Y-11140000D02*
X-30000Y-11140000D01*
D11*
D12*
X275000Y-5325000D02*
X305000Y-5355000D01*
X305000Y-5325000D02*
X275000Y-5355000D01*
X835000Y-5950000D02*
X865000Y-5980000D01*
X865000Y-5950000D02*
X835000Y-5980000D01*
X947500Y-8135000D02*
X977500Y-8165000D01*
X977500Y-8135000D02*
X947500Y-8165000D01*
X1157500Y-7935000D02*
X1187500Y-7965000D01*
X1187500Y-7935000D02*
X1157500Y-7965000D01*
X1372500Y-7725000D02*
X1402500Y-7755000D01*
X1402500Y-7725000D02*
X1372500Y-7755000D01*
X1405000Y-5325000D02*
X1435000Y-5355000D01*
X1435000Y-5325000D02*
X1405000Y-5355000D01*
X2002500Y-9180000D02*
X2032500Y-9210000D01*
X2032500Y-9180000D02*
X2002500Y-9210000D01*
X2155000Y-8990000D02*
X2185000Y-9020000D01*
X2185000Y-8990000D02*
X2155000Y-9020000D01*
X2417500Y-8750000D02*
X2447500Y-8780000D01*
X2447500Y-8750000D02*
X2417500Y-8780000D01*
X2755000Y-10915000D02*
X2785000Y-10945000D01*
X2785000Y-10915000D02*
X2755000Y-10945000D01*
X3285000Y-10570000D02*
X3315000Y-10600000D01*
X3315000Y-10570000D02*
X3285000Y-10600000D01*
X3545000Y-10925000D02*
X3575000Y-10955000D01*
X3575000Y-10925000D02*
X3545000Y-10955000D01*
X3562500Y-6915000D02*
X3592500Y-6945000D01*
X3592500Y-6915000D02*
X3562500Y-6945000D01*
X3562500Y-7030000D02*
X3592500Y-7060000D01*
X3592500Y-7030000D02*
X3562500Y-7060000D01*
X3567500Y-9705000D02*
X3597500Y-9735000D01*
X3597500Y-9705000D02*
X3567500Y-9735000D01*
X3597500Y-8070000D02*
X3627500Y-8100000D01*
X3627500Y-8070000D02*
X3597500Y-8100000D01*
X3597500Y-8190000D02*
X3627500Y-8220000D01*
X3627500Y-8190000D02*
X3597500Y-8220000D01*
X3597500Y-8320000D02*
X3627500Y-8350000D01*
X3627500Y-8320000D02*
X3597500Y-8350000D01*
X3777500Y-9500000D02*
X3807500Y-9530000D01*
X3807500Y-9500000D02*
X3777500Y-9530000D01*
X3840000Y-9925000D02*
X3870000Y-9955000D01*
X3870000Y-9925000D02*
X3840000Y-9955000D01*
X3842500Y-5795000D02*
X3872500Y-5825000D01*
X3872500Y-5795000D02*
X3842500Y-5825000D01*
X3847500Y-6690000D02*
X3877500Y-6720000D01*
X3877500Y-6690000D02*
X3847500Y-6720000D01*
X4005000Y-6095000D02*
X4035000Y-6125000D01*
X4035000Y-6095000D02*
X4005000Y-6125000D01*
X4077500Y-7605000D02*
X4107500Y-7635000D01*
X4107500Y-7605000D02*
X4077500Y-7635000D01*
X4083624Y-8948376D02*
X4113624Y-8978376D01*
X4113624Y-8948376D02*
X4083624Y-8978376D01*
X4085000Y-10565000D02*
X4115000Y-10595000D01*
X4115000Y-10565000D02*
X4085000Y-10595000D01*
X4194000Y-9545000D02*
X4224000Y-9575000D01*
X4224000Y-9545000D02*
X4194000Y-9575000D01*
X4215000Y-9322000D02*
X4245000Y-9352000D01*
X4245000Y-9322000D02*
X4215000Y-9352000D01*
X4232500Y-5815000D02*
X4262500Y-5845000D01*
X4262500Y-5815000D02*
X4232500Y-5845000D01*
X4370000Y-10913750D02*
X4400000Y-10943750D01*
X4400000Y-10913750D02*
X4370000Y-10943750D01*
X4400000Y-8135000D02*
X4430000Y-8165000D01*
X4430000Y-8135000D02*
X4400000Y-8165000D01*
X4405000Y-6635000D02*
X4435000Y-6665000D01*
X4435000Y-6635000D02*
X4405000Y-6665000D01*
X4405000Y-8480000D02*
X4435000Y-8510000D01*
X4435000Y-8480000D02*
X4405000Y-8510000D01*
X4407500Y-7540000D02*
X4437500Y-7570000D01*
X4437500Y-7540000D02*
X4407500Y-7570000D01*
X4575000Y-7965000D02*
X4605000Y-7995000D01*
X4605000Y-7965000D02*
X4575000Y-7995000D01*
X4625000Y-8435000D02*
X4655000Y-8465000D01*
X4655000Y-8435000D02*
X4625000Y-8465000D01*
X4745000Y-6305000D02*
X4775000Y-6335000D01*
X4775000Y-6305000D02*
X4745000Y-6335000D01*
X4745000Y-6445000D02*
X4775000Y-6475000D01*
X4775000Y-6445000D02*
X4745000Y-6475000D01*
X4745000Y-6525000D02*
X4775000Y-6555000D01*
X4775000Y-6525000D02*
X4745000Y-6555000D01*
X4774633Y-8466000D02*
X4804633Y-8496000D01*
X4804633Y-8466000D02*
X4774633Y-8496000D01*
X4785000Y-5835000D02*
X4815000Y-5865000D01*
X4815000Y-5835000D02*
X4785000Y-5865000D01*
X4785000Y-5955000D02*
X4815000Y-5985000D01*
X4815000Y-5955000D02*
X4785000Y-5985000D01*
X4785000Y-6055000D02*
X4815000Y-6085000D01*
X4815000Y-6055000D02*
X4785000Y-6085000D01*
X4822500Y-7560000D02*
X4852500Y-7590000D01*
X4852500Y-7560000D02*
X4822500Y-7590000D01*
X4840000Y-7161000D02*
X4870000Y-7191000D01*
X4870000Y-7161000D02*
X4840000Y-7191000D01*
X4879000Y-9196000D02*
X4909000Y-9226000D01*
X4909000Y-9196000D02*
X4879000Y-9226000D01*
X4880000Y-10565000D02*
X4910000Y-10595000D01*
X4910000Y-10565000D02*
X4880000Y-10595000D01*
X4887500Y-7730000D02*
X4917500Y-7760000D01*
X4917500Y-7730000D02*
X4887500Y-7760000D01*
X4900000Y-8605000D02*
X4930000Y-8635000D01*
X4930000Y-8605000D02*
X4900000Y-8635000D01*
X4965000Y-8735000D02*
X4995000Y-8765000D01*
X4995000Y-8735000D02*
X4965000Y-8765000D01*
X5095000Y-9528000D02*
X5125000Y-9558000D01*
X5125000Y-9528000D02*
X5095000Y-9558000D01*
X5105000Y-6155000D02*
X5135000Y-6185000D01*
X5135000Y-6155000D02*
X5105000Y-6185000D01*
X5162500Y-10915000D02*
X5192500Y-10945000D01*
X5192500Y-10915000D02*
X5162500Y-10945000D01*
X5322500Y-8985000D02*
X5352500Y-9015000D01*
X5352500Y-8985000D02*
X5322500Y-9015000D01*
X5362500Y-8128054D02*
X5392500Y-8158054D01*
X5392500Y-8128054D02*
X5362500Y-8158054D01*
X5387500Y-9050000D02*
X5417500Y-9080000D01*
X5417500Y-9050000D02*
X5387500Y-9080000D01*
X5395000Y-6405000D02*
X5425000Y-6435000D01*
X5425000Y-6405000D02*
X5395000Y-6435000D01*
X5434000Y-6749000D02*
X5464000Y-6779000D01*
X5464000Y-6749000D02*
X5434000Y-6779000D01*
X5472500Y-8380000D02*
X5502500Y-8410000D01*
X5502500Y-8380000D02*
X5472500Y-8410000D01*
X5482500Y-9145000D02*
X5512500Y-9175000D01*
X5512500Y-9145000D02*
X5482500Y-9175000D01*
X5505000Y-9785000D02*
X5535000Y-9815000D01*
X5535000Y-9785000D02*
X5505000Y-9815000D01*
X5532500Y-7830000D02*
X5562500Y-7860000D01*
X5562500Y-7830000D02*
X5532500Y-7860000D01*
X5542500Y-9510000D02*
X5572500Y-9540000D01*
X5572500Y-9510000D02*
X5542500Y-9540000D01*
X5572500Y-9230000D02*
X5602500Y-9260000D01*
X5602500Y-9230000D02*
X5572500Y-9260000D01*
X5585000Y-6905000D02*
X5615000Y-6935000D01*
X5615000Y-6905000D02*
X5585000Y-6935000D01*
X5595000Y-5845000D02*
X5625000Y-5875000D01*
X5625000Y-5845000D02*
X5595000Y-5875000D01*
X5665000Y-6975000D02*
X5695000Y-7005000D01*
X5695000Y-6975000D02*
X5665000Y-7005000D01*
X5677500Y-10565000D02*
X5707500Y-10595000D01*
X5707500Y-10565000D02*
X5677500Y-10595000D01*
X5732500Y-9205000D02*
X5762500Y-9235000D01*
X5762500Y-9205000D02*
X5732500Y-9235000D01*
X5745000Y-7055000D02*
X5775000Y-7085000D01*
X5775000Y-7055000D02*
X5745000Y-7085000D01*
X5762500Y-5825000D02*
X5792500Y-5855000D01*
X5792500Y-5825000D02*
X5762500Y-5855000D01*
X5802500Y-5635000D02*
X5832500Y-5665000D01*
X5832500Y-5635000D02*
X5802500Y-5665000D01*
X5802500Y-8565000D02*
X5832500Y-8595000D01*
X5832500Y-8565000D02*
X5802500Y-8595000D01*
X5808417Y-7690000D02*
X5838417Y-7720000D01*
X5838417Y-7690000D02*
X5808417Y-7720000D01*
X5858000Y-6954725D02*
X5888000Y-6984725D01*
X5888000Y-6954725D02*
X5858000Y-6984725D01*
X5917500Y-9300000D02*
X5947500Y-9330000D01*
X5947500Y-9300000D02*
X5917500Y-9330000D01*
X5937500Y-7685000D02*
X5967500Y-7715000D01*
X5967500Y-7685000D02*
X5937500Y-7715000D01*
X5957500Y-10915000D02*
X5987500Y-10945000D01*
X5987500Y-10915000D02*
X5957500Y-10945000D01*
X6042500Y-6845000D02*
X6072500Y-6875000D01*
X6072500Y-6845000D02*
X6042500Y-6875000D01*
X6085000Y-5995000D02*
X6115000Y-6025000D01*
X6115000Y-5995000D02*
X6085000Y-6025000D01*
X6107500Y-8410000D02*
X6137500Y-8440000D01*
X6137500Y-8410000D02*
X6107500Y-8440000D01*
X6192500Y-6697500D02*
X6222500Y-6727500D01*
X6222500Y-6697500D02*
X6192500Y-6727500D01*
X6237500Y-8126069D02*
X6267500Y-8156069D01*
X6267500Y-8126069D02*
X6237500Y-8156069D01*
X6255000Y-6355000D02*
X6285000Y-6385000D01*
X6285000Y-6355000D02*
X6255000Y-6385000D01*
X6374000Y-9716000D02*
X6404000Y-9746000D01*
X6404000Y-9716000D02*
X6374000Y-9746000D01*
X6475000Y-10565000D02*
X6505000Y-10595000D01*
X6505000Y-10565000D02*
X6475000Y-10595000D01*
X6495000Y-6388000D02*
X6525000Y-6418000D01*
X6525000Y-6388000D02*
X6495000Y-6418000D01*
X6500000Y-7066000D02*
X6530000Y-7096000D01*
X6530000Y-7066000D02*
X6500000Y-7096000D01*
X6525000Y-5875000D02*
X6555000Y-5905000D01*
X6555000Y-5875000D02*
X6525000Y-5905000D01*
X6562000Y-7003000D02*
X6592000Y-7033000D01*
X6592000Y-7003000D02*
X6562000Y-7033000D01*
X6677500Y-10090000D02*
X6707500Y-10120000D01*
X6707500Y-10090000D02*
X6677500Y-10120000D01*
X6737500Y-6127770D02*
X6767500Y-6157770D01*
X6767500Y-6127770D02*
X6737500Y-6157770D01*
X6765000Y-7310000D02*
X6795000Y-7340000D01*
X6795000Y-7310000D02*
X6765000Y-7340000D01*
X6785000Y-8825000D02*
X6815000Y-8855000D01*
X6815000Y-8825000D02*
X6785000Y-8855000D01*
X6856000Y-6749000D02*
X6886000Y-6779000D01*
X6886000Y-6749000D02*
X6856000Y-6779000D01*
X6879848Y-9853605D02*
X6909848Y-9883605D01*
X6909848Y-9853605D02*
X6879848Y-9883605D01*
X6940000Y-8060000D02*
X6970000Y-8090000D01*
X6970000Y-8060000D02*
X6940000Y-8090000D01*
X7073000Y-8469000D02*
X7103000Y-8499000D01*
X7103000Y-8469000D02*
X7073000Y-8499000D01*
X7116000Y-7290000D02*
X7146000Y-7320000D01*
X7146000Y-7290000D02*
X7116000Y-7320000D01*
X7153000Y-7052000D02*
X7183000Y-7082000D01*
X7183000Y-7052000D02*
X7153000Y-7082000D01*
X7235000Y-7895000D02*
X7265000Y-7925000D01*
X7265000Y-7895000D02*
X7235000Y-7925000D01*
X7275000Y-5815000D02*
X7305000Y-5845000D01*
X7305000Y-5815000D02*
X7275000Y-5845000D01*
X7325000Y-6195000D02*
X7355000Y-6225000D01*
X7355000Y-6195000D02*
X7325000Y-6225000D01*
X7465000Y-5790000D02*
X7495000Y-5820000D01*
X7495000Y-5790000D02*
X7465000Y-5820000D01*
X7466500Y-6133000D02*
X7496500Y-6163000D01*
X7496500Y-6133000D02*
X7466500Y-6163000D01*
X7555000Y-6405000D02*
X7585000Y-6435000D01*
X7585000Y-6405000D02*
X7555000Y-6435000D01*
X7560000Y-6690000D02*
X7590000Y-6720000D01*
X7590000Y-6690000D02*
X7560000Y-6720000D01*
X7560000Y-6840000D02*
X7590000Y-6870000D01*
X7590000Y-6840000D02*
X7560000Y-6870000D01*
X7565000Y-5790000D02*
X7595000Y-5820000D01*
X7595000Y-5790000D02*
X7565000Y-5820000D01*
X7635000Y-7425000D02*
X7665000Y-7455000D01*
X7665000Y-7425000D02*
X7635000Y-7455000D01*
X7645000Y-6165000D02*
X7675000Y-6195000D01*
X7675000Y-6165000D02*
X7645000Y-6195000D01*
X7665000Y-6410000D02*
X7695000Y-6440000D01*
X7695000Y-6410000D02*
X7665000Y-6440000D01*
X7740000Y-6155000D02*
X7770000Y-6185000D01*
X7770000Y-6155000D02*
X7740000Y-6185000D01*
X7782500Y-7860000D02*
X7812500Y-7890000D01*
X7812500Y-7860000D02*
X7782500Y-7890000D01*
X7905000Y-5815000D02*
X7935000Y-5845000D01*
X7935000Y-5815000D02*
X7905000Y-5845000D01*
X8162500Y-5450000D02*
X8192500Y-5480000D01*
X8192500Y-5450000D02*
X8162500Y-5480000D01*
X8355000Y-5465000D02*
X8385000Y-5495000D01*
X8385000Y-5465000D02*
X8355000Y-5495000D01*
X8382500Y-8970000D02*
X8412500Y-9000000D01*
X8412500Y-8970000D02*
X8382500Y-9000000D01*
X8622500Y-5732500D02*
X8652500Y-5762500D01*
X8652500Y-5732500D02*
X8622500Y-5762500D01*
X8622500Y-6035000D02*
X8652500Y-6065000D01*
X8652500Y-6035000D02*
X8622500Y-6065000D01*
X8760000Y-5955000D02*
X8790000Y-5985000D01*
X8790000Y-5955000D02*
X8760000Y-5985000D01*
X8762500Y-5517500D02*
X8792500Y-5547500D01*
X8792500Y-5517500D02*
X8762500Y-5547500D01*
X9005000Y-7275000D02*
X9035000Y-7305000D01*
X9035000Y-7275000D02*
X9005000Y-7305000D01*
X9005000Y-8395000D02*
X9035000Y-8425000D01*
X9035000Y-8395000D02*
X9005000Y-8425000D01*
X9005000Y-9525000D02*
X9035000Y-9555000D01*
X9035000Y-9525000D02*
X9005000Y-9555000D01*
X9165000Y-5465000D02*
X9195000Y-5495000D01*
X9195000Y-5465000D02*
X9165000Y-5495000D01*
X9582500Y-7835000D02*
X9612500Y-7865000D01*
X9612500Y-7835000D02*
X9582500Y-7865000D01*
X5629939Y-8145169D02*
G75*
G02*
X5599939Y-8145169I-15000J0D01*
G01*
X5599939Y-8145169D02*
G75*
G02*
X5629939Y-8145169I15000J0D01*
G01*
X5732469Y-8042638D02*
G75*
G02*
X5702469Y-8042638I-15000J0D01*
G01*
X5702469Y-8042638D02*
G75*
G02*
X5732469Y-8042638I15000J0D01*
G01*
X5732469Y-8247699D02*
G75*
G02*
X5702469Y-8247699I-15000J0D01*
G01*
X5702469Y-8247699D02*
G75*
G02*
X5732469Y-8247699I15000J0D01*
G01*
X5835000Y-7940108D02*
G75*
G02*
X5805000Y-7940108I-15000J0D01*
G01*
X5805000Y-7940108D02*
G75*
G02*
X5835000Y-7940108I15000J0D01*
G01*
X5835000Y-8145169D02*
G75*
G02*
X5805000Y-8145169I-15000J0D01*
G01*
X5805000Y-8145169D02*
G75*
G02*
X5835000Y-8145169I15000J0D01*
G01*
X5835000Y-8350230D02*
G75*
G02*
X5805000Y-8350230I-15000J0D01*
G01*
X5805000Y-8350230D02*
G75*
G02*
X5835000Y-8350230I15000J0D01*
G01*
X5937530Y-8042638D02*
G75*
G02*
X5907530Y-8042638I-15000J0D01*
G01*
X5907530Y-8042638D02*
G75*
G02*
X5937530Y-8042638I15000J0D01*
G01*
X5937530Y-8247699D02*
G75*
G02*
X5907530Y-8247699I-15000J0D01*
G01*
X5907530Y-8247699D02*
G75*
G02*
X5937530Y-8247699I15000J0D01*
G01*
X6040061Y-8145169D02*
G75*
G02*
X6010061Y-8145169I-15000J0D01*
G01*
X6010061Y-8145169D02*
G75*
G02*
X6040061Y-8145169I15000J0D01*
G01*
X7173405Y-5431255D02*
X7173405Y-5497295D01*
X7140385Y-5464275D02*
X7206425Y-5464275D01*
X7140385Y-5389345D02*
X7140385Y-5539205D01*
X7206425Y-5539205D02*
G75*
G02*
X7140385Y-5539205I-33020J0D01*
G01*
X7206425Y-5539205D02*
X7206425Y-5389345D01*
X7206425Y-5389345D02*
G75*
G03*
X7140385Y-5389345I-33020J0D01*
G01*
X7173405Y-5967255D02*
X7173405Y-6033295D01*
X7140385Y-6000275D02*
X7206425Y-6000275D01*
X7206425Y-6049805D02*
X7206425Y-5950745D01*
X7140385Y-5950745D02*
G75*
G02*
X7206425Y-5950745I33020J0D01*
G01*
X7140385Y-5950745D02*
X7140385Y-6049805D01*
X7140385Y-6049805D02*
G75*
G03*
X7206425Y-6049805I33020J0D01*
G01*
X8037405Y-5431255D02*
X8037405Y-5497295D01*
X8004385Y-5464275D02*
X8070425Y-5464275D01*
X8070425Y-5539205D02*
X8070425Y-5389345D01*
X8004385Y-5389345D02*
G75*
G02*
X8070425Y-5389345I33020J0D01*
G01*
X8004385Y-5389345D02*
X8004385Y-5539205D01*
X8004385Y-5539205D02*
G75*
G03*
X8070425Y-5539205I33020J0D01*
G01*
X8037405Y-5967255D02*
X8037405Y-6033295D01*
X8004385Y-6000275D02*
X8070425Y-6000275D01*
X8070425Y-6049805D02*
X8070425Y-5950745D01*
X8004385Y-5950745D02*
G75*
G02*
X8070425Y-5950745I33020J0D01*
G01*
X8004385Y-5950745D02*
X8004385Y-6049805D01*
X8004385Y-6049805D02*
G75*
G03*
X8070425Y-6049805I33020J0D01*
G01*
X715356Y-7900356D02*
X715356Y-7829644D01*
X644644Y-7829644D01*
X644644Y-7900356D01*
X715356Y-7900356D01*
X890356Y-6235356D02*
X890356Y-6164644D01*
X819644Y-6164644D01*
X819644Y-6235356D01*
X890356Y-6235356D01*
X930356Y-7690356D02*
X930356Y-7619644D01*
X859644Y-7619644D01*
X859644Y-7690356D01*
X930356Y-7690356D01*
X1170356Y-7500356D02*
X1170356Y-7429644D01*
X1099644Y-7429644D01*
X1099644Y-7500356D01*
X1170356Y-7500356D01*
X2060356Y-5525356D02*
X2060356Y-5454644D01*
X1989644Y-5454644D01*
X1989644Y-5525356D01*
X2060356Y-5525356D01*
X2240356Y-9420356D02*
X2240356Y-9349644D01*
X2169644Y-9349644D01*
X2169644Y-9420356D01*
X2240356Y-9420356D01*
X2695356Y-9025356D02*
X2695356Y-8954644D01*
X2624644Y-8954644D01*
X2624644Y-9025356D01*
X2695356Y-9025356D01*
X3105356Y-8635356D02*
X3105356Y-8564644D01*
X3034644Y-8564644D01*
X3034644Y-8635356D01*
X3105356Y-8635356D01*
X3540356Y-7655356D02*
X3540356Y-7584644D01*
X3469644Y-7584644D01*
X3469644Y-7655356D01*
X3540356Y-7655356D01*
X3595356Y-8775356D02*
X3595356Y-8704644D01*
X3524644Y-8704644D01*
X3524644Y-8775356D01*
X3595356Y-8775356D01*
X3910356Y-8970356D02*
X3910356Y-8899644D01*
X3839644Y-8899644D01*
X3839644Y-8970356D01*
X3910356Y-8970356D01*
X4477856Y-5785356D02*
X4477856Y-5714644D01*
X4407144Y-5714644D01*
X4407144Y-5785356D01*
X4477856Y-5785356D01*
X4600356Y-9930356D02*
X4600356Y-9859644D01*
X4529644Y-9859644D01*
X4529644Y-9930356D01*
X4600356Y-9930356D01*
X4670356Y-6755356D02*
X4670356Y-6684644D01*
X4599644Y-6684644D01*
X4599644Y-6755356D01*
X4670356Y-6755356D01*
X5115356Y-9910356D02*
X5115356Y-9839644D01*
X5044644Y-9839644D01*
X5044644Y-9910356D01*
X5115356Y-9910356D01*
X5200356Y-7055356D02*
X5200356Y-6984644D01*
X5129644Y-6984644D01*
X5129644Y-7055356D01*
X5200356Y-7055356D01*
X5432856Y-10025356D02*
X5432856Y-9954644D01*
X5362144Y-9954644D01*
X5362144Y-10025356D01*
X5432856Y-10025356D01*
X5440356Y-6630356D02*
X5440356Y-6559644D01*
X5369644Y-6559644D01*
X5369644Y-6630356D01*
X5440356Y-6630356D01*
X5870356Y-5470356D02*
X5870356Y-5399644D01*
X5799644Y-5399644D01*
X5799644Y-5470356D01*
X5870356Y-5470356D01*
X6785356Y-10730356D02*
X6785356Y-10659644D01*
X6714644Y-10659644D01*
X6714644Y-10730356D01*
X6785356Y-10730356D01*
X7257856Y-8930356D02*
X7257856Y-8859644D01*
X7187144Y-8859644D01*
X7187144Y-8930356D01*
X7257856Y-8930356D01*
X7840356Y-7575356D02*
X7840356Y-7504644D01*
X7769644Y-7504644D01*
X7769644Y-7575356D01*
X7840356Y-7575356D01*
X8210356Y-6877356D02*
X8210356Y-6806644D01*
X8139644Y-6806644D01*
X8139644Y-6877356D01*
X8210356Y-6877356D01*
X8210356Y-7131356D02*
X8210356Y-7060644D01*
X8139644Y-7060644D01*
X8139644Y-7131356D01*
X8210356Y-7131356D01*
X8210356Y-7385356D02*
X8210356Y-7314644D01*
X8139644Y-7314644D01*
X8139644Y-7385356D01*
X8210356Y-7385356D01*
X8210356Y-7639356D02*
X8210356Y-7568644D01*
X8139644Y-7568644D01*
X8139644Y-7639356D01*
X8210356Y-7639356D01*
X8210356Y-7893356D02*
X8210356Y-7822644D01*
X8139644Y-7822644D01*
X8139644Y-7893356D01*
X8210356Y-7893356D01*
X8210356Y-8147356D02*
X8210356Y-8076644D01*
X8139644Y-8076644D01*
X8139644Y-8147356D01*
X8210356Y-8147356D01*
X8210356Y-8401356D02*
X8210356Y-8330644D01*
X8139644Y-8330644D01*
X8139644Y-8401356D01*
X8210356Y-8401356D01*
X8210356Y-8655356D02*
X8210356Y-8584644D01*
X8139644Y-8584644D01*
X8139644Y-8655356D01*
X8210356Y-8655356D01*
X8210356Y-8909356D02*
X8210356Y-8838644D01*
X8139644Y-8838644D01*
X8139644Y-8909356D01*
X8210356Y-8909356D01*
X8210356Y-9163356D02*
X8210356Y-9092644D01*
X8139644Y-9092644D01*
X8139644Y-9163356D01*
X8210356Y-9163356D01*
X8210356Y-9417356D02*
X8210356Y-9346644D01*
X8139644Y-9346644D01*
X8139644Y-9417356D01*
X8210356Y-9417356D01*
X8210356Y-9671356D02*
X8210356Y-9600644D01*
X8139644Y-9600644D01*
X8139644Y-9671356D01*
X8210356Y-9671356D01*
X8210356Y-9925356D02*
X8210356Y-9854644D01*
X8139644Y-9854644D01*
X8139644Y-9925356D01*
X8210356Y-9925356D01*
X8210356Y-10179356D02*
X8210356Y-10108644D01*
X8139644Y-10108644D01*
X8139644Y-10179356D01*
X8210356Y-10179356D01*
X8210356Y-10433356D02*
X8210356Y-10362644D01*
X8139644Y-10362644D01*
X8139644Y-10433356D01*
X8210356Y-10433356D01*
X8570356Y-8025356D02*
X8570356Y-7954644D01*
X8499644Y-7954644D01*
X8499644Y-8025356D01*
X8570356Y-8025356D01*
X8810356Y-6275356D02*
X8810356Y-6204644D01*
X8739644Y-6204644D01*
X8739644Y-6275356D01*
X8810356Y-6275356D01*
X9400356Y-8555356D02*
X9400356Y-8484644D01*
X9329644Y-8484644D01*
X9329644Y-8555356D01*
X9400356Y-8555356D01*
D11*
X-61826Y-11453984D02*
X-61826Y-11253984D01*
X-61826Y-11253984D02*
X-14207Y-11253984D01*
X-14207Y-11253984D02*
X14365Y-11263508D01*
X14365Y-11263508D02*
X33413Y-11282555D01*
X33413Y-11282555D02*
X42936Y-11301603D01*
X42936Y-11301603D02*
X52460Y-11339698D01*
X52460Y-11339698D02*
X52460Y-11368269D01*
X52460Y-11368269D02*
X42936Y-11406365D01*
X42936Y-11406365D02*
X33413Y-11425412D01*
X33413Y-11425412D02*
X14365Y-11444460D01*
X14365Y-11444460D02*
X-14207Y-11453984D01*
X-14207Y-11453984D02*
X-61826Y-11453984D01*
X138174Y-11453984D02*
X138174Y-11320650D01*
X138174Y-11358746D02*
X147698Y-11339698D01*
X147698Y-11339698D02*
X157222Y-11330174D01*
X157222Y-11330174D02*
X176270Y-11320650D01*
X176270Y-11320650D02*
X195317Y-11320650D01*
X261984Y-11453984D02*
X261984Y-11320650D01*
X261984Y-11253984D02*
X252460Y-11263508D01*
X252460Y-11263508D02*
X261984Y-11273031D01*
X261984Y-11273031D02*
X271508Y-11263508D01*
X271508Y-11263508D02*
X261984Y-11253984D01*
X261984Y-11253984D02*
X261984Y-11273031D01*
X385793Y-11453984D02*
X366746Y-11444460D01*
X366746Y-11444460D02*
X357222Y-11425412D01*
X357222Y-11425412D02*
X357222Y-11253984D01*
X490555Y-11453984D02*
X471508Y-11444460D01*
X471508Y-11444460D02*
X461984Y-11425412D01*
X461984Y-11425412D02*
X461984Y-11253984D01*
X719127Y-11453984D02*
X719127Y-11253984D01*
X719127Y-11253984D02*
X785793Y-11396841D01*
X785793Y-11396841D02*
X852460Y-11253984D01*
X852460Y-11253984D02*
X852460Y-11453984D01*
X1033412Y-11453984D02*
X1033412Y-11349222D01*
X1033412Y-11349222D02*
X1023889Y-11330174D01*
X1023889Y-11330174D02*
X1004841Y-11320650D01*
X1004841Y-11320650D02*
X966746Y-11320650D01*
X966746Y-11320650D02*
X947698Y-11330174D01*
X1033412Y-11444460D02*
X1014365Y-11453984D01*
X1014365Y-11453984D02*
X966746Y-11453984D01*
X966746Y-11453984D02*
X947698Y-11444460D01*
X947698Y-11444460D02*
X938174Y-11425412D01*
X938174Y-11425412D02*
X938174Y-11406365D01*
X938174Y-11406365D02*
X947698Y-11387317D01*
X947698Y-11387317D02*
X966746Y-11377793D01*
X966746Y-11377793D02*
X1014365Y-11377793D01*
X1014365Y-11377793D02*
X1033412Y-11368269D01*
X1128651Y-11320650D02*
X1128651Y-11520650D01*
X1128651Y-11330174D02*
X1147698Y-11320650D01*
X1147698Y-11320650D02*
X1185794Y-11320650D01*
X1185794Y-11320650D02*
X1204841Y-11330174D01*
X1204841Y-11330174D02*
X1214365Y-11339698D01*
X1214365Y-11339698D02*
X1223889Y-11358746D01*
X1223889Y-11358746D02*
X1223889Y-11415888D01*
X1223889Y-11415888D02*
X1214365Y-11434936D01*
X1214365Y-11434936D02*
X1204841Y-11444460D01*
X1204841Y-11444460D02*
X1185794Y-11453984D01*
X1185794Y-11453984D02*
X1147698Y-11453984D01*
X1147698Y-11453984D02*
X1128651Y-11444460D01*
X1309603Y-11434936D02*
X1319127Y-11444460D01*
X1319127Y-11444460D02*
X1309603Y-11453984D01*
X1309603Y-11453984D02*
X1300079Y-11444460D01*
X1300079Y-11444460D02*
X1309603Y-11434936D01*
X1309603Y-11434936D02*
X1309603Y-11453984D01*
X1309603Y-11330174D02*
X1319127Y-11339698D01*
X1319127Y-11339698D02*
X1309603Y-11349222D01*
X1309603Y-11349222D02*
X1300079Y-11339698D01*
X1300079Y-11339698D02*
X1309603Y-11330174D01*
X1309603Y-11330174D02*
X1309603Y-11349222D01*
D12*
X-352602Y-11767500D02*
X-322602Y-11797500D01*
X-322602Y-11767500D02*
X-352602Y-11797500D01*
D11*
X-23730Y-11673984D02*
X-4683Y-11673984D01*
X-4683Y-11673984D02*
X14365Y-11683508D01*
X14365Y-11683508D02*
X23889Y-11693031D01*
X23889Y-11693031D02*
X33413Y-11712079D01*
X33413Y-11712079D02*
X42936Y-11750174D01*
X42936Y-11750174D02*
X42936Y-11797793D01*
X42936Y-11797793D02*
X33413Y-11835888D01*
X33413Y-11835888D02*
X23889Y-11854936D01*
X23889Y-11854936D02*
X14365Y-11864460D01*
X14365Y-11864460D02*
X-4683Y-11873984D01*
X-4683Y-11873984D02*
X-23730Y-11873984D01*
X-23730Y-11873984D02*
X-42778Y-11864460D01*
X-42778Y-11864460D02*
X-52302Y-11854936D01*
X-52302Y-11854936D02*
X-61826Y-11835888D01*
X-61826Y-11835888D02*
X-71349Y-11797793D01*
X-71349Y-11797793D02*
X-71349Y-11750174D01*
X-71349Y-11750174D02*
X-61826Y-11712079D01*
X-61826Y-11712079D02*
X-52302Y-11693031D01*
X-52302Y-11693031D02*
X-42778Y-11683508D01*
X-42778Y-11683508D02*
X-23730Y-11673984D01*
X128651Y-11854936D02*
X138174Y-11864460D01*
X138174Y-11864460D02*
X128651Y-11873984D01*
X128651Y-11873984D02*
X119127Y-11864460D01*
X119127Y-11864460D02*
X128651Y-11854936D01*
X128651Y-11854936D02*
X128651Y-11873984D01*
X204841Y-11673984D02*
X328651Y-11673984D01*
X328651Y-11673984D02*
X261984Y-11750174D01*
X261984Y-11750174D02*
X290555Y-11750174D01*
X290555Y-11750174D02*
X309603Y-11759698D01*
X309603Y-11759698D02*
X319127Y-11769222D01*
X319127Y-11769222D02*
X328651Y-11788269D01*
X328651Y-11788269D02*
X328651Y-11835888D01*
X328651Y-11835888D02*
X319127Y-11854936D01*
X319127Y-11854936D02*
X309603Y-11864460D01*
X309603Y-11864460D02*
X290555Y-11873984D01*
X290555Y-11873984D02*
X233412Y-11873984D01*
X233412Y-11873984D02*
X214365Y-11864460D01*
X214365Y-11864460D02*
X204841Y-11854936D01*
X452460Y-11673984D02*
X471508Y-11673984D01*
X471508Y-11673984D02*
X490555Y-11683508D01*
X490555Y-11683508D02*
X500079Y-11693031D01*
X500079Y-11693031D02*
X509603Y-11712079D01*
X509603Y-11712079D02*
X519127Y-11750174D01*
X519127Y-11750174D02*
X519127Y-11797793D01*
X519127Y-11797793D02*
X509603Y-11835888D01*
X509603Y-11835888D02*
X500079Y-11854936D01*
X500079Y-11854936D02*
X490555Y-11864460D01*
X490555Y-11864460D02*
X471508Y-11873984D01*
X471508Y-11873984D02*
X452460Y-11873984D01*
X452460Y-11873984D02*
X433412Y-11864460D01*
X433412Y-11864460D02*
X423889Y-11854936D01*
X423889Y-11854936D02*
X414365Y-11835888D01*
X414365Y-11835888D02*
X404841Y-11797793D01*
X404841Y-11797793D02*
X404841Y-11750174D01*
X404841Y-11750174D02*
X414365Y-11712079D01*
X414365Y-11712079D02*
X423889Y-11693031D01*
X423889Y-11693031D02*
X433412Y-11683508D01*
X433412Y-11683508D02*
X452460Y-11673984D01*
X642936Y-11673984D02*
X661984Y-11673984D01*
X661984Y-11673984D02*
X681032Y-11683508D01*
X681032Y-11683508D02*
X690555Y-11693031D01*
X690555Y-11693031D02*
X700079Y-11712079D01*
X700079Y-11712079D02*
X709603Y-11750174D01*
X709603Y-11750174D02*
X709603Y-11797793D01*
X709603Y-11797793D02*
X700079Y-11835888D01*
X700079Y-11835888D02*
X690555Y-11854936D01*
X690555Y-11854936D02*
X681032Y-11864460D01*
X681032Y-11864460D02*
X661984Y-11873984D01*
X661984Y-11873984D02*
X642936Y-11873984D01*
X642936Y-11873984D02*
X623889Y-11864460D01*
X623889Y-11864460D02*
X614365Y-11854936D01*
X614365Y-11854936D02*
X604841Y-11835888D01*
X604841Y-11835888D02*
X595317Y-11797793D01*
X595317Y-11797793D02*
X595317Y-11750174D01*
X595317Y-11750174D02*
X604841Y-11712079D01*
X604841Y-11712079D02*
X614365Y-11693031D01*
X614365Y-11693031D02*
X623889Y-11683508D01*
X623889Y-11683508D02*
X642936Y-11673984D01*
X795317Y-11873984D02*
X795317Y-11740650D01*
X795317Y-11759698D02*
X804841Y-11750174D01*
X804841Y-11750174D02*
X823889Y-11740650D01*
X823889Y-11740650D02*
X852460Y-11740650D01*
X852460Y-11740650D02*
X871508Y-11750174D01*
X871508Y-11750174D02*
X881032Y-11769222D01*
X881032Y-11769222D02*
X881032Y-11873984D01*
X881032Y-11769222D02*
X890555Y-11750174D01*
X890555Y-11750174D02*
X909603Y-11740650D01*
X909603Y-11740650D02*
X938174Y-11740650D01*
X938174Y-11740650D02*
X957222Y-11750174D01*
X957222Y-11750174D02*
X966746Y-11769222D01*
X966746Y-11769222D02*
X966746Y-11873984D01*
X1061984Y-11873984D02*
X1061984Y-11740650D01*
X1061984Y-11759698D02*
X1071508Y-11750174D01*
X1071508Y-11750174D02*
X1090555Y-11740650D01*
X1090555Y-11740650D02*
X1119127Y-11740650D01*
X1119127Y-11740650D02*
X1138175Y-11750174D01*
X1138175Y-11750174D02*
X1147698Y-11769222D01*
X1147698Y-11769222D02*
X1147698Y-11873984D01*
X1147698Y-11769222D02*
X1157222Y-11750174D01*
X1157222Y-11750174D02*
X1176270Y-11740650D01*
X1176270Y-11740650D02*
X1204841Y-11740650D01*
X1204841Y-11740650D02*
X1223889Y-11750174D01*
X1223889Y-11750174D02*
X1233413Y-11769222D01*
X1233413Y-11769222D02*
X1233413Y-11873984D01*
X1623889Y-11664460D02*
X1452460Y-11921603D01*
X1881032Y-11673984D02*
X1900079Y-11673984D01*
X1900079Y-11673984D02*
X1919127Y-11683508D01*
X1919127Y-11683508D02*
X1928651Y-11693031D01*
X1928651Y-11693031D02*
X1938175Y-11712079D01*
X1938175Y-11712079D02*
X1947698Y-11750174D01*
X1947698Y-11750174D02*
X1947698Y-11797793D01*
X1947698Y-11797793D02*
X1938175Y-11835888D01*
X1938175Y-11835888D02*
X1928651Y-11854936D01*
X1928651Y-11854936D02*
X1919127Y-11864460D01*
X1919127Y-11864460D02*
X1900079Y-11873984D01*
X1900079Y-11873984D02*
X1881032Y-11873984D01*
X1881032Y-11873984D02*
X1861984Y-11864460D01*
X1861984Y-11864460D02*
X1852460Y-11854936D01*
X1852460Y-11854936D02*
X1842936Y-11835888D01*
X1842936Y-11835888D02*
X1833413Y-11797793D01*
X1833413Y-11797793D02*
X1833413Y-11750174D01*
X1833413Y-11750174D02*
X1842936Y-11712079D01*
X1842936Y-11712079D02*
X1852460Y-11693031D01*
X1852460Y-11693031D02*
X1861984Y-11683508D01*
X1861984Y-11683508D02*
X1881032Y-11673984D01*
X2033413Y-11854936D02*
X2042936Y-11864460D01*
X2042936Y-11864460D02*
X2033413Y-11873984D01*
X2033413Y-11873984D02*
X2023889Y-11864460D01*
X2023889Y-11864460D02*
X2033413Y-11854936D01*
X2033413Y-11854936D02*
X2033413Y-11873984D01*
X2166746Y-11673984D02*
X2185794Y-11673984D01*
X2185794Y-11673984D02*
X2204841Y-11683508D01*
X2204841Y-11683508D02*
X2214365Y-11693031D01*
X2214365Y-11693031D02*
X2223889Y-11712079D01*
X2223889Y-11712079D02*
X2233413Y-11750174D01*
X2233413Y-11750174D02*
X2233413Y-11797793D01*
X2233413Y-11797793D02*
X2223889Y-11835888D01*
X2223889Y-11835888D02*
X2214365Y-11854936D01*
X2214365Y-11854936D02*
X2204841Y-11864460D01*
X2204841Y-11864460D02*
X2185794Y-11873984D01*
X2185794Y-11873984D02*
X2166746Y-11873984D01*
X2166746Y-11873984D02*
X2147698Y-11864460D01*
X2147698Y-11864460D02*
X2138175Y-11854936D01*
X2138175Y-11854936D02*
X2128651Y-11835888D01*
X2128651Y-11835888D02*
X2119127Y-11797793D01*
X2119127Y-11797793D02*
X2119127Y-11750174D01*
X2119127Y-11750174D02*
X2128651Y-11712079D01*
X2128651Y-11712079D02*
X2138175Y-11693031D01*
X2138175Y-11693031D02*
X2147698Y-11683508D01*
X2147698Y-11683508D02*
X2166746Y-11673984D01*
X2423889Y-11873984D02*
X2309603Y-11873984D01*
X2366746Y-11873984D02*
X2366746Y-11673984D01*
X2366746Y-11673984D02*
X2347698Y-11702555D01*
X2347698Y-11702555D02*
X2328651Y-11721603D01*
X2328651Y-11721603D02*
X2309603Y-11731127D01*
X2614365Y-11873984D02*
X2500079Y-11873984D01*
X2557222Y-11873984D02*
X2557222Y-11673984D01*
X2557222Y-11673984D02*
X2538175Y-11702555D01*
X2538175Y-11702555D02*
X2519127Y-11721603D01*
X2519127Y-11721603D02*
X2500079Y-11731127D01*
X2728651Y-11759698D02*
X2709603Y-11750174D01*
X2709603Y-11750174D02*
X2700079Y-11740650D01*
X2700079Y-11740650D02*
X2690556Y-11721603D01*
X2690556Y-11721603D02*
X2690556Y-11712079D01*
X2690556Y-11712079D02*
X2700079Y-11693031D01*
X2700079Y-11693031D02*
X2709603Y-11683508D01*
X2709603Y-11683508D02*
X2728651Y-11673984D01*
X2728651Y-11673984D02*
X2766746Y-11673984D01*
X2766746Y-11673984D02*
X2785794Y-11683508D01*
X2785794Y-11683508D02*
X2795318Y-11693031D01*
X2795318Y-11693031D02*
X2804841Y-11712079D01*
X2804841Y-11712079D02*
X2804841Y-11721603D01*
X2804841Y-11721603D02*
X2795318Y-11740650D01*
X2795318Y-11740650D02*
X2785794Y-11750174D01*
X2785794Y-11750174D02*
X2766746Y-11759698D01*
X2766746Y-11759698D02*
X2728651Y-11759698D01*
X2728651Y-11759698D02*
X2709603Y-11769222D01*
X2709603Y-11769222D02*
X2700079Y-11778746D01*
X2700079Y-11778746D02*
X2690556Y-11797793D01*
X2690556Y-11797793D02*
X2690556Y-11835888D01*
X2690556Y-11835888D02*
X2700079Y-11854936D01*
X2700079Y-11854936D02*
X2709603Y-11864460D01*
X2709603Y-11864460D02*
X2728651Y-11873984D01*
X2728651Y-11873984D02*
X2766746Y-11873984D01*
X2766746Y-11873984D02*
X2785794Y-11864460D01*
X2785794Y-11864460D02*
X2795318Y-11854936D01*
X2795318Y-11854936D02*
X2804841Y-11835888D01*
X2804841Y-11835888D02*
X2804841Y-11797793D01*
X2804841Y-11797793D02*
X2795318Y-11778746D01*
X2795318Y-11778746D02*
X2785794Y-11769222D01*
X2785794Y-11769222D02*
X2766746Y-11759698D01*
X2881032Y-11673984D02*
X2881032Y-11712079D01*
X2957222Y-11673984D02*
X2957222Y-11712079D01*
X3252460Y-11950174D02*
X3242937Y-11940650D01*
X3242937Y-11940650D02*
X3223889Y-11912079D01*
X3223889Y-11912079D02*
X3214365Y-11893031D01*
X3214365Y-11893031D02*
X3204841Y-11864460D01*
X3204841Y-11864460D02*
X3195318Y-11816841D01*
X3195318Y-11816841D02*
X3195318Y-11778746D01*
X3195318Y-11778746D02*
X3204841Y-11731127D01*
X3204841Y-11731127D02*
X3214365Y-11702555D01*
X3214365Y-11702555D02*
X3223889Y-11683508D01*
X3223889Y-11683508D02*
X3242937Y-11654936D01*
X3242937Y-11654936D02*
X3252460Y-11645412D01*
X3433413Y-11873984D02*
X3319127Y-11873984D01*
X3376270Y-11873984D02*
X3376270Y-11673984D01*
X3376270Y-11673984D02*
X3357222Y-11702555D01*
X3357222Y-11702555D02*
X3338175Y-11721603D01*
X3338175Y-11721603D02*
X3319127Y-11731127D01*
X3509603Y-11693031D02*
X3519127Y-11683508D01*
X3519127Y-11683508D02*
X3538175Y-11673984D01*
X3538175Y-11673984D02*
X3585794Y-11673984D01*
X3585794Y-11673984D02*
X3604841Y-11683508D01*
X3604841Y-11683508D02*
X3614365Y-11693031D01*
X3614365Y-11693031D02*
X3623889Y-11712079D01*
X3623889Y-11712079D02*
X3623889Y-11731127D01*
X3623889Y-11731127D02*
X3614365Y-11759698D01*
X3614365Y-11759698D02*
X3500079Y-11873984D01*
X3500079Y-11873984D02*
X3623889Y-11873984D01*
X3690556Y-11673984D02*
X3823889Y-11673984D01*
X3823889Y-11673984D02*
X3738175Y-11873984D01*
X4052460Y-11873984D02*
X4052460Y-11673984D01*
X4138175Y-11873984D02*
X4138175Y-11769222D01*
X4138175Y-11769222D02*
X4128651Y-11750174D01*
X4128651Y-11750174D02*
X4109603Y-11740650D01*
X4109603Y-11740650D02*
X4081032Y-11740650D01*
X4081032Y-11740650D02*
X4061984Y-11750174D01*
X4061984Y-11750174D02*
X4052460Y-11759698D01*
X4261984Y-11873984D02*
X4242937Y-11864460D01*
X4242937Y-11864460D02*
X4233413Y-11854936D01*
X4233413Y-11854936D02*
X4223889Y-11835888D01*
X4223889Y-11835888D02*
X4223889Y-11778746D01*
X4223889Y-11778746D02*
X4233413Y-11759698D01*
X4233413Y-11759698D02*
X4242937Y-11750174D01*
X4242937Y-11750174D02*
X4261984Y-11740650D01*
X4261984Y-11740650D02*
X4290556Y-11740650D01*
X4290556Y-11740650D02*
X4309603Y-11750174D01*
X4309603Y-11750174D02*
X4319127Y-11759698D01*
X4319127Y-11759698D02*
X4328651Y-11778746D01*
X4328651Y-11778746D02*
X4328651Y-11835888D01*
X4328651Y-11835888D02*
X4319127Y-11854936D01*
X4319127Y-11854936D02*
X4309603Y-11864460D01*
X4309603Y-11864460D02*
X4290556Y-11873984D01*
X4290556Y-11873984D02*
X4261984Y-11873984D01*
X4442937Y-11873984D02*
X4423889Y-11864460D01*
X4423889Y-11864460D02*
X4414365Y-11845412D01*
X4414365Y-11845412D02*
X4414365Y-11673984D01*
X4595318Y-11864460D02*
X4576270Y-11873984D01*
X4576270Y-11873984D02*
X4538175Y-11873984D01*
X4538175Y-11873984D02*
X4519127Y-11864460D01*
X4519127Y-11864460D02*
X4509603Y-11845412D01*
X4509603Y-11845412D02*
X4509603Y-11769222D01*
X4509603Y-11769222D02*
X4519127Y-11750174D01*
X4519127Y-11750174D02*
X4538175Y-11740650D01*
X4538175Y-11740650D02*
X4576270Y-11740650D01*
X4576270Y-11740650D02*
X4595318Y-11750174D01*
X4595318Y-11750174D02*
X4604842Y-11769222D01*
X4604842Y-11769222D02*
X4604842Y-11788269D01*
X4604842Y-11788269D02*
X4509603Y-11807317D01*
X4681032Y-11864460D02*
X4700080Y-11873984D01*
X4700080Y-11873984D02*
X4738175Y-11873984D01*
X4738175Y-11873984D02*
X4757223Y-11864460D01*
X4757223Y-11864460D02*
X4766746Y-11845412D01*
X4766746Y-11845412D02*
X4766746Y-11835888D01*
X4766746Y-11835888D02*
X4757223Y-11816841D01*
X4757223Y-11816841D02*
X4738175Y-11807317D01*
X4738175Y-11807317D02*
X4709603Y-11807317D01*
X4709603Y-11807317D02*
X4690556Y-11797793D01*
X4690556Y-11797793D02*
X4681032Y-11778746D01*
X4681032Y-11778746D02*
X4681032Y-11769222D01*
X4681032Y-11769222D02*
X4690556Y-11750174D01*
X4690556Y-11750174D02*
X4709603Y-11740650D01*
X4709603Y-11740650D02*
X4738175Y-11740650D01*
X4738175Y-11740650D02*
X4757223Y-11750174D01*
X4833413Y-11950174D02*
X4842937Y-11940650D01*
X4842937Y-11940650D02*
X4861984Y-11912079D01*
X4861984Y-11912079D02*
X4871508Y-11893031D01*
X4871508Y-11893031D02*
X4881032Y-11864460D01*
X4881032Y-11864460D02*
X4890556Y-11816841D01*
X4890556Y-11816841D02*
X4890556Y-11778746D01*
X4890556Y-11778746D02*
X4881032Y-11731127D01*
X4881032Y-11731127D02*
X4871508Y-11702555D01*
X4871508Y-11702555D02*
X4861984Y-11683508D01*
X4861984Y-11683508D02*
X4842937Y-11654936D01*
X4842937Y-11654936D02*
X4833413Y-11645412D01*
D12*
X-322602Y-12046500D02*
G75*
G02*
X-352602Y-12046500I-15000J0D01*
G01*
X-352602Y-12046500D02*
G75*
G02*
X-322602Y-12046500I15000J0D01*
G01*
D11*
X-23730Y-11937984D02*
X-4683Y-11937984D01*
X-4683Y-11937984D02*
X14365Y-11947508D01*
X14365Y-11947508D02*
X23889Y-11957031D01*
X23889Y-11957031D02*
X33413Y-11976079D01*
X33413Y-11976079D02*
X42936Y-12014174D01*
X42936Y-12014174D02*
X42936Y-12061793D01*
X42936Y-12061793D02*
X33413Y-12099888D01*
X33413Y-12099888D02*
X23889Y-12118936D01*
X23889Y-12118936D02*
X14365Y-12128460D01*
X14365Y-12128460D02*
X-4683Y-12137984D01*
X-4683Y-12137984D02*
X-23730Y-12137984D01*
X-23730Y-12137984D02*
X-42778Y-12128460D01*
X-42778Y-12128460D02*
X-52302Y-12118936D01*
X-52302Y-12118936D02*
X-61826Y-12099888D01*
X-61826Y-12099888D02*
X-71349Y-12061793D01*
X-71349Y-12061793D02*
X-71349Y-12014174D01*
X-71349Y-12014174D02*
X-61826Y-11976079D01*
X-61826Y-11976079D02*
X-52302Y-11957031D01*
X-52302Y-11957031D02*
X-42778Y-11947508D01*
X-42778Y-11947508D02*
X-23730Y-11937984D01*
X128651Y-12118936D02*
X138174Y-12128460D01*
X138174Y-12128460D02*
X128651Y-12137984D01*
X128651Y-12137984D02*
X119127Y-12128460D01*
X119127Y-12128460D02*
X128651Y-12118936D01*
X128651Y-12118936D02*
X128651Y-12137984D01*
X204841Y-11937984D02*
X328651Y-11937984D01*
X328651Y-11937984D02*
X261984Y-12014174D01*
X261984Y-12014174D02*
X290555Y-12014174D01*
X290555Y-12014174D02*
X309603Y-12023698D01*
X309603Y-12023698D02*
X319127Y-12033222D01*
X319127Y-12033222D02*
X328651Y-12052269D01*
X328651Y-12052269D02*
X328651Y-12099888D01*
X328651Y-12099888D02*
X319127Y-12118936D01*
X319127Y-12118936D02*
X309603Y-12128460D01*
X309603Y-12128460D02*
X290555Y-12137984D01*
X290555Y-12137984D02*
X233412Y-12137984D01*
X233412Y-12137984D02*
X214365Y-12128460D01*
X214365Y-12128460D02*
X204841Y-12118936D01*
X452460Y-11937984D02*
X471508Y-11937984D01*
X471508Y-11937984D02*
X490555Y-11947508D01*
X490555Y-11947508D02*
X500079Y-11957031D01*
X500079Y-11957031D02*
X509603Y-11976079D01*
X509603Y-11976079D02*
X519127Y-12014174D01*
X519127Y-12014174D02*
X519127Y-12061793D01*
X519127Y-12061793D02*
X509603Y-12099888D01*
X509603Y-12099888D02*
X500079Y-12118936D01*
X500079Y-12118936D02*
X490555Y-12128460D01*
X490555Y-12128460D02*
X471508Y-12137984D01*
X471508Y-12137984D02*
X452460Y-12137984D01*
X452460Y-12137984D02*
X433412Y-12128460D01*
X433412Y-12128460D02*
X423889Y-12118936D01*
X423889Y-12118936D02*
X414365Y-12099888D01*
X414365Y-12099888D02*
X404841Y-12061793D01*
X404841Y-12061793D02*
X404841Y-12014174D01*
X404841Y-12014174D02*
X414365Y-11976079D01*
X414365Y-11976079D02*
X423889Y-11957031D01*
X423889Y-11957031D02*
X433412Y-11947508D01*
X433412Y-11947508D02*
X452460Y-11937984D01*
X642936Y-11937984D02*
X661984Y-11937984D01*
X661984Y-11937984D02*
X681032Y-11947508D01*
X681032Y-11947508D02*
X690555Y-11957031D01*
X690555Y-11957031D02*
X700079Y-11976079D01*
X700079Y-11976079D02*
X709603Y-12014174D01*
X709603Y-12014174D02*
X709603Y-12061793D01*
X709603Y-12061793D02*
X700079Y-12099888D01*
X700079Y-12099888D02*
X690555Y-12118936D01*
X690555Y-12118936D02*
X681032Y-12128460D01*
X681032Y-12128460D02*
X661984Y-12137984D01*
X661984Y-12137984D02*
X642936Y-12137984D01*
X642936Y-12137984D02*
X623889Y-12128460D01*
X623889Y-12128460D02*
X614365Y-12118936D01*
X614365Y-12118936D02*
X604841Y-12099888D01*
X604841Y-12099888D02*
X595317Y-12061793D01*
X595317Y-12061793D02*
X595317Y-12014174D01*
X595317Y-12014174D02*
X604841Y-11976079D01*
X604841Y-11976079D02*
X614365Y-11957031D01*
X614365Y-11957031D02*
X623889Y-11947508D01*
X623889Y-11947508D02*
X642936Y-11937984D01*
X795317Y-12137984D02*
X795317Y-12004650D01*
X795317Y-12023698D02*
X804841Y-12014174D01*
X804841Y-12014174D02*
X823889Y-12004650D01*
X823889Y-12004650D02*
X852460Y-12004650D01*
X852460Y-12004650D02*
X871508Y-12014174D01*
X871508Y-12014174D02*
X881032Y-12033222D01*
X881032Y-12033222D02*
X881032Y-12137984D01*
X881032Y-12033222D02*
X890555Y-12014174D01*
X890555Y-12014174D02*
X909603Y-12004650D01*
X909603Y-12004650D02*
X938174Y-12004650D01*
X938174Y-12004650D02*
X957222Y-12014174D01*
X957222Y-12014174D02*
X966746Y-12033222D01*
X966746Y-12033222D02*
X966746Y-12137984D01*
X1061984Y-12137984D02*
X1061984Y-12004650D01*
X1061984Y-12023698D02*
X1071508Y-12014174D01*
X1071508Y-12014174D02*
X1090555Y-12004650D01*
X1090555Y-12004650D02*
X1119127Y-12004650D01*
X1119127Y-12004650D02*
X1138175Y-12014174D01*
X1138175Y-12014174D02*
X1147698Y-12033222D01*
X1147698Y-12033222D02*
X1147698Y-12137984D01*
X1147698Y-12033222D02*
X1157222Y-12014174D01*
X1157222Y-12014174D02*
X1176270Y-12004650D01*
X1176270Y-12004650D02*
X1204841Y-12004650D01*
X1204841Y-12004650D02*
X1223889Y-12014174D01*
X1223889Y-12014174D02*
X1233413Y-12033222D01*
X1233413Y-12033222D02*
X1233413Y-12137984D01*
X1623889Y-11928460D02*
X1452460Y-12185603D01*
X1881032Y-11937984D02*
X1900079Y-11937984D01*
X1900079Y-11937984D02*
X1919127Y-11947508D01*
X1919127Y-11947508D02*
X1928651Y-11957031D01*
X1928651Y-11957031D02*
X1938175Y-11976079D01*
X1938175Y-11976079D02*
X1947698Y-12014174D01*
X1947698Y-12014174D02*
X1947698Y-12061793D01*
X1947698Y-12061793D02*
X1938175Y-12099888D01*
X1938175Y-12099888D02*
X1928651Y-12118936D01*
X1928651Y-12118936D02*
X1919127Y-12128460D01*
X1919127Y-12128460D02*
X1900079Y-12137984D01*
X1900079Y-12137984D02*
X1881032Y-12137984D01*
X1881032Y-12137984D02*
X1861984Y-12128460D01*
X1861984Y-12128460D02*
X1852460Y-12118936D01*
X1852460Y-12118936D02*
X1842936Y-12099888D01*
X1842936Y-12099888D02*
X1833413Y-12061793D01*
X1833413Y-12061793D02*
X1833413Y-12014174D01*
X1833413Y-12014174D02*
X1842936Y-11976079D01*
X1842936Y-11976079D02*
X1852460Y-11957031D01*
X1852460Y-11957031D02*
X1861984Y-11947508D01*
X1861984Y-11947508D02*
X1881032Y-11937984D01*
X2033413Y-12118936D02*
X2042936Y-12128460D01*
X2042936Y-12128460D02*
X2033413Y-12137984D01*
X2033413Y-12137984D02*
X2023889Y-12128460D01*
X2023889Y-12128460D02*
X2033413Y-12118936D01*
X2033413Y-12118936D02*
X2033413Y-12137984D01*
X2166746Y-11937984D02*
X2185794Y-11937984D01*
X2185794Y-11937984D02*
X2204841Y-11947508D01*
X2204841Y-11947508D02*
X2214365Y-11957031D01*
X2214365Y-11957031D02*
X2223889Y-11976079D01*
X2223889Y-11976079D02*
X2233413Y-12014174D01*
X2233413Y-12014174D02*
X2233413Y-12061793D01*
X2233413Y-12061793D02*
X2223889Y-12099888D01*
X2223889Y-12099888D02*
X2214365Y-12118936D01*
X2214365Y-12118936D02*
X2204841Y-12128460D01*
X2204841Y-12128460D02*
X2185794Y-12137984D01*
X2185794Y-12137984D02*
X2166746Y-12137984D01*
X2166746Y-12137984D02*
X2147698Y-12128460D01*
X2147698Y-12128460D02*
X2138175Y-12118936D01*
X2138175Y-12118936D02*
X2128651Y-12099888D01*
X2128651Y-12099888D02*
X2119127Y-12061793D01*
X2119127Y-12061793D02*
X2119127Y-12014174D01*
X2119127Y-12014174D02*
X2128651Y-11976079D01*
X2128651Y-11976079D02*
X2138175Y-11957031D01*
X2138175Y-11957031D02*
X2147698Y-11947508D01*
X2147698Y-11947508D02*
X2166746Y-11937984D01*
X2423889Y-12137984D02*
X2309603Y-12137984D01*
X2366746Y-12137984D02*
X2366746Y-11937984D01*
X2366746Y-11937984D02*
X2347698Y-11966555D01*
X2347698Y-11966555D02*
X2328651Y-11985603D01*
X2328651Y-11985603D02*
X2309603Y-11995127D01*
X2614365Y-12137984D02*
X2500079Y-12137984D01*
X2557222Y-12137984D02*
X2557222Y-11937984D01*
X2557222Y-11937984D02*
X2538175Y-11966555D01*
X2538175Y-11966555D02*
X2519127Y-11985603D01*
X2519127Y-11985603D02*
X2500079Y-11995127D01*
X2728651Y-12023698D02*
X2709603Y-12014174D01*
X2709603Y-12014174D02*
X2700079Y-12004650D01*
X2700079Y-12004650D02*
X2690556Y-11985603D01*
X2690556Y-11985603D02*
X2690556Y-11976079D01*
X2690556Y-11976079D02*
X2700079Y-11957031D01*
X2700079Y-11957031D02*
X2709603Y-11947508D01*
X2709603Y-11947508D02*
X2728651Y-11937984D01*
X2728651Y-11937984D02*
X2766746Y-11937984D01*
X2766746Y-11937984D02*
X2785794Y-11947508D01*
X2785794Y-11947508D02*
X2795318Y-11957031D01*
X2795318Y-11957031D02*
X2804841Y-11976079D01*
X2804841Y-11976079D02*
X2804841Y-11985603D01*
X2804841Y-11985603D02*
X2795318Y-12004650D01*
X2795318Y-12004650D02*
X2785794Y-12014174D01*
X2785794Y-12014174D02*
X2766746Y-12023698D01*
X2766746Y-12023698D02*
X2728651Y-12023698D01*
X2728651Y-12023698D02*
X2709603Y-12033222D01*
X2709603Y-12033222D02*
X2700079Y-12042746D01*
X2700079Y-12042746D02*
X2690556Y-12061793D01*
X2690556Y-12061793D02*
X2690556Y-12099888D01*
X2690556Y-12099888D02*
X2700079Y-12118936D01*
X2700079Y-12118936D02*
X2709603Y-12128460D01*
X2709603Y-12128460D02*
X2728651Y-12137984D01*
X2728651Y-12137984D02*
X2766746Y-12137984D01*
X2766746Y-12137984D02*
X2785794Y-12128460D01*
X2785794Y-12128460D02*
X2795318Y-12118936D01*
X2795318Y-12118936D02*
X2804841Y-12099888D01*
X2804841Y-12099888D02*
X2804841Y-12061793D01*
X2804841Y-12061793D02*
X2795318Y-12042746D01*
X2795318Y-12042746D02*
X2785794Y-12033222D01*
X2785794Y-12033222D02*
X2766746Y-12023698D01*
X2881032Y-11937984D02*
X2881032Y-11976079D01*
X2957222Y-11937984D02*
X2957222Y-11976079D01*
X3252460Y-12214174D02*
X3242937Y-12204650D01*
X3242937Y-12204650D02*
X3223889Y-12176079D01*
X3223889Y-12176079D02*
X3214365Y-12157031D01*
X3214365Y-12157031D02*
X3204841Y-12128460D01*
X3204841Y-12128460D02*
X3195318Y-12080841D01*
X3195318Y-12080841D02*
X3195318Y-12042746D01*
X3195318Y-12042746D02*
X3204841Y-11995127D01*
X3204841Y-11995127D02*
X3214365Y-11966555D01*
X3214365Y-11966555D02*
X3223889Y-11947508D01*
X3223889Y-11947508D02*
X3242937Y-11918936D01*
X3242937Y-11918936D02*
X3252460Y-11909412D01*
X3338175Y-12137984D02*
X3376270Y-12137984D01*
X3376270Y-12137984D02*
X3395318Y-12128460D01*
X3395318Y-12128460D02*
X3404841Y-12118936D01*
X3404841Y-12118936D02*
X3423889Y-12090365D01*
X3423889Y-12090365D02*
X3433413Y-12052269D01*
X3433413Y-12052269D02*
X3433413Y-11976079D01*
X3433413Y-11976079D02*
X3423889Y-11957031D01*
X3423889Y-11957031D02*
X3414365Y-11947508D01*
X3414365Y-11947508D02*
X3395318Y-11937984D01*
X3395318Y-11937984D02*
X3357222Y-11937984D01*
X3357222Y-11937984D02*
X3338175Y-11947508D01*
X3338175Y-11947508D02*
X3328651Y-11957031D01*
X3328651Y-11957031D02*
X3319127Y-11976079D01*
X3319127Y-11976079D02*
X3319127Y-12023698D01*
X3319127Y-12023698D02*
X3328651Y-12042746D01*
X3328651Y-12042746D02*
X3338175Y-12052269D01*
X3338175Y-12052269D02*
X3357222Y-12061793D01*
X3357222Y-12061793D02*
X3395318Y-12061793D01*
X3395318Y-12061793D02*
X3414365Y-12052269D01*
X3414365Y-12052269D02*
X3423889Y-12042746D01*
X3423889Y-12042746D02*
X3433413Y-12023698D01*
X3671508Y-12137984D02*
X3671508Y-11937984D01*
X3757222Y-12137984D02*
X3757222Y-12033222D01*
X3757222Y-12033222D02*
X3747699Y-12014174D01*
X3747699Y-12014174D02*
X3728651Y-12004650D01*
X3728651Y-12004650D02*
X3700079Y-12004650D01*
X3700079Y-12004650D02*
X3681032Y-12014174D01*
X3681032Y-12014174D02*
X3671508Y-12023698D01*
X3881032Y-12137984D02*
X3861984Y-12128460D01*
X3861984Y-12128460D02*
X3852460Y-12118936D01*
X3852460Y-12118936D02*
X3842937Y-12099888D01*
X3842937Y-12099888D02*
X3842937Y-12042746D01*
X3842937Y-12042746D02*
X3852460Y-12023698D01*
X3852460Y-12023698D02*
X3861984Y-12014174D01*
X3861984Y-12014174D02*
X3881032Y-12004650D01*
X3881032Y-12004650D02*
X3909603Y-12004650D01*
X3909603Y-12004650D02*
X3928651Y-12014174D01*
X3928651Y-12014174D02*
X3938175Y-12023698D01*
X3938175Y-12023698D02*
X3947699Y-12042746D01*
X3947699Y-12042746D02*
X3947699Y-12099888D01*
X3947699Y-12099888D02*
X3938175Y-12118936D01*
X3938175Y-12118936D02*
X3928651Y-12128460D01*
X3928651Y-12128460D02*
X3909603Y-12137984D01*
X3909603Y-12137984D02*
X3881032Y-12137984D01*
X4061984Y-12137984D02*
X4042937Y-12128460D01*
X4042937Y-12128460D02*
X4033413Y-12109412D01*
X4033413Y-12109412D02*
X4033413Y-11937984D01*
X4214365Y-12128460D02*
X4195318Y-12137984D01*
X4195318Y-12137984D02*
X4157222Y-12137984D01*
X4157222Y-12137984D02*
X4138175Y-12128460D01*
X4138175Y-12128460D02*
X4128651Y-12109412D01*
X4128651Y-12109412D02*
X4128651Y-12033222D01*
X4128651Y-12033222D02*
X4138175Y-12014174D01*
X4138175Y-12014174D02*
X4157222Y-12004650D01*
X4157222Y-12004650D02*
X4195318Y-12004650D01*
X4195318Y-12004650D02*
X4214365Y-12014174D01*
X4214365Y-12014174D02*
X4223889Y-12033222D01*
X4223889Y-12033222D02*
X4223889Y-12052269D01*
X4223889Y-12052269D02*
X4128651Y-12071317D01*
X4300080Y-12128460D02*
X4319127Y-12137984D01*
X4319127Y-12137984D02*
X4357222Y-12137984D01*
X4357222Y-12137984D02*
X4376270Y-12128460D01*
X4376270Y-12128460D02*
X4385794Y-12109412D01*
X4385794Y-12109412D02*
X4385794Y-12099888D01*
X4385794Y-12099888D02*
X4376270Y-12080841D01*
X4376270Y-12080841D02*
X4357222Y-12071317D01*
X4357222Y-12071317D02*
X4328651Y-12071317D01*
X4328651Y-12071317D02*
X4309603Y-12061793D01*
X4309603Y-12061793D02*
X4300080Y-12042746D01*
X4300080Y-12042746D02*
X4300080Y-12033222D01*
X4300080Y-12033222D02*
X4309603Y-12014174D01*
X4309603Y-12014174D02*
X4328651Y-12004650D01*
X4328651Y-12004650D02*
X4357222Y-12004650D01*
X4357222Y-12004650D02*
X4376270Y-12014174D01*
X4452461Y-12214174D02*
X4461984Y-12204650D01*
X4461984Y-12204650D02*
X4481032Y-12176079D01*
X4481032Y-12176079D02*
X4490556Y-12157031D01*
X4490556Y-12157031D02*
X4500080Y-12128460D01*
X4500080Y-12128460D02*
X4509603Y-12080841D01*
X4509603Y-12080841D02*
X4509603Y-12042746D01*
X4509603Y-12042746D02*
X4500080Y-11995127D01*
X4500080Y-11995127D02*
X4490556Y-11966555D01*
X4490556Y-11966555D02*
X4481032Y-11947508D01*
X4481032Y-11947508D02*
X4461984Y-11918936D01*
X4461984Y-11918936D02*
X4452461Y-11909412D01*
D12*
X-355622Y-12277480D02*
X-355622Y-12343520D01*
X-388642Y-12310500D02*
X-322602Y-12310500D01*
D11*
X-23730Y-12201984D02*
X-4683Y-12201984D01*
X-4683Y-12201984D02*
X14365Y-12211508D01*
X14365Y-12211508D02*
X23889Y-12221031D01*
X23889Y-12221031D02*
X33413Y-12240079D01*
X33413Y-12240079D02*
X42936Y-12278174D01*
X42936Y-12278174D02*
X42936Y-12325793D01*
X42936Y-12325793D02*
X33413Y-12363888D01*
X33413Y-12363888D02*
X23889Y-12382936D01*
X23889Y-12382936D02*
X14365Y-12392460D01*
X14365Y-12392460D02*
X-4683Y-12401984D01*
X-4683Y-12401984D02*
X-23730Y-12401984D01*
X-23730Y-12401984D02*
X-42778Y-12392460D01*
X-42778Y-12392460D02*
X-52302Y-12382936D01*
X-52302Y-12382936D02*
X-61826Y-12363888D01*
X-61826Y-12363888D02*
X-71349Y-12325793D01*
X-71349Y-12325793D02*
X-71349Y-12278174D01*
X-71349Y-12278174D02*
X-61826Y-12240079D01*
X-61826Y-12240079D02*
X-52302Y-12221031D01*
X-52302Y-12221031D02*
X-42778Y-12211508D01*
X-42778Y-12211508D02*
X-23730Y-12201984D01*
X128651Y-12382936D02*
X138174Y-12392460D01*
X138174Y-12392460D02*
X128651Y-12401984D01*
X128651Y-12401984D02*
X119127Y-12392460D01*
X119127Y-12392460D02*
X128651Y-12382936D01*
X128651Y-12382936D02*
X128651Y-12401984D01*
X309603Y-12201984D02*
X271508Y-12201984D01*
X271508Y-12201984D02*
X252460Y-12211508D01*
X252460Y-12211508D02*
X242936Y-12221031D01*
X242936Y-12221031D02*
X223889Y-12249603D01*
X223889Y-12249603D02*
X214365Y-12287698D01*
X214365Y-12287698D02*
X214365Y-12363888D01*
X214365Y-12363888D02*
X223889Y-12382936D01*
X223889Y-12382936D02*
X233412Y-12392460D01*
X233412Y-12392460D02*
X252460Y-12401984D01*
X252460Y-12401984D02*
X290555Y-12401984D01*
X290555Y-12401984D02*
X309603Y-12392460D01*
X309603Y-12392460D02*
X319127Y-12382936D01*
X319127Y-12382936D02*
X328651Y-12363888D01*
X328651Y-12363888D02*
X328651Y-12316269D01*
X328651Y-12316269D02*
X319127Y-12297222D01*
X319127Y-12297222D02*
X309603Y-12287698D01*
X309603Y-12287698D02*
X290555Y-12278174D01*
X290555Y-12278174D02*
X252460Y-12278174D01*
X252460Y-12278174D02*
X233412Y-12287698D01*
X233412Y-12287698D02*
X223889Y-12297222D01*
X223889Y-12297222D02*
X214365Y-12316269D01*
X500079Y-12201984D02*
X461984Y-12201984D01*
X461984Y-12201984D02*
X442936Y-12211508D01*
X442936Y-12211508D02*
X433412Y-12221031D01*
X433412Y-12221031D02*
X414365Y-12249603D01*
X414365Y-12249603D02*
X404841Y-12287698D01*
X404841Y-12287698D02*
X404841Y-12363888D01*
X404841Y-12363888D02*
X414365Y-12382936D01*
X414365Y-12382936D02*
X423889Y-12392460D01*
X423889Y-12392460D02*
X442936Y-12401984D01*
X442936Y-12401984D02*
X481032Y-12401984D01*
X481032Y-12401984D02*
X500079Y-12392460D01*
X500079Y-12392460D02*
X509603Y-12382936D01*
X509603Y-12382936D02*
X519127Y-12363888D01*
X519127Y-12363888D02*
X519127Y-12316269D01*
X519127Y-12316269D02*
X509603Y-12297222D01*
X509603Y-12297222D02*
X500079Y-12287698D01*
X500079Y-12287698D02*
X481032Y-12278174D01*
X481032Y-12278174D02*
X442936Y-12278174D01*
X442936Y-12278174D02*
X423889Y-12287698D01*
X423889Y-12287698D02*
X414365Y-12297222D01*
X414365Y-12297222D02*
X404841Y-12316269D01*
X642936Y-12201984D02*
X661984Y-12201984D01*
X661984Y-12201984D02*
X681032Y-12211508D01*
X681032Y-12211508D02*
X690555Y-12221031D01*
X690555Y-12221031D02*
X700079Y-12240079D01*
X700079Y-12240079D02*
X709603Y-12278174D01*
X709603Y-12278174D02*
X709603Y-12325793D01*
X709603Y-12325793D02*
X700079Y-12363888D01*
X700079Y-12363888D02*
X690555Y-12382936D01*
X690555Y-12382936D02*
X681032Y-12392460D01*
X681032Y-12392460D02*
X661984Y-12401984D01*
X661984Y-12401984D02*
X642936Y-12401984D01*
X642936Y-12401984D02*
X623889Y-12392460D01*
X623889Y-12392460D02*
X614365Y-12382936D01*
X614365Y-12382936D02*
X604841Y-12363888D01*
X604841Y-12363888D02*
X595317Y-12325793D01*
X595317Y-12325793D02*
X595317Y-12278174D01*
X595317Y-12278174D02*
X604841Y-12240079D01*
X604841Y-12240079D02*
X614365Y-12221031D01*
X614365Y-12221031D02*
X623889Y-12211508D01*
X623889Y-12211508D02*
X642936Y-12201984D01*
X795317Y-12401984D02*
X795317Y-12268650D01*
X795317Y-12287698D02*
X804841Y-12278174D01*
X804841Y-12278174D02*
X823889Y-12268650D01*
X823889Y-12268650D02*
X852460Y-12268650D01*
X852460Y-12268650D02*
X871508Y-12278174D01*
X871508Y-12278174D02*
X881032Y-12297222D01*
X881032Y-12297222D02*
X881032Y-12401984D01*
X881032Y-12297222D02*
X890555Y-12278174D01*
X890555Y-12278174D02*
X909603Y-12268650D01*
X909603Y-12268650D02*
X938174Y-12268650D01*
X938174Y-12268650D02*
X957222Y-12278174D01*
X957222Y-12278174D02*
X966746Y-12297222D01*
X966746Y-12297222D02*
X966746Y-12401984D01*
X1061984Y-12401984D02*
X1061984Y-12268650D01*
X1061984Y-12287698D02*
X1071508Y-12278174D01*
X1071508Y-12278174D02*
X1090555Y-12268650D01*
X1090555Y-12268650D02*
X1119127Y-12268650D01*
X1119127Y-12268650D02*
X1138175Y-12278174D01*
X1138175Y-12278174D02*
X1147698Y-12297222D01*
X1147698Y-12297222D02*
X1147698Y-12401984D01*
X1147698Y-12297222D02*
X1157222Y-12278174D01*
X1157222Y-12278174D02*
X1176270Y-12268650D01*
X1176270Y-12268650D02*
X1204841Y-12268650D01*
X1204841Y-12268650D02*
X1223889Y-12278174D01*
X1223889Y-12278174D02*
X1233413Y-12297222D01*
X1233413Y-12297222D02*
X1233413Y-12401984D01*
X1623889Y-12192460D02*
X1452460Y-12449603D01*
X1881032Y-12201984D02*
X1900079Y-12201984D01*
X1900079Y-12201984D02*
X1919127Y-12211508D01*
X1919127Y-12211508D02*
X1928651Y-12221031D01*
X1928651Y-12221031D02*
X1938175Y-12240079D01*
X1938175Y-12240079D02*
X1947698Y-12278174D01*
X1947698Y-12278174D02*
X1947698Y-12325793D01*
X1947698Y-12325793D02*
X1938175Y-12363888D01*
X1938175Y-12363888D02*
X1928651Y-12382936D01*
X1928651Y-12382936D02*
X1919127Y-12392460D01*
X1919127Y-12392460D02*
X1900079Y-12401984D01*
X1900079Y-12401984D02*
X1881032Y-12401984D01*
X1881032Y-12401984D02*
X1861984Y-12392460D01*
X1861984Y-12392460D02*
X1852460Y-12382936D01*
X1852460Y-12382936D02*
X1842936Y-12363888D01*
X1842936Y-12363888D02*
X1833413Y-12325793D01*
X1833413Y-12325793D02*
X1833413Y-12278174D01*
X1833413Y-12278174D02*
X1842936Y-12240079D01*
X1842936Y-12240079D02*
X1852460Y-12221031D01*
X1852460Y-12221031D02*
X1861984Y-12211508D01*
X1861984Y-12211508D02*
X1881032Y-12201984D01*
X2033413Y-12382936D02*
X2042936Y-12392460D01*
X2042936Y-12392460D02*
X2033413Y-12401984D01*
X2033413Y-12401984D02*
X2023889Y-12392460D01*
X2023889Y-12392460D02*
X2033413Y-12382936D01*
X2033413Y-12382936D02*
X2033413Y-12401984D01*
X2166746Y-12201984D02*
X2185794Y-12201984D01*
X2185794Y-12201984D02*
X2204841Y-12211508D01*
X2204841Y-12211508D02*
X2214365Y-12221031D01*
X2214365Y-12221031D02*
X2223889Y-12240079D01*
X2223889Y-12240079D02*
X2233413Y-12278174D01*
X2233413Y-12278174D02*
X2233413Y-12325793D01*
X2233413Y-12325793D02*
X2223889Y-12363888D01*
X2223889Y-12363888D02*
X2214365Y-12382936D01*
X2214365Y-12382936D02*
X2204841Y-12392460D01*
X2204841Y-12392460D02*
X2185794Y-12401984D01*
X2185794Y-12401984D02*
X2166746Y-12401984D01*
X2166746Y-12401984D02*
X2147698Y-12392460D01*
X2147698Y-12392460D02*
X2138175Y-12382936D01*
X2138175Y-12382936D02*
X2128651Y-12363888D01*
X2128651Y-12363888D02*
X2119127Y-12325793D01*
X2119127Y-12325793D02*
X2119127Y-12278174D01*
X2119127Y-12278174D02*
X2128651Y-12240079D01*
X2128651Y-12240079D02*
X2138175Y-12221031D01*
X2138175Y-12221031D02*
X2147698Y-12211508D01*
X2147698Y-12211508D02*
X2166746Y-12201984D01*
X2309603Y-12221031D02*
X2319127Y-12211508D01*
X2319127Y-12211508D02*
X2338175Y-12201984D01*
X2338175Y-12201984D02*
X2385794Y-12201984D01*
X2385794Y-12201984D02*
X2404841Y-12211508D01*
X2404841Y-12211508D02*
X2414365Y-12221031D01*
X2414365Y-12221031D02*
X2423889Y-12240079D01*
X2423889Y-12240079D02*
X2423889Y-12259127D01*
X2423889Y-12259127D02*
X2414365Y-12287698D01*
X2414365Y-12287698D02*
X2300079Y-12401984D01*
X2300079Y-12401984D02*
X2423889Y-12401984D01*
X2595318Y-12201984D02*
X2557222Y-12201984D01*
X2557222Y-12201984D02*
X2538175Y-12211508D01*
X2538175Y-12211508D02*
X2528651Y-12221031D01*
X2528651Y-12221031D02*
X2509603Y-12249603D01*
X2509603Y-12249603D02*
X2500079Y-12287698D01*
X2500079Y-12287698D02*
X2500079Y-12363888D01*
X2500079Y-12363888D02*
X2509603Y-12382936D01*
X2509603Y-12382936D02*
X2519127Y-12392460D01*
X2519127Y-12392460D02*
X2538175Y-12401984D01*
X2538175Y-12401984D02*
X2576270Y-12401984D01*
X2576270Y-12401984D02*
X2595318Y-12392460D01*
X2595318Y-12392460D02*
X2604841Y-12382936D01*
X2604841Y-12382936D02*
X2614365Y-12363888D01*
X2614365Y-12363888D02*
X2614365Y-12316269D01*
X2614365Y-12316269D02*
X2604841Y-12297222D01*
X2604841Y-12297222D02*
X2595318Y-12287698D01*
X2595318Y-12287698D02*
X2576270Y-12278174D01*
X2576270Y-12278174D02*
X2538175Y-12278174D01*
X2538175Y-12278174D02*
X2519127Y-12287698D01*
X2519127Y-12287698D02*
X2509603Y-12297222D01*
X2509603Y-12297222D02*
X2500079Y-12316269D01*
X2738175Y-12201984D02*
X2757222Y-12201984D01*
X2757222Y-12201984D02*
X2776270Y-12211508D01*
X2776270Y-12211508D02*
X2785794Y-12221031D01*
X2785794Y-12221031D02*
X2795318Y-12240079D01*
X2795318Y-12240079D02*
X2804841Y-12278174D01*
X2804841Y-12278174D02*
X2804841Y-12325793D01*
X2804841Y-12325793D02*
X2795318Y-12363888D01*
X2795318Y-12363888D02*
X2785794Y-12382936D01*
X2785794Y-12382936D02*
X2776270Y-12392460D01*
X2776270Y-12392460D02*
X2757222Y-12401984D01*
X2757222Y-12401984D02*
X2738175Y-12401984D01*
X2738175Y-12401984D02*
X2719127Y-12392460D01*
X2719127Y-12392460D02*
X2709603Y-12382936D01*
X2709603Y-12382936D02*
X2700079Y-12363888D01*
X2700079Y-12363888D02*
X2690556Y-12325793D01*
X2690556Y-12325793D02*
X2690556Y-12278174D01*
X2690556Y-12278174D02*
X2700079Y-12240079D01*
X2700079Y-12240079D02*
X2709603Y-12221031D01*
X2709603Y-12221031D02*
X2719127Y-12211508D01*
X2719127Y-12211508D02*
X2738175Y-12201984D01*
X2881032Y-12201984D02*
X2881032Y-12240079D01*
X2957222Y-12201984D02*
X2957222Y-12240079D01*
X3252460Y-12478174D02*
X3242937Y-12468650D01*
X3242937Y-12468650D02*
X3223889Y-12440079D01*
X3223889Y-12440079D02*
X3214365Y-12421031D01*
X3214365Y-12421031D02*
X3204841Y-12392460D01*
X3204841Y-12392460D02*
X3195318Y-12344841D01*
X3195318Y-12344841D02*
X3195318Y-12306746D01*
X3195318Y-12306746D02*
X3204841Y-12259127D01*
X3204841Y-12259127D02*
X3214365Y-12230555D01*
X3214365Y-12230555D02*
X3223889Y-12211508D01*
X3223889Y-12211508D02*
X3242937Y-12182936D01*
X3242937Y-12182936D02*
X3252460Y-12173412D01*
X3366746Y-12201984D02*
X3385794Y-12201984D01*
X3385794Y-12201984D02*
X3404841Y-12211508D01*
X3404841Y-12211508D02*
X3414365Y-12221031D01*
X3414365Y-12221031D02*
X3423889Y-12240079D01*
X3423889Y-12240079D02*
X3433413Y-12278174D01*
X3433413Y-12278174D02*
X3433413Y-12325793D01*
X3433413Y-12325793D02*
X3423889Y-12363888D01*
X3423889Y-12363888D02*
X3414365Y-12382936D01*
X3414365Y-12382936D02*
X3404841Y-12392460D01*
X3404841Y-12392460D02*
X3385794Y-12401984D01*
X3385794Y-12401984D02*
X3366746Y-12401984D01*
X3366746Y-12401984D02*
X3347698Y-12392460D01*
X3347698Y-12392460D02*
X3338175Y-12382936D01*
X3338175Y-12382936D02*
X3328651Y-12363888D01*
X3328651Y-12363888D02*
X3319127Y-12325793D01*
X3319127Y-12325793D02*
X3319127Y-12278174D01*
X3319127Y-12278174D02*
X3328651Y-12240079D01*
X3328651Y-12240079D02*
X3338175Y-12221031D01*
X3338175Y-12221031D02*
X3347698Y-12211508D01*
X3347698Y-12211508D02*
X3366746Y-12201984D01*
X3671508Y-12401984D02*
X3671508Y-12201984D01*
X3757222Y-12401984D02*
X3757222Y-12297222D01*
X3757222Y-12297222D02*
X3747699Y-12278174D01*
X3747699Y-12278174D02*
X3728651Y-12268650D01*
X3728651Y-12268650D02*
X3700079Y-12268650D01*
X3700079Y-12268650D02*
X3681032Y-12278174D01*
X3681032Y-12278174D02*
X3671508Y-12287698D01*
X3881032Y-12401984D02*
X3861984Y-12392460D01*
X3861984Y-12392460D02*
X3852460Y-12382936D01*
X3852460Y-12382936D02*
X3842937Y-12363888D01*
X3842937Y-12363888D02*
X3842937Y-12306746D01*
X3842937Y-12306746D02*
X3852460Y-12287698D01*
X3852460Y-12287698D02*
X3861984Y-12278174D01*
X3861984Y-12278174D02*
X3881032Y-12268650D01*
X3881032Y-12268650D02*
X3909603Y-12268650D01*
X3909603Y-12268650D02*
X3928651Y-12278174D01*
X3928651Y-12278174D02*
X3938175Y-12287698D01*
X3938175Y-12287698D02*
X3947699Y-12306746D01*
X3947699Y-12306746D02*
X3947699Y-12363888D01*
X3947699Y-12363888D02*
X3938175Y-12382936D01*
X3938175Y-12382936D02*
X3928651Y-12392460D01*
X3928651Y-12392460D02*
X3909603Y-12401984D01*
X3909603Y-12401984D02*
X3881032Y-12401984D01*
X4061984Y-12401984D02*
X4042937Y-12392460D01*
X4042937Y-12392460D02*
X4033413Y-12373412D01*
X4033413Y-12373412D02*
X4033413Y-12201984D01*
X4214365Y-12392460D02*
X4195318Y-12401984D01*
X4195318Y-12401984D02*
X4157222Y-12401984D01*
X4157222Y-12401984D02*
X4138175Y-12392460D01*
X4138175Y-12392460D02*
X4128651Y-12373412D01*
X4128651Y-12373412D02*
X4128651Y-12297222D01*
X4128651Y-12297222D02*
X4138175Y-12278174D01*
X4138175Y-12278174D02*
X4157222Y-12268650D01*
X4157222Y-12268650D02*
X4195318Y-12268650D01*
X4195318Y-12268650D02*
X4214365Y-12278174D01*
X4214365Y-12278174D02*
X4223889Y-12297222D01*
X4223889Y-12297222D02*
X4223889Y-12316269D01*
X4223889Y-12316269D02*
X4128651Y-12335317D01*
X4300080Y-12392460D02*
X4319127Y-12401984D01*
X4319127Y-12401984D02*
X4357222Y-12401984D01*
X4357222Y-12401984D02*
X4376270Y-12392460D01*
X4376270Y-12392460D02*
X4385794Y-12373412D01*
X4385794Y-12373412D02*
X4385794Y-12363888D01*
X4385794Y-12363888D02*
X4376270Y-12344841D01*
X4376270Y-12344841D02*
X4357222Y-12335317D01*
X4357222Y-12335317D02*
X4328651Y-12335317D01*
X4328651Y-12335317D02*
X4309603Y-12325793D01*
X4309603Y-12325793D02*
X4300080Y-12306746D01*
X4300080Y-12306746D02*
X4300080Y-12297222D01*
X4300080Y-12297222D02*
X4309603Y-12278174D01*
X4309603Y-12278174D02*
X4328651Y-12268650D01*
X4328651Y-12268650D02*
X4357222Y-12268650D01*
X4357222Y-12268650D02*
X4376270Y-12278174D01*
X4623889Y-12325793D02*
X4776270Y-12325793D01*
X4700080Y-12401984D02*
X4700080Y-12249603D01*
X5109604Y-12268650D02*
X5109604Y-12401984D01*
X5061984Y-12192460D02*
X5014365Y-12335317D01*
X5014365Y-12335317D02*
X5138175Y-12335317D01*
X5357223Y-12392460D02*
X5376270Y-12401984D01*
X5376270Y-12401984D02*
X5414365Y-12401984D01*
X5414365Y-12401984D02*
X5433413Y-12392460D01*
X5433413Y-12392460D02*
X5442937Y-12373412D01*
X5442937Y-12373412D02*
X5442937Y-12363888D01*
X5442937Y-12363888D02*
X5433413Y-12344841D01*
X5433413Y-12344841D02*
X5414365Y-12335317D01*
X5414365Y-12335317D02*
X5385794Y-12335317D01*
X5385794Y-12335317D02*
X5366746Y-12325793D01*
X5366746Y-12325793D02*
X5357223Y-12306746D01*
X5357223Y-12306746D02*
X5357223Y-12297222D01*
X5357223Y-12297222D02*
X5366746Y-12278174D01*
X5366746Y-12278174D02*
X5385794Y-12268650D01*
X5385794Y-12268650D02*
X5414365Y-12268650D01*
X5414365Y-12268650D02*
X5433413Y-12278174D01*
X5557223Y-12401984D02*
X5538175Y-12392460D01*
X5538175Y-12392460D02*
X5528651Y-12373412D01*
X5528651Y-12373412D02*
X5528651Y-12201984D01*
X5661984Y-12401984D02*
X5642937Y-12392460D01*
X5642937Y-12392460D02*
X5633413Y-12382936D01*
X5633413Y-12382936D02*
X5623889Y-12363888D01*
X5623889Y-12363888D02*
X5623889Y-12306746D01*
X5623889Y-12306746D02*
X5633413Y-12287698D01*
X5633413Y-12287698D02*
X5642937Y-12278174D01*
X5642937Y-12278174D02*
X5661984Y-12268650D01*
X5661984Y-12268650D02*
X5690556Y-12268650D01*
X5690556Y-12268650D02*
X5709604Y-12278174D01*
X5709604Y-12278174D02*
X5719127Y-12287698D01*
X5719127Y-12287698D02*
X5728651Y-12306746D01*
X5728651Y-12306746D02*
X5728651Y-12363888D01*
X5728651Y-12363888D02*
X5719127Y-12382936D01*
X5719127Y-12382936D02*
X5709604Y-12392460D01*
X5709604Y-12392460D02*
X5690556Y-12401984D01*
X5690556Y-12401984D02*
X5661984Y-12401984D01*
X5785794Y-12268650D02*
X5861984Y-12268650D01*
X5814365Y-12201984D02*
X5814365Y-12373412D01*
X5814365Y-12373412D02*
X5823889Y-12392460D01*
X5823889Y-12392460D02*
X5842937Y-12401984D01*
X5842937Y-12401984D02*
X5861984Y-12401984D01*
X5919127Y-12392460D02*
X5938175Y-12401984D01*
X5938175Y-12401984D02*
X5976270Y-12401984D01*
X5976270Y-12401984D02*
X5995318Y-12392460D01*
X5995318Y-12392460D02*
X6004842Y-12373412D01*
X6004842Y-12373412D02*
X6004842Y-12363888D01*
X6004842Y-12363888D02*
X5995318Y-12344841D01*
X5995318Y-12344841D02*
X5976270Y-12335317D01*
X5976270Y-12335317D02*
X5947699Y-12335317D01*
X5947699Y-12335317D02*
X5928651Y-12325793D01*
X5928651Y-12325793D02*
X5919127Y-12306746D01*
X5919127Y-12306746D02*
X5919127Y-12297222D01*
X5919127Y-12297222D02*
X5928651Y-12278174D01*
X5928651Y-12278174D02*
X5947699Y-12268650D01*
X5947699Y-12268650D02*
X5976270Y-12268650D01*
X5976270Y-12268650D02*
X5995318Y-12278174D01*
X6071508Y-12478174D02*
X6081032Y-12468650D01*
X6081032Y-12468650D02*
X6100080Y-12440079D01*
X6100080Y-12440079D02*
X6109604Y-12421031D01*
X6109604Y-12421031D02*
X6119127Y-12392460D01*
X6119127Y-12392460D02*
X6128651Y-12344841D01*
X6128651Y-12344841D02*
X6128651Y-12306746D01*
X6128651Y-12306746D02*
X6119127Y-12259127D01*
X6119127Y-12259127D02*
X6109604Y-12230555D01*
X6109604Y-12230555D02*
X6100080Y-12211508D01*
X6100080Y-12211508D02*
X6081032Y-12182936D01*
X6081032Y-12182936D02*
X6071508Y-12173412D01*
D12*
X-337247Y-12609856D02*
X-337247Y-12539144D01*
X-407958Y-12539144D01*
X-407958Y-12609856D01*
X-337247Y-12609856D01*
D11*
X42936Y-12665984D02*
X-71349Y-12665984D01*
X-14207Y-12665984D02*
X-14207Y-12465984D01*
X-14207Y-12465984D02*
X-33254Y-12494555D01*
X-33254Y-12494555D02*
X-52302Y-12513603D01*
X-52302Y-12513603D02*
X-71349Y-12523127D01*
X128651Y-12646936D02*
X138174Y-12656460D01*
X138174Y-12656460D02*
X128651Y-12665984D01*
X128651Y-12665984D02*
X119127Y-12656460D01*
X119127Y-12656460D02*
X128651Y-12646936D01*
X128651Y-12646936D02*
X128651Y-12665984D01*
X261984Y-12465984D02*
X281032Y-12465984D01*
X281032Y-12465984D02*
X300079Y-12475508D01*
X300079Y-12475508D02*
X309603Y-12485031D01*
X309603Y-12485031D02*
X319127Y-12504079D01*
X319127Y-12504079D02*
X328651Y-12542174D01*
X328651Y-12542174D02*
X328651Y-12589793D01*
X328651Y-12589793D02*
X319127Y-12627888D01*
X319127Y-12627888D02*
X309603Y-12646936D01*
X309603Y-12646936D02*
X300079Y-12656460D01*
X300079Y-12656460D02*
X281032Y-12665984D01*
X281032Y-12665984D02*
X261984Y-12665984D01*
X261984Y-12665984D02*
X242936Y-12656460D01*
X242936Y-12656460D02*
X233412Y-12646936D01*
X233412Y-12646936D02*
X223889Y-12627888D01*
X223889Y-12627888D02*
X214365Y-12589793D01*
X214365Y-12589793D02*
X214365Y-12542174D01*
X214365Y-12542174D02*
X223889Y-12504079D01*
X223889Y-12504079D02*
X233412Y-12485031D01*
X233412Y-12485031D02*
X242936Y-12475508D01*
X242936Y-12475508D02*
X261984Y-12465984D01*
X452460Y-12465984D02*
X471508Y-12465984D01*
X471508Y-12465984D02*
X490555Y-12475508D01*
X490555Y-12475508D02*
X500079Y-12485031D01*
X500079Y-12485031D02*
X509603Y-12504079D01*
X509603Y-12504079D02*
X519127Y-12542174D01*
X519127Y-12542174D02*
X519127Y-12589793D01*
X519127Y-12589793D02*
X509603Y-12627888D01*
X509603Y-12627888D02*
X500079Y-12646936D01*
X500079Y-12646936D02*
X490555Y-12656460D01*
X490555Y-12656460D02*
X471508Y-12665984D01*
X471508Y-12665984D02*
X452460Y-12665984D01*
X452460Y-12665984D02*
X433412Y-12656460D01*
X433412Y-12656460D02*
X423889Y-12646936D01*
X423889Y-12646936D02*
X414365Y-12627888D01*
X414365Y-12627888D02*
X404841Y-12589793D01*
X404841Y-12589793D02*
X404841Y-12542174D01*
X404841Y-12542174D02*
X414365Y-12504079D01*
X414365Y-12504079D02*
X423889Y-12485031D01*
X423889Y-12485031D02*
X433412Y-12475508D01*
X433412Y-12475508D02*
X452460Y-12465984D01*
X642936Y-12465984D02*
X661984Y-12465984D01*
X661984Y-12465984D02*
X681032Y-12475508D01*
X681032Y-12475508D02*
X690555Y-12485031D01*
X690555Y-12485031D02*
X700079Y-12504079D01*
X700079Y-12504079D02*
X709603Y-12542174D01*
X709603Y-12542174D02*
X709603Y-12589793D01*
X709603Y-12589793D02*
X700079Y-12627888D01*
X700079Y-12627888D02*
X690555Y-12646936D01*
X690555Y-12646936D02*
X681032Y-12656460D01*
X681032Y-12656460D02*
X661984Y-12665984D01*
X661984Y-12665984D02*
X642936Y-12665984D01*
X642936Y-12665984D02*
X623889Y-12656460D01*
X623889Y-12656460D02*
X614365Y-12646936D01*
X614365Y-12646936D02*
X604841Y-12627888D01*
X604841Y-12627888D02*
X595317Y-12589793D01*
X595317Y-12589793D02*
X595317Y-12542174D01*
X595317Y-12542174D02*
X604841Y-12504079D01*
X604841Y-12504079D02*
X614365Y-12485031D01*
X614365Y-12485031D02*
X623889Y-12475508D01*
X623889Y-12475508D02*
X642936Y-12465984D01*
X795317Y-12665984D02*
X795317Y-12532650D01*
X795317Y-12551698D02*
X804841Y-12542174D01*
X804841Y-12542174D02*
X823889Y-12532650D01*
X823889Y-12532650D02*
X852460Y-12532650D01*
X852460Y-12532650D02*
X871508Y-12542174D01*
X871508Y-12542174D02*
X881032Y-12561222D01*
X881032Y-12561222D02*
X881032Y-12665984D01*
X881032Y-12561222D02*
X890555Y-12542174D01*
X890555Y-12542174D02*
X909603Y-12532650D01*
X909603Y-12532650D02*
X938174Y-12532650D01*
X938174Y-12532650D02*
X957222Y-12542174D01*
X957222Y-12542174D02*
X966746Y-12561222D01*
X966746Y-12561222D02*
X966746Y-12665984D01*
X1061984Y-12665984D02*
X1061984Y-12532650D01*
X1061984Y-12551698D02*
X1071508Y-12542174D01*
X1071508Y-12542174D02*
X1090555Y-12532650D01*
X1090555Y-12532650D02*
X1119127Y-12532650D01*
X1119127Y-12532650D02*
X1138175Y-12542174D01*
X1138175Y-12542174D02*
X1147698Y-12561222D01*
X1147698Y-12561222D02*
X1147698Y-12665984D01*
X1147698Y-12561222D02*
X1157222Y-12542174D01*
X1157222Y-12542174D02*
X1176270Y-12532650D01*
X1176270Y-12532650D02*
X1204841Y-12532650D01*
X1204841Y-12532650D02*
X1223889Y-12542174D01*
X1223889Y-12542174D02*
X1233413Y-12561222D01*
X1233413Y-12561222D02*
X1233413Y-12665984D01*
X1623889Y-12456460D02*
X1452460Y-12713603D01*
X1881032Y-12465984D02*
X1900079Y-12465984D01*
X1900079Y-12465984D02*
X1919127Y-12475508D01*
X1919127Y-12475508D02*
X1928651Y-12485031D01*
X1928651Y-12485031D02*
X1938175Y-12504079D01*
X1938175Y-12504079D02*
X1947698Y-12542174D01*
X1947698Y-12542174D02*
X1947698Y-12589793D01*
X1947698Y-12589793D02*
X1938175Y-12627888D01*
X1938175Y-12627888D02*
X1928651Y-12646936D01*
X1928651Y-12646936D02*
X1919127Y-12656460D01*
X1919127Y-12656460D02*
X1900079Y-12665984D01*
X1900079Y-12665984D02*
X1881032Y-12665984D01*
X1881032Y-12665984D02*
X1861984Y-12656460D01*
X1861984Y-12656460D02*
X1852460Y-12646936D01*
X1852460Y-12646936D02*
X1842936Y-12627888D01*
X1842936Y-12627888D02*
X1833413Y-12589793D01*
X1833413Y-12589793D02*
X1833413Y-12542174D01*
X1833413Y-12542174D02*
X1842936Y-12504079D01*
X1842936Y-12504079D02*
X1852460Y-12485031D01*
X1852460Y-12485031D02*
X1861984Y-12475508D01*
X1861984Y-12475508D02*
X1881032Y-12465984D01*
X2033413Y-12646936D02*
X2042936Y-12656460D01*
X2042936Y-12656460D02*
X2033413Y-12665984D01*
X2033413Y-12665984D02*
X2023889Y-12656460D01*
X2023889Y-12656460D02*
X2033413Y-12646936D01*
X2033413Y-12646936D02*
X2033413Y-12665984D01*
X2166746Y-12465984D02*
X2185794Y-12465984D01*
X2185794Y-12465984D02*
X2204841Y-12475508D01*
X2204841Y-12475508D02*
X2214365Y-12485031D01*
X2214365Y-12485031D02*
X2223889Y-12504079D01*
X2223889Y-12504079D02*
X2233413Y-12542174D01*
X2233413Y-12542174D02*
X2233413Y-12589793D01*
X2233413Y-12589793D02*
X2223889Y-12627888D01*
X2223889Y-12627888D02*
X2214365Y-12646936D01*
X2214365Y-12646936D02*
X2204841Y-12656460D01*
X2204841Y-12656460D02*
X2185794Y-12665984D01*
X2185794Y-12665984D02*
X2166746Y-12665984D01*
X2166746Y-12665984D02*
X2147698Y-12656460D01*
X2147698Y-12656460D02*
X2138175Y-12646936D01*
X2138175Y-12646936D02*
X2128651Y-12627888D01*
X2128651Y-12627888D02*
X2119127Y-12589793D01*
X2119127Y-12589793D02*
X2119127Y-12542174D01*
X2119127Y-12542174D02*
X2128651Y-12504079D01*
X2128651Y-12504079D02*
X2138175Y-12485031D01*
X2138175Y-12485031D02*
X2147698Y-12475508D01*
X2147698Y-12475508D02*
X2166746Y-12465984D01*
X2300079Y-12465984D02*
X2423889Y-12465984D01*
X2423889Y-12465984D02*
X2357222Y-12542174D01*
X2357222Y-12542174D02*
X2385794Y-12542174D01*
X2385794Y-12542174D02*
X2404841Y-12551698D01*
X2404841Y-12551698D02*
X2414365Y-12561222D01*
X2414365Y-12561222D02*
X2423889Y-12580269D01*
X2423889Y-12580269D02*
X2423889Y-12627888D01*
X2423889Y-12627888D02*
X2414365Y-12646936D01*
X2414365Y-12646936D02*
X2404841Y-12656460D01*
X2404841Y-12656460D02*
X2385794Y-12665984D01*
X2385794Y-12665984D02*
X2328651Y-12665984D01*
X2328651Y-12665984D02*
X2309603Y-12656460D01*
X2309603Y-12656460D02*
X2300079Y-12646936D01*
X2519127Y-12665984D02*
X2557222Y-12665984D01*
X2557222Y-12665984D02*
X2576270Y-12656460D01*
X2576270Y-12656460D02*
X2585794Y-12646936D01*
X2585794Y-12646936D02*
X2604841Y-12618365D01*
X2604841Y-12618365D02*
X2614365Y-12580269D01*
X2614365Y-12580269D02*
X2614365Y-12504079D01*
X2614365Y-12504079D02*
X2604841Y-12485031D01*
X2604841Y-12485031D02*
X2595318Y-12475508D01*
X2595318Y-12475508D02*
X2576270Y-12465984D01*
X2576270Y-12465984D02*
X2538175Y-12465984D01*
X2538175Y-12465984D02*
X2519127Y-12475508D01*
X2519127Y-12475508D02*
X2509603Y-12485031D01*
X2509603Y-12485031D02*
X2500079Y-12504079D01*
X2500079Y-12504079D02*
X2500079Y-12551698D01*
X2500079Y-12551698D02*
X2509603Y-12570746D01*
X2509603Y-12570746D02*
X2519127Y-12580269D01*
X2519127Y-12580269D02*
X2538175Y-12589793D01*
X2538175Y-12589793D02*
X2576270Y-12589793D01*
X2576270Y-12589793D02*
X2595318Y-12580269D01*
X2595318Y-12580269D02*
X2604841Y-12570746D01*
X2604841Y-12570746D02*
X2614365Y-12551698D01*
X2785794Y-12532650D02*
X2785794Y-12665984D01*
X2738175Y-12456460D02*
X2690556Y-12599317D01*
X2690556Y-12599317D02*
X2814365Y-12599317D01*
X2881032Y-12465984D02*
X2881032Y-12504079D01*
X2957222Y-12465984D02*
X2957222Y-12504079D01*
X3252460Y-12742174D02*
X3242937Y-12732650D01*
X3242937Y-12732650D02*
X3223889Y-12704079D01*
X3223889Y-12704079D02*
X3214365Y-12685031D01*
X3214365Y-12685031D02*
X3204841Y-12656460D01*
X3204841Y-12656460D02*
X3195318Y-12608841D01*
X3195318Y-12608841D02*
X3195318Y-12570746D01*
X3195318Y-12570746D02*
X3204841Y-12523127D01*
X3204841Y-12523127D02*
X3214365Y-12494555D01*
X3214365Y-12494555D02*
X3223889Y-12475508D01*
X3223889Y-12475508D02*
X3242937Y-12446936D01*
X3242937Y-12446936D02*
X3252460Y-12437412D01*
X3414365Y-12532650D02*
X3414365Y-12665984D01*
X3366746Y-12456460D02*
X3319127Y-12599317D01*
X3319127Y-12599317D02*
X3442937Y-12599317D01*
X3557222Y-12465984D02*
X3576270Y-12465984D01*
X3576270Y-12465984D02*
X3595318Y-12475508D01*
X3595318Y-12475508D02*
X3604841Y-12485031D01*
X3604841Y-12485031D02*
X3614365Y-12504079D01*
X3614365Y-12504079D02*
X3623889Y-12542174D01*
X3623889Y-12542174D02*
X3623889Y-12589793D01*
X3623889Y-12589793D02*
X3614365Y-12627888D01*
X3614365Y-12627888D02*
X3604841Y-12646936D01*
X3604841Y-12646936D02*
X3595318Y-12656460D01*
X3595318Y-12656460D02*
X3576270Y-12665984D01*
X3576270Y-12665984D02*
X3557222Y-12665984D01*
X3557222Y-12665984D02*
X3538175Y-12656460D01*
X3538175Y-12656460D02*
X3528651Y-12646936D01*
X3528651Y-12646936D02*
X3519127Y-12627888D01*
X3519127Y-12627888D02*
X3509603Y-12589793D01*
X3509603Y-12589793D02*
X3509603Y-12542174D01*
X3509603Y-12542174D02*
X3519127Y-12504079D01*
X3519127Y-12504079D02*
X3528651Y-12485031D01*
X3528651Y-12485031D02*
X3538175Y-12475508D01*
X3538175Y-12475508D02*
X3557222Y-12465984D01*
X3861984Y-12665984D02*
X3861984Y-12465984D01*
X3947699Y-12665984D02*
X3947699Y-12561222D01*
X3947699Y-12561222D02*
X3938175Y-12542174D01*
X3938175Y-12542174D02*
X3919127Y-12532650D01*
X3919127Y-12532650D02*
X3890556Y-12532650D01*
X3890556Y-12532650D02*
X3871508Y-12542174D01*
X3871508Y-12542174D02*
X3861984Y-12551698D01*
X4071508Y-12665984D02*
X4052460Y-12656460D01*
X4052460Y-12656460D02*
X4042937Y-12646936D01*
X4042937Y-12646936D02*
X4033413Y-12627888D01*
X4033413Y-12627888D02*
X4033413Y-12570746D01*
X4033413Y-12570746D02*
X4042937Y-12551698D01*
X4042937Y-12551698D02*
X4052460Y-12542174D01*
X4052460Y-12542174D02*
X4071508Y-12532650D01*
X4071508Y-12532650D02*
X4100080Y-12532650D01*
X4100080Y-12532650D02*
X4119127Y-12542174D01*
X4119127Y-12542174D02*
X4128651Y-12551698D01*
X4128651Y-12551698D02*
X4138175Y-12570746D01*
X4138175Y-12570746D02*
X4138175Y-12627888D01*
X4138175Y-12627888D02*
X4128651Y-12646936D01*
X4128651Y-12646936D02*
X4119127Y-12656460D01*
X4119127Y-12656460D02*
X4100080Y-12665984D01*
X4100080Y-12665984D02*
X4071508Y-12665984D01*
X4252461Y-12665984D02*
X4233413Y-12656460D01*
X4233413Y-12656460D02*
X4223889Y-12637412D01*
X4223889Y-12637412D02*
X4223889Y-12465984D01*
X4404842Y-12656460D02*
X4385794Y-12665984D01*
X4385794Y-12665984D02*
X4347699Y-12665984D01*
X4347699Y-12665984D02*
X4328651Y-12656460D01*
X4328651Y-12656460D02*
X4319127Y-12637412D01*
X4319127Y-12637412D02*
X4319127Y-12561222D01*
X4319127Y-12561222D02*
X4328651Y-12542174D01*
X4328651Y-12542174D02*
X4347699Y-12532650D01*
X4347699Y-12532650D02*
X4385794Y-12532650D01*
X4385794Y-12532650D02*
X4404842Y-12542174D01*
X4404842Y-12542174D02*
X4414365Y-12561222D01*
X4414365Y-12561222D02*
X4414365Y-12580269D01*
X4414365Y-12580269D02*
X4319127Y-12599317D01*
X4490556Y-12656460D02*
X4509603Y-12665984D01*
X4509603Y-12665984D02*
X4547699Y-12665984D01*
X4547699Y-12665984D02*
X4566746Y-12656460D01*
X4566746Y-12656460D02*
X4576270Y-12637412D01*
X4576270Y-12637412D02*
X4576270Y-12627888D01*
X4576270Y-12627888D02*
X4566746Y-12608841D01*
X4566746Y-12608841D02*
X4547699Y-12599317D01*
X4547699Y-12599317D02*
X4519127Y-12599317D01*
X4519127Y-12599317D02*
X4500080Y-12589793D01*
X4500080Y-12589793D02*
X4490556Y-12570746D01*
X4490556Y-12570746D02*
X4490556Y-12561222D01*
X4490556Y-12561222D02*
X4500080Y-12542174D01*
X4500080Y-12542174D02*
X4519127Y-12532650D01*
X4519127Y-12532650D02*
X4547699Y-12532650D01*
X4547699Y-12532650D02*
X4566746Y-12542174D01*
X4642937Y-12742174D02*
X4652461Y-12732650D01*
X4652461Y-12732650D02*
X4671508Y-12704079D01*
X4671508Y-12704079D02*
X4681032Y-12685031D01*
X4681032Y-12685031D02*
X4690556Y-12656460D01*
X4690556Y-12656460D02*
X4700080Y-12608841D01*
X4700080Y-12608841D02*
X4700080Y-12570746D01*
X4700080Y-12570746D02*
X4690556Y-12523127D01*
X4690556Y-12523127D02*
X4681032Y-12494555D01*
X4681032Y-12494555D02*
X4671508Y-12475508D01*
X4671508Y-12475508D02*
X4652461Y-12446936D01*
X4652461Y-12446936D02*
X4642937Y-12437412D01*
M02*
