G04 #@! TF.GenerationSoftware,KiCad,Pcbnew,9.0.5*
G04 #@! TF.CreationDate,2025-11-14T15:11:00-08:00*
G04 #@! TF.ProjectId,SYCL Badge 2024,5359434c-2042-4616-9467-652032303234,rev?*
G04 #@! TF.SameCoordinates,Original*
G04 #@! TF.FileFunction,Legend,Top*
G04 #@! TF.FilePolarity,Positive*
%FSLAX46Y46*%
G04 Gerber Fmt 4.6, Leading zero omitted, Abs format (unit mm)*
G04 Created by KiCad (PCBNEW 9.0.5) date 2025-11-14 15:11:00*
%MOMM*%
%LPD*%
G01*
G04 APERTURE LIST*
G04 Aperture macros list*
%AMRotRect*
0 Rectangle, with rotation*
0 The origin of the aperture is its center*
0 $1 length*
0 $2 width*
0 $3 Rotation angle, in degrees counterclockwise*
0 Add horizontal line*
21,1,$1,$2,0,0,$3*%
G04 Aperture macros list end*
%ADD10C,0.150000*%
%ADD11C,0.160000*%
%ADD12C,0.120000*%
%ADD13C,0.263999*%
%ADD14C,0.000000*%
%ADD15C,0.508000*%
%ADD16C,2.000000*%
%ADD17R,1.550000X1.300000*%
%ADD18R,1.300000X1.550000*%
%ADD19R,1.600000X0.850000*%
%ADD20R,1.700000X1.700000*%
%ADD21C,1.700000*%
%ADD22C,1.000000*%
%ADD23RotRect,1.400000X1.700000X315.000000*%
%ADD24RotRect,1.700000X1.200000X315.000000*%
%ADD25C,3.200000*%
%ADD26C,1.500000*%
%ADD27C,0.990600*%
%ADD28C,0.900000*%
%ADD29O,1.168400X2.159000*%
%ADD30O,1.168400X2.667000*%
G04 APERTURE END LIST*
D10*
X3411905Y-76054819D02*
X3983333Y-76054819D01*
X3697619Y-77054819D02*
X3697619Y-76054819D01*
X4316667Y-77054819D02*
X4316667Y-76054819D01*
X4316667Y-76054819D02*
X4697619Y-76054819D01*
X4697619Y-76054819D02*
X4792857Y-76102438D01*
X4792857Y-76102438D02*
X4840476Y-76150057D01*
X4840476Y-76150057D02*
X4888095Y-76245295D01*
X4888095Y-76245295D02*
X4888095Y-76388152D01*
X4888095Y-76388152D02*
X4840476Y-76483390D01*
X4840476Y-76483390D02*
X4792857Y-76531009D01*
X4792857Y-76531009D02*
X4697619Y-76578628D01*
X4697619Y-76578628D02*
X4316667Y-76578628D01*
X5269048Y-76150057D02*
X5316667Y-76102438D01*
X5316667Y-76102438D02*
X5411905Y-76054819D01*
X5411905Y-76054819D02*
X5650000Y-76054819D01*
X5650000Y-76054819D02*
X5745238Y-76102438D01*
X5745238Y-76102438D02*
X5792857Y-76150057D01*
X5792857Y-76150057D02*
X5840476Y-76245295D01*
X5840476Y-76245295D02*
X5840476Y-76340533D01*
X5840476Y-76340533D02*
X5792857Y-76483390D01*
X5792857Y-76483390D02*
X5221429Y-77054819D01*
X5221429Y-77054819D02*
X5840476Y-77054819D01*
X6221429Y-76150057D02*
X6269048Y-76102438D01*
X6269048Y-76102438D02*
X6364286Y-76054819D01*
X6364286Y-76054819D02*
X6602381Y-76054819D01*
X6602381Y-76054819D02*
X6697619Y-76102438D01*
X6697619Y-76102438D02*
X6745238Y-76150057D01*
X6745238Y-76150057D02*
X6792857Y-76245295D01*
X6792857Y-76245295D02*
X6792857Y-76340533D01*
X6792857Y-76340533D02*
X6745238Y-76483390D01*
X6745238Y-76483390D02*
X6173810Y-77054819D01*
X6173810Y-77054819D02*
X6792857Y-77054819D01*
X83611905Y-77356819D02*
X84183333Y-77356819D01*
X83897619Y-78356819D02*
X83897619Y-77356819D01*
X84516667Y-78356819D02*
X84516667Y-77356819D01*
X84516667Y-77356819D02*
X84897619Y-77356819D01*
X84897619Y-77356819D02*
X84992857Y-77404438D01*
X84992857Y-77404438D02*
X85040476Y-77452057D01*
X85040476Y-77452057D02*
X85088095Y-77547295D01*
X85088095Y-77547295D02*
X85088095Y-77690152D01*
X85088095Y-77690152D02*
X85040476Y-77785390D01*
X85040476Y-77785390D02*
X84992857Y-77833009D01*
X84992857Y-77833009D02*
X84897619Y-77880628D01*
X84897619Y-77880628D02*
X84516667Y-77880628D01*
X85469048Y-77452057D02*
X85516667Y-77404438D01*
X85516667Y-77404438D02*
X85611905Y-77356819D01*
X85611905Y-77356819D02*
X85850000Y-77356819D01*
X85850000Y-77356819D02*
X85945238Y-77404438D01*
X85945238Y-77404438D02*
X85992857Y-77452057D01*
X85992857Y-77452057D02*
X86040476Y-77547295D01*
X86040476Y-77547295D02*
X86040476Y-77642533D01*
X86040476Y-77642533D02*
X85992857Y-77785390D01*
X85992857Y-77785390D02*
X85421429Y-78356819D01*
X85421429Y-78356819D02*
X86040476Y-78356819D01*
X86516667Y-78356819D02*
X86707143Y-78356819D01*
X86707143Y-78356819D02*
X86802381Y-78309200D01*
X86802381Y-78309200D02*
X86850000Y-78261580D01*
X86850000Y-78261580D02*
X86945238Y-78118723D01*
X86945238Y-78118723D02*
X86992857Y-77928247D01*
X86992857Y-77928247D02*
X86992857Y-77547295D01*
X86992857Y-77547295D02*
X86945238Y-77452057D01*
X86945238Y-77452057D02*
X86897619Y-77404438D01*
X86897619Y-77404438D02*
X86802381Y-77356819D01*
X86802381Y-77356819D02*
X86611905Y-77356819D01*
X86611905Y-77356819D02*
X86516667Y-77404438D01*
X86516667Y-77404438D02*
X86469048Y-77452057D01*
X86469048Y-77452057D02*
X86421429Y-77547295D01*
X86421429Y-77547295D02*
X86421429Y-77785390D01*
X86421429Y-77785390D02*
X86469048Y-77880628D01*
X86469048Y-77880628D02*
X86516667Y-77928247D01*
X86516667Y-77928247D02*
X86611905Y-77975866D01*
X86611905Y-77975866D02*
X86802381Y-77975866D01*
X86802381Y-77975866D02*
X86897619Y-77928247D01*
X86897619Y-77928247D02*
X86945238Y-77880628D01*
X86945238Y-77880628D02*
X86992857Y-77785390D01*
X88547619Y-61007200D02*
X88690476Y-61054819D01*
X88690476Y-61054819D02*
X88928571Y-61054819D01*
X88928571Y-61054819D02*
X89023809Y-61007200D01*
X89023809Y-61007200D02*
X89071428Y-60959580D01*
X89071428Y-60959580D02*
X89119047Y-60864342D01*
X89119047Y-60864342D02*
X89119047Y-60769104D01*
X89119047Y-60769104D02*
X89071428Y-60673866D01*
X89071428Y-60673866D02*
X89023809Y-60626247D01*
X89023809Y-60626247D02*
X88928571Y-60578628D01*
X88928571Y-60578628D02*
X88738095Y-60531009D01*
X88738095Y-60531009D02*
X88642857Y-60483390D01*
X88642857Y-60483390D02*
X88595238Y-60435771D01*
X88595238Y-60435771D02*
X88547619Y-60340533D01*
X88547619Y-60340533D02*
X88547619Y-60245295D01*
X88547619Y-60245295D02*
X88595238Y-60150057D01*
X88595238Y-60150057D02*
X88642857Y-60102438D01*
X88642857Y-60102438D02*
X88738095Y-60054819D01*
X88738095Y-60054819D02*
X88976190Y-60054819D01*
X88976190Y-60054819D02*
X89119047Y-60102438D01*
X89404762Y-60054819D02*
X89976190Y-60054819D01*
X89690476Y-61054819D02*
X89690476Y-60054819D01*
X90261905Y-60769104D02*
X90738095Y-60769104D01*
X90166667Y-61054819D02*
X90500000Y-60054819D01*
X90500000Y-60054819D02*
X90833333Y-61054819D01*
X91738095Y-61054819D02*
X91404762Y-60578628D01*
X91166667Y-61054819D02*
X91166667Y-60054819D01*
X91166667Y-60054819D02*
X91547619Y-60054819D01*
X91547619Y-60054819D02*
X91642857Y-60102438D01*
X91642857Y-60102438D02*
X91690476Y-60150057D01*
X91690476Y-60150057D02*
X91738095Y-60245295D01*
X91738095Y-60245295D02*
X91738095Y-60388152D01*
X91738095Y-60388152D02*
X91690476Y-60483390D01*
X91690476Y-60483390D02*
X91642857Y-60531009D01*
X91642857Y-60531009D02*
X91547619Y-60578628D01*
X91547619Y-60578628D02*
X91166667Y-60578628D01*
X92023810Y-60054819D02*
X92595238Y-60054819D01*
X92309524Y-61054819D02*
X92309524Y-60054819D01*
X93452381Y-61054819D02*
X92880953Y-61054819D01*
X93166667Y-61054819D02*
X93166667Y-60054819D01*
X93166667Y-60054819D02*
X93071429Y-60197676D01*
X93071429Y-60197676D02*
X92976191Y-60292914D01*
X92976191Y-60292914D02*
X92880953Y-60340533D01*
X93985714Y-72769104D02*
X94461904Y-72769104D01*
X93890476Y-73054819D02*
X94223809Y-72054819D01*
X94223809Y-72054819D02*
X94557142Y-73054819D01*
X95414285Y-73054819D02*
X94842857Y-73054819D01*
X95128571Y-73054819D02*
X95128571Y-72054819D01*
X95128571Y-72054819D02*
X95033333Y-72197676D01*
X95033333Y-72197676D02*
X94938095Y-72292914D01*
X94938095Y-72292914D02*
X94842857Y-72340533D01*
X76311905Y-72856819D02*
X76883333Y-72856819D01*
X76597619Y-73856819D02*
X76597619Y-72856819D01*
X77216667Y-73856819D02*
X77216667Y-72856819D01*
X77216667Y-72856819D02*
X77597619Y-72856819D01*
X77597619Y-72856819D02*
X77692857Y-72904438D01*
X77692857Y-72904438D02*
X77740476Y-72952057D01*
X77740476Y-72952057D02*
X77788095Y-73047295D01*
X77788095Y-73047295D02*
X77788095Y-73190152D01*
X77788095Y-73190152D02*
X77740476Y-73285390D01*
X77740476Y-73285390D02*
X77692857Y-73333009D01*
X77692857Y-73333009D02*
X77597619Y-73380628D01*
X77597619Y-73380628D02*
X77216667Y-73380628D01*
X78169048Y-72952057D02*
X78216667Y-72904438D01*
X78216667Y-72904438D02*
X78311905Y-72856819D01*
X78311905Y-72856819D02*
X78550000Y-72856819D01*
X78550000Y-72856819D02*
X78645238Y-72904438D01*
X78645238Y-72904438D02*
X78692857Y-72952057D01*
X78692857Y-72952057D02*
X78740476Y-73047295D01*
X78740476Y-73047295D02*
X78740476Y-73142533D01*
X78740476Y-73142533D02*
X78692857Y-73285390D01*
X78692857Y-73285390D02*
X78121429Y-73856819D01*
X78121429Y-73856819D02*
X78740476Y-73856819D01*
X79597619Y-73190152D02*
X79597619Y-73856819D01*
X79359524Y-72809200D02*
X79121429Y-73523485D01*
X79121429Y-73523485D02*
X79740476Y-73523485D01*
X34338095Y-84856819D02*
X34909523Y-84856819D01*
X34623809Y-85856819D02*
X34623809Y-84856819D01*
X35242857Y-85856819D02*
X35242857Y-84856819D01*
X35242857Y-84856819D02*
X35623809Y-84856819D01*
X35623809Y-84856819D02*
X35719047Y-84904438D01*
X35719047Y-84904438D02*
X35766666Y-84952057D01*
X35766666Y-84952057D02*
X35814285Y-85047295D01*
X35814285Y-85047295D02*
X35814285Y-85190152D01*
X35814285Y-85190152D02*
X35766666Y-85285390D01*
X35766666Y-85285390D02*
X35719047Y-85333009D01*
X35719047Y-85333009D02*
X35623809Y-85380628D01*
X35623809Y-85380628D02*
X35242857Y-85380628D01*
X36719047Y-84856819D02*
X36242857Y-84856819D01*
X36242857Y-84856819D02*
X36195238Y-85333009D01*
X36195238Y-85333009D02*
X36242857Y-85285390D01*
X36242857Y-85285390D02*
X36338095Y-85237771D01*
X36338095Y-85237771D02*
X36576190Y-85237771D01*
X36576190Y-85237771D02*
X36671428Y-85285390D01*
X36671428Y-85285390D02*
X36719047Y-85333009D01*
X36719047Y-85333009D02*
X36766666Y-85428247D01*
X36766666Y-85428247D02*
X36766666Y-85666342D01*
X36766666Y-85666342D02*
X36719047Y-85761580D01*
X36719047Y-85761580D02*
X36671428Y-85809200D01*
X36671428Y-85809200D02*
X36576190Y-85856819D01*
X36576190Y-85856819D02*
X36338095Y-85856819D01*
X36338095Y-85856819D02*
X36242857Y-85809200D01*
X36242857Y-85809200D02*
X36195238Y-85761580D01*
D11*
X81416666Y-65494299D02*
X81416666Y-66208584D01*
X81416666Y-66208584D02*
X81369047Y-66351441D01*
X81369047Y-66351441D02*
X81273809Y-66446680D01*
X81273809Y-66446680D02*
X81130952Y-66494299D01*
X81130952Y-66494299D02*
X81035714Y-66494299D01*
X82321428Y-65827632D02*
X82321428Y-66494299D01*
X82083333Y-65446680D02*
X81845238Y-66160965D01*
X81845238Y-66160965D02*
X82464285Y-66160965D01*
D10*
X91911905Y-87054819D02*
X92483333Y-87054819D01*
X92197619Y-88054819D02*
X92197619Y-87054819D01*
X92816667Y-88054819D02*
X92816667Y-87054819D01*
X92816667Y-87054819D02*
X93197619Y-87054819D01*
X93197619Y-87054819D02*
X93292857Y-87102438D01*
X93292857Y-87102438D02*
X93340476Y-87150057D01*
X93340476Y-87150057D02*
X93388095Y-87245295D01*
X93388095Y-87245295D02*
X93388095Y-87388152D01*
X93388095Y-87388152D02*
X93340476Y-87483390D01*
X93340476Y-87483390D02*
X93292857Y-87531009D01*
X93292857Y-87531009D02*
X93197619Y-87578628D01*
X93197619Y-87578628D02*
X92816667Y-87578628D01*
X94340476Y-88054819D02*
X93769048Y-88054819D01*
X94054762Y-88054819D02*
X94054762Y-87054819D01*
X94054762Y-87054819D02*
X93959524Y-87197676D01*
X93959524Y-87197676D02*
X93864286Y-87292914D01*
X93864286Y-87292914D02*
X93769048Y-87340533D01*
X94673810Y-87054819D02*
X95292857Y-87054819D01*
X95292857Y-87054819D02*
X94959524Y-87435771D01*
X94959524Y-87435771D02*
X95102381Y-87435771D01*
X95102381Y-87435771D02*
X95197619Y-87483390D01*
X95197619Y-87483390D02*
X95245238Y-87531009D01*
X95245238Y-87531009D02*
X95292857Y-87626247D01*
X95292857Y-87626247D02*
X95292857Y-87864342D01*
X95292857Y-87864342D02*
X95245238Y-87959580D01*
X95245238Y-87959580D02*
X95197619Y-88007200D01*
X95197619Y-88007200D02*
X95102381Y-88054819D01*
X95102381Y-88054819D02*
X94816667Y-88054819D01*
X94816667Y-88054819D02*
X94721429Y-88007200D01*
X94721429Y-88007200D02*
X94673810Y-87959580D01*
X73736905Y-88554819D02*
X74308333Y-88554819D01*
X74022619Y-89554819D02*
X74022619Y-88554819D01*
X74641667Y-89554819D02*
X74641667Y-88554819D01*
X74641667Y-88554819D02*
X75022619Y-88554819D01*
X75022619Y-88554819D02*
X75117857Y-88602438D01*
X75117857Y-88602438D02*
X75165476Y-88650057D01*
X75165476Y-88650057D02*
X75213095Y-88745295D01*
X75213095Y-88745295D02*
X75213095Y-88888152D01*
X75213095Y-88888152D02*
X75165476Y-88983390D01*
X75165476Y-88983390D02*
X75117857Y-89031009D01*
X75117857Y-89031009D02*
X75022619Y-89078628D01*
X75022619Y-89078628D02*
X74641667Y-89078628D01*
X76165476Y-89554819D02*
X75594048Y-89554819D01*
X75879762Y-89554819D02*
X75879762Y-88554819D01*
X75879762Y-88554819D02*
X75784524Y-88697676D01*
X75784524Y-88697676D02*
X75689286Y-88792914D01*
X75689286Y-88792914D02*
X75594048Y-88840533D01*
X76736905Y-88983390D02*
X76641667Y-88935771D01*
X76641667Y-88935771D02*
X76594048Y-88888152D01*
X76594048Y-88888152D02*
X76546429Y-88792914D01*
X76546429Y-88792914D02*
X76546429Y-88745295D01*
X76546429Y-88745295D02*
X76594048Y-88650057D01*
X76594048Y-88650057D02*
X76641667Y-88602438D01*
X76641667Y-88602438D02*
X76736905Y-88554819D01*
X76736905Y-88554819D02*
X76927381Y-88554819D01*
X76927381Y-88554819D02*
X77022619Y-88602438D01*
X77022619Y-88602438D02*
X77070238Y-88650057D01*
X77070238Y-88650057D02*
X77117857Y-88745295D01*
X77117857Y-88745295D02*
X77117857Y-88792914D01*
X77117857Y-88792914D02*
X77070238Y-88888152D01*
X77070238Y-88888152D02*
X77022619Y-88935771D01*
X77022619Y-88935771D02*
X76927381Y-88983390D01*
X76927381Y-88983390D02*
X76736905Y-88983390D01*
X76736905Y-88983390D02*
X76641667Y-89031009D01*
X76641667Y-89031009D02*
X76594048Y-89078628D01*
X76594048Y-89078628D02*
X76546429Y-89173866D01*
X76546429Y-89173866D02*
X76546429Y-89364342D01*
X76546429Y-89364342D02*
X76594048Y-89459580D01*
X76594048Y-89459580D02*
X76641667Y-89507200D01*
X76641667Y-89507200D02*
X76736905Y-89554819D01*
X76736905Y-89554819D02*
X76927381Y-89554819D01*
X76927381Y-89554819D02*
X77022619Y-89507200D01*
X77022619Y-89507200D02*
X77070238Y-89459580D01*
X77070238Y-89459580D02*
X77117857Y-89364342D01*
X77117857Y-89364342D02*
X77117857Y-89173866D01*
X77117857Y-89173866D02*
X77070238Y-89078628D01*
X77070238Y-89078628D02*
X77022619Y-89031009D01*
X77022619Y-89031009D02*
X76927381Y-88983390D01*
X65761905Y-104406819D02*
X66333333Y-104406819D01*
X66047619Y-105406819D02*
X66047619Y-104406819D01*
X66666667Y-105406819D02*
X66666667Y-104406819D01*
X66666667Y-104406819D02*
X67047619Y-104406819D01*
X67047619Y-104406819D02*
X67142857Y-104454438D01*
X67142857Y-104454438D02*
X67190476Y-104502057D01*
X67190476Y-104502057D02*
X67238095Y-104597295D01*
X67238095Y-104597295D02*
X67238095Y-104740152D01*
X67238095Y-104740152D02*
X67190476Y-104835390D01*
X67190476Y-104835390D02*
X67142857Y-104883009D01*
X67142857Y-104883009D02*
X67047619Y-104930628D01*
X67047619Y-104930628D02*
X66666667Y-104930628D01*
X68190476Y-105406819D02*
X67619048Y-105406819D01*
X67904762Y-105406819D02*
X67904762Y-104406819D01*
X67904762Y-104406819D02*
X67809524Y-104549676D01*
X67809524Y-104549676D02*
X67714286Y-104644914D01*
X67714286Y-104644914D02*
X67619048Y-104692533D01*
X69047619Y-104406819D02*
X68857143Y-104406819D01*
X68857143Y-104406819D02*
X68761905Y-104454438D01*
X68761905Y-104454438D02*
X68714286Y-104502057D01*
X68714286Y-104502057D02*
X68619048Y-104644914D01*
X68619048Y-104644914D02*
X68571429Y-104835390D01*
X68571429Y-104835390D02*
X68571429Y-105216342D01*
X68571429Y-105216342D02*
X68619048Y-105311580D01*
X68619048Y-105311580D02*
X68666667Y-105359200D01*
X68666667Y-105359200D02*
X68761905Y-105406819D01*
X68761905Y-105406819D02*
X68952381Y-105406819D01*
X68952381Y-105406819D02*
X69047619Y-105359200D01*
X69047619Y-105359200D02*
X69095238Y-105311580D01*
X69095238Y-105311580D02*
X69142857Y-105216342D01*
X69142857Y-105216342D02*
X69142857Y-104978247D01*
X69142857Y-104978247D02*
X69095238Y-104883009D01*
X69095238Y-104883009D02*
X69047619Y-104835390D01*
X69047619Y-104835390D02*
X68952381Y-104787771D01*
X68952381Y-104787771D02*
X68761905Y-104787771D01*
X68761905Y-104787771D02*
X68666667Y-104835390D01*
X68666667Y-104835390D02*
X68619048Y-104883009D01*
X68619048Y-104883009D02*
X68571429Y-104978247D01*
X51436905Y-101904819D02*
X52008333Y-101904819D01*
X51722619Y-102904819D02*
X51722619Y-101904819D01*
X52341667Y-102904819D02*
X52341667Y-101904819D01*
X52341667Y-101904819D02*
X52722619Y-101904819D01*
X52722619Y-101904819D02*
X52817857Y-101952438D01*
X52817857Y-101952438D02*
X52865476Y-102000057D01*
X52865476Y-102000057D02*
X52913095Y-102095295D01*
X52913095Y-102095295D02*
X52913095Y-102238152D01*
X52913095Y-102238152D02*
X52865476Y-102333390D01*
X52865476Y-102333390D02*
X52817857Y-102381009D01*
X52817857Y-102381009D02*
X52722619Y-102428628D01*
X52722619Y-102428628D02*
X52341667Y-102428628D01*
X53865476Y-102904819D02*
X53294048Y-102904819D01*
X53579762Y-102904819D02*
X53579762Y-101904819D01*
X53579762Y-101904819D02*
X53484524Y-102047676D01*
X53484524Y-102047676D02*
X53389286Y-102142914D01*
X53389286Y-102142914D02*
X53294048Y-102190533D01*
X54770238Y-101904819D02*
X54294048Y-101904819D01*
X54294048Y-101904819D02*
X54246429Y-102381009D01*
X54246429Y-102381009D02*
X54294048Y-102333390D01*
X54294048Y-102333390D02*
X54389286Y-102285771D01*
X54389286Y-102285771D02*
X54627381Y-102285771D01*
X54627381Y-102285771D02*
X54722619Y-102333390D01*
X54722619Y-102333390D02*
X54770238Y-102381009D01*
X54770238Y-102381009D02*
X54817857Y-102476247D01*
X54817857Y-102476247D02*
X54817857Y-102714342D01*
X54817857Y-102714342D02*
X54770238Y-102809580D01*
X54770238Y-102809580D02*
X54722619Y-102857200D01*
X54722619Y-102857200D02*
X54627381Y-102904819D01*
X54627381Y-102904819D02*
X54389286Y-102904819D01*
X54389286Y-102904819D02*
X54294048Y-102857200D01*
X54294048Y-102857200D02*
X54246429Y-102809580D01*
X6011905Y-73804819D02*
X6583333Y-73804819D01*
X6297619Y-74804819D02*
X6297619Y-73804819D01*
X6916667Y-74804819D02*
X6916667Y-73804819D01*
X6916667Y-73804819D02*
X7297619Y-73804819D01*
X7297619Y-73804819D02*
X7392857Y-73852438D01*
X7392857Y-73852438D02*
X7440476Y-73900057D01*
X7440476Y-73900057D02*
X7488095Y-73995295D01*
X7488095Y-73995295D02*
X7488095Y-74138152D01*
X7488095Y-74138152D02*
X7440476Y-74233390D01*
X7440476Y-74233390D02*
X7392857Y-74281009D01*
X7392857Y-74281009D02*
X7297619Y-74328628D01*
X7297619Y-74328628D02*
X6916667Y-74328628D01*
X7869048Y-73900057D02*
X7916667Y-73852438D01*
X7916667Y-73852438D02*
X8011905Y-73804819D01*
X8011905Y-73804819D02*
X8250000Y-73804819D01*
X8250000Y-73804819D02*
X8345238Y-73852438D01*
X8345238Y-73852438D02*
X8392857Y-73900057D01*
X8392857Y-73900057D02*
X8440476Y-73995295D01*
X8440476Y-73995295D02*
X8440476Y-74090533D01*
X8440476Y-74090533D02*
X8392857Y-74233390D01*
X8392857Y-74233390D02*
X7821429Y-74804819D01*
X7821429Y-74804819D02*
X8440476Y-74804819D01*
X9392857Y-74804819D02*
X8821429Y-74804819D01*
X9107143Y-74804819D02*
X9107143Y-73804819D01*
X9107143Y-73804819D02*
X9011905Y-73947676D01*
X9011905Y-73947676D02*
X8916667Y-74042914D01*
X8916667Y-74042914D02*
X8821429Y-74090533D01*
X47561905Y-100654819D02*
X48133333Y-100654819D01*
X47847619Y-101654819D02*
X47847619Y-100654819D01*
X48466667Y-101654819D02*
X48466667Y-100654819D01*
X48466667Y-100654819D02*
X48847619Y-100654819D01*
X48847619Y-100654819D02*
X48942857Y-100702438D01*
X48942857Y-100702438D02*
X48990476Y-100750057D01*
X48990476Y-100750057D02*
X49038095Y-100845295D01*
X49038095Y-100845295D02*
X49038095Y-100988152D01*
X49038095Y-100988152D02*
X48990476Y-101083390D01*
X48990476Y-101083390D02*
X48942857Y-101131009D01*
X48942857Y-101131009D02*
X48847619Y-101178628D01*
X48847619Y-101178628D02*
X48466667Y-101178628D01*
X49990476Y-101654819D02*
X49419048Y-101654819D01*
X49704762Y-101654819D02*
X49704762Y-100654819D01*
X49704762Y-100654819D02*
X49609524Y-100797676D01*
X49609524Y-100797676D02*
X49514286Y-100892914D01*
X49514286Y-100892914D02*
X49419048Y-100940533D01*
X50942857Y-101654819D02*
X50371429Y-101654819D01*
X50657143Y-101654819D02*
X50657143Y-100654819D01*
X50657143Y-100654819D02*
X50561905Y-100797676D01*
X50561905Y-100797676D02*
X50466667Y-100892914D01*
X50466667Y-100892914D02*
X50371429Y-100940533D01*
X57204819Y-59088094D02*
X57204819Y-58516666D01*
X58204819Y-58802380D02*
X57204819Y-58802380D01*
X58204819Y-58183332D02*
X57204819Y-58183332D01*
X57204819Y-58183332D02*
X57204819Y-57802380D01*
X57204819Y-57802380D02*
X57252438Y-57707142D01*
X57252438Y-57707142D02*
X57300057Y-57659523D01*
X57300057Y-57659523D02*
X57395295Y-57611904D01*
X57395295Y-57611904D02*
X57538152Y-57611904D01*
X57538152Y-57611904D02*
X57633390Y-57659523D01*
X57633390Y-57659523D02*
X57681009Y-57707142D01*
X57681009Y-57707142D02*
X57728628Y-57802380D01*
X57728628Y-57802380D02*
X57728628Y-58183332D01*
X58204819Y-56659523D02*
X58204819Y-57230951D01*
X58204819Y-56945237D02*
X57204819Y-56945237D01*
X57204819Y-56945237D02*
X57347676Y-57040475D01*
X57347676Y-57040475D02*
X57442914Y-57135713D01*
X57442914Y-57135713D02*
X57490533Y-57230951D01*
X57204819Y-56040475D02*
X57204819Y-55945237D01*
X57204819Y-55945237D02*
X57252438Y-55849999D01*
X57252438Y-55849999D02*
X57300057Y-55802380D01*
X57300057Y-55802380D02*
X57395295Y-55754761D01*
X57395295Y-55754761D02*
X57585771Y-55707142D01*
X57585771Y-55707142D02*
X57823866Y-55707142D01*
X57823866Y-55707142D02*
X58014342Y-55754761D01*
X58014342Y-55754761D02*
X58109580Y-55802380D01*
X58109580Y-55802380D02*
X58157200Y-55849999D01*
X58157200Y-55849999D02*
X58204819Y-55945237D01*
X58204819Y-55945237D02*
X58204819Y-56040475D01*
X58204819Y-56040475D02*
X58157200Y-56135713D01*
X58157200Y-56135713D02*
X58109580Y-56183332D01*
X58109580Y-56183332D02*
X58014342Y-56230951D01*
X58014342Y-56230951D02*
X57823866Y-56278570D01*
X57823866Y-56278570D02*
X57585771Y-56278570D01*
X57585771Y-56278570D02*
X57395295Y-56230951D01*
X57395295Y-56230951D02*
X57300057Y-56183332D01*
X57300057Y-56183332D02*
X57252438Y-56135713D01*
X57252438Y-56135713D02*
X57204819Y-56040475D01*
X45088095Y-64656819D02*
X45659523Y-64656819D01*
X45373809Y-65656819D02*
X45373809Y-64656819D01*
X45992857Y-65656819D02*
X45992857Y-64656819D01*
X45992857Y-64656819D02*
X46373809Y-64656819D01*
X46373809Y-64656819D02*
X46469047Y-64704438D01*
X46469047Y-64704438D02*
X46516666Y-64752057D01*
X46516666Y-64752057D02*
X46564285Y-64847295D01*
X46564285Y-64847295D02*
X46564285Y-64990152D01*
X46564285Y-64990152D02*
X46516666Y-65085390D01*
X46516666Y-65085390D02*
X46469047Y-65133009D01*
X46469047Y-65133009D02*
X46373809Y-65180628D01*
X46373809Y-65180628D02*
X45992857Y-65180628D01*
X47421428Y-64990152D02*
X47421428Y-65656819D01*
X47183333Y-64609200D02*
X46945238Y-65323485D01*
X46945238Y-65323485D02*
X47564285Y-65323485D01*
X33788095Y-73656819D02*
X34359523Y-73656819D01*
X34073809Y-74656819D02*
X34073809Y-73656819D01*
X34692857Y-74656819D02*
X34692857Y-73656819D01*
X34692857Y-73656819D02*
X35073809Y-73656819D01*
X35073809Y-73656819D02*
X35169047Y-73704438D01*
X35169047Y-73704438D02*
X35216666Y-73752057D01*
X35216666Y-73752057D02*
X35264285Y-73847295D01*
X35264285Y-73847295D02*
X35264285Y-73990152D01*
X35264285Y-73990152D02*
X35216666Y-74085390D01*
X35216666Y-74085390D02*
X35169047Y-74133009D01*
X35169047Y-74133009D02*
X35073809Y-74180628D01*
X35073809Y-74180628D02*
X34692857Y-74180628D01*
X35597619Y-73656819D02*
X36264285Y-73656819D01*
X36264285Y-73656819D02*
X35835714Y-74656819D01*
X37488095Y-86806819D02*
X38059523Y-86806819D01*
X37773809Y-87806819D02*
X37773809Y-86806819D01*
X38392857Y-87806819D02*
X38392857Y-86806819D01*
X38392857Y-86806819D02*
X38773809Y-86806819D01*
X38773809Y-86806819D02*
X38869047Y-86854438D01*
X38869047Y-86854438D02*
X38916666Y-86902057D01*
X38916666Y-86902057D02*
X38964285Y-86997295D01*
X38964285Y-86997295D02*
X38964285Y-87140152D01*
X38964285Y-87140152D02*
X38916666Y-87235390D01*
X38916666Y-87235390D02*
X38869047Y-87283009D01*
X38869047Y-87283009D02*
X38773809Y-87330628D01*
X38773809Y-87330628D02*
X38392857Y-87330628D01*
X39821428Y-86806819D02*
X39630952Y-86806819D01*
X39630952Y-86806819D02*
X39535714Y-86854438D01*
X39535714Y-86854438D02*
X39488095Y-86902057D01*
X39488095Y-86902057D02*
X39392857Y-87044914D01*
X39392857Y-87044914D02*
X39345238Y-87235390D01*
X39345238Y-87235390D02*
X39345238Y-87616342D01*
X39345238Y-87616342D02*
X39392857Y-87711580D01*
X39392857Y-87711580D02*
X39440476Y-87759200D01*
X39440476Y-87759200D02*
X39535714Y-87806819D01*
X39535714Y-87806819D02*
X39726190Y-87806819D01*
X39726190Y-87806819D02*
X39821428Y-87759200D01*
X39821428Y-87759200D02*
X39869047Y-87711580D01*
X39869047Y-87711580D02*
X39916666Y-87616342D01*
X39916666Y-87616342D02*
X39916666Y-87378247D01*
X39916666Y-87378247D02*
X39869047Y-87283009D01*
X39869047Y-87283009D02*
X39821428Y-87235390D01*
X39821428Y-87235390D02*
X39726190Y-87187771D01*
X39726190Y-87187771D02*
X39535714Y-87187771D01*
X39535714Y-87187771D02*
X39440476Y-87235390D01*
X39440476Y-87235390D02*
X39392857Y-87283009D01*
X39392857Y-87283009D02*
X39345238Y-87378247D01*
X6861905Y-63954819D02*
X7433333Y-63954819D01*
X7147619Y-64954819D02*
X7147619Y-63954819D01*
X7766667Y-64954819D02*
X7766667Y-63954819D01*
X7766667Y-63954819D02*
X8147619Y-63954819D01*
X8147619Y-63954819D02*
X8242857Y-64002438D01*
X8242857Y-64002438D02*
X8290476Y-64050057D01*
X8290476Y-64050057D02*
X8338095Y-64145295D01*
X8338095Y-64145295D02*
X8338095Y-64288152D01*
X8338095Y-64288152D02*
X8290476Y-64383390D01*
X8290476Y-64383390D02*
X8242857Y-64431009D01*
X8242857Y-64431009D02*
X8147619Y-64478628D01*
X8147619Y-64478628D02*
X7766667Y-64478628D01*
X9290476Y-64954819D02*
X8719048Y-64954819D01*
X9004762Y-64954819D02*
X9004762Y-63954819D01*
X9004762Y-63954819D02*
X8909524Y-64097676D01*
X8909524Y-64097676D02*
X8814286Y-64192914D01*
X8814286Y-64192914D02*
X8719048Y-64240533D01*
X9623810Y-63954819D02*
X10290476Y-63954819D01*
X10290476Y-63954819D02*
X9861905Y-64954819D01*
X50388095Y-67656819D02*
X50959523Y-67656819D01*
X50673809Y-68656819D02*
X50673809Y-67656819D01*
X51292857Y-68656819D02*
X51292857Y-67656819D01*
X51292857Y-67656819D02*
X51673809Y-67656819D01*
X51673809Y-67656819D02*
X51769047Y-67704438D01*
X51769047Y-67704438D02*
X51816666Y-67752057D01*
X51816666Y-67752057D02*
X51864285Y-67847295D01*
X51864285Y-67847295D02*
X51864285Y-67990152D01*
X51864285Y-67990152D02*
X51816666Y-68085390D01*
X51816666Y-68085390D02*
X51769047Y-68133009D01*
X51769047Y-68133009D02*
X51673809Y-68180628D01*
X51673809Y-68180628D02*
X51292857Y-68180628D01*
X52197619Y-67656819D02*
X52816666Y-67656819D01*
X52816666Y-67656819D02*
X52483333Y-68037771D01*
X52483333Y-68037771D02*
X52626190Y-68037771D01*
X52626190Y-68037771D02*
X52721428Y-68085390D01*
X52721428Y-68085390D02*
X52769047Y-68133009D01*
X52769047Y-68133009D02*
X52816666Y-68228247D01*
X52816666Y-68228247D02*
X52816666Y-68466342D01*
X52816666Y-68466342D02*
X52769047Y-68561580D01*
X52769047Y-68561580D02*
X52721428Y-68609200D01*
X52721428Y-68609200D02*
X52626190Y-68656819D01*
X52626190Y-68656819D02*
X52340476Y-68656819D01*
X52340476Y-68656819D02*
X52245238Y-68609200D01*
X52245238Y-68609200D02*
X52197619Y-68561580D01*
X52311905Y-63406819D02*
X52883333Y-63406819D01*
X52597619Y-64406819D02*
X52597619Y-63406819D01*
X53216667Y-64406819D02*
X53216667Y-63406819D01*
X53216667Y-63406819D02*
X53597619Y-63406819D01*
X53597619Y-63406819D02*
X53692857Y-63454438D01*
X53692857Y-63454438D02*
X53740476Y-63502057D01*
X53740476Y-63502057D02*
X53788095Y-63597295D01*
X53788095Y-63597295D02*
X53788095Y-63740152D01*
X53788095Y-63740152D02*
X53740476Y-63835390D01*
X53740476Y-63835390D02*
X53692857Y-63883009D01*
X53692857Y-63883009D02*
X53597619Y-63930628D01*
X53597619Y-63930628D02*
X53216667Y-63930628D01*
X54740476Y-64406819D02*
X54169048Y-64406819D01*
X54454762Y-64406819D02*
X54454762Y-63406819D01*
X54454762Y-63406819D02*
X54359524Y-63549676D01*
X54359524Y-63549676D02*
X54264286Y-63644914D01*
X54264286Y-63644914D02*
X54169048Y-63692533D01*
X55121429Y-63502057D02*
X55169048Y-63454438D01*
X55169048Y-63454438D02*
X55264286Y-63406819D01*
X55264286Y-63406819D02*
X55502381Y-63406819D01*
X55502381Y-63406819D02*
X55597619Y-63454438D01*
X55597619Y-63454438D02*
X55645238Y-63502057D01*
X55645238Y-63502057D02*
X55692857Y-63597295D01*
X55692857Y-63597295D02*
X55692857Y-63692533D01*
X55692857Y-63692533D02*
X55645238Y-63835390D01*
X55645238Y-63835390D02*
X55073810Y-64406819D01*
X55073810Y-64406819D02*
X55692857Y-64406819D01*
D11*
X21261905Y-91254299D02*
X21833333Y-91254299D01*
X21547619Y-92254299D02*
X21547619Y-91254299D01*
X22166667Y-92254299D02*
X22166667Y-91254299D01*
X22166667Y-91254299D02*
X22547619Y-91254299D01*
X22547619Y-91254299D02*
X22642857Y-91301918D01*
X22642857Y-91301918D02*
X22690476Y-91349537D01*
X22690476Y-91349537D02*
X22738095Y-91444775D01*
X22738095Y-91444775D02*
X22738095Y-91587632D01*
X22738095Y-91587632D02*
X22690476Y-91682870D01*
X22690476Y-91682870D02*
X22642857Y-91730489D01*
X22642857Y-91730489D02*
X22547619Y-91778108D01*
X22547619Y-91778108D02*
X22166667Y-91778108D01*
X23690476Y-92254299D02*
X23119048Y-92254299D01*
X23404762Y-92254299D02*
X23404762Y-91254299D01*
X23404762Y-91254299D02*
X23309524Y-91397156D01*
X23309524Y-91397156D02*
X23214286Y-91492394D01*
X23214286Y-91492394D02*
X23119048Y-91540013D01*
X24547619Y-91587632D02*
X24547619Y-92254299D01*
X24309524Y-91206680D02*
X24071429Y-91920965D01*
X24071429Y-91920965D02*
X24690476Y-91920965D01*
D10*
X84995238Y-83731009D02*
X85138095Y-83778628D01*
X85138095Y-83778628D02*
X85185714Y-83826247D01*
X85185714Y-83826247D02*
X85233333Y-83921485D01*
X85233333Y-83921485D02*
X85233333Y-84064342D01*
X85233333Y-84064342D02*
X85185714Y-84159580D01*
X85185714Y-84159580D02*
X85138095Y-84207200D01*
X85138095Y-84207200D02*
X85042857Y-84254819D01*
X85042857Y-84254819D02*
X84661905Y-84254819D01*
X84661905Y-84254819D02*
X84661905Y-83254819D01*
X84661905Y-83254819D02*
X84995238Y-83254819D01*
X84995238Y-83254819D02*
X85090476Y-83302438D01*
X85090476Y-83302438D02*
X85138095Y-83350057D01*
X85138095Y-83350057D02*
X85185714Y-83445295D01*
X85185714Y-83445295D02*
X85185714Y-83540533D01*
X85185714Y-83540533D02*
X85138095Y-83635771D01*
X85138095Y-83635771D02*
X85090476Y-83683390D01*
X85090476Y-83683390D02*
X84995238Y-83731009D01*
X84995238Y-83731009D02*
X84661905Y-83731009D01*
X86185714Y-84254819D02*
X85614286Y-84254819D01*
X85900000Y-84254819D02*
X85900000Y-83254819D01*
X85900000Y-83254819D02*
X85804762Y-83397676D01*
X85804762Y-83397676D02*
X85709524Y-83492914D01*
X85709524Y-83492914D02*
X85614286Y-83540533D01*
X82911905Y-63604819D02*
X83483333Y-63604819D01*
X83197619Y-64604819D02*
X83197619Y-63604819D01*
X83816667Y-64604819D02*
X83816667Y-63604819D01*
X83816667Y-63604819D02*
X84197619Y-63604819D01*
X84197619Y-63604819D02*
X84292857Y-63652438D01*
X84292857Y-63652438D02*
X84340476Y-63700057D01*
X84340476Y-63700057D02*
X84388095Y-63795295D01*
X84388095Y-63795295D02*
X84388095Y-63938152D01*
X84388095Y-63938152D02*
X84340476Y-64033390D01*
X84340476Y-64033390D02*
X84292857Y-64081009D01*
X84292857Y-64081009D02*
X84197619Y-64128628D01*
X84197619Y-64128628D02*
X83816667Y-64128628D01*
X85340476Y-64604819D02*
X84769048Y-64604819D01*
X85054762Y-64604819D02*
X85054762Y-63604819D01*
X85054762Y-63604819D02*
X84959524Y-63747676D01*
X84959524Y-63747676D02*
X84864286Y-63842914D01*
X84864286Y-63842914D02*
X84769048Y-63890533D01*
X85816667Y-64604819D02*
X86007143Y-64604819D01*
X86007143Y-64604819D02*
X86102381Y-64557200D01*
X86102381Y-64557200D02*
X86150000Y-64509580D01*
X86150000Y-64509580D02*
X86245238Y-64366723D01*
X86245238Y-64366723D02*
X86292857Y-64176247D01*
X86292857Y-64176247D02*
X86292857Y-63795295D01*
X86292857Y-63795295D02*
X86245238Y-63700057D01*
X86245238Y-63700057D02*
X86197619Y-63652438D01*
X86197619Y-63652438D02*
X86102381Y-63604819D01*
X86102381Y-63604819D02*
X85911905Y-63604819D01*
X85911905Y-63604819D02*
X85816667Y-63652438D01*
X85816667Y-63652438D02*
X85769048Y-63700057D01*
X85769048Y-63700057D02*
X85721429Y-63795295D01*
X85721429Y-63795295D02*
X85721429Y-64033390D01*
X85721429Y-64033390D02*
X85769048Y-64128628D01*
X85769048Y-64128628D02*
X85816667Y-64176247D01*
X85816667Y-64176247D02*
X85911905Y-64223866D01*
X85911905Y-64223866D02*
X86102381Y-64223866D01*
X86102381Y-64223866D02*
X86197619Y-64176247D01*
X86197619Y-64176247D02*
X86245238Y-64128628D01*
X86245238Y-64128628D02*
X86292857Y-64033390D01*
X9611905Y-72106819D02*
X10183333Y-72106819D01*
X9897619Y-73106819D02*
X9897619Y-72106819D01*
X10516667Y-73106819D02*
X10516667Y-72106819D01*
X10516667Y-72106819D02*
X10897619Y-72106819D01*
X10897619Y-72106819D02*
X10992857Y-72154438D01*
X10992857Y-72154438D02*
X11040476Y-72202057D01*
X11040476Y-72202057D02*
X11088095Y-72297295D01*
X11088095Y-72297295D02*
X11088095Y-72440152D01*
X11088095Y-72440152D02*
X11040476Y-72535390D01*
X11040476Y-72535390D02*
X10992857Y-72583009D01*
X10992857Y-72583009D02*
X10897619Y-72630628D01*
X10897619Y-72630628D02*
X10516667Y-72630628D01*
X11469048Y-72202057D02*
X11516667Y-72154438D01*
X11516667Y-72154438D02*
X11611905Y-72106819D01*
X11611905Y-72106819D02*
X11850000Y-72106819D01*
X11850000Y-72106819D02*
X11945238Y-72154438D01*
X11945238Y-72154438D02*
X11992857Y-72202057D01*
X11992857Y-72202057D02*
X12040476Y-72297295D01*
X12040476Y-72297295D02*
X12040476Y-72392533D01*
X12040476Y-72392533D02*
X11992857Y-72535390D01*
X11992857Y-72535390D02*
X11421429Y-73106819D01*
X11421429Y-73106819D02*
X12040476Y-73106819D01*
X12659524Y-72106819D02*
X12754762Y-72106819D01*
X12754762Y-72106819D02*
X12850000Y-72154438D01*
X12850000Y-72154438D02*
X12897619Y-72202057D01*
X12897619Y-72202057D02*
X12945238Y-72297295D01*
X12945238Y-72297295D02*
X12992857Y-72487771D01*
X12992857Y-72487771D02*
X12992857Y-72725866D01*
X12992857Y-72725866D02*
X12945238Y-72916342D01*
X12945238Y-72916342D02*
X12897619Y-73011580D01*
X12897619Y-73011580D02*
X12850000Y-73059200D01*
X12850000Y-73059200D02*
X12754762Y-73106819D01*
X12754762Y-73106819D02*
X12659524Y-73106819D01*
X12659524Y-73106819D02*
X12564286Y-73059200D01*
X12564286Y-73059200D02*
X12516667Y-73011580D01*
X12516667Y-73011580D02*
X12469048Y-72916342D01*
X12469048Y-72916342D02*
X12421429Y-72725866D01*
X12421429Y-72725866D02*
X12421429Y-72487771D01*
X12421429Y-72487771D02*
X12469048Y-72297295D01*
X12469048Y-72297295D02*
X12516667Y-72202057D01*
X12516667Y-72202057D02*
X12564286Y-72154438D01*
X12564286Y-72154438D02*
X12659524Y-72106819D01*
X29588095Y-83456819D02*
X30159523Y-83456819D01*
X29873809Y-84456819D02*
X29873809Y-83456819D01*
X30492857Y-84456819D02*
X30492857Y-83456819D01*
X30492857Y-83456819D02*
X30873809Y-83456819D01*
X30873809Y-83456819D02*
X30969047Y-83504438D01*
X30969047Y-83504438D02*
X31016666Y-83552057D01*
X31016666Y-83552057D02*
X31064285Y-83647295D01*
X31064285Y-83647295D02*
X31064285Y-83790152D01*
X31064285Y-83790152D02*
X31016666Y-83885390D01*
X31016666Y-83885390D02*
X30969047Y-83933009D01*
X30969047Y-83933009D02*
X30873809Y-83980628D01*
X30873809Y-83980628D02*
X30492857Y-83980628D01*
X31635714Y-83885390D02*
X31540476Y-83837771D01*
X31540476Y-83837771D02*
X31492857Y-83790152D01*
X31492857Y-83790152D02*
X31445238Y-83694914D01*
X31445238Y-83694914D02*
X31445238Y-83647295D01*
X31445238Y-83647295D02*
X31492857Y-83552057D01*
X31492857Y-83552057D02*
X31540476Y-83504438D01*
X31540476Y-83504438D02*
X31635714Y-83456819D01*
X31635714Y-83456819D02*
X31826190Y-83456819D01*
X31826190Y-83456819D02*
X31921428Y-83504438D01*
X31921428Y-83504438D02*
X31969047Y-83552057D01*
X31969047Y-83552057D02*
X32016666Y-83647295D01*
X32016666Y-83647295D02*
X32016666Y-83694914D01*
X32016666Y-83694914D02*
X31969047Y-83790152D01*
X31969047Y-83790152D02*
X31921428Y-83837771D01*
X31921428Y-83837771D02*
X31826190Y-83885390D01*
X31826190Y-83885390D02*
X31635714Y-83885390D01*
X31635714Y-83885390D02*
X31540476Y-83933009D01*
X31540476Y-83933009D02*
X31492857Y-83980628D01*
X31492857Y-83980628D02*
X31445238Y-84075866D01*
X31445238Y-84075866D02*
X31445238Y-84266342D01*
X31445238Y-84266342D02*
X31492857Y-84361580D01*
X31492857Y-84361580D02*
X31540476Y-84409200D01*
X31540476Y-84409200D02*
X31635714Y-84456819D01*
X31635714Y-84456819D02*
X31826190Y-84456819D01*
X31826190Y-84456819D02*
X31921428Y-84409200D01*
X31921428Y-84409200D02*
X31969047Y-84361580D01*
X31969047Y-84361580D02*
X32016666Y-84266342D01*
X32016666Y-84266342D02*
X32016666Y-84075866D01*
X32016666Y-84075866D02*
X31969047Y-83980628D01*
X31969047Y-83980628D02*
X31921428Y-83933009D01*
X31921428Y-83933009D02*
X31826190Y-83885390D01*
X16238095Y-56804819D02*
X16809523Y-56804819D01*
X16523809Y-57804819D02*
X16523809Y-56804819D01*
X17142857Y-57804819D02*
X17142857Y-56804819D01*
X17142857Y-56804819D02*
X17523809Y-56804819D01*
X17523809Y-56804819D02*
X17619047Y-56852438D01*
X17619047Y-56852438D02*
X17666666Y-56900057D01*
X17666666Y-56900057D02*
X17714285Y-56995295D01*
X17714285Y-56995295D02*
X17714285Y-57138152D01*
X17714285Y-57138152D02*
X17666666Y-57233390D01*
X17666666Y-57233390D02*
X17619047Y-57281009D01*
X17619047Y-57281009D02*
X17523809Y-57328628D01*
X17523809Y-57328628D02*
X17142857Y-57328628D01*
X18095238Y-56900057D02*
X18142857Y-56852438D01*
X18142857Y-56852438D02*
X18238095Y-56804819D01*
X18238095Y-56804819D02*
X18476190Y-56804819D01*
X18476190Y-56804819D02*
X18571428Y-56852438D01*
X18571428Y-56852438D02*
X18619047Y-56900057D01*
X18619047Y-56900057D02*
X18666666Y-56995295D01*
X18666666Y-56995295D02*
X18666666Y-57090533D01*
X18666666Y-57090533D02*
X18619047Y-57233390D01*
X18619047Y-57233390D02*
X18047619Y-57804819D01*
X18047619Y-57804819D02*
X18666666Y-57804819D01*
X44238095Y-100754819D02*
X44809523Y-100754819D01*
X44523809Y-101754819D02*
X44523809Y-100754819D01*
X45142857Y-101754819D02*
X45142857Y-100754819D01*
X45142857Y-100754819D02*
X45523809Y-100754819D01*
X45523809Y-100754819D02*
X45619047Y-100802438D01*
X45619047Y-100802438D02*
X45666666Y-100850057D01*
X45666666Y-100850057D02*
X45714285Y-100945295D01*
X45714285Y-100945295D02*
X45714285Y-101088152D01*
X45714285Y-101088152D02*
X45666666Y-101183390D01*
X45666666Y-101183390D02*
X45619047Y-101231009D01*
X45619047Y-101231009D02*
X45523809Y-101278628D01*
X45523809Y-101278628D02*
X45142857Y-101278628D01*
X46190476Y-101754819D02*
X46380952Y-101754819D01*
X46380952Y-101754819D02*
X46476190Y-101707200D01*
X46476190Y-101707200D02*
X46523809Y-101659580D01*
X46523809Y-101659580D02*
X46619047Y-101516723D01*
X46619047Y-101516723D02*
X46666666Y-101326247D01*
X46666666Y-101326247D02*
X46666666Y-100945295D01*
X46666666Y-100945295D02*
X46619047Y-100850057D01*
X46619047Y-100850057D02*
X46571428Y-100802438D01*
X46571428Y-100802438D02*
X46476190Y-100754819D01*
X46476190Y-100754819D02*
X46285714Y-100754819D01*
X46285714Y-100754819D02*
X46190476Y-100802438D01*
X46190476Y-100802438D02*
X46142857Y-100850057D01*
X46142857Y-100850057D02*
X46095238Y-100945295D01*
X46095238Y-100945295D02*
X46095238Y-101183390D01*
X46095238Y-101183390D02*
X46142857Y-101278628D01*
X46142857Y-101278628D02*
X46190476Y-101326247D01*
X46190476Y-101326247D02*
X46285714Y-101373866D01*
X46285714Y-101373866D02*
X46476190Y-101373866D01*
X46476190Y-101373866D02*
X46571428Y-101326247D01*
X46571428Y-101326247D02*
X46619047Y-101278628D01*
X46619047Y-101278628D02*
X46666666Y-101183390D01*
X15823530Y-85085369D02*
X15251110Y-85657789D01*
X15251110Y-85657789D02*
X15217438Y-85758804D01*
X15217438Y-85758804D02*
X15217438Y-85826148D01*
X15217438Y-85826148D02*
X15251110Y-85927163D01*
X15251110Y-85927163D02*
X15385797Y-86061850D01*
X15385797Y-86061850D02*
X15486812Y-86095522D01*
X15486812Y-86095522D02*
X15554156Y-86095522D01*
X15554156Y-86095522D02*
X15655171Y-86061850D01*
X15655171Y-86061850D02*
X16227591Y-85489430D01*
X16496965Y-85758804D02*
X16934697Y-86196537D01*
X16934697Y-86196537D02*
X16429621Y-86230209D01*
X16429621Y-86230209D02*
X16530636Y-86331224D01*
X16530636Y-86331224D02*
X16564308Y-86432239D01*
X16564308Y-86432239D02*
X16564308Y-86499583D01*
X16564308Y-86499583D02*
X16530636Y-86600598D01*
X16530636Y-86600598D02*
X16362278Y-86768957D01*
X16362278Y-86768957D02*
X16261262Y-86802629D01*
X16261262Y-86802629D02*
X16193919Y-86802629D01*
X16193919Y-86802629D02*
X16092904Y-86768957D01*
X16092904Y-86768957D02*
X15890873Y-86566926D01*
X15890873Y-86566926D02*
X15857201Y-86465911D01*
X15857201Y-86465911D02*
X15857201Y-86398568D01*
X24861905Y-87356819D02*
X25433333Y-87356819D01*
X25147619Y-88356819D02*
X25147619Y-87356819D01*
X25766667Y-88356819D02*
X25766667Y-87356819D01*
X25766667Y-87356819D02*
X26147619Y-87356819D01*
X26147619Y-87356819D02*
X26242857Y-87404438D01*
X26242857Y-87404438D02*
X26290476Y-87452057D01*
X26290476Y-87452057D02*
X26338095Y-87547295D01*
X26338095Y-87547295D02*
X26338095Y-87690152D01*
X26338095Y-87690152D02*
X26290476Y-87785390D01*
X26290476Y-87785390D02*
X26242857Y-87833009D01*
X26242857Y-87833009D02*
X26147619Y-87880628D01*
X26147619Y-87880628D02*
X25766667Y-87880628D01*
X26719048Y-87452057D02*
X26766667Y-87404438D01*
X26766667Y-87404438D02*
X26861905Y-87356819D01*
X26861905Y-87356819D02*
X27100000Y-87356819D01*
X27100000Y-87356819D02*
X27195238Y-87404438D01*
X27195238Y-87404438D02*
X27242857Y-87452057D01*
X27242857Y-87452057D02*
X27290476Y-87547295D01*
X27290476Y-87547295D02*
X27290476Y-87642533D01*
X27290476Y-87642533D02*
X27242857Y-87785390D01*
X27242857Y-87785390D02*
X26671429Y-88356819D01*
X26671429Y-88356819D02*
X27290476Y-88356819D01*
X27623810Y-87356819D02*
X28242857Y-87356819D01*
X28242857Y-87356819D02*
X27909524Y-87737771D01*
X27909524Y-87737771D02*
X28052381Y-87737771D01*
X28052381Y-87737771D02*
X28147619Y-87785390D01*
X28147619Y-87785390D02*
X28195238Y-87833009D01*
X28195238Y-87833009D02*
X28242857Y-87928247D01*
X28242857Y-87928247D02*
X28242857Y-88166342D01*
X28242857Y-88166342D02*
X28195238Y-88261580D01*
X28195238Y-88261580D02*
X28147619Y-88309200D01*
X28147619Y-88309200D02*
X28052381Y-88356819D01*
X28052381Y-88356819D02*
X27766667Y-88356819D01*
X27766667Y-88356819D02*
X27671429Y-88309200D01*
X27671429Y-88309200D02*
X27623810Y-88261580D01*
X1497619Y-60507200D02*
X1640476Y-60554819D01*
X1640476Y-60554819D02*
X1878571Y-60554819D01*
X1878571Y-60554819D02*
X1973809Y-60507200D01*
X1973809Y-60507200D02*
X2021428Y-60459580D01*
X2021428Y-60459580D02*
X2069047Y-60364342D01*
X2069047Y-60364342D02*
X2069047Y-60269104D01*
X2069047Y-60269104D02*
X2021428Y-60173866D01*
X2021428Y-60173866D02*
X1973809Y-60126247D01*
X1973809Y-60126247D02*
X1878571Y-60078628D01*
X1878571Y-60078628D02*
X1688095Y-60031009D01*
X1688095Y-60031009D02*
X1592857Y-59983390D01*
X1592857Y-59983390D02*
X1545238Y-59935771D01*
X1545238Y-59935771D02*
X1497619Y-59840533D01*
X1497619Y-59840533D02*
X1497619Y-59745295D01*
X1497619Y-59745295D02*
X1545238Y-59650057D01*
X1545238Y-59650057D02*
X1592857Y-59602438D01*
X1592857Y-59602438D02*
X1688095Y-59554819D01*
X1688095Y-59554819D02*
X1926190Y-59554819D01*
X1926190Y-59554819D02*
X2069047Y-59602438D01*
X2497619Y-60031009D02*
X2830952Y-60031009D01*
X2973809Y-60554819D02*
X2497619Y-60554819D01*
X2497619Y-60554819D02*
X2497619Y-59554819D01*
X2497619Y-59554819D02*
X2973809Y-59554819D01*
X3878571Y-60554819D02*
X3402381Y-60554819D01*
X3402381Y-60554819D02*
X3402381Y-59554819D01*
X4211905Y-60031009D02*
X4545238Y-60031009D01*
X4688095Y-60554819D02*
X4211905Y-60554819D01*
X4211905Y-60554819D02*
X4211905Y-59554819D01*
X4211905Y-59554819D02*
X4688095Y-59554819D01*
X5688095Y-60459580D02*
X5640476Y-60507200D01*
X5640476Y-60507200D02*
X5497619Y-60554819D01*
X5497619Y-60554819D02*
X5402381Y-60554819D01*
X5402381Y-60554819D02*
X5259524Y-60507200D01*
X5259524Y-60507200D02*
X5164286Y-60411961D01*
X5164286Y-60411961D02*
X5116667Y-60316723D01*
X5116667Y-60316723D02*
X5069048Y-60126247D01*
X5069048Y-60126247D02*
X5069048Y-59983390D01*
X5069048Y-59983390D02*
X5116667Y-59792914D01*
X5116667Y-59792914D02*
X5164286Y-59697676D01*
X5164286Y-59697676D02*
X5259524Y-59602438D01*
X5259524Y-59602438D02*
X5402381Y-59554819D01*
X5402381Y-59554819D02*
X5497619Y-59554819D01*
X5497619Y-59554819D02*
X5640476Y-59602438D01*
X5640476Y-59602438D02*
X5688095Y-59650057D01*
X5973810Y-59554819D02*
X6545238Y-59554819D01*
X6259524Y-60554819D02*
X6259524Y-59554819D01*
X7402381Y-60554819D02*
X6830953Y-60554819D01*
X7116667Y-60554819D02*
X7116667Y-59554819D01*
X7116667Y-59554819D02*
X7021429Y-59697676D01*
X7021429Y-59697676D02*
X6926191Y-59792914D01*
X6926191Y-59792914D02*
X6830953Y-59840533D01*
X43163095Y-54956819D02*
X43734523Y-54956819D01*
X43448809Y-55956819D02*
X43448809Y-54956819D01*
X44067857Y-55956819D02*
X44067857Y-54956819D01*
X44067857Y-54956819D02*
X44448809Y-54956819D01*
X44448809Y-54956819D02*
X44544047Y-55004438D01*
X44544047Y-55004438D02*
X44591666Y-55052057D01*
X44591666Y-55052057D02*
X44639285Y-55147295D01*
X44639285Y-55147295D02*
X44639285Y-55290152D01*
X44639285Y-55290152D02*
X44591666Y-55385390D01*
X44591666Y-55385390D02*
X44544047Y-55433009D01*
X44544047Y-55433009D02*
X44448809Y-55480628D01*
X44448809Y-55480628D02*
X44067857Y-55480628D01*
X45591666Y-55956819D02*
X45020238Y-55956819D01*
X45305952Y-55956819D02*
X45305952Y-54956819D01*
X45305952Y-54956819D02*
X45210714Y-55099676D01*
X45210714Y-55099676D02*
X45115476Y-55194914D01*
X45115476Y-55194914D02*
X45020238Y-55242533D01*
D12*
G04 #@! TO.C,TP22*
X8000000Y-78650000D02*
G75*
G02*
X5600000Y-78650000I-1200000J0D01*
G01*
X5600000Y-78650000D02*
G75*
G02*
X8000000Y-78650000I1200000J0D01*
G01*
G04 #@! TO.C,TP29*
X86550000Y-79900000D02*
G75*
G02*
X84150000Y-79900000I-1200000J0D01*
G01*
X84150000Y-79900000D02*
G75*
G02*
X86550000Y-79900000I1200000J0D01*
G01*
G04 #@! TO.C,START1*
X84520000Y-52620000D02*
X90980000Y-52620000D01*
X84520000Y-52650000D02*
X84520000Y-52620000D01*
X84520000Y-54550000D02*
X84520000Y-57150000D01*
X84520000Y-59080000D02*
X84520000Y-59050000D01*
X84520000Y-59080000D02*
X90980000Y-59080000D01*
X90980000Y-52620000D02*
X90980000Y-52650000D01*
X90980000Y-54550000D02*
X90980000Y-57150000D01*
X90980000Y-59080000D02*
X90980000Y-59050000D01*
G04 #@! TO.C,A1*
X88970000Y-75270000D02*
X89000000Y-75270000D01*
X88970000Y-81730000D02*
X88970000Y-75270000D01*
X89000000Y-81730000D02*
X88970000Y-81730000D01*
X90900000Y-75270000D02*
X93500000Y-75270000D01*
X90900000Y-81730000D02*
X93500000Y-81730000D01*
X95430000Y-75270000D02*
X95400000Y-75270000D01*
X95430000Y-81730000D02*
X95400000Y-81730000D01*
X95430000Y-81730000D02*
X95430000Y-75270000D01*
G04 #@! TO.C,TP24*
X79250000Y-75400000D02*
G75*
G02*
X76850000Y-75400000I-1200000J0D01*
G01*
X76850000Y-75400000D02*
G75*
G02*
X79250000Y-75400000I1200000J0D01*
G01*
G04 #@! TO.C,D3*
X44250000Y-106450000D02*
X50150000Y-106450000D01*
X44250000Y-110350000D02*
X50150000Y-110350000D01*
X50150000Y-110350000D02*
X50150000Y-109275000D01*
G04 #@! TO.C,TP5*
X36800000Y-87400000D02*
G75*
G02*
X34400000Y-87400000I-1200000J0D01*
G01*
X34400000Y-87400000D02*
G75*
G02*
X36800000Y-87400000I1200000J0D01*
G01*
G04 #@! TO.C,J4*
X80370000Y-67040000D02*
X81750000Y-67040000D01*
X80370000Y-68420000D02*
X80370000Y-67040000D01*
X80370000Y-69690000D02*
X80370000Y-105360000D01*
X80370000Y-69690000D02*
X83130000Y-69690000D01*
X80370000Y-105360000D02*
X83130000Y-105360000D01*
X83130000Y-69690000D02*
X83130000Y-105360000D01*
G04 #@! TO.C,D5*
X28300000Y-106425000D02*
X34200000Y-106425000D01*
X28300000Y-110325000D02*
X34200000Y-110325000D01*
X34200000Y-110325000D02*
X34200000Y-109250000D01*
G04 #@! TO.C,TP13*
X94850000Y-85200000D02*
G75*
G02*
X92450000Y-85200000I-1200000J0D01*
G01*
X92450000Y-85200000D02*
G75*
G02*
X94850000Y-85200000I1200000J0D01*
G01*
G04 #@! TO.C,TP18*
X73425000Y-88950000D02*
G75*
G02*
X71025000Y-88950000I-1200000J0D01*
G01*
X71025000Y-88950000D02*
G75*
G02*
X73425000Y-88950000I1200000J0D01*
G01*
G04 #@! TO.C,TP16*
X68700000Y-106950000D02*
G75*
G02*
X66300000Y-106950000I-1200000J0D01*
G01*
X66300000Y-106950000D02*
G75*
G02*
X68700000Y-106950000I1200000J0D01*
G01*
D13*
G04 #@! TO.C,H5*
X2214800Y-98732741D02*
X2214800Y-107867261D01*
X2214800Y-107867261D02*
X2215213Y-107883600D01*
X2215191Y-98716992D02*
X2214800Y-98732741D01*
X2215213Y-107883600D02*
X2216439Y-107899725D01*
X2216355Y-98701350D02*
X2215191Y-98716992D01*
X2216439Y-107899725D02*
X2218459Y-107915616D01*
X2218282Y-98685841D02*
X2216355Y-98701350D01*
X2218459Y-107915616D02*
X2221251Y-107931252D01*
X2220961Y-98670492D02*
X2218282Y-98685841D01*
X2221251Y-107931252D02*
X2224796Y-107946614D01*
X2224381Y-98655327D02*
X2220961Y-98670492D01*
X2224796Y-107946614D02*
X2229075Y-107961681D01*
X2228532Y-98640373D02*
X2224381Y-98655327D01*
X2229075Y-107961681D02*
X2234067Y-107976434D01*
X2233402Y-98625657D02*
X2228532Y-98640373D01*
X2234067Y-107976434D02*
X2239752Y-107990853D01*
X2238981Y-98611204D02*
X2233402Y-98625657D01*
X2239752Y-107990853D02*
X2246111Y-108004918D01*
X2245259Y-98597040D02*
X2238981Y-98611204D01*
X2246111Y-108004918D02*
X2253123Y-108018609D01*
X2252224Y-98583191D02*
X2245259Y-98597040D01*
X2253123Y-108018609D02*
X2260768Y-108031906D01*
X2259865Y-98569683D02*
X2252224Y-98583191D01*
X2260768Y-108031906D02*
X2269027Y-108044789D01*
X2268172Y-98556543D02*
X2259865Y-98569683D01*
X2269027Y-108044789D02*
X2277880Y-108057238D01*
X2277134Y-98543797D02*
X2268172Y-98556543D01*
X2277880Y-108057238D02*
X2287306Y-108069232D01*
X2286740Y-98531470D02*
X2277134Y-98543797D01*
X2287306Y-108069232D02*
X2297286Y-108080754D01*
X2296980Y-98519588D02*
X2286740Y-98531470D01*
X2297286Y-108080754D02*
X2307799Y-108091781D01*
X2307799Y-108091781D02*
X2318827Y-108102294D01*
X2307842Y-98508178D02*
X2296980Y-98519588D01*
X2318827Y-108102294D02*
X2330348Y-108112274D01*
X2319256Y-98497320D02*
X2307842Y-98508178D01*
X2330348Y-108112274D02*
X2342343Y-108121700D01*
X2331142Y-98487085D02*
X2319256Y-98497320D01*
X2342343Y-108121700D02*
X2354791Y-108130553D01*
X2343472Y-98477484D02*
X2331142Y-98487085D01*
X2354791Y-108130553D02*
X2367674Y-108138812D01*
X2356222Y-98468526D02*
X2343472Y-98477484D01*
X2367674Y-108138812D02*
X2380971Y-108146457D01*
X2369365Y-98460224D02*
X2356222Y-98468526D01*
X2380971Y-108146457D02*
X2394662Y-108153469D01*
X2382876Y-98452588D02*
X2369365Y-98460224D01*
X2394662Y-108153469D02*
X2408727Y-108159828D01*
X2396727Y-98445628D02*
X2382876Y-98452588D01*
X2408727Y-108159828D02*
X2423146Y-108165513D01*
X2410894Y-98439356D02*
X2396727Y-98445628D01*
X2423146Y-108165513D02*
X2437899Y-108170505D01*
X2425349Y-98433782D02*
X2410894Y-98439356D01*
X2437899Y-108170505D02*
X2452967Y-108174784D01*
X2440067Y-98428917D02*
X2425349Y-98433782D01*
X2452967Y-108174784D02*
X2468328Y-108178329D01*
X2455022Y-98424772D02*
X2440067Y-98428917D01*
X2468328Y-108178329D02*
X2483965Y-108181122D01*
X2470188Y-98421358D02*
X2455022Y-98424772D01*
X2483965Y-108181122D02*
X2499855Y-108183141D01*
X2485539Y-98418685D02*
X2470188Y-98421358D01*
X2499855Y-108183141D02*
X2515980Y-108184367D01*
X2501049Y-98416763D02*
X2485539Y-98418685D01*
X2515980Y-108184367D02*
X2532320Y-108184780D01*
X2516691Y-98415605D02*
X2501049Y-98416763D01*
X2532320Y-108184780D02*
X11666840Y-108184780D01*
X2532440Y-98415221D02*
X2516691Y-98415605D01*
X11666840Y-98415221D02*
X2532440Y-98415221D01*
X11666840Y-108184780D02*
X11683179Y-108184367D01*
X11682585Y-98415611D02*
X11666840Y-98415221D01*
X11683179Y-108184367D02*
X11699304Y-108183141D01*
X11698223Y-98416775D02*
X11682585Y-98415611D01*
X11699304Y-108183141D02*
X11715195Y-108181122D01*
X11713728Y-98418701D02*
X11698223Y-98416775D01*
X11715195Y-108181122D02*
X11730831Y-108178329D01*
X11729074Y-98421378D02*
X11713728Y-98418701D01*
X11730831Y-108178329D02*
X11746193Y-108174784D01*
X11744235Y-98424797D02*
X11729074Y-98421378D01*
X11746193Y-108174784D02*
X11761260Y-108170505D01*
X11759186Y-98428946D02*
X11744235Y-98424797D01*
X11761260Y-108170505D02*
X11776013Y-108165513D01*
X11773899Y-98433814D02*
X11759186Y-98428946D01*
X11776013Y-108165513D02*
X11790433Y-108159828D01*
X11788349Y-98439391D02*
X11773899Y-98433814D01*
X11790433Y-108159828D02*
X11804497Y-108153469D01*
X11802510Y-98445665D02*
X11788349Y-98439391D01*
X11804497Y-108153469D02*
X11818188Y-108146457D01*
X11816357Y-98452627D02*
X11802510Y-98445665D01*
X11818188Y-108146457D02*
X11831485Y-108138812D01*
X11829862Y-98460264D02*
X11816357Y-98452627D01*
X11831485Y-108138812D02*
X11844368Y-108130553D01*
X11843000Y-98468568D02*
X11829862Y-98460264D01*
X11844368Y-108130553D02*
X11856817Y-108121701D01*
X11855744Y-98477526D02*
X11843000Y-98468568D01*
X11856817Y-108121701D02*
X11868812Y-108112274D01*
X11868070Y-98487128D02*
X11855744Y-98477526D01*
X11868812Y-108112274D02*
X11880333Y-108102295D01*
X11879951Y-98497363D02*
X11868070Y-98487128D01*
X11880333Y-108102295D02*
X11891360Y-108091781D01*
X11891360Y-98508220D02*
X11879951Y-98497363D01*
X11891360Y-108091781D02*
X11901873Y-108080754D01*
X11901873Y-108080754D02*
X11911853Y-108069233D01*
X11902217Y-98519629D02*
X11891360Y-98508220D01*
X11911853Y-108069233D02*
X11921279Y-108057238D01*
X11912452Y-98531510D02*
X11902217Y-98519629D01*
X11921279Y-108057238D02*
X11930132Y-108044789D01*
X11922054Y-98543836D02*
X11912452Y-98531510D01*
X11930132Y-108044789D02*
X11938391Y-108031907D01*
X11931012Y-98556580D02*
X11922054Y-98543836D01*
X11938391Y-108031907D02*
X11946036Y-108018610D01*
X11939316Y-98569718D02*
X11931012Y-98556580D01*
X11946036Y-108018610D02*
X11953048Y-108004919D01*
X11946954Y-98583224D02*
X11939316Y-98569718D01*
X11953048Y-108004919D02*
X11959407Y-107990854D01*
X11953915Y-98597070D02*
X11946954Y-98583224D01*
X11959407Y-107990854D02*
X11965092Y-107976435D01*
X11960190Y-98611231D02*
X11953915Y-98597070D01*
X11965092Y-107976435D02*
X11970084Y-107961682D01*
X11965767Y-98625681D02*
X11960190Y-98611231D01*
X11970084Y-107961682D02*
X11974363Y-107946615D01*
X11970635Y-98640395D02*
X11965767Y-98625681D01*
X11974363Y-107946615D02*
X11977908Y-107931253D01*
X11974784Y-98655345D02*
X11970635Y-98640395D01*
X11977908Y-107931253D02*
X11980701Y-107915617D01*
X11978202Y-98670506D02*
X11974784Y-98655345D01*
X11980701Y-107915617D02*
X11982720Y-107899726D01*
X11980880Y-98685853D02*
X11978202Y-98670506D01*
X11982720Y-107899726D02*
X11983946Y-107883601D01*
X11982806Y-98701358D02*
X11980880Y-98685853D01*
X11983946Y-107883601D02*
X11984359Y-107867262D01*
X11983970Y-98716996D02*
X11982806Y-98701358D01*
X11984359Y-107867262D02*
X11984360Y-98732741D01*
X11984360Y-98732741D02*
X11983970Y-98716996D01*
D14*
G36*
X2215281Y-100672301D02*
G01*
X654681Y-100672301D01*
X654681Y-100037261D01*
X2215281Y-100037141D01*
X2215281Y-100672301D01*
G37*
G36*
X2215281Y-102144941D02*
G01*
X654681Y-102144941D01*
X654681Y-101509901D01*
X2215281Y-101509901D01*
X2215281Y-102144941D01*
G37*
G36*
X2215281Y-102982541D02*
G01*
X2215281Y-103617580D01*
X654681Y-103617580D01*
X654681Y-102982540D01*
X2215281Y-102982541D01*
G37*
G36*
X2215281Y-105090220D02*
G01*
X654681Y-105090220D01*
X654681Y-104455180D01*
X2215281Y-104455180D01*
X2215281Y-105090220D01*
G37*
G36*
X2215281Y-106562860D02*
G01*
X654681Y-106562860D01*
X654681Y-105927820D01*
X2215281Y-105927820D01*
X2215281Y-106562860D01*
G37*
G36*
X4472001Y-98415221D02*
G01*
X3836961Y-98415221D01*
X3836961Y-96854621D01*
X4472001Y-96854621D01*
X4472001Y-98415221D01*
G37*
G36*
X4472361Y-109745380D02*
G01*
X3837321Y-109745380D01*
X3837321Y-108184780D01*
X4472361Y-108184780D01*
X4472361Y-109745380D01*
G37*
G36*
X5944640Y-98415221D02*
G01*
X5309600Y-98415221D01*
X5309600Y-96854621D01*
X5944640Y-96854621D01*
X5944640Y-98415221D01*
G37*
G36*
X5945001Y-109745380D02*
G01*
X5309961Y-109745380D01*
X5309961Y-108184780D01*
X5945001Y-108184780D01*
X5945001Y-109745380D01*
G37*
G36*
X7417280Y-98415221D02*
G01*
X6782240Y-98415221D01*
X6782240Y-96854621D01*
X7417280Y-96854621D01*
X7417280Y-98415221D01*
G37*
G36*
X7417640Y-109745380D02*
G01*
X6782601Y-109745380D01*
X6782601Y-108184780D01*
X7417640Y-108184780D01*
X7417640Y-109745380D01*
G37*
G36*
X8889920Y-98415221D02*
G01*
X8254880Y-98415221D01*
X8254880Y-96854621D01*
X8889920Y-96854621D01*
X8889920Y-98415221D01*
G37*
G36*
X8890281Y-109745380D02*
G01*
X8255241Y-109745380D01*
X8255241Y-108184780D01*
X8890281Y-108184780D01*
X8890281Y-109745380D01*
G37*
G36*
X10362560Y-98415221D02*
G01*
X9727520Y-98415221D01*
X9727520Y-96854621D01*
X10362560Y-96854621D01*
X10362560Y-98415221D01*
G37*
G36*
X10362921Y-109745380D02*
G01*
X9727881Y-109745380D01*
X9727881Y-108184780D01*
X10362921Y-108184780D01*
X10362921Y-109745380D01*
G37*
G36*
X13545320Y-100672301D02*
G01*
X11984720Y-100672301D01*
X11984720Y-100037261D01*
X13545320Y-100037141D01*
X13545320Y-100672301D01*
G37*
G36*
X13545320Y-102144941D02*
G01*
X11984720Y-102144941D01*
X11984720Y-101509901D01*
X13545320Y-101509901D01*
X13545320Y-102144941D01*
G37*
G36*
X13545320Y-103617580D02*
G01*
X11984720Y-103617580D01*
X11984720Y-102982540D01*
X13545320Y-102982540D01*
X13545320Y-103617580D01*
G37*
G36*
X13545320Y-105090220D02*
G01*
X11984720Y-105090220D01*
X11984720Y-104455180D01*
X13545320Y-104455180D01*
X13545320Y-105090220D01*
G37*
G36*
X13545320Y-106562860D02*
G01*
X11984720Y-106562860D01*
X11984720Y-105927820D01*
X13545320Y-105927820D01*
X13545320Y-106562860D01*
G37*
D12*
G04 #@! TO.C,TP15*
X55175000Y-99900000D02*
G75*
G02*
X52775000Y-99900000I-1200000J0D01*
G01*
X52775000Y-99900000D02*
G75*
G02*
X55175000Y-99900000I1200000J0D01*
G01*
G04 #@! TO.C,TP21*
X10150000Y-76550000D02*
G75*
G02*
X7750000Y-76550000I-1200000J0D01*
G01*
X7750000Y-76550000D02*
G75*
G02*
X10150000Y-76550000I1200000J0D01*
G01*
G04 #@! TO.C,TP11*
X52000000Y-98750000D02*
G75*
G02*
X49600000Y-98750000I-1200000J0D01*
G01*
X49600000Y-98750000D02*
G75*
G02*
X52000000Y-98750000I1200000J0D01*
G01*
G04 #@! TO.C,TP10*
X59550000Y-54350000D02*
G75*
G02*
X57150000Y-54350000I-1200000J0D01*
G01*
X57150000Y-54350000D02*
G75*
G02*
X59550000Y-54350000I1200000J0D01*
G01*
G04 #@! TO.C,TP4*
X47550000Y-67200000D02*
G75*
G02*
X45150000Y-67200000I-1200000J0D01*
G01*
X45150000Y-67200000D02*
G75*
G02*
X47550000Y-67200000I1200000J0D01*
G01*
G04 #@! TO.C,TP7*
X36250000Y-76200000D02*
G75*
G02*
X33850000Y-76200000I-1200000J0D01*
G01*
X33850000Y-76200000D02*
G75*
G02*
X36250000Y-76200000I1200000J0D01*
G01*
G04 #@! TO.C,TP6*
X39950000Y-89350000D02*
G75*
G02*
X37550000Y-89350000I-1200000J0D01*
G01*
X37550000Y-89350000D02*
G75*
G02*
X39950000Y-89350000I1200000J0D01*
G01*
G04 #@! TO.C,TP17*
X9750000Y-62000000D02*
G75*
G02*
X7350000Y-62000000I-1200000J0D01*
G01*
X7350000Y-62000000D02*
G75*
G02*
X9750000Y-62000000I1200000J0D01*
G01*
G04 #@! TO.C,TP3*
X52850000Y-70200000D02*
G75*
G02*
X50450000Y-70200000I-1200000J0D01*
G01*
X50450000Y-70200000D02*
G75*
G02*
X52850000Y-70200000I1200000J0D01*
G01*
G04 #@! TO.C,TP12*
X55250000Y-65950000D02*
G75*
G02*
X52850000Y-65950000I-1200000J0D01*
G01*
X52850000Y-65950000D02*
G75*
G02*
X55250000Y-65950000I1200000J0D01*
G01*
G04 #@! TO.C,TP14*
X23250000Y-93850000D02*
G75*
G02*
X20850000Y-93850000I-1200000J0D01*
G01*
X20850000Y-93850000D02*
G75*
G02*
X23250000Y-93850000I1200000J0D01*
G01*
G04 #@! TO.C,B1*
X84645000Y-86470000D02*
X84645000Y-92930000D01*
X84645000Y-86470000D02*
X84675000Y-86470000D01*
X84645000Y-92930000D02*
X84675000Y-92930000D01*
X89175000Y-86470000D02*
X86575000Y-86470000D01*
X89175000Y-92930000D02*
X86575000Y-92930000D01*
X91075000Y-86470000D02*
X91105000Y-86470000D01*
X91105000Y-86470000D02*
X91105000Y-92930000D01*
X91105000Y-92930000D02*
X91075000Y-92930000D01*
G04 #@! TO.C,D1*
X60175000Y-106450000D02*
X66075000Y-106450000D01*
X60175000Y-110350000D02*
X66075000Y-110350000D01*
X66075000Y-110350000D02*
X66075000Y-109275000D01*
G04 #@! TO.C,TP19*
X88950000Y-62400000D02*
G75*
G02*
X86550000Y-62400000I-1200000J0D01*
G01*
X86550000Y-62400000D02*
G75*
G02*
X88950000Y-62400000I1200000J0D01*
G01*
G04 #@! TO.C,TP20*
X12550000Y-74650000D02*
G75*
G02*
X10150000Y-74650000I-1200000J0D01*
G01*
X10150000Y-74650000D02*
G75*
G02*
X12550000Y-74650000I1200000J0D01*
G01*
G04 #@! TO.C,TP8*
X31900000Y-86000000D02*
G75*
G02*
X29500000Y-86000000I-1200000J0D01*
G01*
X29500000Y-86000000D02*
G75*
G02*
X31900000Y-86000000I1200000J0D01*
G01*
G04 #@! TO.C,TP2*
X21450000Y-54900000D02*
G75*
G02*
X19050000Y-54900000I-1200000J0D01*
G01*
X19050000Y-54900000D02*
G75*
G02*
X21450000Y-54900000I1200000J0D01*
G01*
G04 #@! TO.C,TP9*
X46850000Y-98950000D02*
G75*
G02*
X44450000Y-98950000I-1200000J0D01*
G01*
X44450000Y-98950000D02*
G75*
G02*
X46850000Y-98950000I1200000J0D01*
G01*
G04 #@! TO.C,D4*
X36300000Y-106425000D02*
X42200000Y-106425000D01*
X36300000Y-110325000D02*
X42200000Y-110325000D01*
X42200000Y-110325000D02*
X42200000Y-109250000D01*
G04 #@! TO.C,TP23*
X27800000Y-89900000D02*
G75*
G02*
X25400000Y-89900000I-1200000J0D01*
G01*
X25400000Y-89900000D02*
G75*
G02*
X27800000Y-89900000I1200000J0D01*
G01*
G04 #@! TO.C,D2*
X52225000Y-106400000D02*
X58125000Y-106400000D01*
X52225000Y-110300000D02*
X58125000Y-110300000D01*
X58125000Y-110300000D02*
X58125000Y-109225000D01*
G04 #@! TO.C,SELECT1*
X5270000Y-52520000D02*
X11730000Y-52520000D01*
X5270000Y-52550000D02*
X5270000Y-52520000D01*
X5270000Y-54450000D02*
X5270000Y-57050000D01*
X5270000Y-58980000D02*
X5270000Y-58950000D01*
X5270000Y-58980000D02*
X11730000Y-58980000D01*
X11730000Y-52520000D02*
X11730000Y-52550000D01*
X11730000Y-54450000D02*
X11730000Y-57050000D01*
X11730000Y-58980000D02*
X11730000Y-58950000D01*
G04 #@! TO.C,TP1*
X45625000Y-57500000D02*
G75*
G02*
X43225000Y-57500000I-1200000J0D01*
G01*
X43225000Y-57500000D02*
G75*
G02*
X45625000Y-57500000I1200000J0D01*
G01*
D15*
G04 #@! TO.C,J5*
X70435050Y-60642050D02*
G75*
G02*
X69673050Y-60642050I-381000J0D01*
G01*
X69673050Y-60642050D02*
G75*
G02*
X70435050Y-60642050I381000J0D01*
G01*
G04 #@! TD*
%LPC*%
D14*
G04 #@! TO.C,H5*
G36*
X8651857Y-99777669D02*
G01*
X8668231Y-99779272D01*
X8684272Y-99781921D01*
X8699949Y-99785575D01*
X8715232Y-99790196D01*
X8730090Y-99795745D01*
X8744493Y-99802183D01*
X8758411Y-99809471D01*
X8771813Y-99817569D01*
X8784670Y-99826439D01*
X8796950Y-99836041D01*
X8808624Y-99846337D01*
X8819661Y-99857287D01*
X8830030Y-99868853D01*
X8839703Y-99880996D01*
X8848647Y-99893676D01*
X8856834Y-99906854D01*
X8864232Y-99920491D01*
X8870811Y-99934549D01*
X8876541Y-99948988D01*
X8881392Y-99963770D01*
X8885334Y-99978854D01*
X8888335Y-99994203D01*
X8890366Y-100009776D01*
X8891396Y-100025536D01*
X8891396Y-100041443D01*
X8890334Y-100057457D01*
X8888181Y-100073541D01*
X8884906Y-100089654D01*
X8880478Y-100105759D01*
X8874869Y-100121815D01*
X7570572Y-102661971D01*
X9356931Y-102661971D01*
X9421627Y-102663696D01*
X9486605Y-102663246D01*
X9616844Y-102660291D01*
X9681820Y-102660020D01*
X9714211Y-102660675D01*
X9746513Y-102662043D01*
X9778708Y-102664264D01*
X9810779Y-102667478D01*
X9842708Y-102671823D01*
X9874478Y-102677440D01*
X9889938Y-102682913D01*
X9904743Y-102689406D01*
X9918881Y-102696867D01*
X9932337Y-102705240D01*
X9945098Y-102714473D01*
X9957149Y-102724510D01*
X9968478Y-102735299D01*
X9979071Y-102746784D01*
X9988913Y-102758912D01*
X9997992Y-102771630D01*
X10006293Y-102784882D01*
X10013802Y-102798616D01*
X10020506Y-102812776D01*
X10026392Y-102827310D01*
X10031445Y-102842162D01*
X10035652Y-102857280D01*
X10038998Y-102872609D01*
X10041471Y-102888095D01*
X10043057Y-102903683D01*
X10043741Y-102919322D01*
X10043511Y-102934955D01*
X10042352Y-102950529D01*
X10040250Y-102965990D01*
X10037193Y-102981285D01*
X10033165Y-102996359D01*
X10028154Y-103011158D01*
X10022146Y-103025628D01*
X10015127Y-103039715D01*
X10007083Y-103053366D01*
X9998001Y-103066525D01*
X9987867Y-103079140D01*
X9976666Y-103091156D01*
X5933278Y-106585940D01*
X5910641Y-106603212D01*
X5888405Y-106621790D01*
X5866440Y-106641330D01*
X5844615Y-106661491D01*
X5800866Y-106702301D01*
X5778682Y-106722266D01*
X5756118Y-106741482D01*
X5733043Y-106759605D01*
X5709329Y-106776293D01*
X5684843Y-106791203D01*
X5672271Y-106797885D01*
X5659458Y-106803994D01*
X5646386Y-106809487D01*
X5633041Y-106814322D01*
X5619406Y-106818455D01*
X5605464Y-106821845D01*
X5591199Y-106824448D01*
X5576595Y-106826221D01*
X5561636Y-106827121D01*
X5546306Y-106827106D01*
X5530070Y-106826409D01*
X5514158Y-106824567D01*
X5498597Y-106821625D01*
X5483416Y-106817631D01*
X5468642Y-106812630D01*
X5454303Y-106806668D01*
X5440427Y-106799792D01*
X5427042Y-106792047D01*
X5414177Y-106783480D01*
X5401858Y-106774136D01*
X5390114Y-106764062D01*
X5378973Y-106753304D01*
X5368462Y-106741907D01*
X5358611Y-106729919D01*
X5349445Y-106717384D01*
X5340994Y-106704350D01*
X5333286Y-106690861D01*
X5326347Y-106676965D01*
X5320207Y-106662708D01*
X5314894Y-106648134D01*
X5310434Y-106633291D01*
X5306856Y-106618225D01*
X5304188Y-106602981D01*
X5302458Y-106587606D01*
X5301693Y-106572146D01*
X5301923Y-106556647D01*
X5303174Y-106541154D01*
X5305474Y-106525715D01*
X5308852Y-106510374D01*
X5313335Y-106495179D01*
X5318952Y-106480175D01*
X5325729Y-106465409D01*
X6621823Y-103943299D01*
X4751229Y-103943299D01*
X4723116Y-103941868D01*
X4694845Y-103941283D01*
X4637960Y-103941925D01*
X4523721Y-103945365D01*
X4495252Y-103945615D01*
X4466884Y-103945256D01*
X4438648Y-103944109D01*
X4410578Y-103941990D01*
X4382706Y-103938718D01*
X4355063Y-103934111D01*
X4327683Y-103927989D01*
X4300597Y-103920168D01*
X4285598Y-103913610D01*
X4271333Y-103906091D01*
X4257812Y-103897664D01*
X4245044Y-103888385D01*
X4233037Y-103878307D01*
X4221800Y-103867484D01*
X4211341Y-103855969D01*
X4201671Y-103843818D01*
X4192796Y-103831084D01*
X4184726Y-103817820D01*
X4177471Y-103804082D01*
X4171038Y-103789923D01*
X4165436Y-103775396D01*
X4160674Y-103760557D01*
X4156761Y-103745459D01*
X4153706Y-103730156D01*
X4151518Y-103714702D01*
X4150204Y-103699150D01*
X4149775Y-103683556D01*
X4150238Y-103667974D01*
X4151602Y-103652456D01*
X4153877Y-103637057D01*
X4157071Y-103621831D01*
X4161193Y-103606833D01*
X4166251Y-103592116D01*
X4172255Y-103577733D01*
X4179213Y-103563740D01*
X4187133Y-103550190D01*
X4196025Y-103537138D01*
X4205898Y-103524636D01*
X4216760Y-103512740D01*
X4228619Y-103501503D01*
X8240719Y-100035019D01*
X8263469Y-100017815D01*
X8285696Y-99999445D01*
X8307537Y-99980192D01*
X8329127Y-99960337D01*
X8372100Y-99919950D01*
X8393756Y-99899982D01*
X8415705Y-99880539D01*
X8438085Y-99861904D01*
X8461032Y-99844358D01*
X8484681Y-99828185D01*
X8509168Y-99813664D01*
X8521769Y-99807112D01*
X8534631Y-99801079D01*
X8547770Y-99795600D01*
X8561204Y-99790710D01*
X8574950Y-99786446D01*
X8589025Y-99782841D01*
X8603445Y-99779932D01*
X8618229Y-99777753D01*
X8618228Y-99777753D01*
X8635179Y-99777149D01*
X8651857Y-99777669D01*
G37*
G04 #@! TD*
D16*
G04 #@! TO.C,TP22*
X6800000Y-78650000D03*
G04 #@! TD*
G04 #@! TO.C,TP29*
X85350000Y-79900000D03*
G04 #@! TD*
D17*
G04 #@! TO.C,START1*
X83775000Y-53600000D03*
X91725000Y-53600000D03*
X83775000Y-58100000D03*
X91725000Y-58100000D03*
G04 #@! TD*
D18*
G04 #@! TO.C,A1*
X89950000Y-82475000D03*
X89950000Y-74525000D03*
X94450000Y-82475000D03*
X94450000Y-74525000D03*
G04 #@! TD*
D16*
G04 #@! TO.C,TP24*
X78050000Y-75400000D03*
G04 #@! TD*
D19*
G04 #@! TO.C,D3*
X45450000Y-107525000D03*
X45450000Y-109275000D03*
X48950000Y-109275000D03*
X48950000Y-107525000D03*
G04 #@! TD*
D16*
G04 #@! TO.C,TP5*
X35600000Y-87400000D03*
G04 #@! TD*
D20*
G04 #@! TO.C,J4*
X81750000Y-68420000D03*
D21*
X81750000Y-70960000D03*
X81750000Y-73500000D03*
X81750000Y-76040000D03*
X81750000Y-78580000D03*
X81750000Y-81120000D03*
X81750000Y-83660000D03*
X81750000Y-86200000D03*
X81750000Y-88740000D03*
X81750000Y-91280000D03*
X81750000Y-93820000D03*
X81750000Y-96360000D03*
X81750000Y-98900000D03*
X81750000Y-101440000D03*
X81750000Y-103980000D03*
G04 #@! TD*
D19*
G04 #@! TO.C,D5*
X29500000Y-107500000D03*
X29500000Y-109250000D03*
X33000000Y-109250000D03*
X33000000Y-107500000D03*
G04 #@! TD*
D16*
G04 #@! TO.C,TP13*
X93650000Y-85200000D03*
G04 #@! TD*
G04 #@! TO.C,TP18*
X72225000Y-88950000D03*
G04 #@! TD*
G04 #@! TO.C,TP16*
X67500000Y-106950000D03*
G04 #@! TD*
G04 #@! TO.C,TP15*
X53975000Y-99900000D03*
G04 #@! TD*
G04 #@! TO.C,TP21*
X8950000Y-76550000D03*
G04 #@! TD*
G04 #@! TO.C,TP11*
X50800000Y-98750000D03*
G04 #@! TD*
G04 #@! TO.C,TP10*
X58350000Y-54350000D03*
G04 #@! TD*
G04 #@! TO.C,TP4*
X46350000Y-67200000D03*
G04 #@! TD*
G04 #@! TO.C,TP7*
X35050000Y-76200000D03*
G04 #@! TD*
G04 #@! TO.C,TP6*
X38750000Y-89350000D03*
G04 #@! TD*
G04 #@! TO.C,TP17*
X8550000Y-62000000D03*
G04 #@! TD*
G04 #@! TO.C,TP3*
X51650000Y-70200000D03*
G04 #@! TD*
G04 #@! TO.C,TP12*
X54050000Y-65950000D03*
G04 #@! TD*
G04 #@! TO.C,TP14*
X22050000Y-93850000D03*
G04 #@! TD*
D18*
G04 #@! TO.C,B1*
X90125000Y-85725000D03*
X90125000Y-93675000D03*
X85625000Y-85725000D03*
X85625000Y-93675000D03*
G04 #@! TD*
D19*
G04 #@! TO.C,D1*
X61375000Y-107525000D03*
X61375000Y-109275000D03*
X64875000Y-109275000D03*
X64875000Y-107525000D03*
G04 #@! TD*
D16*
G04 #@! TO.C,TP19*
X87750000Y-62400000D03*
G04 #@! TD*
G04 #@! TO.C,TP20*
X11350000Y-74650000D03*
G04 #@! TD*
G04 #@! TO.C,TP8*
X30700000Y-86000000D03*
G04 #@! TD*
G04 #@! TO.C,TP2*
X20250000Y-54900000D03*
G04 #@! TD*
G04 #@! TO.C,TP9*
X45650000Y-98950000D03*
G04 #@! TD*
D22*
G04 #@! TO.C,U3*
X8057181Y-85514645D03*
D23*
X17815254Y-78797130D03*
X9047130Y-87565254D03*
X22552870Y-83534746D03*
X13784746Y-92302870D03*
D22*
X15835355Y-93292819D03*
D24*
X14880761Y-78266800D03*
X12759441Y-80388120D03*
X10638120Y-82509441D03*
X23083200Y-86469239D03*
X20961880Y-88590559D03*
X18840559Y-90711880D03*
G04 #@! TD*
D19*
G04 #@! TO.C,D4*
X37500000Y-107500000D03*
X37500000Y-109250000D03*
X41000000Y-109250000D03*
X41000000Y-107500000D03*
G04 #@! TD*
D16*
G04 #@! TO.C,TP23*
X26600000Y-89900000D03*
G04 #@! TD*
D19*
G04 #@! TO.C,D2*
X53425000Y-107475000D03*
X53425000Y-109225000D03*
X56925000Y-109225000D03*
X56925000Y-107475000D03*
G04 #@! TD*
D17*
G04 #@! TO.C,SELECT1*
X4525000Y-53500000D03*
X12475000Y-53500000D03*
X4525000Y-58000000D03*
X12475000Y-58000000D03*
G04 #@! TD*
D16*
G04 #@! TO.C,TP1*
X44425000Y-57500000D03*
G04 #@! TD*
D25*
G04 #@! TO.C,BATT*
X27800000Y-82400000D03*
G04 #@! TD*
D26*
G04 #@! TO.C,U4*
X62125000Y-54250000D03*
G04 #@! TD*
D27*
G04 #@! TO.C,J2*
X39190000Y-79540000D03*
X40206000Y-84620000D03*
X38174000Y-84620000D03*
G04 #@! TD*
D25*
G04 #@! TO.C,BATT*
X3800000Y-82500000D03*
G04 #@! TD*
D28*
G04 #@! TO.C,SW3*
X48800000Y-55245000D03*
X51800000Y-55245000D03*
G04 #@! TD*
D29*
G04 #@! TO.C,J5*
X71734048Y-60002750D03*
X80374052Y-60002750D03*
D30*
X71734048Y-54642750D03*
X80374052Y-54642750D03*
G04 #@! TD*
%LPD*%
M02*
