G04 #@! TF.GenerationSoftware,KiCad,Pcbnew,9.0.5*
G04 #@! TF.CreationDate,2025-11-14T15:11:00-08:00*
G04 #@! TF.ProjectId,SYCL Badge 2024,5359434c-2042-4616-9467-652032303234,rev?*
G04 #@! TF.SameCoordinates,Original*
G04 #@! TF.FileFunction,Soldermask,Bot*
G04 #@! TF.FilePolarity,Negative*
%FSLAX46Y46*%
G04 Gerber Fmt 4.6, Leading zero omitted, Abs format (unit mm)*
G04 Created by KiCad (PCBNEW 9.0.5) date 2025-11-14 15:11:00*
%MOMM*%
%LPD*%
G01*
G04 APERTURE LIST*
G04 Aperture macros list*
%AMRoundRect*
0 Rectangle with rounded corners*
0 $1 Rounding radius*
0 $2 $3 $4 $5 $6 $7 $8 $9 X,Y pos of 4 corners*
0 Add a 4 corners polygon primitive as box body*
4,1,4,$2,$3,$4,$5,$6,$7,$8,$9,$2,$3,0*
0 Add four circle primitives for the rounded corners*
1,1,$1+$1,$2,$3*
1,1,$1+$1,$4,$5*
1,1,$1+$1,$6,$7*
1,1,$1+$1,$8,$9*
0 Add four rect primitives between the rounded corners*
20,1,$1+$1,$2,$3,$4,$5,0*
20,1,$1+$1,$4,$5,$6,$7,0*
20,1,$1+$1,$6,$7,$8,$9,0*
20,1,$1+$1,$8,$9,$2,$3,0*%
%AMRotRect*
0 Rectangle, with rotation*
0 The origin of the aperture is its center*
0 $1 length*
0 $2 width*
0 $3 Rotation angle, in degrees counterclockwise*
0 Add horizontal line*
21,1,$1,$2,0,0,$3*%
G04 Aperture macros list end*
%ADD10C,2.000000*%
%ADD11R,1.700000X1.700000*%
%ADD12C,1.700000*%
%ADD13C,1.000000*%
%ADD14RoundRect,0.225000X-0.375000X0.225000X-0.375000X-0.225000X0.375000X-0.225000X0.375000X0.225000X0*%
%ADD15RoundRect,0.250000X-0.475000X0.337500X-0.475000X-0.337500X0.475000X-0.337500X0.475000X0.337500X0*%
%ADD16RoundRect,0.237500X-0.035355X-0.371231X0.371231X0.035355X0.035355X0.371231X-0.371231X-0.035355X0*%
%ADD17RoundRect,0.237500X0.008839X0.344715X-0.344715X-0.008839X-0.008839X-0.344715X0.344715X0.008839X0*%
%ADD18RoundRect,0.250000X0.475000X-0.337500X0.475000X0.337500X-0.475000X0.337500X-0.475000X-0.337500X0*%
%ADD19RoundRect,0.237500X-0.237500X0.250000X-0.237500X-0.250000X0.237500X-0.250000X0.237500X0.250000X0*%
%ADD20RoundRect,0.250000X-0.097227X0.574524X-0.574524X0.097227X0.097227X-0.574524X0.574524X-0.097227X0*%
%ADD21RoundRect,0.250000X0.574524X0.097227X0.097227X0.574524X-0.574524X-0.097227X-0.097227X-0.574524X0*%
%ADD22RoundRect,0.237500X0.250000X0.237500X-0.250000X0.237500X-0.250000X-0.237500X0.250000X-0.237500X0*%
%ADD23RoundRect,0.250000X-0.574524X-0.097227X-0.097227X-0.574524X0.574524X0.097227X0.097227X0.574524X0*%
%ADD24RoundRect,0.237500X-0.250000X-0.237500X0.250000X-0.237500X0.250000X0.237500X-0.250000X0.237500X0*%
%ADD25RoundRect,0.150000X-0.150000X0.512500X-0.150000X-0.512500X0.150000X-0.512500X0.150000X0.512500X0*%
%ADD26RoundRect,0.050000X0.282843X-0.212132X-0.212132X0.282843X-0.282843X0.212132X0.212132X-0.282843X0*%
%ADD27RoundRect,0.050000X0.282843X0.212132X0.212132X0.282843X-0.282843X-0.212132X-0.212132X-0.282843X0*%
%ADD28RotRect,3.400000X3.400000X135.000000*%
%ADD29C,1.500000*%
%ADD30RoundRect,0.250000X0.337500X0.475000X-0.337500X0.475000X-0.337500X-0.475000X0.337500X-0.475000X0*%
%ADD31C,3.200000*%
%ADD32RoundRect,0.237500X-0.344715X0.008839X0.008839X-0.344715X0.344715X-0.008839X-0.008839X0.344715X0*%
%ADD33RoundRect,0.237500X0.237500X-0.250000X0.237500X0.250000X-0.237500X0.250000X-0.237500X-0.250000X0*%
%ADD34RoundRect,0.050800X-0.750000X-0.800000X0.750000X-0.800000X0.750000X0.800000X-0.750000X0.800000X0*%
%ADD35RoundRect,0.150000X0.512500X0.150000X-0.512500X0.150000X-0.512500X-0.150000X0.512500X-0.150000X0*%
%ADD36C,0.990600*%
%ADD37C,0.787400*%
%ADD38RoundRect,0.212500X0.777817X0.477297X0.477297X0.777817X-0.777817X-0.477297X-0.477297X-0.777817X0*%
%ADD39RoundRect,0.162500X0.698268X-0.468458X-0.468458X0.698268X-0.698268X0.468458X0.468458X-0.698268X0*%
%ADD40RoundRect,0.250000X0.097227X-0.574524X0.574524X-0.097227X-0.097227X0.574524X-0.574524X0.097227X0*%
%ADD41RoundRect,0.237500X0.344715X-0.008839X-0.008839X0.344715X-0.344715X0.008839X0.008839X-0.344715X0*%
%ADD42RoundRect,0.150000X0.150000X-0.587500X0.150000X0.587500X-0.150000X0.587500X-0.150000X-0.587500X0*%
%ADD43R,1.000000X0.800000*%
%ADD44C,0.900000*%
%ADD45R,0.700000X1.500000*%
%ADD46RoundRect,0.237500X-0.008839X-0.344715X0.344715X0.008839X0.008839X0.344715X-0.344715X-0.008839X0*%
%ADD47RoundRect,0.250000X-0.337500X-0.475000X0.337500X-0.475000X0.337500X0.475000X-0.337500X0.475000X0*%
%ADD48RoundRect,0.250000X1.025305X-0.106066X-0.106066X1.025305X-1.025305X0.106066X0.106066X-1.025305X0*%
%ADD49R,0.558800X1.498600*%
%ADD50R,0.330200X0.762000*%
%ADD51R,1.041400X0.762000*%
%ADD52O,1.168400X2.159000*%
%ADD53O,1.168400X2.667000*%
G04 APERTURE END LIST*
D10*
G04 #@! TO.C,TP22*
X6800000Y-78650000D03*
G04 #@! TD*
G04 #@! TO.C,TP29*
X85350000Y-79900000D03*
G04 #@! TD*
G04 #@! TO.C,TP24*
X78050000Y-75400000D03*
G04 #@! TD*
G04 #@! TO.C,TP5*
X35600000Y-87400000D03*
G04 #@! TD*
D11*
G04 #@! TO.C,J4*
X81750000Y-68420000D03*
D12*
X81750000Y-70960000D03*
X81750000Y-73500000D03*
X81750000Y-76040000D03*
X81750000Y-78580000D03*
X81750000Y-81120000D03*
X81750000Y-83660000D03*
X81750000Y-86200000D03*
X81750000Y-88740000D03*
X81750000Y-91280000D03*
X81750000Y-93820000D03*
X81750000Y-96360000D03*
X81750000Y-98900000D03*
X81750000Y-101440000D03*
X81750000Y-103980000D03*
G04 #@! TD*
D10*
G04 #@! TO.C,TP13*
X93650000Y-85200000D03*
G04 #@! TD*
G04 #@! TO.C,TP18*
X72225000Y-88950000D03*
G04 #@! TD*
G04 #@! TO.C,TP16*
X67500000Y-106950000D03*
G04 #@! TD*
G04 #@! TO.C,TP15*
X53975000Y-99900000D03*
G04 #@! TD*
G04 #@! TO.C,TP21*
X8950000Y-76550000D03*
G04 #@! TD*
G04 #@! TO.C,TP11*
X50800000Y-98750000D03*
G04 #@! TD*
G04 #@! TO.C,TP10*
X58350000Y-54350000D03*
G04 #@! TD*
G04 #@! TO.C,TP4*
X46350000Y-67200000D03*
G04 #@! TD*
G04 #@! TO.C,TP7*
X35050000Y-76200000D03*
G04 #@! TD*
G04 #@! TO.C,TP6*
X38750000Y-89350000D03*
G04 #@! TD*
G04 #@! TO.C,TP17*
X8550000Y-62000000D03*
G04 #@! TD*
G04 #@! TO.C,TP3*
X51650000Y-70200000D03*
G04 #@! TD*
G04 #@! TO.C,TP12*
X54050000Y-65950000D03*
G04 #@! TD*
G04 #@! TO.C,TP14*
X22050000Y-93850000D03*
G04 #@! TD*
G04 #@! TO.C,TP19*
X87750000Y-62400000D03*
G04 #@! TD*
G04 #@! TO.C,TP20*
X11350000Y-74650000D03*
G04 #@! TD*
G04 #@! TO.C,TP8*
X30700000Y-86000000D03*
G04 #@! TD*
G04 #@! TO.C,TP2*
X20250000Y-54900000D03*
G04 #@! TD*
G04 #@! TO.C,TP9*
X45650000Y-98950000D03*
G04 #@! TD*
D13*
G04 #@! TO.C,U3*
X8057181Y-85514645D03*
X15835355Y-93292819D03*
G04 #@! TD*
D10*
G04 #@! TO.C,TP23*
X26600000Y-89900000D03*
G04 #@! TD*
G04 #@! TO.C,TP1*
X44425000Y-57500000D03*
G04 #@! TD*
D14*
G04 #@! TO.C,D9*
X56100000Y-54150000D03*
X56100000Y-57450000D03*
G04 #@! TD*
D15*
G04 #@! TO.C,C8*
X42675000Y-79405000D03*
X42675000Y-81480000D03*
G04 #@! TD*
D16*
G04 #@! TO.C,D8*
X69854765Y-97754765D03*
X71092201Y-96517329D03*
G04 #@! TD*
D17*
G04 #@! TO.C,R9*
X40675000Y-69200000D03*
X39384530Y-70490470D03*
G04 #@! TD*
D18*
G04 #@! TO.C,C43*
X42625000Y-85480000D03*
X42625000Y-83405000D03*
G04 #@! TD*
D19*
G04 #@! TO.C,R6*
X94375000Y-80037500D03*
X94375000Y-81862500D03*
G04 #@! TD*
D20*
G04 #@! TO.C,C12*
X68033623Y-63216377D03*
X66566377Y-64683623D03*
G04 #@! TD*
G04 #@! TO.C,C7*
X69533623Y-64716377D03*
X68066377Y-66183623D03*
G04 #@! TD*
D21*
G04 #@! TO.C,C35*
X54833623Y-70233623D03*
X53366377Y-68766377D03*
G04 #@! TD*
D22*
G04 #@! TO.C,R20*
X85279050Y-57481751D03*
X83454050Y-57481751D03*
G04 #@! TD*
D19*
G04 #@! TO.C,R7*
X85575000Y-89887500D03*
X85575000Y-91712500D03*
G04 #@! TD*
D23*
G04 #@! TO.C,C36*
X67966377Y-86166377D03*
X69433623Y-87633623D03*
G04 #@! TD*
D22*
G04 #@! TO.C,R38*
X59087500Y-96200000D03*
X57262500Y-96200000D03*
G04 #@! TD*
D21*
G04 #@! TO.C,C39*
X46900000Y-78200000D03*
X45432754Y-76732754D03*
G04 #@! TD*
D24*
G04 #@! TO.C,R39*
X62112500Y-99250000D03*
X63937500Y-99250000D03*
G04 #@! TD*
D21*
G04 #@! TO.C,C33*
X51633623Y-73433623D03*
X50166377Y-71966377D03*
G04 #@! TD*
D24*
G04 #@! TO.C,R16*
X65700000Y-60350201D03*
X67525000Y-60350201D03*
G04 #@! TD*
D20*
G04 #@! TO.C,C38*
X52253355Y-92241037D03*
X50786109Y-93708283D03*
G04 #@! TD*
D25*
G04 #@! TO.C,U2*
X75100000Y-63100000D03*
X76049999Y-63100000D03*
X76999998Y-63100000D03*
X76999998Y-65375000D03*
X76049999Y-65375000D03*
X75100000Y-65375000D03*
G04 #@! TD*
D24*
G04 #@! TO.C,R13*
X59387500Y-56550000D03*
X61212500Y-56550000D03*
G04 #@! TD*
D26*
G04 #@! TO.C,IC2*
X64387184Y-82264859D03*
X64104342Y-82547702D03*
X63821499Y-82830544D03*
X63538656Y-83113387D03*
X63255813Y-83396230D03*
X62972971Y-83679072D03*
X62690128Y-83961915D03*
X62407285Y-84244758D03*
X62124443Y-84527600D03*
X61841600Y-84810443D03*
X61558757Y-85093286D03*
X61275914Y-85376129D03*
X60993072Y-85658971D03*
X60710229Y-85941814D03*
X60427386Y-86224657D03*
X60144544Y-86507499D03*
X59861701Y-86790342D03*
X59578858Y-87073185D03*
X59296016Y-87356028D03*
X59013173Y-87638870D03*
D27*
X57386827Y-87638870D03*
X57103984Y-87356028D03*
X56821142Y-87073185D03*
X56538299Y-86790342D03*
X56255456Y-86507499D03*
X55972614Y-86224657D03*
X55689771Y-85941814D03*
X55406928Y-85658971D03*
X55124086Y-85376129D03*
X54841243Y-85093286D03*
X54558400Y-84810443D03*
X54275557Y-84527600D03*
X53992715Y-84244758D03*
X53709872Y-83961915D03*
X53427029Y-83679072D03*
X53144187Y-83396230D03*
X52861344Y-83113387D03*
X52578501Y-82830544D03*
X52295658Y-82547702D03*
X52012816Y-82264859D03*
D26*
X52012816Y-80638513D03*
X52295658Y-80355670D03*
X52578501Y-80072828D03*
X52861344Y-79789985D03*
X53144187Y-79507142D03*
X53427029Y-79224300D03*
X53709872Y-78941457D03*
X53992715Y-78658614D03*
X54275557Y-78375772D03*
X54558400Y-78092929D03*
X54841243Y-77810086D03*
X55124086Y-77527243D03*
X55406928Y-77244401D03*
X55689771Y-76961558D03*
X55972614Y-76678715D03*
X56255456Y-76395873D03*
X56538299Y-76113030D03*
X56821142Y-75830187D03*
X57103984Y-75547344D03*
X57386827Y-75264502D03*
D27*
X59013173Y-75264502D03*
X59296016Y-75547344D03*
X59578858Y-75830187D03*
X59861701Y-76113030D03*
X60144544Y-76395873D03*
X60427386Y-76678715D03*
X60710229Y-76961558D03*
X60993072Y-77244401D03*
X61275914Y-77527243D03*
X61558757Y-77810086D03*
X61841600Y-78092929D03*
X62124443Y-78375772D03*
X62407285Y-78658614D03*
X62690128Y-78941457D03*
X62972971Y-79224300D03*
X63255813Y-79507142D03*
X63538656Y-79789985D03*
X63821499Y-80072828D03*
X64104342Y-80355670D03*
X64387184Y-80638513D03*
D28*
X58200000Y-81451686D03*
G04 #@! TD*
D29*
G04 #@! TO.C,B-*
X41775000Y-56400000D03*
G04 #@! TD*
D30*
G04 #@! TO.C,C48*
X46337500Y-65000000D03*
X44262500Y-65000000D03*
G04 #@! TD*
D15*
G04 #@! TO.C,C1*
X38300000Y-107262500D03*
X38300000Y-109337500D03*
G04 #@! TD*
D23*
G04 #@! TO.C,C4*
X74116377Y-72066377D03*
X75583623Y-73533623D03*
G04 #@! TD*
D31*
G04 #@! TO.C,BATT*
X27800000Y-82400000D03*
G04 #@! TD*
D19*
G04 #@! TO.C,R40*
X49200000Y-59787500D03*
X49200000Y-61612500D03*
G04 #@! TD*
D24*
G04 #@! TO.C,R35*
X40962500Y-77480000D03*
X42787500Y-77480000D03*
G04 #@! TD*
D32*
G04 #@! TO.C,R36*
X48174497Y-88729425D03*
X49464967Y-90019895D03*
G04 #@! TD*
D33*
G04 #@! TO.C,R37*
X79175000Y-94962500D03*
X79175000Y-93137500D03*
G04 #@! TD*
D29*
G04 #@! TO.C,U4*
X62125000Y-54250000D03*
D34*
X60325000Y-54250000D03*
X63925000Y-54250000D03*
G04 #@! TD*
D35*
G04 #@! TO.C,U10*
X46606250Y-59731250D03*
X46606250Y-60681250D03*
X46606250Y-61631250D03*
X44331250Y-61631250D03*
X44331250Y-59731250D03*
G04 #@! TD*
D19*
G04 #@! TO.C,R25*
X69675000Y-57437500D03*
X69675000Y-59262500D03*
G04 #@! TD*
D36*
G04 #@! TO.C,J2*
X39190000Y-79540000D03*
X40206000Y-84620000D03*
X38174000Y-84620000D03*
D37*
X39825000Y-80810000D03*
X38555000Y-80810000D03*
X39825000Y-82080000D03*
X38555000Y-82080000D03*
X39825000Y-83350000D03*
X38555000Y-83350000D03*
G04 #@! TD*
D23*
G04 #@! TO.C,C37*
X62407754Y-92632754D03*
X63875000Y-94100000D03*
G04 #@! TD*
D15*
G04 #@! TO.C,C3*
X49000000Y-107262500D03*
X49000000Y-109337500D03*
G04 #@! TD*
D33*
G04 #@! TO.C,R5*
X87775000Y-58250000D03*
X87775000Y-56425000D03*
G04 #@! TD*
D30*
G04 #@! TO.C,C47*
X53237500Y-60000000D03*
X51162500Y-60000000D03*
G04 #@! TD*
D38*
G04 #@! TO.C,L1*
X66216986Y-67716986D03*
X65050260Y-66550260D03*
G04 #@! TD*
D32*
G04 #@! TO.C,R18*
X64150000Y-89600000D03*
X65440470Y-90890470D03*
G04 #@! TD*
D29*
G04 #@! TO.C,B+*
X38575000Y-56400000D03*
G04 #@! TD*
D18*
G04 #@! TO.C,C13*
X69700000Y-55737500D03*
X69700000Y-53662500D03*
G04 #@! TD*
D39*
G04 #@! TO.C,U1*
X76341322Y-77547245D03*
X75443296Y-78445271D03*
X74545271Y-79343296D03*
X73647245Y-80241322D03*
X70058678Y-76652755D03*
X70956704Y-75754729D03*
X71854729Y-74856704D03*
X72752755Y-73958678D03*
G04 #@! TD*
D40*
G04 #@! TO.C,C34*
X69366377Y-73033623D03*
X70833623Y-71566377D03*
G04 #@! TD*
D21*
G04 #@! TO.C,C32*
X47053355Y-87308283D03*
X45586109Y-85841037D03*
G04 #@! TD*
D24*
G04 #@! TO.C,R4*
X37787500Y-59900000D03*
X39612500Y-59900000D03*
G04 #@! TD*
D15*
G04 #@! TO.C,C2*
X42400000Y-107250000D03*
X42400000Y-109325000D03*
G04 #@! TD*
D17*
G04 #@! TO.C,R32*
X61678858Y-64688388D03*
X60388388Y-65978858D03*
G04 #@! TD*
D41*
G04 #@! TO.C,R12*
X41265470Y-96420470D03*
X39975000Y-95130000D03*
G04 #@! TD*
D17*
G04 #@! TO.C,R33*
X69590470Y-70159530D03*
X68300000Y-71450000D03*
G04 #@! TD*
D21*
G04 #@! TO.C,C29*
X64567246Y-69667246D03*
X63100000Y-68200000D03*
G04 #@! TD*
D31*
G04 #@! TO.C,BATT*
X3800000Y-82500000D03*
G04 #@! TD*
D22*
G04 #@! TO.C,R22*
X85316550Y-60481751D03*
X83491550Y-60481751D03*
G04 #@! TD*
D40*
G04 #@! TO.C,C45*
X42024587Y-90672101D03*
X43491833Y-89204855D03*
G04 #@! TD*
D33*
G04 #@! TO.C,R34*
X45375000Y-83242500D03*
X45375000Y-81417500D03*
G04 #@! TD*
D23*
G04 #@! TO.C,C31*
X65700000Y-88400000D03*
X67167246Y-89867246D03*
G04 #@! TD*
D32*
G04 #@! TO.C,R24*
X68509530Y-93909530D03*
X69800000Y-95200000D03*
G04 #@! TD*
D17*
G04 #@! TO.C,R8*
X39525000Y-68000000D03*
X38234530Y-69290470D03*
G04 #@! TD*
D41*
G04 #@! TO.C,R11*
X39315470Y-98490470D03*
X38025000Y-97200000D03*
G04 #@! TD*
D21*
G04 #@! TO.C,C40*
X50133623Y-74933623D03*
X48666377Y-73466377D03*
G04 #@! TD*
D15*
G04 #@! TO.C,C5*
X56950000Y-107300000D03*
X56950000Y-109375000D03*
G04 #@! TD*
D20*
G04 #@! TO.C,C44*
X49453355Y-94992723D03*
X47986109Y-96459969D03*
G04 #@! TD*
D42*
G04 #@! TO.C,Q4*
X57050000Y-61237500D03*
X55150000Y-61237500D03*
X56100000Y-59362500D03*
G04 #@! TD*
D15*
G04 #@! TO.C,C6*
X64900000Y-107262500D03*
X64900000Y-109337500D03*
G04 #@! TD*
D43*
G04 #@! TO.C,SW3*
X46650000Y-54145000D03*
X46650000Y-56355000D03*
D44*
X48800000Y-55245000D03*
X51800000Y-55245000D03*
D43*
X53950000Y-54145000D03*
X53950000Y-56355000D03*
D45*
X48050000Y-57005000D03*
X51050000Y-57005000D03*
X52550000Y-57005000D03*
G04 #@! TD*
D22*
G04 #@! TO.C,R41*
X46012500Y-63200000D03*
X44187500Y-63200000D03*
G04 #@! TD*
D46*
G04 #@! TO.C,R1*
X75934530Y-82740470D03*
X77225000Y-81450000D03*
G04 #@! TD*
D47*
G04 #@! TO.C,C9*
X63612500Y-62250000D03*
X65687500Y-62250000D03*
G04 #@! TD*
D17*
G04 #@! TO.C,R31*
X68445235Y-69054765D03*
X67154765Y-70345235D03*
G04 #@! TD*
D48*
G04 #@! TO.C,Y1*
X45870342Y-94576956D03*
X43819732Y-92526346D03*
X45446078Y-90900000D03*
X47496688Y-92950610D03*
G04 #@! TD*
D22*
G04 #@! TO.C,R42*
X57012500Y-63100000D03*
X55187500Y-63100000D03*
G04 #@! TD*
G04 #@! TO.C,R43*
X53112500Y-63100000D03*
X51287500Y-63100000D03*
G04 #@! TD*
D23*
G04 #@! TO.C,C46*
X60841377Y-94216377D03*
X62308623Y-95683623D03*
G04 #@! TD*
D49*
G04 #@! TO.C,U8*
X60180000Y-103705100D03*
X58910000Y-103705100D03*
X57640000Y-103705100D03*
X56370000Y-103705100D03*
X56370000Y-98294900D03*
X57640000Y-98294900D03*
X58910000Y-98294900D03*
X60180000Y-98294900D03*
G04 #@! TD*
D23*
G04 #@! TO.C,C41*
X70766377Y-82666377D03*
X72233623Y-84133623D03*
G04 #@! TD*
D47*
G04 #@! TO.C,C25*
X59075000Y-58400000D03*
X61150000Y-58400000D03*
G04 #@! TD*
D50*
G04 #@! TO.C,J5*
X73054050Y-60381751D03*
X73554049Y-60381751D03*
X74054051Y-60381751D03*
X74554050Y-60381751D03*
X75054049Y-60381751D03*
X75554050Y-60381751D03*
X76554050Y-60381751D03*
X77054051Y-60381751D03*
X77554050Y-60381751D03*
X78054049Y-60381751D03*
X78554051Y-60381751D03*
X79054050Y-60381751D03*
D51*
X79154050Y-59081749D03*
D50*
X78304051Y-59081749D03*
X77804049Y-59081749D03*
X77304050Y-59081749D03*
X76804051Y-59081749D03*
X76304050Y-59081749D03*
X75804050Y-59081749D03*
X75304049Y-59081749D03*
X74804050Y-59081749D03*
X74304051Y-59081749D03*
X73804049Y-59081749D03*
D51*
X72954050Y-59081749D03*
D52*
X71734048Y-60002750D03*
X80374052Y-60002750D03*
D53*
X71734048Y-54642750D03*
X80374052Y-54642750D03*
G04 #@! TD*
D17*
G04 #@! TO.C,R10*
X41875000Y-70450000D03*
X40584530Y-71740470D03*
G04 #@! TD*
D40*
G04 #@! TO.C,C28*
X57800000Y-68767246D03*
X59267246Y-67300000D03*
G04 #@! TD*
D24*
G04 #@! TO.C,R19*
X65745950Y-57458450D03*
X67570950Y-57458450D03*
G04 #@! TD*
D21*
G04 #@! TO.C,C30*
X63067246Y-71167246D03*
X61600000Y-69700000D03*
G04 #@! TD*
M02*
