M48
; DRILL file {KiCad 9.0.5} date 2025-11-14T15:11:00-0800
; FORMAT={-:-/ absolute / metric / decimal}
; #@! TF.CreationDate,2025-11-14T15:11:00-08:00
; #@! TF.GenerationSoftware,Kicad,Pcbnew,9.0.5
; #@! TF.FileFunction,Plated,1,4,PTH
FMAT,2
METRIC
; #@! TA.AperFunction,Plated,PTH,ViaDrill
T1C0.300
; #@! TA.AperFunction,Plated,PTH,ComponentDrill
T2C0.300
; #@! TA.AperFunction,Plated,PTH,ComponentDrill
T3C0.660
; #@! TA.AperFunction,Plated,PTH,ComponentDrill
T4C1.000
%
G90
G05
T1
X2.9Y-53.4
X8.5Y-59.65
X9.625Y-81.5
X11.725Y-79.5
X13.875Y-77.4
X14.2Y-53.4
X20.175Y-91.95
X21.7Y-90.05
X24.325Y-87.65
X27.7Y-109.3
X33.0Y-105.85
X35.6Y-109.4
X35.775Y-69.3
X35.775Y-70.45
X35.825Y-97.2
X36.125Y-80.85
X36.125Y-82.05
X36.125Y-83.35
X37.925Y-95.15
X38.55Y-99.4
X38.575Y-58.1
X38.625Y-67.05
X40.2Y-61.1
X40.925Y-76.2
X40.986Y-89.634
X41.0Y-105.8
X42.09Y-95.6
X42.3Y-93.37
X42.475Y-58.3
X43.85Y-109.287
X44.15Y-81.5
X44.2Y-66.5
X44.2Y-84.95
X44.225Y-75.55
X45.9Y-79.8
X46.4Y-84.5
X47.6Y-63.2
X47.6Y-64.6
X47.6Y-65.4
X47.896Y-84.81
X48.0Y-58.5
X48.0Y-59.7
X48.0Y-60.7
X48.375Y-75.75
X48.55Y-71.76
X48.94Y-92.11
X48.95Y-105.8
X49.025Y-77.45
X49.15Y-86.2
X49.8Y-87.5
X51.1Y-95.43
X51.2Y-61.7
X51.775Y-109.3
X53.375Y-90.0
X53.775Y-81.431
X54.025Y-90.65
X54.1Y-64.2
X54.49Y-67.64
X54.875Y-83.95
X54.975Y-91.6
X55.2Y-98.0
X55.475Y-78.45
X55.575Y-95.25
X55.875Y-92.45
X56.0Y-69.2
X56.1Y-58.6
X56.8Y-69.9
X56.925Y-105.8
X57.475Y-92.2
X57.6Y-70.7
X57.775Y-58.4
X58.175Y-56.5
X58.175Y-85.8
X58.234Y-77.05
X58.73Y-69.697
X59.325Y-93.15
X59.525Y-77.0
X59.725Y-109.3
X60.575Y-68.6
X61.0Y-60.1
X61.225Y-84.25
X62.075Y-67.125
X62.525Y-81.411
X62.7Y-63.7
X63.89Y-97.31
X64.9Y-105.8
X65.1Y-64.03
X65.15Y-70.81
X65.4Y-58.9
X65.77Y-70.18
X66.925Y-101.05
X67.525Y-61.428
X67.8Y-73.25
X68.0Y-88.4
X68.71Y-67.64
X68.948Y-98.686
X69.55Y-80.75
X70.88Y-84.84
X71.31Y-73.05
X71.68Y-70.67
X72.5Y-79.1
X72.9Y-58.3
X73.4Y-62.1
X74.8Y-58.05
X74.815Y-61.48
X75.7Y-64.2
X75.75Y-67.05
X75.75Y-68.55
X75.8Y-58.05
X76.5Y-74.4
X76.6Y-61.8
X76.8Y-64.25
X77.55Y-61.7
X77.975Y-78.75
X79.2Y-58.3
X81.775Y-54.65
X83.7Y-54.8
X83.975Y-89.85
X86.375Y-57.475
X86.375Y-60.5
X87.75Y-59.7
X87.775Y-55.325
X90.2Y-72.9
X90.2Y-84.1
X90.2Y-95.4
X91.8Y-54.8
X95.975Y-78.5
T2
X56.149Y-81.452
X57.175Y-80.426
X57.175Y-82.477
X58.2Y-79.401
X58.2Y-81.452
X58.2Y-83.502
X59.225Y-80.426
X59.225Y-82.477
X60.251Y-81.452
T4
X6.8Y-78.65
X8.55Y-62.0
X8.95Y-76.55
X11.35Y-74.65
X20.25Y-54.9
X22.05Y-93.85
X26.6Y-89.9
X30.7Y-86.0
X35.05Y-76.2
X35.6Y-87.4
X38.75Y-89.35
X44.425Y-57.5
X45.65Y-98.95
X46.35Y-67.2
X50.8Y-98.75
X51.65Y-70.2
X53.975Y-99.9
X54.05Y-65.95
X58.35Y-54.35
X67.5Y-106.95
X72.225Y-88.95
X78.05Y-75.4
X81.75Y-68.42
X81.75Y-70.96
X81.75Y-73.5
X81.75Y-76.04
X81.75Y-78.58
X81.75Y-81.12
X81.75Y-83.66
X81.75Y-86.2
X81.75Y-88.74
X81.75Y-91.28
X81.75Y-93.82
X81.75Y-96.36
X81.75Y-98.9
X81.75Y-101.44
X81.75Y-103.98
X85.35Y-79.9
X87.75Y-62.4
X93.65Y-85.2
T3
G00X71.734Y-53.893
M15
G01X71.734Y-55.392
M16
G05
G00X71.734Y-60.498
M15
G01X71.734Y-59.507
M16
G05
G00X80.374Y-55.392
M15
G01X80.374Y-53.893
M16
G05
G00X80.374Y-60.498
M15
G01X80.374Y-59.507
M16
G05
M30
