%TF.GenerationSoftware,KiCad,Pcbnew,9.0.5*%
%TF.CreationDate,2026-04-12T00:32:08-07:00*%
%TF.ProjectId,SYCL Badge 2024,5359434c-2042-4616-9467-652032303234,rev?*%
%TF.SameCoordinates,Original*%
%TF.FileFunction,Drillmap*%
%TF.FilePolarity,Positive*%
%FSLAX45Y45*%
G04 Gerber Fmt 4.5, Leading zero omitted, Abs format (unit mm)*
G04 Created by KiCad (PCBNEW 9.0.5) date 2026-04-12 00:32:08*
%MOMM*%
%LPD*%
G01*
G04 APERTURE LIST*
%ADD10C,0.050000*%
%ADD11C,0.200000*%
%ADD12C,0.100000*%
%ADD13C,0.300000*%
G04 APERTURE END LIST*
D10*
X-528965Y-11640466D02*
X9860443Y-11640586D01*
X5350000Y-5240000D02*
X5200000Y-5390000D01*
X9881370Y-5239132D02*
X5350000Y-5240000D01*
X10180751Y-11328454D02*
X10181368Y-5539132D01*
X-819368Y-5540130D02*
X-818965Y-11330591D01*
X4860000Y-5390000D02*
X5200000Y-5390000D01*
X4710000Y-5240000D02*
X4860000Y-5390000D01*
X10180751Y-11328454D02*
G75*
G02*
X9860650Y-11640581I-312231J4D01*
G01*
X9881368Y-5239132D02*
G75*
G02*
X10181368Y-5539132I2J-299998D01*
G01*
X4710000Y-5240000D02*
X-519370Y-5240132D01*
X-819368Y-5540132D02*
G75*
G02*
X-519368Y-5240132I299998J2D01*
G01*
X-528965Y-11640466D02*
G75*
G02*
X-818967Y-11330608I12125J301987D01*
G01*
D11*
D12*
X-683500Y-8873000D02*
X-653500Y-8903000D01*
X-653500Y-8873000D02*
X-683500Y-8903000D01*
X-683500Y-9000000D02*
X-653500Y-9030000D01*
X-653500Y-9000000D02*
X-683500Y-9030000D01*
X-683500Y-9123000D02*
X-653500Y-9153000D01*
X-653500Y-9123000D02*
X-683500Y-9153000D01*
X-171500Y-8799000D02*
X-141500Y-8829000D01*
X-141500Y-8799000D02*
X-171500Y-8829000D01*
X-152500Y-9200000D02*
X-122500Y-9230000D01*
X-122500Y-9200000D02*
X-152500Y-9230000D01*
X173500Y-8118000D02*
X203500Y-8148000D01*
X203500Y-8118000D02*
X173500Y-8148000D01*
X386500Y-7908000D02*
X416500Y-7938000D01*
X416500Y-7908000D02*
X386500Y-7938000D01*
X595500Y-7694000D02*
X625500Y-7724000D01*
X625500Y-7694000D02*
X595500Y-7724000D01*
X835000Y-5950000D02*
X865000Y-5980000D01*
X865000Y-5950000D02*
X835000Y-5980000D01*
X855000Y-11340000D02*
X885000Y-11370000D01*
X885000Y-11340000D02*
X855000Y-11370000D01*
X1049500Y-5335000D02*
X1079500Y-5365000D01*
X1079500Y-5335000D02*
X1049500Y-5365000D01*
X1242500Y-9188000D02*
X1272500Y-9218000D01*
X1272500Y-9188000D02*
X1242500Y-9218000D01*
X1485500Y-9007000D02*
X1515500Y-9037000D01*
X1515500Y-9007000D02*
X1485500Y-9037000D01*
X1662525Y-8754713D02*
X1692525Y-8784713D01*
X1692525Y-8754713D02*
X1662525Y-8784713D01*
X3432500Y-10979000D02*
X3462500Y-11009000D01*
X3462500Y-10979000D02*
X3432500Y-11009000D01*
X3540500Y-7931500D02*
X3570500Y-7961500D01*
X3570500Y-7931500D02*
X3540500Y-7961500D01*
X3543750Y-11331250D02*
X3573750Y-11361250D01*
X3573750Y-11331250D02*
X3543750Y-11361250D01*
X3552500Y-8791000D02*
X3582500Y-8821000D01*
X3582500Y-8791000D02*
X3552500Y-8821000D01*
X3562500Y-6915000D02*
X3592500Y-6945000D01*
X3592500Y-6915000D02*
X3562500Y-6945000D01*
X3562500Y-7030000D02*
X3592500Y-7060000D01*
X3592500Y-7030000D02*
X3562500Y-7060000D01*
X3567500Y-9705000D02*
X3597500Y-9735000D01*
X3597500Y-9705000D02*
X3567500Y-9735000D01*
X3734750Y-9025000D02*
X3764750Y-9055000D01*
X3764750Y-9025000D02*
X3734750Y-9055000D01*
X3777500Y-9500000D02*
X3807500Y-9530000D01*
X3807500Y-9500000D02*
X3777500Y-9530000D01*
X3790500Y-6632000D02*
X3820500Y-6662000D01*
X3820500Y-6632000D02*
X3790500Y-6662000D01*
X3800000Y-8310000D02*
X3830000Y-8340000D01*
X3830000Y-8310000D02*
X3800000Y-8340000D01*
X3840000Y-9925000D02*
X3870000Y-9955000D01*
X3870000Y-9925000D02*
X3840000Y-9955000D01*
X3843500Y-5800000D02*
X3873500Y-5830000D01*
X3873500Y-5800000D02*
X3843500Y-5830000D01*
X3940000Y-8455000D02*
X3970000Y-8485000D01*
X3970000Y-8455000D02*
X3940000Y-8485000D01*
X4005000Y-6095000D02*
X4035000Y-6125000D01*
X4035000Y-6095000D02*
X4005000Y-6125000D01*
X4075000Y-8460000D02*
X4105000Y-8490000D01*
X4105000Y-8460000D02*
X4075000Y-8490000D01*
X4077500Y-10977500D02*
X4107500Y-11007500D01*
X4107500Y-10977500D02*
X4077500Y-11007500D01*
X4100000Y-8185000D02*
X4130000Y-8215000D01*
X4130000Y-8185000D02*
X4100000Y-8215000D01*
X4194000Y-9545000D02*
X4224000Y-9575000D01*
X4224000Y-9545000D02*
X4194000Y-9575000D01*
X4215000Y-9322000D02*
X4245000Y-9352000D01*
X4245000Y-9322000D02*
X4215000Y-9352000D01*
X4252500Y-7744000D02*
X4282500Y-7774000D01*
X4282500Y-7744000D02*
X4252500Y-7774000D01*
X4368750Y-11320000D02*
X4398750Y-11350000D01*
X4398750Y-11320000D02*
X4368750Y-11350000D01*
X4405500Y-10686000D02*
X4435500Y-10716000D01*
X4435500Y-10686000D02*
X4405500Y-10716000D01*
X4407500Y-7540000D02*
X4437500Y-7570000D01*
X4437500Y-7540000D02*
X4407500Y-7570000D01*
X4411250Y-6628750D02*
X4441250Y-6658750D01*
X4441250Y-6628750D02*
X4411250Y-6658750D01*
X4520000Y-8735000D02*
X4550000Y-8765000D01*
X4550000Y-8735000D02*
X4520000Y-8765000D01*
X4739500Y-7929000D02*
X4769500Y-7959000D01*
X4769500Y-7929000D02*
X4739500Y-7959000D01*
X4745000Y-6305000D02*
X4775000Y-6335000D01*
X4775000Y-6305000D02*
X4745000Y-6335000D01*
X4745000Y-6445000D02*
X4775000Y-6475000D01*
X4775000Y-6445000D02*
X4745000Y-6475000D01*
X4745000Y-6525000D02*
X4775000Y-6555000D01*
X4775000Y-6525000D02*
X4745000Y-6555000D01*
X4770000Y-8285000D02*
X4800000Y-8315000D01*
X4800000Y-8285000D02*
X4770000Y-8315000D01*
X4774633Y-8466000D02*
X4804633Y-8496000D01*
X4804633Y-8466000D02*
X4774633Y-8496000D01*
X4780500Y-10859000D02*
X4810500Y-10889000D01*
X4810500Y-10859000D02*
X4780500Y-10889000D01*
X4785000Y-5955000D02*
X4815000Y-5985000D01*
X4815000Y-5955000D02*
X4785000Y-5985000D01*
X4785000Y-6055000D02*
X4815000Y-6085000D01*
X4815000Y-6055000D02*
X4785000Y-6085000D01*
X4822500Y-7560000D02*
X4852500Y-7590000D01*
X4852500Y-7560000D02*
X4822500Y-7590000D01*
X4840000Y-7161000D02*
X4870000Y-7191000D01*
X4870000Y-7161000D02*
X4840000Y-7191000D01*
X4872500Y-10977500D02*
X4902500Y-11007500D01*
X4902500Y-10977500D02*
X4872500Y-11007500D01*
X4879000Y-9196000D02*
X4909000Y-9226000D01*
X4909000Y-9196000D02*
X4879000Y-9226000D01*
X4887500Y-7730000D02*
X4917500Y-7760000D01*
X4917500Y-7730000D02*
X4887500Y-7760000D01*
X4900000Y-8614000D02*
X4930000Y-8644000D01*
X4930000Y-8614000D02*
X4900000Y-8644000D01*
X4962500Y-5692000D02*
X4992500Y-5722000D01*
X4992500Y-5692000D02*
X4962500Y-5722000D01*
X4998750Y-8693750D02*
X5028750Y-8723750D01*
X5028750Y-8693750D02*
X4998750Y-8723750D01*
X5086500Y-9760000D02*
X5116500Y-9790000D01*
X5116500Y-9760000D02*
X5086500Y-9790000D01*
X5095000Y-9528000D02*
X5125000Y-9558000D01*
X5125000Y-9528000D02*
X5095000Y-9558000D01*
X5105000Y-6155000D02*
X5135000Y-6185000D01*
X5135000Y-6155000D02*
X5105000Y-6185000D01*
X5155000Y-11327500D02*
X5185000Y-11357500D01*
X5185000Y-11327500D02*
X5155000Y-11357500D01*
X5322500Y-8985000D02*
X5352500Y-9015000D01*
X5352500Y-8985000D02*
X5322500Y-9015000D01*
X5362500Y-8128054D02*
X5392500Y-8158054D01*
X5392500Y-8128054D02*
X5362500Y-8158054D01*
X5387500Y-9050000D02*
X5417500Y-9080000D01*
X5417500Y-9050000D02*
X5387500Y-9080000D01*
X5399500Y-6295000D02*
X5429500Y-6325000D01*
X5429500Y-6295000D02*
X5399500Y-6325000D01*
X5411500Y-6771500D02*
X5441500Y-6801500D01*
X5441500Y-6771500D02*
X5411500Y-6801500D01*
X5449500Y-10678000D02*
X5479500Y-10708000D01*
X5479500Y-10678000D02*
X5449500Y-10708000D01*
X5461500Y-10328000D02*
X5491500Y-10358000D01*
X5491500Y-10328000D02*
X5461500Y-10358000D01*
X5472500Y-8380000D02*
X5502500Y-8410000D01*
X5502500Y-8380000D02*
X5472500Y-8410000D01*
X5532500Y-7830000D02*
X5562500Y-7860000D01*
X5562500Y-7830000D02*
X5532500Y-7860000D01*
X5540000Y-9145000D02*
X5570000Y-9175000D01*
X5570000Y-9145000D02*
X5540000Y-9175000D01*
X5540000Y-9230000D02*
X5570000Y-9260000D01*
X5570000Y-9230000D02*
X5540000Y-9260000D01*
X5541500Y-10678000D02*
X5571500Y-10708000D01*
X5571500Y-10678000D02*
X5541500Y-10708000D01*
X5585000Y-6905000D02*
X5615000Y-6935000D01*
X5615000Y-6905000D02*
X5585000Y-6935000D01*
X5595000Y-5845000D02*
X5625000Y-5875000D01*
X5625000Y-5845000D02*
X5595000Y-5875000D01*
X5665000Y-6975000D02*
X5695000Y-7005000D01*
X5695000Y-6975000D02*
X5665000Y-7005000D01*
X5670000Y-10977500D02*
X5700000Y-11007500D01*
X5700000Y-10977500D02*
X5670000Y-11007500D01*
X5745000Y-7055000D02*
X5775000Y-7085000D01*
X5775000Y-7055000D02*
X5745000Y-7085000D01*
X5805000Y-8575000D02*
X5835000Y-8605000D01*
X5835000Y-8575000D02*
X5805000Y-8605000D01*
X5807500Y-5640000D02*
X5837500Y-5670000D01*
X5837500Y-5640000D02*
X5807500Y-5670000D01*
X5808417Y-7690000D02*
X5838417Y-7720000D01*
X5838417Y-7690000D02*
X5808417Y-7720000D01*
X5815000Y-8805000D02*
X5845000Y-8835000D01*
X5845000Y-8805000D02*
X5815000Y-8835000D01*
X5858000Y-6954725D02*
X5888000Y-6984725D01*
X5888000Y-6954725D02*
X5858000Y-6984725D01*
X5895000Y-9140000D02*
X5925000Y-9170000D01*
X5925000Y-9140000D02*
X5895000Y-9170000D01*
X5900000Y-9240000D02*
X5930000Y-9270000D01*
X5930000Y-9240000D02*
X5900000Y-9270000D01*
X5937500Y-7685000D02*
X5967500Y-7715000D01*
X5967500Y-7685000D02*
X5937500Y-7715000D01*
X5950000Y-11327500D02*
X5980000Y-11357500D01*
X5980000Y-11327500D02*
X5950000Y-11357500D01*
X6042500Y-6845000D02*
X6072500Y-6875000D01*
X6072500Y-6845000D02*
X6042500Y-6875000D01*
X6085000Y-5995000D02*
X6115000Y-6025000D01*
X6115000Y-5995000D02*
X6085000Y-6025000D01*
X6091500Y-9927000D02*
X6121500Y-9957000D01*
X6121500Y-9927000D02*
X6091500Y-9957000D01*
X6107500Y-8410000D02*
X6137500Y-8440000D01*
X6137500Y-8410000D02*
X6107500Y-8440000D01*
X6136500Y-10108000D02*
X6166500Y-10138000D01*
X6166500Y-10108000D02*
X6136500Y-10138000D01*
X6192500Y-6697500D02*
X6222500Y-6727500D01*
X6222500Y-6697500D02*
X6192500Y-6727500D01*
X6235000Y-7255000D02*
X6265000Y-7285000D01*
X6265000Y-7255000D02*
X6235000Y-7285000D01*
X6255000Y-6355000D02*
X6285000Y-6385000D01*
X6285000Y-6355000D02*
X6255000Y-6385000D01*
X6281500Y-10857000D02*
X6311500Y-10887000D01*
X6311500Y-10857000D02*
X6281500Y-10887000D01*
X6301500Y-7522000D02*
X6331500Y-7552000D01*
X6331500Y-7522000D02*
X6301500Y-7552000D01*
X6372500Y-9630000D02*
X6402500Y-9660000D01*
X6402500Y-9630000D02*
X6372500Y-9660000D01*
X6455500Y-7787000D02*
X6485500Y-7817000D01*
X6485500Y-7787000D02*
X6455500Y-7817000D01*
X6467500Y-10977500D02*
X6497500Y-11007500D01*
X6497500Y-10977500D02*
X6467500Y-11007500D01*
X6495000Y-6388000D02*
X6525000Y-6418000D01*
X6525000Y-6388000D02*
X6495000Y-6418000D01*
X6500000Y-7066000D02*
X6530000Y-7096000D01*
X6530000Y-7066000D02*
X6500000Y-7096000D01*
X6525000Y-5875000D02*
X6555000Y-5905000D01*
X6555000Y-5875000D02*
X6525000Y-5905000D01*
X6562000Y-7003000D02*
X6592000Y-7033000D01*
X6592000Y-7003000D02*
X6562000Y-7033000D01*
X6569500Y-5448000D02*
X6599500Y-5478000D01*
X6599500Y-5448000D02*
X6569500Y-5478000D01*
X6589500Y-8183000D02*
X6619500Y-8213000D01*
X6619500Y-8183000D02*
X6589500Y-8213000D01*
X6704500Y-8187000D02*
X6734500Y-8217000D01*
X6734500Y-8187000D02*
X6704500Y-8217000D01*
X6765000Y-7310000D02*
X6795000Y-7340000D01*
X6795000Y-7310000D02*
X6765000Y-7340000D01*
X6807500Y-8190000D02*
X6837500Y-8220000D01*
X6837500Y-8190000D02*
X6807500Y-8220000D01*
X6847500Y-6020000D02*
X6877500Y-6050000D01*
X6877500Y-6020000D02*
X6847500Y-6050000D01*
X6849250Y-5911250D02*
X6879250Y-5941250D01*
X6879250Y-5911250D02*
X6849250Y-5941250D01*
X6909500Y-8192000D02*
X6939500Y-8222000D01*
X6939500Y-8192000D02*
X6909500Y-8222000D01*
X6965000Y-10412500D02*
X6995000Y-10442500D01*
X6995000Y-10412500D02*
X6965000Y-10442500D01*
X6968638Y-9270638D02*
X6998638Y-9300638D01*
X6998638Y-9270638D02*
X6968638Y-9300638D01*
X7073000Y-8469000D02*
X7103000Y-8499000D01*
X7103000Y-8469000D02*
X7073000Y-8499000D01*
X7089750Y-5351250D02*
X7119750Y-5381250D01*
X7119750Y-5351250D02*
X7089750Y-5381250D01*
X7116000Y-7290000D02*
X7146000Y-7320000D01*
X7146000Y-7290000D02*
X7116000Y-7320000D01*
X7153000Y-7052000D02*
X7183000Y-7082000D01*
X7183000Y-7052000D02*
X7153000Y-7082000D01*
X7165000Y-9800000D02*
X7195000Y-9830000D01*
X7195000Y-9800000D02*
X7165000Y-9830000D01*
X7200000Y-7960000D02*
X7230000Y-7990000D01*
X7230000Y-7960000D02*
X7200000Y-7990000D01*
X7255000Y-9010000D02*
X7285000Y-9040000D01*
X7285000Y-9010000D02*
X7255000Y-9040000D01*
X7257500Y-9246000D02*
X7287500Y-9276000D01*
X7287500Y-9246000D02*
X7257500Y-9276000D01*
X7355500Y-6166000D02*
X7385500Y-6196000D01*
X7385500Y-6166000D02*
X7355500Y-6196000D01*
X7362500Y-6032500D02*
X7392500Y-6062500D01*
X7392500Y-6032500D02*
X7362500Y-6062500D01*
X7528500Y-6035000D02*
X7558500Y-6065000D01*
X7558500Y-6035000D02*
X7528500Y-6065000D01*
X7589000Y-6408000D02*
X7619000Y-6438000D01*
X7619000Y-6408000D02*
X7589000Y-6438000D01*
X7635000Y-7425000D02*
X7665000Y-7455000D01*
X7665000Y-7425000D02*
X7635000Y-7455000D01*
X7738500Y-6408000D02*
X7768500Y-6438000D01*
X7768500Y-6408000D02*
X7738500Y-6438000D01*
X7745500Y-8737000D02*
X7775500Y-8767000D01*
X7775500Y-8737000D02*
X7745500Y-8767000D01*
X7806500Y-9103000D02*
X7836500Y-9133000D01*
X7836500Y-9103000D02*
X7806500Y-9133000D01*
X7830500Y-6032000D02*
X7860500Y-6062000D01*
X7860500Y-6032000D02*
X7830500Y-6062000D01*
X7924500Y-6164000D02*
X7954500Y-6194000D01*
X7954500Y-6164000D02*
X7924500Y-6194000D01*
X8003000Y-6035000D02*
X8033000Y-6065000D01*
X8033000Y-6035000D02*
X8003000Y-6065000D01*
X8055000Y-7325000D02*
X8085000Y-7355000D01*
X8085000Y-7325000D02*
X8055000Y-7355000D01*
X8140000Y-10790000D02*
X8170000Y-10820000D01*
X8170000Y-10790000D02*
X8140000Y-10820000D01*
X8185750Y-11050250D02*
X8215750Y-11080250D01*
X8215750Y-11050250D02*
X8185750Y-11080250D01*
X8216500Y-6100000D02*
X8246500Y-6130000D01*
X8246500Y-6100000D02*
X8216500Y-6130000D01*
X8448500Y-8701000D02*
X8478500Y-8731000D01*
X8478500Y-8701000D02*
X8448500Y-8731000D01*
X8477750Y-10537250D02*
X8507750Y-10567250D01*
X8507750Y-10537250D02*
X8477750Y-10567250D01*
X8622500Y-6035000D02*
X8652500Y-6065000D01*
X8652500Y-6035000D02*
X8622500Y-6065000D01*
X8675750Y-10798250D02*
X8705750Y-10828250D01*
X8705750Y-10798250D02*
X8675750Y-10828250D01*
X8747500Y-5345000D02*
X8777500Y-5375000D01*
X8777500Y-5345000D02*
X8747500Y-5375000D01*
X8760000Y-5955000D02*
X8790000Y-5985000D01*
X8790000Y-5955000D02*
X8760000Y-5985000D01*
X8852500Y-8312000D02*
X8882500Y-8342000D01*
X8882500Y-8312000D02*
X8852500Y-8342000D01*
X8855000Y-9060000D02*
X8885000Y-9090000D01*
X8885000Y-9060000D02*
X8855000Y-9090000D01*
X8940000Y-10590000D02*
X8970000Y-10620000D01*
X8970000Y-10590000D02*
X8940000Y-10620000D01*
X8940000Y-10675000D02*
X8970000Y-10705000D01*
X8970000Y-10675000D02*
X8940000Y-10705000D01*
X9080000Y-9430000D02*
X9110000Y-9460000D01*
X9110000Y-9430000D02*
X9080000Y-9460000D01*
X9303500Y-8077000D02*
X9333500Y-8107000D01*
X9333500Y-8077000D02*
X9303500Y-8107000D01*
X9483500Y-8418000D02*
X9513500Y-8448000D01*
X9513500Y-8418000D02*
X9483500Y-8448000D01*
X5629939Y-8145169D02*
G75*
G02*
X5599939Y-8145169I-15000J0D01*
G01*
X5599939Y-8145169D02*
G75*
G02*
X5629939Y-8145169I15000J0D01*
G01*
X5732469Y-8042638D02*
G75*
G02*
X5702469Y-8042638I-15000J0D01*
G01*
X5702469Y-8042638D02*
G75*
G02*
X5732469Y-8042638I15000J0D01*
G01*
X5732469Y-8247699D02*
G75*
G02*
X5702469Y-8247699I-15000J0D01*
G01*
X5702469Y-8247699D02*
G75*
G02*
X5732469Y-8247699I15000J0D01*
G01*
X5835000Y-7940108D02*
G75*
G02*
X5805000Y-7940108I-15000J0D01*
G01*
X5805000Y-7940108D02*
G75*
G02*
X5835000Y-7940108I15000J0D01*
G01*
X5835000Y-8145169D02*
G75*
G02*
X5805000Y-8145169I-15000J0D01*
G01*
X5805000Y-8145169D02*
G75*
G02*
X5835000Y-8145169I15000J0D01*
G01*
X5835000Y-8350230D02*
G75*
G02*
X5805000Y-8350230I-15000J0D01*
G01*
X5805000Y-8350230D02*
G75*
G02*
X5835000Y-8350230I15000J0D01*
G01*
X5937530Y-8042638D02*
G75*
G02*
X5907530Y-8042638I-15000J0D01*
G01*
X5907530Y-8042638D02*
G75*
G02*
X5937530Y-8042638I15000J0D01*
G01*
X5937530Y-8247699D02*
G75*
G02*
X5907530Y-8247699I-15000J0D01*
G01*
X5907530Y-8247699D02*
G75*
G02*
X5937530Y-8247699I15000J0D01*
G01*
X6040061Y-8145169D02*
G75*
G02*
X6010061Y-8145169I-15000J0D01*
G01*
X6010061Y-8145169D02*
G75*
G02*
X6040061Y-8145169I15000J0D01*
G01*
X7266000Y-5420000D02*
X7266000Y-5480000D01*
X7236000Y-5450000D02*
X7296000Y-5450000D01*
X7236000Y-5410000D02*
X7236000Y-5490000D01*
X7296000Y-5490000D02*
G75*
G02*
X7236000Y-5490000I-30000J0D01*
G01*
X7296000Y-5490000D02*
X7296000Y-5410000D01*
X7296000Y-5410000D02*
G75*
G03*
X7236000Y-5410000I-30000J0D01*
G01*
X7266000Y-5837000D02*
X7266000Y-5897000D01*
X7236000Y-5867000D02*
X7296000Y-5867000D01*
X7236000Y-5812000D02*
X7236000Y-5922000D01*
X7296000Y-5922000D02*
G75*
G02*
X7236000Y-5922000I-30000J0D01*
G01*
X7296000Y-5922000D02*
X7296000Y-5812000D01*
X7296000Y-5812000D02*
G75*
G03*
X7236000Y-5812000I-30000J0D01*
G01*
X8130000Y-5420000D02*
X8130000Y-5480000D01*
X8100000Y-5450000D02*
X8160000Y-5450000D01*
X8100000Y-5410000D02*
X8100000Y-5490000D01*
X8160000Y-5490000D02*
G75*
G02*
X8100000Y-5490000I-30000J0D01*
G01*
X8160000Y-5490000D02*
X8160000Y-5410000D01*
X8160000Y-5410000D02*
G75*
G03*
X8100000Y-5410000I-30000J0D01*
G01*
X8130000Y-5837000D02*
X8130000Y-5897000D01*
X8100000Y-5867000D02*
X8160000Y-5867000D01*
X8100000Y-5812000D02*
X8100000Y-5922000D01*
X8160000Y-5922000D02*
G75*
G02*
X8100000Y-5922000I-30000J0D01*
G01*
X8160000Y-5922000D02*
X8160000Y-5812000D01*
X8160000Y-5812000D02*
G75*
G03*
X8100000Y-5812000I-30000J0D01*
G01*
X-373144Y-10204356D02*
X-373144Y-10133644D01*
X-443856Y-10133644D01*
X-443856Y-10204356D01*
X-373144Y-10204356D01*
X-371144Y-9732356D02*
X-371144Y-9661644D01*
X-441856Y-9661644D01*
X-441856Y-9732356D01*
X-371144Y-9732356D01*
X-310144Y-7627356D02*
X-310144Y-7556644D01*
X-380856Y-7556644D01*
X-380856Y-7627356D01*
X-310144Y-7627356D01*
X-307144Y-8120356D02*
X-307144Y-8049644D01*
X-377856Y-8049644D01*
X-377856Y-8120356D01*
X-307144Y-8120356D01*
X3551856Y-5655356D02*
X3551856Y-5584644D01*
X3481144Y-5584644D01*
X3481144Y-5655356D01*
X3551856Y-5655356D01*
X3725356Y-10440356D02*
X3725356Y-10369644D01*
X3654644Y-10369644D01*
X3654644Y-10440356D01*
X3725356Y-10440356D01*
X3890856Y-5649356D02*
X3890856Y-5578644D01*
X3820144Y-5578644D01*
X3820144Y-5649356D01*
X3890856Y-5649356D01*
X3980356Y-10645356D02*
X3980356Y-10574644D01*
X3909644Y-10574644D01*
X3909644Y-10645356D01*
X3980356Y-10645356D01*
X4000356Y-10175356D02*
X4000356Y-10104644D01*
X3929644Y-10104644D01*
X3929644Y-10175356D01*
X4000356Y-10175356D01*
X4319856Y-5650356D02*
X4319856Y-5579644D01*
X4249144Y-5579644D01*
X4249144Y-5650356D01*
X4319856Y-5650356D01*
X5466856Y-6588356D02*
X5466856Y-6517644D01*
X5396144Y-6517644D01*
X5396144Y-6588356D01*
X5466856Y-6588356D01*
X5894856Y-5462356D02*
X5894856Y-5391644D01*
X5824144Y-5391644D01*
X5824144Y-5462356D01*
X5894856Y-5462356D01*
X5926856Y-9732356D02*
X5926856Y-9661644D01*
X5856144Y-9661644D01*
X5856144Y-9732356D01*
X5926856Y-9732356D01*
X7415356Y-10245356D02*
X7415356Y-10174644D01*
X7344644Y-10174644D01*
X7344644Y-10245356D01*
X7415356Y-10245356D01*
X7422856Y-9781356D02*
X7422856Y-9710644D01*
X7352144Y-9710644D01*
X7352144Y-9781356D01*
X7422856Y-9781356D01*
X7820856Y-10235356D02*
X7820856Y-10164644D01*
X7750144Y-10164644D01*
X7750144Y-10235356D01*
X7820856Y-10235356D01*
X7868856Y-7059356D02*
X7868856Y-6988644D01*
X7798144Y-6988644D01*
X7798144Y-7059356D01*
X7868856Y-7059356D01*
X8495356Y-7355356D02*
X8495356Y-7284644D01*
X8424644Y-7284644D01*
X8424644Y-7355356D01*
X8495356Y-7355356D01*
X8570356Y-9575356D02*
X8570356Y-9504644D01*
X8499644Y-9504644D01*
X8499644Y-9575356D01*
X8570356Y-9575356D01*
X8580356Y-10020356D02*
X8580356Y-9949644D01*
X8509644Y-9949644D01*
X8509644Y-10020356D01*
X8580356Y-10020356D01*
X9295356Y-10565356D02*
X9295356Y-10494644D01*
X9224644Y-10494644D01*
X9224644Y-10565356D01*
X9295356Y-10565356D01*
X9300356Y-11045356D02*
X9300356Y-10974644D01*
X9229644Y-10974644D01*
X9229644Y-11045356D01*
X9300356Y-11045356D01*
X9800856Y-10499356D02*
X9800856Y-10428644D01*
X9730144Y-10428644D01*
X9730144Y-10499356D01*
X9800856Y-10499356D01*
D13*
X-415500Y-11388000D02*
X-265500Y-11238000D01*
X-415500Y-11088000D01*
X-565500Y-11238000D01*
X-415500Y-11388000D01*
X-414500Y-5797000D02*
X-264500Y-5647000D01*
X-414500Y-5497000D01*
X-564500Y-5647000D01*
X-414500Y-5797000D01*
X9770500Y-11385000D02*
X9920500Y-11235000D01*
X9770500Y-11085000D01*
X9620500Y-11235000D01*
X9770500Y-11385000D01*
X9773500Y-5795000D02*
X9923500Y-5645000D01*
X9773500Y-5495000D01*
X9623500Y-5645000D01*
X9773500Y-5795000D01*
D11*
X-561091Y-11954664D02*
X-561091Y-11754664D01*
X-561091Y-11754664D02*
X-513472Y-11754664D01*
X-513472Y-11754664D02*
X-484901Y-11764188D01*
X-484901Y-11764188D02*
X-465853Y-11783236D01*
X-465853Y-11783236D02*
X-456329Y-11802283D01*
X-456329Y-11802283D02*
X-446805Y-11840379D01*
X-446805Y-11840379D02*
X-446805Y-11868950D01*
X-446805Y-11868950D02*
X-456329Y-11907045D01*
X-456329Y-11907045D02*
X-465853Y-11926093D01*
X-465853Y-11926093D02*
X-484901Y-11945141D01*
X-484901Y-11945141D02*
X-513472Y-11954664D01*
X-513472Y-11954664D02*
X-561091Y-11954664D01*
X-361091Y-11954664D02*
X-361091Y-11821331D01*
X-361091Y-11859426D02*
X-351567Y-11840379D01*
X-351567Y-11840379D02*
X-342044Y-11830855D01*
X-342044Y-11830855D02*
X-322996Y-11821331D01*
X-322996Y-11821331D02*
X-303948Y-11821331D01*
X-237282Y-11954664D02*
X-237282Y-11821331D01*
X-237282Y-11754664D02*
X-246805Y-11764188D01*
X-246805Y-11764188D02*
X-237282Y-11773712D01*
X-237282Y-11773712D02*
X-227758Y-11764188D01*
X-227758Y-11764188D02*
X-237282Y-11754664D01*
X-237282Y-11754664D02*
X-237282Y-11773712D01*
X-113472Y-11954664D02*
X-132520Y-11945141D01*
X-132520Y-11945141D02*
X-142044Y-11926093D01*
X-142044Y-11926093D02*
X-142044Y-11754664D01*
X-8710Y-11954664D02*
X-27758Y-11945141D01*
X-27758Y-11945141D02*
X-37282Y-11926093D01*
X-37282Y-11926093D02*
X-37282Y-11754664D01*
X219861Y-11954664D02*
X219861Y-11754664D01*
X219861Y-11754664D02*
X286528Y-11897521D01*
X286528Y-11897521D02*
X353194Y-11754664D01*
X353194Y-11754664D02*
X353194Y-11954664D01*
X534147Y-11954664D02*
X534147Y-11849902D01*
X534147Y-11849902D02*
X524623Y-11830855D01*
X524623Y-11830855D02*
X505575Y-11821331D01*
X505575Y-11821331D02*
X467480Y-11821331D01*
X467480Y-11821331D02*
X448433Y-11830855D01*
X534147Y-11945141D02*
X515099Y-11954664D01*
X515099Y-11954664D02*
X467480Y-11954664D01*
X467480Y-11954664D02*
X448433Y-11945141D01*
X448433Y-11945141D02*
X438909Y-11926093D01*
X438909Y-11926093D02*
X438909Y-11907045D01*
X438909Y-11907045D02*
X448433Y-11887998D01*
X448433Y-11887998D02*
X467480Y-11878474D01*
X467480Y-11878474D02*
X515099Y-11878474D01*
X515099Y-11878474D02*
X534147Y-11868950D01*
X629385Y-11821331D02*
X629385Y-12021331D01*
X629385Y-11830855D02*
X648433Y-11821331D01*
X648433Y-11821331D02*
X686528Y-11821331D01*
X686528Y-11821331D02*
X705575Y-11830855D01*
X705575Y-11830855D02*
X715099Y-11840379D01*
X715099Y-11840379D02*
X724623Y-11859426D01*
X724623Y-11859426D02*
X724623Y-11916569D01*
X724623Y-11916569D02*
X715099Y-11935617D01*
X715099Y-11935617D02*
X705575Y-11945141D01*
X705575Y-11945141D02*
X686528Y-11954664D01*
X686528Y-11954664D02*
X648433Y-11954664D01*
X648433Y-11954664D02*
X629385Y-11945141D01*
X810337Y-11935617D02*
X819861Y-11945141D01*
X819861Y-11945141D02*
X810337Y-11954664D01*
X810337Y-11954664D02*
X800814Y-11945141D01*
X800814Y-11945141D02*
X810337Y-11935617D01*
X810337Y-11935617D02*
X810337Y-11954664D01*
X810337Y-11830855D02*
X819861Y-11840379D01*
X819861Y-11840379D02*
X810337Y-11849902D01*
X810337Y-11849902D02*
X800814Y-11840379D01*
X800814Y-11840379D02*
X810337Y-11830855D01*
X810337Y-11830855D02*
X810337Y-11849902D01*
D12*
X-851868Y-12268181D02*
X-821868Y-12298181D01*
X-821868Y-12268181D02*
X-851868Y-12298181D01*
D11*
X-522996Y-12174664D02*
X-503948Y-12174664D01*
X-503948Y-12174664D02*
X-484901Y-12184188D01*
X-484901Y-12184188D02*
X-475377Y-12193712D01*
X-475377Y-12193712D02*
X-465853Y-12212760D01*
X-465853Y-12212760D02*
X-456329Y-12250855D01*
X-456329Y-12250855D02*
X-456329Y-12298474D01*
X-456329Y-12298474D02*
X-465853Y-12336569D01*
X-465853Y-12336569D02*
X-475377Y-12355617D01*
X-475377Y-12355617D02*
X-484901Y-12365141D01*
X-484901Y-12365141D02*
X-503948Y-12374664D01*
X-503948Y-12374664D02*
X-522996Y-12374664D01*
X-522996Y-12374664D02*
X-542044Y-12365141D01*
X-542044Y-12365141D02*
X-551567Y-12355617D01*
X-551567Y-12355617D02*
X-561091Y-12336569D01*
X-561091Y-12336569D02*
X-570615Y-12298474D01*
X-570615Y-12298474D02*
X-570615Y-12250855D01*
X-570615Y-12250855D02*
X-561091Y-12212760D01*
X-561091Y-12212760D02*
X-551567Y-12193712D01*
X-551567Y-12193712D02*
X-542044Y-12184188D01*
X-542044Y-12184188D02*
X-522996Y-12174664D01*
X-370615Y-12355617D02*
X-361091Y-12365141D01*
X-361091Y-12365141D02*
X-370615Y-12374664D01*
X-370615Y-12374664D02*
X-380139Y-12365141D01*
X-380139Y-12365141D02*
X-370615Y-12355617D01*
X-370615Y-12355617D02*
X-370615Y-12374664D01*
X-294425Y-12174664D02*
X-170615Y-12174664D01*
X-170615Y-12174664D02*
X-237282Y-12250855D01*
X-237282Y-12250855D02*
X-208710Y-12250855D01*
X-208710Y-12250855D02*
X-189663Y-12260379D01*
X-189663Y-12260379D02*
X-180139Y-12269902D01*
X-180139Y-12269902D02*
X-170615Y-12288950D01*
X-170615Y-12288950D02*
X-170615Y-12336569D01*
X-170615Y-12336569D02*
X-180139Y-12355617D01*
X-180139Y-12355617D02*
X-189663Y-12365141D01*
X-189663Y-12365141D02*
X-208710Y-12374664D01*
X-208710Y-12374664D02*
X-265853Y-12374664D01*
X-265853Y-12374664D02*
X-284901Y-12365141D01*
X-284901Y-12365141D02*
X-294425Y-12355617D01*
X-46805Y-12174664D02*
X-27758Y-12174664D01*
X-27758Y-12174664D02*
X-8710Y-12184188D01*
X-8710Y-12184188D02*
X814Y-12193712D01*
X814Y-12193712D02*
X10337Y-12212760D01*
X10337Y-12212760D02*
X19861Y-12250855D01*
X19861Y-12250855D02*
X19861Y-12298474D01*
X19861Y-12298474D02*
X10337Y-12336569D01*
X10337Y-12336569D02*
X814Y-12355617D01*
X814Y-12355617D02*
X-8710Y-12365141D01*
X-8710Y-12365141D02*
X-27758Y-12374664D01*
X-27758Y-12374664D02*
X-46805Y-12374664D01*
X-46805Y-12374664D02*
X-65853Y-12365141D01*
X-65853Y-12365141D02*
X-75377Y-12355617D01*
X-75377Y-12355617D02*
X-84901Y-12336569D01*
X-84901Y-12336569D02*
X-94424Y-12298474D01*
X-94424Y-12298474D02*
X-94424Y-12250855D01*
X-94424Y-12250855D02*
X-84901Y-12212760D01*
X-84901Y-12212760D02*
X-75377Y-12193712D01*
X-75377Y-12193712D02*
X-65853Y-12184188D01*
X-65853Y-12184188D02*
X-46805Y-12174664D01*
X143671Y-12174664D02*
X162718Y-12174664D01*
X162718Y-12174664D02*
X181766Y-12184188D01*
X181766Y-12184188D02*
X191290Y-12193712D01*
X191290Y-12193712D02*
X200814Y-12212760D01*
X200814Y-12212760D02*
X210337Y-12250855D01*
X210337Y-12250855D02*
X210337Y-12298474D01*
X210337Y-12298474D02*
X200814Y-12336569D01*
X200814Y-12336569D02*
X191290Y-12355617D01*
X191290Y-12355617D02*
X181766Y-12365141D01*
X181766Y-12365141D02*
X162718Y-12374664D01*
X162718Y-12374664D02*
X143671Y-12374664D01*
X143671Y-12374664D02*
X124623Y-12365141D01*
X124623Y-12365141D02*
X115099Y-12355617D01*
X115099Y-12355617D02*
X105575Y-12336569D01*
X105575Y-12336569D02*
X96052Y-12298474D01*
X96052Y-12298474D02*
X96052Y-12250855D01*
X96052Y-12250855D02*
X105575Y-12212760D01*
X105575Y-12212760D02*
X115099Y-12193712D01*
X115099Y-12193712D02*
X124623Y-12184188D01*
X124623Y-12184188D02*
X143671Y-12174664D01*
X296052Y-12374664D02*
X296052Y-12241331D01*
X296052Y-12260379D02*
X305576Y-12250855D01*
X305576Y-12250855D02*
X324623Y-12241331D01*
X324623Y-12241331D02*
X353195Y-12241331D01*
X353195Y-12241331D02*
X372242Y-12250855D01*
X372242Y-12250855D02*
X381766Y-12269902D01*
X381766Y-12269902D02*
X381766Y-12374664D01*
X381766Y-12269902D02*
X391290Y-12250855D01*
X391290Y-12250855D02*
X410337Y-12241331D01*
X410337Y-12241331D02*
X438909Y-12241331D01*
X438909Y-12241331D02*
X457956Y-12250855D01*
X457956Y-12250855D02*
X467480Y-12269902D01*
X467480Y-12269902D02*
X467480Y-12374664D01*
X562718Y-12374664D02*
X562718Y-12241331D01*
X562718Y-12260379D02*
X572242Y-12250855D01*
X572242Y-12250855D02*
X591290Y-12241331D01*
X591290Y-12241331D02*
X619861Y-12241331D01*
X619861Y-12241331D02*
X638909Y-12250855D01*
X638909Y-12250855D02*
X648433Y-12269902D01*
X648433Y-12269902D02*
X648433Y-12374664D01*
X648433Y-12269902D02*
X657957Y-12250855D01*
X657957Y-12250855D02*
X677004Y-12241331D01*
X677004Y-12241331D02*
X705575Y-12241331D01*
X705575Y-12241331D02*
X724623Y-12250855D01*
X724623Y-12250855D02*
X734147Y-12269902D01*
X734147Y-12269902D02*
X734147Y-12374664D01*
X1124623Y-12165141D02*
X953195Y-12422283D01*
X1381766Y-12174664D02*
X1400814Y-12174664D01*
X1400814Y-12174664D02*
X1419861Y-12184188D01*
X1419861Y-12184188D02*
X1429385Y-12193712D01*
X1429385Y-12193712D02*
X1438909Y-12212760D01*
X1438909Y-12212760D02*
X1448433Y-12250855D01*
X1448433Y-12250855D02*
X1448433Y-12298474D01*
X1448433Y-12298474D02*
X1438909Y-12336569D01*
X1438909Y-12336569D02*
X1429385Y-12355617D01*
X1429385Y-12355617D02*
X1419861Y-12365141D01*
X1419861Y-12365141D02*
X1400814Y-12374664D01*
X1400814Y-12374664D02*
X1381766Y-12374664D01*
X1381766Y-12374664D02*
X1362719Y-12365141D01*
X1362719Y-12365141D02*
X1353195Y-12355617D01*
X1353195Y-12355617D02*
X1343671Y-12336569D01*
X1343671Y-12336569D02*
X1334147Y-12298474D01*
X1334147Y-12298474D02*
X1334147Y-12250855D01*
X1334147Y-12250855D02*
X1343671Y-12212760D01*
X1343671Y-12212760D02*
X1353195Y-12193712D01*
X1353195Y-12193712D02*
X1362719Y-12184188D01*
X1362719Y-12184188D02*
X1381766Y-12174664D01*
X1534147Y-12355617D02*
X1543671Y-12365141D01*
X1543671Y-12365141D02*
X1534147Y-12374664D01*
X1534147Y-12374664D02*
X1524623Y-12365141D01*
X1524623Y-12365141D02*
X1534147Y-12355617D01*
X1534147Y-12355617D02*
X1534147Y-12374664D01*
X1667480Y-12174664D02*
X1686528Y-12174664D01*
X1686528Y-12174664D02*
X1705576Y-12184188D01*
X1705576Y-12184188D02*
X1715099Y-12193712D01*
X1715099Y-12193712D02*
X1724623Y-12212760D01*
X1724623Y-12212760D02*
X1734147Y-12250855D01*
X1734147Y-12250855D02*
X1734147Y-12298474D01*
X1734147Y-12298474D02*
X1724623Y-12336569D01*
X1724623Y-12336569D02*
X1715099Y-12355617D01*
X1715099Y-12355617D02*
X1705576Y-12365141D01*
X1705576Y-12365141D02*
X1686528Y-12374664D01*
X1686528Y-12374664D02*
X1667480Y-12374664D01*
X1667480Y-12374664D02*
X1648433Y-12365141D01*
X1648433Y-12365141D02*
X1638909Y-12355617D01*
X1638909Y-12355617D02*
X1629385Y-12336569D01*
X1629385Y-12336569D02*
X1619861Y-12298474D01*
X1619861Y-12298474D02*
X1619861Y-12250855D01*
X1619861Y-12250855D02*
X1629385Y-12212760D01*
X1629385Y-12212760D02*
X1638909Y-12193712D01*
X1638909Y-12193712D02*
X1648433Y-12184188D01*
X1648433Y-12184188D02*
X1667480Y-12174664D01*
X1924623Y-12374664D02*
X1810338Y-12374664D01*
X1867480Y-12374664D02*
X1867480Y-12174664D01*
X1867480Y-12174664D02*
X1848433Y-12203236D01*
X1848433Y-12203236D02*
X1829385Y-12222283D01*
X1829385Y-12222283D02*
X1810338Y-12231807D01*
X2115100Y-12374664D02*
X2000814Y-12374664D01*
X2057957Y-12374664D02*
X2057957Y-12174664D01*
X2057957Y-12174664D02*
X2038909Y-12203236D01*
X2038909Y-12203236D02*
X2019861Y-12222283D01*
X2019861Y-12222283D02*
X2000814Y-12231807D01*
X2229385Y-12260379D02*
X2210338Y-12250855D01*
X2210338Y-12250855D02*
X2200814Y-12241331D01*
X2200814Y-12241331D02*
X2191290Y-12222283D01*
X2191290Y-12222283D02*
X2191290Y-12212760D01*
X2191290Y-12212760D02*
X2200814Y-12193712D01*
X2200814Y-12193712D02*
X2210338Y-12184188D01*
X2210338Y-12184188D02*
X2229385Y-12174664D01*
X2229385Y-12174664D02*
X2267481Y-12174664D01*
X2267481Y-12174664D02*
X2286528Y-12184188D01*
X2286528Y-12184188D02*
X2296052Y-12193712D01*
X2296052Y-12193712D02*
X2305576Y-12212760D01*
X2305576Y-12212760D02*
X2305576Y-12222283D01*
X2305576Y-12222283D02*
X2296052Y-12241331D01*
X2296052Y-12241331D02*
X2286528Y-12250855D01*
X2286528Y-12250855D02*
X2267481Y-12260379D01*
X2267481Y-12260379D02*
X2229385Y-12260379D01*
X2229385Y-12260379D02*
X2210338Y-12269902D01*
X2210338Y-12269902D02*
X2200814Y-12279426D01*
X2200814Y-12279426D02*
X2191290Y-12298474D01*
X2191290Y-12298474D02*
X2191290Y-12336569D01*
X2191290Y-12336569D02*
X2200814Y-12355617D01*
X2200814Y-12355617D02*
X2210338Y-12365141D01*
X2210338Y-12365141D02*
X2229385Y-12374664D01*
X2229385Y-12374664D02*
X2267481Y-12374664D01*
X2267481Y-12374664D02*
X2286528Y-12365141D01*
X2286528Y-12365141D02*
X2296052Y-12355617D01*
X2296052Y-12355617D02*
X2305576Y-12336569D01*
X2305576Y-12336569D02*
X2305576Y-12298474D01*
X2305576Y-12298474D02*
X2296052Y-12279426D01*
X2296052Y-12279426D02*
X2286528Y-12269902D01*
X2286528Y-12269902D02*
X2267481Y-12260379D01*
X2381766Y-12174664D02*
X2381766Y-12212760D01*
X2457957Y-12174664D02*
X2457957Y-12212760D01*
X2753195Y-12450855D02*
X2743671Y-12441331D01*
X2743671Y-12441331D02*
X2724623Y-12412760D01*
X2724623Y-12412760D02*
X2715100Y-12393712D01*
X2715100Y-12393712D02*
X2705576Y-12365141D01*
X2705576Y-12365141D02*
X2696052Y-12317521D01*
X2696052Y-12317521D02*
X2696052Y-12279426D01*
X2696052Y-12279426D02*
X2705576Y-12231807D01*
X2705576Y-12231807D02*
X2715100Y-12203236D01*
X2715100Y-12203236D02*
X2724623Y-12184188D01*
X2724623Y-12184188D02*
X2743671Y-12155617D01*
X2743671Y-12155617D02*
X2753195Y-12146093D01*
X2934147Y-12374664D02*
X2819861Y-12374664D01*
X2877004Y-12374664D02*
X2877004Y-12174664D01*
X2877004Y-12174664D02*
X2857957Y-12203236D01*
X2857957Y-12203236D02*
X2838909Y-12222283D01*
X2838909Y-12222283D02*
X2819861Y-12231807D01*
X3115100Y-12174664D02*
X3019861Y-12174664D01*
X3019861Y-12174664D02*
X3010338Y-12269902D01*
X3010338Y-12269902D02*
X3019861Y-12260379D01*
X3019861Y-12260379D02*
X3038909Y-12250855D01*
X3038909Y-12250855D02*
X3086528Y-12250855D01*
X3086528Y-12250855D02*
X3105576Y-12260379D01*
X3105576Y-12260379D02*
X3115100Y-12269902D01*
X3115100Y-12269902D02*
X3124623Y-12288950D01*
X3124623Y-12288950D02*
X3124623Y-12336569D01*
X3124623Y-12336569D02*
X3115100Y-12355617D01*
X3115100Y-12355617D02*
X3105576Y-12365141D01*
X3105576Y-12365141D02*
X3086528Y-12374664D01*
X3086528Y-12374664D02*
X3038909Y-12374664D01*
X3038909Y-12374664D02*
X3019861Y-12365141D01*
X3019861Y-12365141D02*
X3010338Y-12355617D01*
X3248433Y-12174664D02*
X3267481Y-12174664D01*
X3267481Y-12174664D02*
X3286528Y-12184188D01*
X3286528Y-12184188D02*
X3296052Y-12193712D01*
X3296052Y-12193712D02*
X3305576Y-12212760D01*
X3305576Y-12212760D02*
X3315100Y-12250855D01*
X3315100Y-12250855D02*
X3315100Y-12298474D01*
X3315100Y-12298474D02*
X3305576Y-12336569D01*
X3305576Y-12336569D02*
X3296052Y-12355617D01*
X3296052Y-12355617D02*
X3286528Y-12365141D01*
X3286528Y-12365141D02*
X3267481Y-12374664D01*
X3267481Y-12374664D02*
X3248433Y-12374664D01*
X3248433Y-12374664D02*
X3229385Y-12365141D01*
X3229385Y-12365141D02*
X3219861Y-12355617D01*
X3219861Y-12355617D02*
X3210338Y-12336569D01*
X3210338Y-12336569D02*
X3200814Y-12298474D01*
X3200814Y-12298474D02*
X3200814Y-12250855D01*
X3200814Y-12250855D02*
X3210338Y-12212760D01*
X3210338Y-12212760D02*
X3219861Y-12193712D01*
X3219861Y-12193712D02*
X3229385Y-12184188D01*
X3229385Y-12184188D02*
X3248433Y-12174664D01*
X3553195Y-12374664D02*
X3553195Y-12174664D01*
X3638909Y-12374664D02*
X3638909Y-12269902D01*
X3638909Y-12269902D02*
X3629385Y-12250855D01*
X3629385Y-12250855D02*
X3610338Y-12241331D01*
X3610338Y-12241331D02*
X3581766Y-12241331D01*
X3581766Y-12241331D02*
X3562719Y-12250855D01*
X3562719Y-12250855D02*
X3553195Y-12260379D01*
X3762719Y-12374664D02*
X3743671Y-12365141D01*
X3743671Y-12365141D02*
X3734147Y-12355617D01*
X3734147Y-12355617D02*
X3724623Y-12336569D01*
X3724623Y-12336569D02*
X3724623Y-12279426D01*
X3724623Y-12279426D02*
X3734147Y-12260379D01*
X3734147Y-12260379D02*
X3743671Y-12250855D01*
X3743671Y-12250855D02*
X3762719Y-12241331D01*
X3762719Y-12241331D02*
X3791290Y-12241331D01*
X3791290Y-12241331D02*
X3810338Y-12250855D01*
X3810338Y-12250855D02*
X3819862Y-12260379D01*
X3819862Y-12260379D02*
X3829385Y-12279426D01*
X3829385Y-12279426D02*
X3829385Y-12336569D01*
X3829385Y-12336569D02*
X3819862Y-12355617D01*
X3819862Y-12355617D02*
X3810338Y-12365141D01*
X3810338Y-12365141D02*
X3791290Y-12374664D01*
X3791290Y-12374664D02*
X3762719Y-12374664D01*
X3943671Y-12374664D02*
X3924623Y-12365141D01*
X3924623Y-12365141D02*
X3915100Y-12346093D01*
X3915100Y-12346093D02*
X3915100Y-12174664D01*
X4096052Y-12365141D02*
X4077004Y-12374664D01*
X4077004Y-12374664D02*
X4038909Y-12374664D01*
X4038909Y-12374664D02*
X4019862Y-12365141D01*
X4019862Y-12365141D02*
X4010338Y-12346093D01*
X4010338Y-12346093D02*
X4010338Y-12269902D01*
X4010338Y-12269902D02*
X4019862Y-12250855D01*
X4019862Y-12250855D02*
X4038909Y-12241331D01*
X4038909Y-12241331D02*
X4077004Y-12241331D01*
X4077004Y-12241331D02*
X4096052Y-12250855D01*
X4096052Y-12250855D02*
X4105576Y-12269902D01*
X4105576Y-12269902D02*
X4105576Y-12288950D01*
X4105576Y-12288950D02*
X4010338Y-12307998D01*
X4181766Y-12365141D02*
X4200814Y-12374664D01*
X4200814Y-12374664D02*
X4238909Y-12374664D01*
X4238909Y-12374664D02*
X4257957Y-12365141D01*
X4257957Y-12365141D02*
X4267481Y-12346093D01*
X4267481Y-12346093D02*
X4267481Y-12336569D01*
X4267481Y-12336569D02*
X4257957Y-12317521D01*
X4257957Y-12317521D02*
X4238909Y-12307998D01*
X4238909Y-12307998D02*
X4210338Y-12307998D01*
X4210338Y-12307998D02*
X4191290Y-12298474D01*
X4191290Y-12298474D02*
X4181766Y-12279426D01*
X4181766Y-12279426D02*
X4181766Y-12269902D01*
X4181766Y-12269902D02*
X4191290Y-12250855D01*
X4191290Y-12250855D02*
X4210338Y-12241331D01*
X4210338Y-12241331D02*
X4238909Y-12241331D01*
X4238909Y-12241331D02*
X4257957Y-12250855D01*
X4334147Y-12450855D02*
X4343671Y-12441331D01*
X4343671Y-12441331D02*
X4362719Y-12412760D01*
X4362719Y-12412760D02*
X4372243Y-12393712D01*
X4372243Y-12393712D02*
X4381766Y-12365141D01*
X4381766Y-12365141D02*
X4391290Y-12317521D01*
X4391290Y-12317521D02*
X4391290Y-12279426D01*
X4391290Y-12279426D02*
X4381766Y-12231807D01*
X4381766Y-12231807D02*
X4372243Y-12203236D01*
X4372243Y-12203236D02*
X4362719Y-12184188D01*
X4362719Y-12184188D02*
X4343671Y-12155617D01*
X4343671Y-12155617D02*
X4334147Y-12146093D01*
D12*
X-821868Y-12547181D02*
G75*
G02*
X-851868Y-12547181I-15000J0D01*
G01*
X-851868Y-12547181D02*
G75*
G02*
X-821868Y-12547181I15000J0D01*
G01*
D11*
X-522996Y-12438664D02*
X-503948Y-12438664D01*
X-503948Y-12438664D02*
X-484901Y-12448188D01*
X-484901Y-12448188D02*
X-475377Y-12457712D01*
X-475377Y-12457712D02*
X-465853Y-12476760D01*
X-465853Y-12476760D02*
X-456329Y-12514855D01*
X-456329Y-12514855D02*
X-456329Y-12562474D01*
X-456329Y-12562474D02*
X-465853Y-12600569D01*
X-465853Y-12600569D02*
X-475377Y-12619617D01*
X-475377Y-12619617D02*
X-484901Y-12629141D01*
X-484901Y-12629141D02*
X-503948Y-12638664D01*
X-503948Y-12638664D02*
X-522996Y-12638664D01*
X-522996Y-12638664D02*
X-542044Y-12629141D01*
X-542044Y-12629141D02*
X-551567Y-12619617D01*
X-551567Y-12619617D02*
X-561091Y-12600569D01*
X-561091Y-12600569D02*
X-570615Y-12562474D01*
X-570615Y-12562474D02*
X-570615Y-12514855D01*
X-570615Y-12514855D02*
X-561091Y-12476760D01*
X-561091Y-12476760D02*
X-551567Y-12457712D01*
X-551567Y-12457712D02*
X-542044Y-12448188D01*
X-542044Y-12448188D02*
X-522996Y-12438664D01*
X-370615Y-12619617D02*
X-361091Y-12629141D01*
X-361091Y-12629141D02*
X-370615Y-12638664D01*
X-370615Y-12638664D02*
X-380139Y-12629141D01*
X-380139Y-12629141D02*
X-370615Y-12619617D01*
X-370615Y-12619617D02*
X-370615Y-12638664D01*
X-294425Y-12438664D02*
X-170615Y-12438664D01*
X-170615Y-12438664D02*
X-237282Y-12514855D01*
X-237282Y-12514855D02*
X-208710Y-12514855D01*
X-208710Y-12514855D02*
X-189663Y-12524379D01*
X-189663Y-12524379D02*
X-180139Y-12533902D01*
X-180139Y-12533902D02*
X-170615Y-12552950D01*
X-170615Y-12552950D02*
X-170615Y-12600569D01*
X-170615Y-12600569D02*
X-180139Y-12619617D01*
X-180139Y-12619617D02*
X-189663Y-12629141D01*
X-189663Y-12629141D02*
X-208710Y-12638664D01*
X-208710Y-12638664D02*
X-265853Y-12638664D01*
X-265853Y-12638664D02*
X-284901Y-12629141D01*
X-284901Y-12629141D02*
X-294425Y-12619617D01*
X-46805Y-12438664D02*
X-27758Y-12438664D01*
X-27758Y-12438664D02*
X-8710Y-12448188D01*
X-8710Y-12448188D02*
X814Y-12457712D01*
X814Y-12457712D02*
X10337Y-12476760D01*
X10337Y-12476760D02*
X19861Y-12514855D01*
X19861Y-12514855D02*
X19861Y-12562474D01*
X19861Y-12562474D02*
X10337Y-12600569D01*
X10337Y-12600569D02*
X814Y-12619617D01*
X814Y-12619617D02*
X-8710Y-12629141D01*
X-8710Y-12629141D02*
X-27758Y-12638664D01*
X-27758Y-12638664D02*
X-46805Y-12638664D01*
X-46805Y-12638664D02*
X-65853Y-12629141D01*
X-65853Y-12629141D02*
X-75377Y-12619617D01*
X-75377Y-12619617D02*
X-84901Y-12600569D01*
X-84901Y-12600569D02*
X-94424Y-12562474D01*
X-94424Y-12562474D02*
X-94424Y-12514855D01*
X-94424Y-12514855D02*
X-84901Y-12476760D01*
X-84901Y-12476760D02*
X-75377Y-12457712D01*
X-75377Y-12457712D02*
X-65853Y-12448188D01*
X-65853Y-12448188D02*
X-46805Y-12438664D01*
X143671Y-12438664D02*
X162718Y-12438664D01*
X162718Y-12438664D02*
X181766Y-12448188D01*
X181766Y-12448188D02*
X191290Y-12457712D01*
X191290Y-12457712D02*
X200814Y-12476760D01*
X200814Y-12476760D02*
X210337Y-12514855D01*
X210337Y-12514855D02*
X210337Y-12562474D01*
X210337Y-12562474D02*
X200814Y-12600569D01*
X200814Y-12600569D02*
X191290Y-12619617D01*
X191290Y-12619617D02*
X181766Y-12629141D01*
X181766Y-12629141D02*
X162718Y-12638664D01*
X162718Y-12638664D02*
X143671Y-12638664D01*
X143671Y-12638664D02*
X124623Y-12629141D01*
X124623Y-12629141D02*
X115099Y-12619617D01*
X115099Y-12619617D02*
X105575Y-12600569D01*
X105575Y-12600569D02*
X96052Y-12562474D01*
X96052Y-12562474D02*
X96052Y-12514855D01*
X96052Y-12514855D02*
X105575Y-12476760D01*
X105575Y-12476760D02*
X115099Y-12457712D01*
X115099Y-12457712D02*
X124623Y-12448188D01*
X124623Y-12448188D02*
X143671Y-12438664D01*
X296052Y-12638664D02*
X296052Y-12505331D01*
X296052Y-12524379D02*
X305576Y-12514855D01*
X305576Y-12514855D02*
X324623Y-12505331D01*
X324623Y-12505331D02*
X353195Y-12505331D01*
X353195Y-12505331D02*
X372242Y-12514855D01*
X372242Y-12514855D02*
X381766Y-12533902D01*
X381766Y-12533902D02*
X381766Y-12638664D01*
X381766Y-12533902D02*
X391290Y-12514855D01*
X391290Y-12514855D02*
X410337Y-12505331D01*
X410337Y-12505331D02*
X438909Y-12505331D01*
X438909Y-12505331D02*
X457956Y-12514855D01*
X457956Y-12514855D02*
X467480Y-12533902D01*
X467480Y-12533902D02*
X467480Y-12638664D01*
X562718Y-12638664D02*
X562718Y-12505331D01*
X562718Y-12524379D02*
X572242Y-12514855D01*
X572242Y-12514855D02*
X591290Y-12505331D01*
X591290Y-12505331D02*
X619861Y-12505331D01*
X619861Y-12505331D02*
X638909Y-12514855D01*
X638909Y-12514855D02*
X648433Y-12533902D01*
X648433Y-12533902D02*
X648433Y-12638664D01*
X648433Y-12533902D02*
X657957Y-12514855D01*
X657957Y-12514855D02*
X677004Y-12505331D01*
X677004Y-12505331D02*
X705575Y-12505331D01*
X705575Y-12505331D02*
X724623Y-12514855D01*
X724623Y-12514855D02*
X734147Y-12533902D01*
X734147Y-12533902D02*
X734147Y-12638664D01*
X1124623Y-12429141D02*
X953195Y-12686283D01*
X1381766Y-12438664D02*
X1400814Y-12438664D01*
X1400814Y-12438664D02*
X1419861Y-12448188D01*
X1419861Y-12448188D02*
X1429385Y-12457712D01*
X1429385Y-12457712D02*
X1438909Y-12476760D01*
X1438909Y-12476760D02*
X1448433Y-12514855D01*
X1448433Y-12514855D02*
X1448433Y-12562474D01*
X1448433Y-12562474D02*
X1438909Y-12600569D01*
X1438909Y-12600569D02*
X1429385Y-12619617D01*
X1429385Y-12619617D02*
X1419861Y-12629141D01*
X1419861Y-12629141D02*
X1400814Y-12638664D01*
X1400814Y-12638664D02*
X1381766Y-12638664D01*
X1381766Y-12638664D02*
X1362719Y-12629141D01*
X1362719Y-12629141D02*
X1353195Y-12619617D01*
X1353195Y-12619617D02*
X1343671Y-12600569D01*
X1343671Y-12600569D02*
X1334147Y-12562474D01*
X1334147Y-12562474D02*
X1334147Y-12514855D01*
X1334147Y-12514855D02*
X1343671Y-12476760D01*
X1343671Y-12476760D02*
X1353195Y-12457712D01*
X1353195Y-12457712D02*
X1362719Y-12448188D01*
X1362719Y-12448188D02*
X1381766Y-12438664D01*
X1534147Y-12619617D02*
X1543671Y-12629141D01*
X1543671Y-12629141D02*
X1534147Y-12638664D01*
X1534147Y-12638664D02*
X1524623Y-12629141D01*
X1524623Y-12629141D02*
X1534147Y-12619617D01*
X1534147Y-12619617D02*
X1534147Y-12638664D01*
X1667480Y-12438664D02*
X1686528Y-12438664D01*
X1686528Y-12438664D02*
X1705576Y-12448188D01*
X1705576Y-12448188D02*
X1715099Y-12457712D01*
X1715099Y-12457712D02*
X1724623Y-12476760D01*
X1724623Y-12476760D02*
X1734147Y-12514855D01*
X1734147Y-12514855D02*
X1734147Y-12562474D01*
X1734147Y-12562474D02*
X1724623Y-12600569D01*
X1724623Y-12600569D02*
X1715099Y-12619617D01*
X1715099Y-12619617D02*
X1705576Y-12629141D01*
X1705576Y-12629141D02*
X1686528Y-12638664D01*
X1686528Y-12638664D02*
X1667480Y-12638664D01*
X1667480Y-12638664D02*
X1648433Y-12629141D01*
X1648433Y-12629141D02*
X1638909Y-12619617D01*
X1638909Y-12619617D02*
X1629385Y-12600569D01*
X1629385Y-12600569D02*
X1619861Y-12562474D01*
X1619861Y-12562474D02*
X1619861Y-12514855D01*
X1619861Y-12514855D02*
X1629385Y-12476760D01*
X1629385Y-12476760D02*
X1638909Y-12457712D01*
X1638909Y-12457712D02*
X1648433Y-12448188D01*
X1648433Y-12448188D02*
X1667480Y-12438664D01*
X1924623Y-12638664D02*
X1810338Y-12638664D01*
X1867480Y-12638664D02*
X1867480Y-12438664D01*
X1867480Y-12438664D02*
X1848433Y-12467236D01*
X1848433Y-12467236D02*
X1829385Y-12486283D01*
X1829385Y-12486283D02*
X1810338Y-12495807D01*
X2115100Y-12638664D02*
X2000814Y-12638664D01*
X2057957Y-12638664D02*
X2057957Y-12438664D01*
X2057957Y-12438664D02*
X2038909Y-12467236D01*
X2038909Y-12467236D02*
X2019861Y-12486283D01*
X2019861Y-12486283D02*
X2000814Y-12495807D01*
X2229385Y-12524379D02*
X2210338Y-12514855D01*
X2210338Y-12514855D02*
X2200814Y-12505331D01*
X2200814Y-12505331D02*
X2191290Y-12486283D01*
X2191290Y-12486283D02*
X2191290Y-12476760D01*
X2191290Y-12476760D02*
X2200814Y-12457712D01*
X2200814Y-12457712D02*
X2210338Y-12448188D01*
X2210338Y-12448188D02*
X2229385Y-12438664D01*
X2229385Y-12438664D02*
X2267481Y-12438664D01*
X2267481Y-12438664D02*
X2286528Y-12448188D01*
X2286528Y-12448188D02*
X2296052Y-12457712D01*
X2296052Y-12457712D02*
X2305576Y-12476760D01*
X2305576Y-12476760D02*
X2305576Y-12486283D01*
X2305576Y-12486283D02*
X2296052Y-12505331D01*
X2296052Y-12505331D02*
X2286528Y-12514855D01*
X2286528Y-12514855D02*
X2267481Y-12524379D01*
X2267481Y-12524379D02*
X2229385Y-12524379D01*
X2229385Y-12524379D02*
X2210338Y-12533902D01*
X2210338Y-12533902D02*
X2200814Y-12543426D01*
X2200814Y-12543426D02*
X2191290Y-12562474D01*
X2191290Y-12562474D02*
X2191290Y-12600569D01*
X2191290Y-12600569D02*
X2200814Y-12619617D01*
X2200814Y-12619617D02*
X2210338Y-12629141D01*
X2210338Y-12629141D02*
X2229385Y-12638664D01*
X2229385Y-12638664D02*
X2267481Y-12638664D01*
X2267481Y-12638664D02*
X2286528Y-12629141D01*
X2286528Y-12629141D02*
X2296052Y-12619617D01*
X2296052Y-12619617D02*
X2305576Y-12600569D01*
X2305576Y-12600569D02*
X2305576Y-12562474D01*
X2305576Y-12562474D02*
X2296052Y-12543426D01*
X2296052Y-12543426D02*
X2286528Y-12533902D01*
X2286528Y-12533902D02*
X2267481Y-12524379D01*
X2381766Y-12438664D02*
X2381766Y-12476760D01*
X2457957Y-12438664D02*
X2457957Y-12476760D01*
X2753195Y-12714855D02*
X2743671Y-12705331D01*
X2743671Y-12705331D02*
X2724623Y-12676760D01*
X2724623Y-12676760D02*
X2715100Y-12657712D01*
X2715100Y-12657712D02*
X2705576Y-12629141D01*
X2705576Y-12629141D02*
X2696052Y-12581521D01*
X2696052Y-12581521D02*
X2696052Y-12543426D01*
X2696052Y-12543426D02*
X2705576Y-12495807D01*
X2705576Y-12495807D02*
X2715100Y-12467236D01*
X2715100Y-12467236D02*
X2724623Y-12448188D01*
X2724623Y-12448188D02*
X2743671Y-12419617D01*
X2743671Y-12419617D02*
X2753195Y-12410093D01*
X2838909Y-12638664D02*
X2877004Y-12638664D01*
X2877004Y-12638664D02*
X2896052Y-12629141D01*
X2896052Y-12629141D02*
X2905576Y-12619617D01*
X2905576Y-12619617D02*
X2924623Y-12591045D01*
X2924623Y-12591045D02*
X2934147Y-12552950D01*
X2934147Y-12552950D02*
X2934147Y-12476760D01*
X2934147Y-12476760D02*
X2924623Y-12457712D01*
X2924623Y-12457712D02*
X2915100Y-12448188D01*
X2915100Y-12448188D02*
X2896052Y-12438664D01*
X2896052Y-12438664D02*
X2857957Y-12438664D01*
X2857957Y-12438664D02*
X2838909Y-12448188D01*
X2838909Y-12448188D02*
X2829385Y-12457712D01*
X2829385Y-12457712D02*
X2819861Y-12476760D01*
X2819861Y-12476760D02*
X2819861Y-12524379D01*
X2819861Y-12524379D02*
X2829385Y-12543426D01*
X2829385Y-12543426D02*
X2838909Y-12552950D01*
X2838909Y-12552950D02*
X2857957Y-12562474D01*
X2857957Y-12562474D02*
X2896052Y-12562474D01*
X2896052Y-12562474D02*
X2915100Y-12552950D01*
X2915100Y-12552950D02*
X2924623Y-12543426D01*
X2924623Y-12543426D02*
X2934147Y-12524379D01*
X3172242Y-12638664D02*
X3172242Y-12438664D01*
X3257957Y-12638664D02*
X3257957Y-12533902D01*
X3257957Y-12533902D02*
X3248433Y-12514855D01*
X3248433Y-12514855D02*
X3229385Y-12505331D01*
X3229385Y-12505331D02*
X3200814Y-12505331D01*
X3200814Y-12505331D02*
X3181766Y-12514855D01*
X3181766Y-12514855D02*
X3172242Y-12524379D01*
X3381766Y-12638664D02*
X3362719Y-12629141D01*
X3362719Y-12629141D02*
X3353195Y-12619617D01*
X3353195Y-12619617D02*
X3343671Y-12600569D01*
X3343671Y-12600569D02*
X3343671Y-12543426D01*
X3343671Y-12543426D02*
X3353195Y-12524379D01*
X3353195Y-12524379D02*
X3362719Y-12514855D01*
X3362719Y-12514855D02*
X3381766Y-12505331D01*
X3381766Y-12505331D02*
X3410338Y-12505331D01*
X3410338Y-12505331D02*
X3429385Y-12514855D01*
X3429385Y-12514855D02*
X3438909Y-12524379D01*
X3438909Y-12524379D02*
X3448433Y-12543426D01*
X3448433Y-12543426D02*
X3448433Y-12600569D01*
X3448433Y-12600569D02*
X3438909Y-12619617D01*
X3438909Y-12619617D02*
X3429385Y-12629141D01*
X3429385Y-12629141D02*
X3410338Y-12638664D01*
X3410338Y-12638664D02*
X3381766Y-12638664D01*
X3562719Y-12638664D02*
X3543671Y-12629141D01*
X3543671Y-12629141D02*
X3534147Y-12610093D01*
X3534147Y-12610093D02*
X3534147Y-12438664D01*
X3715100Y-12629141D02*
X3696052Y-12638664D01*
X3696052Y-12638664D02*
X3657957Y-12638664D01*
X3657957Y-12638664D02*
X3638909Y-12629141D01*
X3638909Y-12629141D02*
X3629385Y-12610093D01*
X3629385Y-12610093D02*
X3629385Y-12533902D01*
X3629385Y-12533902D02*
X3638909Y-12514855D01*
X3638909Y-12514855D02*
X3657957Y-12505331D01*
X3657957Y-12505331D02*
X3696052Y-12505331D01*
X3696052Y-12505331D02*
X3715100Y-12514855D01*
X3715100Y-12514855D02*
X3724623Y-12533902D01*
X3724623Y-12533902D02*
X3724623Y-12552950D01*
X3724623Y-12552950D02*
X3629385Y-12571998D01*
X3800814Y-12629141D02*
X3819862Y-12638664D01*
X3819862Y-12638664D02*
X3857957Y-12638664D01*
X3857957Y-12638664D02*
X3877004Y-12629141D01*
X3877004Y-12629141D02*
X3886528Y-12610093D01*
X3886528Y-12610093D02*
X3886528Y-12600569D01*
X3886528Y-12600569D02*
X3877004Y-12581521D01*
X3877004Y-12581521D02*
X3857957Y-12571998D01*
X3857957Y-12571998D02*
X3829385Y-12571998D01*
X3829385Y-12571998D02*
X3810338Y-12562474D01*
X3810338Y-12562474D02*
X3800814Y-12543426D01*
X3800814Y-12543426D02*
X3800814Y-12533902D01*
X3800814Y-12533902D02*
X3810338Y-12514855D01*
X3810338Y-12514855D02*
X3829385Y-12505331D01*
X3829385Y-12505331D02*
X3857957Y-12505331D01*
X3857957Y-12505331D02*
X3877004Y-12514855D01*
X3953195Y-12714855D02*
X3962719Y-12705331D01*
X3962719Y-12705331D02*
X3981766Y-12676760D01*
X3981766Y-12676760D02*
X3991290Y-12657712D01*
X3991290Y-12657712D02*
X4000814Y-12629141D01*
X4000814Y-12629141D02*
X4010338Y-12581521D01*
X4010338Y-12581521D02*
X4010338Y-12543426D01*
X4010338Y-12543426D02*
X4000814Y-12495807D01*
X4000814Y-12495807D02*
X3991290Y-12467236D01*
X3991290Y-12467236D02*
X3981766Y-12448188D01*
X3981766Y-12448188D02*
X3962719Y-12419617D01*
X3962719Y-12419617D02*
X3953195Y-12410093D01*
D12*
X-851868Y-12781181D02*
X-851868Y-12841181D01*
X-881868Y-12811181D02*
X-821868Y-12811181D01*
D11*
X-522996Y-12702664D02*
X-503948Y-12702664D01*
X-503948Y-12702664D02*
X-484901Y-12712188D01*
X-484901Y-12712188D02*
X-475377Y-12721712D01*
X-475377Y-12721712D02*
X-465853Y-12740760D01*
X-465853Y-12740760D02*
X-456329Y-12778855D01*
X-456329Y-12778855D02*
X-456329Y-12826474D01*
X-456329Y-12826474D02*
X-465853Y-12864569D01*
X-465853Y-12864569D02*
X-475377Y-12883617D01*
X-475377Y-12883617D02*
X-484901Y-12893141D01*
X-484901Y-12893141D02*
X-503948Y-12902664D01*
X-503948Y-12902664D02*
X-522996Y-12902664D01*
X-522996Y-12902664D02*
X-542044Y-12893141D01*
X-542044Y-12893141D02*
X-551567Y-12883617D01*
X-551567Y-12883617D02*
X-561091Y-12864569D01*
X-561091Y-12864569D02*
X-570615Y-12826474D01*
X-570615Y-12826474D02*
X-570615Y-12778855D01*
X-570615Y-12778855D02*
X-561091Y-12740760D01*
X-561091Y-12740760D02*
X-551567Y-12721712D01*
X-551567Y-12721712D02*
X-542044Y-12712188D01*
X-542044Y-12712188D02*
X-522996Y-12702664D01*
X-370615Y-12883617D02*
X-361091Y-12893141D01*
X-361091Y-12893141D02*
X-370615Y-12902664D01*
X-370615Y-12902664D02*
X-380139Y-12893141D01*
X-380139Y-12893141D02*
X-370615Y-12883617D01*
X-370615Y-12883617D02*
X-370615Y-12902664D01*
X-189663Y-12702664D02*
X-227758Y-12702664D01*
X-227758Y-12702664D02*
X-246805Y-12712188D01*
X-246805Y-12712188D02*
X-256329Y-12721712D01*
X-256329Y-12721712D02*
X-275377Y-12750283D01*
X-275377Y-12750283D02*
X-284901Y-12788379D01*
X-284901Y-12788379D02*
X-284901Y-12864569D01*
X-284901Y-12864569D02*
X-275377Y-12883617D01*
X-275377Y-12883617D02*
X-265853Y-12893141D01*
X-265853Y-12893141D02*
X-246805Y-12902664D01*
X-246805Y-12902664D02*
X-208710Y-12902664D01*
X-208710Y-12902664D02*
X-189663Y-12893141D01*
X-189663Y-12893141D02*
X-180139Y-12883617D01*
X-180139Y-12883617D02*
X-170615Y-12864569D01*
X-170615Y-12864569D02*
X-170615Y-12816950D01*
X-170615Y-12816950D02*
X-180139Y-12797902D01*
X-180139Y-12797902D02*
X-189663Y-12788379D01*
X-189663Y-12788379D02*
X-208710Y-12778855D01*
X-208710Y-12778855D02*
X-246805Y-12778855D01*
X-246805Y-12778855D02*
X-265853Y-12788379D01*
X-265853Y-12788379D02*
X-275377Y-12797902D01*
X-275377Y-12797902D02*
X-284901Y-12816950D01*
X-46805Y-12702664D02*
X-27758Y-12702664D01*
X-27758Y-12702664D02*
X-8710Y-12712188D01*
X-8710Y-12712188D02*
X814Y-12721712D01*
X814Y-12721712D02*
X10337Y-12740760D01*
X10337Y-12740760D02*
X19861Y-12778855D01*
X19861Y-12778855D02*
X19861Y-12826474D01*
X19861Y-12826474D02*
X10337Y-12864569D01*
X10337Y-12864569D02*
X814Y-12883617D01*
X814Y-12883617D02*
X-8710Y-12893141D01*
X-8710Y-12893141D02*
X-27758Y-12902664D01*
X-27758Y-12902664D02*
X-46805Y-12902664D01*
X-46805Y-12902664D02*
X-65853Y-12893141D01*
X-65853Y-12893141D02*
X-75377Y-12883617D01*
X-75377Y-12883617D02*
X-84901Y-12864569D01*
X-84901Y-12864569D02*
X-94424Y-12826474D01*
X-94424Y-12826474D02*
X-94424Y-12778855D01*
X-94424Y-12778855D02*
X-84901Y-12740760D01*
X-84901Y-12740760D02*
X-75377Y-12721712D01*
X-75377Y-12721712D02*
X-65853Y-12712188D01*
X-65853Y-12712188D02*
X-46805Y-12702664D01*
X143671Y-12702664D02*
X162718Y-12702664D01*
X162718Y-12702664D02*
X181766Y-12712188D01*
X181766Y-12712188D02*
X191290Y-12721712D01*
X191290Y-12721712D02*
X200814Y-12740760D01*
X200814Y-12740760D02*
X210337Y-12778855D01*
X210337Y-12778855D02*
X210337Y-12826474D01*
X210337Y-12826474D02*
X200814Y-12864569D01*
X200814Y-12864569D02*
X191290Y-12883617D01*
X191290Y-12883617D02*
X181766Y-12893141D01*
X181766Y-12893141D02*
X162718Y-12902664D01*
X162718Y-12902664D02*
X143671Y-12902664D01*
X143671Y-12902664D02*
X124623Y-12893141D01*
X124623Y-12893141D02*
X115099Y-12883617D01*
X115099Y-12883617D02*
X105575Y-12864569D01*
X105575Y-12864569D02*
X96052Y-12826474D01*
X96052Y-12826474D02*
X96052Y-12778855D01*
X96052Y-12778855D02*
X105575Y-12740760D01*
X105575Y-12740760D02*
X115099Y-12721712D01*
X115099Y-12721712D02*
X124623Y-12712188D01*
X124623Y-12712188D02*
X143671Y-12702664D01*
X296052Y-12902664D02*
X296052Y-12769331D01*
X296052Y-12788379D02*
X305576Y-12778855D01*
X305576Y-12778855D02*
X324623Y-12769331D01*
X324623Y-12769331D02*
X353195Y-12769331D01*
X353195Y-12769331D02*
X372242Y-12778855D01*
X372242Y-12778855D02*
X381766Y-12797902D01*
X381766Y-12797902D02*
X381766Y-12902664D01*
X381766Y-12797902D02*
X391290Y-12778855D01*
X391290Y-12778855D02*
X410337Y-12769331D01*
X410337Y-12769331D02*
X438909Y-12769331D01*
X438909Y-12769331D02*
X457956Y-12778855D01*
X457956Y-12778855D02*
X467480Y-12797902D01*
X467480Y-12797902D02*
X467480Y-12902664D01*
X562718Y-12902664D02*
X562718Y-12769331D01*
X562718Y-12788379D02*
X572242Y-12778855D01*
X572242Y-12778855D02*
X591290Y-12769331D01*
X591290Y-12769331D02*
X619861Y-12769331D01*
X619861Y-12769331D02*
X638909Y-12778855D01*
X638909Y-12778855D02*
X648433Y-12797902D01*
X648433Y-12797902D02*
X648433Y-12902664D01*
X648433Y-12797902D02*
X657957Y-12778855D01*
X657957Y-12778855D02*
X677004Y-12769331D01*
X677004Y-12769331D02*
X705575Y-12769331D01*
X705575Y-12769331D02*
X724623Y-12778855D01*
X724623Y-12778855D02*
X734147Y-12797902D01*
X734147Y-12797902D02*
X734147Y-12902664D01*
X1124623Y-12693141D02*
X953195Y-12950283D01*
X1381766Y-12702664D02*
X1400814Y-12702664D01*
X1400814Y-12702664D02*
X1419861Y-12712188D01*
X1419861Y-12712188D02*
X1429385Y-12721712D01*
X1429385Y-12721712D02*
X1438909Y-12740760D01*
X1438909Y-12740760D02*
X1448433Y-12778855D01*
X1448433Y-12778855D02*
X1448433Y-12826474D01*
X1448433Y-12826474D02*
X1438909Y-12864569D01*
X1438909Y-12864569D02*
X1429385Y-12883617D01*
X1429385Y-12883617D02*
X1419861Y-12893141D01*
X1419861Y-12893141D02*
X1400814Y-12902664D01*
X1400814Y-12902664D02*
X1381766Y-12902664D01*
X1381766Y-12902664D02*
X1362719Y-12893141D01*
X1362719Y-12893141D02*
X1353195Y-12883617D01*
X1353195Y-12883617D02*
X1343671Y-12864569D01*
X1343671Y-12864569D02*
X1334147Y-12826474D01*
X1334147Y-12826474D02*
X1334147Y-12778855D01*
X1334147Y-12778855D02*
X1343671Y-12740760D01*
X1343671Y-12740760D02*
X1353195Y-12721712D01*
X1353195Y-12721712D02*
X1362719Y-12712188D01*
X1362719Y-12712188D02*
X1381766Y-12702664D01*
X1534147Y-12883617D02*
X1543671Y-12893141D01*
X1543671Y-12893141D02*
X1534147Y-12902664D01*
X1534147Y-12902664D02*
X1524623Y-12893141D01*
X1524623Y-12893141D02*
X1534147Y-12883617D01*
X1534147Y-12883617D02*
X1534147Y-12902664D01*
X1667480Y-12702664D02*
X1686528Y-12702664D01*
X1686528Y-12702664D02*
X1705576Y-12712188D01*
X1705576Y-12712188D02*
X1715099Y-12721712D01*
X1715099Y-12721712D02*
X1724623Y-12740760D01*
X1724623Y-12740760D02*
X1734147Y-12778855D01*
X1734147Y-12778855D02*
X1734147Y-12826474D01*
X1734147Y-12826474D02*
X1724623Y-12864569D01*
X1724623Y-12864569D02*
X1715099Y-12883617D01*
X1715099Y-12883617D02*
X1705576Y-12893141D01*
X1705576Y-12893141D02*
X1686528Y-12902664D01*
X1686528Y-12902664D02*
X1667480Y-12902664D01*
X1667480Y-12902664D02*
X1648433Y-12893141D01*
X1648433Y-12893141D02*
X1638909Y-12883617D01*
X1638909Y-12883617D02*
X1629385Y-12864569D01*
X1629385Y-12864569D02*
X1619861Y-12826474D01*
X1619861Y-12826474D02*
X1619861Y-12778855D01*
X1619861Y-12778855D02*
X1629385Y-12740760D01*
X1629385Y-12740760D02*
X1638909Y-12721712D01*
X1638909Y-12721712D02*
X1648433Y-12712188D01*
X1648433Y-12712188D02*
X1667480Y-12702664D01*
X1810338Y-12721712D02*
X1819861Y-12712188D01*
X1819861Y-12712188D02*
X1838909Y-12702664D01*
X1838909Y-12702664D02*
X1886528Y-12702664D01*
X1886528Y-12702664D02*
X1905576Y-12712188D01*
X1905576Y-12712188D02*
X1915099Y-12721712D01*
X1915099Y-12721712D02*
X1924623Y-12740760D01*
X1924623Y-12740760D02*
X1924623Y-12759807D01*
X1924623Y-12759807D02*
X1915099Y-12788379D01*
X1915099Y-12788379D02*
X1800814Y-12902664D01*
X1800814Y-12902664D02*
X1924623Y-12902664D01*
X1991290Y-12702664D02*
X2115100Y-12702664D01*
X2115100Y-12702664D02*
X2048433Y-12778855D01*
X2048433Y-12778855D02*
X2077004Y-12778855D01*
X2077004Y-12778855D02*
X2096052Y-12788379D01*
X2096052Y-12788379D02*
X2105576Y-12797902D01*
X2105576Y-12797902D02*
X2115100Y-12816950D01*
X2115100Y-12816950D02*
X2115100Y-12864569D01*
X2115100Y-12864569D02*
X2105576Y-12883617D01*
X2105576Y-12883617D02*
X2096052Y-12893141D01*
X2096052Y-12893141D02*
X2077004Y-12902664D01*
X2077004Y-12902664D02*
X2019861Y-12902664D01*
X2019861Y-12902664D02*
X2000814Y-12893141D01*
X2000814Y-12893141D02*
X1991290Y-12883617D01*
X2286528Y-12702664D02*
X2248433Y-12702664D01*
X2248433Y-12702664D02*
X2229385Y-12712188D01*
X2229385Y-12712188D02*
X2219861Y-12721712D01*
X2219861Y-12721712D02*
X2200814Y-12750283D01*
X2200814Y-12750283D02*
X2191290Y-12788379D01*
X2191290Y-12788379D02*
X2191290Y-12864569D01*
X2191290Y-12864569D02*
X2200814Y-12883617D01*
X2200814Y-12883617D02*
X2210338Y-12893141D01*
X2210338Y-12893141D02*
X2229385Y-12902664D01*
X2229385Y-12902664D02*
X2267481Y-12902664D01*
X2267481Y-12902664D02*
X2286528Y-12893141D01*
X2286528Y-12893141D02*
X2296052Y-12883617D01*
X2296052Y-12883617D02*
X2305576Y-12864569D01*
X2305576Y-12864569D02*
X2305576Y-12816950D01*
X2305576Y-12816950D02*
X2296052Y-12797902D01*
X2296052Y-12797902D02*
X2286528Y-12788379D01*
X2286528Y-12788379D02*
X2267481Y-12778855D01*
X2267481Y-12778855D02*
X2229385Y-12778855D01*
X2229385Y-12778855D02*
X2210338Y-12788379D01*
X2210338Y-12788379D02*
X2200814Y-12797902D01*
X2200814Y-12797902D02*
X2191290Y-12816950D01*
X2381766Y-12702664D02*
X2381766Y-12740760D01*
X2457957Y-12702664D02*
X2457957Y-12740760D01*
X2753195Y-12978855D02*
X2743671Y-12969331D01*
X2743671Y-12969331D02*
X2724623Y-12940760D01*
X2724623Y-12940760D02*
X2715100Y-12921712D01*
X2715100Y-12921712D02*
X2705576Y-12893141D01*
X2705576Y-12893141D02*
X2696052Y-12845521D01*
X2696052Y-12845521D02*
X2696052Y-12807426D01*
X2696052Y-12807426D02*
X2705576Y-12759807D01*
X2705576Y-12759807D02*
X2715100Y-12731236D01*
X2715100Y-12731236D02*
X2724623Y-12712188D01*
X2724623Y-12712188D02*
X2743671Y-12683617D01*
X2743671Y-12683617D02*
X2753195Y-12674093D01*
X2867480Y-12702664D02*
X2886528Y-12702664D01*
X2886528Y-12702664D02*
X2905576Y-12712188D01*
X2905576Y-12712188D02*
X2915100Y-12721712D01*
X2915100Y-12721712D02*
X2924623Y-12740760D01*
X2924623Y-12740760D02*
X2934147Y-12778855D01*
X2934147Y-12778855D02*
X2934147Y-12826474D01*
X2934147Y-12826474D02*
X2924623Y-12864569D01*
X2924623Y-12864569D02*
X2915100Y-12883617D01*
X2915100Y-12883617D02*
X2905576Y-12893141D01*
X2905576Y-12893141D02*
X2886528Y-12902664D01*
X2886528Y-12902664D02*
X2867480Y-12902664D01*
X2867480Y-12902664D02*
X2848433Y-12893141D01*
X2848433Y-12893141D02*
X2838909Y-12883617D01*
X2838909Y-12883617D02*
X2829385Y-12864569D01*
X2829385Y-12864569D02*
X2819861Y-12826474D01*
X2819861Y-12826474D02*
X2819861Y-12778855D01*
X2819861Y-12778855D02*
X2829385Y-12740760D01*
X2829385Y-12740760D02*
X2838909Y-12721712D01*
X2838909Y-12721712D02*
X2848433Y-12712188D01*
X2848433Y-12712188D02*
X2867480Y-12702664D01*
X3172242Y-12902664D02*
X3172242Y-12702664D01*
X3257957Y-12902664D02*
X3257957Y-12797902D01*
X3257957Y-12797902D02*
X3248433Y-12778855D01*
X3248433Y-12778855D02*
X3229385Y-12769331D01*
X3229385Y-12769331D02*
X3200814Y-12769331D01*
X3200814Y-12769331D02*
X3181766Y-12778855D01*
X3181766Y-12778855D02*
X3172242Y-12788379D01*
X3381766Y-12902664D02*
X3362719Y-12893141D01*
X3362719Y-12893141D02*
X3353195Y-12883617D01*
X3353195Y-12883617D02*
X3343671Y-12864569D01*
X3343671Y-12864569D02*
X3343671Y-12807426D01*
X3343671Y-12807426D02*
X3353195Y-12788379D01*
X3353195Y-12788379D02*
X3362719Y-12778855D01*
X3362719Y-12778855D02*
X3381766Y-12769331D01*
X3381766Y-12769331D02*
X3410338Y-12769331D01*
X3410338Y-12769331D02*
X3429385Y-12778855D01*
X3429385Y-12778855D02*
X3438909Y-12788379D01*
X3438909Y-12788379D02*
X3448433Y-12807426D01*
X3448433Y-12807426D02*
X3448433Y-12864569D01*
X3448433Y-12864569D02*
X3438909Y-12883617D01*
X3438909Y-12883617D02*
X3429385Y-12893141D01*
X3429385Y-12893141D02*
X3410338Y-12902664D01*
X3410338Y-12902664D02*
X3381766Y-12902664D01*
X3562719Y-12902664D02*
X3543671Y-12893141D01*
X3543671Y-12893141D02*
X3534147Y-12874093D01*
X3534147Y-12874093D02*
X3534147Y-12702664D01*
X3715100Y-12893141D02*
X3696052Y-12902664D01*
X3696052Y-12902664D02*
X3657957Y-12902664D01*
X3657957Y-12902664D02*
X3638909Y-12893141D01*
X3638909Y-12893141D02*
X3629385Y-12874093D01*
X3629385Y-12874093D02*
X3629385Y-12797902D01*
X3629385Y-12797902D02*
X3638909Y-12778855D01*
X3638909Y-12778855D02*
X3657957Y-12769331D01*
X3657957Y-12769331D02*
X3696052Y-12769331D01*
X3696052Y-12769331D02*
X3715100Y-12778855D01*
X3715100Y-12778855D02*
X3724623Y-12797902D01*
X3724623Y-12797902D02*
X3724623Y-12816950D01*
X3724623Y-12816950D02*
X3629385Y-12835998D01*
X3800814Y-12893141D02*
X3819862Y-12902664D01*
X3819862Y-12902664D02*
X3857957Y-12902664D01*
X3857957Y-12902664D02*
X3877004Y-12893141D01*
X3877004Y-12893141D02*
X3886528Y-12874093D01*
X3886528Y-12874093D02*
X3886528Y-12864569D01*
X3886528Y-12864569D02*
X3877004Y-12845521D01*
X3877004Y-12845521D02*
X3857957Y-12835998D01*
X3857957Y-12835998D02*
X3829385Y-12835998D01*
X3829385Y-12835998D02*
X3810338Y-12826474D01*
X3810338Y-12826474D02*
X3800814Y-12807426D01*
X3800814Y-12807426D02*
X3800814Y-12797902D01*
X3800814Y-12797902D02*
X3810338Y-12778855D01*
X3810338Y-12778855D02*
X3829385Y-12769331D01*
X3829385Y-12769331D02*
X3857957Y-12769331D01*
X3857957Y-12769331D02*
X3877004Y-12778855D01*
X4124624Y-12826474D02*
X4277005Y-12826474D01*
X4200814Y-12902664D02*
X4200814Y-12750283D01*
X4610338Y-12769331D02*
X4610338Y-12902664D01*
X4562719Y-12693141D02*
X4515100Y-12835998D01*
X4515100Y-12835998D02*
X4638909Y-12835998D01*
X4857957Y-12893141D02*
X4877005Y-12902664D01*
X4877005Y-12902664D02*
X4915100Y-12902664D01*
X4915100Y-12902664D02*
X4934148Y-12893141D01*
X4934148Y-12893141D02*
X4943671Y-12874093D01*
X4943671Y-12874093D02*
X4943671Y-12864569D01*
X4943671Y-12864569D02*
X4934148Y-12845521D01*
X4934148Y-12845521D02*
X4915100Y-12835998D01*
X4915100Y-12835998D02*
X4886528Y-12835998D01*
X4886528Y-12835998D02*
X4867481Y-12826474D01*
X4867481Y-12826474D02*
X4857957Y-12807426D01*
X4857957Y-12807426D02*
X4857957Y-12797902D01*
X4857957Y-12797902D02*
X4867481Y-12778855D01*
X4867481Y-12778855D02*
X4886528Y-12769331D01*
X4886528Y-12769331D02*
X4915100Y-12769331D01*
X4915100Y-12769331D02*
X4934148Y-12778855D01*
X5057957Y-12902664D02*
X5038909Y-12893141D01*
X5038909Y-12893141D02*
X5029386Y-12874093D01*
X5029386Y-12874093D02*
X5029386Y-12702664D01*
X5162719Y-12902664D02*
X5143671Y-12893141D01*
X5143671Y-12893141D02*
X5134148Y-12883617D01*
X5134148Y-12883617D02*
X5124624Y-12864569D01*
X5124624Y-12864569D02*
X5124624Y-12807426D01*
X5124624Y-12807426D02*
X5134148Y-12788379D01*
X5134148Y-12788379D02*
X5143671Y-12778855D01*
X5143671Y-12778855D02*
X5162719Y-12769331D01*
X5162719Y-12769331D02*
X5191290Y-12769331D01*
X5191290Y-12769331D02*
X5210338Y-12778855D01*
X5210338Y-12778855D02*
X5219862Y-12788379D01*
X5219862Y-12788379D02*
X5229386Y-12807426D01*
X5229386Y-12807426D02*
X5229386Y-12864569D01*
X5229386Y-12864569D02*
X5219862Y-12883617D01*
X5219862Y-12883617D02*
X5210338Y-12893141D01*
X5210338Y-12893141D02*
X5191290Y-12902664D01*
X5191290Y-12902664D02*
X5162719Y-12902664D01*
X5286529Y-12769331D02*
X5362719Y-12769331D01*
X5315100Y-12702664D02*
X5315100Y-12874093D01*
X5315100Y-12874093D02*
X5324624Y-12893141D01*
X5324624Y-12893141D02*
X5343671Y-12902664D01*
X5343671Y-12902664D02*
X5362719Y-12902664D01*
X5419862Y-12893141D02*
X5438909Y-12902664D01*
X5438909Y-12902664D02*
X5477005Y-12902664D01*
X5477005Y-12902664D02*
X5496052Y-12893141D01*
X5496052Y-12893141D02*
X5505576Y-12874093D01*
X5505576Y-12874093D02*
X5505576Y-12864569D01*
X5505576Y-12864569D02*
X5496052Y-12845521D01*
X5496052Y-12845521D02*
X5477005Y-12835998D01*
X5477005Y-12835998D02*
X5448433Y-12835998D01*
X5448433Y-12835998D02*
X5429386Y-12826474D01*
X5429386Y-12826474D02*
X5419862Y-12807426D01*
X5419862Y-12807426D02*
X5419862Y-12797902D01*
X5419862Y-12797902D02*
X5429386Y-12778855D01*
X5429386Y-12778855D02*
X5448433Y-12769331D01*
X5448433Y-12769331D02*
X5477005Y-12769331D01*
X5477005Y-12769331D02*
X5496052Y-12778855D01*
X5572243Y-12978855D02*
X5581767Y-12969331D01*
X5581767Y-12969331D02*
X5600814Y-12940760D01*
X5600814Y-12940760D02*
X5610338Y-12921712D01*
X5610338Y-12921712D02*
X5619862Y-12893141D01*
X5619862Y-12893141D02*
X5629386Y-12845521D01*
X5629386Y-12845521D02*
X5629386Y-12807426D01*
X5629386Y-12807426D02*
X5619862Y-12759807D01*
X5619862Y-12759807D02*
X5610338Y-12731236D01*
X5610338Y-12731236D02*
X5600814Y-12712188D01*
X5600814Y-12712188D02*
X5581767Y-12683617D01*
X5581767Y-12683617D02*
X5572243Y-12674093D01*
D12*
X-836512Y-13110536D02*
X-836512Y-13039825D01*
X-907224Y-13039825D01*
X-907224Y-13110536D01*
X-836512Y-13110536D01*
D11*
X-456329Y-13166664D02*
X-570615Y-13166664D01*
X-513472Y-13166664D02*
X-513472Y-12966664D01*
X-513472Y-12966664D02*
X-532520Y-12995236D01*
X-532520Y-12995236D02*
X-551567Y-13014283D01*
X-551567Y-13014283D02*
X-570615Y-13023807D01*
X-370615Y-13147617D02*
X-361091Y-13157141D01*
X-361091Y-13157141D02*
X-370615Y-13166664D01*
X-370615Y-13166664D02*
X-380139Y-13157141D01*
X-380139Y-13157141D02*
X-370615Y-13147617D01*
X-370615Y-13147617D02*
X-370615Y-13166664D01*
X-237282Y-12966664D02*
X-218234Y-12966664D01*
X-218234Y-12966664D02*
X-199186Y-12976188D01*
X-199186Y-12976188D02*
X-189663Y-12985712D01*
X-189663Y-12985712D02*
X-180139Y-13004760D01*
X-180139Y-13004760D02*
X-170615Y-13042855D01*
X-170615Y-13042855D02*
X-170615Y-13090474D01*
X-170615Y-13090474D02*
X-180139Y-13128569D01*
X-180139Y-13128569D02*
X-189663Y-13147617D01*
X-189663Y-13147617D02*
X-199186Y-13157141D01*
X-199186Y-13157141D02*
X-218234Y-13166664D01*
X-218234Y-13166664D02*
X-237282Y-13166664D01*
X-237282Y-13166664D02*
X-256329Y-13157141D01*
X-256329Y-13157141D02*
X-265853Y-13147617D01*
X-265853Y-13147617D02*
X-275377Y-13128569D01*
X-275377Y-13128569D02*
X-284901Y-13090474D01*
X-284901Y-13090474D02*
X-284901Y-13042855D01*
X-284901Y-13042855D02*
X-275377Y-13004760D01*
X-275377Y-13004760D02*
X-265853Y-12985712D01*
X-265853Y-12985712D02*
X-256329Y-12976188D01*
X-256329Y-12976188D02*
X-237282Y-12966664D01*
X-46805Y-12966664D02*
X-27758Y-12966664D01*
X-27758Y-12966664D02*
X-8710Y-12976188D01*
X-8710Y-12976188D02*
X814Y-12985712D01*
X814Y-12985712D02*
X10337Y-13004760D01*
X10337Y-13004760D02*
X19861Y-13042855D01*
X19861Y-13042855D02*
X19861Y-13090474D01*
X19861Y-13090474D02*
X10337Y-13128569D01*
X10337Y-13128569D02*
X814Y-13147617D01*
X814Y-13147617D02*
X-8710Y-13157141D01*
X-8710Y-13157141D02*
X-27758Y-13166664D01*
X-27758Y-13166664D02*
X-46805Y-13166664D01*
X-46805Y-13166664D02*
X-65853Y-13157141D01*
X-65853Y-13157141D02*
X-75377Y-13147617D01*
X-75377Y-13147617D02*
X-84901Y-13128569D01*
X-84901Y-13128569D02*
X-94424Y-13090474D01*
X-94424Y-13090474D02*
X-94424Y-13042855D01*
X-94424Y-13042855D02*
X-84901Y-13004760D01*
X-84901Y-13004760D02*
X-75377Y-12985712D01*
X-75377Y-12985712D02*
X-65853Y-12976188D01*
X-65853Y-12976188D02*
X-46805Y-12966664D01*
X143671Y-12966664D02*
X162718Y-12966664D01*
X162718Y-12966664D02*
X181766Y-12976188D01*
X181766Y-12976188D02*
X191290Y-12985712D01*
X191290Y-12985712D02*
X200814Y-13004760D01*
X200814Y-13004760D02*
X210337Y-13042855D01*
X210337Y-13042855D02*
X210337Y-13090474D01*
X210337Y-13090474D02*
X200814Y-13128569D01*
X200814Y-13128569D02*
X191290Y-13147617D01*
X191290Y-13147617D02*
X181766Y-13157141D01*
X181766Y-13157141D02*
X162718Y-13166664D01*
X162718Y-13166664D02*
X143671Y-13166664D01*
X143671Y-13166664D02*
X124623Y-13157141D01*
X124623Y-13157141D02*
X115099Y-13147617D01*
X115099Y-13147617D02*
X105575Y-13128569D01*
X105575Y-13128569D02*
X96052Y-13090474D01*
X96052Y-13090474D02*
X96052Y-13042855D01*
X96052Y-13042855D02*
X105575Y-13004760D01*
X105575Y-13004760D02*
X115099Y-12985712D01*
X115099Y-12985712D02*
X124623Y-12976188D01*
X124623Y-12976188D02*
X143671Y-12966664D01*
X296052Y-13166664D02*
X296052Y-13033331D01*
X296052Y-13052379D02*
X305576Y-13042855D01*
X305576Y-13042855D02*
X324623Y-13033331D01*
X324623Y-13033331D02*
X353195Y-13033331D01*
X353195Y-13033331D02*
X372242Y-13042855D01*
X372242Y-13042855D02*
X381766Y-13061902D01*
X381766Y-13061902D02*
X381766Y-13166664D01*
X381766Y-13061902D02*
X391290Y-13042855D01*
X391290Y-13042855D02*
X410337Y-13033331D01*
X410337Y-13033331D02*
X438909Y-13033331D01*
X438909Y-13033331D02*
X457956Y-13042855D01*
X457956Y-13042855D02*
X467480Y-13061902D01*
X467480Y-13061902D02*
X467480Y-13166664D01*
X562718Y-13166664D02*
X562718Y-13033331D01*
X562718Y-13052379D02*
X572242Y-13042855D01*
X572242Y-13042855D02*
X591290Y-13033331D01*
X591290Y-13033331D02*
X619861Y-13033331D01*
X619861Y-13033331D02*
X638909Y-13042855D01*
X638909Y-13042855D02*
X648433Y-13061902D01*
X648433Y-13061902D02*
X648433Y-13166664D01*
X648433Y-13061902D02*
X657957Y-13042855D01*
X657957Y-13042855D02*
X677004Y-13033331D01*
X677004Y-13033331D02*
X705575Y-13033331D01*
X705575Y-13033331D02*
X724623Y-13042855D01*
X724623Y-13042855D02*
X734147Y-13061902D01*
X734147Y-13061902D02*
X734147Y-13166664D01*
X1124623Y-12957141D02*
X953195Y-13214283D01*
X1381766Y-12966664D02*
X1400814Y-12966664D01*
X1400814Y-12966664D02*
X1419861Y-12976188D01*
X1419861Y-12976188D02*
X1429385Y-12985712D01*
X1429385Y-12985712D02*
X1438909Y-13004760D01*
X1438909Y-13004760D02*
X1448433Y-13042855D01*
X1448433Y-13042855D02*
X1448433Y-13090474D01*
X1448433Y-13090474D02*
X1438909Y-13128569D01*
X1438909Y-13128569D02*
X1429385Y-13147617D01*
X1429385Y-13147617D02*
X1419861Y-13157141D01*
X1419861Y-13157141D02*
X1400814Y-13166664D01*
X1400814Y-13166664D02*
X1381766Y-13166664D01*
X1381766Y-13166664D02*
X1362719Y-13157141D01*
X1362719Y-13157141D02*
X1353195Y-13147617D01*
X1353195Y-13147617D02*
X1343671Y-13128569D01*
X1343671Y-13128569D02*
X1334147Y-13090474D01*
X1334147Y-13090474D02*
X1334147Y-13042855D01*
X1334147Y-13042855D02*
X1343671Y-13004760D01*
X1343671Y-13004760D02*
X1353195Y-12985712D01*
X1353195Y-12985712D02*
X1362719Y-12976188D01*
X1362719Y-12976188D02*
X1381766Y-12966664D01*
X1534147Y-13147617D02*
X1543671Y-13157141D01*
X1543671Y-13157141D02*
X1534147Y-13166664D01*
X1534147Y-13166664D02*
X1524623Y-13157141D01*
X1524623Y-13157141D02*
X1534147Y-13147617D01*
X1534147Y-13147617D02*
X1534147Y-13166664D01*
X1667480Y-12966664D02*
X1686528Y-12966664D01*
X1686528Y-12966664D02*
X1705576Y-12976188D01*
X1705576Y-12976188D02*
X1715099Y-12985712D01*
X1715099Y-12985712D02*
X1724623Y-13004760D01*
X1724623Y-13004760D02*
X1734147Y-13042855D01*
X1734147Y-13042855D02*
X1734147Y-13090474D01*
X1734147Y-13090474D02*
X1724623Y-13128569D01*
X1724623Y-13128569D02*
X1715099Y-13147617D01*
X1715099Y-13147617D02*
X1705576Y-13157141D01*
X1705576Y-13157141D02*
X1686528Y-13166664D01*
X1686528Y-13166664D02*
X1667480Y-13166664D01*
X1667480Y-13166664D02*
X1648433Y-13157141D01*
X1648433Y-13157141D02*
X1638909Y-13147617D01*
X1638909Y-13147617D02*
X1629385Y-13128569D01*
X1629385Y-13128569D02*
X1619861Y-13090474D01*
X1619861Y-13090474D02*
X1619861Y-13042855D01*
X1619861Y-13042855D02*
X1629385Y-13004760D01*
X1629385Y-13004760D02*
X1638909Y-12985712D01*
X1638909Y-12985712D02*
X1648433Y-12976188D01*
X1648433Y-12976188D02*
X1667480Y-12966664D01*
X1800814Y-12966664D02*
X1924623Y-12966664D01*
X1924623Y-12966664D02*
X1857957Y-13042855D01*
X1857957Y-13042855D02*
X1886528Y-13042855D01*
X1886528Y-13042855D02*
X1905576Y-13052379D01*
X1905576Y-13052379D02*
X1915099Y-13061902D01*
X1915099Y-13061902D02*
X1924623Y-13080950D01*
X1924623Y-13080950D02*
X1924623Y-13128569D01*
X1924623Y-13128569D02*
X1915099Y-13147617D01*
X1915099Y-13147617D02*
X1905576Y-13157141D01*
X1905576Y-13157141D02*
X1886528Y-13166664D01*
X1886528Y-13166664D02*
X1829385Y-13166664D01*
X1829385Y-13166664D02*
X1810338Y-13157141D01*
X1810338Y-13157141D02*
X1800814Y-13147617D01*
X2019861Y-13166664D02*
X2057957Y-13166664D01*
X2057957Y-13166664D02*
X2077004Y-13157141D01*
X2077004Y-13157141D02*
X2086528Y-13147617D01*
X2086528Y-13147617D02*
X2105576Y-13119045D01*
X2105576Y-13119045D02*
X2115100Y-13080950D01*
X2115100Y-13080950D02*
X2115100Y-13004760D01*
X2115100Y-13004760D02*
X2105576Y-12985712D01*
X2105576Y-12985712D02*
X2096052Y-12976188D01*
X2096052Y-12976188D02*
X2077004Y-12966664D01*
X2077004Y-12966664D02*
X2038909Y-12966664D01*
X2038909Y-12966664D02*
X2019861Y-12976188D01*
X2019861Y-12976188D02*
X2010338Y-12985712D01*
X2010338Y-12985712D02*
X2000814Y-13004760D01*
X2000814Y-13004760D02*
X2000814Y-13052379D01*
X2000814Y-13052379D02*
X2010338Y-13071426D01*
X2010338Y-13071426D02*
X2019861Y-13080950D01*
X2019861Y-13080950D02*
X2038909Y-13090474D01*
X2038909Y-13090474D02*
X2077004Y-13090474D01*
X2077004Y-13090474D02*
X2096052Y-13080950D01*
X2096052Y-13080950D02*
X2105576Y-13071426D01*
X2105576Y-13071426D02*
X2115100Y-13052379D01*
X2286528Y-13033331D02*
X2286528Y-13166664D01*
X2238909Y-12957141D02*
X2191290Y-13099998D01*
X2191290Y-13099998D02*
X2315100Y-13099998D01*
X2381766Y-12966664D02*
X2381766Y-13004760D01*
X2457957Y-12966664D02*
X2457957Y-13004760D01*
X2753195Y-13242855D02*
X2743671Y-13233331D01*
X2743671Y-13233331D02*
X2724623Y-13204760D01*
X2724623Y-13204760D02*
X2715100Y-13185712D01*
X2715100Y-13185712D02*
X2705576Y-13157141D01*
X2705576Y-13157141D02*
X2696052Y-13109521D01*
X2696052Y-13109521D02*
X2696052Y-13071426D01*
X2696052Y-13071426D02*
X2705576Y-13023807D01*
X2705576Y-13023807D02*
X2715100Y-12995236D01*
X2715100Y-12995236D02*
X2724623Y-12976188D01*
X2724623Y-12976188D02*
X2743671Y-12947617D01*
X2743671Y-12947617D02*
X2753195Y-12938093D01*
X2819861Y-12985712D02*
X2829385Y-12976188D01*
X2829385Y-12976188D02*
X2848433Y-12966664D01*
X2848433Y-12966664D02*
X2896052Y-12966664D01*
X2896052Y-12966664D02*
X2915100Y-12976188D01*
X2915100Y-12976188D02*
X2924623Y-12985712D01*
X2924623Y-12985712D02*
X2934147Y-13004760D01*
X2934147Y-13004760D02*
X2934147Y-13023807D01*
X2934147Y-13023807D02*
X2924623Y-13052379D01*
X2924623Y-13052379D02*
X2810338Y-13166664D01*
X2810338Y-13166664D02*
X2934147Y-13166664D01*
X3000814Y-12966664D02*
X3124623Y-12966664D01*
X3124623Y-12966664D02*
X3057957Y-13042855D01*
X3057957Y-13042855D02*
X3086528Y-13042855D01*
X3086528Y-13042855D02*
X3105576Y-13052379D01*
X3105576Y-13052379D02*
X3115100Y-13061902D01*
X3115100Y-13061902D02*
X3124623Y-13080950D01*
X3124623Y-13080950D02*
X3124623Y-13128569D01*
X3124623Y-13128569D02*
X3115100Y-13147617D01*
X3115100Y-13147617D02*
X3105576Y-13157141D01*
X3105576Y-13157141D02*
X3086528Y-13166664D01*
X3086528Y-13166664D02*
X3029385Y-13166664D01*
X3029385Y-13166664D02*
X3010338Y-13157141D01*
X3010338Y-13157141D02*
X3000814Y-13147617D01*
X3362719Y-13166664D02*
X3362719Y-12966664D01*
X3448433Y-13166664D02*
X3448433Y-13061902D01*
X3448433Y-13061902D02*
X3438909Y-13042855D01*
X3438909Y-13042855D02*
X3419862Y-13033331D01*
X3419862Y-13033331D02*
X3391290Y-13033331D01*
X3391290Y-13033331D02*
X3372242Y-13042855D01*
X3372242Y-13042855D02*
X3362719Y-13052379D01*
X3572242Y-13166664D02*
X3553195Y-13157141D01*
X3553195Y-13157141D02*
X3543671Y-13147617D01*
X3543671Y-13147617D02*
X3534147Y-13128569D01*
X3534147Y-13128569D02*
X3534147Y-13071426D01*
X3534147Y-13071426D02*
X3543671Y-13052379D01*
X3543671Y-13052379D02*
X3553195Y-13042855D01*
X3553195Y-13042855D02*
X3572242Y-13033331D01*
X3572242Y-13033331D02*
X3600814Y-13033331D01*
X3600814Y-13033331D02*
X3619862Y-13042855D01*
X3619862Y-13042855D02*
X3629385Y-13052379D01*
X3629385Y-13052379D02*
X3638909Y-13071426D01*
X3638909Y-13071426D02*
X3638909Y-13128569D01*
X3638909Y-13128569D02*
X3629385Y-13147617D01*
X3629385Y-13147617D02*
X3619862Y-13157141D01*
X3619862Y-13157141D02*
X3600814Y-13166664D01*
X3600814Y-13166664D02*
X3572242Y-13166664D01*
X3753195Y-13166664D02*
X3734147Y-13157141D01*
X3734147Y-13157141D02*
X3724623Y-13138093D01*
X3724623Y-13138093D02*
X3724623Y-12966664D01*
X3905576Y-13157141D02*
X3886528Y-13166664D01*
X3886528Y-13166664D02*
X3848433Y-13166664D01*
X3848433Y-13166664D02*
X3829385Y-13157141D01*
X3829385Y-13157141D02*
X3819862Y-13138093D01*
X3819862Y-13138093D02*
X3819862Y-13061902D01*
X3819862Y-13061902D02*
X3829385Y-13042855D01*
X3829385Y-13042855D02*
X3848433Y-13033331D01*
X3848433Y-13033331D02*
X3886528Y-13033331D01*
X3886528Y-13033331D02*
X3905576Y-13042855D01*
X3905576Y-13042855D02*
X3915100Y-13061902D01*
X3915100Y-13061902D02*
X3915100Y-13080950D01*
X3915100Y-13080950D02*
X3819862Y-13099998D01*
X3991290Y-13157141D02*
X4010338Y-13166664D01*
X4010338Y-13166664D02*
X4048433Y-13166664D01*
X4048433Y-13166664D02*
X4067481Y-13157141D01*
X4067481Y-13157141D02*
X4077004Y-13138093D01*
X4077004Y-13138093D02*
X4077004Y-13128569D01*
X4077004Y-13128569D02*
X4067481Y-13109521D01*
X4067481Y-13109521D02*
X4048433Y-13099998D01*
X4048433Y-13099998D02*
X4019862Y-13099998D01*
X4019862Y-13099998D02*
X4000814Y-13090474D01*
X4000814Y-13090474D02*
X3991290Y-13071426D01*
X3991290Y-13071426D02*
X3991290Y-13061902D01*
X3991290Y-13061902D02*
X4000814Y-13042855D01*
X4000814Y-13042855D02*
X4019862Y-13033331D01*
X4019862Y-13033331D02*
X4048433Y-13033331D01*
X4048433Y-13033331D02*
X4067481Y-13042855D01*
X4143671Y-13242855D02*
X4153195Y-13233331D01*
X4153195Y-13233331D02*
X4172243Y-13204760D01*
X4172243Y-13204760D02*
X4181766Y-13185712D01*
X4181766Y-13185712D02*
X4191290Y-13157141D01*
X4191290Y-13157141D02*
X4200814Y-13109521D01*
X4200814Y-13109521D02*
X4200814Y-13071426D01*
X4200814Y-13071426D02*
X4191290Y-13023807D01*
X4191290Y-13023807D02*
X4181766Y-12995236D01*
X4181766Y-12995236D02*
X4172243Y-12976188D01*
X4172243Y-12976188D02*
X4153195Y-12947617D01*
X4153195Y-12947617D02*
X4143671Y-12938093D01*
X-921868Y-13439181D02*
X-821868Y-13339181D01*
X-921868Y-13239181D01*
X-1021868Y-13339181D01*
X-921868Y-13439181D01*
X-580139Y-13230664D02*
X-456329Y-13230664D01*
X-456329Y-13230664D02*
X-522996Y-13306855D01*
X-522996Y-13306855D02*
X-494424Y-13306855D01*
X-494424Y-13306855D02*
X-475377Y-13316379D01*
X-475377Y-13316379D02*
X-465853Y-13325902D01*
X-465853Y-13325902D02*
X-456329Y-13344950D01*
X-456329Y-13344950D02*
X-456329Y-13392569D01*
X-456329Y-13392569D02*
X-465853Y-13411617D01*
X-465853Y-13411617D02*
X-475377Y-13421141D01*
X-475377Y-13421141D02*
X-494424Y-13430664D01*
X-494424Y-13430664D02*
X-551567Y-13430664D01*
X-551567Y-13430664D02*
X-570615Y-13421141D01*
X-570615Y-13421141D02*
X-580139Y-13411617D01*
X-370615Y-13411617D02*
X-361091Y-13421141D01*
X-361091Y-13421141D02*
X-370615Y-13430664D01*
X-370615Y-13430664D02*
X-380139Y-13421141D01*
X-380139Y-13421141D02*
X-370615Y-13411617D01*
X-370615Y-13411617D02*
X-370615Y-13430664D01*
X-237282Y-13230664D02*
X-218234Y-13230664D01*
X-218234Y-13230664D02*
X-199186Y-13240188D01*
X-199186Y-13240188D02*
X-189663Y-13249712D01*
X-189663Y-13249712D02*
X-180139Y-13268760D01*
X-180139Y-13268760D02*
X-170615Y-13306855D01*
X-170615Y-13306855D02*
X-170615Y-13354474D01*
X-170615Y-13354474D02*
X-180139Y-13392569D01*
X-180139Y-13392569D02*
X-189663Y-13411617D01*
X-189663Y-13411617D02*
X-199186Y-13421141D01*
X-199186Y-13421141D02*
X-218234Y-13430664D01*
X-218234Y-13430664D02*
X-237282Y-13430664D01*
X-237282Y-13430664D02*
X-256329Y-13421141D01*
X-256329Y-13421141D02*
X-265853Y-13411617D01*
X-265853Y-13411617D02*
X-275377Y-13392569D01*
X-275377Y-13392569D02*
X-284901Y-13354474D01*
X-284901Y-13354474D02*
X-284901Y-13306855D01*
X-284901Y-13306855D02*
X-275377Y-13268760D01*
X-275377Y-13268760D02*
X-265853Y-13249712D01*
X-265853Y-13249712D02*
X-256329Y-13240188D01*
X-256329Y-13240188D02*
X-237282Y-13230664D01*
X-46805Y-13230664D02*
X-27758Y-13230664D01*
X-27758Y-13230664D02*
X-8710Y-13240188D01*
X-8710Y-13240188D02*
X814Y-13249712D01*
X814Y-13249712D02*
X10337Y-13268760D01*
X10337Y-13268760D02*
X19861Y-13306855D01*
X19861Y-13306855D02*
X19861Y-13354474D01*
X19861Y-13354474D02*
X10337Y-13392569D01*
X10337Y-13392569D02*
X814Y-13411617D01*
X814Y-13411617D02*
X-8710Y-13421141D01*
X-8710Y-13421141D02*
X-27758Y-13430664D01*
X-27758Y-13430664D02*
X-46805Y-13430664D01*
X-46805Y-13430664D02*
X-65853Y-13421141D01*
X-65853Y-13421141D02*
X-75377Y-13411617D01*
X-75377Y-13411617D02*
X-84901Y-13392569D01*
X-84901Y-13392569D02*
X-94424Y-13354474D01*
X-94424Y-13354474D02*
X-94424Y-13306855D01*
X-94424Y-13306855D02*
X-84901Y-13268760D01*
X-84901Y-13268760D02*
X-75377Y-13249712D01*
X-75377Y-13249712D02*
X-65853Y-13240188D01*
X-65853Y-13240188D02*
X-46805Y-13230664D01*
X143671Y-13230664D02*
X162718Y-13230664D01*
X162718Y-13230664D02*
X181766Y-13240188D01*
X181766Y-13240188D02*
X191290Y-13249712D01*
X191290Y-13249712D02*
X200814Y-13268760D01*
X200814Y-13268760D02*
X210337Y-13306855D01*
X210337Y-13306855D02*
X210337Y-13354474D01*
X210337Y-13354474D02*
X200814Y-13392569D01*
X200814Y-13392569D02*
X191290Y-13411617D01*
X191290Y-13411617D02*
X181766Y-13421141D01*
X181766Y-13421141D02*
X162718Y-13430664D01*
X162718Y-13430664D02*
X143671Y-13430664D01*
X143671Y-13430664D02*
X124623Y-13421141D01*
X124623Y-13421141D02*
X115099Y-13411617D01*
X115099Y-13411617D02*
X105575Y-13392569D01*
X105575Y-13392569D02*
X96052Y-13354474D01*
X96052Y-13354474D02*
X96052Y-13306855D01*
X96052Y-13306855D02*
X105575Y-13268760D01*
X105575Y-13268760D02*
X115099Y-13249712D01*
X115099Y-13249712D02*
X124623Y-13240188D01*
X124623Y-13240188D02*
X143671Y-13230664D01*
X296052Y-13430664D02*
X296052Y-13297331D01*
X296052Y-13316379D02*
X305576Y-13306855D01*
X305576Y-13306855D02*
X324623Y-13297331D01*
X324623Y-13297331D02*
X353195Y-13297331D01*
X353195Y-13297331D02*
X372242Y-13306855D01*
X372242Y-13306855D02*
X381766Y-13325902D01*
X381766Y-13325902D02*
X381766Y-13430664D01*
X381766Y-13325902D02*
X391290Y-13306855D01*
X391290Y-13306855D02*
X410337Y-13297331D01*
X410337Y-13297331D02*
X438909Y-13297331D01*
X438909Y-13297331D02*
X457956Y-13306855D01*
X457956Y-13306855D02*
X467480Y-13325902D01*
X467480Y-13325902D02*
X467480Y-13430664D01*
X562718Y-13430664D02*
X562718Y-13297331D01*
X562718Y-13316379D02*
X572242Y-13306855D01*
X572242Y-13306855D02*
X591290Y-13297331D01*
X591290Y-13297331D02*
X619861Y-13297331D01*
X619861Y-13297331D02*
X638909Y-13306855D01*
X638909Y-13306855D02*
X648433Y-13325902D01*
X648433Y-13325902D02*
X648433Y-13430664D01*
X648433Y-13325902D02*
X657957Y-13306855D01*
X657957Y-13306855D02*
X677004Y-13297331D01*
X677004Y-13297331D02*
X705575Y-13297331D01*
X705575Y-13297331D02*
X724623Y-13306855D01*
X724623Y-13306855D02*
X734147Y-13325902D01*
X734147Y-13325902D02*
X734147Y-13430664D01*
X1124623Y-13221141D02*
X953195Y-13478283D01*
X1381766Y-13230664D02*
X1400814Y-13230664D01*
X1400814Y-13230664D02*
X1419861Y-13240188D01*
X1419861Y-13240188D02*
X1429385Y-13249712D01*
X1429385Y-13249712D02*
X1438909Y-13268760D01*
X1438909Y-13268760D02*
X1448433Y-13306855D01*
X1448433Y-13306855D02*
X1448433Y-13354474D01*
X1448433Y-13354474D02*
X1438909Y-13392569D01*
X1438909Y-13392569D02*
X1429385Y-13411617D01*
X1429385Y-13411617D02*
X1419861Y-13421141D01*
X1419861Y-13421141D02*
X1400814Y-13430664D01*
X1400814Y-13430664D02*
X1381766Y-13430664D01*
X1381766Y-13430664D02*
X1362719Y-13421141D01*
X1362719Y-13421141D02*
X1353195Y-13411617D01*
X1353195Y-13411617D02*
X1343671Y-13392569D01*
X1343671Y-13392569D02*
X1334147Y-13354474D01*
X1334147Y-13354474D02*
X1334147Y-13306855D01*
X1334147Y-13306855D02*
X1343671Y-13268760D01*
X1343671Y-13268760D02*
X1353195Y-13249712D01*
X1353195Y-13249712D02*
X1362719Y-13240188D01*
X1362719Y-13240188D02*
X1381766Y-13230664D01*
X1534147Y-13411617D02*
X1543671Y-13421141D01*
X1543671Y-13421141D02*
X1534147Y-13430664D01*
X1534147Y-13430664D02*
X1524623Y-13421141D01*
X1524623Y-13421141D02*
X1534147Y-13411617D01*
X1534147Y-13411617D02*
X1534147Y-13430664D01*
X1734147Y-13430664D02*
X1619861Y-13430664D01*
X1677004Y-13430664D02*
X1677004Y-13230664D01*
X1677004Y-13230664D02*
X1657957Y-13259236D01*
X1657957Y-13259236D02*
X1638909Y-13278283D01*
X1638909Y-13278283D02*
X1619861Y-13287807D01*
X1924623Y-13430664D02*
X1810338Y-13430664D01*
X1867480Y-13430664D02*
X1867480Y-13230664D01*
X1867480Y-13230664D02*
X1848433Y-13259236D01*
X1848433Y-13259236D02*
X1829385Y-13278283D01*
X1829385Y-13278283D02*
X1810338Y-13287807D01*
X2038909Y-13316379D02*
X2019861Y-13306855D01*
X2019861Y-13306855D02*
X2010338Y-13297331D01*
X2010338Y-13297331D02*
X2000814Y-13278283D01*
X2000814Y-13278283D02*
X2000814Y-13268760D01*
X2000814Y-13268760D02*
X2010338Y-13249712D01*
X2010338Y-13249712D02*
X2019861Y-13240188D01*
X2019861Y-13240188D02*
X2038909Y-13230664D01*
X2038909Y-13230664D02*
X2077004Y-13230664D01*
X2077004Y-13230664D02*
X2096052Y-13240188D01*
X2096052Y-13240188D02*
X2105576Y-13249712D01*
X2105576Y-13249712D02*
X2115100Y-13268760D01*
X2115100Y-13268760D02*
X2115100Y-13278283D01*
X2115100Y-13278283D02*
X2105576Y-13297331D01*
X2105576Y-13297331D02*
X2096052Y-13306855D01*
X2096052Y-13306855D02*
X2077004Y-13316379D01*
X2077004Y-13316379D02*
X2038909Y-13316379D01*
X2038909Y-13316379D02*
X2019861Y-13325902D01*
X2019861Y-13325902D02*
X2010338Y-13335426D01*
X2010338Y-13335426D02*
X2000814Y-13354474D01*
X2000814Y-13354474D02*
X2000814Y-13392569D01*
X2000814Y-13392569D02*
X2010338Y-13411617D01*
X2010338Y-13411617D02*
X2019861Y-13421141D01*
X2019861Y-13421141D02*
X2038909Y-13430664D01*
X2038909Y-13430664D02*
X2077004Y-13430664D01*
X2077004Y-13430664D02*
X2096052Y-13421141D01*
X2096052Y-13421141D02*
X2105576Y-13411617D01*
X2105576Y-13411617D02*
X2115100Y-13392569D01*
X2115100Y-13392569D02*
X2115100Y-13354474D01*
X2115100Y-13354474D02*
X2105576Y-13335426D01*
X2105576Y-13335426D02*
X2096052Y-13325902D01*
X2096052Y-13325902D02*
X2077004Y-13316379D01*
X2305576Y-13430664D02*
X2191290Y-13430664D01*
X2248433Y-13430664D02*
X2248433Y-13230664D01*
X2248433Y-13230664D02*
X2229385Y-13259236D01*
X2229385Y-13259236D02*
X2210338Y-13278283D01*
X2210338Y-13278283D02*
X2191290Y-13287807D01*
X2381766Y-13230664D02*
X2381766Y-13268760D01*
X2457957Y-13230664D02*
X2457957Y-13268760D01*
X2753195Y-13506855D02*
X2743671Y-13497331D01*
X2743671Y-13497331D02*
X2724623Y-13468760D01*
X2724623Y-13468760D02*
X2715100Y-13449712D01*
X2715100Y-13449712D02*
X2705576Y-13421141D01*
X2705576Y-13421141D02*
X2696052Y-13373521D01*
X2696052Y-13373521D02*
X2696052Y-13335426D01*
X2696052Y-13335426D02*
X2705576Y-13287807D01*
X2705576Y-13287807D02*
X2715100Y-13259236D01*
X2715100Y-13259236D02*
X2724623Y-13240188D01*
X2724623Y-13240188D02*
X2743671Y-13211617D01*
X2743671Y-13211617D02*
X2753195Y-13202093D01*
X2915100Y-13297331D02*
X2915100Y-13430664D01*
X2867480Y-13221141D02*
X2819861Y-13363998D01*
X2819861Y-13363998D02*
X2943671Y-13363998D01*
X3172242Y-13430664D02*
X3172242Y-13230664D01*
X3257957Y-13430664D02*
X3257957Y-13325902D01*
X3257957Y-13325902D02*
X3248433Y-13306855D01*
X3248433Y-13306855D02*
X3229385Y-13297331D01*
X3229385Y-13297331D02*
X3200814Y-13297331D01*
X3200814Y-13297331D02*
X3181766Y-13306855D01*
X3181766Y-13306855D02*
X3172242Y-13316379D01*
X3381766Y-13430664D02*
X3362719Y-13421141D01*
X3362719Y-13421141D02*
X3353195Y-13411617D01*
X3353195Y-13411617D02*
X3343671Y-13392569D01*
X3343671Y-13392569D02*
X3343671Y-13335426D01*
X3343671Y-13335426D02*
X3353195Y-13316379D01*
X3353195Y-13316379D02*
X3362719Y-13306855D01*
X3362719Y-13306855D02*
X3381766Y-13297331D01*
X3381766Y-13297331D02*
X3410338Y-13297331D01*
X3410338Y-13297331D02*
X3429385Y-13306855D01*
X3429385Y-13306855D02*
X3438909Y-13316379D01*
X3438909Y-13316379D02*
X3448433Y-13335426D01*
X3448433Y-13335426D02*
X3448433Y-13392569D01*
X3448433Y-13392569D02*
X3438909Y-13411617D01*
X3438909Y-13411617D02*
X3429385Y-13421141D01*
X3429385Y-13421141D02*
X3410338Y-13430664D01*
X3410338Y-13430664D02*
X3381766Y-13430664D01*
X3562719Y-13430664D02*
X3543671Y-13421141D01*
X3543671Y-13421141D02*
X3534147Y-13402093D01*
X3534147Y-13402093D02*
X3534147Y-13230664D01*
X3715100Y-13421141D02*
X3696052Y-13430664D01*
X3696052Y-13430664D02*
X3657957Y-13430664D01*
X3657957Y-13430664D02*
X3638909Y-13421141D01*
X3638909Y-13421141D02*
X3629385Y-13402093D01*
X3629385Y-13402093D02*
X3629385Y-13325902D01*
X3629385Y-13325902D02*
X3638909Y-13306855D01*
X3638909Y-13306855D02*
X3657957Y-13297331D01*
X3657957Y-13297331D02*
X3696052Y-13297331D01*
X3696052Y-13297331D02*
X3715100Y-13306855D01*
X3715100Y-13306855D02*
X3724623Y-13325902D01*
X3724623Y-13325902D02*
X3724623Y-13344950D01*
X3724623Y-13344950D02*
X3629385Y-13363998D01*
X3800814Y-13421141D02*
X3819862Y-13430664D01*
X3819862Y-13430664D02*
X3857957Y-13430664D01*
X3857957Y-13430664D02*
X3877004Y-13421141D01*
X3877004Y-13421141D02*
X3886528Y-13402093D01*
X3886528Y-13402093D02*
X3886528Y-13392569D01*
X3886528Y-13392569D02*
X3877004Y-13373521D01*
X3877004Y-13373521D02*
X3857957Y-13363998D01*
X3857957Y-13363998D02*
X3829385Y-13363998D01*
X3829385Y-13363998D02*
X3810338Y-13354474D01*
X3810338Y-13354474D02*
X3800814Y-13335426D01*
X3800814Y-13335426D02*
X3800814Y-13325902D01*
X3800814Y-13325902D02*
X3810338Y-13306855D01*
X3810338Y-13306855D02*
X3829385Y-13297331D01*
X3829385Y-13297331D02*
X3857957Y-13297331D01*
X3857957Y-13297331D02*
X3877004Y-13306855D01*
X3953195Y-13506855D02*
X3962719Y-13497331D01*
X3962719Y-13497331D02*
X3981766Y-13468760D01*
X3981766Y-13468760D02*
X3991290Y-13449712D01*
X3991290Y-13449712D02*
X4000814Y-13421141D01*
X4000814Y-13421141D02*
X4010338Y-13373521D01*
X4010338Y-13373521D02*
X4010338Y-13335426D01*
X4010338Y-13335426D02*
X4000814Y-13287807D01*
X4000814Y-13287807D02*
X3991290Y-13259236D01*
X3991290Y-13259236D02*
X3981766Y-13240188D01*
X3981766Y-13240188D02*
X3962719Y-13211617D01*
X3962719Y-13211617D02*
X3953195Y-13202093D01*
M02*
