M48
; DRILL file {KiCad 9.0.5} date 2026-04-12T00:32:08-0700
; FORMAT={-:-/ absolute / metric / decimal}
; #@! TF.CreationDate,2026-04-12T00:32:08-07:00
; #@! TF.GenerationSoftware,Kicad,Pcbnew,9.0.5
; #@! TF.FileFunction,Plated,1,4,PTH
FMAT,2
METRIC
; #@! TA.AperFunction,Plated,PTH,ViaDrill
T1C0.300
; #@! TA.AperFunction,Plated,PTH,ComponentDrill
T2C0.300
; #@! TA.AperFunction,Plated,PTH,ComponentDrill
T3C0.600
; #@! TA.AperFunction,Plated,PTH,ComponentDrill
T4C1.000
; #@! TA.AperFunction,Plated,PTH,ComponentDrill
T5C3.000
%
G90
G05
T1
X-6.685Y-88.88
X-6.685Y-90.15
X-6.685Y-91.38
X-1.565Y-88.14
X-1.375Y-92.15
X1.885Y-81.33
X4.015Y-79.23
X6.105Y-77.09
X8.5Y-59.65
X8.7Y-113.55
X10.645Y-53.5
X12.575Y-92.03
X15.005Y-90.22
X16.775Y-87.697
X34.475Y-109.94
X35.555Y-79.465
X35.587Y-113.462
X35.675Y-88.06
X35.775Y-69.3
X35.775Y-70.45
X35.825Y-97.2
X37.497Y-90.4
X37.925Y-95.15
X38.055Y-66.47
X38.15Y-83.25
X38.55Y-99.4
X38.585Y-58.15
X39.55Y-84.7
X40.2Y-61.1
X40.9Y-84.75
X40.925Y-109.925
X41.15Y-82.0
X42.09Y-95.6
X42.3Y-93.37
X42.675Y-77.59
X43.837Y-113.35
X44.205Y-107.01
X44.225Y-75.55
X44.262Y-66.438
X45.35Y-87.5
X47.545Y-79.44
X47.6Y-63.2
X47.6Y-64.6
X47.6Y-65.4
X47.85Y-83.0
X47.896Y-84.81
X47.955Y-108.74
X48.0Y-59.7
X48.0Y-60.7
X48.375Y-75.75
X48.55Y-71.76
X48.875Y-109.925
X48.94Y-92.11
X49.025Y-77.45
X49.15Y-86.29
X49.775Y-57.07
X50.137Y-87.087
X51.015Y-97.75
X51.1Y-95.43
X51.2Y-61.7
X51.7Y-113.425
X53.375Y-90.0
X53.775Y-81.431
X54.025Y-90.65
X54.145Y-63.1
X54.265Y-67.865
X54.645Y-106.93
X54.765Y-103.43
X54.875Y-83.95
X55.475Y-78.45
X55.55Y-91.6
X55.55Y-92.45
X55.565Y-106.93
X56.0Y-69.2
X56.1Y-58.6
X56.8Y-69.9
X56.85Y-109.925
X57.6Y-70.7
X58.2Y-85.9
X58.225Y-56.55
X58.234Y-77.05
X58.3Y-88.2
X58.73Y-69.697
X59.1Y-91.55
X59.15Y-92.55
X59.525Y-77.0
X59.65Y-113.425
X60.575Y-68.6
X61.0Y-60.1
X61.065Y-99.42
X61.225Y-84.25
X61.515Y-101.23
X62.075Y-67.125
X62.5Y-72.7
X62.7Y-63.7
X62.965Y-108.72
X63.165Y-75.37
X63.875Y-96.45
X64.705Y-78.02
X64.825Y-109.925
X65.1Y-64.03
X65.15Y-70.81
X65.4Y-58.9
X65.77Y-70.18
X65.845Y-54.63
X66.045Y-81.98
X67.195Y-82.02
X67.8Y-73.25
X68.225Y-82.05
X68.625Y-60.35
X68.642Y-59.262
X69.245Y-82.07
X69.8Y-104.275
X69.836Y-92.856
X70.88Y-84.84
X71.047Y-53.662
X71.31Y-73.05
X71.68Y-70.67
X71.8Y-98.15
X72.15Y-79.75
X72.7Y-90.25
X72.725Y-92.61
X73.705Y-61.81
X73.775Y-60.475
X75.435Y-60.5
X76.04Y-64.23
X76.5Y-74.4
X77.535Y-64.23
X77.605Y-87.52
X78.215Y-91.18
X78.455Y-60.47
X79.395Y-61.79
X80.18Y-60.5
X80.7Y-73.4
X81.55Y-108.05
X82.007Y-110.652
X82.315Y-61.15
X84.635Y-87.16
X84.927Y-105.522
X86.375Y-60.5
X86.907Y-108.132
X87.625Y-53.6
X87.75Y-59.7
X88.675Y-83.27
X88.7Y-90.75
X89.55Y-106.05
X89.55Y-106.9
X90.95Y-94.45
X93.185Y-80.92
X94.985Y-84.33
T2
X56.149Y-81.452
X57.175Y-80.426
X57.175Y-82.477
X58.2Y-79.401
X58.2Y-81.452
X58.2Y-83.502
X59.225Y-80.426
X59.225Y-82.477
X60.251Y-81.452
T4
X-4.085Y-101.69
X-4.065Y-96.97
X-3.455Y-75.92
X-3.425Y-80.85
X35.165Y-56.2
X36.9Y-104.05
X38.555Y-56.14
X39.45Y-106.1
X39.65Y-101.4
X42.845Y-56.15
X54.315Y-65.53
X58.595Y-54.27
X58.915Y-96.97
X73.8Y-102.1
X73.875Y-97.46
X77.855Y-102.0
X78.335Y-70.24
X84.6Y-73.2
X85.35Y-95.4
X85.45Y-99.85
X92.6Y-105.3
X92.65Y-110.1
X97.655Y-104.64
T5
X-4.155Y-112.38
X-4.145Y-56.47
X97.705Y-112.35
X97.735Y-56.45
T3
G00X72.66Y-54.1
M15
G01X72.66Y-54.9
M16
G05
G00X72.66Y-58.12
M15
G01X72.66Y-59.22
M16
G05
G00X81.3Y-54.1
M15
G01X81.3Y-54.9
M16
G05
G00X81.3Y-58.12
M15
G01X81.3Y-59.22
M16
G05
M30
